<svg width="11" height="13" viewBox="0 0 11 13" fill="none" xmlns="http://www.w3.org/2000/svg">
<path fill-rule="evenodd" clip-rule="evenodd" d="M5.60866 0.279446C5.7706 0.233039 5.94428 0.241712 6.10085 0.30386C6.25732 0.366077 6.38918 0.478862 6.47585 0.623196C6.56232 0.76739 6.59973 0.936456 6.5823 1.10366L6.25027 4.3771H9.73659L9.84206 4.38491C9.9462 4.39998 10.047 4.43628 10.137 4.49234C10.2571 4.56724 10.3547 4.67446 10.4182 4.80093C10.4816 4.92723 10.5092 5.06923 10.4983 5.21011C10.4872 5.35094 10.437 5.48688 10.3548 5.60171L10.3538 5.60269L5.39577 12.4337C5.32493 12.531 5.23136 12.6113 5.12429 12.6662C5.01707 12.721 4.89803 12.749 4.77761 12.7492C4.67946 12.7495 4.58224 12.7308 4.49148 12.6935C4.33328 12.6295 4.20121 12.5148 4.1155 12.3673C4.02988 12.2197 3.99506 12.0464 4.01687 11.8771L4.44851 8.56656L0.767843 8.57925C0.624938 8.57916 0.48373 8.53878 0.36257 8.46304C0.241304 8.38709 0.143552 8.27792 0.0803432 8.14956C0.0173115 8.02134 -0.00985514 7.87778 0.00319477 7.7355C0.0163749 7.59337 0.0691553 7.45731 0.154562 7.34292L5.20534 0.55972C5.30556 0.425054 5.44729 0.325873 5.60866 0.279446ZM5.32058 7.27652C5.3945 7.27588 5.46789 7.29203 5.53542 7.32241C5.60293 7.3528 5.6632 7.39734 5.71218 7.45327C5.76115 7.50921 5.79797 7.57522 5.8196 7.64663C5.84116 7.71798 5.84775 7.79337 5.83816 7.86734L5.55105 10.0275L5.55202 10.0265L5.83816 7.86734C5.84289 7.83061 5.84409 7.79271 5.84109 7.75601L5.8196 7.64663C5.80881 7.61108 5.7945 7.57636 5.77663 7.54409L5.71218 7.45327C5.68784 7.42548 5.66152 7.39994 5.6321 7.37808L5.5364 7.32144C5.46907 7.29114 5.39427 7.27598 5.32058 7.27652ZM2.303 7.03238L5.3196 7.02554H5.42409L5.43386 7.03531C5.50428 7.04542 5.57371 7.06454 5.63894 7.0939C5.73919 7.13906 5.82919 7.20552 5.90163 7.28824C5.97391 7.37086 6.02795 7.46835 6.05984 7.57339C6.08367 7.65209 6.09484 7.73468 6.09304 7.81656L6.0862 7.89956L5.92898 9.0812L8.2239 5.92202H5.3987C5.29139 5.92235 5.18528 5.89916 5.08718 5.85562C4.98843 5.81172 4.89959 5.74756 4.82741 5.66714C4.75538 5.58683 4.7006 5.4924 4.66726 5.3898C4.63396 5.2871 4.6231 5.17787 4.63405 5.07046L4.77663 3.71695L2.303 7.03238ZM10.1936 4.91324C10.2076 4.941 10.2171 4.97058 10.2259 5.00015C10.2239 4.99361 10.2241 4.98611 10.2219 4.97964L10.1936 4.91324ZM10.0042 4.70523C10.0245 4.71789 10.0445 4.731 10.0628 4.74624L10.0042 4.70523C9.98388 4.69257 9.96337 4.6817 9.94167 4.67202L10.0042 4.70523ZM6.26101 0.752102C6.31954 0.849831 6.34426 0.964667 6.3323 1.07827L6.33327 1.0773C6.34507 0.963766 6.3196 0.849716 6.26101 0.752102Z" fill="#707470"/>
</svg>
