<svg width="13" height="13" viewBox="0 0 13 13" fill="none" xmlns="http://www.w3.org/2000/svg">
<path fill-rule="evenodd" clip-rule="evenodd" d="M7.52148 0C8.11297 0 8.6501 0.241897 9.03711 0.628906C9.40187 0.993716 9.63424 1.49208 9.66016 2.04297H10.7686C11.3841 2.04297 11.942 2.29554 12.3447 2.69824C12.7475 3.101 13 3.65932 13 4.27441V6.1582C13 6.58949 12.65 6.93945 12.2188 6.93945H11.5391C11.3809 6.93945 11.2353 7.00397 11.1279 7.11133C11.021 7.21835 10.9571 7.36359 10.957 7.52148C10.957 7.63994 10.9925 7.75152 11.0557 7.84473L11.1279 7.93164C11.235 8.03872 11.381 8.10352 11.5391 8.10352H12.2188C12.65 8.10352 13 8.45348 13 8.88477V10.7686C13 11.3841 12.7474 11.942 12.3447 12.3447C11.942 12.7475 11.3837 13 10.7686 13H8.88477C8.45348 13 8.10352 12.65 8.10352 12.2188V11.5391C8.10352 11.3812 8.03893 11.2352 7.93164 11.1279C7.82461 11.021 7.67939 10.9571 7.52148 10.957C7.40302 10.957 7.29145 10.9925 7.19824 11.0557L7.11133 11.1279C7.00424 11.235 6.93945 11.381 6.93945 11.5391V12.2188C6.93945 12.65 6.58949 13 6.1582 13H4.27441C3.65905 13 3.09983 12.7478 2.69727 12.3447C2.29513 11.9421 2.04297 11.3836 2.04297 10.7686V9.66016C1.49174 9.63425 0.993689 9.40184 0.628906 9.03711C0.241854 8.65006 0 8.11254 0 7.52148C5.65631e-05 6.93017 0.242046 6.39379 0.628906 6.00684C0.993703 5.64204 1.49168 5.40871 2.04297 5.38281V4.27441C2.04303 3.65898 2.29557 3.10091 2.69824 2.69824C3.0527 2.34387 3.52731 2.1056 4.05566 2.05371L4.06738 2.04297H5.38281C5.40872 1.49202 5.64201 0.993729 6.00684 0.628906C6.39383 0.242002 6.9306 5.64405e-05 7.52148 0ZM7.52148 1.5625C7.40298 1.5625 7.29147 1.59889 7.19824 1.66211L7.11133 1.73438C7.00418 1.84153 6.93945 1.98694 6.93945 2.14453V2.60547H7.36621L6.89746 3.07324C6.79347 3.38224 6.50305 3.60516 6.15918 3.60547H4.27441C4.09233 3.60553 3.92541 3.68006 3.80273 3.80273L3.80176 3.80176C3.67885 3.92512 3.60547 4.09272 3.60547 4.27441V6.1582C3.60547 6.58949 3.25551 6.93945 2.82422 6.93945H2.14453C2.02597 6.93945 1.91455 6.97578 1.82129 7.03906L1.73438 7.11133C1.62757 7.21793 1.56256 7.36313 1.5625 7.52148C1.5625 7.63998 1.5989 7.7515 1.66211 7.84473L1.73438 7.93164C1.84153 8.03879 1.98694 8.10352 2.14453 8.10352H2.82422C3.25551 8.10352 3.60547 8.45348 3.60547 8.88477V10.7686C3.60547 10.95 3.67916 11.1169 3.80176 11.2402C3.92444 11.3629 4.09233 11.4374 4.27441 11.4375H5.38281C5.4087 10.8862 5.64203 10.3882 6.00684 10.0234C6.39383 9.63652 6.93059 9.39459 7.52148 9.39453C8.11297 9.39453 8.6501 9.63643 9.03711 10.0234C9.40184 10.3882 9.63427 10.8863 9.66016 11.4375H10.7686C10.9505 11.4375 11.1178 11.3634 11.2412 11.2402C11.3639 11.1169 11.4375 10.9501 11.4375 10.7686V9.66016C10.8863 9.63427 10.3882 9.40184 10.0234 9.03711C9.63638 8.65006 9.39453 8.11254 9.39453 7.52148C9.39459 6.93016 9.63656 6.39379 10.0234 6.00684C10.3883 5.642 10.8865 5.40871 11.4375 5.38281V4.27441C11.4374 4.09262 11.3633 3.92609 11.2402 3.80273C11.1169 3.68014 10.95 3.60547 10.7686 3.60547H8.88477C8.45348 3.60547 8.10352 3.25551 8.10352 2.82422V2.14453C8.10352 1.98656 8.03856 1.84109 7.93164 1.73438C7.8246 1.62738 7.67943 1.56254 7.52148 1.5625ZM3.62207 11.7363C3.74668 11.8208 3.88793 11.8827 4.04004 11.9141C3.9639 11.8984 3.89037 11.8746 3.82031 11.8447C3.75051 11.815 3.68423 11.7785 3.62207 11.7363ZM6.625 10.9346C6.62009 10.9418 6.61607 10.9497 6.61133 10.957C6.61846 10.9459 6.62529 10.9346 6.63281 10.9238L6.625 10.9346ZM8.88379 10.6211C8.91331 10.6647 8.94148 10.7094 8.9668 10.7559C8.91603 10.6628 8.8561 10.5753 8.78906 10.4941L8.88379 10.6211ZM7.41113 10.4619C7.37511 10.4656 7.33961 10.4713 7.30469 10.4785C7.37481 10.4641 7.44731 10.457 7.52148 10.457C7.48428 10.457 7.44742 10.4582 7.41113 10.4619ZM10.8516 8.35547C10.8648 8.36641 10.8788 8.3764 10.8926 8.38672C10.8753 8.37378 10.8583 8.3606 10.8418 8.34668L10.8516 8.35547ZM10.6426 6.91797C10.6338 6.93091 10.6264 6.94468 10.6182 6.95801C10.6287 6.94092 10.6389 6.92368 10.6504 6.90723L10.6426 6.91797ZM1.24805 6.91797C1.24035 6.92933 1.23383 6.94146 1.22656 6.95312C1.23619 6.93771 1.2455 6.92212 1.25586 6.90723L1.24805 6.91797ZM8.77344 3.08301C8.79087 3.09057 8.80908 3.0967 8.82812 3.10059L8.77539 3.08398L8.77344 3.08301ZM6.625 1.54102C6.6173 1.55238 6.61079 1.56451 6.60352 1.57617C6.61314 1.56075 6.62246 1.54517 6.63281 1.53027L6.625 1.54102ZM8.88379 1.22656C8.91331 1.27019 8.94148 1.31488 8.9668 1.36133C8.91604 1.26822 8.85608 1.18079 8.78906 1.09961L8.88379 1.22656Z" fill="#707470"/>
</svg>
