<svg width="13" height="13" viewBox="0 0 13 13" fill="none" xmlns="http://www.w3.org/2000/svg">
<path fill-rule="evenodd" clip-rule="evenodd" d="M1.37227 6.85567C2.51115 6.81374 3.66592 6.81374 4.80392 6.85567C5.47495 6.88222 6.04291 7.40468 6.13399 8.06173L6.14571 8.19454C6.18766 9.33347 6.18764 10.4891 6.14571 11.6272V11.6291C6.11899 12.3012 5.59428 12.8666 4.9377 12.9572L4.80489 12.969C4.23562 12.9902 3.66087 13.0002 3.08809 13.0002C2.51528 13.0002 1.94173 12.9897 1.37325 12.969C0.65637 12.9411 0.0591062 12.3466 0.0314539 11.6291C-0.010475 10.4902 -0.0104943 9.33357 0.0314539 8.19552C0.0593255 7.47882 0.655022 6.88353 1.37227 6.85567ZM3.08809 8.30392C2.56031 8.30392 2.03132 8.31389 1.50704 8.33224C1.47035 9.38022 1.4704 10.4429 1.50704 11.4914C2.55539 11.5281 3.61836 11.5281 4.6672 11.4914C4.70384 10.4433 4.7039 9.38097 4.6672 8.33224C4.14353 8.3139 3.61569 8.30392 3.08809 8.30392Z" fill="#707470"/>
<path fill-rule="evenodd" clip-rule="evenodd" d="M8.19552 6.85567C9.33453 6.81372 10.49 6.81373 11.6281 6.85567C12.3445 6.88404 12.94 7.47711 12.968 8.19454C13.0099 9.33349 13.0099 10.4891 12.968 11.6272C12.9421 12.2996 12.4182 12.8663 11.7619 12.9572L11.6281 12.969C11.059 12.9902 10.485 13.0002 9.91231 13.0002C9.33879 13.0002 8.76519 12.9897 8.19649 12.969C7.47961 12.9411 6.88333 12.3466 6.85567 11.6291C6.81374 10.4902 6.81372 9.33455 6.85567 8.19649C6.88422 7.48041 7.47833 6.88377 8.19552 6.85567ZM7.96798 12.4231C8.02052 12.4412 8.07515 12.4543 8.13106 12.4621C8.15869 12.4659 8.18681 12.4679 8.21505 12.469C8.1864 12.4678 8.1581 12.4651 8.13009 12.4611C8.04657 12.4495 7.96614 12.426 7.89083 12.3918L7.96798 12.4231ZM9.91231 8.30392C9.38444 8.30392 8.85563 8.31389 8.33126 8.33224C8.29457 9.38023 8.29462 10.4429 8.33126 11.4914C9.37961 11.5281 10.4426 11.5281 11.4914 11.4914C11.5281 10.4432 11.5281 9.38084 11.4914 8.33224C10.9677 8.31391 10.4399 8.30392 9.91231 8.30392Z" fill="#707470"/>
<path fill-rule="evenodd" clip-rule="evenodd" d="M1.37227 0.0314545C2.51119 -0.0104934 3.66588 -0.0104762 4.80392 0.0314545C5.47635 0.0573414 6.04299 0.582259 6.13399 1.23849L6.14571 1.3713C6.18766 2.51021 6.18764 3.66588 6.14571 4.80392V4.80587C6.11902 5.47799 5.5943 6.04335 4.9377 6.13399L4.80489 6.14571C4.23562 6.16694 3.66085 6.17696 3.08809 6.17696C2.51528 6.17695 1.94174 6.16642 1.37325 6.14571H1.3713C0.655074 6.11707 0.0592255 5.52328 0.0314539 4.80587C-0.0104808 3.66698 -0.0104816 2.51126 0.0314539 1.37325V1.3713C0.0600826 0.65519 0.655004 0.0594003 1.37227 0.0314545ZM1.01095 1.40938C0.969934 2.52308 0.969941 3.65357 1.01095 4.76778C0.990454 4.21088 0.980676 3.64993 0.980673 3.08907C0.980667 2.52781 0.990433 1.96643 1.01095 1.40938ZM3.08809 1.4797C2.56048 1.4797 2.03214 1.48969 1.50802 1.50802C1.47131 2.55634 1.47135 3.61937 1.50802 4.66817C2.5565 4.70488 3.61921 4.70487 4.66817 4.66817C4.70483 3.62005 4.70389 2.5568 4.6672 1.50802C4.14354 1.48969 3.61568 1.4797 3.08809 1.4797Z" fill="#707470"/>
<path fill-rule="evenodd" clip-rule="evenodd" d="M10.7717 0.00801699L11.6281 0.0314545L11.7619 0.0431732C12.3744 0.127941 12.8725 0.625736 12.9572 1.23849L12.969 1.3713C13.0109 2.51021 13.0109 3.66589 12.969 4.80392C12.9412 5.52121 12.3463 6.11706 11.6291 6.14474C11.0599 6.16596 10.485 6.17696 9.91231 6.17696C9.339 6.17695 8.76596 6.16544 8.19747 6.14474H8.19552C7.47996 6.11619 6.88349 5.52403 6.85567 4.80587C6.81374 3.66697 6.81374 2.51127 6.85567 1.37325V1.3713C6.88431 0.655293 7.4774 0.0595404 8.19454 0.0314545C9.04884 -1.05724e-05 9.91346 -0.00771183 10.7717 0.00801699ZM8.13106 5.63888C8.15872 5.64276 8.18678 5.64457 8.21505 5.64571L8.13106 5.63888C8.10303 5.63495 8.07531 5.62887 8.04806 5.62227L8.13106 5.63888ZM9.91329 1.4797C9.38543 1.4797 8.8566 1.48869 8.33224 1.50704C8.29551 2.55545 8.29556 3.61822 8.33224 4.6672C9.38073 4.70392 10.4434 4.70388 11.4924 4.6672C11.5291 3.61885 11.5291 2.55585 11.4924 1.50704C10.9687 1.48871 10.4409 1.4797 9.91329 1.4797ZM11.592 1.01095C11.6442 1.01303 11.6948 1.02636 11.7414 1.04806C11.7878 1.0696 11.8302 1.09968 11.8664 1.13595C11.9386 1.20831 11.9855 1.30521 11.9895 1.40841C11.9816 1.20138 11.7995 1.01925 11.592 1.01095ZM11.7766 0.554892C11.8113 0.563266 11.8449 0.574669 11.8781 0.587119C11.8192 0.56503 11.7579 0.54813 11.6945 0.539267L11.7766 0.554892Z" fill="#707470"/>
</svg>
