<svg width="39" height="37" viewBox="0 0 39 37" fill="none" xmlns="http://www.w3.org/2000/svg">
<path fill-rule="evenodd" clip-rule="evenodd" d="M4.38771 12.4811C4.23819 12.457 4.10432 12.3744 4.01557 12.2517L4.01381 12.2493C3.50231 11.5271 3.1841 10.6857 3.08988 9.80564C3.00158 8.98061 3.11322 8.14719 3.41338 7.37534L3.47587 7.22157L3.47655 7.21942C3.53421 7.08737 3.63986 6.98186 3.77195 6.92437C3.90417 6.86692 4.05382 6.86162 4.18978 6.90958L4.20973 6.91672L4.22017 6.92058L4.22986 6.92461C4.36794 6.98565 4.47653 7.09891 4.53154 7.23946C4.58641 7.3797 4.58379 7.53616 4.52425 7.67445C4.25428 8.30747 4.15081 8.99915 4.224 9.68341C4.29721 10.3671 4.54446 11.0208 4.94168 11.582L4.97206 11.6295C5.03818 11.7431 5.06354 11.8769 5.0425 12.0078C5.01838 12.1573 4.93573 12.2913 4.81311 12.38C4.69037 12.4687 4.53721 12.5051 4.38771 12.4811ZM4.11676 7.18053C4.15144 7.19585 4.18197 7.21819 4.20789 7.24487C4.19518 7.23167 4.18208 7.21879 4.167 7.20821L4.11676 7.18053ZM4.25258 7.30245C4.25081 7.29934 4.24837 7.29663 4.24649 7.29359C4.25592 7.30869 4.26438 7.3245 4.27097 7.34131L4.25258 7.30245ZM3.88321 7.18111C3.91619 7.16676 3.9514 7.15915 3.9867 7.1576C3.9696 7.15832 3.9525 7.15965 3.93572 7.16342L3.88321 7.18111ZM4.69466 12.1131C4.69212 12.1159 4.68881 12.1179 4.68616 12.1206L4.69277 12.1151C4.6934 12.1144 4.69404 12.1137 4.69466 12.1131ZM4.53184 12.2039C4.53462 12.2034 4.53734 12.2025 4.5401 12.2019C4.5234 12.2055 4.50645 12.2078 4.4893 12.2085L4.53184 12.2039Z" fill="#0FDAC2"/>
<path fill-rule="evenodd" clip-rule="evenodd" d="M1.44648 11.0242C1.31427 10.9546 1.21492 10.8358 1.16922 10.6936L1.16685 10.687C0.992508 10.0924 0.96194 9.46456 1.07785 8.85585C1.19383 8.24711 1.453 7.67423 1.83378 7.1853L1.83567 7.18326C1.90949 7.09039 2.01044 7.02273 2.12437 6.98979C2.23841 6.95687 2.36017 6.95996 2.47219 6.99924C2.55776 7.02946 2.63542 7.08018 2.6977 7.14619C2.75993 7.21217 2.80545 7.29205 2.83065 7.37909C2.85582 7.46626 2.85983 7.55861 2.84236 7.64767C2.82487 7.73661 2.78651 7.82029 2.73032 7.89143C2.46212 8.23621 2.27973 8.63995 2.19797 9.06904C2.11613 9.49882 2.13775 9.94231 2.26093 10.3621L2.26165 10.3651C2.30191 10.509 2.28396 10.663 2.21202 10.7939C2.14 10.9248 2.01955 11.0226 1.87652 11.0656C1.73342 11.1086 1.57876 11.0937 1.44648 11.0242ZM2.49467 7.33786C2.47884 7.32108 2.46089 7.30627 2.4417 7.29376L2.37968 7.26333L2.44095 7.29394C2.46031 7.30652 2.47872 7.32095 2.49467 7.33786ZM2.05415 7.35727C2.06213 7.34722 2.07075 7.33776 2.07991 7.32891L2.05415 7.35727ZM1.92324 9.01676C1.93451 8.95765 1.94749 8.89898 1.9622 8.84083L1.92324 9.01676ZM1.99238 10.4405C1.9975 10.4588 2.0007 10.4778 2.00217 10.4964L1.99238 10.4405ZM1.74074 10.8092C1.75557 10.8077 1.77008 10.804 1.78464 10.8003C1.75161 10.8088 1.71785 10.8123 1.68439 10.8091L1.74074 10.8092Z" fill="#0FDAC2"/>
<path d="M35.6611 29.9042C35.516 30.1539 35.3418 30.392 35.1385 30.6185C33.4663 32.4245 31.0798 33.4697 28.5656 33.3478C24.1469 33.1213 20.8197 30.8043 18.0675 27.5059C14.7984 23.5223 11.8661 19.7419 9.60162 16.3506C8.49838 14.6724 7.4358 12.9187 6.95386 10.9675C6.15837 7.72141 7.18031 4.09202 9.54355 1.73438C7.91773 4.02234 7.29644 7.03037 7.96419 9.76548C8.44612 11.7108 9.50871 13.4704 10.6119 15.1486C12.8765 18.5399 15.8087 22.3261 19.0836 26.3039C21.8359 29.6022 25.163 31.9192 29.5817 32.1457C31.8579 32.2561 34.0295 31.4082 35.6611 29.9042Z" fill="#0FDAC2"/>
<path fill-rule="evenodd" clip-rule="evenodd" d="M11.8875 0.00319887C12.9402 0.0475654 14.054 0.58538 15.2172 1.5488C16.3832 2.51456 17.6231 3.92816 18.9312 5.77083C19.2836 6.26741 19.5295 6.78091 19.6571 7.30278L19.7046 7.52655L19.7291 7.67936C19.8374 8.43939 19.7302 9.15091 19.4033 9.80183C19.0668 10.4719 18.5052 11.06 17.7431 11.5707C17.7255 11.5863 17.7075 11.6018 17.688 11.6154L17.6858 11.617C17.5381 11.7175 17.3858 11.8189 17.2268 11.9325L17.223 11.9352C16.9815 12.102 16.7031 12.2973 16.4076 12.4864L16.4048 12.4881C16.1067 12.6744 15.8832 12.9589 15.7723 13.2925C15.6753 13.5845 15.6699 13.898 15.7554 14.1914L15.7974 14.3158L15.7979 14.3169C17.1978 17.966 20.2254 21.9692 22.9574 23.8192C23.3401 24.0792 23.8037 24.1475 24.2383 24.0108L24.3218 23.9819C24.7098 23.8352 25.0177 23.5426 25.1923 23.1501C25.1988 23.1179 25.207 23.086 25.2191 23.0551L25.2944 22.8712C25.684 21.9704 26.2774 21.3469 27.0747 21.0642C28.2435 20.6445 29.6904 20.979 31.4404 21.9598C33.7897 23.2549 35.4151 24.681 36.241 26.2113L36.3452 26.4198C36.8313 27.4684 36.8346 28.6674 36.3561 29.762C36.3518 29.7819 36.3468 29.8017 36.3403 29.821C36.3665 29.8842 36.3819 29.9522 36.3845 30.0213L36.3851 30.0256C36.3975 30.5772 36.2842 31.1768 36.0576 31.753C35.2704 33.7634 33.5227 35.3945 31.2897 36.255C30.0209 36.7577 28.6034 37.001 27.0703 37.001C26.3428 37.001 25.5924 36.9472 24.8136 36.8351C22.7241 36.5408 20.6925 35.8943 18.6436 35.2093C18.4914 35.1601 18.3398 35.1067 18.1835 35.0505C17.37 35.3531 16.4111 35.3343 15.4552 35.0117C14.04 34.5376 12.9096 33.5518 11.9923 32.6982L11.9895 32.6961C11.8614 32.5738 11.736 32.4541 11.6113 32.3408L11.6069 32.3364C10.8468 31.6145 10.0812 30.8978 9.21973 30.3875L9.04617 30.2881C7.87372 29.6435 6.64308 29.531 5.74588 29.9274C5.46364 30.0542 5.13277 29.9235 5.0069 29.642C4.87748 29.3581 5.00935 29.0245 5.29398 28.8992L5.41405 28.849C6.6632 28.35 8.17836 28.5269 9.58867 29.3052L9.78679 29.4182C10.5068 29.8439 11.1434 30.3786 11.739 30.924L12.3748 31.5183L12.3759 31.5194L12.7542 31.8747L12.7569 31.8774C13.6279 32.6904 14.6212 33.5497 15.8045 33.9469C15.9975 34.0093 16.2537 34.0756 16.5402 34.1118C16.0548 33.6427 15.7526 33.04 15.7412 32.4237V32.4221C15.7276 31.3637 16.642 30.3955 17.7098 30.328L17.8075 30.3242C18.8137 30.3097 19.7612 31.0691 19.9807 32.0608L20.0119 32.2349C20.1108 32.9527 19.8386 33.6952 19.3449 34.2553C21.3079 34.9071 23.091 35.4541 24.9669 35.719L25.385 35.772C27.4604 36.0095 29.3066 35.8186 30.8837 35.212C32.7219 34.5061 34.1559 33.2189 34.8765 31.6689C33.2266 33.1159 31.1393 33.9174 28.9849 33.9175C28.8388 33.9175 28.6932 33.9118 28.5549 33.906L28.5521 33.9055C24.4165 33.6915 20.8475 31.6965 17.6508 27.865L17.6497 27.8639C13.9712 23.3946 11.1891 19.7278 9.14387 16.6626L9.14278 16.6615C8.10913 15.0935 6.9403 13.2112 6.41664 11.1046C5.58268 7.70337 6.63377 3.91634 9.08329 1.40799C9.10171 1.38154 9.12279 1.35649 9.14605 1.33322L9.15151 1.32722L9.15751 1.32176L9.20499 1.27919L9.26776 1.21698C9.98653 0.382357 10.8732 -0.0414574 11.8875 0.00319887ZM36.0974 29.9738C36.1016 29.9921 36.1044 30.0111 36.1051 30.0305C36.1167 30.5416 36.0121 31.1051 35.7973 31.6509C35.0424 33.5787 33.3586 35.1579 31.1871 35.9941C29.9562 36.4819 28.5742 36.72 27.0703 36.72C26.9238 36.72 26.7762 36.7173 26.6277 36.7129C26.6859 36.7146 26.744 36.7178 26.8018 36.7189L27.0703 36.7216C28.574 36.7216 29.9563 36.4834 31.1871 35.9957C33.3586 35.1595 35.043 33.5798 35.7978 31.652C36.0126 31.1062 36.1172 30.5426 36.1056 30.0316C36.1049 30.0118 36.1018 29.9924 36.0974 29.9738ZM9.18043 30.042C7.95539 29.3685 6.63158 29.2292 5.63291 29.6703C5.49355 29.7342 5.3251 29.6703 5.26123 29.5252C5.25235 29.5058 5.24619 29.4858 5.24213 29.4657C5.24617 29.4861 5.25225 29.5066 5.26123 29.5263C5.32517 29.6713 5.49361 29.7353 5.63291 29.6714C6.63161 29.2301 7.95585 29.3695 9.18098 30.0431C10.1506 30.5773 10.9926 31.3675 11.7996 32.1339C11.9273 32.25 12.0551 32.3723 12.1827 32.4941C13.1001 33.3477 14.1919 34.2941 15.5447 34.747C16.491 35.0663 17.4202 35.0665 18.1808 34.753C18.3723 34.8227 18.5526 34.8866 18.7326 34.9446C20.7821 35.6298 22.7912 36.2686 24.8523 36.559C24.9176 36.5684 24.9829 36.575 25.0477 36.5835C24.9828 36.575 24.9176 36.5673 24.8523 36.5579C22.791 36.2675 20.7817 35.6287 18.732 34.9435C18.552 34.8854 18.3719 34.8211 18.1802 34.7514C17.4196 35.0649 16.4906 35.0653 15.5442 34.7459C14.1913 34.293 13.0996 33.3461 12.1822 32.4925C12.0545 32.3706 11.9267 32.2489 11.7991 32.1328C10.992 31.3663 10.1501 30.5763 9.18043 30.042ZM16.4392 33.5747C16.5938 33.7855 16.7874 33.9806 17.0139 34.1489C17.1294 34.2365 17.2511 34.3155 17.378 34.3857H17.379C17.2516 34.3153 17.1294 34.2358 17.0134 34.1478C16.7871 33.9797 16.5937 33.7852 16.4392 33.5747ZM17.7824 31.455C17.5515 31.4712 17.3204 31.5904 17.1449 31.7759C16.9683 31.9626 16.8674 32.1955 16.8693 32.415L16.8726 32.481C16.9003 32.7914 17.0932 33.1396 17.4385 33.4176L17.5149 33.4759L17.5166 33.477C17.7008 33.613 17.9165 33.7257 18.1448 33.8252C18.7103 33.47 19.0057 32.8274 18.8897 32.3113L18.8892 32.3091C18.7891 31.8448 18.3037 31.4551 17.838 31.455H17.7824ZM7.33626 12.916C7.90889 14.2289 8.6685 15.4338 9.37637 16.5076C11.4144 19.562 14.19 23.2205 17.8653 27.6859C21.024 31.472 24.5256 33.4175 28.5669 33.6266C28.6365 33.6295 28.7063 33.6326 28.7759 33.6348L28.9849 33.638C31.3712 33.638 33.6763 32.622 35.3601 30.8104C35.383 30.7851 35.4045 30.7585 35.4267 30.7324C35.4046 30.758 35.3828 30.7838 35.3601 30.8088C33.6762 32.6206 31.3708 33.637 28.9844 33.637C28.845 33.6369 28.7056 33.6313 28.5663 33.6255C24.525 33.4164 21.0235 31.471 17.8648 27.6849C14.1894 23.2193 11.4139 19.561 9.37582 16.5065C8.66812 15.433 7.90881 14.2285 7.33626 12.916ZM16.0206 32.4172V32.4183C16.0278 32.8064 16.1708 33.1985 16.4207 33.5485C16.1706 33.1983 16.0277 32.8056 16.0206 32.4172ZM9.3982 2.73092C7.56567 4.94705 6.82381 8.04002 7.50491 10.8306C7.97973 12.7468 9.06791 14.5051 10.0728 16.0388C12.0917 19.0646 14.8552 22.6974 18.5099 27.1473C21.5204 30.7659 24.8205 32.5918 28.604 32.7845C30.8879 32.8964 33.1253 31.9726 34.7374 30.2368C34.8249 30.1404 34.9065 30.0392 34.983 29.9334C31.6024 28.6204 28.5092 26.6629 25.8757 24.1701C25.5446 24.5976 25.0891 24.9163 24.5674 25.0783C23.8057 25.3186 22.9867 25.1937 22.3205 24.7476L22.3188 24.7465C19.3434 22.7291 16.2394 18.6087 14.7419 14.7148C14.2879 13.5395 14.735 12.1954 15.8012 11.5319L16.001 11.4036C16.1528 11.3038 16.2989 11.2019 16.4447 11.1002C13.0421 8.16913 10.8159 5.54042 9.3982 2.73092ZM17.7682 31.1745C17.1411 31.2151 16.5835 31.8075 16.5893 32.4172C16.59 32.4692 16.5947 32.5215 16.6024 32.5738C16.5948 32.5218 16.5905 32.4699 16.5899 32.4183C16.5841 31.8086 17.1417 31.2162 17.7687 31.1756H17.838C18.4112 31.1756 18.9833 31.6188 19.1424 32.177C18.9838 31.6183 18.4116 31.1746 17.838 31.1745H17.7682ZM19.7073 32.1208C19.7292 32.2184 19.743 32.3176 19.7488 32.4172C19.746 32.3692 19.7417 32.3213 19.7352 32.2736L19.7079 32.1225C19.7031 32.1009 19.6959 32.0799 19.6904 32.0586C19.6958 32.0794 19.7027 32.0998 19.7073 32.1208ZM35.4742 30.6767C35.481 30.6685 35.4881 30.6604 35.4949 30.6522L35.4955 30.6505C35.4883 30.6592 35.4814 30.6681 35.4742 30.6767ZM36.0625 29.7637C36.0505 29.7887 36.0373 29.8132 36.0249 29.8379C36.0372 29.8134 36.0512 29.7896 36.0631 29.7648C36.0699 29.7505 36.074 29.7352 36.0778 29.72C36.0735 29.7348 36.0692 29.7497 36.0625 29.7637ZM32.9363 28.7316C33.7399 29.1249 34.5632 29.4806 35.4043 29.7953L35.4054 29.7942C34.5641 29.4794 33.7401 29.1249 32.9363 28.7316ZM36.0854 29.6818C36.0851 29.684 36.0853 29.6862 36.0849 29.6884C36.0852 29.6865 36.0857 29.6847 36.086 29.6829C36.0925 29.6683 36.0982 29.6533 36.1045 29.6387C36.0983 29.6531 36.0919 29.6674 36.0854 29.6818ZM36.1149 26.5906C36.078 26.5075 36.0388 26.4249 35.9954 26.3439C35.8228 26.0241 35.6111 25.7086 35.3639 25.3959C35.6108 25.7084 35.8224 26.0233 35.9948 26.3428C36.0384 26.4241 36.0778 26.5072 36.1149 26.5906ZM15.0284 14.6793C16.5185 18.51 19.5714 22.5466 22.4755 24.5156C23.0735 24.9162 23.8057 25.0262 24.485 24.8114C25.0519 24.6353 25.532 24.2527 25.8304 23.7395C26.1828 24.0812 26.544 24.4128 26.9132 24.7345C26.5437 24.4125 26.1825 24.0803 25.8298 23.7384C25.5314 24.2517 25.0515 24.6343 24.4845 24.8103C23.8051 25.0252 23.0735 24.9147 22.4755 24.514C19.5716 22.5451 16.5186 18.5097 15.0284 14.6793ZM15.5365 14.4157C15.6396 14.6843 15.7519 14.9547 15.8716 15.2262C15.7521 14.9551 15.64 14.6851 15.5371 14.4168C15.5347 14.4108 15.5328 14.4043 15.5305 14.3983C15.5327 14.404 15.5343 14.41 15.5365 14.4157ZM15.4372 13.4896C15.4444 13.4442 15.4538 13.3991 15.4645 13.3542L15.507 13.2041C15.517 13.174 15.5288 13.1446 15.5403 13.1152C15.5289 13.1443 15.5164 13.1732 15.5065 13.203C15.4753 13.2969 15.4524 13.3929 15.4372 13.4896ZM17.5635 11.3534C17.5522 11.3641 17.5411 11.3755 17.528 11.3845C17.3829 11.4832 17.2261 11.5877 17.0636 11.7038C16.8197 11.8722 16.5467 12.0638 16.2564 12.2496C16.1401 12.3222 16.0343 12.4086 15.9387 12.5045C15.9979 12.4452 16.0613 12.3898 16.1287 12.3391L16.2569 12.2512C16.402 12.1584 16.5428 12.0639 16.6777 11.9718L17.0641 11.7049C17.2267 11.5888 17.3835 11.4843 17.5286 11.3856C17.5416 11.3766 17.5523 11.3652 17.5635 11.3545C17.5851 11.3402 17.6062 11.3253 17.6274 11.3109C17.6063 11.3252 17.5849 11.3392 17.5635 11.3534ZM16.7236 10.9703C16.7824 11.0208 16.8408 11.0724 16.9004 11.1231C16.8349 11.0674 16.7713 11.0106 16.7067 10.955C16.6937 10.9439 16.6808 10.9328 16.6679 10.9217C16.6865 10.9377 16.7049 10.9543 16.7236 10.9703ZM7.13215 10.4207C7.1619 10.5801 7.19461 10.7389 7.23311 10.8966C7.25041 10.9665 7.27048 11.0357 7.28933 11.1051C7.27058 11.0361 7.25088 10.9672 7.23366 10.8977C7.19508 10.7397 7.16195 10.5804 7.13215 10.4207ZM19.429 7.57457C19.5138 8.0491 19.5102 8.49972 19.4186 8.92534C19.5102 8.50004 19.5142 8.04992 19.4295 7.57566C19.4177 7.50962 19.4029 7.44358 19.3869 7.37755C19.4028 7.44326 19.4172 7.50885 19.429 7.57457ZM9.4626 2.22718C9.2838 2.42371 9.11525 2.62902 8.95448 2.84008C9.11516 2.62915 9.28445 2.42469 9.46314 2.22828L9.4626 2.22718Z" fill="#643BFF"/>
<path fill-rule="evenodd" clip-rule="evenodd" d="M37.5492 21.2454C37.8376 21.1301 38.163 21.2692 38.2784 21.5576C38.3935 21.8459 38.2544 22.1712 37.9662 22.2867C37.2894 22.5598 36.6273 22.8907 35.9861 23.2571L35.985 23.2554C35.896 23.3095 35.7987 23.3285 35.7138 23.3286H35.7127C35.6153 23.3282 35.5195 23.3026 35.4349 23.2544C35.3502 23.206 35.2794 23.1363 35.2297 23.0524L35.2258 23.0464C35.1538 22.9177 35.1353 22.7657 35.174 22.6234C35.2128 22.4811 35.3063 22.3594 35.4338 22.2851L35.4354 22.2845C36.1129 21.8957 36.8263 21.5413 37.547 21.2459L37.5492 21.2454ZM37.9885 21.9249C37.9582 21.9686 37.9154 22.0044 37.8619 22.0258C37.171 22.3046 36.4972 22.6415 35.8469 23.0131C35.8121 23.0364 35.7655 23.0481 35.7132 23.0481C35.6767 23.0479 35.6409 23.0404 35.6073 23.0268C35.6299 23.036 35.6531 23.0438 35.6772 23.047L35.7138 23.0491C35.7659 23.0491 35.8127 23.0374 35.8475 23.0142C36.4976 22.6427 37.1712 22.3061 37.8619 22.0275C37.9158 22.0059 37.9581 21.969 37.9885 21.9249ZM35.4687 22.9083L35.4698 22.91C35.4949 22.9522 35.5308 22.9876 35.5735 23.012C35.5829 23.0174 35.5931 23.0209 35.603 23.0251C35.5928 23.0208 35.5826 23.0159 35.573 23.0104C35.5303 22.986 35.4938 22.9506 35.4687 22.9083ZM35.4343 22.7921C35.4345 22.7941 35.4347 22.7961 35.4349 22.7981C35.4333 22.7822 35.4332 22.7661 35.4343 22.7501V22.7921ZM38.0186 21.6602C38.0401 21.7139 38.0436 21.77 38.0328 21.8223C38.0398 21.7879 38.0414 21.7522 38.0349 21.7164L38.0191 21.6613L38.0186 21.6602Z" fill="#643BFF"/>
<path d="M33.5247 21.8676C33.5257 21.9047 33.5339 21.9417 33.5492 21.9762C33.5796 22.0443 33.6357 22.0978 33.7048 22.1257C33.7395 22.1373 33.7743 22.1432 33.809 22.1432C33.9249 22.1431 34.0295 22.0737 34.0644 21.9636C34.0702 21.952 34.4366 21.011 34.965 20.0993L35.2062 20.2396C34.6789 21.1495 34.3428 22.0318 34.3144 22.0886C34.2278 22.3006 34.0212 22.4225 33.809 22.4226C33.7427 22.4226 33.678 22.4115 33.6164 22.391L33.6082 22.3882L33.6 22.3849C33.4636 22.3298 33.3541 22.2235 33.2943 22.0891C33.2347 21.9548 33.2293 21.8026 33.2796 21.6645L33.2823 21.6569L33.2851 21.6498C33.2851 21.6498 33.2872 21.6455 33.2905 21.6373C33.2943 21.628 33.2998 21.6146 33.3064 21.5985C33.3195 21.5663 33.3377 21.5214 33.3609 21.4659C33.4076 21.3546 33.474 21.2003 33.5569 21.0173C33.7223 20.6518 33.9552 20.1688 34.2336 19.6829C34.3772 19.4291 34.6901 19.3351 34.947 19.4477L34.9977 19.4728L35.0463 19.5039C35.2785 19.669 35.3482 19.9885 35.2078 20.2368L35.2062 20.2396L34.965 20.0993C34.9933 20.0491 35.0036 19.9931 34.9993 19.9388C35.0033 19.9928 34.9926 20.0483 34.9644 20.0982C34.4385 21.0056 34.0736 21.9418 34.0644 21.962C34.0296 22.0723 33.9251 22.142 33.809 22.1421C33.7742 22.1421 33.7391 22.1362 33.7042 22.1246C33.635 22.0966 33.5795 22.0427 33.5492 21.9745C33.5341 21.9404 33.5259 21.9042 33.5247 21.8676Z" fill="#643BFF"/>
<path fill-rule="evenodd" clip-rule="evenodd" d="M31.8142 21.0997C31.8254 21.1175 31.8379 21.1348 31.853 21.1499C31.8922 21.189 31.9418 21.2156 31.9954 21.2263L32.0083 21.2276L32.0356 21.2303L32.05 21.2318C32.2025 21.2316 32.3273 21.1104 32.3285 20.9594C32.3285 20.9554 32.3285 20.9514 32.3283 20.9474L32.3282 20.9115L32.3169 17.9916C32.3167 17.9733 32.3146 17.9548 32.3109 17.937L32.3163 17.9905L32.3282 20.9115L32.3283 20.9458C32.3285 20.9503 32.3286 20.9549 32.3285 20.9594C32.3267 21.1099 32.2017 21.2307 32.0494 21.2307C32.0448 21.2307 32.0402 21.2305 32.0356 21.2303C32.0264 21.2299 32.0173 21.2289 32.0083 21.2276C31.9496 21.2188 31.8949 21.1913 31.8524 21.1488C31.8376 21.1339 31.8252 21.1172 31.8142 21.0997Z" fill="#643BFF"/>
<path fill-rule="evenodd" clip-rule="evenodd" d="M35.2662 18.2814C35.4848 18.0628 35.8321 18.063 36.0511 18.2704L36.0565 18.2759L36.0947 18.3185C36.2738 18.5375 36.2618 18.8549 36.0674 19.0602L36.0625 19.0656C35.9981 19.1301 35.9363 19.1975 35.8813 19.2675L35.8748 19.2757L35.8677 19.2834C35.7587 19.4023 35.612 19.4773 35.4436 19.4782H35.4425L35.4409 19.4788C35.3351 19.4794 35.231 19.4498 35.1412 19.3936C35.0507 19.3368 34.9782 19.2546 34.9328 19.1579C34.8874 19.0609 34.8704 18.9523 34.8847 18.8462C34.8988 18.7423 34.9421 18.6445 35.0092 18.5641L35.1369 18.4167C35.1801 18.3696 35.2233 18.3243 35.2662 18.2814ZM35.9212 18.7769C35.9082 18.8094 35.8897 18.8402 35.8644 18.867C35.7948 18.9366 35.7252 19.0122 35.6614 19.0935C35.5975 19.1631 35.5216 19.1982 35.4403 19.1982C35.3869 19.1989 35.3344 19.184 35.2892 19.1557C35.2439 19.1273 35.2081 19.0862 35.1855 19.0378C35.18 19.026 35.1751 19.0141 35.1713 19.0018C35.1751 19.0143 35.1798 19.0269 35.1855 19.0389C35.2081 19.0872 35.2445 19.1284 35.2897 19.1568C35.3349 19.1851 35.3875 19.2 35.4409 19.1993C35.5221 19.1993 35.5976 19.1642 35.6614 19.0945C35.6933 19.054 35.7267 19.0149 35.7607 18.9772L35.8649 18.8681C35.8904 18.8411 35.9082 18.8096 35.9212 18.7769Z" fill="#643BFF"/>
<path fill-rule="evenodd" clip-rule="evenodd" d="M32.4288 17.5953C32.4166 17.5834 32.4035 17.5723 32.3902 17.5616C32.2555 17.5588 31.8585 17.5432 31.7171 17.5375C31.6893 17.557 31.6634 17.5792 31.6396 17.6035C31.5884 17.6558 31.5479 17.7179 31.5206 17.7858C31.4936 17.853 31.4798 17.9257 31.4802 17.9981L31.4917 20.954C31.492 21.1016 31.551 21.2431 31.6554 21.3475C31.76 21.452 31.902 21.5112 32.05 21.5112C32.3396 21.511 32.5867 21.2883 32.6067 20.996L32.6078 20.937L32.5963 17.9905V17.9883C32.5955 17.9151 32.5802 17.8427 32.5516 17.7754C32.5228 17.7081 32.481 17.6466 32.4288 17.5953ZM31.853 21.1499C31.8379 21.1348 31.8254 21.1175 31.8142 21.0997C31.8252 21.1172 31.8376 21.1339 31.8524 21.1488C31.8949 21.1913 31.9496 21.2188 32.0083 21.2276L32.0356 21.2303C32.0402 21.2305 32.0448 21.2307 32.0494 21.2307C32.2017 21.2307 32.3267 21.1099 32.3285 20.9594C32.3285 20.9554 32.3285 20.9514 32.3283 20.9474V20.9458L32.3282 20.9115L32.3163 17.9905L32.3109 17.937C32.3146 17.9548 32.3167 17.9733 32.3169 17.9916L32.3282 20.9115L32.3283 20.9458C32.3285 20.9503 32.3286 20.9549 32.3285 20.9594C32.3273 21.1104 32.2025 21.2316 32.05 21.2318L32.0356 21.2303C32.0264 21.2299 32.0173 21.2289 32.0083 21.2276L31.9954 21.2263C31.9418 21.2156 31.8922 21.189 31.853 21.1499Z" fill="#643BFF"/>
<path d="M35.7959 29.9193C35.7669 29.9193 35.732 29.9135 35.703 29.9019C31.8868 28.5228 28.4199 26.3224 25.5475 23.4561C25.5083 23.4176 25.4813 23.3685 25.4699 23.3147C25.4586 23.261 25.4633 23.2051 25.4836 23.1541C25.8494 22.2076 26.4184 21.592 27.1733 21.3249C28.2243 20.9474 29.5772 21.232 31.3075 22.2018C33.6359 23.4851 35.2095 24.8788 35.9991 26.3422C36.5624 27.3932 36.5856 28.6359 36.0572 29.7567C36.0049 29.8612 35.9062 29.9193 35.7959 29.9193ZM26.0759 23.189C28.8339 25.895 32.0565 27.9391 35.6449 29.2805C35.9933 28.3862 35.9411 27.4281 35.4998 26.6093C34.7624 25.2388 33.2585 23.9206 31.0288 22.6954C29.4668 21.8243 28.2359 21.5456 27.3591 21.8591C26.8017 22.0566 26.3836 22.4921 26.0759 23.189ZM17.3661 11.4239C17.3007 11.4231 17.2374 11.4006 17.1861 11.3601C13.1622 7.98037 10.7235 5.04783 9.2893 1.84236C9.24285 1.73783 9.26607 1.61008 9.34737 1.52878L9.39962 1.48232L9.4693 1.41264C10.1429 0.622883 10.9558 0.23962 11.879 0.280269C13.8126 0.361567 16.1061 2.26627 18.7074 5.9305C19.0907 6.47055 19.3345 7.02221 19.4332 7.57388C19.7061 9.10113 19.0616 10.3787 17.5229 11.3833C17.4764 11.4123 17.4184 11.4239 17.3661 11.4239ZM9.88156 1.79009C11.2693 4.80394 13.5977 7.5913 17.3835 10.791C18.6087 9.93153 19.0965 8.9095 18.8758 7.66679C18.7887 7.19643 18.5797 6.72025 18.2429 6.24988C15.781 2.78309 13.5687 0.907427 11.8442 0.837743C11.1009 0.8029 10.4448 1.12229 9.88156 1.79009C9.88737 1.78429 9.88737 1.78429 9.88156 1.79009Z" fill="#643BFF"/>
<path d="M9.88156 1.79009C11.2693 4.80394 13.5977 7.5913 17.3835 10.791C18.6087 9.93153 19.0965 8.9095 18.8758 7.66679C18.7887 7.19643 18.5797 6.72025 18.2429 6.24988C15.781 2.78309 13.5687 0.907427 11.8442 0.837743C11.1009 0.8029 10.4448 1.12229 9.88156 1.79009Z" fill="#0FDAC2"/>
<path d="M26.0759 23.189C28.8339 25.895 32.0565 27.9391 35.6449 29.2805C35.9933 28.3862 35.9411 27.4281 35.4998 26.6093C34.7624 25.2388 33.2585 23.9206 31.0288 22.6954C29.4668 21.8243 28.2359 21.5456 27.3591 21.8591C26.8017 22.0566 26.3836 22.4921 26.0759 23.189Z" fill="#0FDAC2"/>
</svg>
