<svg width="1248" height="247" viewBox="0 0 1248 247" fill="none" xmlns="http://www.w3.org/2000/svg">
<g clip-path="url(#clip0_976_17294)">
<rect width="1248" height="247" fill="#643BFF"/>
<g clip-path="url(#clip1_976_17294)">
<rect width="1248" height="247" rx="16" fill="#643BFF"/>
<g filter="url(#filter0_f_976_17294)">
<path d="M1072.54 294.626C985.058 287.613 926.773 246.008 868.257 148.807C749.717 -48.1025 1278.06 12.1906 1351.51 71.7583C1446.94 149.149 1184.28 303.586 1072.54 294.626Z" fill="#2C99FF"/>
</g>
<path opacity="0.1" fill-rule="evenodd" clip-rule="evenodd" d="M1223 19.4221C1223 161.173 1123.92 310 941.631 310C851.283 310 778.489 270.501 724.375 226.678C678.896 189.847 645.102 148.595 624.97 124.02C621.286 119.523 618.059 115.585 615.302 112.334C588.27 80.4588 541.09 51.391 520.673 40.9651L469 14.5771L524.112 -3.55429C534.982 -7.1304 555.056 -15.5311 575.407 -26.2213C596.293 -37.1924 614.399 -48.9987 623.573 -58.687C628.511 -63.9026 633.405 -69.0934 638.263 -74.2481C727.294 -168.696 804.877 -251 941.631 -251C1085.58 -251 1223 -126.939 1223 19.4221ZM941.631 261.626C1091.08 261.626 1174.65 141.039 1174.65 19.4221C1174.65 -97.5844 1061.59 -202.626 941.631 -202.626C826.201 -202.626 762.55 -135.295 669.147 -36.4924C665.698 -32.8434 662.207 -29.1514 658.672 -25.4183C643.671 -9.57606 619.471 5.26791 597.883 16.6081C593.54 18.8895 589.179 21.092 584.87 23.1933C607.602 38.5519 633.255 58.7342 652.169 81.0373C655.401 84.8483 659.001 89.2326 662.977 94.0754C683.338 118.873 713.568 155.691 754.795 189.078C803.76 228.732 866.111 261.626 941.631 261.626Z" fill="white"/>
</g>
</g>
<defs>
<filter id="filter0_f_976_17294" x="594.256" y="-242.744" width="1034.49" height="794.488" filterUnits="userSpaceOnUse" color-interpolation-filters="sRGB">
<feFlood flood-opacity="0" result="BackgroundImageFix"/>
<feBlend mode="normal" in="SourceGraphic" in2="BackgroundImageFix" result="shape"/>
<feGaussianBlur stdDeviation="128.372" result="effect1_foregroundBlur_976_17294"/>
</filter>
<clipPath id="clip0_976_17294">
<rect width="1248" height="247" fill="white"/>
</clipPath>
<clipPath id="clip1_976_17294">
<rect width="1248" height="247" rx="16" fill="white"/>
</clipPath>
</defs>
</svg>
