<svg width="66" height="68" viewBox="0 0 66 68" fill="none" xmlns="http://www.w3.org/2000/svg">
<rect y="0.294922" width="66" height="67" rx="8" fill="#D8CEFF"/>
<path fill-rule="evenodd" clip-rule="evenodd" d="M32.2293 21.1912C34.0481 20.8597 35.9114 20.853 37.7325 21.1716L37.7332 21.1709C40.1942 21.5964 42.4697 22.7564 44.2601 24.498L44.6787 24.9195C46.6587 26.9856 47.9763 29.4495 48.5136 32.0891L48.5666 32.3631C49.0775 35.2167 48.6794 38.1592 47.4295 40.7747L47.4303 40.7754C46.2096 43.369 44.0415 45.5805 41.3262 47.0096L41.3255 47.0089C39.2447 48.113 36.9279 48.6974 34.5726 48.7103H34.5711C33.9356 48.711 33.3006 48.6653 32.6718 48.5736C30.147 48.2042 27.6669 47.1431 25.4967 45.5081C24.3518 44.6453 23.48 43.7592 22.8469 42.7995C22.214 41.84 21.7594 40.7428 21.3545 39.2412C20.3102 35.373 20.7487 31.544 22.6224 28.4698C23.9544 26.2837 25.3195 24.6473 26.8765 23.4645C28.4372 22.2791 30.174 21.563 32.2293 21.1912ZM43.0976 25.6906C39.3668 22.0657 34.4762 22.4717 32.517 22.8257L32.5163 22.8243C30.7074 23.1516 29.2014 23.7822 27.8465 24.8185C26.4865 25.8588 25.2614 27.3207 24.0356 29.3332C22.4152 31.9934 22.0194 35.3583 22.9522 38.8095C23.3187 40.1658 23.7136 41.1068 24.2274 41.8867C24.6767 42.5685 25.2984 43.2316 26.1245 43.8976L26.4914 44.1832L26.8606 44.4536C28.7212 45.7721 30.8063 46.6246 32.9043 46.9341C38.1232 47.6976 43.727 44.7372 45.9226 40.0705C48.2384 35.1499 47.1669 29.6454 43.0976 25.6906ZM26.2677 44.4812C27.7664 45.6117 29.4237 46.4423 31.1307 46.9304L30.7049 46.8011C29.1486 46.3014 27.6414 45.5174 26.2677 44.4812ZM46.259 40.2289L46.15 40.4535C46.0959 40.562 46.0384 40.6688 45.9807 40.7754C46.0777 40.5959 46.172 40.4137 46.259 40.2289ZM22.3085 37.6401C22.3842 38.0608 22.4788 38.484 22.5933 38.9076C22.6398 39.0796 22.6872 39.2454 22.735 39.4055L22.5933 38.9062C22.4789 38.4829 22.3842 38.0605 22.3085 37.6401ZM48.2004 32.4307C48.2923 32.9436 48.3539 33.4595 48.3857 33.9758C48.3539 33.4591 48.2923 32.9426 48.2004 32.4292C48.1689 32.256 48.1335 32.0835 48.0951 31.9118C48.1336 32.0839 48.1688 32.2571 48.2004 32.4307ZM21.8304 31.0535C22.1113 30.2169 22.4814 29.4169 22.9399 28.6646L22.7735 28.9451C22.3907 29.6147 22.0765 30.3202 21.8304 31.0535ZM44.8 25.5998C44.6732 25.4574 44.5436 25.3163 44.4106 25.1775L44.0008 24.7655C44.2795 25.036 44.546 25.3147 44.8 25.5998ZM32.2962 21.5568C32.0454 21.6021 31.7996 21.6527 31.5587 21.7087C30.8756 21.8674 30.2316 22.0714 29.6187 22.3228C30.4478 21.9828 31.3344 21.7307 32.2962 21.5568ZM39.0011 21.8475C38.7094 21.762 38.414 21.687 38.1154 21.6236C37.9678 21.5923 37.8191 21.5637 37.67 21.5379C37.4478 21.499 37.2249 21.4651 37.0015 21.4361C36.6665 21.3927 36.3304 21.3606 35.9938 21.3395L36.3302 21.3649C36.7785 21.403 37.2255 21.4601 37.67 21.5379C38.1207 21.6158 38.5652 21.7198 39.0011 21.8475ZM33.6353 21.3744C33.8593 21.3537 34.0835 21.3371 34.3081 21.3264C33.9713 21.3425 33.635 21.3701 33.2996 21.4085L33.6353 21.3744Z" fill="#0FDAC2"/>
<path d="M9.46094 16.8558C12.1538 18.5994 13.6289 19.7422 16.0303 21.6163L19.7352 20.2383L20.2277 15.833C18.7385 14.2528 16.8472 12.8655 14.6163 10.748L14.4 15.7554C14.4 15.7554 10.9173 16.4408 9.46094 16.8558Z" fill="#0FDAC2"/>
<path d="M16.0271 22.0772C15.9253 22.0772 15.8265 22.0433 15.7462 21.9808C13.2508 20.0326 11.8262 18.938 9.20969 17.2427C9.13611 17.1953 9.07768 17.1278 9.04133 17.0481C9.00497 16.9685 8.99222 16.8801 9.00459 16.7935C9.01697 16.7068 9.05396 16.6255 9.11115 16.5593C9.16833 16.493 9.24333 16.4446 9.32723 16.4197C10.5262 16.0776 13.0216 15.5673 13.949 15.3804L14.1511 10.7328C14.1549 10.6452 14.1837 10.5604 14.2343 10.4887C14.2848 10.417 14.3549 10.3614 14.4362 10.3284C14.5174 10.2955 14.6065 10.2866 14.6926 10.3028C14.7788 10.3191 14.8585 10.3598 14.9222 10.4201C15.9131 11.3606 16.817 12.1389 17.6927 12.889C18.7764 13.8225 19.7132 14.6291 20.5513 15.5191C20.5963 15.5676 20.6302 15.6253 20.6505 15.6883C20.6708 15.7513 20.677 15.8179 20.6688 15.8836L20.1763 20.2889C20.1665 20.373 20.1338 20.4528 20.0818 20.5195C20.0298 20.5863 19.9604 20.6375 19.8813 20.6675L16.1764 22.0454C16.1287 22.0641 16.0782 22.0748 16.0271 22.0772ZM10.5755 17.0452C12.6349 18.4137 13.996 19.4565 16.107 21.1025L19.3089 19.9115L19.7473 15.9976C18.9762 15.1993 18.1017 14.448 17.1014 13.5862C16.4655 13.0384 15.765 12.4352 15.0268 11.7615L14.8529 15.7789C14.8483 15.8813 14.8096 15.9792 14.7429 16.0569C14.6762 16.1347 14.5854 16.1879 14.485 16.2081C14.4568 16.2092 12.1906 16.656 10.5755 17.0416V17.0452Z" fill="#1C1C1E"/>
<path fill-rule="evenodd" clip-rule="evenodd" d="M33.0547 26.9099C34.2535 26.6421 36.8362 26.4503 38.9306 27.4761C40.9125 28.4495 42.3386 30.0298 43.0351 32.0445C43.6858 33.9268 43.6472 36.0977 42.9269 38.1668L42.9261 38.1675C42.4157 39.6214 41.5129 40.9054 40.3184 41.8784L40.3192 41.8791C39.1374 42.8685 37.6875 43.4834 36.1551 43.6459L36.1558 43.6466L36.0388 43.6583L36.0396 43.659C35.6134 43.7073 35.1846 43.7327 34.7557 43.7346H34.7542C33.2824 43.7346 31.0331 43.4003 29.1006 41.4947C27.302 39.7212 26.391 37.6282 26.4268 35.2852V35.2823C26.4647 33.6809 26.9153 32.1162 27.7347 30.74L27.7376 30.7349C28.3268 29.7783 29.1 28.9478 30.0118 28.2915C30.9237 27.6351 31.957 27.1657 33.0511 26.9106L33.0547 26.9099ZM35.8899 42.3792C35.6631 42.4027 35.3201 42.4385 34.8988 42.4446L34.5682 42.4431C35.1408 42.4573 35.6056 42.4093 35.8891 42.3799L35.8899 42.3792ZM31.51 41.6844C31.8755 41.8764 32.2417 42.022 32.5992 42.1321L32.3841 42.0616C32.1676 41.9866 31.9488 41.8978 31.7294 41.7934C31.6563 41.7586 31.5831 41.7228 31.51 41.6844ZM35.1756 28.3525C34.581 28.3493 33.9872 28.4081 33.4049 28.5284C32.5284 28.7338 31.7007 29.1112 30.9701 29.6375C30.2382 30.1648 29.6179 30.8321 29.145 31.6005C28.4833 32.7289 28.1188 34.0072 28.0856 35.315C28.059 37.1725 28.7807 38.85 30.2646 40.313C32.3473 42.3651 34.9498 42.1027 35.8514 42.0092H35.8528L35.9836 41.9961H35.9851C38.3156 41.7756 40.532 39.977 41.3516 37.6225C42.6207 33.9569 41.3257 30.504 38.1917 28.9659C37.259 28.5055 36.1564 28.3526 35.1822 28.3525H35.1756ZM29.4581 39.9946C29.6274 40.1932 29.8094 40.388 30.0031 40.579C29.8094 40.388 29.6281 40.1924 29.4588 39.9939L29.4581 39.9946ZM28.0158 37.4379C28.1577 37.8921 28.3493 38.3327 28.5898 38.7591L28.4191 38.4364C28.2572 38.1113 28.1222 37.7785 28.0158 37.4379ZM27.7804 36.3935C27.7973 36.5121 27.8177 36.6298 27.8407 36.7467L27.7804 36.3935C27.7636 36.2751 27.7504 36.1559 27.7397 36.0359L27.7804 36.3935ZM40.0859 28.6149C41.2991 29.5217 42.1862 30.7284 42.6835 32.1666C42.9161 32.8397 43.0572 33.5535 43.1056 34.2881C43.0814 33.9205 43.0336 33.5583 42.9632 33.2037C42.9398 33.0856 42.914 32.9683 42.8855 32.852C42.8283 32.6193 42.761 32.391 42.6835 32.1666C42.642 32.0468 42.598 31.9278 42.5512 31.8112C42.2704 31.1116 41.8931 30.4715 41.4279 29.8991C41.0405 29.4223 40.5911 28.9926 40.0859 28.6149ZM28.8274 31.4057C28.2619 32.368 27.903 33.4346 27.7695 34.5373L27.8044 34.2837C27.8173 34.1994 27.8317 34.1153 27.8473 34.0315C27.8629 33.9476 27.8799 33.8641 27.8981 33.7808C28.0802 32.9481 28.3924 32.146 28.8274 31.4057ZM33.1354 27.2733C33.4248 27.2086 33.797 27.1483 34.2238 27.1105C33.9036 27.1388 33.614 27.1795 33.3672 27.2253C33.285 27.2406 33.2076 27.2572 33.1354 27.2733C32.8738 27.3343 32.6156 27.4073 32.3623 27.4935C31.9822 27.6228 31.6123 27.78 31.2557 27.9637C31.1369 28.0249 31.0197 28.0893 30.904 28.1563C30.6724 28.2905 30.4471 28.4362 30.229 28.5931C30.011 28.75 29.8012 28.9175 29.6005 29.0946C29.5002 29.183 29.402 29.2739 29.3063 29.3671C29.0188 29.647 28.7525 29.9481 28.5092 30.2676C28.9957 29.6289 29.575 29.0638 30.229 28.5931C31.1012 27.9653 32.0889 27.5172 33.1354 27.2733ZM31.0464 29.1345C30.9786 29.1785 30.9123 29.2249 30.8459 29.2712C31.01 29.1569 31.1777 29.0485 31.3502 28.9485L31.0464 29.1345Z" fill="#0FDAC2"/>
<path d="M39.2313 31.1289C37.6876 33.7938 36.27 36.525 34.9786 39.3224C33.8126 36.971 32.341 34.7642 30.6602 32.6338C32.0001 33.3498 33.7703 34.9852 34.9316 35.9658C34.9152 35.7294 37.4141 32.3222 39.2313 31.1289Z" fill="#643BFF"/>
<path d="M34.9797 39.7758C34.8947 39.7756 34.8114 39.7517 34.7392 39.7069C34.6669 39.6621 34.6086 39.598 34.5707 39.5219C33.4928 37.3504 32.1023 35.1882 30.3016 32.9132C30.2364 32.8308 30.2017 32.7283 30.2032 32.6232C30.2047 32.5181 30.2423 32.4167 30.3098 32.3361C30.3773 32.2555 30.4704 32.2006 30.5736 32.1807C30.6768 32.1608 30.7837 32.177 30.8763 32.2266C32 32.8262 33.3811 34.0208 34.4907 34.9801L34.8046 35.2517L34.968 35.0166C35.263 34.5969 35.6438 34.1007 36.0423 33.6175C36.6723 32.8521 37.8924 31.4624 38.9808 30.7452C39.0668 30.6887 39.1693 30.6627 39.2718 30.6716C39.3743 30.6806 39.4708 30.7238 39.5457 30.7944C39.6206 30.8649 39.6695 30.9587 39.6845 31.0605C39.6996 31.1623 39.6798 31.2662 39.6285 31.3554C38.1004 33.9996 36.6747 36.7437 35.397 39.5125C35.3608 39.5907 35.3031 39.6571 35.2307 39.7039C35.1583 39.7508 35.0741 39.7761 34.9879 39.777L34.9797 39.7758ZM32.7781 34.7203C33.5733 35.8642 34.3021 37.0528 34.9609 38.2803C35.739 36.6343 36.5665 35.0036 37.4352 33.3976C36.3961 34.5581 35.5145 35.782 35.3794 36.063C35.3618 36.1394 35.3249 36.21 35.2723 36.2681C35.2197 36.3262 35.1531 36.3698 35.0788 36.3948C35.0045 36.4198 34.9251 36.4253 34.8481 36.4109C34.771 36.3964 34.699 36.3624 34.6388 36.3122C34.4038 36.1194 34.1593 35.9019 33.8936 35.6726C33.5433 35.3693 33.1649 35.0424 32.7781 34.7203Z" fill="#643BFF"/>
<path fill-rule="evenodd" clip-rule="evenodd" d="M12.2849 13.1315C12.3999 13.127 12.515 13.1467 12.6221 13.1889C12.7192 13.2273 12.8076 13.2841 12.8836 13.3553C15.7783 15.8186 18.6779 18.3236 21.5562 20.8454C22.38 20.1979 23.3251 19.5713 24.5098 18.8308C27.3666 17.0232 30.6483 15.9985 34.0259 15.8583H34.0273C37.2657 15.7321 40.4866 16.393 43.4134 17.785C48.0073 19.9628 51.3355 23.5658 53.024 28.2003C54.6153 32.5703 54.5729 37.5346 52.9143 42.1782C51.7881 45.329 49.6512 48.2512 46.9003 50.4132C46.7548 50.5275 46.6072 50.6387 46.4593 50.7483C46.5102 50.9256 46.5591 51.0989 46.6089 51.2679L46.6097 51.2694C47.0147 52.6585 47.3775 53.8938 47.4467 55.5391L47.4496 55.6976C47.4481 55.8882 47.4293 56.1682 47.3559 56.4745C47.2581 56.882 47.0562 57.3645 46.6387 57.7369L46.6344 57.7405C46.1996 58.1165 45.639 58.3133 45.0649 58.2936H45.062C45.0585 58.2934 45.0547 58.2944 45.0511 58.2943C44.8748 58.2929 44.6986 58.2781 44.5244 58.2507H44.5222C43.7182 58.119 42.9809 57.7221 42.4282 57.1235C41.9493 56.6079 41.6657 56.0261 41.4364 55.558C41.2018 55.0793 41.0134 54.6629 40.842 54.2738C40.7564 54.0796 40.6674 53.8849 40.571 53.6786C39.5169 53.9809 38.4397 54.183 37.3508 54.2796L37.3515 54.2804L37.0463 54.3087L37.0456 54.308C36.0891 54.4102 35.128 54.4648 34.1661 54.47H34.1639C32.322 54.47 29.953 54.2549 27.4568 53.3915C27.1639 54.0771 26.8442 54.7511 26.4977 55.4112L26.3081 55.7666C25.9138 56.4929 25.3734 57.4019 24.3841 57.896L24.3797 57.8982C23.9889 58.0867 23.5602 58.1826 23.1263 58.1809H23.1249L23.1242 58.1816C22.384 58.1812 21.5804 57.9006 21.1166 57.2332L21.028 57.0944C20.6384 56.4205 20.7316 55.6872 20.8173 55.159C21.083 53.519 21.469 51.9005 21.9725 50.3173C21.6547 50.0553 21.3381 49.7787 21.0265 49.4837C18.185 46.794 16.2465 43.8134 15.2901 40.62C14.5119 38.0019 14.372 35.234 14.8825 32.5507C15.4718 29.453 16.7299 26.5211 18.5685 23.9596L18.5714 23.9552C19.1511 23.1716 19.7068 22.5271 20.2999 21.9457C17.4827 19.4788 14.6463 17.028 11.8141 14.6177L11.8148 14.617C11.7329 14.5542 11.662 14.478 11.6085 14.3895C11.549 14.2911 11.5099 14.181 11.4951 14.0668C11.4804 13.9527 11.4896 13.8364 11.522 13.726C11.5545 13.6156 11.6098 13.513 11.684 13.4251C11.7583 13.3372 11.8503 13.2656 11.9536 13.2151C12.057 13.1646 12.17 13.1361 12.2849 13.1315ZM45.0657 57.9215L45.0664 57.9222C45.1218 57.9244 45.1771 57.9233 45.2321 57.9207C45.1769 57.9233 45.1213 57.9237 45.0657 57.9215ZM24.2177 57.5632C24.1346 57.6032 24.0492 57.6374 23.9626 57.6678C24.005 57.6529 24.0475 57.6378 24.0891 57.6206L24.2177 57.5632ZM46.8916 53.8981C46.9843 54.4152 47.0496 54.957 47.0747 55.5551C47.0876 55.8455 47.0743 56.849 46.3902 57.4592C46.3018 57.5357 46.2064 57.6022 46.1069 57.6606C46.1551 57.6323 46.2028 57.603 46.2486 57.5704L46.3902 57.4592C46.4331 57.421 46.4738 57.3811 46.5116 57.3401C46.5868 57.2583 46.6524 57.1717 46.7092 57.0821C46.7377 57.0371 46.7641 56.9915 46.7884 56.9454C47.08 56.3926 47.0851 55.7741 47.0754 55.5558C47.0419 54.7582 46.9373 54.0602 46.7906 53.3879L46.8916 53.8981ZM42.0133 53.7469C42.1837 54.1337 42.366 54.5211 42.5916 54.9926C42.8055 55.4275 43.0269 55.8779 43.3713 56.247C43.55 56.4404 43.7582 56.6015 43.9867 56.7252C43.8725 56.6633 43.7634 56.5921 43.6604 56.5123C43.5575 56.4323 43.4606 56.3437 43.3713 56.247C43.2852 56.1548 43.2068 56.0571 43.1344 55.9563C42.9894 55.7543 42.8682 55.5381 42.7558 55.3196C42.6997 55.2106 42.645 55.1012 42.5916 54.9926C42.4788 54.7568 42.3772 54.5418 42.2821 54.3378L42.014 53.7476L42.0133 53.7469ZM22.1404 56.4498C22.188 56.5322 22.2535 56.6015 22.33 56.6605C22.2819 56.6234 22.238 56.5826 22.2007 56.5362L22.1404 56.4498ZM45.0134 51.7221C44.0923 52.2831 43.1349 52.7589 42.1506 53.1444C42.2214 53.3 42.289 53.4495 42.354 53.5972C42.5216 53.9774 42.7013 54.3592 42.9259 54.8283L43.0879 55.1518C43.2229 55.4137 43.3623 55.6553 43.5355 55.8683L43.6437 55.9926L43.6445 55.9941C43.9456 56.32 44.3464 56.5373 44.7838 56.6118C45.1908 56.6743 45.4147 56.5993 45.5358 56.4977C45.646 56.3968 45.7203 56.2206 45.7596 56.0122C45.7972 55.8126 45.7927 55.6399 45.7915 55.6103C45.7302 54.1818 45.4229 53.1244 45.017 51.7345C45.0158 51.7305 45.0145 51.7262 45.0134 51.7221ZM23.3843 51.3682C22.9871 52.6985 22.6757 54.0535 22.4528 55.4243C22.4201 55.6271 22.3973 55.7991 22.3983 55.949C22.3994 56.0975 22.4247 56.1959 22.4637 56.2637C22.5246 56.369 22.6796 56.4727 22.9374 56.5101C23.1884 56.5464 23.4574 56.5053 23.6444 56.412C24.1623 56.1525 24.5179 55.5877 24.8498 54.9752C25.2381 54.2594 25.5919 53.5252 25.9135 52.7774C25.0703 52.3953 24.2227 51.9302 23.3843 51.3682ZM25.9804 55.5885C25.8363 55.854 25.6783 56.1308 25.4936 56.3967C25.6153 56.2215 25.7265 56.0423 25.8285 55.864L25.9811 55.5893L25.9804 55.5885ZM22.4034 53.6902C22.2832 54.2452 22.1763 54.8031 22.0851 55.364C22.044 55.619 22.012 55.8669 22.0336 56.0871C22.012 55.867 22.0448 55.6195 22.0859 55.3647C22.1771 54.8038 22.2831 54.2453 22.4034 53.6902ZM34.908 54.0834C34.6599 54.0913 34.4115 54.0959 34.1632 54.0972L34.1639 54.0979C34.412 54.0966 34.66 54.0913 34.908 54.0834ZM42.6977 19.2865C37.0832 16.6209 30.6081 16.979 25.3948 20.2393L25.3047 20.296H25.301C24.3018 20.922 23.5058 21.4469 22.8263 21.9603C24.3441 23.2958 25.8553 24.635 27.3551 25.9749L27.3682 25.9284C27.4148 25.7176 27.5421 25.5333 27.7227 25.4146C27.9065 25.2939 28.1309 25.2508 28.3462 25.2954C28.5614 25.3401 28.7508 25.4685 28.8715 25.6522C28.9921 25.8362 29.0345 26.0612 28.9899 26.2765L28.9885 26.2838C28.8549 26.8665 28.5543 27.3982 28.1238 27.8129C27.6933 28.2275 27.1509 28.5074 26.5638 28.6189L26.5587 28.6204C26.5109 28.6287 26.462 28.6327 26.4134 28.6327C26.2063 28.6326 26.0068 28.5546 25.854 28.4147C25.7012 28.2747 25.6063 28.0826 25.588 27.8762C25.5698 27.6697 25.6293 27.4637 25.7551 27.2991C25.8387 27.1899 25.9479 27.1044 26.0712 27.0484C24.5733 25.711 23.0644 24.3743 21.5489 23.0417C20.9758 23.592 20.4592 24.1927 19.9068 24.9386C18.2131 27.2994 17.0554 30.002 16.5129 32.8567L16.5122 32.856C15.4811 38.5447 17.3572 43.7259 22.1622 48.2787L22.5458 48.6305C26.5268 52.1707 31.1044 52.8081 34.1756 52.8094C35.0789 52.8052 35.9817 52.7559 36.8799 52.6604H36.8843L37.1982 52.6306H37.2004L37.4903 52.6023C43.5818 51.94 49.2619 47.4589 51.347 41.6237C54.6354 32.4191 51.0637 23.2521 42.6977 19.2865ZM25.9949 52.4068C26.063 52.438 26.1317 52.4674 26.1998 52.4976C26.1235 52.4638 26.0466 52.4303 25.9702 52.3951L25.9949 52.4068ZM26.3597 51.5652C26.3799 51.5744 26.4005 51.5829 26.4207 51.592C26.3963 51.581 26.3717 51.5705 26.3473 51.5593L26.3597 51.5652ZM22.6599 49.2206C22.5392 49.1193 22.4192 49.0152 22.2995 48.9088L21.9064 48.5491C22.1551 48.7844 22.4066 49.0079 22.6599 49.2206ZM18.1935 44.0177C18.3834 44.3325 18.5851 44.6446 18.7981 44.9545C18.4787 44.4898 18.1854 44.0196 17.9182 43.5438L18.1935 44.0177ZM52.5633 42.0532C52.5227 42.167 52.4802 42.2802 52.4369 42.3933C52.4436 42.3758 52.4513 42.3586 52.458 42.341L52.5633 42.0532ZM16.5231 31.1691C16.376 31.7021 16.2503 32.2418 16.1467 32.7869C15.5847 35.885 15.8675 38.8344 16.9881 41.6121L16.7992 41.12C15.8376 38.487 15.6186 35.7033 16.1475 32.7877C16.2511 32.2424 16.3759 31.7022 16.5231 31.1691ZM53.5399 31.6168C53.3735 30.6345 53.1334 29.6692 52.8162 28.7308L52.6745 28.3282C52.3644 27.477 51.9979 26.661 51.5773 25.8834C51.9978 26.6608 52.3637 27.4765 52.6738 28.3275C53.0614 29.3919 53.3496 30.4932 53.5399 31.6168ZM19.6046 24.722C18.4185 26.3753 17.4904 28.193 16.8464 30.1124L17.0295 29.5913C17.6617 27.8637 18.5263 26.2249 19.6046 24.722ZM26.4941 28.2534C26.4674 28.258 26.4405 28.2606 26.4134 28.2606L26.4941 28.2534ZM28.6252 26.201C28.583 26.385 28.5206 26.5625 28.4421 26.7322C28.4933 26.6215 28.539 26.5079 28.575 26.3906C28.5942 26.3282 28.6105 26.2649 28.6252 26.201ZM28.5598 25.8565C28.5916 25.905 28.6129 25.9591 28.6244 26.0149C28.6189 25.9882 28.6122 25.9618 28.6019 25.9364L28.5598 25.8565ZM34.6377 16.2152C36.2253 16.2015 37.8043 16.3802 39.3409 16.7443C38.9568 16.6532 38.5701 16.5736 38.1812 16.5059C37.7923 16.4381 37.4012 16.3822 37.0085 16.338C36.2232 16.2495 35.4315 16.2083 34.6377 16.2152ZM12.4855 13.5348C12.4562 13.5233 12.4255 13.5147 12.3946 13.5094L12.3002 13.5029C12.3636 13.5004 12.4264 13.5116 12.4855 13.5348ZM15.1615 33.1132L15.0939 33.5769C15.0926 33.5871 15.0916 33.5973 15.0903 33.6075C15.1116 33.4425 15.1353 33.2777 15.1615 33.1132Z" fill="#1C1C1E"/>
<path fill-rule="evenodd" clip-rule="evenodd" d="M13.6298 44.836C13.8316 44.7484 14.0602 44.7444 14.2649 44.8251C14.4693 44.9059 14.6336 45.0646 14.7212 45.2663C15.2083 46.3886 15.7211 47.4875 16.3604 48.4095C16.998 49.329 17.7466 50.0506 18.6942 50.4438C18.8707 50.5175 19.0169 50.6506 19.1069 50.8195C19.1968 50.9885 19.2256 51.184 19.1882 51.3718C19.1508 51.5595 19.0498 51.7285 18.902 51.85C18.7542 51.9716 18.5687 52.0385 18.3774 52.039L18.3766 52.0383C18.266 52.0388 18.1564 52.0171 18.0548 51.9736C15.5147 50.9175 14.2416 48.3274 13.1997 45.9269C13.1122 45.7252 13.1081 45.4971 13.1888 45.2924C13.2695 45.0878 13.4281 44.9237 13.6298 44.836ZM18.5358 51.6364C18.5822 51.6189 18.6262 51.5949 18.6651 51.563C18.6449 51.5796 18.6237 51.5945 18.6012 51.6073C18.5803 51.6191 18.5581 51.628 18.5358 51.6364ZM18.8097 51.0666C18.8171 51.0891 18.8219 51.1123 18.8257 51.1356C18.8214 51.1097 18.8151 51.0841 18.8065 51.0592L18.7784 50.9946C18.7315 50.9065 18.6571 50.8363 18.5668 50.7945C18.5616 50.7921 18.5563 50.7897 18.551 50.7875C17.9846 50.5525 17.4893 50.2123 17.0482 49.796C17.0357 49.7842 17.0231 49.7725 17.0107 49.7606L17.0009 49.7509C16.9541 49.7058 16.908 49.6598 16.8624 49.6131L17.0009 49.7509C17.0166 49.766 17.0324 49.7811 17.0482 49.796C17.4893 50.2123 17.9846 50.5525 18.551 50.7875C18.5563 50.7897 18.5616 50.7921 18.5668 50.7945C18.6094 50.8141 18.649 50.8399 18.6833 50.8711C18.7216 50.9061 18.7537 50.9481 18.7784 50.9946C18.7895 51.0155 18.7989 51.0371 18.8065 51.0592L18.8097 51.0666ZM16.1119 50.1552C16.2715 50.3252 16.4383 50.487 16.6132 50.6393C16.5549 50.5885 16.4976 50.5373 16.441 50.4845C16.3278 50.3787 16.2184 50.2687 16.1119 50.1552ZM16.6132 50.6393C16.4383 50.487 16.2715 50.3252 16.1119 50.1552C16.2184 50.2687 16.3278 50.3787 16.441 50.4845C16.4976 50.5373 16.5549 50.5885 16.6132 50.6393ZM16.7186 49.4604C16.6238 49.3567 16.5314 49.2497 16.4417 49.1392L16.4257 49.1189C16.3865 49.0703 16.3478 49.0211 16.3095 48.9713L16.4257 49.1189C16.4759 49.1809 16.5267 49.242 16.5783 49.302L16.7186 49.4604ZM15.8125 48.2555C15.5766 47.8822 15.3575 47.4881 15.1513 47.0817C15.22 47.2171 15.2904 47.3513 15.362 47.4836C15.4337 47.6161 15.5072 47.7466 15.5822 47.8754L15.8125 48.2555ZM14.2082 45.2125C14.2303 45.2268 14.2507 45.2434 14.27 45.2612C14.2334 45.2273 14.1915 45.1991 14.1453 45.1785C14.1672 45.1882 14.1884 45.1997 14.2082 45.2125Z" fill="#643BFF"/>
<path fill-rule="evenodd" clip-rule="evenodd" d="M49.5124 16.5001C49.6228 16.508 49.7312 16.5377 49.8299 16.588C49.9256 16.6368 50.0104 16.7044 50.0806 16.7857C51.909 18.8457 53.328 21.2363 54.2592 23.8288L54.2839 23.9073C54.3044 23.9867 54.313 24.0692 54.3093 24.1515C54.3044 24.2611 54.2777 24.3691 54.2308 24.4683C54.184 24.5676 54.1176 24.6565 54.0361 24.73C53.9546 24.8034 53.8592 24.8601 53.7557 24.8964L53.7477 24.8993L53.7397 24.9015C53.6542 24.9273 53.5651 24.9375 53.4759 24.9342H53.4716C53.4647 24.9339 53.4574 24.9347 53.4505 24.9342V24.9327C53.2886 24.9277 53.1313 24.8771 52.9986 24.7838C52.8938 24.7101 52.808 24.6133 52.7472 24.5018L52.6948 24.3855C51.8359 21.994 50.5278 19.7884 48.8417 17.8875C48.7696 17.8085 48.7133 17.7153 48.6761 17.6149C48.6377 17.5111 48.6203 17.4006 48.6252 17.2901C48.6302 17.1796 48.6569 17.071 48.7044 16.971C48.752 16.871 48.8194 16.7815 48.9021 16.7079C48.9847 16.6343 49.0814 16.5779 49.1861 16.5422C49.2909 16.5066 49.402 16.4922 49.5124 16.5001ZM53.8937 24.3092C53.8808 24.3365 53.8658 24.3628 53.8479 24.3869L53.8937 24.3092L53.9242 24.2242C53.9171 24.2533 53.9065 24.282 53.8937 24.3092ZM50.1351 17.4158C50.2432 17.5437 50.3498 17.6729 50.4548 17.8032C50.3475 17.67 50.2386 17.5382 50.128 17.4077L50.1133 17.3902L49.803 17.0328C49.7833 17.0094 49.7608 16.9878 49.7369 16.9688L49.6606 16.9194C49.715 16.9471 49.7637 16.9861 49.803 17.0328C49.9079 17.1509 50.0112 17.27 50.1133 17.3902L50.128 17.4077L50.1351 17.4158Z" fill="#643BFF"/>
<path fill-rule="evenodd" clip-rule="evenodd" d="M53.0145 16.854C53.1226 16.8666 53.2276 16.8999 53.3226 16.9528C53.4176 17.0058 53.5014 17.0775 53.5689 17.1629L53.7702 17.4252C54.759 18.749 55.4659 20.2631 55.8453 21.8738C55.874 21.9956 55.8748 22.1225 55.8475 22.2444C55.8202 22.3665 55.7655 22.4808 55.6877 22.5787C55.6127 22.6731 55.5177 22.7494 55.4101 22.8033V22.8927L55.0381 22.8934C54.8512 22.8935 54.6694 22.8301 54.5229 22.7139C54.3766 22.5978 54.2741 22.435 54.2316 22.2532C53.8823 20.7721 53.212 19.3863 52.2683 18.1927C52.2007 18.1073 52.1506 18.0088 52.1208 17.9042C52.0912 17.7998 52.0822 17.6902 52.0947 17.5822C52.1072 17.4741 52.1413 17.3691 52.1942 17.2741C52.2472 17.1789 52.3188 17.0953 52.4042 17.0277C52.4896 16.9601 52.5872 16.9099 52.6919 16.8802C52.7967 16.8504 52.9064 16.8414 53.0145 16.854ZM55.0381 22.5199V22.5213L55.0374 22.5206L55.0381 22.5199ZM55.4842 22.163C55.4815 22.1753 55.4778 22.1874 55.474 22.1994L55.4842 22.163ZM55.4828 21.9588C55.4838 21.9632 55.4846 21.9678 55.4855 21.9723L55.4828 21.9588ZM53.4723 17.6476C53.7283 17.9904 53.9645 18.3465 54.1807 18.7138C54.0185 18.4381 53.8445 18.1691 53.6597 17.9071L53.4723 17.6476ZM52.9709 17.2232C52.9882 17.2252 53.0049 17.2302 53.0218 17.2341L52.9709 17.2232Z" fill="#643BFF"/>
</svg>
