<svg width="65" height="76" viewBox="0 0 65 76" fill="none" xmlns="http://www.w3.org/2000/svg">
<path d="M17.8571 17.8356C17.5811 17.8039 17.303 17.8741 17.075 18.0329C16.847 18.1918 16.6849 18.4283 16.619 18.6983C16.5829 18.9713 16.6492 19.2481 16.8052 19.4751C16.9612 19.7021 17.1958 19.8632 17.4636 19.9273C18.0177 20.0555 18.6386 19.7053 18.7721 19.1874C18.804 19.0383 18.8054 18.8843 18.7763 18.7346C18.7471 18.585 18.6881 18.4428 18.6026 18.3165C18.5172 18.1903 18.4071 18.0826 18.279 17.9999C18.1508 17.9173 18.0074 17.8614 17.8571 17.8356Z" fill="#643BFF"/>
<path d="M17.7132 20.6559C17.5783 20.656 17.4439 20.6409 17.3125 20.6107C16.8678 20.5057 16.479 20.2369 16.2237 19.8579C15.9685 19.4788 15.8655 19.0175 15.9354 18.5659C16.0349 18.1177 16.2983 17.7229 16.674 17.459C17.0497 17.1952 17.5105 17.0814 17.9659 17.1401C18.214 17.1762 18.4516 17.2647 18.6629 17.3998C18.8742 17.5348 19.0543 17.7133 19.1913 17.9234C19.333 18.1326 19.4299 18.3689 19.4759 18.6174C19.5218 18.8658 19.5159 19.1211 19.4584 19.3672C19.3465 19.7422 19.1158 20.0706 18.801 20.303C18.4863 20.5354 18.1045 20.6593 17.7132 20.6559ZM17.7132 18.528C17.623 18.5323 17.5361 18.5635 17.4638 18.6175C17.3914 18.6715 17.3369 18.7459 17.3071 18.8312C17.3064 18.9249 17.3368 19.0162 17.3937 19.0907C17.4505 19.1652 17.5306 19.2187 17.6211 19.2427C17.6927 19.2736 17.7726 19.2793 17.8478 19.2587C17.923 19.2382 17.9889 19.1926 18.0347 19.1296C18.0805 19.0665 18.1035 18.9897 18.0999 18.9119C18.0962 18.834 18.0661 18.7597 18.0146 18.7012C17.9878 18.6534 17.9505 18.6123 17.9055 18.581C17.8604 18.5497 17.8089 18.5291 17.7547 18.5208L17.7132 18.528Z" fill="#643BFF"/>
<path d="M60.1542 20.2399C60.2011 19.1678 61.6287 18.0904 63.3541 17.4767C63.2964 17.4496 60.7101 12.49 60.7101 12.49C59.4359 13.3148 57.9866 14.4591 56.7395 13.7534C55.0628 12.8022 54.5899 10.8386 55.2848 9.08975C55.1512 8.90927 49.6394 8.61328 49.6394 8.61328C49.4354 9.56983 50.4876 11.3079 48.5005 12.7066C47.1126 13.683 45.8059 13.1614 44.3693 12.2626C44.0733 12.4088 42.1133 16.9154 42.1133 16.9154C43.521 17.2186 45.001 18.5758 45.0479 20.0359C45.1057 21.8805 44.0498 21.9743 42.3172 22.9525C42.7179 23.1619 44.6075 27.4862 44.6075 27.4862C45.7013 26.5639 46.8401 25.1399 48.7153 26.4033C50.2747 27.4555 49.8848 29.1376 49.8758 30.2097C50.123 30.3125 54.7632 30.3559 54.7632 30.3559C54.7217 29.7278 54.8155 27.9356 55.4202 27.2877C57.5318 25.0371 59.9791 27.3039 60.6541 27.5981C60.7877 27.5024 63.1033 22.9471 63.1033 22.9471C61.9572 22.7793 60.0694 22.2252 60.1542 20.2399ZM56.0302 21.2307C54.1658 24.4956 50.4804 23.6203 49.1593 21.57C48.3273 20.2778 47.6017 17.5832 50.9027 15.8181C51.6644 15.412 54.0503 15.3019 55.5339 16.975C56.5482 18.1138 56.7846 19.8934 56.0302 21.2253V21.2307Z" fill="#643BFF"/>
<path d="M54.7707 31.0572C49.997 31.0121 49.7624 30.9164 49.6234 30.8587C49.4941 30.8049 49.3837 30.7139 49.3062 30.5973C49.2287 30.4806 49.1878 30.3435 49.1884 30.2035C49.1884 30.023 49.2011 29.8425 49.2119 29.6368C49.2787 28.4745 49.2552 27.6046 48.3384 26.9855C47.1977 26.2149 46.5444 26.7112 45.4886 27.6515C45.3496 27.776 45.2106 27.8988 45.0735 28.0125C44.9899 28.0828 44.891 28.1327 44.7848 28.1581C44.6786 28.1835 44.5678 28.1838 44.4615 28.1589C44.3551 28.134 44.256 28.0847 44.172 28.0148C44.0881 27.9448 44.0217 27.8563 43.9779 27.7562C43.2019 25.9766 42.2002 23.874 41.9006 23.495C41.8097 23.4239 41.7377 23.3315 41.691 23.2259C41.6443 23.1204 41.6243 23.0049 41.6329 22.8898C41.6415 22.7747 41.6783 22.6635 41.7401 22.566C41.8019 22.4685 41.8868 22.3878 41.9872 22.3309C42.3301 22.1378 42.6478 21.9699 42.9257 21.8364C44.0826 21.2516 44.3931 21.0946 44.3606 20.0478C44.3263 18.927 43.0755 17.8279 41.98 17.5933C41.8784 17.5712 41.783 17.5269 41.7006 17.4635C41.6182 17.4001 41.5509 17.3193 41.5034 17.2268C41.4559 17.1343 41.4296 17.0325 41.4262 16.9286C41.4228 16.8247 41.4424 16.7213 41.4837 16.6259C43.5466 11.8847 43.83 11.7529 44.0736 11.6248C44.1806 11.5715 44.2995 11.5465 44.4189 11.5522C44.5383 11.5579 44.6543 11.594 44.7558 11.6572C46.3278 12.6391 47.205 12.7618 48.111 12.1229C49.1939 11.3577 49.1 10.5653 48.9863 9.6485C48.9147 9.25514 48.9086 8.85266 48.9683 8.45732C49.0032 8.29428 49.095 8.14899 49.2273 8.04747C49.3596 7.94595 49.5237 7.89482 49.6902 7.90324C55.5233 8.22089 55.6208 8.34722 55.8554 8.65404C55.9283 8.75082 55.9753 8.86467 55.9917 8.98473C56.0081 9.10479 55.9935 9.22706 55.9493 9.33987C55.4421 10.6159 55.6009 12.2835 57.0971 13.13C57.7811 13.5198 58.6962 12.9748 59.9162 12.1644L60.3368 11.8883C60.4189 11.8355 60.5111 11.8005 60.6076 11.7853C60.704 11.7701 60.8025 11.7752 60.8969 11.8001C60.9912 11.8251 61.0794 11.8694 61.1557 11.9302C61.232 11.9911 61.2949 12.0671 61.3402 12.1536C62.2426 13.8844 63.7208 16.7017 63.9284 17.0482C63.994 17.1367 64.0379 17.2393 64.0566 17.3478C64.0754 17.4563 64.0684 17.5676 64.0363 17.673C64.0042 17.7783 63.9478 17.8746 63.8717 17.9542C63.7956 18.0337 63.7018 18.0944 63.5981 18.1311C61.8546 18.752 60.8908 19.6923 60.8638 20.2644C60.8168 21.3473 61.611 22.0187 63.2245 22.2497C63.3346 22.266 63.4393 22.3082 63.5299 22.3729C63.6205 22.4376 63.6944 22.5229 63.7456 22.6218C63.7967 22.7207 63.8236 22.8304 63.824 22.9417C63.8244 23.0531 63.7983 23.1629 63.7479 23.2622C61.3547 27.9728 61.2518 28.0468 61.0785 28.1677C60.9806 28.2374 60.8664 28.2807 60.7469 28.2933C60.6274 28.306 60.5066 28.2875 60.3963 28.2399C60.1973 28.1438 60.0055 28.0334 59.8224 27.9096C58.559 27.101 57.2018 26.4224 55.9438 27.7652C55.5973 28.1262 55.4241 29.5375 55.4746 30.3028C55.481 30.3987 55.4677 30.4949 55.4354 30.5854C55.4031 30.676 55.3526 30.759 55.2869 30.8292C55.2213 30.8994 55.1419 30.9554 55.0537 30.9937C54.9656 31.032 54.8705 31.0517 54.7743 31.0518L54.7707 31.0572ZM50.6196 29.5664C51.3722 29.5989 52.7259 29.6278 54.0795 29.6458C54.1174 28.8084 54.2834 27.48 54.9187 26.8105C56.9798 24.6122 59.3062 25.9315 60.4234 26.63C60.797 25.9369 61.4413 24.6952 62.0838 23.4391C60.3368 22.9265 59.3929 21.7804 59.4614 20.1994C59.5192 18.8639 60.8872 17.7846 62.3618 17.115C62.1434 16.7125 61.8384 16.1314 61.3962 15.2903C61.0479 14.628 60.7031 13.9674 60.4559 13.4855C59.2503 14.2796 57.7974 15.1351 56.4023 14.3446C54.74 13.3989 53.9784 11.5381 54.3935 9.62864C53.5164 9.54021 51.9318 9.42831 50.3598 9.33626L50.376 9.46621C50.4951 10.4173 50.6918 12.0092 48.9159 13.2563C47.3963 14.3266 45.9542 13.9331 44.6078 13.1877C44.2469 13.8718 43.6513 15.173 43.0755 16.4689C44.4436 17.0699 45.7106 18.4109 45.7611 19.9901C45.8207 21.9302 44.7721 22.4609 43.5556 23.0745L43.3517 23.1792C43.6765 23.7405 44.153 24.688 44.8749 26.3033C45.8495 25.4659 47.2374 24.5346 49.1199 25.8052C50.6937 26.8863 50.6756 28.4619 50.6161 29.5664H50.6196ZM52.5941 24.0942C51.7993 24.093 51.017 23.8961 50.3163 23.5209C49.6157 23.1457 49.0182 22.6037 48.5766 21.9429C48.2156 21.4014 47.4522 19.9413 47.8908 18.2538C48.2156 17.0031 49.1198 15.9726 50.5799 15.1857C51.6321 14.6226 54.3701 14.5792 56.0666 16.496C57.292 17.8784 57.5357 20.0099 56.6477 21.5657C55.7598 23.1214 54.3484 24.0419 52.715 24.0924L52.5941 24.0942ZM52.244 16.2685C51.8999 16.2538 51.5567 16.3123 51.2369 16.44C50.1396 17.0266 49.4682 17.7593 49.2516 18.6166C48.9448 19.7988 49.562 20.8871 49.7588 21.1921C50.0749 21.6541 50.4983 22.0326 50.9927 22.2951C51.4872 22.5575 52.0379 22.6962 52.5977 22.6991H52.6807C53.4749 22.6774 54.5957 22.3381 55.4313 20.8853C56.0287 19.8367 55.8554 18.3892 55.018 17.4435C54.6647 17.0629 54.2349 16.7615 53.7568 16.559C53.2787 16.3565 52.7631 16.2575 52.244 16.2685Z" fill="#643BFF"/>
<path fill-rule="evenodd" clip-rule="evenodd" d="M12.83 65.2821C12.9705 65.2676 13.113 65.2819 13.2479 65.3237C13.3781 65.3641 13.4989 65.4295 13.604 65.5162L15.5487 67.0314L15.6697 67.1407C15.7815 67.2591 15.8645 67.4031 15.9116 67.5606C15.9741 67.7703 15.9694 67.9943 15.898 68.2011C15.8265 68.4081 15.6917 68.5884 15.5129 68.7149C15.3351 68.8405 15.1221 68.9064 14.9044 68.9055L14.9014 68.9064C14.6686 68.9065 14.4419 68.829 14.259 68.6849L12.3152 67.1697C12.2056 67.089 12.1123 66.9871 12.0414 66.8707C11.968 66.7501 11.9195 66.6149 11.8992 66.475C11.879 66.3353 11.8872 66.1925 11.9234 66.0561C11.9596 65.9196 12.0233 65.7911 12.1101 65.6797C12.1969 65.5685 12.3059 65.4762 12.4294 65.4078C12.553 65.3394 12.6894 65.2965 12.83 65.2821ZM13.098 65.6449C13.0216 65.6267 12.943 65.6185 12.8648 65.6265C12.7709 65.6362 12.6794 65.665 12.5968 65.7107C12.5142 65.7565 12.441 65.819 12.383 65.8935L12.3085 66.0125C12.2875 66.0547 12.2703 66.0994 12.2581 66.1451L12.2359 66.2844C12.2332 66.3313 12.2349 66.3789 12.2417 66.4257C12.2553 66.5192 12.2884 66.6091 12.3375 66.6898C12.3866 66.7705 12.4513 66.8409 12.5281 66.8959L14.4738 68.412C14.4832 68.4194 14.4941 68.4245 14.5038 68.4314C14.4948 68.425 14.4845 68.4199 14.4757 68.413L12.531 66.8969C12.454 66.8418 12.3886 66.7716 12.3394 66.6908C12.2903 66.61 12.2582 66.5202 12.2446 66.4267C12.2311 66.3331 12.2359 66.2374 12.2601 66.1461C12.2843 66.0546 12.3277 65.9691 12.3859 65.8945C12.444 65.82 12.516 65.7575 12.5987 65.7116C12.6815 65.6658 12.7735 65.6371 12.8677 65.6275C12.9451 65.6196 13.0224 65.6273 13.098 65.6449Z" fill="#643BFF"/>
<path fill-rule="evenodd" clip-rule="evenodd" d="M23.7747 36.8133C26.4033 36.7354 30.2282 37.6194 33.1173 40.3506C36.4975 43.5462 38.2373 48.3025 37.6502 52.7757C36.6537 60.3735 30.5359 64.5609 25.2512 64.628H25.2357L25.0712 64.6222C21.7816 64.5909 18.5801 63.5538 15.897 61.6499L15.4017 61.2871C12.9777 59.4351 11.2928 57.0248 10.7759 54.5801C9.90134 50.4492 10.7739 45.9966 13.1183 42.664L13.3524 42.3408C15.8229 39.045 19.7767 36.9356 23.7747 36.8133ZM26.4374 62.7703C26.0318 62.8297 25.6284 62.8634 25.2309 62.8681H25.0877C24.6237 62.868 24.1592 62.8392 23.6964 62.7887C24.1599 62.8394 24.6249 62.869 25.0896 62.869H25.2328C25.6298 62.8644 26.0323 62.8296 26.4374 62.7703ZM23.7631 38.9099C20.3212 39.0393 16.8985 40.9328 14.8328 43.8676C12.8245 46.7214 12.0693 50.5645 12.828 54.1418C13.295 56.3475 14.9352 58.4435 17.1955 59.9945C19.4519 61.5427 22.289 62.5216 25.0877 62.5217H25.226C29.5881 62.4713 34.7221 58.9577 35.5709 52.499C36.07 48.6924 34.5815 44.6166 31.6776 41.8706C29.3603 39.6954 26.3008 38.9128 24.1095 38.9128H23.7631V38.9099ZM23.7844 37.1606L23.409 37.178C19.5241 37.421 15.7167 39.5746 13.4018 42.8633C11.1152 46.1137 10.26 50.4677 11.1155 54.5085C11.6445 57.0098 13.4598 59.5095 16.0964 61.3664C16.1221 61.3847 16.1489 61.4015 16.1747 61.4196C16.1495 61.4019 16.1235 61.3853 16.0983 61.3674C13.4615 59.5103 11.6462 57.01 11.1174 54.5085C10.2621 50.4677 11.1171 46.1146 13.4037 42.8642C15.7933 39.4694 19.7734 37.2843 23.7873 37.1616C23.9465 37.1569 24.1101 37.1549 24.2778 37.1577C24.1092 37.1549 23.9444 37.1559 23.7844 37.1606ZM33.4927 43.4148C35.4177 46.0626 36.3292 49.3889 35.9154 52.5444L35.8206 53.1579C35.6516 54.1111 35.3895 54.9982 35.0514 55.8176C35.4609 54.825 35.7612 53.7338 35.9173 52.5454C36.3313 49.3892 35.4185 46.0629 33.4927 43.4148ZM31.4357 41.1952C31.5985 41.3302 31.7588 41.4709 31.9156 41.6181C32.3039 41.9852 32.6672 42.3759 33.005 42.7859C32.6675 42.3765 32.3054 41.9857 31.9175 41.619C31.7602 41.4713 31.599 41.3306 31.4357 41.1952ZM30.7439 40.667C30.9337 40.7997 31.1203 40.9404 31.3041 41.0878C31.0424 40.878 30.7743 40.6828 30.501 40.5025L30.7439 40.667ZM24.1095 38.5664H24.1114V38.5616H24.1095V38.5664Z" fill="#643BFF"/>
<path fill-rule="evenodd" clip-rule="evenodd" d="M5.91304 53.391C6.18595 53.3679 6.45726 53.452 6.66868 53.6261C6.85366 53.7786 6.98017 53.9895 7.0286 54.2221L7.04409 54.3237L7.04505 54.3315C7.11667 55.1796 7.32429 56.0103 7.65944 56.791L7.81134 57.1228C7.88811 57.2826 7.92375 57.4606 7.9139 57.6376C7.90393 57.8143 7.84914 57.9858 7.75522 58.1358C7.66117 58.2859 7.53067 58.4106 7.37595 58.4967C7.22104 58.5828 7.0462 58.6286 6.86896 58.6293H6.86703C6.67005 58.629 6.47651 58.5735 6.30973 58.4687C6.14298 58.3638 6.00929 58.2136 5.92368 58.0362C5.38692 56.93 5.05832 55.7337 4.95517 54.5085V54.5018C4.93804 54.2283 5.02887 53.9585 5.2077 53.751C5.38665 53.5435 5.6401 53.4143 5.91304 53.391ZM6.38229 58.0836C6.41688 58.117 6.45343 58.1487 6.49453 58.1745C6.51905 58.1899 6.54488 58.203 6.57096 58.2152C6.54566 58.2032 6.52031 58.1905 6.49646 58.1755C6.45475 58.1493 6.41731 58.1176 6.38229 58.0836ZM5.94206 53.7364C5.75937 53.7521 5.58966 53.8385 5.4699 53.9774C5.35034 54.1162 5.28923 54.2967 5.30059 54.4795C5.40018 55.6624 5.71788 56.8173 6.23619 57.8852C6.24762 57.9089 6.26196 57.9309 6.27586 57.953C6.26234 57.9313 6.24928 57.9093 6.23813 57.8862C5.71974 56.8181 5.40305 55.6635 5.30349 54.4805C5.29206 54.2975 5.35214 54.1172 5.47184 53.9783C5.59162 53.8394 5.76125 53.753 5.944 53.7374C6.0301 53.7301 6.11597 53.7391 6.19749 53.7626C6.15866 53.7513 6.11886 53.7428 6.07848 53.7384L5.94206 53.7364Z" fill="#643BFF"/>
<path fill-rule="evenodd" clip-rule="evenodd" d="M8.36864 38.5423C8.50422 38.5182 8.64346 38.5203 8.77791 38.55C8.91241 38.5797 9.03945 38.6365 9.15235 38.7154C9.26522 38.7943 9.36172 38.8944 9.43584 39.0105C9.50987 39.1266 9.5608 39.2562 9.58484 39.3917C9.6088 39.5273 9.60577 39.6667 9.57613 39.801C9.5464 39.9354 9.49054 40.0636 9.41165 40.1764C8.80295 41.0474 8.32298 42.0021 7.98743 43.0103L7.98647 43.0132C7.91545 43.2204 7.78067 43.4009 7.60235 43.528C7.42415 43.6548 7.21058 43.7229 6.99184 43.7224C6.87934 43.7227 6.76753 43.7042 6.66094 43.6683C6.53059 43.625 6.40977 43.5569 6.30586 43.467C6.20178 43.377 6.11593 43.2668 6.0543 43.1439C5.99284 43.0211 5.9558 42.8871 5.94593 42.7501C5.93613 42.6129 5.95378 42.4742 5.99721 42.3437C6.39608 41.1446 6.96686 40.0092 7.69137 38.9738L7.75522 38.8925C7.82211 38.8144 7.90048 38.7458 7.98743 38.6903C8.10342 38.6163 8.2332 38.5663 8.36864 38.5423ZM8.4296 38.8828L8.29608 38.9206C8.25374 38.9371 8.21269 38.9579 8.17417 38.9825L8.0658 39.0676C8.03273 39.0993 8.00222 39.1344 7.97582 39.1721C7.27036 40.1803 6.71451 41.2864 6.32617 42.454L6.29618 42.5875C6.29048 42.6329 6.28904 42.6791 6.29231 42.7249C6.29891 42.8166 6.32368 42.9068 6.36488 42.989C6.40608 43.0711 6.46281 43.1447 6.53226 43.2048C6.60184 43.265 6.68294 43.3113 6.77027 43.3403C6.78849 43.3464 6.80775 43.3492 6.82639 43.3538C6.80841 43.3493 6.78981 43.3462 6.77221 43.3403C6.68492 43.3113 6.60375 43.266 6.53419 43.2058C6.46471 43.1457 6.40802 43.0721 6.36681 42.99C6.32558 42.9077 6.30081 42.8177 6.29425 42.7259C6.28768 42.6341 6.29899 42.5413 6.32811 42.454C6.71648 41.2864 7.27225 40.1812 7.97776 39.1731C8.03061 39.0975 8.09836 39.0331 8.1761 38.9834C8.2538 38.9339 8.34081 38.8999 8.43153 38.8838C8.52225 38.8678 8.6154 38.8697 8.70535 38.8896C8.72021 38.8929 8.7343 38.8989 8.74888 38.9031L8.70341 38.8886C8.61356 38.8688 8.52021 38.8668 8.4296 38.8828Z" fill="#643BFF"/>
<path fill-rule="evenodd" clip-rule="evenodd" d="M18.866 43.1907C20.6723 41.6643 23.1519 41.0098 25.663 41.3765C29.0664 41.8726 32.1477 44.5785 33.0017 47.8358C33.4788 49.6547 33.5808 51.2651 33.2649 52.7703C32.9486 54.2771 32.2183 55.653 31.0696 57.01C29.6279 58.7038 27.6814 59.7408 25.3185 60.0674H25.3166C24.9804 60.1116 24.6417 60.1336 24.3026 60.1322H24.3007C22.3772 60.1318 20.3691 59.4162 18.6096 58.112L18.2613 57.8431C16.302 56.2708 15.0007 54.166 14.8372 52.1868C14.6897 50.3924 14.9245 48.7882 15.5909 47.3037C16.2563 45.8215 17.3425 44.4789 18.866 43.1907ZM18.4122 44.0634C15.9193 46.4173 14.9186 48.945 15.1826 52.1578C15.3361 54.0149 16.5686 56.0408 18.478 57.5731C20.2666 59.0061 22.3408 59.7859 24.3026 59.7859C24.5327 59.7868 24.7625 59.7751 24.9915 59.7539C24.7631 59.7748 24.534 59.7859 24.3045 59.7849C22.3427 59.7849 20.2685 59.0052 18.48 57.5721C16.5706 56.0399 15.338 54.0149 15.1845 52.1578C14.9204 48.9453 15.9201 46.4171 18.4122 44.0634ZM25.4143 43.1055C27.7623 43.4485 30.5419 45.3343 31.3143 48.2761C32.1409 51.429 31.6982 53.5586 29.7382 55.8741C28.5687 57.2547 27.0471 58.058 25.0853 58.3288C24.8542 58.3608 24.6194 58.3768 24.3819 58.38C24.62 58.3768 24.8555 58.3608 25.0873 58.3288C27.049 58.0581 28.5707 57.2546 29.7402 55.8741C31.7001 53.5587 32.1427 51.4288 31.3163 48.2761C30.5438 45.3343 27.7643 43.4475 25.4162 43.1046C25.2868 43.0853 25.1566 43.0705 25.0263 43.0581C25.156 43.0705 25.2854 43.0864 25.4143 43.1055ZM24.2968 43.3706C22.8148 43.3484 21.3719 43.85 20.2244 44.7881C18.601 46.1612 17.7443 47.4583 17.3083 48.6524C16.8718 49.8478 16.8466 50.9689 16.9319 52.0127L16.9629 52.2652C17.1681 53.5462 18.129 55.044 19.5781 56.2069C21.3104 57.5949 23.3032 58.2256 25.0379 57.9853C26.9236 57.7251 28.3652 56.9597 29.4741 55.6506C30.4277 54.5241 30.9946 53.4631 31.2321 52.3184C31.4402 51.3149 31.3995 50.222 31.115 48.9301L30.9786 48.3641C30.2478 45.5811 27.601 43.7747 25.364 43.448C25.0131 43.3959 24.6574 43.37 24.3026 43.3706H24.2968ZM19.4243 43.1907C19.3107 43.2759 19.1991 43.364 19.0905 43.4558L18.8147 43.6928C18.7887 43.7158 18.7641 43.7404 18.7383 43.7635C18.8535 43.6606 18.9714 43.5572 19.0924 43.4548C19.2005 43.3635 19.3112 43.2755 19.4243 43.1907ZM24.3045 43.0233C24.1136 43.0204 23.9229 43.0263 23.7337 43.0397C23.9224 43.0264 24.1122 43.0214 24.3026 43.0243L24.5813 43.0291C24.7107 43.0337 24.8401 43.042 24.9692 43.0533C24.7482 43.0339 24.5265 43.0229 24.3045 43.0233Z" fill="#643BFF"/>
<path fill-rule="evenodd" clip-rule="evenodd" d="M22.2708 26.5607C22.7738 26.5812 23.242 26.6293 23.6244 26.7068C23.8155 26.7455 23.9924 26.7936 24.1439 26.8509C24.2538 26.8925 24.3639 26.9438 24.4593 27.0106L24.5503 27.0831C24.7413 27.2593 24.8602 27.5007 24.8841 27.7594C24.9705 28.6881 25.5051 30.1804 25.9503 31.02C26.3737 31.8184 27.0338 32.4129 27.718 32.6571C28.1519 32.7944 28.6086 32.8454 29.0619 32.8051L29.0687 32.8042C29.9413 32.744 30.7365 32.2913 31.4179 31.6228C32.0989 30.9546 32.6453 30.09 33.0133 29.2591C33.1196 29.0179 33.3134 28.8261 33.5552 28.7212C33.767 28.6293 34.0023 28.6097 34.2247 28.6651L34.3195 28.6931L34.3253 28.696C35.5694 29.159 36.7563 29.763 37.8626 30.4966L37.8665 30.4995C38.5086 30.9388 39.1274 31.4117 39.7193 31.916L40.3018 32.4307L40.7169 32.8206C41.0829 33.1755 41.3081 33.4295 41.4474 33.6246C41.5423 33.7578 41.6048 33.8735 41.6428 33.9846C41.6815 34.0978 41.6876 34.1894 41.6921 34.2487C41.7147 34.492 41.6544 34.736 41.519 34.9395L41.3429 35.2182L41.3419 35.2172C40.8553 36.0006 40.237 37.0055 40.028 37.696C39.8074 38.4246 39.7913 39.1079 39.9525 39.6563L40.0328 39.8827L40.0338 39.8856C40.3432 40.6497 41.18 41.3373 42.3123 41.6678L42.3143 41.6687C42.7214 41.7896 43.2752 41.7798 43.8807 41.6978C44.4782 41.6168 45.0829 41.4721 45.5797 41.3533L45.7432 41.3272C45.9073 41.3143 46.0734 41.3401 46.227 41.4036C46.3806 41.4672 46.5157 41.5667 46.6227 41.692L46.7204 41.8255L46.7262 41.8352L46.9652 42.2783C47.5021 43.3204 47.8936 44.4322 48.1282 45.5824C48.3196 46.5174 48.4568 47.7949 48.5133 48.8991C48.5416 49.4521 48.5503 49.9693 48.5346 50.3833C48.5267 50.5898 48.512 50.7765 48.4901 50.9319C48.4699 51.0745 48.4372 51.2277 48.3769 51.346L48.3778 51.347C48.2903 51.5201 48.157 51.6664 47.9918 51.7679C47.8266 51.8693 47.636 51.921 47.4422 51.9208L47.4064 51.9217C46.2186 51.9217 45.3443 52.216 44.7273 52.7683C44.1862 53.2529 43.8063 53.9694 43.6079 54.9579L43.5334 55.3981C43.4411 56.0758 43.6575 56.8808 44.1603 57.5963C44.5967 58.2149 45.2492 58.7977 46.1767 59.3756L46.2957 59.4627C46.4088 59.5576 46.5018 59.6752 46.5666 59.8091C46.6529 59.9875 46.6865 60.1869 46.6643 60.3838L46.6624 60.3993C46.4427 61.779 45.9212 63.0938 45.1356 64.2491L45.1317 64.2539C44.4659 65.1973 43.7071 66.0715 42.8667 66.8634C42.1719 67.5283 41.7405 67.8811 41.4454 68.067C41.2952 68.1616 41.1686 68.2199 41.0516 68.2528C40.9298 68.287 40.8357 68.2881 40.7788 68.2886H40.7749C40.5404 68.2882 40.3127 68.2092 40.1276 68.0651C39.8429 67.8425 39.2827 67.4036 38.6144 67.0124C37.9376 66.6162 37.1918 66.2948 36.5342 66.2645C35.588 66.2211 34.6894 66.6088 33.8609 67.4826L33.6964 67.6645C33.0809 68.3685 32.7316 70.0259 33.5329 72.1907L33.709 72.6309L33.71 72.6338C33.8133 72.8805 33.8185 73.1574 33.7245 73.4078C33.6302 73.6584 33.4435 73.8641 33.203 73.9816L33.1981 73.9835C31.8931 74.5971 30.5294 75.0773 29.1277 75.4164L29.119 75.4184C28.0986 75.6398 27.0623 75.7827 26.02 75.846H26.018C25.6223 75.8678 25.3102 75.8789 25.0592 75.8789C24.6566 75.8789 24.3853 75.8514 24.1875 75.787C23.9591 75.7127 23.8479 75.5954 23.7666 75.5064C23.6099 75.336 23.5145 75.1171 23.4966 74.8862C23.2053 71.9929 22.2111 70.4668 20.6976 70.0553C18.8323 69.5475 16.6143 70.7146 15.9741 72.5428C15.8848 72.7976 15.7008 73.0086 15.4603 73.1311C15.2198 73.2535 14.9408 73.2784 14.6824 73.2008L14.6776 73.1988C13.5731 72.8483 12.5073 72.3848 11.4982 71.8152L11.4924 71.8114C10.7125 71.3493 9.96426 70.8357 9.25354 70.273C8.72111 69.8506 8.36877 69.5528 8.16894 69.2958C8.06281 69.1592 7.98559 69.017 7.95027 68.8575C7.91501 68.6979 7.92765 68.5495 7.95608 68.4124C7.9876 68.2535 8.056 68.104 8.15539 67.9761L8.3547 67.6993C8.79393 67.0366 9.05615 66.2698 9.11422 65.473C9.19955 64.242 8.73215 63.1243 7.9464 62.5259L7.77612 62.4069C6.9534 61.8818 5.74365 61.7484 3.93306 62.0876L3.5354 62.1679C3.3529 62.207 3.16301 62.1966 2.98584 62.1379C2.85299 62.0939 2.73065 62.0233 2.62592 61.9319L2.51949 61.8254C1.68175 60.8065 1.04804 59.6354 0.652146 58.3771L0.649243 58.3684C0.349572 57.3233 0.155099 56.2507 0.0687211 55.1668L0.025182 54.5921C-0.00713154 54.0778 -0.00570164 53.7376 0.0145391 53.5037C0.0282163 53.3458 0.0505309 53.2254 0.0822666 53.1282C0.115814 53.0256 0.155922 52.9613 0.17902 52.9231L0.179988 52.9212C0.295088 52.7329 0.466889 52.5855 0.670529 52.5003C0.874313 52.4152 1.09991 52.3966 1.31491 52.4471C1.40976 52.4692 1.62952 52.4616 1.96316 52.3716C2.28254 52.2855 2.66544 52.1342 3.06228 51.9159C3.85872 51.4778 4.68024 50.7876 5.17151 49.856C5.37122 49.4657 5.51609 49.0495 5.60206 48.6195L5.604 48.6118L5.60593 48.6031C5.68116 48.3035 5.69359 47.9914 5.64173 47.6868C5.58987 47.3824 5.47508 47.0922 5.30503 46.8344L5.30406 46.8325C4.93003 46.2611 4.31847 45.8194 3.69892 45.5012C3.08198 45.1843 2.49112 45.0075 2.20214 44.9487C1.99249 44.9063 1.80044 44.8004 1.65258 44.6459C1.50457 44.491 1.40774 44.2944 1.3749 44.0827C1.35253 43.937 1.02026 41.5741 2.81265 38.83L3.06034 38.473C3.66397 37.6469 4.44267 36.8766 5.10185 36.2892C5.81796 35.6512 6.415 35.2096 6.5309 35.1292C6.6998 35.0064 6.90178 34.9371 7.11045 34.9299C7.31891 34.9227 7.52475 34.9779 7.70162 35.0885C8.39539 35.5226 9.14458 35.8607 9.92792 36.0938L10.2666 36.1877L10.2782 36.1906C10.9225 36.3812 11.6013 36.4272 12.2655 36.326C13.3227 36.1197 14.3057 35.2536 14.7975 34.0571L14.8894 33.8133C15.3947 32.3213 15.0969 30.7412 14.7433 29.6519L14.7037 29.4826C14.678 29.3121 14.6941 29.1367 14.753 28.9727C14.8314 28.7545 14.9803 28.5681 15.1758 28.4435C15.2561 28.3919 17.1392 27.2002 19.1011 26.7929C20.0818 26.5893 21.2653 26.5196 22.2708 26.5607ZM24.4216 75.488C24.5163 75.5063 24.6364 75.5209 24.7931 75.5277L25.0592 75.5325C25.1801 75.5325 25.3168 75.5302 25.4724 75.5248L25.9513 75.5016C25.5819 75.5214 25.2926 75.5315 25.0612 75.5316C24.7651 75.5316 24.5641 75.5156 24.4216 75.488ZM24.1304 75.3729C24.0896 75.342 24.0578 75.3083 24.0249 75.2723C23.92 75.1589 23.8569 75.0132 23.845 74.8591C23.5508 71.9209 22.5231 70.1916 20.7905 69.7205C19.8354 69.4605 18.8018 69.5988 17.9004 70.0243C18.8013 69.5995 19.8341 69.4616 20.7885 69.7215C22.5211 70.1925 23.5488 71.921 23.843 74.8591C23.8549 75.0131 23.9181 75.1588 24.023 75.2723C24.0562 75.3086 24.0891 75.3417 24.1304 75.3729ZM29.0474 75.0787C28.5713 75.1821 28.0916 75.2667 27.6096 75.3351C27.8372 75.3029 28.0645 75.2688 28.2908 75.2287L29.0455 75.0797C29.2157 75.0385 29.3853 74.9945 29.5544 74.9491C29.3861 74.9943 29.2169 75.0378 29.0474 75.0787ZM33.053 73.669C32.7363 73.818 32.4157 73.959 32.0922 74.0919C32.251 74.0266 32.4091 73.9597 32.5663 73.8906L33.0511 73.67L33.053 73.669ZM22.8987 28.7086C21.7665 28.5787 20.6207 28.6194 19.5007 28.8353C18.5549 29.0317 17.5803 29.4896 16.9464 29.8242C17.2591 31.117 17.4165 32.7939 16.8545 34.4693C16.2267 36.3362 14.7493 37.8101 13.0018 38.2901L12.6486 38.3723C11.8809 38.5221 11.0502 38.4933 10.1311 38.2988L9.73151 38.2059C8.85757 37.9822 8.01455 37.6524 7.21978 37.2268C6.50087 37.8075 5.25755 38.8943 4.55422 39.9707C3.69691 41.2842 3.47472 42.44 3.42801 43.121C4.40879 43.4501 6.07181 44.1934 7.04176 45.6782C7.36549 46.1713 7.58582 46.7255 7.6871 47.3066C7.78758 47.8834 7.76807 48.4747 7.63292 49.0443L7.63389 49.0452C7.50921 49.6651 7.29907 50.2648 7.00886 50.8265L7.00693 50.8294C6.42655 51.9298 5.53227 52.8049 4.58615 53.4262C3.7595 53.9691 2.87633 54.3294 2.10152 54.4741C2.16022 55.5833 2.33884 56.6833 2.63656 57.754L2.74493 58.0743C2.98856 58.7506 3.31979 59.392 3.72794 59.9842C5.3424 59.7005 7.50573 59.5797 9.19162 60.8453L9.19356 60.8463C10.4766 61.8196 11.2247 63.4869 11.2031 65.2515L11.1886 65.6056C11.1164 66.6051 10.8197 67.5734 10.3275 68.4434C11.0219 69.0132 11.7585 69.5297 12.5316 69.9876C13.1406 70.3327 13.7756 70.6288 14.4289 70.8796C14.9558 70.0027 15.6881 69.265 16.5672 68.7356C17.534 68.1533 18.6401 67.8428 19.7687 67.8367H19.7707C20.2661 67.8357 20.7599 67.9006 21.2384 68.0293C23.5374 68.6541 24.9497 70.6918 25.4511 73.7668C26.5303 73.729 27.6047 73.5963 28.6604 73.3672C29.6012 73.1419 30.5222 72.8417 31.4159 72.4722C30.6556 70.0876 30.8531 67.7153 32.1126 66.2751C33.3671 64.8411 34.9367 64.0823 36.629 64.1601C38.1718 64.2326 39.6732 65.1193 40.7749 65.92C41.4722 65.3138 42.6664 64.1507 43.3931 63.0687L43.5817 62.7726C43.965 62.1398 44.2542 61.4548 44.4458 60.7399C43.6765 60.2094 43 59.5543 42.4478 58.799L42.4449 58.7941C41.6451 57.6584 41.2887 56.3483 41.4551 55.1049C41.6676 53.5496 42.2346 52.2869 43.1415 51.3828C43.9835 50.5435 45.0951 50.0359 46.4244 49.8725C46.415 48.5727 46.2925 47.276 46.0557 45.9975C45.8795 45.1592 45.6074 44.3445 45.2469 43.568C44.167 43.8041 42.8369 44.0081 41.6999 43.6706C39.9987 43.1658 38.6609 42.086 38.0765 40.6712C37.5167 39.3186 37.7364 37.9471 38.0039 37.0729C38.2632 36.216 38.8342 35.239 39.3391 34.4258C38.5178 33.6124 37.6255 32.8737 36.6706 32.2217C35.9641 31.7561 35.2205 31.3486 34.4482 31.0036C33.3934 32.8659 31.5882 34.7123 29.1974 34.8757C28.4639 34.9384 27.7252 34.8541 27.0253 34.626L27.0204 34.6241C25.7944 34.2037 24.754 33.2621 24.0781 31.9943L24.0752 31.9895C23.5412 30.952 23.1467 29.8481 22.8987 28.7086ZM28.7339 73.7058L28.554 73.7426C28.6145 73.7301 28.6755 73.7189 28.7359 73.7058C28.789 73.6931 28.8416 73.6783 28.8945 73.6652C28.841 73.6785 28.7876 73.693 28.7339 73.7058ZM31.3182 69.6054C31.2976 70.5633 31.471 71.6104 31.8455 72.6686C31.5204 72.8096 31.191 72.9401 30.8586 73.0624C31.1915 72.9399 31.5218 72.8089 31.8475 72.6676C31.473 71.6096 31.2976 70.5631 31.3182 69.6054ZM8.82202 69.4651C8.98916 69.6129 9.20092 69.7882 9.46931 70.0011C10.1677 70.5541 10.9031 71.0593 11.6695 71.5134C12.6576 72.0711 13.7006 72.5256 14.782 72.8689C14.8687 72.8949 14.9586 72.9022 15.0472 72.8941C14.9594 72.9017 14.8699 72.8937 14.784 72.8679C13.7025 72.5246 12.6595 72.0702 11.6714 71.5124C10.9049 71.0583 10.1697 70.5532 9.47124 70.0001C9.20255 69.787 8.98925 69.613 8.82202 69.4651ZM14.9978 70.6426C14.845 70.8542 14.705 71.0757 14.5808 71.3073L14.5827 71.3083C14.7068 71.0768 14.8452 70.8542 14.9978 70.6426ZM17.3344 68.7249C17.1337 68.817 16.9365 68.918 16.7461 69.0326L16.4114 69.2503C16.3063 69.3236 16.2035 69.3999 16.1037 69.4796C16.3074 69.3167 16.5231 69.1671 16.7481 69.0316C16.9378 68.9174 17.1343 68.8167 17.3344 68.7249ZM8.29568 68.483L8.27633 68.6379C8.27592 68.6509 8.27887 68.6637 8.27924 68.6766C8.27743 68.6149 8.28332 68.551 8.29762 68.4821C8.30221 68.4584 8.30902 68.4354 8.316 68.4124C8.30879 68.4358 8.30036 68.4589 8.29568 68.483ZM5.6485 61.5545C6.70983 61.5455 7.52845 61.7756 8.15539 62.2492C9.05225 62.9315 9.55167 64.1736 9.45963 65.4982C9.38831 66.4769 9.02993 67.413 8.4292 68.1889L8.38373 68.2557C8.37611 68.2683 8.3712 68.2823 8.36438 68.2953C8.38377 68.2579 8.40512 68.2214 8.43114 68.188C9.03197 67.4119 9.39034 66.4761 9.46157 65.4972C9.55361 64.1725 9.05432 62.9305 8.15733 62.2482C7.53002 61.7744 6.71064 61.5452 5.6485 61.5545ZM36.1491 65.923C36.2817 65.9134 36.4156 65.9119 36.5507 65.9181C38.0376 65.9869 39.7701 67.3454 40.3405 67.7913C40.4647 67.888 40.6175 67.9409 40.7749 67.9412L40.7759 67.9403C40.6188 67.9397 40.4664 67.8878 40.3424 67.7913C39.7722 67.3455 38.0397 65.9869 36.5526 65.9181C36.4169 65.9119 36.2822 65.9133 36.1491 65.923ZM36.3213 64.5016C34.8626 64.5238 33.4975 65.219 32.3738 66.5035L32.2645 66.6341C32.1773 66.7439 32.0978 66.8606 32.0226 66.9814C32.1286 66.811 32.246 66.6508 32.3757 66.5025C33.4989 65.2186 34.8633 64.5243 36.3213 64.5016ZM42.0153 65.2292C41.537 65.7117 41.0901 66.1156 40.7943 66.3603L40.7952 66.3612C41.0908 66.1169 41.5367 65.7119 42.0153 65.2292ZM43.8943 51.1912C42.7615 52.031 42.0421 53.369 41.7986 55.1504C41.6452 56.2964 41.9722 57.521 42.7284 58.5948C43.3053 59.3839 44.0223 60.0607 44.8434 60.5909C44.6188 61.5433 44.2252 62.4478 43.6814 63.2613L43.5188 63.4944C43.4342 63.6118 43.344 63.7284 43.2518 63.8456C43.4055 63.6503 43.5528 63.4557 43.6833 63.2613C44.2274 62.4475 44.6207 61.5426 44.8453 60.5899C44.0241 60.0596 43.3072 59.383 42.7303 58.5939C41.9741 57.5201 41.6472 56.2964 41.8005 55.1504C42.0439 53.3696 42.7624 52.0312 43.8943 51.1912ZM0.537009 53.0179C0.514866 53.0444 0.494217 53.0724 0.476054 53.1021L0.445093 53.1573C0.369598 53.3073 0.283122 53.6566 0.414132 55.1359C0.498554 56.1977 0.689479 57.2488 0.983043 58.2726C1.36559 59.4885 1.978 60.6202 2.7875 61.6048C2.86989 61.6988 2.97653 61.7687 3.09518 61.808C3.10013 61.8097 3.10568 61.8094 3.11066 61.8109C3.10626 61.8096 3.10148 61.8095 3.09711 61.808C2.97844 61.7687 2.87183 61.6979 2.78943 61.6039C1.98005 60.6193 1.36749 59.4884 0.984978 58.2726C0.691352 57.2486 0.500499 56.1978 0.416067 55.1359C0.266309 53.4452 0.400373 53.2303 0.477989 53.1021C0.495926 53.0727 0.515172 53.0442 0.537009 53.0179ZM0.710198 52.868L0.706328 52.8709C0.678732 52.8879 0.65286 52.9074 0.627957 52.928C0.654023 52.9063 0.681181 52.8857 0.710198 52.868ZM5.47822 50.0176C4.88072 51.1507 3.84286 51.9376 2.92005 52.3794C3.84335 51.9379 4.88224 51.1513 5.48015 50.0176C5.51691 49.9459 5.55039 49.8722 5.58368 49.799C5.55021 49.8725 5.51515 49.9456 5.47822 50.0176ZM47.4006 51.5754C47.1762 51.5756 46.9607 51.5849 46.7543 51.6053C46.8909 51.5919 47.0316 51.5838 47.1761 51.5792L47.4006 51.5754ZM47.6357 51.5483C47.624 51.5516 47.6118 51.5533 47.5999 51.556C47.6108 51.5535 47.622 51.5523 47.6328 51.5492L47.6357 51.5483ZM45.4423 43.1704C45.8743 44.0452 46.1946 44.9711 46.3953 45.9259C46.6559 47.3302 46.7814 48.7568 46.7717 50.185H46.7746C46.7844 48.7565 46.6579 47.3304 46.3973 45.9259C46.1965 44.971 45.8762 44.0453 45.4442 43.1704H45.4423ZM1.9022 41.7452C1.57793 43.064 1.70838 43.9709 1.7174 44.0295C1.73934 44.171 1.80427 44.3024 1.90317 44.4059C2.00225 44.5095 2.13127 44.5808 2.2718 44.6091C2.91102 44.7392 4.75343 45.3581 5.59432 46.6428C5.79104 46.9408 5.92331 47.2768 5.98327 47.6288C6.04321 47.9808 6.02961 48.3419 5.94264 48.6882L5.86136 49.0317C5.84628 49.0869 5.82896 49.1415 5.81202 49.1962C5.86386 49.0288 5.91013 48.8595 5.94457 48.6873C6.03156 48.3409 6.04518 47.9798 5.98521 47.6278C5.92521 47.2759 5.79294 46.9398 5.59626 46.6419C4.75525 45.3572 2.91282 44.7382 2.27374 44.6081C2.13318 44.5799 2.00419 44.5095 1.90511 44.4059C1.80603 44.3023 1.74128 44.1702 1.71934 44.0286C1.70979 43.9663 1.57886 43.0606 1.9022 41.7452ZM34.2992 30.5605C35.195 30.9394 36.0541 31.3998 36.8661 31.9353C37.9143 32.651 38.8903 33.4676 39.7793 34.3735C39.2379 35.2362 38.6037 36.2848 38.3348 37.1745C38.0785 38.0119 37.8807 39.2917 38.3967 40.5387C38.9328 41.8363 40.1743 42.8568 41.7986 43.3387C42.3579 43.5047 42.9757 43.5285 43.5933 43.48C42.9763 43.5282 42.3592 43.5036 41.8005 43.3377C40.1763 42.8559 38.9347 41.8362 38.3986 40.5387C37.8825 39.2917 38.0805 38.012 38.3367 37.1745C38.6056 36.2848 39.2398 35.2362 39.7813 34.3735C38.8922 33.4676 37.9162 32.651 36.868 31.9353C36.0557 31.3996 35.1963 30.9386 34.3002 30.5595L34.2992 30.5605ZM45.661 41.69L44.8405 41.8787C44.8063 41.886 44.7716 41.8919 44.737 41.899C45.07 41.8305 45.3864 41.7561 45.6629 41.69C45.699 41.6813 45.7356 41.6755 45.7722 41.6726C45.7349 41.6755 45.6977 41.6812 45.661 41.69ZM6.97306 35.2995C6.88799 35.3214 6.80686 35.3576 6.73505 35.4098C6.63461 35.4756 4.30556 37.1774 3.10388 39.0196L2.94714 39.2664C2.82964 39.4585 2.72497 39.6495 2.62786 39.8362C2.76655 39.5694 2.92472 39.2959 3.10582 39.0187C4.30788 37.1761 6.63772 35.4738 6.73698 35.4088C6.80823 35.3571 6.88872 35.3213 6.97306 35.2995ZM12.4648 38.0502C12.3011 38.0776 12.1342 38.0995 11.9626 38.1101C12.0673 38.1036 12.1705 38.0949 12.2723 38.0821L12.4648 38.0502ZM7.18302 36.8117C8.0111 37.2778 8.89708 37.6335 9.81762 37.8692C10.0695 37.9336 10.3136 37.9843 10.55 38.024C10.3142 37.9844 10.0708 37.9334 9.81955 37.8692C8.89874 37.6334 8.01132 37.278 7.18302 36.8117ZM12.7164 36.5631C12.589 36.6055 12.4603 36.6421 12.3293 36.6675C12.0604 36.7092 11.7892 36.7268 11.5185 36.7237C11.7898 36.727 12.0617 36.7093 12.3313 36.6675C12.4615 36.6422 12.5897 36.6052 12.7164 36.5631ZM14.515 35.2356C14.8106 34.8508 15.0538 34.4088 15.2194 33.9256C15.7608 32.3284 15.438 30.6607 15.0752 29.5436C15.027 29.3957 15.0294 29.2362 15.082 29.0898C15.1346 28.9434 15.2341 28.8181 15.3655 28.7347C15.3844 28.7226 15.5087 28.6435 15.7138 28.5257C15.5074 28.6443 15.3822 28.7237 15.3635 28.7357L15.2716 28.8053C15.1856 28.8824 15.1196 28.98 15.08 29.0898L15.0501 29.202C15.0295 29.3156 15.0371 29.4337 15.0733 29.5445C15.436 30.6617 15.7588 32.3295 15.2174 33.9265L15.1188 34.1878C14.9618 34.5695 14.756 34.9216 14.515 35.2356ZM21.7764 28.2867C22.2473 28.2929 22.7181 28.3283 23.1861 28.3922C23.4228 29.5886 23.8256 30.7465 24.3839 31.8308C25.0246 33.0328 26.0011 33.9081 27.1327 34.2961C27.7886 34.5099 28.481 34.5901 29.1683 34.5312C29.2284 34.5272 29.288 34.5201 29.3473 34.5138C29.2887 34.52 29.2296 34.5263 29.1703 34.5303C28.4829 34.5892 27.7905 34.5089 27.1346 34.2952C26.0031 33.9071 25.0265 33.0318 24.3858 31.8299C23.8277 30.7457 23.4247 29.5885 23.188 28.3922C22.7195 28.3282 22.2478 28.293 21.7764 28.2867ZM33.8522 28.993C33.7978 29.0024 33.7439 29.0162 33.6926 29.0385C33.5308 29.1088 33.4017 29.238 33.3307 29.3994L33.1788 29.7245C32.9912 30.1052 32.7677 30.4876 32.5131 30.8527C32.8407 30.3832 33.1174 29.8853 33.3326 29.3994C33.4036 29.2379 33.5327 29.1088 33.6945 29.0385C33.7452 29.0165 33.7986 29.0025 33.8522 28.993ZM19.135 28.5673C19.2344 28.5418 19.3335 28.5163 19.433 28.4957C19.5349 28.4761 19.6374 28.4594 19.7397 28.4425C19.6382 28.4593 19.5361 28.4753 19.4349 28.4948C19.3348 28.5155 19.2351 28.5416 19.135 28.5673ZM21.8799 26.8964C20.9876 26.8854 20.0006 26.9604 19.1718 27.1325L18.8176 27.2147C18.5901 27.273 18.365 27.341 18.1452 27.415C18.479 27.3025 18.8254 27.2048 19.1737 27.1325C20.0019 26.9605 20.9881 26.8857 21.8799 26.8964Z" fill="#643BFF"/>
<path fill-rule="evenodd" clip-rule="evenodd" d="M54.1192 53.6352C54.3855 53.5741 54.6655 53.6191 54.899 53.761C55.1323 53.9029 55.3009 54.1304 55.3692 54.3948L55.3721 54.4064L55.4612 54.835C55.8801 56.9825 55.8892 59.1913 55.4863 61.3446C55.0565 63.6412 54.1669 65.8277 52.8711 67.7719L52.8701 67.7729C52.7743 67.9152 52.6451 68.032 52.4937 68.1125C52.3422 68.1929 52.1728 68.2337 52.0012 68.2334C51.811 68.2333 51.6244 68.1825 51.4614 68.0844C51.2982 67.9862 51.1645 67.8453 51.0753 67.6771C50.9861 67.5089 50.9442 67.3195 50.9544 67.1295C50.9645 66.9404 51.0257 66.7574 51.1314 66.6002L51.3404 66.278C52.3644 64.6537 53.0727 62.8492 53.4264 60.9595C53.8036 58.944 53.7696 56.8729 53.3268 54.8708L53.3258 54.864C53.2719 54.5962 53.3247 54.3176 53.4729 54.088C53.6211 53.8587 53.853 53.6964 54.1192 53.6352ZM51.382 67.5145C51.4417 67.627 51.5303 67.7217 51.6394 67.7874C51.7485 67.8531 51.8739 67.8879 52.0012 67.888C52.0427 67.8881 52.0836 67.8827 52.1241 67.8754C52.0843 67.8823 52.0439 67.8871 52.0032 67.887C51.8758 67.8869 51.7505 67.8521 51.6413 67.7864C51.5325 67.7208 51.4436 67.6268 51.384 67.5145C51.3764 67.5002 51.3702 67.4848 51.3636 67.47C51.3702 67.4846 51.3745 67.5004 51.382 67.5145ZM51.3007 67.1479L51.3017 67.2436C51.3035 67.2646 51.3097 67.2849 51.3133 67.3056C51.3043 67.2537 51.2999 67.2009 51.3027 67.1479C51.3037 67.1297 51.3061 67.1116 51.3085 67.0937C51.3061 67.1117 51.3017 67.1296 51.3007 67.1479ZM54.155 53.9865C53.9946 54.034 53.8553 54.1354 53.7641 54.2767L53.7012 54.3977C53.6514 54.523 53.6385 54.6612 53.6654 54.7953C54.1183 56.8431 54.1528 58.9619 53.767 61.0233L53.6896 61.4084C53.2797 63.3289 52.5108 65.1565 51.4207 66.7928L51.3723 66.875C51.3678 66.8842 51.3658 66.8946 51.3617 66.904C51.3787 66.8651 51.3987 66.8273 51.4227 66.7918C52.5854 65.0464 53.3831 63.0838 53.7689 61.0224C54.1547 58.961 54.1202 56.843 53.6673 54.7953C53.6313 54.616 53.6668 54.4294 53.766 54.2757C53.8569 54.1351 53.9955 54.0342 54.155 53.9865Z" fill="#643BFF"/>
<path fill-rule="evenodd" clip-rule="evenodd" d="M40.5359 2.02781C40.6758 2.0234 40.8156 2.04719 40.9462 2.09747C41.0768 2.14781 41.1966 2.22379 41.2974 2.32097C41.3982 2.41813 41.4784 2.53483 41.5335 2.66348C41.5885 2.79215 41.6179 2.93085 41.6186 3.07081C41.6193 3.21085 41.5911 3.34982 41.5373 3.47912C41.4835 3.60842 41.4049 3.72634 41.3051 3.82453C41.2085 3.91951 41.0936 3.99354 40.9684 4.04512L40.9694 4.04609C39.6031 4.65427 38.4248 5.61815 37.5588 6.83743C36.693 8.05663 36.1708 9.48634 36.0466 10.9766L36.0456 10.9756C36.0268 11.2389 35.9102 11.4858 35.7176 11.6664C35.524 11.8478 35.2689 11.9491 35.0036 11.9499H34.9397L34.9281 11.9489C34.6507 11.9296 34.3917 11.8007 34.2092 11.5909C34.0269 11.3812 33.9356 11.1077 33.9548 10.8305C34.2128 7.09102 36.6955 3.59678 40.1392 2.11973C40.2642 2.06357 40.399 2.03218 40.5359 2.02781ZM34.694 11.5319C34.7333 11.5512 34.7734 11.5687 34.8159 11.5803L34.9523 11.6035H35.0026L35.1342 11.5909C35.172 11.5836 35.2085 11.5715 35.2445 11.558C35.1681 11.5862 35.0873 11.6023 35.0045 11.6026H34.9542C34.8628 11.5962 34.7746 11.5715 34.694 11.5319ZM34.574 11.4584C34.5377 11.4304 34.5039 11.3987 34.4734 11.3636C34.3512 11.2231 34.2892 11.0394 34.3021 10.8537C34.5512 7.24424 36.9534 3.86394 40.2776 2.43805C40.3308 2.41359 40.3877 2.39825 40.445 2.38773C40.3868 2.39794 40.3295 2.41332 40.2757 2.43805C36.9514 3.86392 34.5492 7.24513 34.3002 10.8546L34.304 10.992C34.3215 11.1287 34.3797 11.2581 34.4714 11.3636C34.4943 11.3899 34.5187 11.4147 34.5449 11.4371L34.574 11.4584Z" fill="#643BFF"/>
<path fill-rule="evenodd" clip-rule="evenodd" d="M34.8352 0.88515C35.1118 0.915486 35.3655 1.05419 35.5396 1.2712C35.7136 1.48818 35.7944 1.7658 35.764 2.04232C35.7338 2.31794 35.5947 2.56975 35.379 2.74379C34.3783 3.56012 33.5556 4.57308 32.9601 5.71896C32.3651 6.86411 32.0093 8.11913 31.9162 9.40624C31.899 9.67152 31.782 9.92098 31.5882 10.1029C31.3942 10.2847 31.1381 10.3862 30.8722 10.3864H30.8141L30.8025 10.3854C30.5253 10.3673 30.2661 10.24 30.0827 10.0313C29.8993 9.82253 29.8066 9.549 29.8243 9.27176V9.26982C29.9382 7.69327 30.3728 6.15605 31.1015 4.75336C31.8302 3.35064 32.8377 2.1112 34.0621 1.11155L34.0641 1.10962C34.281 0.935547 34.5587 0.854867 34.8352 0.88515ZM30.5693 9.97032C30.6081 9.98876 30.6477 10.0056 30.6893 10.0168L30.8257 10.04H30.8722L31.0038 10.0274C31.0468 10.0191 31.089 10.0068 31.1295 9.99063L31.1315 9.98967C31.0502 10.0218 30.9631 10.039 30.8741 10.039H30.8277C30.7371 10.0331 30.6496 10.0089 30.5693 9.97032ZM34.2818 1.38053C33.0939 2.35031 32.1161 3.55219 31.4092 4.913C30.7023 6.27374 30.2802 7.7646 30.1697 9.29401C30.1579 9.47967 30.2211 9.66319 30.3439 9.80293C30.3733 9.83637 30.4069 9.86508 30.4416 9.89195C30.4072 9.86513 30.3751 9.83519 30.3458 9.80197C30.223 9.66226 30.1599 9.47963 30.1717 9.29401C30.2821 7.76446 30.7041 6.27289 31.4111 4.91204C32.118 3.55133 33.0959 2.34928 34.2837 1.37956C34.3162 1.35352 34.3512 1.3315 34.3872 1.31183C34.3506 1.33178 34.3148 1.35404 34.2818 1.38053Z" fill="#643BFF"/>
</svg>
