<svg width="80" height="81" viewBox="0 0 80 81" fill="none" xmlns="http://www.w3.org/2000/svg">
<path fill-rule="evenodd" clip-rule="evenodd" d="M41.9767 28.3334C43.3152 27.573 45.0392 27.7225 46.0671 28.8179L46.2004 28.9681C46.8377 29.7393 47.0541 30.7706 46.9756 31.995V31.9974C46.8083 34.4233 45.8162 36.8038 44.14 38.8822C44.1241 38.902 44.1075 38.9219 44.0916 38.9415C44.392 39.2899 44.7184 39.6157 45.0691 39.9142C45.4238 40.2123 45.804 40.479 46.2028 40.7136C46.3101 40.5618 46.4237 40.4121 46.5395 40.2667C47.892 38.573 49.7965 37.5381 51.7273 37.5171L52.1137 37.5256L52.1173 37.5268C52.7044 37.5651 53.2759 37.7327 53.7901 38.0186C54.2401 38.2689 54.6375 38.604 54.9589 39.0045L55.0922 39.1802L55.0958 39.1862C55.3333 39.5263 55.4862 39.9186 55.5416 40.3296C55.5968 40.7407 55.5535 41.1598 55.4144 41.5506L55.4095 41.5651L55.3066 41.7916C55.0654 42.278 54.7099 42.701 54.2685 43.021L54.2673 43.0198C52.2601 44.6092 49.6992 44.748 47.4056 44.1087C47.1341 44.7722 46.8998 45.451 46.7055 46.1412L46.703 46.1509C45.2796 50.9376 44.576 55.9079 44.6136 60.8979L44.6306 61.8972C44.6397 62.2523 44.5078 62.5974 44.2636 62.8553C44.019 63.1133 43.6814 63.2645 43.3261 63.2744H43.2897C42.941 63.2737 42.6057 63.1372 42.3558 62.8941C42.1372 62.681 41.9988 62.3999 41.961 62.0995L41.9501 61.9699C41.7972 56.3623 42.5341 50.7649 44.1328 45.3878C44.3552 44.6028 44.6241 43.8315 44.9334 43.0768C44.3682 42.7545 43.8324 42.3822 43.3333 41.9636L43.3309 41.9624C42.9335 41.6258 42.5597 41.2617 42.2105 40.8759C41.0226 41.9102 39.6984 42.7779 38.2739 43.4547L38.2751 43.4559C37.705 43.7278 37.1172 43.9602 36.5164 44.1536C38.3536 50.004 39.2841 56.1021 39.2708 62.2352V62.2448C39.2644 62.5942 39.1218 62.9281 38.8735 63.1739C38.6251 63.4196 38.2902 63.5588 37.9408 63.5615H37.936C37.7597 63.5615 37.5852 63.5262 37.4224 63.4585C37.2597 63.3909 37.1119 63.2915 36.9876 63.1666C36.8633 63.0417 36.7637 62.8935 36.6969 62.7306C36.6301 62.5675 36.5967 62.3919 36.5975 62.2158C36.6096 56.2809 35.6975 50.3799 33.8952 44.7253C33.8923 44.7161 33.8885 44.7066 33.8855 44.6974C31.8182 44.8947 29.6583 44.5072 27.9795 43.0053L27.9783 43.0041C27.0987 42.2127 26.0846 40.6448 26.7331 39.0057C27.1103 38.0486 27.9077 37.4799 28.7728 37.2288C29.6299 36.9803 30.5936 37.0273 31.4206 37.3245C33.522 38.0832 34.774 39.8646 35.5898 41.6354C36.1165 41.471 36.6312 41.2694 37.1293 41.031H37.1317C38.4136 40.4223 39.5959 39.6252 40.6443 38.6714C39.3332 36.2798 38.9484 33.5154 39.8098 31.1229C40.2552 29.8836 40.9897 28.8965 41.9767 28.3334ZM28.4252 38.0283C27.9316 38.2807 27.5284 38.6782 27.3096 39.2335C26.8064 40.5052 27.5799 41.8113 28.3925 42.5426C30.0292 44.0069 32.2055 44.3257 34.318 44.024C34.3771 44.1958 34.4327 44.3682 34.4863 44.5363C36.3084 50.253 37.2302 56.2194 37.2177 62.2194C37.2173 62.3138 37.2352 62.4082 37.271 62.4956C37.3069 62.5829 37.3606 62.6624 37.4273 62.7293C37.4939 62.7962 37.5727 62.8505 37.6598 62.8868C37.7471 62.9231 37.8414 62.9413 37.936 62.9413C37.9828 62.941 38.0288 62.9336 38.0741 62.9244C38.0296 62.9332 37.9843 62.9385 37.9384 62.9389C37.8438 62.9389 37.7496 62.9207 37.6622 62.8844C37.5749 62.8481 37.4964 62.794 37.4297 62.7269C37.3629 62.6598 37.3093 62.5807 37.2734 62.4932C37.2376 62.4056 37.2196 62.3116 37.2201 62.217C37.2326 56.217 36.3108 50.2518 34.4888 44.5351C34.4351 44.3666 34.3796 44.1937 34.3204 44.0215C32.2078 44.3233 30.0317 44.0048 28.3949 42.5402C27.5824 41.8088 26.809 40.5039 27.3121 39.2322C27.5307 38.677 27.9342 38.2796 28.4276 38.027L28.4252 38.0283ZM38.4399 62.7306C38.3756 62.7941 38.2996 62.8431 38.2182 62.8783C38.2561 62.8617 38.2938 62.8444 38.3284 62.8214L38.4374 62.733L38.4399 62.7306ZM42.2698 39.9893C41.7393 40.4873 41.1753 40.9467 40.5862 41.3701C41.1745 40.9473 41.7377 40.489 42.2674 39.9917C42.7074 40.5354 43.1981 41.0367 43.7318 41.4888C44.3426 42.0011 45.0117 42.441 45.7243 42.7982C45.3284 43.6958 44.9947 44.6207 44.7275 45.5647C43.1475 50.879 42.4192 56.4108 42.5702 61.9529C42.5757 62.1403 42.654 62.3187 42.7883 62.4496C42.889 62.5476 43.0157 62.6139 43.1516 62.6409L43.2909 62.6543H43.3091C43.3568 62.6529 43.4038 62.6465 43.4496 62.6361L43.452 62.6349C43.4063 62.6453 43.3591 62.6505 43.3115 62.6518H43.2934C43.1056 62.6514 42.9251 62.5781 42.7907 62.4471C42.6563 62.3161 42.5779 62.1381 42.5727 61.9505C42.4216 56.4081 43.1498 50.8768 44.7299 45.5623C44.9971 44.6181 45.3295 43.6935 45.7256 42.7957C45.013 42.4385 44.3449 41.9987 43.7343 41.4864C43.2004 41.0342 42.71 40.5331 42.2698 39.9893ZM53.1457 43.0319C51.3104 44.0779 49.0774 44.037 47.0555 43.3517L47.0543 43.3541C49.2204 44.088 51.629 44.0828 53.5309 42.7933L53.1457 43.0319ZM40.0048 41.7698C39.3672 42.1884 38.7021 42.5656 38.0111 42.8939C37.2794 43.2428 36.5173 43.5253 35.7351 43.7381C36.5165 43.5254 37.2778 43.2448 38.0087 42.8963C38.7006 42.5676 39.3663 42.189 40.0048 41.7698ZM29.2755 39.2262C29.4734 39.1583 29.6984 39.1245 29.9296 39.1244C30.2019 39.1226 30.4732 39.1677 30.7302 39.2577C32.1956 39.7853 33.1375 41.1616 33.7947 42.6419H33.7983C33.1411 41.1609 32.1988 39.783 30.7327 39.2553C30.4757 39.1652 30.2043 39.1202 29.932 39.122C29.6998 39.122 29.474 39.1577 29.2755 39.2262ZM53.9064 42.5159C53.8563 42.5559 53.8034 42.5918 53.7525 42.6298C53.8025 42.5924 53.8548 42.5577 53.9039 42.5184C53.9363 42.4949 53.9672 42.4693 53.9984 42.4445C53.968 42.4686 53.9379 42.4931 53.9064 42.5159ZM29.9296 39.7446C29.7115 39.7446 29.5261 39.7856 29.3966 39.8451C29.2743 39.9015 29.2345 39.9584 29.221 39.9881C29.203 40.0395 29.1929 40.1651 29.2961 40.3854C29.3975 40.6016 29.5722 40.8279 29.7661 41.0031C30.5797 41.7323 31.6406 42.0527 32.8148 42.0702C32.2305 41.0174 31.4947 40.1925 30.5195 39.8415C30.3315 39.7764 30.1334 39.7433 29.9344 39.7446H29.9296ZM51.7394 40.1855C50.7779 40.2036 49.687 40.7332 48.8288 41.6899C50.2286 41.9343 51.5839 41.7252 52.6188 40.8977L52.6382 40.882L52.6588 40.8686C52.7382 40.8148 52.8051 40.7447 52.8574 40.6652C52.7485 40.5345 52.6163 40.4248 52.4662 40.3442C52.305 40.2576 52.1276 40.2053 51.9453 40.1903L51.7394 40.1855ZM47.8719 39.7543C47.5716 40.0243 47.287 40.3249 47.024 40.6543L46.7018 41.0842C46.5993 41.2297 46.5002 41.3775 46.4063 41.5288L46.4075 41.53C46.5963 41.2256 46.8033 40.932 47.0264 40.6518C47.2888 40.3233 47.5724 40.0237 47.8719 39.7543ZM40.0581 35.0437C40.2417 36.3225 40.709 37.6064 41.428 38.7889C40.4027 39.786 39.2407 40.6309 37.9784 41.2986C39.2417 40.6307 40.4044 39.7855 41.4304 38.7877C40.7115 37.6055 40.2418 36.3223 40.0581 35.0437ZM51.9841 39.569C50.9689 39.5085 49.8766 39.9317 48.956 40.7075C49.8761 39.9331 50.9674 39.511 51.9817 39.5714C52.2538 39.5918 52.5189 39.6688 52.7593 39.7979C52.9997 39.9271 53.211 40.1056 53.3783 40.3212L53.4497 40.4386C53.4683 40.4807 53.4819 40.5262 53.4897 40.5719C53.505 40.663 53.4967 40.757 53.4667 40.8444C53.3932 40.9989 53.2905 41.1368 53.1663 41.2526C53.2919 41.1365 53.3952 40.9976 53.4691 40.842C53.4991 40.7544 53.5076 40.6608 53.4921 40.5695C53.4766 40.478 53.438 40.3917 53.3807 40.3187C53.2134 40.1031 53.0022 39.9246 52.7617 39.7955C52.5213 39.6664 52.2562 39.5894 51.9841 39.569ZM49.3702 38.7271C49.1229 38.85 48.8817 38.9928 48.6459 39.1511C48.8824 38.9922 49.1245 38.8491 49.3726 38.7259L49.3702 38.7271ZM43.7548 30.5403C43.6342 30.5402 43.5149 30.5635 43.4036 30.6081L43.2946 30.6602C42.8376 30.9149 42.5207 31.4873 42.3292 32.0229L42.328 32.0241C41.8001 33.491 41.9707 35.0504 42.5618 36.4791C43.5753 35.0034 44.1836 33.3959 44.2938 31.8012L44.306 31.5384C44.3145 31.0026 44.2123 30.7615 44.1291 30.6614C44.0843 30.6223 44.0336 30.59 43.9777 30.5694C43.9162 30.5467 43.8506 30.5373 43.7851 30.5403H43.7548ZM43.7682 35.6857C44.4229 34.4533 44.8247 33.1513 44.9152 31.8424C44.9708 31.0538 44.8581 30.5218 44.5712 30.2181C44.4627 30.1162 44.3342 30.0371 44.1945 29.9855C44.0552 29.9341 43.9068 29.9108 43.7585 29.9177C43.4915 29.9175 43.2285 29.9863 42.9954 30.1163C42.8951 30.1722 42.8033 30.2397 42.7156 30.3114C42.7663 30.2701 42.8171 30.2289 42.8718 30.1927L42.993 30.1188C43.2261 29.9887 43.4891 29.9199 43.7561 29.9201L43.8663 29.9213C43.9774 29.9272 44.0873 29.9493 44.1921 29.988C44.3317 30.0395 44.4604 30.1187 44.5688 30.2205C44.8553 30.5242 44.9682 31.0557 44.9128 31.8436L44.8777 32.2263C44.7423 33.4055 44.3586 34.5741 43.7682 35.6857ZM42.1645 28.9438C41.3933 29.4278 40.7829 30.2502 40.3936 31.3337L40.2507 31.7745C39.9976 32.6602 39.9212 33.5986 40.0024 34.5471C39.9074 33.4387 40.0314 32.3439 40.396 31.3312C40.7849 30.249 41.3944 29.428 42.1645 28.9438Z" fill="#643BFF"/>
<path d="M36.6115 76.9671C36.4763 78.078 36.7967 79.3575 37.765 79.9166C38.3094 80.2296 38.9649 80.2684 39.5925 80.2721C41.2349 80.2518 42.8748 80.1405 44.5048 79.9389C44.9529 79.8926 45.4195 79.8389 45.8009 79.5926C46.6508 79.0372 46.6785 77.8299 46.6545 76.6875C45.2454 77.3504 43.6438 77.4281 42.0885 77.5077C40.3313 77.5911 38.5112 77.6651 36.8689 77.0319L36.6115 76.9671Z" fill="#0FDAC2"/>
<path fill-rule="evenodd" clip-rule="evenodd" d="M37.2893 14.021C42.6208 13.2924 47.8209 13.8555 51.9285 15.6428C54.0227 16.5532 56.2216 17.6495 58.4147 19.6109C60.6073 21.572 62.7648 24.3718 64.8296 28.659C67.4682 34.1305 67.9022 40.463 66.0626 46.4826C64.5108 51.573 61.4666 55.9478 58.0247 57.8393C57.4332 58.163 56.8197 58.4431 56.2498 58.7014C56.2493 58.7016 56.2488 58.7015 56.2484 58.7011C56.2481 58.7007 56.2475 58.7006 56.247 58.7008C55.0931 59.2261 54.119 59.676 53.3657 60.3727C53.3653 60.373 53.3648 60.373 53.3644 60.3726C53.3641 60.3723 53.3635 60.3723 53.3632 60.3726C52.9816 60.7265 52.6503 61.1539 52.3652 61.6663C52.3414 61.709 52.3677 61.7619 52.4161 61.7692C52.4616 61.7761 52.5072 61.7829 52.5527 61.7903C52.553 61.7903 52.5531 61.7908 52.5529 61.791C52.5526 61.7913 52.5528 61.7917 52.5531 61.7917C52.7259 61.8185 52.892 61.878 53.0416 61.9685C53.1934 62.0602 53.3258 62.1814 53.4304 62.3246C53.535 62.4677 53.6107 62.6305 53.6521 62.803C53.6934 62.9753 53.6996 63.1539 53.6715 63.3287C53.6432 63.5038 53.5809 63.6722 53.4874 63.8229C53.3938 63.9735 53.2708 64.1039 53.1264 64.2069C52.982 64.3098 52.8184 64.3831 52.6455 64.4225C52.4749 64.4613 52.2984 64.4648 52.1259 64.4358C51.7524 64.3754 51.3982 64.6286 51.3431 65.003C51.284 65.4049 51.2361 65.8322 51.1993 66.2866C51.1575 66.7937 51.1273 67.322 51.0976 67.843C50.9837 69.8166 50.8652 71.9752 50.0595 74.0071C49.0984 76.4667 46.7184 78.8727 43.7646 78.8727C43.6369 78.8728 43.5092 78.8696 43.3819 78.8606L42.9991 78.8194C42.9776 78.8163 42.9562 78.8127 42.9349 78.8085C42.695 78.7614 42.4434 78.7547 42.2009 78.7855L42.0531 78.7964C39.3057 78.8404 36.1522 78.7517 33.9547 76.6707C31.8622 74.6883 31.5398 71.6682 31.4728 69.7241C31.4578 69.3173 31.4488 68.9044 31.4413 68.5092L31.4038 67.1962C31.3674 66.3446 31.2956 65.5502 31.1215 64.8026C31.0624 64.5489 30.8133 64.392 30.5558 64.4322C30.468 64.446 30.3803 64.4599 30.2927 64.4744C30.2922 64.4745 30.2916 64.4743 30.2913 64.4739C30.2909 64.4736 30.2903 64.4734 30.2898 64.4735C30.2224 64.4852 30.1543 64.4931 30.0859 64.4939H30.0799C29.7428 64.4946 29.4171 64.3672 29.169 64.139C28.9213 63.9109 28.7689 63.5978 28.7415 63.2621C28.7141 62.9263 28.8137 62.5923 29.0213 62.327C29.2773 62.0002 29.4607 61.4981 29.1832 61.1893C27.9698 59.8394 26.3964 58.8901 24.5808 57.8042C22.4888 56.5565 20.1632 55.1738 18.1902 52.8392C16.2066 50.4921 14.6095 47.2233 13.8612 42.2359C13.1468 37.4765 13.6207 33.0543 15.2929 29.1084C16.7968 25.5586 19.2217 22.4877 22.4829 19.9816L23.2545 19.4123C27.1775 16.6271 32.1206 14.7276 37.2893 14.021ZM42.4759 77.0219C42.487 77.0248 42.4985 77.0256 42.5098 77.028C42.4696 77.0194 42.4296 77.0097 42.3911 76.9953L42.4759 77.0219ZM45.8492 75.3734C46.1 75.1741 45.9431 74.8012 45.6228 74.8014C43.2851 74.8025 40.9482 74.8781 38.6156 75.0272C37.9145 75.0721 37.7896 75.8009 38.4811 75.9245C39.568 76.1188 40.7784 76.1329 42.0204 76.1135L42.0943 76.1124C42.2151 76.1108 42.3315 76.1581 42.4169 76.2435L42.4676 76.2942C42.4683 76.2948 42.469 76.2954 42.4698 76.2958C42.4706 76.2962 42.4713 76.2967 42.472 76.2973L42.4877 76.313C42.4927 76.3181 42.4974 76.3235 42.5016 76.3292L42.5158 76.3485C42.535 76.3723 42.56 76.3917 42.5873 76.4054C42.6144 76.4189 42.6442 76.426 42.6745 76.4272C42.7051 76.4283 42.736 76.4231 42.7641 76.4114C42.7924 76.3997 42.8184 76.3819 42.8392 76.3594C42.9776 76.2097 43.1813 76.1367 43.3831 76.1656C44.2313 76.288 45.0874 75.9787 45.8492 75.3734ZM48.0041 71.6094C48.0953 71.1914 47.776 70.7997 47.3483 70.7859C43.249 70.6538 39.1454 70.8115 35.068 71.257C34.6571 71.3019 34.3704 71.7123 34.4648 72.1147C34.5441 72.453 34.8607 72.6368 35.2067 72.6048C39.2319 72.2323 43.2742 72.075 47.3165 72.1346C47.6435 72.1395 47.9344 71.9289 48.0041 71.6094ZM48.4422 67.5302C48.4561 67.2855 48.2633 67.0778 48.0182 67.0745C43.6838 67.017 39.349 67.1448 35.0256 67.4595C34.5098 67.497 34.1211 67.9353 34.1315 68.4523V68.4644C34.1315 68.5661 34.2218 68.6444 34.3229 68.6329C38.8883 68.1142 43.4868 67.9464 48.0779 68.1299C48.258 68.1371 48.4121 67.9991 48.4238 67.8193C48.4265 67.7779 48.4292 67.7365 48.4315 67.6949C48.4316 67.6944 48.4318 67.6938 48.4322 67.6934C48.4326 67.6931 48.4328 67.6925 48.4329 67.692C48.4361 67.6384 48.4392 67.5844 48.4422 67.5302ZM48.7625 64.2194C48.7837 64.0947 48.6966 63.9757 48.5709 63.9622C43.7877 63.447 38.964 63.4429 34.1806 63.9503C33.9244 63.9774 33.7536 64.2268 33.8056 64.4792C33.8499 64.6947 34.0452 64.8464 34.2646 64.8296C39.0146 64.4665 43.7788 64.3238 48.542 64.4023C48.6509 64.404 48.7442 64.3268 48.7625 64.2194ZM29.6681 63.7466C29.6734 63.7503 29.6796 63.7527 29.685 63.7563C29.6516 63.7345 29.6191 63.7109 29.5893 63.6836L29.6681 63.7466ZM29.7395 62.5159C29.7322 62.5198 29.7249 62.5239 29.7177 62.5281C29.7539 62.5073 29.7922 62.4902 29.8316 62.476L29.7395 62.5159ZM50.8699 18.1041C46.9885 16.4157 42.1641 15.9829 37.3595 16.7003C32.5574 17.4174 27.8221 19.2751 24.1266 22.1122C19.8085 25.4336 14.9754 31.5304 16.5235 41.8411C17.1941 46.3065 18.5621 49.1061 20.2239 51.0829C21.8965 53.0724 23.8999 54.2739 25.9653 55.5064C26.2743 55.6908 26.5837 55.8751 26.8917 56.0622C31.0093 58.5632 35.7711 60.9442 40.5885 60.8939C42.381 60.8752 44.1741 60.925 45.9638 61.0432C48.0909 61.1837 49.9916 59.8598 51.5554 58.411L51.7638 58.2257C52.8167 57.3229 54.0502 56.7668 55.1504 56.2647C55.7277 56.0021 56.2441 55.7671 56.7444 55.4931L56.9964 55.3477C59.6068 53.7728 62.1807 50.0573 63.5117 45.7037C65.1056 40.4833 64.7933 35.0304 62.6481 30.2833L62.4349 29.8266C60.5286 25.8752 58.6171 23.3809 56.7105 21.6628C54.8047 19.9455 52.8726 18.9755 50.8699 18.1041ZM50.9256 60.0995C50.8376 60.2302 50.7542 60.3632 50.6748 60.498C50.755 60.362 50.839 60.2277 50.928 60.0959L50.9256 60.0995ZM52.694 60.1637C52.6855 60.1726 52.6782 60.1826 52.6698 60.1915C52.6825 60.178 52.6945 60.1638 52.7073 60.1504L52.694 60.1637ZM65.3092 31.4594C65.074 30.7719 64.8071 30.0942 64.5061 29.4293L64.7278 29.9356C64.9404 30.4371 65.1334 30.9456 65.3092 31.4594ZM19.2646 26.2256C18.8917 26.7477 18.5346 27.2988 18.2011 27.8814C18.3122 27.6874 18.4268 27.4968 18.5427 27.3096C18.7747 26.9349 19.016 26.5737 19.2646 26.2256ZM22.0711 23.0412C21.9315 23.1712 21.7931 23.3049 21.6544 23.4409C21.932 23.1687 22.2111 22.9079 22.4914 22.6596L22.0711 23.0412ZM21.7404 21.3854C21.5574 21.5435 21.3781 21.7042 21.2014 21.8663C21.5467 21.5495 21.9039 21.24 22.2734 20.9384L21.7404 21.3854ZM32.7277 17.1085C31.538 17.4692 30.3715 17.9005 29.2429 18.3984C29.8074 18.1494 30.3813 17.917 30.9629 17.702C31.5446 17.4869 32.1326 17.2889 32.7277 17.1085ZM39.3302 14.4255C39.0058 14.4505 38.6803 14.4803 38.354 14.5152C38.0279 14.55 37.7004 14.5903 37.3728 14.6351C36.6959 14.7276 36.023 14.8408 35.3561 14.9742C34.689 15.1077 34.0278 15.2616 33.3745 15.4345L34.3605 15.1898C35.3511 14.9598 36.3573 14.7739 37.3728 14.6351C38.3559 14.5007 39.3338 14.4115 40.2992 14.3662L39.3302 14.4255ZM41.261 14.3359L42.213 14.3347C42.8446 14.3435 43.4689 14.3719 44.0844 14.4195C43.1613 14.3481 42.2181 14.32 41.261 14.3359Z" fill="#643BFF"/>
<path fill-rule="evenodd" clip-rule="evenodd" d="M74.9945 58.3558C74.9979 58.3531 75.0012 58.3504 75.0045 58.3476C75.0091 58.3437 75.0136 58.3398 75.0181 58.3358C75.0104 58.3427 75.0026 58.3494 74.9945 58.3558Z" fill="#643BFF"/>
<path fill-rule="evenodd" clip-rule="evenodd" d="M74.9945 58.3558L75.0045 58.3476C75.0091 58.3437 75.0136 58.3398 75.0181 58.3358C75.0104 58.3427 75.0026 58.3494 74.9945 58.3558Z" fill="#643BFF"/>
<path fill-rule="evenodd" clip-rule="evenodd" d="M68.0818 52.7823C68.2578 52.7447 68.4404 52.7433 68.6171 52.7775C68.7865 52.8102 68.9474 52.8762 69.0919 52.9701L70.6072 53.9027C72.1287 54.8309 73.6683 55.7428 75.2124 56.6256C75.4697 56.7722 75.6711 56.9992 75.7853 57.2724C75.8996 57.5457 75.9198 57.8499 75.8435 58.136C75.7671 58.422 75.5977 58.6744 75.3626 58.8543C75.3166 58.8895 75.2683 58.9213 75.2185 58.95C75.1861 58.9686 75.1652 59.0025 75.1652 59.0398C75.1652 59.0952 75.1202 59.14 75.0648 59.1398L74.5438 59.1378C74.3108 59.137 74.082 59.0746 73.88 58.9585C71.7996 57.7659 69.7128 56.518 67.6748 55.2436C67.5274 55.1553 67.397 55.0391 67.2932 54.902C67.1848 54.7586 67.1069 54.5943 67.0631 54.4199C67.0193 54.2454 67.011 54.0635 67.0389 53.8858C67.0667 53.7083 67.1293 53.538 67.2242 53.3855C67.3193 53.2327 67.4451 53.1002 67.5924 52.9967C67.7396 52.8934 67.9059 52.82 68.0818 52.7823ZM74.6565 58.5006C74.6491 58.5018 74.642 58.5046 74.6347 58.5055L74.6084 58.5069C74.5874 58.5091 74.5662 58.5104 74.545 58.5103L74.6084 58.5069C74.6245 58.5052 74.6406 58.5031 74.6565 58.5006ZM72.3054 55.6469C72.1425 55.5501 71.9787 55.4547 71.8161 55.3574L71.5453 55.1938L71.529 55.184C71.1127 54.9348 70.6973 54.6843 70.2838 54.432L71.529 55.184L71.5453 55.1938C71.7984 55.3453 72.0518 55.4963 72.3054 55.6469ZM75.0707 58.2838C75.0646 58.2903 75.0601 58.2982 75.0537 58.3044L75.0302 58.3246L75.0255 58.329L75.0181 58.3358L75.0045 58.3476L74.9945 58.3558C75.0026 58.3494 75.0104 58.3427 75.0181 58.3358L75.0255 58.329L75.0302 58.3246C75.0442 58.3114 75.0576 58.2977 75.0707 58.2838ZM75.1837 57.453C75.1942 57.4722 75.2039 57.4919 75.2124 57.5123L75.1837 57.453L75.1806 57.4473L75.1754 57.4382L75.1659 57.422C75.1684 57.4255 75.1715 57.4286 75.1737 57.4323L75.1806 57.4473L75.1837 57.453ZM75.2628 57.8738L75.2628 57.879C75.2627 57.8823 75.2625 57.8856 75.2621 57.889L75.2587 57.9051C75.255 57.929 75.2502 57.9528 75.2439 57.9762L75.2587 57.9051C75.2603 57.8947 75.2617 57.8842 75.2628 57.8738ZM74.9945 58.3558L75.0045 58.3476L74.9859 58.3626L74.9945 58.3558Z" fill="#0FDAC2"/>
<path fill-rule="evenodd" clip-rule="evenodd" d="M78.6439 33.7462C78.9991 33.7432 79.3413 33.8825 79.5947 34.1314C79.8481 34.3805 79.9924 34.7198 79.9957 35.075C79.9989 35.4305 79.8608 35.7734 79.6117 36.027C79.3939 36.2487 79.1064 36.3862 78.8002 36.4195L78.6669 36.428L71.7434 36.4837H71.7252L71.707 36.4825C71.3639 36.465 71.0402 36.3161 70.8035 36.067C70.5669 35.818 70.4353 35.4876 70.4352 35.144C70.4352 34.8003 70.5667 34.469 70.8035 34.2198C71.0402 33.9708 71.3639 33.8219 71.707 33.8044H71.7337L78.6439 33.7462ZM78.6621 35.8078L78.7424 35.8014C78.7606 35.7988 78.7786 35.7956 78.7965 35.792C78.7871 35.7939 78.7781 35.7978 78.7687 35.7993L78.7424 35.8014C78.7159 35.8052 78.6891 35.8075 78.6621 35.8078ZM79.1696 35.5922L79.2188 35.5344C79.2299 35.5196 79.2404 35.5045 79.2507 35.4892C79.2461 35.4961 79.2435 35.5043 79.2386 35.511L79.2188 35.5344C79.2036 35.5545 79.1874 35.574 79.1696 35.5922ZM71.1026 35.3984C71.1001 35.3918 71.0965 35.3857 71.0942 35.379L71.0909 35.366C71.0813 35.3381 71.0731 35.3099 71.0675 35.2809L71.0909 35.366L71.0951 35.378L71.1026 35.3984ZM79.3597 34.943C79.3619 34.9535 79.3653 34.9638 79.367 34.9745L79.3685 34.9927C79.3727 35.0219 79.3752 35.0514 79.3755 35.081L79.3685 34.9927C79.3661 34.976 79.3631 34.9594 79.3597 34.943ZM79.0618 34.4936C79.0673 34.4974 79.0733 34.5005 79.0787 34.5045L79.0874 34.5118C79.1127 34.5307 79.1371 34.5511 79.1599 34.5735L79.0874 34.5118C79.0789 34.5056 79.0704 34.4995 79.0618 34.4936Z" fill="#0FDAC2"/>
<path fill-rule="evenodd" clip-rule="evenodd" d="M71.4006 11.011C71.7513 11.0402 72.0772 11.2057 72.3066 11.4725C72.5361 11.7395 72.6515 12.0866 72.6276 12.4379C72.6037 12.7891 72.4418 13.1165 72.1782 13.3499L72.1722 13.356C69.865 15.34 67.4758 17.2942 65.0742 19.1664L65.073 19.1676C64.8386 19.3498 64.5501 19.4479 64.2531 19.4486C64.2522 19.4486 64.2514 19.4488 64.2506 19.4492C64.2498 19.4496 64.2489 19.4498 64.248 19.4498C63.97 19.4501 63.6985 19.3637 63.4717 19.2027C63.2436 19.0407 63.0721 18.8108 62.9812 18.5462C62.8902 18.2817 62.8841 17.9954 62.9642 17.7274C63.0444 17.4594 63.2068 17.2226 63.4281 17.0515C65.795 15.2067 68.1496 13.2791 70.4243 11.3235L70.4316 11.3175C70.7019 11.0921 71.0499 10.982 71.4006 11.011ZM66.3254 17.3883C66.2291 17.4651 66.1336 17.543 66.0372 17.6196L65.8159 17.7934L65.7782 17.8233C65.4168 18.1097 65.0551 18.3945 64.6927 18.677L65.7782 17.8233L65.8159 17.7934C65.9858 17.6587 66.1557 17.5236 66.3254 17.3883ZM63.5287 18.1126V18.0981L63.5288 18.0965C63.5292 18.0691 63.531 18.0417 63.5347 18.0145L63.5288 18.0965L63.5287 18.1126ZM71.856 12.7903C71.8509 12.7969 71.8469 12.8045 71.8415 12.8109L71.8265 12.8262C71.8082 12.8472 71.7887 12.8673 71.7676 12.886L71.8265 12.8262C71.8367 12.8145 71.8465 12.8025 71.856 12.7903ZM72.0087 12.3955V12.3138C72.0076 12.2961 72.0059 12.2785 72.0038 12.261C72.005 12.2708 72.0079 12.2803 72.0087 12.2901V12.3138C72.0103 12.3409 72.0105 12.3681 72.0087 12.3955ZM71.8367 11.8771L71.7794 11.8189C71.7669 11.8076 71.754 11.7967 71.741 11.7862C71.7479 11.7918 71.756 11.7961 71.7628 11.802L71.7794 11.8189C71.7996 11.8371 71.8189 11.8564 71.8367 11.8771Z" fill="#0FDAC2"/>
<path d="M44.151 1.02301C44.4886 1.0331 44.7558 1.31275 44.7518 1.65044L44.6513 9.05726V9.05968C44.6449 9.41099 44.501 9.74616 44.2503 9.99235C43.9997 10.2384 43.6617 10.3764 43.3104 10.3763H43.3031C43.1273 10.3741 42.9536 10.3366 42.792 10.2673C42.6305 10.1979 42.4836 10.0976 42.3608 9.97176C42.238 9.84578 42.1402 9.69663 42.0749 9.53328C42.0097 9.36978 41.9782 9.19447 41.9805 9.0185L42.0702 2.34195C42.0802 1.59791 42.6862 1 43.4303 1L44.151 1.02301Z" fill="#0FDAC2"/>
<path fill-rule="evenodd" clip-rule="evenodd" d="M16.073 9.38066C16.3783 9.19808 16.7441 9.1437 17.0892 9.23047C17.4338 9.31719 17.7297 9.53779 17.9124 9.84263C17.9127 9.84312 17.913 9.84356 17.9134 9.84397C17.9139 9.84437 17.9142 9.84482 17.9145 9.84532L21.6169 16.0716L21.6181 16.0741C21.7379 16.2774 21.8027 16.509 21.8046 16.7451C21.8064 16.981 21.7455 17.2135 21.629 17.4185C21.5124 17.6235 21.3443 17.7948 21.1408 17.9139C21.1086 17.9328 21.0863 17.964 21.0863 18.0013C21.0863 18.0568 21.0414 18.1018 20.9859 18.1019L20.4674 18.1029C20.2341 18.1033 20.0039 18.0428 19.8012 17.9273C19.5994 17.8122 19.4314 17.6462 19.3131 17.4464L15.609 11.2193C15.4276 10.9144 15.3735 10.5485 15.4601 10.2043C15.5469 9.85946 15.7677 9.56327 16.073 9.38066ZM16.1917 10.0917C16.1962 10.0857 16.2002 10.0793 16.205 10.0735L16.2129 10.0652C16.2329 10.0412 16.2543 10.0183 16.2777 9.99719L16.2129 10.0652C16.2056 10.0739 16.1986 10.0827 16.1917 10.0917ZM16.0437 10.592C16.0441 10.5972 16.0442 10.6024 16.0447 10.6075L16.0439 10.6016L16.0437 10.592C16.0408 10.5602 16.0399 10.5283 16.0415 10.4962L16.0437 10.592Z" fill="#0FDAC2"/>
<path fill-rule="evenodd" clip-rule="evenodd" d="M2.39218 31.71L2.38903 31.7094L2.38578 31.7089C2.3388 31.7061 2.29175 31.7087 2.24528 31.715M2.39218 31.71C2.4372 31.713 2.48215 31.7202 2.52629 31.7319L2.39218 31.71Z" fill="#643BFF"/>
<path fill-rule="evenodd" clip-rule="evenodd" d="M1.66872 31.2692C1.97583 31.0912 2.3407 31.0424 2.6838 31.1333C2.68457 31.1335 2.68537 31.1336 2.68617 31.1336C2.68697 31.1336 2.68778 31.1337 2.68856 31.1339L8.88295 32.799C9.19763 32.8825 9.47196 33.0786 9.65331 33.349C9.83445 33.6192 9.91096 33.9457 9.86891 34.2683C9.82671 34.5911 9.66909 34.8882 9.42438 35.1028C9.17985 35.3173 8.86541 35.4348 8.54016 35.4347C8.42456 35.4348 8.30926 35.4209 8.19749 35.3915C8.19661 35.3912 8.19576 35.3909 8.19494 35.3905C8.19415 35.3901 8.19331 35.3898 8.19245 35.3896L1.99576 33.7232C1.65242 33.6317 1.3588 33.408 1.18058 33.1006C1.00256 32.7933 0.953731 32.4277 1.04492 32.0844C1.13629 31.7409 1.36118 31.4476 1.66872 31.2692ZM9.25844 34.0684C9.25873 34.0757 9.26079 34.0829 9.26086 34.0902L9.2593 34.1154C9.25918 34.1397 9.25797 34.1641 9.2548 34.1884L9.2593 34.1154C9.25939 34.0997 9.25902 34.0841 9.25844 34.0684ZM1.62511 32.5071C1.62445 32.5011 1.6232 32.4951 1.62269 32.489L1.62259 32.4804C1.62008 32.4482 1.61946 32.4159 1.62148 32.3836L1.62259 32.4804C1.62329 32.4893 1.62414 32.4982 1.62511 32.5071ZM2.24528 31.715C2.29175 31.7087 2.3388 31.7061 2.38578 31.7089L2.38903 31.7094L2.39218 31.71C2.4372 31.713 2.48215 31.7202 2.52629 31.7319L2.39218 31.71C2.34303 31.7067 2.29376 31.7085 2.24528 31.715ZM9.08762 33.6277C9.1058 33.6487 9.12292 33.6709 9.13852 33.6942L9.08762 33.6277C9.08189 33.621 9.07634 33.6142 9.07041 33.6078C9.07341 33.6107 9.07641 33.6135 9.07917 33.6166L9.08762 33.6277Z" fill="#0FDAC2"/>
<path fill-rule="evenodd" clip-rule="evenodd" d="M6.31056 55.9699L6.3087 55.9712C6.11975 56.1049 5.93054 56.2383 5.74189 56.3725" fill="#643BFF"/>
<path fill-rule="evenodd" clip-rule="evenodd" d="M7.70924 52.4904C8.00262 52.3006 8.35874 52.2339 8.70126 52.3027C9.04391 52.3716 9.34699 52.5713 9.54429 52.8598C9.74145 53.1483 9.81754 53.5028 9.75747 53.847C9.6973 54.1912 9.50538 54.4988 9.2221 54.7034L9.20877 54.713C7.31225 56.0045 5.40799 57.3568 3.5498 58.7162L3.54253 58.7223C3.31286 58.8848 3.03773 58.9711 2.75643 58.9694H2.754C2.47397 58.9667 2.20123 58.8767 1.97517 58.7114C1.7492 58.5461 1.5805 58.3137 1.49309 58.0476C1.40571 57.7816 1.40432 57.4948 1.48824 57.2276C1.57225 56.9603 1.73791 56.726 1.96184 56.5578L1.9679 56.5529C3.84687 55.1771 5.77391 53.8118 7.69592 52.4989L7.70924 52.4904ZM8.85872 54.2007L8.92162 54.1473C8.93155 54.1378 8.94124 54.1281 8.95078 54.1183C8.94639 54.1228 8.94318 54.1285 8.93866 54.1329L8.92162 54.1473C8.90181 54.1663 8.88105 54.1846 8.85872 54.2007ZM9.147 53.7404L9.15595 53.6549C9.15658 53.6402 9.1568 53.6254 9.15669 53.6108C9.15675 53.6193 9.15814 53.6278 9.1579 53.6362L9.15595 53.6549C9.15473 53.6834 9.15195 53.7121 9.147 53.7404ZM9.03193 53.2099L8.97759 53.1414C8.96885 53.1317 8.95989 53.1223 8.95078 53.113C8.95576 53.1181 8.96168 53.1223 8.96652 53.1275L8.97759 53.1414C8.99703 53.163 9.01538 53.1857 9.03193 53.2099ZM8.83571 53.0161C8.79722 52.9905 8.75625 52.9684 8.71337 52.9507L8.83571 53.0161ZM6.3087 55.9712L6.31056 55.9699C6.68372 55.706 7.05747 55.4433 7.43187 55.183L6.31056 55.9699L6.3087 55.9712C6.11975 56.1049 5.93054 56.2383 5.74189 56.3725C5.82987 56.3093 5.91785 56.2461 6.00622 56.1835L6.3087 55.9712Z" fill="#0FDAC2"/>
<path fill-rule="evenodd" clip-rule="evenodd" d="M62.2077 37.375C62.3833 37.3802 62.5573 37.4206 62.7176 37.4925C62.8778 37.5645 63.0235 37.6676 63.144 37.7953C63.2644 37.9232 63.3588 38.0744 63.4214 38.2386C63.4838 38.403 63.5125 38.5788 63.5074 38.7546V38.7631C63.3343 42.7515 62.0369 46.6098 59.7646 49.8921C57.4921 53.1745 54.3369 55.7476 50.6644 57.3135L50.6535 57.3183C50.4947 57.3823 50.3246 57.4153 50.1533 57.4164H50.1484C49.8384 57.4159 49.5376 57.3082 49.2981 57.1112C49.2528 57.0738 49.2095 57.0326 49.1698 56.9901C49.0878 57.0185 49.0039 57.0421 48.9178 57.0542L48.7313 57.0676C48.4411 57.0677 48.1579 56.974 47.9258 56.7999C47.6936 56.6254 47.5233 56.3788 47.4425 56.0998C47.362 55.821 47.3747 55.5232 47.4776 55.2519C47.5809 54.9803 47.7698 54.7492 48.0154 54.5942C52.7506 51.6152 56.0415 46.2957 56.5947 40.7278L56.596 40.7144C56.6382 40.3667 56.8144 40.0481 57.0877 39.829C57.3611 39.61 57.7106 39.5074 58.0591 39.5419C58.4077 39.5766 58.7293 39.7471 58.9543 40.0155C59.179 40.2841 59.2902 40.6305 59.2631 40.9797L59.2619 40.993C58.9308 44.3271 57.7467 47.5767 55.9177 50.4081C58.8513 47.2128 60.7049 42.9911 60.8281 38.6759L60.8378 38.5427C60.8774 38.2371 61.0222 37.9528 61.2484 37.7396C61.3764 37.6189 61.5272 37.5248 61.6917 37.4622C61.8561 37.3997 62.0319 37.3699 62.2077 37.375ZM48.1051 55.3718C48.0869 55.4037 48.0698 55.4365 48.0566 55.4711C48.0457 55.4998 48.0395 55.53 48.0324 55.5596C48.0395 55.5303 48.047 55.5008 48.0578 55.4724C48.0711 55.4375 48.0868 55.4039 48.1051 55.3718ZM56.1732 51.0404C54.7531 52.5406 53.0988 53.8117 51.2737 54.7589L51.2713 54.7613C53.0978 53.8138 54.7523 52.5421 56.1732 51.0404ZM56.4445 44.5069C56.3355 44.8531 56.2169 45.1965 56.0884 45.5364L56.2738 45.0253C56.3333 44.8533 56.3899 44.6804 56.4445 44.5069ZM56.9775 42.3993C56.8753 42.9329 56.7494 43.4624 56.6008 43.986L56.7413 43.4616C56.8302 43.11 56.9093 42.755 56.9775 42.3993ZM57.2113 40.7883C57.1755 41.1483 57.1295 41.5078 57.072 41.8651L57.1495 41.3285C57.1728 41.1492 57.1934 40.9682 57.2113 40.7883ZM57.4765 40.3135L57.376 40.4116C57.3507 40.4416 57.3282 40.4738 57.3082 40.5073C57.3518 40.4341 57.4088 40.3678 57.4765 40.3135ZM62.6922 38.2217C62.7571 38.2905 62.8076 38.3718 62.8412 38.4603C62.8631 38.5181 62.8758 38.5784 62.8824 38.6396C62.8808 38.6248 62.8812 38.6093 62.8787 38.5947L62.8412 38.4603C62.8243 38.4161 62.8032 38.3718 62.7782 38.3319L62.6922 38.2217ZM61.9121 38.0412L61.785 38.1042C61.7453 38.1291 61.7078 38.1579 61.6735 38.1902C61.6387 38.223 61.6076 38.2594 61.5803 38.298L61.6735 38.1902C61.7424 38.1253 61.8237 38.0748 61.9121 38.0412ZM62.33 38.0133C62.3757 38.0239 62.4203 38.0389 62.4633 38.0582C62.4202 38.0388 62.3746 38.0226 62.3288 38.0121L62.1895 37.9952L62.33 38.0133Z" fill="#0FDAC2"/>
<path fill-rule="evenodd" clip-rule="evenodd" d="M27.1928 22.0454C27.5393 22.0962 27.8527 22.2816 28.0649 22.5602C28.2768 22.8389 28.371 23.1901 28.3277 23.5376C28.2842 23.8853 28.1065 24.2025 27.8323 24.4206L27.825 24.4255C25.7029 26.0622 23.9341 28.1129 22.6251 30.4515C21.3164 32.7899 20.4941 35.3694 20.2087 38.0339C20.1746 38.3626 20.0202 38.6674 19.775 38.8891C19.529 39.1114 19.2091 39.2342 18.8775 39.2343H18.7746L18.7431 39.2306C18.3898 39.1948 18.0645 39.0208 17.8395 38.7461C17.6147 38.4714 17.5069 38.1183 17.5415 37.765L17.5427 37.759C17.8666 34.7314 18.8004 31.8004 20.2874 29.1433C21.7746 26.4861 23.7844 24.1567 26.1959 22.2973L26.2092 22.2876C26.4925 22.0816 26.8462 21.9947 27.1928 22.0454ZM20.3855 30.2807C20.5271 30 20.675 29.7222 20.8288 29.4474L20.8276 29.4461L20.5636 29.9331C20.5029 30.0482 20.4441 30.1646 20.3855 30.2807ZM27.5719 22.9356C27.6266 23.0075 27.665 23.089 27.6894 23.1743C27.6777 23.1334 27.6634 23.0927 27.6446 23.0544L27.5719 22.9356ZM27.1031 22.6595C27.1914 22.6725 27.2751 22.7025 27.3514 22.7455C27.3154 22.7252 27.2779 22.706 27.2388 22.6922L27.1031 22.6595Z" fill="#0FDAC2"/>
<path d="M39.7334 80.9985H39.5945C38.9113 80.9985 38.1225 80.9559 37.4133 80.5467C36.0654 79.7672 35.7581 78.0878 35.9043 76.8861C35.9163 76.785 35.9497 76.6875 36.0024 76.6003C36.0551 76.5132 36.1258 76.4383 36.2098 76.3806C36.2941 76.3229 36.3896 76.2836 36.4902 76.2654C36.5907 76.2472 36.6939 76.2505 36.7931 76.2751L37.0486 76.3399C37.0771 76.346 37.105 76.3547 37.1319 76.3658C38.6613 76.9546 40.4648 76.8694 42.059 76.7954C43.5291 76.725 45.0511 76.6528 46.3509 76.0418C46.4593 75.9904 46.5789 75.9671 46.6986 75.9738C46.8184 75.9805 46.9346 76.0171 47.0366 76.0803C47.1386 76.1434 47.2231 76.2311 47.2825 76.3353C47.342 76.4395 47.3743 76.5569 47.3767 76.6769C47.4008 77.6952 47.4396 79.3968 46.1972 80.1949C45.6658 80.5411 45.0678 80.6041 44.5863 80.6541C42.9758 80.8537 41.3559 80.9687 39.7334 80.9985ZM37.3467 77.9489C37.4337 78.5044 37.68 79.0376 38.1336 79.2987C38.5373 79.532 39.1038 79.5542 39.6038 79.5579C41.2194 79.5361 42.8327 79.4261 44.4364 79.2283C44.8067 79.1913 45.177 79.1524 45.414 78.9951C45.7473 78.7784 45.8769 78.3044 45.9214 77.7397C44.6549 78.11 43.3291 78.1767 42.1275 78.2341C40.624 78.3044 38.9465 78.384 37.3467 77.9489Z" fill="#0FDAC2"/>
</svg>
