<svg width="80" height="81" viewBox="0 0 80 81" fill="none" xmlns="http://www.w3.org/2000/svg">
<path fill-rule="evenodd" clip-rule="evenodd" d="M39.7158 19.165C42.7472 18.6125 45.8526 18.6013 48.8879 19.1323L48.8891 19.1311C52.9908 19.8404 56.7833 21.7736 59.7674 24.6764L60.465 25.3789C63.765 28.8223 65.9611 32.9289 66.8566 37.3282L66.945 37.7849C67.7965 42.5408 67.133 47.4451 65.0498 51.8042L65.051 51.8055C63.0165 56.128 59.403 59.814 54.8774 62.1958L54.8762 62.1946C51.4083 64.0347 47.5469 65.0087 43.6212 65.0302H43.6188C42.5597 65.0314 41.5013 64.9553 40.4533 64.8025C36.2452 64.1868 32.1117 62.4182 28.4947 59.6933C26.5864 58.2552 25.1333 56.7784 24.0782 55.1789C23.0234 53.5798 22.2656 51.7512 21.5908 49.2484C19.8503 42.8015 20.5811 36.4197 23.704 31.296C25.9241 27.6525 28.1992 24.9252 30.7944 22.9539C33.3956 20.9782 36.2902 19.7846 39.7158 19.165ZM57.8299 26.6641C51.6117 20.6225 43.4607 21.2992 40.1953 21.8892L40.1941 21.8868C37.1793 22.4323 34.6692 23.4834 32.411 25.2106C30.1443 26.9443 28.1024 29.3809 26.0594 32.735C23.3586 37.1687 22.699 42.7768 24.2538 48.5289C24.8645 50.7894 25.5227 52.3578 26.3791 53.6575C27.1279 54.7939 28.1641 55.8991 29.541 57.0091L30.1525 57.4852L30.7677 57.9358C33.8689 60.1332 37.344 61.5541 40.8408 62.0699C49.5391 63.3424 58.8788 58.4084 62.5382 50.6305C66.3979 42.4295 64.6121 33.2553 57.8299 26.6641ZM29.7795 57.9818C32.2774 59.8659 35.0397 61.2503 37.8847 62.0638L37.1751 61.8482C34.5811 61.0154 32.0691 59.7088 29.7795 57.9818ZM63.0989 50.8946L62.9172 51.2689C62.827 51.4497 62.7312 51.6278 62.6351 51.8055C62.7968 51.5063 62.9539 51.2026 63.0989 50.8946ZM23.1808 46.58C23.307 47.2811 23.4647 47.9864 23.6555 48.6925C23.733 48.9792 23.8121 49.2553 23.8917 49.5222L23.6555 48.69C23.4649 47.9846 23.307 47.2806 23.1808 46.58ZM66.3347 37.8975C66.4877 38.7525 66.5904 39.6122 66.6435 40.4727C66.5904 39.6115 66.4879 38.7507 66.3347 37.8951C66.282 37.6064 66.2232 37.3189 66.1591 37.0327C66.2233 37.3195 66.2819 37.6082 66.3347 37.8975ZM22.384 35.6021C22.8522 34.2079 23.469 32.8745 24.2332 31.6207L23.9559 32.0882C23.3179 33.2042 22.7942 34.38 22.384 35.6021ZM60.6672 26.5127C60.4559 26.2754 60.2398 26.0403 60.0181 25.8089L59.3351 25.1221C59.7996 25.5731 60.2439 26.0376 60.6672 26.5127ZM39.8272 19.7743C39.4092 19.8499 38.9995 19.9342 38.598 20.0275C37.4596 20.2921 36.3862 20.632 35.3647 21.051C36.7465 20.4843 38.2242 20.0642 39.8272 19.7743ZM51.0023 20.2588C50.5161 20.1164 50.0237 19.9913 49.5261 19.8858C49.28 19.8336 49.0322 19.7858 48.7837 19.7428C48.4133 19.678 48.0418 19.6215 47.6696 19.5732C47.1112 19.5008 46.551 19.4474 45.9899 19.4121L46.5506 19.4545C47.2978 19.5181 48.0429 19.6131 48.7837 19.7428C49.5349 19.8727 50.2757 20.046 51.0023 20.2588ZM42.059 19.4703C42.4324 19.4359 42.8062 19.4082 43.1804 19.3903C42.6191 19.4171 42.0586 19.4633 41.4996 19.5272L42.059 19.4703Z" fill="#0FDAC2"/>
<path d="M1.76562 11.9336C6.25381 14.8395 8.7124 16.7442 12.7147 19.8676L18.8897 17.5711L19.7105 10.2288C17.2284 7.59521 14.0763 5.28299 10.358 1.75391L9.99756 10.0995C9.99756 10.0995 4.19289 11.2419 1.76562 11.9336Z" fill="#0FDAC2"/>
<path d="M12.712 20.6371C12.5424 20.6372 12.3776 20.5806 12.2438 20.4764C8.08472 17.2295 5.71033 15.4052 1.34949 12.5796C1.22686 12.5006 1.12947 12.3881 1.06888 12.2554C1.00829 12.1227 0.98703 11.9754 1.00766 11.8309C1.02828 11.6865 1.08993 11.551 1.18524 11.4406C1.28056 11.3302 1.40556 11.2494 1.54539 11.208C3.54362 10.6377 7.7027 9.7873 9.24839 9.47574L9.58534 1.72979C9.59157 1.58372 9.63968 1.44252 9.7239 1.32303C9.80813 1.20354 9.92492 1.1108 10.0604 1.05586C10.1958 1.00092 10.3442 0.986112 10.4879 1.01319C10.6315 1.04026 10.7643 1.10807 10.8705 1.20855C12.522 2.77616 14.0285 4.07336 15.488 5.32353C17.2942 6.87938 18.8556 8.22361 20.2524 9.70696C20.3274 9.78773 20.3839 9.884 20.4177 9.98895C20.4516 10.0939 20.462 10.205 20.4483 10.3144L19.6274 17.6567C19.6111 17.7968 19.5567 17.9298 19.4699 18.0411C19.3832 18.1523 19.2676 18.2376 19.1357 18.2877L12.9608 20.5842C12.8813 20.6153 12.7972 20.6332 12.712 20.6371ZM3.62593 12.2504C7.05818 14.5313 9.32678 16.2694 12.8452 19.0127L18.1817 17.0277L18.9124 10.5045C17.6273 9.17397 16.1697 7.92185 14.5026 6.48553C13.4427 5.5724 12.2751 4.56716 11.0448 3.44436L10.7549 10.14C10.7473 10.3106 10.6828 10.4738 10.5716 10.6034C10.4605 10.733 10.3091 10.8217 10.1417 10.8552C10.0947 10.8572 6.31766 11.6018 3.62593 12.2445V12.2504Z" fill="#643BFF"/>
<path fill-rule="evenodd" clip-rule="evenodd" d="M41.0914 28.6942C43.0893 28.248 47.3939 27.9282 50.8847 29.6378C54.1879 31.2603 56.5647 33.8941 57.7256 37.2519C58.8101 40.3891 58.7457 44.0072 57.5452 47.4558L57.544 47.457C56.6932 49.8801 55.1885 52.0201 53.1977 53.6418L53.1989 53.643C51.2294 55.292 48.8128 56.3167 46.2587 56.5876L46.2599 56.5889L46.0649 56.6082L46.0661 56.6094C45.3558 56.6899 44.6412 56.7323 43.9263 56.7354H43.9239C41.4707 56.7354 37.7219 56.1782 34.5011 53.0022C31.5033 50.0464 29.985 46.5581 30.0447 42.6531V42.6482C30.1078 39.9793 30.8588 37.3715 32.2245 35.0777L32.2293 35.0692C33.2114 33.4749 34.5001 32.0908 36.0197 30.9969C37.5396 29.9029 39.2617 29.1206 41.0853 28.6955L41.0914 28.6942ZM45.8167 54.4764C45.4387 54.5156 44.867 54.5753 44.1649 54.5854L43.6139 54.583C44.5683 54.6066 45.3429 54.5266 45.8155 54.4776L45.8167 54.4764ZM38.5168 53.3184C39.126 53.6384 39.7363 53.8811 40.3321 54.0645L39.9736 53.947C39.6128 53.8222 39.2481 53.6742 38.8825 53.5001C38.7607 53.4421 38.6387 53.3824 38.5168 53.3184ZM44.6263 31.0986C43.6353 31.0932 42.6456 31.1912 41.6751 31.3918C40.2141 31.7341 38.8347 32.3631 37.617 33.2402C36.397 34.1191 35.3633 35.2313 34.575 36.5119C33.4723 38.3925 32.8647 40.523 32.8094 42.7027C32.7651 45.7985 33.9679 48.5945 36.4411 51.0327C39.9123 54.453 44.2499 54.0156 45.7525 53.8598H45.7549L45.9729 53.838H45.9753C49.8596 53.4705 53.5536 50.4729 54.9197 46.5485C57.0348 40.4393 54.8765 34.6844 49.6531 32.121C48.0986 31.3535 46.2609 31.0987 44.6372 31.0986H44.6263ZM35.0969 50.5022C35.3791 50.8331 35.6824 51.1578 36.0052 51.476C35.6824 51.1578 35.3803 50.8318 35.0981 50.5009L35.0969 50.5022ZM32.6931 46.2409C32.9295 46.9979 33.2489 47.7323 33.6498 48.443L33.3652 47.9052C33.0953 47.3633 32.8704 46.8086 32.6931 46.2409ZM32.3007 44.5003C32.3289 44.6979 32.3628 44.894 32.4013 45.0889L32.3007 44.5003C32.2727 44.3029 32.2507 44.1043 32.2329 43.9043L32.3007 44.5003ZM52.8102 31.5359C54.8321 33.0473 56.3108 35.0584 57.1395 37.4554C57.5272 38.5772 57.7623 39.7668 57.8431 40.9912C57.8027 40.3786 57.723 39.7749 57.6057 39.1839C57.5666 38.9871 57.5238 38.7915 57.4761 38.5977C57.3809 38.2099 57.2688 37.8294 57.1395 37.4554C57.0704 37.2558 56.9971 37.0574 56.9191 36.8631C56.451 35.6971 55.8221 34.6303 55.0469 33.6762C54.4012 32.8816 53.6522 32.1654 52.8102 31.5359ZM34.0458 36.1872C33.1033 37.7912 32.5051 39.5687 32.2826 41.4066L32.3407 40.9839C32.3623 40.8434 32.3862 40.7033 32.4122 40.5636C32.4381 40.4238 32.4666 40.2845 32.4969 40.1457C32.8004 38.7579 33.3208 37.4211 34.0458 36.1872ZM41.2258 29.2999C41.7081 29.1921 42.3285 29.0916 43.0399 29.0286C42.5062 29.0758 42.0235 29.1436 41.6121 29.2199C41.4752 29.2453 41.3462 29.273 41.2258 29.2999C40.7899 29.4015 40.3595 29.5233 39.9373 29.6669C39.3038 29.8824 38.6873 30.1444 38.0929 30.4506C37.895 30.5526 37.6997 30.6599 37.5068 30.7716C37.1208 30.9952 36.7452 31.238 36.3818 31.4996C36.0185 31.7611 35.6688 32.0403 35.3343 32.3354C35.1671 32.4828 35.0035 32.6342 34.8438 32.7896C34.3648 33.2561 33.9209 33.7579 33.5154 34.2904C34.3262 33.2258 35.2918 32.2842 36.3818 31.4996C37.8354 30.4533 39.4817 29.7064 41.2258 29.2999ZM37.7442 32.402C37.6311 32.4752 37.5206 32.5526 37.4099 32.6297C37.6834 32.4392 37.9629 32.2585 38.2504 32.0919L37.7442 32.402Z" fill="#643BFF"/>
<path d="M51.3831 35.7266C48.8102 40.1681 46.4476 44.7201 44.2952 49.3824C42.3518 45.4634 39.8991 41.7854 37.0977 38.2347C39.331 39.4281 42.2813 42.1538 44.2169 43.788C44.1894 43.3941 48.3544 37.7155 51.3831 35.7266Z" fill="#643BFF"/>
<path d="M44.297 50.1375C44.1553 50.1371 44.0165 50.0973 43.8961 50.0226C43.7757 49.9478 43.6785 49.8411 43.6153 49.7142C41.8188 46.095 39.5013 42.4915 36.5 38.6998C36.3914 38.5623 36.3335 38.3916 36.336 38.2165C36.3385 38.0413 36.4012 37.8723 36.5137 37.738C36.6262 37.6036 36.7814 37.5121 36.9534 37.4789C37.1254 37.4457 37.3036 37.4727 37.458 37.5555C39.3308 38.5548 41.6327 40.5457 43.4821 42.1446L44.0051 42.5973L44.2774 42.2054C44.7692 41.5058 45.4039 40.6789 46.068 39.8736C47.118 38.5979 49.1515 36.2818 50.9656 35.0865C51.1089 34.9922 51.2797 34.9489 51.4506 34.9638C51.6214 34.9787 51.7823 35.0507 51.9071 35.1683C52.032 35.2859 52.1135 35.4422 52.1385 35.6119C52.1635 35.7816 52.1306 35.9548 52.0451 36.1035C49.4983 40.5104 47.122 45.0839 44.9925 49.6986C44.9321 49.829 44.8361 49.9396 44.7154 50.0177C44.5947 50.0957 44.4544 50.1379 44.3107 50.1395L44.297 50.1375ZM40.6277 41.7116C41.953 43.618 43.1677 45.5991 44.2657 47.645C45.5626 44.9017 46.9417 42.1838 48.3895 39.5071C46.6577 41.4412 45.1884 43.481 44.9631 43.9494C44.9338 44.0767 44.8724 44.1944 44.7847 44.2912C44.697 44.388 44.5859 44.4607 44.4622 44.5024C44.3384 44.5441 44.206 44.5533 44.0776 44.5292C43.9492 44.5051 43.8292 44.4485 43.7289 44.3648C43.3371 44.0434 42.9296 43.6809 42.4868 43.2988C41.903 42.7932 41.2722 42.2485 40.6277 41.7116Z" fill="#643BFF"/>
<path fill-rule="evenodd" clip-rule="evenodd" d="M6.48011 5.72762C6.6718 5.72009 6.86354 5.75291 7.04201 5.82331C7.20386 5.88721 7.35118 5.98203 7.47797 6.10069C12.3025 10.2062 17.1351 14.3811 21.9324 18.5842C23.3054 17.505 24.8806 16.4606 26.8551 15.2265C31.6166 12.2137 37.0862 10.506 42.7155 10.2723H42.718C48.1154 10.062 53.4835 11.1634 58.3616 13.4835C66.0183 17.1131 71.5653 23.1181 74.3795 30.8423C77.0318 38.1256 76.961 46.3995 74.1966 54.1389C72.3197 59.3902 68.758 64.2606 64.1732 67.864C63.9307 68.0545 63.6846 68.2397 63.4381 68.4224C63.523 68.718 63.6045 69.0068 63.6876 69.2884L63.6888 69.2908C64.3638 71.606 64.9685 73.6649 65.0838 76.4071L65.0887 76.6712C65.0862 76.9889 65.0549 77.4555 64.9325 77.966C64.7694 78.6453 64.4331 79.4494 63.7372 80.07L63.73 80.0761C63.0054 80.7027 62.0709 81.0307 61.1142 80.9979H61.1094C61.1035 80.9977 61.0971 80.9993 61.0912 80.9991C60.7972 80.9968 60.5037 80.972 60.2132 80.9264H60.2096C58.8696 80.707 57.6408 80.0454 56.7195 79.0477C55.9214 78.1885 55.4487 77.2188 55.0665 76.4386C54.6756 75.6408 54.3616 74.9467 54.0759 74.2983C53.9333 73.9746 53.7848 73.6501 53.6242 73.3062C51.8673 73.8101 50.0721 74.1469 48.2571 74.308L48.2583 74.3092L47.7496 74.3564L47.7484 74.3552C46.1543 74.5256 44.5525 74.6166 42.9493 74.6253H42.9456C39.8757 74.6253 35.9273 74.2667 31.7669 72.8278C31.2786 73.9704 30.746 75.0937 30.1684 76.1939L29.8523 76.7863C29.1952 77.9968 28.2945 79.5118 26.6456 80.3353L26.6384 80.3389C25.987 80.6531 25.2725 80.813 24.5494 80.8101H24.547L24.5457 80.8113C23.3122 80.8105 21.9728 80.3429 21.1998 79.2306L21.052 78.9993C20.4028 77.8761 20.5581 76.6539 20.7008 75.7736C21.1438 73.0402 21.7871 70.3428 22.6263 67.7041C22.0966 67.2673 21.5689 66.8063 21.0496 66.3147C16.3137 61.8319 13.0829 56.8642 11.4888 51.5419C10.1918 47.1783 9.9586 42.5652 10.8094 38.0931C11.7917 32.9302 13.8884 28.0437 16.9528 23.7745L16.9576 23.7672C17.9239 22.4612 18.85 21.387 19.8386 20.418C15.1432 16.3065 10.4157 12.2218 5.69538 8.20469L5.69659 8.20348C5.55997 8.09879 5.44191 7.97179 5.35267 7.82435C5.25354 7.66033 5.18845 7.47684 5.16376 7.28654C5.13913 7.09628 5.15448 6.90241 5.20856 6.71845C5.2627 6.53451 5.35495 6.36354 5.47862 6.21698C5.60233 6.07046 5.75564 5.95116 5.92789 5.86692C6.1002 5.78273 6.28857 5.73523 6.48011 5.72762ZM61.1154 80.3777L61.1166 80.3789C61.209 80.3826 61.3011 80.3808 61.3927 80.3765C61.3008 80.3808 61.2081 80.3814 61.1154 80.3777ZM26.3683 79.7805C26.2299 79.8473 26.0875 79.9042 25.9432 79.955C26.0139 79.9301 26.0846 79.905 26.154 79.8762L26.3683 79.7805ZM64.1586 73.6721C64.3132 74.5339 64.4219 75.437 64.4638 76.4338C64.4854 76.9178 64.4632 78.5903 63.3231 79.6073C63.1756 79.7348 63.0167 79.8456 62.8508 79.9429C62.9311 79.8958 63.0106 79.8469 63.0869 79.7927L63.3231 79.6073C63.3945 79.5436 63.4624 79.4771 63.5253 79.4087C63.6506 79.2725 63.76 79.1281 63.8547 78.9787C63.9021 78.9038 63.9462 78.8278 63.9867 78.751C64.4727 77.8296 64.4811 76.7988 64.465 76.435C64.4092 75.1056 64.2349 73.9422 63.9903 72.8217L64.1586 73.6721ZM56.028 73.4201C56.3121 74.0648 56.6158 74.7105 56.992 75.4962C57.3485 76.2211 57.7175 76.9717 58.2914 77.5869C58.5892 77.9093 58.9363 78.1777 59.3171 78.3839C59.1268 78.2808 58.9449 78.1622 58.7733 78.029C58.6017 77.8958 58.4403 77.7482 58.2914 77.5869C58.148 77.4332 58.0173 77.2704 57.8966 77.1024C57.6549 76.7658 57.4529 76.4053 57.2657 76.0413C57.1722 75.8597 57.081 75.6772 56.992 75.4962C56.8039 75.1033 56.6345 74.7449 56.4761 74.4049L56.0292 73.4213L56.028 73.4201ZM22.9061 77.9249C22.9854 78.0623 23.0946 78.1778 23.2221 78.2761C23.142 78.2143 23.0688 78.1462 23.0066 78.069L22.9061 77.9249ZM61.0282 70.0455C59.4931 70.9805 57.8974 71.7734 56.2569 72.416C56.3749 72.6752 56.4875 72.9244 56.596 73.1706C56.8752 73.8043 57.1748 74.4406 57.549 75.2225L57.8191 75.7615C58.044 76.1981 58.2765 76.6007 58.5651 76.9558L58.7455 77.163L58.7467 77.1654C59.2486 77.7087 59.9166 78.0707 60.6455 78.195C61.324 78.299 61.6972 78.174 61.8989 78.0048C62.0827 77.8366 62.2064 77.5429 62.2719 77.1957C62.3346 76.863 62.3272 76.575 62.3252 76.5258C62.223 74.1449 61.7108 72.3825 61.0343 70.0661C61.0323 70.0593 61.0302 70.0522 61.0282 70.0455ZM24.9793 69.4556C24.3173 71.6727 23.7983 73.9311 23.4268 76.2157C23.3723 76.5537 23.3342 76.8404 23.336 77.0903C23.3378 77.3378 23.3799 77.5017 23.445 77.6148C23.5464 77.7903 23.8048 77.9632 24.2345 78.0254C24.6528 78.0859 25.1011 78.0175 25.4128 77.8619C26.276 77.4294 26.8687 76.4882 27.4219 75.4672C28.0691 74.2743 28.6586 73.0507 29.1948 71.8043C27.7893 71.1674 26.3767 70.3923 24.9793 69.4556ZM29.3062 76.4895C29.066 76.932 28.8027 77.3932 28.4948 77.8364C28.6977 77.5444 28.883 77.2458 29.0531 76.9486L29.3074 76.4907L29.3062 76.4895ZM23.3444 73.3256C23.144 74.2505 22.966 75.1805 22.814 76.1152C22.7455 76.5402 22.692 76.9534 22.728 77.3204C22.6921 76.9536 22.7467 76.5411 22.8152 76.1164C22.9673 75.1815 23.1439 74.2508 23.3444 73.3256ZM44.1857 73.9809C43.7722 73.9941 43.3582 74.0017 42.9444 74.0039L42.9456 74.0052C43.3591 74.0029 43.7725 73.9941 44.1857 73.9809ZM57.1688 15.986C47.8111 11.5433 37.0191 12.1401 28.3301 17.574L28.1799 17.6684H28.1739C26.5085 18.7119 25.1818 19.5867 24.0492 20.4423C26.579 22.6681 29.0977 24.9001 31.5974 27.1334L31.6192 27.0559C31.697 26.7045 31.9091 26.3973 32.2101 26.1995C32.5165 25.9983 32.8903 25.9265 33.2492 26.0008C33.608 26.0753 33.9236 26.2893 34.1247 26.5956C34.3258 26.9021 34.3965 27.2772 34.3221 27.6361L34.3197 27.6482C34.0972 28.6194 33.5961 29.5056 32.8786 30.1967C32.1611 30.8877 31.2571 31.3542 30.2786 31.54L30.2701 31.5425C30.1904 31.5564 30.1089 31.563 30.0279 31.5631C29.6827 31.5629 29.3502 31.4329 29.0955 31.1997C28.8408 30.9664 28.6827 30.6461 28.6522 30.3021C28.6219 29.958 28.721 29.6146 28.9308 29.3403C29.0701 29.1584 29.252 29.0158 29.4575 28.9225C26.961 26.6935 24.4461 24.4657 21.9203 22.2447C20.965 23.1618 20.1041 24.163 19.1835 25.4061C16.3605 29.3409 14.431 33.8451 13.5269 38.603L13.5257 38.6018C11.8071 48.083 14.9341 56.7184 22.9424 64.3064L23.5818 64.8927C30.2169 70.793 37.8464 71.8554 42.965 71.8576C44.4705 71.8507 45.9752 71.7684 47.4723 71.6092H47.4796L48.0028 71.5596H48.0064L48.4896 71.5123C58.6423 70.4087 68.1093 62.9401 71.5845 53.2147C77.0651 37.8737 71.1123 22.5953 57.1688 15.986ZM29.3304 71.1865C29.4439 71.2386 29.5584 71.2876 29.6719 71.3379C29.5447 71.2815 29.4166 71.2258 29.2892 71.1671L29.3304 71.1865ZM29.9383 69.7838C29.972 69.7993 30.0063 69.8133 30.04 69.8287C29.9995 69.8102 29.9583 69.7928 29.9177 69.7741L29.9383 69.7838ZM23.7719 65.8762C23.5708 65.7073 23.3707 65.534 23.1713 65.3566L22.5161 64.757C22.9306 65.1493 23.3498 65.5217 23.7719 65.8762ZM16.3279 57.2047C16.6443 57.7294 16.9805 58.2496 17.3355 58.766C16.8033 57.9916 16.3144 57.2079 15.869 56.4149L16.3279 57.2047ZM73.6117 53.9306C73.5439 54.1201 73.4732 54.3089 73.401 54.4975C73.4122 54.4682 73.425 54.4395 73.4361 54.4102L73.6117 53.9306ZM13.5438 35.7904C13.2986 36.6787 13.0892 37.5782 12.9166 38.4867C11.9799 43.6502 12.4512 48.5658 14.3189 53.1953L14.004 52.3753C12.4013 47.9868 12.0363 43.3473 12.9178 38.4879C13.0905 37.5792 13.2985 36.6789 13.5438 35.7904ZM75.2393 36.5366C74.9621 34.8993 74.5617 33.2905 74.0331 31.7266L73.797 31.0555C73.2801 29.6369 72.6693 28.2769 71.9684 26.9808C72.6691 28.2765 73.279 29.636 73.7958 31.0543C74.4418 32.8283 74.9221 34.6639 75.2393 36.5366ZM18.6797 25.0451C16.7028 27.8007 15.1561 30.8302 14.0827 34.0292L14.3879 33.1607C15.4416 30.2813 16.8826 27.5501 18.6797 25.0451ZM30.1623 30.9308C30.1179 30.9385 30.073 30.9429 30.0279 30.9429L30.1623 30.9308ZM33.7142 27.5101C33.6439 27.8168 33.5399 28.1127 33.409 28.3955C33.4945 28.2109 33.5706 28.0217 33.6306 27.8262C33.6626 27.7222 33.6898 27.6167 33.7142 27.5101ZM33.6052 26.936C33.6583 27.0169 33.6937 27.107 33.713 27.2C33.7037 27.1555 33.6925 27.1115 33.6754 27.0692L33.6052 26.936ZM43.7352 10.8671C46.3812 10.8442 49.0131 11.1421 51.574 11.7489C50.9338 11.5972 50.2893 11.4645 49.6412 11.3516C48.993 11.2387 48.3411 11.1455 47.6867 11.0718C46.3778 10.9243 45.0583 10.8557 43.7352 10.8671ZM6.81434 6.39988C6.7655 6.38061 6.71444 6.36631 6.66297 6.35749L6.50554 6.34658C6.61125 6.34243 6.71593 6.36106 6.81434 6.39988ZM11.2744 39.0306L11.1618 39.8034C11.1596 39.8203 11.1579 39.8373 11.1558 39.8543C11.1912 39.5793 11.2307 39.3048 11.2744 39.0306Z" fill="#643BFF"/>
<path fill-rule="evenodd" clip-rule="evenodd" d="M68.5267 11.3419C68.7107 11.3551 68.8914 11.4047 69.0559 11.4885C69.2154 11.5698 69.3568 11.6825 69.4737 11.8179C72.5211 15.2513 74.8861 19.2357 76.4381 23.5565L76.4793 23.6873C76.5135 23.8197 76.5278 23.9572 76.5217 24.0943C76.5135 24.2771 76.469 24.457 76.3909 24.6224C76.3128 24.7878 76.2022 24.936 76.0664 25.0585C75.9305 25.1809 75.7714 25.2754 75.5989 25.3358L75.5856 25.3407L75.5723 25.3443C75.4298 25.3873 75.2813 25.4044 75.1327 25.3988H75.1254C75.1139 25.3983 75.1018 25.3996 75.0903 25.3988V25.3964C74.8205 25.3881 74.5584 25.3036 74.3371 25.1481C74.1624 25.0253 74.0194 24.864 73.9181 24.6781L73.8309 24.4843C72.3992 20.4984 70.2191 16.8224 67.409 13.6542C67.2886 13.5226 67.1948 13.3673 67.1329 13.2C67.0689 13.027 67.0399 12.8428 67.0481 12.6586C67.0564 12.4744 67.1009 12.2934 67.1801 12.1268C67.2594 11.9602 67.3717 11.811 67.5095 11.6883C67.6473 11.5657 67.8085 11.4716 67.983 11.4122C68.1575 11.3528 68.3428 11.3288 68.5267 11.3419ZM75.829 24.3571C75.8076 24.4026 75.7826 24.4466 75.7527 24.4867L75.829 24.3571L75.8799 24.2154C75.8679 24.264 75.8504 24.3118 75.829 24.3571ZM69.5645 12.8681C69.7448 13.0813 69.9223 13.2966 70.0974 13.5137C69.9185 13.2919 69.7371 13.0722 69.5528 12.8546L69.0111 12.2298C68.9782 12.1907 68.9407 12.1547 68.9009 12.1232L68.7738 12.0408C68.8644 12.087 68.9456 12.152 69.0111 12.2298C69.1943 12.4362 69.3748 12.6444 69.5528 12.8546L69.5645 12.8681Z" fill="#0FDAC2"/>
<path fill-rule="evenodd" clip-rule="evenodd" d="M76.2831 14.9903C76.2742 14.9754 76.2653 14.9604 76.2564 14.9455C76.2685 14.9657 76.2806 14.986 76.2926 15.0064M76.2926 15.0064C76.2894 15.001 76.2862 14.9957 76.2831 14.9903L76.2926 15.0064Z" fill="#643BFF"/>
<path fill-rule="evenodd" clip-rule="evenodd" d="M74.3637 11.9318C74.5439 11.9528 74.7188 12.0083 74.8772 12.0965C75.0355 12.1848 75.1751 12.3043 75.2877 12.4466L75.6231 12.8839C77.2711 15.0901 78.4493 17.6137 79.0818 20.2981C79.1295 20.5012 79.1308 20.7126 79.0854 20.9159C79.0399 21.1192 78.9487 21.3098 78.819 21.4731C78.694 21.6304 78.5358 21.7574 78.3564 21.8474V21.9963L77.7363 21.9976C77.4248 21.9976 77.1218 21.892 76.8777 21.6984C76.6339 21.5048 76.463 21.2335 76.3921 20.9304C75.8101 18.462 74.6927 16.1523 73.12 14.163C73.0074 14.0207 72.9238 13.8565 72.8742 13.6821C72.8248 13.5081 72.8098 13.3256 72.8306 13.1455C72.8515 12.9653 72.9083 12.7904 72.9965 12.6319C73.0848 12.4733 73.2042 12.334 73.3465 12.2213C73.4888 12.1086 73.6515 12.0251 73.826 11.9754C74.0006 11.9258 74.1834 11.9109 74.3637 11.9318ZM77.7363 21.375V21.3774L77.7351 21.3762L77.7363 21.375ZM78.4799 20.7802C78.4753 20.8007 78.4692 20.8208 78.4629 20.8408L78.4799 20.7802ZM78.4775 20.4398C78.4798 20.4498 78.4816 20.4601 78.4835 20.4701L78.4775 20.4398ZM75.4391 13.687L75.1266 13.2545C75.5333 13.799 75.91 14.3636 76.2564 14.9455C76.0007 14.516 75.7278 14.0964 75.4391 13.687ZM74.2911 12.5471C74.3198 12.5505 74.3477 12.5587 74.3758 12.5653L74.2911 12.5471Z" fill="#0FDAC2"/>
<path fill-rule="evenodd" clip-rule="evenodd" d="M8.72166 58.5686C9.05797 58.4225 9.439 58.4158 9.78007 58.5504C10.1208 58.6851 10.3947 58.9495 10.5406 59.2857C11.3524 61.1562 12.2071 62.9877 13.2726 64.5245C14.3353 66.057 15.5831 67.2595 17.1623 67.9148C17.4566 68.0378 17.7001 68.2596 17.8502 68.5411C18.0001 68.8227 18.0481 69.1486 17.9858 69.4616C17.9233 69.7744 17.755 70.056 17.5087 70.2587C17.2623 70.4612 16.9532 70.5728 16.6343 70.5736L16.6331 70.5724C16.4487 70.5732 16.2661 70.5371 16.0966 70.4646C11.8631 68.7044 9.74121 64.3875 8.00475 60.3867C7.85889 60.0505 7.85215 59.6703 7.98659 59.3293C8.12113 58.9882 8.38548 58.7147 8.72166 58.5686ZM16.8983 69.9025C16.9757 69.8734 17.049 69.8334 17.1139 69.7802C17.0801 69.808 17.0449 69.8327 17.0073 69.8541C16.9726 69.8738 16.9356 69.8886 16.8983 69.9025ZM16.2669 68.1776C15.5651 67.8044 14.9327 67.3293 14.3564 66.7762L14.3402 66.7601C14.2623 66.6849 14.1853 66.6083 14.1094 66.5303L14.3402 66.7601C14.921 67.3201 15.5584 67.8008 16.2669 68.1776C16.4793 68.2905 16.6982 68.3942 16.9237 68.4878C16.9312 68.4909 16.9386 68.4941 16.9459 68.4975C17.0185 68.5304 17.086 68.5741 17.1441 68.6271C17.2081 68.6854 17.2615 68.7555 17.3028 68.833C17.3213 68.8677 17.3368 68.9037 17.3495 68.9406L17.3549 68.9529C17.3672 68.9904 17.3752 69.0291 17.3815 69.068C17.3744 69.0247 17.3638 68.9821 17.3495 68.9406L17.3028 68.833C17.2239 68.6848 17.0983 68.5669 16.9459 68.4975C16.9386 68.4941 16.9312 68.4909 16.9237 68.4878C16.6982 68.3942 16.4793 68.2905 16.2669 68.1776ZM12.8584 67.4339C13.1245 67.7173 13.4025 67.987 13.694 68.2407C13.5968 68.1561 13.5013 68.0707 13.407 67.9827C13.2184 67.8065 13.036 67.623 12.8584 67.4339ZM13.694 68.2407C13.4025 67.987 13.1245 67.7173 12.8584 67.4339C13.036 67.623 13.2184 67.8065 13.407 67.9827C13.5013 68.0707 13.5968 68.1561 13.694 68.2407ZM13.8696 66.276C13.7117 66.1031 13.5577 65.9248 13.4082 65.7406L13.3816 65.7067C13.3162 65.6258 13.2516 65.5438 13.1878 65.4608L13.3816 65.7067C13.4651 65.8101 13.5499 65.9119 13.6359 66.0119L13.8696 66.276ZM12.3595 64.2677C11.9662 63.6456 11.6012 62.9887 11.2575 62.3114C11.372 62.537 11.4893 62.7607 11.6087 62.9813C11.7281 63.202 11.8507 63.4196 11.9756 63.6342L12.3595 64.2677ZM9.78855 59.2772C9.72704 59.2203 9.6565 59.1729 9.57872 59.1385C9.61596 59.1549 9.65204 59.1743 9.68562 59.196C9.7225 59.2199 9.75645 59.2475 9.78855 59.2772Z" fill="#0FDAC2"/>
</svg>
