<svg width="80" height="81" viewBox="0 0 80 81" fill="none" xmlns="http://www.w3.org/2000/svg">
<path fill-rule="evenodd" clip-rule="evenodd" d="M12.4923 50.9448C13.525 46.6557 17.8543 44.0042 22.479 44.6732H22.4826C23.8374 44.8775 25.1273 45.3942 26.2494 46.1804C27.3711 46.9666 28.2958 48.0023 28.9501 49.2056L28.9561 49.2165C29.5844 50.4271 29.9178 51.7696 29.9296 53.1335C29.9414 54.4975 29.6307 55.8459 29.0234 57.0673L29.021 57.0721C28.4397 58.2147 27.5847 59.1815 26.5679 59.9399C27.4947 60.1953 28.3429 60.5135 29.0703 60.8894L29.4585 61.1034L29.4621 61.1046C32.3122 62.7812 34.4422 65.934 35.3671 69.7271C36.1586 72.9725 36.0844 76.2253 35.92 79.7462L35.9188 79.745C35.9132 79.9124 35.8764 80.0775 35.8082 80.2306C35.7377 80.3882 35.6362 80.5308 35.5101 80.6488C35.384 80.7668 35.2347 80.8582 35.0726 80.918C34.9107 80.9777 34.7378 81.0051 34.5654 80.9974C34.3932 80.9895 34.2235 80.9464 34.0678 80.8724C33.9122 80.7983 33.7716 80.6945 33.6568 80.5659C33.5419 80.4371 33.4543 80.2856 33.3984 80.1224C33.344 79.9634 33.3201 79.7949 33.3298 79.6272C33.4858 76.2047 33.5513 73.2169 32.8503 70.34C32.0726 67.1491 30.3341 64.6187 28.1508 63.3401C26.5659 62.4125 23.9046 61.8395 21.1377 61.8221C18.3689 61.8049 15.6459 62.3444 13.9106 63.4964L13.9094 63.4976C12.7263 64.2807 11.7097 65.2903 10.9178 66.4675C10.1267 67.6437 9.57366 68.9648 9.29404 70.3545C8.61288 73.8761 8.43665 76.8794 8.72914 79.5431L8.73635 79.6717C8.73927 79.9694 8.63934 80.2606 8.4515 80.495C8.24295 80.7551 7.94218 80.923 7.61257 80.9673L7.61377 80.9685L7.53805 80.9805L7.48877 80.989H7.43829C7.11951 80.9882 6.81149 80.8701 6.57412 80.6572C6.33687 80.4443 6.18623 80.1508 6.15104 79.8339C5.82603 76.8789 6.02554 73.6145 6.74959 69.8701L6.7508 69.8653C7.09723 68.1381 7.78157 66.4957 8.764 65.0336C9.74642 63.5716 11.0075 62.3171 12.4755 61.3437C13.3741 60.7463 14.4481 60.2738 15.6485 59.9267C13.0579 57.815 11.6985 54.2493 12.4923 50.9448ZM33.9452 79.656C33.9391 79.7462 33.9509 79.8373 33.9801 79.9229C33.9947 79.9656 34.0139 80.0079 34.0366 80.0467C34.0592 80.0856 34.0858 80.1223 34.1159 80.156C34.0557 80.0885 34.0107 80.0097 33.9813 79.9241C33.9519 79.8382 33.939 79.7466 33.9452 79.656ZM7.35416 69.9867L7.22555 70.6742C7.21426 70.7374 7.20528 70.8012 7.1943 70.8641C7.24477 70.575 7.29703 70.2821 7.35416 69.9867ZM32.6604 67.8389C32.9811 68.5783 33.246 69.3671 33.4476 70.1946C33.4795 70.3255 33.5089 70.4575 33.5378 70.5888C33.5089 70.4578 33.4807 70.3265 33.4488 70.1958C33.1967 69.1609 32.8459 68.186 32.4104 67.2932L32.6604 67.8389ZM12.8156 61.857C12.6404 61.9731 12.4689 62.0943 12.3 62.2187C11.6252 62.7159 11.0015 63.2774 10.4383 63.8954L10.8721 63.4435C11.4653 62.8539 12.1164 62.3226 12.8168 61.8582L12.8156 61.857ZM21.1617 59.8413C21.0589 59.8408 20.956 59.8418 20.854 59.8425C20.7726 59.841 20.6913 59.8373 20.61 59.8329C20.6893 59.8372 20.7686 59.8422 20.848 59.8438C20.9526 59.8429 21.0563 59.8407 21.1617 59.8413ZM21.0487 47.1696C18.1058 47.1726 15.6368 48.9663 15.0031 51.5602C14.3111 54.445 16.1077 57.8118 18.9129 58.8642C19.5384 59.098 20.1974 59.2143 20.86 59.2272C20.9613 59.2265 21.0634 59.2254 21.1653 59.226C23.4371 59.1611 25.6922 57.8925 26.7001 55.9051C27.1231 55.0536 27.3393 54.1143 27.3311 53.1635C27.3228 52.2111 27.09 51.2731 26.6508 50.428C26.1893 49.5858 25.539 48.8604 24.7518 48.3102C23.9608 47.7576 23.0511 47.395 22.0968 47.2525C21.7504 47.2001 21.399 47.1719 21.0487 47.1696ZM27.8936 52.3751C27.9265 52.634 27.9442 52.8952 27.9465 53.1575C27.9545 54.0761 27.7731 54.9856 27.414 55.8282C27.3629 55.9482 27.3077 56.0667 27.2494 56.1839L27.2506 56.1851C27.7183 55.2456 27.9568 54.2082 27.9477 53.1587C27.9443 52.7651 27.9056 52.3737 27.8335 51.9893L27.8936 52.3751ZM13.0909 51.089C13.0333 51.3287 12.9885 51.5705 12.9551 51.8126C12.9885 51.5707 13.0345 51.3297 13.0921 51.0902L13.0909 51.089ZM28.4501 49.5842C28.5764 49.8347 28.6911 50.09 28.7902 50.3511C28.7361 50.2084 28.6783 50.0664 28.6159 49.9268L28.4501 49.5842ZM17.1077 46.1107C16.8872 46.2222 16.6725 46.3427 16.4646 46.4725C16.3609 46.5373 16.2585 46.604 16.1581 46.6732C15.9572 46.8117 15.764 46.96 15.5776 47.1155C16.0435 46.7266 16.5567 46.3893 17.1077 46.1107ZM25.8972 46.6852C26.1522 46.864 26.3959 47.0569 26.628 47.2622C26.5143 47.1616 26.3975 47.0632 26.2782 46.9689L25.896 46.684L25.8972 46.6852ZM24.2254 45.7814C24.3725 45.8402 24.5181 45.9029 24.6617 45.9701C24.3746 45.8356 24.0801 45.7173 23.7795 45.6167L24.2254 45.7814ZM21.1917 59.8413C21.3238 59.8374 21.4555 59.8286 21.5872 59.8173C21.4493 59.8291 21.3108 59.8376 21.1725 59.8413H21.1917Z" fill="#643BFF"/>
<path fill-rule="evenodd" clip-rule="evenodd" d="M49.9883 50.9448C51.0193 46.6554 55.3487 44.0041 59.975 44.6732H59.9786C61.3331 44.8775 62.6224 45.3942 63.7442 46.1804C64.7257 46.8685 65.5561 47.748 66.1865 48.7633L66.4449 49.2068L66.4497 49.2165C67.078 50.4271 67.4114 51.7696 67.4232 53.1335C67.435 54.4975 67.1243 55.8459 66.517 57.0673L66.5158 57.0709C65.9378 58.2142 65.084 59.1813 64.0675 59.9399C64.9947 60.1954 65.8426 60.5144 66.5699 60.8906L66.9581 61.1034L66.9605 61.1046C69.6343 62.6764 71.6726 65.5453 72.6804 69.0227L72.8679 69.7271L73.0061 70.3352C73.6483 73.3798 73.574 76.4446 73.4099 79.7474L73.4087 79.7594C73.3855 80.097 73.2309 80.4127 72.9785 80.638C72.7261 80.863 72.3956 80.98 72.0578 80.9649C71.72 80.9496 71.4007 80.8031 71.1696 80.5563C70.9387 80.3092 70.8126 79.9809 70.8198 79.6428V79.6272C70.9775 76.2051 71.0413 73.2171 70.3403 70.34C69.5626 67.1491 67.8241 64.6187 65.6408 63.3401C64.0557 62.4133 61.3954 61.8409 58.6288 61.8233C55.8602 61.8058 53.1369 62.3443 51.4006 63.4964C50.2175 64.2802 49.1999 65.2911 48.4078 66.4687C47.6169 67.6447 47.0643 68.9652 46.784 70.3545C46.1029 73.8761 45.9266 76.8794 46.2191 79.5431C46.2379 79.7119 46.2231 79.8835 46.1759 80.0467C46.1284 80.2102 46.048 80.3633 45.9415 80.4962C45.835 80.6288 45.7035 80.739 45.5545 80.8207C45.4051 80.9025 45.2406 80.955 45.0713 80.9733L45.0701 80.9721C45.0509 80.9755 45.0318 80.9818 45.0124 80.9841L44.9752 80.989H44.9367C44.618 80.9881 44.3108 80.8691 44.0737 80.656C43.8371 80.4431 43.6854 80.1504 43.6506 79.8339L43.5966 79.2762C43.3519 76.4685 43.5716 73.3806 44.2504 69.8701V69.8653C44.5961 68.1381 45.2803 66.4958 46.2624 65.0336C47.1219 63.754 48.1956 62.6343 49.4342 61.7223L49.9751 61.3437C50.8731 60.7468 51.9455 60.2749 53.1445 59.9279C50.5535 57.8164 49.1928 54.2502 49.9883 50.9448ZM44.1386 78.114C44.1622 78.6765 44.2028 79.2266 44.2624 79.7654C44.267 79.8075 44.2767 79.8491 44.2889 79.8892C44.2769 79.8495 44.2682 79.8084 44.2636 79.7666C44.204 79.2274 44.1622 78.6769 44.1386 78.114ZM71.4352 79.656L71.4448 79.787C71.4519 79.828 71.464 79.8684 71.4785 79.9072C71.4491 79.8277 71.4333 79.7424 71.4352 79.656ZM71.4064 73.0191C71.4807 73.7837 71.5201 74.5592 71.5338 75.3496C71.5168 74.3613 71.46 73.3964 71.3439 72.447L71.4064 73.0191ZM70.1504 67.8389C70.471 68.5783 70.7359 69.3671 70.9376 70.1946C71.0163 70.5176 71.0847 70.8425 71.1455 71.1681C71.0847 70.8428 71.0175 70.5186 70.9388 70.1958C70.6866 69.1609 70.3359 68.186 69.9004 67.2932L70.1504 67.8389ZM46.7732 65.3773L46.4355 65.9074C46.3317 66.0796 46.2327 66.2547 46.1374 66.4314C46.3321 66.0707 46.5438 65.7188 46.7732 65.3773ZM50.3152 61.857L49.7984 62.2175C49.6392 62.3348 49.4842 62.4574 49.3309 62.5817C49.6468 62.3256 49.975 62.0825 50.3152 61.857ZM66.6492 61.6358C66.6512 61.637 66.6532 61.6382 66.6552 61.6394C66.6529 61.6381 66.6503 61.6359 66.648 61.6346C66.6138 61.6147 66.5784 61.5965 66.5434 61.5769C66.5788 61.5968 66.6145 61.6156 66.6492 61.6358ZM54.5868 60.2091C54.6008 60.2063 54.6149 60.2047 54.6289 60.2019L54.6265 60.2007C54.6132 60.2033 54.6001 60.2065 54.5868 60.2091ZM58.6625 59.8413C58.5585 59.8408 58.4544 59.8418 58.3512 59.8425C58.2806 59.8412 58.2102 59.8376 58.1397 59.8341C58.209 59.8376 58.2782 59.8424 58.3476 59.8438C58.4521 59.8429 58.5571 59.8408 58.6625 59.8413ZM58.5471 47.1696C55.6015 47.1708 53.1315 48.9657 52.5075 51.559C51.8131 54.4435 53.6109 57.8114 56.4149 58.8642L56.6854 58.9579C57.2288 59.1298 57.7945 59.2161 58.362 59.2272C58.4629 59.2265 58.5646 59.2254 58.6661 59.226C58.668 59.226 58.6713 59.226 58.6733 59.226C60.9433 59.1593 63.1961 57.8911 64.2045 55.9051C64.6271 55.0535 64.8437 54.1142 64.8355 53.1635C64.8272 52.2112 64.594 51.2733 64.1552 50.428C63.6934 49.5858 63.0424 48.8605 62.255 48.3102C61.4641 47.7577 60.5554 47.3953 59.6012 47.2525C59.2528 47.1998 58.8994 47.1716 58.5471 47.1696ZM65.1829 55.0902C65.1095 55.3408 65.0211 55.5871 64.9184 55.8282C64.8673 55.9482 64.8121 56.0667 64.7538 56.1839L64.755 56.1851C64.9302 55.8329 65.0729 55.4653 65.1829 55.0902ZM65.2538 51.6071C65.3797 52.1127 65.4463 52.6329 65.4509 53.1575L65.4521 53.1587C65.4475 52.6338 65.3797 52.113 65.2538 51.6071ZM50.4462 51.8414C50.4802 51.5898 50.5269 51.3381 50.5869 51.089L50.5075 51.4556C50.4835 51.5837 50.4636 51.7127 50.4462 51.8414ZM51.0797 49.6828C51.0276 49.7937 50.9785 49.9064 50.9318 50.0205C51.0252 49.7922 51.1297 49.5701 51.2443 49.3547L51.0797 49.6828ZM63.392 46.6852C63.647 46.864 63.8907 47.0568 64.1228 47.2622C64.0091 47.1616 63.8923 47.0632 63.773 46.9689L63.3908 46.684L63.392 46.6852ZM58.6938 59.8413C58.827 59.8374 58.9599 59.8287 59.0928 59.8173C58.9537 59.8293 58.814 59.8376 58.6745 59.8413H58.6938Z" fill="#643BFF"/>
<path fill-rule="evenodd" clip-rule="evenodd" d="M13.0825 70.0444C13.2558 70.0511 13.4267 70.0932 13.5837 70.167C13.7407 70.2408 13.8813 70.3466 13.9971 70.4758C14.1128 70.6051 14.2017 70.7565 14.2579 70.9206C14.3118 71.078 14.3343 71.2449 14.3252 71.4109L14.3264 71.4121C14.2811 72.5962 14.2424 74.0299 14.2038 75.4313C14.1654 76.8286 14.1287 78.273 14.0812 79.4746V79.477C14.0666 79.8102 13.9233 80.125 13.6822 80.3556C13.4711 80.5574 13.199 80.6814 12.9106 80.7089L12.7868 80.7149H12.7483L12.7363 80.7137C12.396 80.6997 12.0737 80.5526 11.8409 80.3039C11.6084 80.055 11.4823 79.7237 11.4911 79.3832V79.3748C11.5365 78.1908 11.5752 76.7579 11.6137 75.3568C11.6329 74.6581 11.6515 73.9469 11.6714 73.2607L11.7363 71.3124C11.7399 71.1458 11.7762 70.9812 11.8421 70.828C11.9108 70.6685 12.011 70.5238 12.1366 70.4037C12.262 70.2837 12.4105 70.1901 12.5728 70.1285C12.7352 70.067 12.909 70.0377 13.0825 70.0444ZM12.1065 79.4C12.1053 79.4447 12.1087 79.4888 12.1161 79.5322C12.1226 79.5699 12.1336 79.6069 12.1462 79.6428C12.1191 79.5655 12.1043 79.4835 12.1065 79.4ZM12.9226 70.6682C12.8777 70.6754 12.8331 70.6868 12.7904 70.703C12.7052 70.7354 12.6267 70.7854 12.5608 70.8484L12.4731 70.9518C12.4472 70.989 12.425 71.029 12.407 71.0708C12.4431 70.9869 12.4949 70.9115 12.5608 70.8484C12.6268 70.7854 12.7063 70.7365 12.7916 70.7042C12.8769 70.6719 12.9684 70.6574 13.0596 70.6609L13.0584 70.6597C13.0129 70.658 12.9673 70.6608 12.9226 70.6682ZM13.3228 70.7246C13.3427 70.734 13.3605 70.7471 13.3793 70.7583C13.3602 70.7469 13.3418 70.7329 13.3216 70.7234C13.2915 70.7093 13.2596 70.7003 13.2279 70.691C13.26 70.7006 13.2924 70.7103 13.3228 70.7246Z" fill="#643BFF"/>
<path fill-rule="evenodd" clip-rule="evenodd" d="M50.5797 70.0564C50.7531 70.0631 50.9249 70.1052 51.0821 70.179C51.2389 70.2528 51.3798 70.3577 51.4955 70.4867C51.6113 70.616 51.7001 70.7684 51.7563 70.9326C51.8102 71.0901 51.8315 71.2568 51.8224 71.423L51.8236 71.4242C51.7783 72.608 51.7402 74.0415 51.7034 75.4421C51.6667 76.842 51.6265 78.2881 51.5808 79.489V79.4986L51.5796 79.5082C51.5568 79.8353 51.4107 80.1414 51.171 80.3652C50.9311 80.589 50.6145 80.7137 50.2864 80.7137H50.2335C49.8929 80.6996 49.5706 80.552 49.3381 80.3027C49.1058 80.0533 48.9809 79.7215 48.9907 79.3808V79.3748C49.0361 78.1892 49.0754 76.7573 49.1121 75.3568C49.1487 73.963 49.1893 72.5292 49.2347 71.34C49.2364 71.1679 49.2712 70.9969 49.3393 70.8388C49.4079 70.6796 49.5085 70.5357 49.6338 70.4158C49.7593 70.2957 49.9088 70.2009 50.0712 70.1393C50.2332 70.078 50.4065 70.0498 50.5797 70.0564ZM49.6181 79.5431C49.6175 79.5394 49.6163 79.5359 49.6157 79.5322C49.6084 79.4887 49.606 79.4436 49.6073 79.3988C49.6528 78.2089 49.6908 76.7735 49.7275 75.3736C49.7643 73.9737 49.8046 72.5366 49.8501 71.3484C49.8507 71.2573 49.8693 71.1665 49.9054 71.0828L49.8633 71.2126C49.8541 71.2569 49.8504 71.303 49.8501 71.3484C49.8046 72.5366 49.7643 73.9737 49.7275 75.3736L49.6698 77.465C49.6499 78.1475 49.6301 78.8038 49.6073 79.3988C49.6059 79.4474 49.6094 79.496 49.6181 79.5431ZM50.5568 70.6718C50.4657 70.6683 50.374 70.6827 50.2888 70.715C50.2036 70.7474 50.1251 70.7974 50.0592 70.8605C50.1251 70.7975 50.2047 70.7486 50.29 70.7162C50.3752 70.684 50.4658 70.6683 50.5568 70.6718Z" fill="#643BFF"/>
<path fill-rule="evenodd" clip-rule="evenodd" d="M66.4292 69.9422C66.7728 69.9422 67.1033 70.0792 67.3463 70.322C67.589 70.5649 67.7259 70.8945 67.7261 71.2379V71.2403L67.6961 78.8856C67.6961 79.0545 67.6629 79.2221 67.5987 79.3784C67.5337 79.5365 67.4383 79.6805 67.3175 79.8015C67.1965 79.9224 67.0525 80.0189 66.8944 80.0839C66.7368 80.1487 66.5671 80.1795 66.3968 80.1789V80.1813C66.2267 80.1808 66.0574 80.1458 65.9004 80.0803C65.7438 80.0148 65.6007 79.9194 65.4809 79.7991C65.3611 79.6785 65.2655 79.5344 65.2009 79.3772C65.1364 79.22 65.1031 79.0507 65.1035 78.8808L65.1336 71.2355C65.1345 70.8929 65.2711 70.5643 65.5134 70.322C65.7563 70.0791 66.0858 69.9424 66.4292 69.9422ZM65.7634 71.1093C65.7552 71.1514 65.749 71.1943 65.749 71.2379L65.7189 78.8832L65.7502 71.2391C65.7502 71.1951 65.7551 71.1518 65.7634 71.1093ZM65.9485 70.7571C65.9166 70.7889 65.8878 70.8236 65.8631 70.8605C65.8415 70.8929 65.8248 70.9283 65.8091 70.9638C65.8426 70.8881 65.8889 70.8168 65.9485 70.7571ZM66.9112 70.7583C66.9711 70.8182 67.0182 70.8879 67.0518 70.9638C67.0361 70.9282 67.0182 70.8929 66.9965 70.8605C66.972 70.8237 66.9429 70.79 66.9112 70.7583ZM66.297 70.5708C66.3407 70.5621 66.3853 70.5588 66.4305 70.5588C66.5149 70.5588 66.5971 70.5759 66.6744 70.6057C66.6382 70.5917 66.6009 70.5784 66.5627 70.5708C66.5194 70.5622 66.4739 70.5576 66.4292 70.5576C66.3846 70.5577 66.3402 70.5622 66.297 70.5708Z" fill="#643BFF"/>
<path fill-rule="evenodd" clip-rule="evenodd" d="M28.9309 69.9446C29.1008 69.945 29.2703 69.979 29.4272 70.0444C29.5841 70.1098 29.7268 70.2064 29.8467 70.3268C29.9665 70.4473 30.062 70.5904 30.1268 70.7475C30.1914 70.9047 30.2245 71.0739 30.2241 71.2439L30.1941 78.8892C30.1922 79.2322 30.0553 79.5622 29.8118 79.8039C29.5682 80.0456 29.238 80.181 28.8948 80.1801C28.5519 80.1782 28.2217 80.04 27.9801 79.7967C27.7387 79.5531 27.6031 79.2226 27.6039 78.8796L27.634 71.2343C27.6347 71.0649 27.6685 70.8966 27.7337 70.7403C27.7992 70.5836 27.8946 70.4406 28.015 70.3208C28.1354 70.2011 28.2787 70.1066 28.4357 70.042C28.5926 69.9774 28.7612 69.9443 28.9309 69.9446ZM28.4212 79.3676C28.42 79.3664 28.4188 79.3652 28.4176 79.364L28.4164 79.3628C28.4177 79.364 28.42 79.3663 28.4212 79.3676ZM28.9296 70.56C28.8408 70.5598 28.7522 70.5767 28.67 70.6105L28.5522 70.673C28.5153 70.6975 28.4805 70.7257 28.4489 70.7571C28.3858 70.8199 28.3354 70.8949 28.301 70.977C28.2668 71.059 28.2497 71.1478 28.2494 71.2367C28.2496 71.1475 28.2679 71.0605 28.3023 70.9782C28.3366 70.896 28.3869 70.8212 28.4501 70.7583C28.5133 70.6954 28.5888 70.6456 28.6712 70.6117C28.7536 70.5779 28.8419 70.561 28.9309 70.5612C29.02 70.5614 29.1082 70.5786 29.1905 70.6129C29.1081 70.5786 29.0188 70.5602 28.9296 70.56Z" fill="#643BFF"/>
<path fill-rule="evenodd" clip-rule="evenodd" d="M57.2146 25.6962C57.509 25.5192 57.862 25.4667 58.1953 25.5495L61.8263 26.4558C62.1337 26.5313 62.4022 26.7171 62.5823 26.9774C62.7629 27.2386 62.8409 27.5576 62.8023 27.8728C62.7635 28.188 62.6103 28.478 62.372 28.6877C62.1339 28.8972 61.8273 29.0112 61.5102 29.0098C61.4041 29.0095 61.2981 28.9973 61.1953 28.9714L57.5691 28.0651C57.2358 27.982 56.9494 27.7694 56.7723 27.475C56.5952 27.1804 56.5414 26.8278 56.6244 26.4942C56.7075 26.1606 56.92 25.8733 57.2146 25.6962ZM61.9657 28.2262C61.9044 28.2801 61.834 28.3201 61.759 28.3488C61.7956 28.3348 61.8322 28.3197 61.866 28.2995C61.9012 28.2784 61.9345 28.2536 61.9657 28.2262ZM62.0763 27.3272C62.1203 27.3909 62.1512 27.4616 62.1713 27.5351C62.1621 27.5012 62.152 27.4675 62.1376 27.4353C62.1207 27.3977 62.1 27.3615 62.0763 27.3272Z" fill="#0FDAC2"/>
<path fill-rule="evenodd" clip-rule="evenodd" d="M20.7931 18.7587C20.9584 18.7194 21.1301 18.7127 21.2979 18.7395C22.6397 18.9547 23.9714 19.2374 25.2846 19.5869L25.3964 19.6229C25.6531 19.7167 25.8752 19.8894 26.0286 20.1181C26.2037 20.3794 26.2784 20.6957 26.2377 21.0075C26.1969 21.3194 26.0437 21.6065 25.8075 21.814C25.571 22.0214 25.2662 22.1361 24.9517 22.1361L24.9505 22.1349C24.8376 22.1352 24.7243 22.1221 24.6152 22.0928C23.3876 21.7658 22.1437 21.5011 20.8892 21.3008C20.7213 21.2739 20.5594 21.2143 20.4145 21.1253C20.2695 21.0362 20.143 20.9182 20.0431 20.7804C19.9434 20.6426 19.8711 20.4866 19.8316 20.3212C19.7921 20.1556 19.7867 19.9833 19.8135 19.8152C19.8678 19.4758 20.0544 19.172 20.3328 18.9703C20.4706 18.8704 20.6275 18.7982 20.7931 18.7587ZM25.4012 21.3513C25.277 21.4603 25.117 21.5196 24.9517 21.5195H24.9493L24.9505 21.5207L25.0743 21.5099C25.1141 21.5027 25.1531 21.4916 25.1909 21.4775C25.2291 21.4632 25.2663 21.4456 25.3015 21.4246L25.4012 21.3513ZM20.9854 20.6926C21.9421 20.8454 22.8929 21.0344 23.8351 21.2599L22.8904 21.046C22.2588 20.9118 21.6233 20.7944 20.9854 20.6926ZM20.5924 19.5568C20.532 19.6223 20.4851 19.6992 20.4541 19.7828C20.4388 19.8242 20.4276 19.8683 20.4205 19.9126L20.4121 20.046C20.4138 20.0903 20.4198 20.1348 20.4301 20.1782C20.4405 20.2216 20.4546 20.264 20.4734 20.3044C20.4919 20.3448 20.5157 20.3836 20.5419 20.4198C20.4894 20.3473 20.4509 20.2652 20.4301 20.1782C20.4095 20.0913 20.4064 20.0008 20.4205 19.9126C20.4491 19.7344 20.5473 19.5738 20.6933 19.4679L20.5924 19.5568ZM25.126 20.1818C25.2007 20.2016 25.2709 20.234 25.3339 20.2768C25.3048 20.257 25.2745 20.2389 25.2426 20.2239C25.2057 20.2065 25.1659 20.1924 25.126 20.1818Z" fill="#0FDAC2"/>
<path fill-rule="evenodd" clip-rule="evenodd" d="M59.8708 9.02928C60.1922 9.07518 60.4848 9.24082 60.6905 9.49201C60.8962 9.74354 61.0002 10.0642 60.9814 10.3886C60.9624 10.7128 60.8228 11.0185 60.5895 11.2444L60.5703 11.2624L60.5499 11.2793L57.8119 13.504C57.5837 13.6949 57.2961 13.8013 56.9982 13.8045H56.991C56.724 13.8041 56.4628 13.7216 56.2446 13.5677C56.0266 13.4137 55.862 13.1953 55.7723 12.9439C55.6826 12.6923 55.6719 12.4188 55.7434 12.1615C55.815 11.904 55.9645 11.6745 56.1713 11.5052L56.1725 11.504L58.9333 9.25884L58.9537 9.24562C59.2216 9.06151 59.549 8.98351 59.8708 9.02928ZM57.4237 13.0256C57.3934 13.0516 57.3615 13.0753 57.3276 13.0953L57.4237 13.0256ZM56.5199 12.998C56.5449 13.0222 56.5718 13.0451 56.6004 13.0653C56.5715 13.0449 56.5438 13.0212 56.5187 12.9968L56.5199 12.998ZM60.3672 10.3514C60.3626 10.4312 60.343 10.5087 60.3119 10.5809C60.3262 10.5474 60.3391 10.5131 60.348 10.4776L60.3672 10.3514Z" fill="#0FDAC2"/>
<path fill-rule="evenodd" clip-rule="evenodd" d="M28.037 4.45961C28.3797 4.48468 28.6993 4.64438 28.924 4.90432C29.7538 5.86486 30.513 6.88559 31.1944 7.95597L31.4817 8.41751C31.6593 8.7112 31.7136 9.06488 31.6319 9.39826C31.5506 9.72981 31.341 10.0155 31.0502 10.1939C30.8473 10.3198 30.6135 10.3865 30.3747 10.3862L30.3723 10.3874C30.1507 10.3872 29.9322 10.33 29.7389 10.2216C29.5446 10.1125 29.3811 9.95402 29.2654 9.76365C28.5868 8.6476 27.8154 7.58846 26.9613 6.60022C26.7367 6.34012 26.6251 6.00067 26.65 5.65792C26.6751 5.31535 26.8349 4.99682 27.0947 4.77211C27.3549 4.54735 27.6941 4.43464 28.037 4.45961ZM30.7257 9.6711C30.6202 9.73649 30.4988 9.77116 30.3747 9.77086C30.4057 9.77093 30.4368 9.77026 30.4673 9.76605C30.5282 9.75763 30.5876 9.74032 30.6439 9.71557C30.6723 9.70306 30.7003 9.68879 30.7269 9.6723C30.7636 9.64998 30.7964 9.62259 30.8278 9.59418C30.7964 9.62253 30.7624 9.6488 30.7257 9.6711ZM27.263 5.70359L27.2666 5.837C27.2715 5.87666 27.28 5.91563 27.2918 5.95359C27.2669 5.87317 27.2567 5.78918 27.263 5.70359Z" fill="#0FDAC2"/>
<path fill-rule="evenodd" clip-rule="evenodd" d="M43.9972 1.00773C44.3318 1.04476 44.6396 1.21097 44.8541 1.47046C45.0687 1.73028 45.1743 2.06481 45.1474 2.40074L45.1462 2.40915L45.145 2.41877L44.6198 7.16151C44.5869 7.4793 44.4382 7.77504 44.2015 7.98962C43.9648 8.20401 43.6566 8.32328 43.3373 8.32496H43.2267L43.1943 8.32135C43.0236 8.30318 42.858 8.2513 42.7075 8.16871C42.5569 8.08596 42.4238 7.97384 42.3169 7.83939C42.21 7.70489 42.1304 7.55039 42.0837 7.38506C42.0377 7.22191 42.0244 7.05104 42.0441 6.88267L42.5693 2.13512L42.5705 2.1255L42.5717 2.11709C42.6184 1.78322 42.7936 1.48033 43.0597 1.27335C43.3257 1.06669 43.6623 0.970906 43.9972 1.00773ZM43.4587 7.69756L43.5477 7.67352C43.5531 7.67169 43.5579 7.66828 43.5633 7.66631C43.5291 7.67876 43.4946 7.69072 43.4587 7.69756ZM44.008 7.09781C43.9994 7.18128 43.9755 7.26216 43.9383 7.33579L43.9839 7.2216C43.9957 7.18188 44.0037 7.13958 44.008 7.09781Z" fill="#0FDAC2"/>
<path fill-rule="evenodd" clip-rule="evenodd" d="M35.5457 11.1371C37.9401 10.1376 41.6276 9.26977 46.3124 10.2272C48.921 10.7599 51.2992 11.9648 53.0491 13.6587L53.3905 14.0036L53.3953 14.0084C54.8633 15.5937 55.8645 17.5545 56.2883 19.6731C56.712 21.7915 56.5418 23.9865 55.7967 26.0143L55.7943 26.0215C54.4659 29.522 51.5983 32.0024 49.0768 33.9181C48.3259 34.4892 47.5794 35.0595 46.9963 35.6885C46.4153 36.3155 46.054 36.942 45.9927 37.6092L45.9915 37.6164C45.9584 37.9363 45.8077 38.2332 45.5685 38.4481C45.3297 38.6623 45.019 38.7783 44.6983 38.7774L44.6057 38.7786L44.5769 38.7762C44.4073 38.7603 44.2418 38.7116 44.0913 38.632C43.9407 38.5522 43.8079 38.4424 43.6995 38.3111C43.591 38.1797 43.5089 38.0281 43.4591 37.8652C43.4094 37.7023 43.3921 37.531 43.4086 37.3616C43.5349 36.0339 44.1788 34.954 44.9663 34.0683C45.7482 33.189 46.708 32.4629 47.5131 31.8556C49.867 30.0674 52.299 27.9243 53.3725 25.1009C53.9501 23.5268 54.0825 21.8233 53.7535 20.1791C53.4239 18.5327 52.6449 17.009 51.5035 15.7777C50.111 14.3093 48.0865 13.231 45.7932 12.7633C41.4606 11.8772 38.1592 12.7863 36.1623 13.6935C33.5552 14.8777 31.8264 16.6623 30.6864 19.3762L30.6852 19.3774C29.5184 22.1486 29.9753 25.3412 31.6708 27.1417C31.8091 27.2891 31.954 27.4327 32.1059 27.578L32.5866 28.0275L32.5878 28.0287C32.869 28.2909 33.1767 28.5754 33.4724 28.8785C35.3687 30.8264 36.6067 33.3162 37.0205 35.9974C37.381 33.6711 37.6145 31.0461 37.22 28.5155C36.3032 28.2486 35.4779 27.7251 34.8474 26.9999C34.4684 26.5816 34.1806 26.0873 34.0025 25.5516C33.8228 25.011 33.758 24.4383 33.8138 23.8713L33.815 23.8617C33.9193 22.9617 34.4049 22.1522 35.2344 21.8389L35.464 21.7668C36.6103 21.4755 37.6649 22.2671 38.2536 23.3821L38.2548 23.3833C38.6942 24.2184 39.0472 25.0954 39.3125 25.9999C39.5469 25.937 39.7745 25.8514 39.9916 25.7427C39.6006 24.5415 39.551 23.173 39.8221 21.756L39.8726 21.5228C40.0057 20.974 40.2432 20.4026 40.6118 19.9387C41.0429 19.3964 41.6739 18.982 42.5036 18.982H42.5144C43.7879 18.9824 44.6304 20.0125 44.9411 20.8798C45.4664 22.343 45.0176 23.7441 44.5 24.7247C45.3859 24.08 46.5341 23.8683 47.5168 24.2884C47.5203 24.2898 47.5252 24.2918 47.5288 24.2932C47.5326 24.2948 47.5369 24.2963 47.5408 24.298C47.9478 24.4631 48.2866 24.757 48.5071 25.1333L48.5961 25.3028L48.6033 25.3196L48.6105 25.3377C48.7975 25.8163 48.7976 26.3482 48.6105 26.8268L48.6093 26.8256C48.0683 28.415 46.4446 29.4592 44.7512 29.4782C43.8638 32.0985 43.406 34.8468 43.3966 37.6152C43.3965 37.7844 43.3638 37.9526 43.2992 38.1092C43.2342 38.2667 43.1385 38.4104 43.018 38.531C42.8973 38.6517 42.7526 38.7471 42.5949 38.8123C42.4373 38.8773 42.2678 38.9112 42.0973 38.9108H42.0925C41.9227 38.909 41.7548 38.8728 41.5985 38.8063C41.442 38.7395 41.2994 38.6429 41.1803 38.5214C41.0613 38.3999 40.9674 38.2561 40.9038 38.0983C40.8403 37.9404 40.8083 37.771 40.8101 37.6007C40.8183 34.5885 41.3104 31.5983 42.2656 28.7439C41.9214 28.5242 41.6037 28.2656 41.3197 27.9722C40.8544 28.2234 40.3595 28.4151 39.8462 28.5407C40.2458 31.5741 39.8895 34.6155 39.4627 37.1416L39.4615 37.1488C39.4004 37.4841 39.2093 37.7825 38.9303 37.9781C38.6512 38.1736 38.3059 38.2513 37.97 38.1945C37.634 38.1376 37.3338 37.9505 37.1346 37.6741C37.0179 37.5118 36.9426 37.3256 36.9099 37.132C36.88 37.1847 36.8475 37.2373 36.8101 37.2858C36.6004 37.5577 36.2912 37.7355 35.9508 37.7798C35.7823 37.8017 35.6101 37.7904 35.446 37.7462C35.2817 37.7018 35.1265 37.6253 34.9916 37.5214C34.7194 37.3116 34.5419 37.0017 34.4977 36.6609C34.2088 34.414 33.1995 32.3199 31.6215 30.6946L31.2381 30.3172C31.107 30.192 30.9718 30.0661 30.8294 29.9374L30.8234 29.9326C30.4905 29.6239 30.1268 29.2868 29.7826 28.9206C27.3034 26.2876 26.7502 22.0463 28.297 18.3738C29.6946 15.0531 31.8641 12.8031 35.0842 11.3378L35.5457 11.1371ZM41.8389 38.2402C41.7977 38.2226 41.7591 38.2016 41.7223 38.1765L41.8389 38.2402ZM44.173 37.9205C44.2015 37.9549 44.2333 37.9863 44.268 38.0142L44.173 37.9205ZM45.1574 37.9902L45.2223 37.9229C45.2262 37.9182 45.2281 37.912 45.2319 37.9072C45.2088 37.9361 45.1853 37.9652 45.1574 37.9902ZM37.5709 37.2053C37.5886 37.2428 37.6089 37.2793 37.6334 37.3135C37.6859 37.3863 37.7519 37.4471 37.8269 37.4938C37.7526 37.4474 37.6869 37.3871 37.6346 37.3147C37.6099 37.2803 37.5887 37.2432 37.5709 37.2053ZM37.5253 37.0767C37.5044 36.9906 37.5005 36.9003 37.5145 36.8111L37.506 36.9433C37.5078 36.9884 37.5147 37.033 37.5253 37.0767ZM35.8714 37.1693L35.97 37.1488C35.9755 37.1473 35.9802 37.1433 35.9856 37.1416C35.9483 37.1532 35.9107 37.1642 35.8714 37.1693ZM34.8558 35.2618C34.9292 35.5502 34.992 35.842 35.0421 36.1368C34.967 35.6945 34.8651 35.2587 34.738 34.8315L34.8558 35.2618ZM45.0612 34.9241C44.7612 35.319 44.5037 35.7413 44.3197 36.2005L44.4891 35.8267C44.6491 35.5085 44.8444 35.2094 45.0612 34.9241ZM31.2417 29.4818C31.5338 29.746 31.7983 29.9977 32.059 30.2619C32.8953 31.1225 33.5813 32.1071 34.0962 33.1741L33.8955 32.7787C33.408 31.8635 32.7909 31.015 32.059 30.2619C31.7983 29.9977 31.5338 29.746 31.2417 29.4818ZM37.762 28.0167C38.0376 29.526 38.0863 31.0682 38.0108 32.5611L38.0337 31.9998C38.0713 30.6837 38.0032 29.3376 37.762 28.0167ZM46.7487 26.185C46.5582 26.7451 46.0559 27.1865 45.4531 27.3905L45.6021 27.334C46.1382 27.1115 46.5742 26.6986 46.7487 26.185C46.7564 26.1632 46.7628 26.1402 46.768 26.1177L46.7487 26.185ZM45.0168 25.1153C44.8519 25.22 44.6951 25.3437 44.5492 25.4843C44.4909 25.5446 44.4335 25.6063 44.3786 25.6694C44.3236 25.7325 44.2703 25.7971 44.2187 25.8629C43.9609 26.192 43.7469 26.5538 43.5817 26.9386C43.813 26.3998 44.1407 25.9068 44.5492 25.4843C44.7439 25.2967 44.9589 25.14 45.185 25.0167L45.0168 25.1153ZM39.369 26.6237C39.2927 26.6421 39.2156 26.6576 39.1382 26.6718C39.2988 26.6425 39.4574 26.6051 39.613 26.5576L39.369 26.6237ZM40.2091 26.322C40.0922 26.3783 39.9736 26.4307 39.8522 26.4759L40.0865 26.3809C40.128 26.3626 40.1683 26.3417 40.2091 26.322ZM35.083 26.3172C35.1185 26.3654 35.1555 26.4127 35.1936 26.459L35.083 26.3172C35.0473 26.2688 35.0127 26.2184 34.9796 26.1682L35.083 26.3172ZM45.8918 26.185C45.8252 26.2168 45.7607 26.2527 45.6995 26.2944L45.8112 26.2259C45.8376 26.2112 45.8646 26.198 45.8918 26.185ZM53.7174 25.8737C53.6898 25.9349 53.6585 25.9947 53.6297 26.0552C53.7441 25.8147 53.8527 25.5707 53.9482 25.3196L53.7174 25.8737ZM35.452 22.4146C35.3825 22.4409 35.3151 22.4725 35.2513 22.5096C35.1235 22.5837 35.0073 22.679 34.9051 22.792C34.6496 23.0743 34.4804 23.4692 34.4267 23.9314C34.5125 23.1911 34.8954 22.6246 35.452 22.4146ZM34.232 12.458C31.7582 13.8477 30.0346 15.8291 28.8631 18.613C27.9913 20.6828 27.8313 22.9244 28.3234 24.9122L28.2513 24.5961C27.8506 22.6889 28.0372 20.5738 28.8631 18.613C30.1182 15.6304 32.0081 13.5691 34.7741 12.1695L34.232 12.458ZM36.0012 23.7055C36.0603 23.737 36.1493 23.806 36.2476 23.9182L36.1671 23.8329C36.1014 23.7693 36.0435 23.7278 36.0012 23.7055ZM42.5096 21.7836C42.471 21.871 42.4362 21.9714 42.4074 22.0769L42.3678 22.2463C42.3011 22.5968 42.2501 23.0042 42.2452 23.4338C42.3076 23.3083 42.3698 23.1748 42.4207 23.0348C42.5827 22.5889 42.6347 22.1558 42.5096 21.7836ZM54.4169 20.3894C54.4894 20.8304 54.5307 21.2746 54.5419 21.7187C54.5476 21.9412 54.5455 22.1637 54.5359 22.3858C54.5263 22.6074 54.509 22.8287 54.4842 23.0492C54.5833 22.1664 54.5621 21.2722 54.4169 20.3894ZM40.2861 22.9278C40.2848 22.945 40.2848 22.9623 40.2837 22.9795C40.295 22.8015 40.3122 22.6215 40.3353 22.4398L40.2861 22.9278ZM29.9052 19.6971C29.8964 19.7226 29.8884 19.7484 29.8799 19.774C29.8895 19.7452 29.8989 19.7162 29.9088 19.6875L29.9052 19.6971ZM53.7631 18.1466C53.9814 18.6571 54.1562 19.187 54.2847 19.7307L54.203 19.4062C54.0853 18.9753 53.9379 18.5554 53.7631 18.1466ZM51.0492 14.5217C51.3719 14.7845 51.6747 15.0642 51.9542 15.3594C52.1828 15.606 52.3977 15.8637 52.5984 16.131L52.3941 15.8666C52.2541 15.6929 52.1065 15.5237 51.9542 15.3594C51.5813 14.9655 51.1682 14.6 50.7198 14.2645L51.0492 14.5217ZM45.917 12.1611C46.3673 12.253 46.8084 12.3679 47.2379 12.5037C47.3811 12.5489 47.5229 12.5967 47.6634 12.6467C48.6472 12.9963 49.5633 13.4583 50.3773 14.0181L50.0227 13.7849C48.8194 13.025 47.4188 12.4674 45.917 12.1611ZM38.8113 12.1659C38.6806 12.1951 38.5528 12.2281 38.4267 12.2597C38.7373 12.1819 39.0612 12.1087 39.399 12.0469L38.8113 12.1659ZM39.131 10.714C38.0429 10.9144 37.0824 11.202 36.2597 11.5145L36.7705 11.3306C37.6481 11.0306 38.6615 10.768 39.8005 10.6046L39.131 10.714ZM41.256 10.4592C40.9983 10.4743 40.7459 10.4941 40.4988 10.5193L41.2272 10.4604C41.2368 10.4598 41.2464 10.4598 41.256 10.4592ZM42.2848 19.6106L42.0901 19.6466C42.0865 19.6475 42.0829 19.6481 42.0793 19.649C42.1457 19.632 42.2143 19.6194 42.2848 19.6106Z" fill="#643BFF"/>
<path d="M45.8082 36.862C45.478 38.1735 45.0924 39.4691 44.6514 40.749C44.2069 42.0424 43.6783 43.362 42.6913 44.3088C42.1442 44.8344 41.4795 45.2215 40.7524 45.4379C40.0253 45.6543 39.257 45.6937 38.5116 45.5527C37.7662 45.4118 37.0653 45.0946 36.4675 44.6276C35.8696 44.1607 35.3921 43.5575 35.0748 42.8684C34.8039 42.2289 34.6163 41.5572 34.5165 40.8698C34.2172 39.1599 34.0877 37.4203 34.4132 35.6055C38.085 36.0255 41.7637 36.3633 45.8082 36.862Z" fill="#0FDAC2"/>
<path d="M39.3634 46.3148C39.0352 46.3153 38.7076 46.2848 38.3851 46.2238C37.5352 46.057 36.7367 45.6923 36.054 45.1593C35.3714 44.6263 34.824 43.9399 34.4561 43.1559C34.159 42.4633 33.9537 41.735 33.8453 40.9892C33.4795 38.8891 33.4463 37.139 33.7421 35.4869C33.7725 35.3162 33.867 35.1635 34.0062 35.0601C34.1454 34.9567 34.3189 34.9103 34.4911 34.9304C36.1135 35.1194 37.7096 35.2804 39.3914 35.4676C41.4723 35.6864 43.6232 35.9139 45.8826 36.1887C45.9785 36.2002 46.0709 36.232 46.1536 36.282C46.2363 36.332 46.3073 36.3991 46.362 36.4788C46.4167 36.5585 46.4537 36.6489 46.4706 36.744C46.4875 36.8392 46.484 36.9369 46.4601 37.0305C46.1258 38.3553 45.7321 39.6819 45.2875 40.9735C44.843 42.2651 44.2777 43.7229 43.1559 44.8027C42.1304 45.7713 40.774 46.3121 39.3634 46.3148ZM34.9881 36.3585C34.8271 37.678 34.8936 39.0641 35.1877 40.7547C35.2784 41.384 35.449 41.9992 35.6952 42.5854C35.9667 43.1761 36.3756 43.6934 36.8878 44.0938C37.4 44.4943 38.0006 44.7664 38.6394 44.8873C39.2782 45.0083 39.9367 44.9746 40.5599 44.7891C41.183 44.6036 41.7527 44.2716 42.2213 43.8209C43.1244 42.9459 43.6214 41.6665 44.0082 40.5307C44.3582 39.5174 44.6733 38.4848 44.9533 37.447C42.9844 37.2143 41.0943 37.0147 39.2584 36.8205C37.7883 36.6595 36.3935 36.5142 34.9864 36.3515L34.9881 36.3585Z" fill="#0FDAC2"/>
<path fill-rule="evenodd" clip-rule="evenodd" d="M18.8503 63.036C19.9369 62.8423 21.1064 62.72 22.3009 62.8725C23.1431 62.9789 23.9668 63.2201 24.7504 63.5876L24.8406 63.6357C24.9859 63.7219 25.1052 63.839 25.1951 63.9722L25.2889 64.1393L25.355 64.316C25.4073 64.4969 25.4179 64.688 25.3887 64.8725C25.3497 65.1182 25.238 65.3592 25.0509 65.5443C24.8617 65.7314 24.6035 65.8514 24.3178 65.852L24.3166 65.3292L24.3129 65.852C24.1639 65.8509 24.0186 65.817 23.8863 65.7559L23.8827 65.7547C23.2908 65.4778 22.6723 65.2974 22.0449 65.2174C20.8028 65.0606 19.5138 65.2909 18.212 65.5648L18.2108 65.5636C18.0597 65.5967 17.9034 65.5965 17.7529 65.56C17.5971 65.5219 17.4548 65.4479 17.3359 65.3508C17.2175 65.2541 17.1231 65.1347 17.0534 65.0059C16.9838 64.877 16.9386 64.7367 16.9176 64.5948C16.8967 64.4531 16.8992 64.3079 16.926 64.167C16.9529 64.0258 17.0041 63.8869 17.0798 63.7607L17.1423 63.6682C17.2085 63.5786 17.2885 63.4972 17.3815 63.429L17.4789 63.3653C17.5748 63.3099 17.6805 63.2689 17.7926 63.2463L18.8503 63.036Z" fill="#0FDAC2"/>
<path fill-rule="evenodd" clip-rule="evenodd" d="M58.5506 62.822C59.9658 62.7577 61.6272 62.8174 63.0914 63.6429C63.1914 63.699 63.2813 63.7697 63.3606 63.852L63.4363 63.9386L63.5024 64.0311C63.5643 64.1276 63.6118 64.233 63.6431 64.3436C63.6847 64.4911 63.697 64.6458 63.6791 64.798C63.6611 64.9502 63.6134 65.098 63.5385 65.2318C63.4636 65.3655 63.363 65.4831 63.2428 65.578C63.1225 65.6728 62.9841 65.7431 62.8366 65.7847C62.6892 65.8263 62.5344 65.8387 62.3823 65.8208C62.2303 65.8027 62.0831 65.7548 61.9496 65.6802C60.8958 65.09 59.5045 65.1022 58.1107 65.1886C57.0193 65.2582 55.8557 65.3709 54.8571 65.7703L54.8511 65.7727C54.7144 65.8256 54.5685 65.8522 54.422 65.852H54.4184C54.1485 65.85 53.8868 65.7553 53.6792 65.5828C53.4715 65.4101 53.3302 65.1701 53.279 64.9049C53.2279 64.6399 53.2696 64.3648 53.398 64.1273L53.5098 63.959C53.6338 63.8019 53.7971 63.6775 53.9845 63.6009L53.9881 63.5996C55.3382 63.0587 56.7856 62.9324 57.9604 62.8557L58.5506 62.822Z" fill="#0FDAC2"/>
<path fill-rule="evenodd" clip-rule="evenodd" d="M16.801 53.1202C16.9438 53.1126 17.0885 53.1297 17.2265 53.1707C17.3298 53.2014 17.4304 53.246 17.5234 53.3041L17.6147 53.3678L17.6988 53.4387C17.7806 53.5148 17.8525 53.604 17.9092 53.7043L17.908 53.7055C18.4432 54.6495 19.3877 55.3799 20.4139 55.6538C21.4541 55.9285 22.5864 55.7187 23.2889 55.2043L23.4235 55.0973C23.5329 55.0012 23.6587 54.9282 23.7913 54.8786L23.8959 54.8449C24.0013 54.8159 24.1105 54.8002 24.2192 54.7993C24.3641 54.7981 24.5104 54.8225 24.6483 54.8714C24.7514 54.9081 24.8506 54.9594 24.9415 55.024L25.0305 55.0937L25.1122 55.1719C25.19 55.2546 25.2559 55.3505 25.3057 55.4567C25.3724 55.599 25.4078 55.7558 25.4055 55.9158C25.4031 56.0759 25.3629 56.2313 25.2925 56.3714C25.2229 56.5096 25.1245 56.627 25.0101 56.7223L25.0113 56.7235C24.0252 57.5497 22.7196 57.994 21.3791 57.9831L21.3743 57.9843C20.8317 57.9841 20.2912 57.9137 19.7709 57.7752C18.1059 57.3347 16.6703 56.2299 15.8287 54.7356L15.8275 54.7368C15.7519 54.6026 15.7053 54.4518 15.694 54.2945C15.6828 54.137 15.7076 53.9801 15.765 53.8353L15.8142 53.7308C15.8679 53.6292 15.9372 53.5377 16.0174 53.4591L16.1003 53.3846C16.1865 53.3153 16.2817 53.2587 16.3815 53.2163C16.5149 53.1599 16.6581 53.1279 16.801 53.1202ZM17.6243 54.4026C17.629 54.4092 17.6341 54.4154 17.6387 54.4219C17.6312 54.4114 17.6233 54.4011 17.6159 54.3906L17.6243 54.4026Z" fill="#0FDAC2"/>
<path fill-rule="evenodd" clip-rule="evenodd" d="M54.5891 53.1274L54.6972 53.1526L54.803 53.1899C55.0079 53.2721 55.1826 53.4124 55.3078 53.5901L55.3655 53.6815L55.3727 53.6947L55.3799 53.7067C55.6454 54.2243 56.022 54.6671 56.4773 55C56.9326 55.3327 57.4547 55.5475 58.0001 55.6286C58.5454 55.7095 59.1024 55.6547 59.6251 55.4687C60.1478 55.2826 60.6244 54.9691 61.0145 54.5517C61.1142 54.443 61.235 54.3539 61.3702 54.2909L61.4772 54.2476C61.5854 54.2102 61.6996 54.1889 61.8149 54.1863L61.9303 54.1899C62.0446 54.1993 62.1572 54.2267 62.2633 54.2704C62.3694 54.3142 62.4682 54.3745 62.5553 54.4471L62.6395 54.5252L62.7152 54.6094C62.7858 54.6974 62.8424 54.796 62.8847 54.9002C62.9269 55.0046 62.9541 55.1145 62.9652 55.2259L62.9712 55.3377L62.9664 55.4495C62.9562 55.5609 62.9297 55.6706 62.8883 55.7752C62.8336 55.9132 62.7514 56.0394 62.6479 56.1478L62.6491 56.149C62.104 56.7233 61.4542 57.1825 60.7368 57.4963C60.0197 57.81 59.249 57.9733 58.47 57.9759C58.2061 57.9762 57.9404 57.956 57.6792 57.917H57.6744C56.7714 57.7756 55.9135 57.4171 55.1684 56.8726C54.4233 56.3278 53.8105 55.6108 53.3775 54.7812L53.3703 54.7668L53.3631 54.7512C53.2434 54.4875 53.225 54.1878 53.3114 53.9123L53.3487 53.8101C53.4461 53.5776 53.6183 53.3792 53.8439 53.2524C54.0707 53.1252 54.3345 53.0808 54.5891 53.1274ZM57.7693 57.3088C57.6686 57.2931 57.5694 57.2741 57.47 57.2524L57.7693 57.3088ZM55.5314 56.3762C55.6147 56.4371 55.6998 56.496 55.7862 56.5516C55.8725 56.6073 55.9603 56.6601 56.0494 56.7103C55.8713 56.6099 55.698 56.498 55.5314 56.3762ZM53.9941 53.9171C53.9795 53.9353 53.9679 53.9558 53.9557 53.976C53.9853 53.9271 54.0209 53.8827 54.0638 53.8461L53.9941 53.9171Z" fill="#0FDAC2"/>
</svg>
