<svg width="56" height="57" viewBox="0 0 56 57" fill="none" xmlns="http://www.w3.org/2000/svg">
<rect y="0.578125" width="56" height="56" rx="8" fill="#E1DDFF"/>
<path d="M23.7152 42.7074C23.6217 42.7087 23.5315 42.6662 23.4636 42.5891C23.3958 42.5119 23.3557 42.4061 23.3519 42.2941C23.348 42.1821 23.3807 42.0726 23.443 41.9891C23.5053 41.9055 23.5924 41.8543 23.6856 41.8464C26.6789 41.5434 29.6837 41.4368 32.6866 41.5272C32.782 41.5285 32.8729 41.5752 32.9396 41.657C33.0062 41.7388 33.043 41.8489 33.0419 41.9633C33.0408 42.0776 33.0019 42.1867 32.9337 42.2666C32.8655 42.3465 32.7736 42.3907 32.6783 42.3893H32.669C29.692 42.3002 26.7131 42.4064 23.7457 42.7074H23.7152Z" fill="black"/>
<path d="M23.7447 45.1293C23.6443 45.1287 23.5479 45.0888 23.475 45.0178C23.4021 44.9468 23.3582 44.8498 23.3523 44.7467C23.3463 44.6437 23.3787 44.5421 23.4429 44.4627C23.5071 44.3833 23.5983 44.332 23.698 44.3192C26.6701 43.9455 29.6677 43.8326 32.6585 43.9815C32.7109 43.9832 32.7626 43.9955 32.8104 44.0179C32.8582 44.0403 32.9011 44.0722 32.9368 44.1118C32.9725 44.1515 33.0001 44.198 33.018 44.2487C33.036 44.2995 33.044 44.3534 33.0415 44.4073C33.039 44.4613 33.0261 44.5141 33.0035 44.5629C32.9809 44.6116 32.9491 44.6553 32.91 44.6912C32.8708 44.7272 32.8251 44.7548 32.7754 44.7724C32.7258 44.79 32.6732 44.7972 32.6208 44.7937C29.6746 44.6467 26.7215 44.7579 23.7935 45.1261L23.7447 45.1293Z" fill="black"/>
<path d="M23.7135 46.3402C23.6208 46.3404 23.5316 46.2999 23.4643 46.2272C23.397 46.1545 23.3568 46.0551 23.352 45.9495C23.3473 45.844 23.3783 45.7404 23.4386 45.6602C23.499 45.5799 23.5841 45.5292 23.6764 45.5185C26.2657 45.2049 28.8701 45.0804 31.4734 45.1458C31.5693 45.1471 31.6607 45.1917 31.7277 45.2698C31.7947 45.348 31.8318 45.4532 31.8306 45.5625C31.8295 45.6717 31.7904 45.776 31.7218 45.8523C31.6533 45.9287 31.5609 45.9709 31.465 45.9696H31.4567C28.8844 45.9044 26.311 46.0275 23.7526 46.3381L23.7135 46.3402Z" fill="black"/>
<path d="M16.4281 26.9596H16.393C16.303 26.9498 16.2204 26.9032 16.1631 26.83C16.1059 26.7567 16.0787 26.6627 16.0876 26.5685C16.2479 25.0008 16.7101 23.4833 17.4463 22.1074C18.1825 20.7316 19.1775 19.5259 20.3713 18.5632C20.4067 18.5323 20.4478 18.5092 20.492 18.4954C20.5362 18.4816 20.5826 18.4773 20.6284 18.4828C20.6742 18.4882 20.7185 18.5034 20.7586 18.5272C20.7987 18.5511 20.8338 18.5832 20.8616 18.6216C20.8895 18.66 20.9097 18.704 20.9209 18.7508C20.9321 18.7976 20.9341 18.8463 20.9269 18.8939C20.9196 18.9415 20.9031 18.9871 20.8786 19.028C20.854 19.0688 20.8217 19.1039 20.7838 19.1314C19.6643 20.0343 18.7312 21.1651 18.0409 22.4554C17.3505 23.7458 16.9171 25.169 16.7669 26.6392C16.7582 26.7269 16.7188 26.8082 16.6562 26.8674C16.5937 26.9265 16.5124 26.9594 16.4281 26.9596Z" fill="#0FDAC2"/>
<path d="M27.5137 14.2559L27.6074 14.2793L27.6983 14.3125C27.7573 14.3376 27.8136 14.369 27.8662 14.4053L27.9414 14.4639L28.0117 14.5293C28.0557 14.5751 28.095 14.6254 28.1289 14.6787L28.1748 14.7608L28.2139 14.8477C28.2455 14.9297 28.2652 15.0162 28.2735 15.1035L28.3262 15.5938L28.5342 17.5899C28.5737 17.9836 28.6086 18.3646 28.6397 18.7158C29.5139 18.6627 30.4064 18.9278 31.0908 19.4873L31.2608 19.6358L31.2627 19.6367C32.3207 20.638 32.6409 22.2906 32.0069 23.5967L32.0049 23.5948C31.6969 24.2328 31.0861 24.6971 30.4658 24.9903C30.0447 25.1892 29.5784 25.3266 29.1221 25.3897C29.1377 25.7391 29.1491 26.0854 29.1563 26.418C29.1632 26.7383 29.1737 27.049 29.1865 27.3496C29.6683 27.3287 30.1748 27.3021 30.6768 27.2715C31.5443 27.2187 32.4632 27.1638 33.2744 27.1582H33.2803C33.5153 27.159 33.74 27.248 33.9121 27.4043C34.041 27.5215 34.1348 27.6708 34.1846 27.834L34.2188 28.002L34.2197 28.003C34.236 28.1421 34.2499 28.2795 34.2647 28.418V28.419C34.3086 28.838 34.3511 29.1865 34.4151 29.4805C34.4791 29.7745 34.5575 29.9757 34.6494 30.1153C34.7879 30.3253 35.0409 30.5285 35.832 30.4932L35.9629 30.4805C36.2544 30.4438 36.4516 30.3308 36.6094 30.1504C36.8582 29.8648 36.9957 29.4184 37.0576 28.9727C37.0871 28.7605 37.0965 28.5693 37.0986 28.4307C37.0997 28.3619 37.0997 28.3063 37.0986 28.2696C37.0981 28.2518 37.0971 28.2381 37.0967 28.2295V28.2149C37.0823 27.9771 37.1556 27.7399 37.3067 27.5528L37.4346 27.4229C37.5731 27.3063 37.7437 27.2306 37.9277 27.208L38.3555 27.1709C38.9135 27.1334 39.8606 27.0943 41.1641 27.0508L41.1768 27.0489H41.1895C41.3761 27.0503 41.5556 27.1075 41.707 27.209L41.8486 27.3262L41.9649 27.4668C42.0324 27.5668 42.0804 27.6788 42.1065 27.7959L42.1299 27.9746L42.1182 28.1553C42.0901 28.3329 42.0119 28.5009 41.8906 28.6387C41.7282 28.823 41.4993 28.9388 41.251 28.9571L41.2276 28.96C40.1471 28.9961 39.43 29.0266 38.957 29.0508C38.8829 29.731 38.6667 30.684 38.0361 31.4092C37.4958 32.0304 36.7703 32.3582 35.9277 32.3994L35.9287 32.4004C35.8428 32.4059 35.7549 32.4082 35.6738 32.4082C35.0107 32.4082 34.4539 32.2805 33.9961 32.0303C33.5347 31.7781 33.2104 31.4208 32.9834 31.0225C32.6421 30.4234 32.5141 29.7083 32.4395 29.0938C31.91 29.1149 31.3504 29.1458 30.7949 29.1797H30.794C29.9794 29.229 29.1186 29.2805 28.3555 29.2901C28.4023 30.2079 28.4379 31.0244 28.4151 32.3145C28.4109 32.5567 28.3171 32.7929 28.1465 32.9717C27.9966 33.1287 27.7966 33.2314 27.5791 33.2588L27.4844 33.2657C27.0605 33.2763 26.6087 33.3387 26.2373 33.459C25.8451 33.5861 25.6502 33.7425 25.582 33.8604L25.5811 33.8594C25.2491 34.4357 25.2686 34.9082 25.4717 35.2491C25.7741 35.7525 26.5538 36.1362 27.6611 36.0371L27.6699 36.0362C27.899 36.0189 28.1227 36.0851 28.3037 36.2168L28.3779 36.2774L28.3848 36.2823C28.4557 36.3473 28.5162 36.4222 28.5645 36.5039L28.6094 36.5879L28.6445 36.6758C28.6551 36.7057 28.6643 36.736 28.6719 36.7666L28.6992 36.9541V36.9571C28.746 37.9792 28.7451 38.1769 28.7442 38.3555C28.7434 38.4993 28.7437 38.6426 28.8047 39.8672L28.7959 40.0518C28.7876 40.1129 28.7747 40.1736 28.7549 40.2325C28.7152 40.3503 28.6525 40.4612 28.5703 40.5567C28.488 40.6522 28.386 40.7321 28.2715 40.7891C28.1572 40.8459 28.0317 40.8787 27.9033 40.8858L27.8701 40.8877L27.835 40.8858L27.8194 40.8848V40.8838C27.5789 40.8745 27.3529 40.7747 27.1856 40.6075C27.0125 40.4344 26.9139 40.2033 26.9024 39.9639C26.8381 38.7249 26.8369 38.5495 26.8379 38.3448C26.8379 38.2674 26.8338 38.1832 26.8272 37.96C25.66 37.846 24.6098 37.3406 23.9824 36.4629L23.8447 36.251C23.2281 35.2231 23.3021 33.979 23.9385 32.878L24.0869 32.6514C24.4575 32.1548 24.9878 31.8549 25.4834 31.6709C25.8334 31.5411 26.1923 31.462 26.5156 31.4112C26.5133 30.5564 26.4808 29.9229 26.4385 29.1182C26.1352 29.1267 25.8316 29.1348 25.5322 29.1455H25.5313C24.7732 29.1716 24.1552 29.1911 23.6777 29.1856C23.2252 29.1803 22.8077 29.1544 22.5049 29.045H22.5039C22.2969 28.9698 22.1265 28.825 22.0147 28.6416C21.9031 28.4585 21.8547 28.2435 21.876 28.0323C21.9004 27.7908 21.8717 27.455 21.7969 27.0977C21.7227 26.7436 21.6125 26.4156 21.5078 26.1973V26.1963C21.4431 26.0615 21.306 25.9723 21.1328 25.918C20.7398 25.8106 20.3212 25.8646 19.9629 26.0723C19.4686 26.3892 19.1173 27.1783 19.249 28.0391L19.2598 28.1397C19.265 28.2393 19.2535 28.3395 19.2285 28.4366C19.1949 28.5665 19.1347 28.6903 19.0508 28.7969C18.9669 28.9033 18.8598 28.9925 18.7373 29.0557C18.6151 29.1186 18.4802 29.1539 18.3418 29.1592C16.8893 29.2145 15.4373 29.2536 14.0274 29.2705H14.0156V29.2696C13.7559 29.2703 13.5112 29.1646 13.334 28.9825C13.1567 28.8 13.0601 28.5558 13.0586 28.3067C13.0572 28.0579 13.1497 27.8133 13.3242 27.6289L13.3945 27.5635C13.5616 27.4192 13.7759 27.3346 14.0029 27.3321C15.0945 27.3177 16.2122 27.29 17.3369 27.2549C17.4533 26.1066 18.0236 25.0192 18.958 24.4278L18.9688 24.4209C19.3699 24.1794 19.8145 24.0227 20.2764 23.96C20.6229 23.913 20.9743 23.9195 21.3174 23.9795L21.6582 24.0576L21.668 24.0596L21.9219 24.1504C22.4974 24.3837 22.9558 24.7907 23.2246 25.3516L23.2305 25.3633C23.5014 25.9597 23.6752 26.5966 23.751 27.2481C24.22 27.2508 24.8473 27.2324 25.4658 27.211L26.3945 27.1817C26.6912 27.1733 26.9899 27.1657 27.2861 27.1621C27.2782 26.9243 27.2719 26.6888 27.2666 26.461V26.46C27.2525 25.7939 27.2368 25.1358 27.166 24.5274V24.5264C27.1486 24.3739 27.167 24.2181 27.2217 24.0742L27.2686 23.9688C27.322 23.867 27.3944 23.7754 27.4815 23.6983L27.5742 23.626C27.6701 23.5604 27.7782 23.5122 27.8926 23.4854L28.0078 23.4658C28.0854 23.4577 28.1641 23.4586 28.2412 23.4698L28.3555 23.4942L28.4473 23.5127C28.6826 23.5445 29.0635 23.5019 29.4658 23.3506C29.9348 23.1741 30.2239 22.9294 30.3076 22.7578C30.5637 22.2238 30.4242 21.4631 29.9668 21.0323C29.5092 20.6015 28.7733 20.4866 28.1758 20.7647L28.1738 20.7657C28.0327 20.8304 27.8773 20.8594 27.7217 20.8496C27.5662 20.8398 27.4158 20.7916 27.2842 20.71C27.1526 20.6283 27.0427 20.5159 26.9649 20.3838C26.8872 20.2518 26.8417 20.1025 26.833 19.9502V19.9483C26.784 19.0161 26.6051 17.3213 26.4424 15.7998V15.7989L26.3897 15.3067V15.3057C26.3759 15.1878 26.3835 15.0681 26.4131 14.9532L26.4424 14.8614C26.475 14.7728 26.5206 14.6892 26.5781 14.6133L26.6397 14.5401C26.7045 14.4704 26.7798 14.41 26.8633 14.3623C26.9747 14.2988 27.0986 14.2584 27.2266 14.2442C27.3225 14.2336 27.4196 14.2372 27.5137 14.2559ZM28.1797 40.0391C28.1645 40.0841 28.1409 40.1257 28.1104 40.1612L28.1113 40.1621C28.1267 40.1443 28.1397 40.1241 28.1514 40.1035L28.1797 40.0401V40.0391ZM27.4512 38.7422C27.4589 38.9603 27.4746 39.3109 27.5069 39.9336C27.5079 39.9568 27.5114 39.9796 27.5166 40.002C27.5115 39.9797 27.5079 39.9568 27.5069 39.9336C27.4746 39.3107 27.4589 38.9603 27.4512 38.7422ZM28.1387 38.3535V38.3526C28.1378 38.5161 28.1383 38.6763 28.1992 39.8994C28.2005 39.9233 28.1995 39.9472 28.1963 39.9707L28.2002 39.8994C28.1697 39.2879 28.1533 38.9418 28.1455 38.7285L28.1387 38.3535ZM25.1533 35.833C25.1783 35.8612 25.2056 35.8873 25.2324 35.9141C25.203 35.8846 25.1737 35.8553 25.1465 35.8242L25.1533 35.833ZM24.211 35.6407C24.2158 35.6522 24.2215 35.6634 24.2266 35.6748C24.2215 35.6634 24.2158 35.6522 24.211 35.6407ZM24.1494 35.4756C24.1611 35.5104 24.1742 35.5448 24.1875 35.5791C24.1742 35.5448 24.1611 35.5104 24.1494 35.4756ZM24.0703 35.1748C24.0726 35.1866 24.0747 35.1983 24.0772 35.21C24.0747 35.1983 24.0726 35.1866 24.0703 35.1748ZM24.043 35.002C24.0454 35.0223 24.0488 35.0424 24.0518 35.0625C24.0488 35.0424 24.0454 35.0223 24.043 35.002ZM24.0283 34.8116C24.0297 34.8436 24.0316 34.8755 24.0342 34.9073C24.0316 34.8755 24.0297 34.8436 24.0283 34.8116ZM24.7217 34.6114C24.7174 34.6938 24.7177 34.7753 24.7246 34.8555C24.7178 34.7753 24.7173 34.6938 24.7217 34.6114ZM24.0264 34.6426C24.0255 34.6805 24.0256 34.7182 24.0264 34.7559C24.0256 34.7182 24.0255 34.6805 24.0264 34.6426ZM24.0371 34.4629C24.0334 34.5024 24.0302 34.5418 24.0283 34.5811C24.0302 34.5418 24.0334 34.5024 24.0371 34.4629ZM24.9844 33.6914C24.8703 33.9147 24.7935 34.1368 24.7529 34.3535C24.8017 34.0936 24.9031 33.8259 25.0576 33.5576L24.9844 33.6914ZM24.0567 34.3028C24.0514 34.3373 24.0469 34.3718 24.043 34.4063C24.0469 34.3718 24.0514 34.3373 24.0567 34.3028ZM24.0899 34.125C24.0827 34.1576 24.0763 34.1902 24.0703 34.2227C24.0763 34.1902 24.0827 34.1576 24.0899 34.125ZM24.209 33.7168C24.1849 33.7818 24.1639 33.8471 24.1445 33.9121C24.1639 33.8471 24.1849 33.7818 24.209 33.7168ZM24.8399 32.7266C24.7413 32.813 24.6513 32.9087 24.5723 33.0147C24.6513 32.9087 24.7413 32.813 24.8399 32.7266ZM27.1133 32.6797H27.1143H27.1133ZM27.7627 32.4746C27.7648 32.4708 27.7666 32.4669 27.7686 32.4629C27.7666 32.4669 27.7648 32.4708 27.7627 32.4746ZM25.8819 32.1739C25.6933 32.2333 25.5067 32.3074 25.3301 32.3985C25.5067 32.3075 25.6933 32.2332 25.8819 32.1739ZM35.8906 31.7959C35.9717 31.7921 36.0513 31.7845 36.1289 31.7744C36.0512 31.7845 35.9718 31.7922 35.8906 31.7959ZM36.2002 31.7627C36.2569 31.7538 36.3125 31.7438 36.3672 31.7315C36.3125 31.7438 36.2569 31.7538 36.2002 31.7627ZM36.4365 31.7139C36.4849 31.7015 36.5324 31.688 36.5791 31.6729C36.5324 31.688 36.4849 31.7015 36.4365 31.7139ZM36.666 31.6426C36.7061 31.6278 36.7453 31.6117 36.7842 31.5948C36.7453 31.6116 36.7062 31.6278 36.666 31.6426ZM36.8692 31.5567C36.9117 31.536 36.9532 31.5136 36.9942 31.4903C36.9531 31.5136 36.9118 31.536 36.8692 31.5567ZM37.0645 31.4502C37.1031 31.4263 37.1397 31.3995 37.1768 31.3731C37.1396 31.3994 37.1031 31.4263 37.0645 31.4502ZM37.2451 31.3252C37.282 31.2968 37.3172 31.2663 37.3526 31.2354C37.3172 31.2663 37.282 31.2968 37.2451 31.3252ZM37.5791 31.0117H37.5781H37.5791ZM27.6621 27.9893C27.6782 28.0284 27.6883 28.0701 27.6904 28.1133C27.7057 28.4366 27.721 28.7282 27.7354 29.003C27.749 29.2661 27.762 29.5155 27.7735 29.7637L27.7744 29.7647C27.763 29.5165 27.75 29.2671 27.7363 29.0039C27.722 28.7295 27.7067 28.4372 27.6914 28.1143C27.6893 28.0709 27.6784 28.0286 27.6621 27.9893ZM37.6416 29.1543C37.6054 29.3791 37.55 29.6212 37.4629 29.8555C37.55 29.6212 37.6054 29.3791 37.6416 29.1543ZM33.6621 28.4825V28.4815V28.4825ZM41.2061 28.3535C39.6179 28.4066 38.8018 28.4433 38.3887 28.4756H38.3897C38.5963 28.4594 38.9035 28.4428 39.3574 28.4229L41.207 28.3535L41.209 28.3526L41.2061 28.3535ZM37.7031 28.4756C37.7012 28.5607 37.6964 28.6609 37.6875 28.7715C37.6964 28.6609 37.7012 28.5607 37.7031 28.4756ZM16.1524 28.6241C15.4343 28.6426 14.7216 28.6567 14.0195 28.6651H14.0205L16.1533 28.6241H16.1524ZM30.7578 28.5752C30.3422 28.6004 29.9197 28.6262 29.5069 28.6465L30.7588 28.5752C31.134 28.5523 31.5146 28.5292 31.8887 28.5098C31.5143 28.529 31.1333 28.5523 30.7578 28.5752ZM23.8037 28.5782C23.9439 28.5786 24.0961 28.5772 24.2608 28.5742C24.0961 28.5772 23.9439 28.5786 23.8037 28.5782ZM23.127 28.5537C23.1749 28.5583 23.2257 28.5612 23.2793 28.5645C23.2257 28.5612 23.1749 28.5583 23.127 28.5537ZM25.5098 28.5401V28.541V28.5401ZM22.9346 28.5283C22.971 28.5344 23.0097 28.5401 23.0508 28.545C23.0097 28.5401 22.9711 28.5344 22.9346 28.5283ZM18.46 28.5166L18.461 28.5176L18.46 28.5166ZM22.833 28.5098C22.8403 28.5115 22.848 28.5121 22.8555 28.5137C22.8013 28.5021 22.7531 28.4899 22.711 28.4746L22.833 28.5098ZM27.9697 28.3741H27.9688H27.9697ZM22.5313 28.3272V28.3262V28.3272ZM41.294 28.333C41.2992 28.3311 41.3044 28.3293 41.3096 28.3272C41.3044 28.3293 41.2992 28.3312 41.294 28.333ZM22.4893 28.2256C22.4921 28.2365 22.4952 28.2473 22.499 28.2578C22.4953 28.2472 22.4921 28.2365 22.4893 28.2256ZM22.4766 28.1553C22.4768 28.1583 22.4783 28.1611 22.4785 28.1641C22.4771 28.1472 22.4777 28.1303 22.4785 28.1133L22.4766 28.1553ZM41.3701 27.7119C41.3883 27.7242 41.4051 27.7391 41.4209 27.7549C41.4841 27.818 41.5206 27.9039 41.5235 27.9942C41.5252 28.0505 41.5127 28.1053 41.4893 28.1553C41.5127 28.1049 41.5262 28.0497 41.5244 27.9932C41.5215 27.9031 41.4841 27.8169 41.4209 27.7539C41.4052 27.7383 41.3883 27.7241 41.3701 27.7119ZM13.8154 28.002C13.7976 28.0148 13.7801 28.0287 13.7647 28.045V28.0459C13.7803 28.0295 13.7974 28.0149 13.8154 28.002ZM13.8643 27.9717C13.852 27.9778 13.8407 27.9857 13.8291 27.9932C13.8407 27.9857 13.852 27.9777 13.8643 27.9717ZM37.7774 27.9336C37.7657 27.9482 37.7562 27.9644 37.7471 27.9805C37.7564 27.9642 37.7665 27.9483 37.7783 27.9336C37.7922 27.9164 37.8076 27.9008 37.8242 27.8867L37.7774 27.9336ZM28.5723 27.2168C28.5817 27.4758 28.5945 27.7308 28.6143 27.9795V27.9785L28.5723 27.2168ZM13.9424 27.9444C13.9222 27.9487 13.9019 27.9549 13.8828 27.9629C13.902 27.9549 13.9221 27.9487 13.9424 27.9444ZM29.6455 27.9375C29.4752 27.9464 29.3059 27.9509 29.1397 27.958C29.6321 27.9376 30.148 27.9097 30.6543 27.8789L29.6455 27.9375ZM32.0254 27.8018V27.8028V27.8018ZM26.4121 27.7862C26.1015 27.7949 25.7918 27.8052 25.4873 27.8155L24.2285 27.8516C24.6262 27.8448 25.0678 27.8309 25.4873 27.8164C25.7918 27.8062 26.1015 27.7949 26.4121 27.7862ZM23.1875 27.834C23.1851 27.7413 23.1797 27.6489 23.1729 27.5567C23.1797 27.6489 23.1851 27.7413 23.1875 27.834ZM17.9297 27.4043C17.9273 27.4355 17.9264 27.4668 17.9248 27.4981C17.9264 27.4668 17.9273 27.4355 17.9297 27.4043ZM23.1611 27.4278C23.157 27.3851 23.1535 27.3424 23.1485 27.2998C23.1535 27.3424 23.157 27.3851 23.1611 27.4278ZM23.1289 27.1582C23.1227 27.1155 23.1165 27.0728 23.1094 27.0303C23.1165 27.0728 23.1227 27.1155 23.1289 27.1582ZM17.9883 26.9727C17.9786 27.0221 17.9706 27.072 17.9629 27.1221C17.9706 27.072 17.9786 27.0221 17.9883 26.9727ZM18.8067 26.6309C18.7628 26.7446 18.7265 26.8629 18.6973 26.9844L18.7471 26.8047C18.7654 26.7458 18.7847 26.6877 18.8067 26.6309ZM18.0322 26.7774C18.02 26.8258 18.0094 26.8747 17.999 26.9239C18.0094 26.8747 18.02 26.8258 18.0322 26.7774ZM23.0869 26.9073C23.0754 26.8465 23.0633 26.7859 23.0498 26.7256C23.0633 26.7859 23.0754 26.8465 23.0869 26.9073ZM18.0889 26.5782C18.0766 26.6172 18.0657 26.6567 18.0547 26.6963C18.0657 26.6567 18.0766 26.6172 18.0889 26.5782ZM23.0352 26.6621C23.022 26.6062 23.008 26.5506 22.9932 26.4951C23.008 26.5506 23.022 26.6063 23.0352 26.6621ZM18.1602 26.375C18.145 26.4146 18.131 26.4548 18.1172 26.4951C18.131 26.4548 18.145 26.4146 18.1602 26.375ZM22.959 26.3721C22.9419 26.3135 22.9233 26.2553 22.9043 26.1973C22.9233 26.2553 22.9419 26.3135 22.959 26.3721ZM18.2412 26.1797C18.2195 26.2275 18.1994 26.2761 18.1797 26.3252C18.1994 26.2761 18.2195 26.2275 18.2412 26.1797ZM19.2608 25.8819C19.1513 26.0022 19.0544 26.1379 18.9707 26.2852C19.0544 26.1379 19.1513 26.0022 19.2608 25.8819ZM18.3291 26.002C18.307 26.0438 18.2851 26.0859 18.2647 26.1289C18.2851 26.0859 18.307 26.0438 18.3291 26.002ZM22.8819 26.1289C22.853 26.0444 22.8229 25.9601 22.7901 25.877C22.8229 25.9602 22.853 26.0443 22.8819 26.1289ZM18.4346 25.8184C18.4086 25.8605 18.3826 25.9027 18.3584 25.9463C18.3826 25.9027 18.4086 25.8605 18.4346 25.8184ZM18.544 25.6533C18.516 25.6928 18.4882 25.7324 18.4619 25.7735C18.4882 25.7325 18.516 25.6928 18.544 25.6533ZM22.3496 25.1426C22.4835 25.2795 22.5941 25.4376 22.6787 25.6143L22.586 25.4434C22.5182 25.3342 22.439 25.2339 22.3496 25.1426ZM18.9502 25.1914C18.814 25.3142 18.69 25.4531 18.5781 25.6045C18.69 25.4532 18.814 25.3141 18.9502 25.1914ZM28.5117 25.2256H28.5127C28.5055 25.0912 28.4969 24.9569 28.4863 24.8233L28.4854 24.8223C28.4959 24.9562 28.5045 25.091 28.5117 25.2256ZM27.7666 24.4561C27.804 24.777 27.8266 25.1096 27.8418 25.4444L27.8135 24.9453C27.8013 24.7805 27.7863 24.6174 27.7676 24.4571L27.7666 24.4561ZM20.4502 25.2774H20.4512H20.4502ZM19.2813 24.9405H19.2803H19.2813ZM21.4932 24.6407C21.6303 24.6819 21.759 24.733 21.8779 24.795C21.7587 24.7328 21.6295 24.681 21.4922 24.6397C21.4171 24.6185 21.3409 24.6028 21.2647 24.5879C21.3413 24.6028 21.4178 24.6193 21.4932 24.6407ZM30.208 24.4434C30.0698 24.5087 29.9266 24.5667 29.7813 24.6162C29.9266 24.5667 30.0697 24.5088 30.208 24.4434ZM20.6436 24.5352V24.5362V24.5352ZM28.6992 24.125C28.9464 24.1151 29.2167 24.0656 29.4815 23.9834C29.2167 24.0655 28.9464 24.1151 28.6992 24.125ZM30.6631 23.295C30.6241 23.3381 30.5818 23.3803 30.5361 23.4209V23.4219C30.6274 23.3407 30.7064 23.2541 30.7695 23.1631V23.1621C30.738 23.2076 30.7022 23.2518 30.6631 23.295ZM30.3828 20.5908C30.0603 20.2871 29.6478 20.0995 29.2149 20.0342C29.3229 20.0505 29.4298 20.0739 29.5342 20.1055C29.5867 20.1213 29.6383 20.1396 29.6895 20.1592C29.8424 20.218 29.9888 20.2936 30.125 20.3858C30.2156 20.4471 30.3013 20.516 30.3819 20.5918C30.5833 20.7816 30.7419 21.014 30.8526 21.2676C30.7419 21.0138 30.5844 20.7807 30.3828 20.5908ZM27.8418 20.2403H27.8428H27.8418ZM28.2334 20.0977C28.1802 20.1132 28.1274 20.1308 28.0752 20.1504L28.2334 20.0987C28.2867 20.0831 28.3404 20.0691 28.3945 20.0576L28.2334 20.0977ZM27.4375 19.916C27.4408 19.9724 27.4579 20.0278 27.4863 20.0762C27.5006 20.1003 27.5178 20.1226 27.5371 20.1426C27.5179 20.1228 27.5015 20.1003 27.4873 20.0762C27.4587 20.0276 27.4417 19.9727 27.4385 19.916H27.4375ZM30.0322 19.5518C30.0937 19.5779 30.1544 19.6055 30.2139 19.6358C30.1544 19.6055 30.0937 19.5778 30.0322 19.5518ZM29.3555 19.3545C29.3856 19.3595 29.4154 19.3662 29.4453 19.3721C29.4154 19.3662 29.3856 19.3595 29.3555 19.3545ZM26.9893 15.1739C26.9879 15.1972 26.989 15.221 26.9922 15.2442L27.044 15.7344C27.1248 16.4908 27.2112 17.2981 27.2832 18.0352C27.211 17.2984 27.1248 16.4916 27.044 15.7354L26.9922 15.2432C26.9889 15.2198 26.9879 15.1963 26.9893 15.1729V15.1739ZM27.1631 14.8887C27.1235 14.9114 27.0885 14.9419 27.0606 14.9785C27.0518 14.9901 27.0444 15.003 27.0371 15.0157C27.0443 15.0032 27.0519 14.991 27.0606 14.9795C27.0887 14.9425 27.124 14.9116 27.1641 14.8887C27.17 14.8853 27.1765 14.8829 27.1826 14.8799C27.1763 14.883 27.1692 14.8852 27.1631 14.8887ZM27.4287 14.8594C27.4506 14.8662 27.4721 14.8748 27.4922 14.8858C27.4723 14.875 27.4514 14.8661 27.4297 14.8594H27.4287ZM25.3838 36.0528C25.4224 36.0843 25.4626 36.1143 25.5039 36.1436C25.4626 36.1143 25.4224 36.0843 25.3838 36.0528ZM24.1445 33.9121C24.1298 33.9617 24.1156 34.0111 24.1035 34.0606C24.1156 34.0111 24.1298 33.9617 24.1445 33.9121ZM24.2637 33.5801C24.2445 33.6257 24.2259 33.6712 24.209 33.7168C24.2259 33.6712 24.2444 33.6257 24.2637 33.5801ZM17.9512 27.1963C17.945 27.2429 17.941 27.2899 17.9365 27.3369C17.941 27.2899 17.945 27.2429 17.9512 27.1963Z" fill="#643BFF"/>
<path fill-rule="evenodd" clip-rule="evenodd" d="M27.0093 14.2875C29.4948 14.1022 31.9048 14.4418 33.8441 15.2835C34.9669 15.771 36.1682 16.367 37.3668 17.4364C38.5651 18.5056 39.7339 20.0226 40.8446 22.3218C41.7952 24.2855 42.2302 26.4586 42.1079 28.6362C42.0016 30.687 41.4399 32.6888 40.4637 34.4964L40.4625 34.4987C39.6247 36.04 38.5391 37.2948 37.355 38.0226L37.1172 38.161C36.7939 38.3382 36.4577 38.4894 36.1603 38.6247L36.1591 38.6259C35.5342 38.9077 35.0531 39.1322 34.6852 39.4717L34.6864 39.4729C34.1177 39.9987 33.7384 40.887 33.6123 42.4514V42.4538L33.559 43.2759C33.4995 44.3149 33.4348 45.506 32.9889 46.6295C32.8476 46.9822 32.6494 47.3372 32.4069 47.6693C32.4213 47.7304 32.4326 47.7934 32.4341 47.8573C32.4402 48.1095 32.4532 48.5176 32.3584 48.9184C32.2594 49.3365 32.0301 49.7938 31.5315 50.0966L31.5327 50.0978C31.1202 50.3526 30.6585 50.3855 30.4303 50.4077L30.4291 50.4065C29.5597 50.5048 28.6845 50.5624 27.8089 50.5769H27.7249C27.404 50.5768 26.9432 50.5655 26.4888 50.3781L26.2948 50.2859C25.6915 49.963 25.3854 49.4347 25.2538 48.9113C24.8058 48.7333 24.381 48.4818 24.0047 48.1259C22.9585 47.1369 22.7021 45.7078 22.6278 44.6777L22.6053 44.2637C22.5968 44.0467 22.592 43.826 22.5875 43.6237C22.5678 42.6442 22.5442 41.8608 22.2563 41.168C21.6414 39.6922 20.5469 39.0218 19.0566 38.1338C17.9476 37.4733 16.6725 36.7184 15.5906 35.4403C14.4989 34.1503 13.6332 32.3671 13.2295 29.6807C12.9444 27.7739 13.0094 25.9469 13.4401 24.2547L13.6045 23.6739C14.0209 22.3293 14.6777 21.0691 15.5457 19.956C16.7995 18.3372 18.4706 17.0185 20.4902 16.0347H20.4926C22.3839 15.121 24.421 14.5441 26.5113 14.3313L27.0093 14.2875ZM26.5326 48.6262C26.5957 48.8613 26.7237 49.0702 26.9347 49.1834C27.1548 49.301 27.4604 49.313 27.7297 49.3147C28.582 49.3206 29.4534 49.2347 30.2966 49.1526C30.4792 49.134 30.6932 49.1135 30.8265 49.0332C30.899 48.9897 30.9539 48.9266 30.9957 48.8486C30.954 48.9258 30.8995 48.9888 30.8277 49.032C30.6946 49.1123 30.4802 49.1329 30.2978 49.1514C29.4545 49.2335 28.582 49.3206 27.7297 49.3147C27.6624 49.3143 27.5925 49.3119 27.5227 49.3088C27.3132 49.2992 27.1008 49.2702 26.9359 49.1822C26.7251 49.0693 26.5958 48.8608 26.5326 48.6262ZM31.7811 47.7154C31.8104 47.7629 31.826 47.8169 31.8273 47.8715C31.8316 48.0507 31.8347 48.2612 31.8143 48.476C31.8349 48.2606 31.8328 48.0499 31.8285 47.8704C31.8271 47.8158 31.8103 47.7628 31.7811 47.7154ZM31.2346 47.0293C30.9448 47.3866 30.5839 47.6893 30.183 47.8692C29.805 47.9174 29.4163 47.9362 29.0344 47.9532C28.1866 47.9938 27.2252 48.0307 26.4084 47.7391C26.3733 47.7269 26.3357 47.7207 26.2983 47.7189C26.2641 47.7035 26.2262 47.6935 26.1883 47.6894C26.1648 47.6868 26.1407 47.6865 26.1174 47.6882C26.1404 47.6865 26.1638 47.688 26.1871 47.6906C26.2252 47.6946 26.2627 47.7046 26.2972 47.7201C26.3347 47.7218 26.3719 47.728 26.4072 47.7402C27.224 48.032 28.1853 47.9949 29.0332 47.9543C29.4152 47.9374 29.8037 47.9186 30.1818 47.8704C30.5833 47.6904 30.9447 47.3876 31.2346 47.0293ZM25.132 47.357C25.3702 47.5318 25.6376 47.6615 25.9269 47.7568C25.9793 47.7191 26.0418 47.6959 26.1067 47.6894C26.0421 47.6958 25.9803 47.7182 25.9281 47.7556C25.6389 47.6604 25.3703 47.5313 25.132 47.357ZM31.6782 47.6137C31.6889 47.6208 31.6992 47.628 31.709 47.6361C31.6991 47.6281 31.6902 47.6185 31.6794 47.6113L31.6782 47.6137ZM33.0752 17.0472C31.4536 16.3432 29.3652 16.0381 27.15 16.2038L26.7053 16.244C22.7001 16.6574 19.1034 18.51 17.0622 21.1389C15.3062 23.4002 14.64 26.163 15.1293 29.398C15.4824 31.7369 16.1954 33.1801 17.0432 34.1876C17.9017 35.2075 18.9322 35.8271 20.0384 36.486C21.5445 37.3824 23.1525 38.3244 24.0307 40.4298C24.4729 41.4936 24.4889 42.6246 24.5086 43.5847L24.5098 43.5977C24.5098 43.7867 24.5165 43.984 24.524 44.1903L24.5559 44.6777C24.6407 45.595 24.8557 46.176 25.1627 46.5561L25.3236 46.73L25.3248 46.7312C25.4903 46.8875 25.6894 47.0107 25.921 47.1074C26.0288 47.0822 26.1408 47.0744 26.251 47.0861C26.3123 47.0926 26.3741 47.107 26.4332 47.1251C26.4444 47.1268 26.4563 47.1277 26.4675 47.1299L26.6071 47.1677L26.6118 47.1689C27.1556 47.363 27.7964 47.3866 28.4725 47.3676L28.7351 47.2801L28.7825 47.3558C28.7917 47.3554 28.8016 47.355 28.8108 47.3546L28.8179 47.344L28.8227 47.3534C28.8833 47.3508 28.9451 47.3504 29.006 47.3475H29.0084C29.3671 47.3316 29.7027 47.3115 30.015 47.2765C30.1275 47.2189 30.2417 47.1487 30.3522 47.0612C30.7235 46.7673 31.0291 46.341 31.1991 45.9138C31.5185 45.1062 31.5751 44.2235 31.6356 43.1612C31.652 42.883 31.6689 42.5849 31.6924 42.2929C31.7845 41.1455 32.047 39.2855 33.3781 38.0557L33.6158 37.8523C34.1826 37.4005 34.8218 37.1149 35.3642 36.8693C35.6702 36.7313 35.9382 36.6083 36.1922 36.4695C37.0258 36.0119 37.9785 35.0202 38.752 33.6151C39.5196 32.2207 40.0852 30.4645 40.1834 28.5309L40.1845 28.5274C40.2882 26.6752 39.9183 24.8266 39.1105 23.1558C38.1052 21.0754 37.104 19.7782 36.1189 18.8926C35.1346 18.0078 34.1343 17.5051 33.0752 17.0472ZM23.9029 43.5989C23.903 43.8018 23.911 44.0122 23.9183 44.2152C23.9742 45.6476 24.2846 46.5863 24.9072 47.1724C24.9279 47.192 24.951 47.2094 24.9723 47.228C24.9509 47.2093 24.9292 47.1909 24.9084 47.1713C24.2857 46.5852 23.9754 45.6465 23.9195 44.214L23.9029 43.5989ZM33.1675 41.2449C33.0956 41.5958 33.0419 41.9811 33.0078 42.4041C32.9865 42.66 32.9716 42.9283 32.9569 43.1872L33.009 42.4029C33.0431 41.9804 33.0958 41.5954 33.1675 41.2449ZM23.1423 39.9945C23.2612 40.2027 23.3715 40.425 23.4712 40.6641C23.5675 40.8958 23.6403 41.1326 23.6971 41.3714C23.6691 41.2534 23.6395 41.1354 23.6025 41.0189L23.4724 40.6629C23.3727 40.424 23.2611 40.2025 23.1423 39.9945ZM36.7718 36.8255C36.6749 36.8892 36.5793 36.9491 36.4832 37.0018C36.3447 37.0775 36.2028 37.1484 36.0585 37.2171C35.9141 37.2858 35.7656 37.352 35.6138 37.4205C34.9802 37.7075 34.3264 38.0044 33.7897 38.5005L33.5851 38.7063C33.6496 38.6363 33.7173 38.5675 33.7885 38.5017C34.3252 38.0054 34.9789 37.7087 35.6126 37.4217C35.9165 37.2846 36.2046 37.1546 36.482 37.0029C36.5784 36.9501 36.6746 36.8894 36.7718 36.8255ZM34.6343 38.7418C34.6141 38.7558 34.5951 38.7713 34.5752 38.7856C34.6576 38.7262 34.7419 38.6688 34.8295 38.6153L34.6343 38.7418ZM18.1386 35.9963C18.6572 36.3686 19.1941 36.6901 19.7273 37.0077C20.1002 37.2296 20.4681 37.4485 20.8226 37.6808C20.6486 37.5667 20.4722 37.4544 20.2927 37.3448L19.7285 37.0065C19.1952 36.6889 18.6573 36.3687 18.1386 35.9963ZM15.2878 32.3943C15.0064 31.6975 14.7741 30.8873 14.6041 29.9339L14.5307 29.4891C14.5005 29.2892 14.4733 29.0909 14.4515 28.8941C14.4733 29.0912 14.4993 29.29 14.5296 29.4903C14.703 30.6393 14.9637 31.5918 15.2878 32.3943ZM33.6028 15.8383C31.6482 14.9901 29.1519 14.6693 26.5728 14.9334L25.8181 15.0268C25.5696 15.0631 25.3216 15.1052 25.0752 15.1522C25.5699 15.058 26.0692 14.9857 26.5716 14.9346C29.1511 14.6703 31.648 14.9898 33.6028 15.8383C35.8012 16.7929 38.1318 18.1023 40.2981 22.5868C41.204 24.4578 41.6187 26.5283 41.5023 28.6031C41.473 29.1692 41.4068 29.7315 41.3059 30.2864C41.407 29.731 41.4742 29.1685 41.5035 28.6019C41.6199 26.5272 41.2051 24.4566 40.2993 22.5856C38.133 18.1013 35.8011 16.7928 33.6028 15.8383ZM19.5262 17.2507C18.9121 17.6227 18.3398 18.0291 17.8133 18.4715C17.7176 18.5519 17.6234 18.6336 17.5306 18.7163C16.9731 19.2135 16.4701 19.7519 16.0236 20.3286C15.3764 21.1586 14.8553 22.0759 14.4692 23.0493C14.8553 22.0764 15.3755 21.1594 16.0224 20.3298C16.952 19.1292 18.129 18.0971 19.5262 17.2507ZM16.5831 20.7699C16.4565 20.9329 16.3358 21.0988 16.2199 21.2667C16.2293 21.2532 16.2378 21.2387 16.2471 21.2253L16.5843 20.7687L16.5831 20.7699ZM21.4247 16.2748C21.2001 16.3719 20.9771 16.4734 20.7564 16.58C20.4473 16.7305 20.1474 16.8905 19.8562 17.0567C20.147 16.8906 20.4465 16.7316 20.7552 16.5812C20.9764 16.4743 21.1996 16.3721 21.4247 16.2748Z" fill="black"/>
<path fill-rule="evenodd" clip-rule="evenodd" d="M42.0997 34.8382L42.2712 34.8737L42.438 34.9352L44.4028 35.8295C45.0629 36.1241 45.7271 36.4145 46.3901 36.6989C46.5253 36.7573 46.6609 36.8491 46.7674 36.9769L46.8644 37.1177L46.9035 37.1993C46.9864 37.3936 46.9981 37.6143 46.9236 37.8227C46.8416 38.052 46.675 38.2166 46.5001 38.3172C46.3248 38.4177 46.1262 38.4636 45.9358 38.4638C45.7839 38.4636 45.6275 38.4327 45.4828 38.3704C44.8101 38.0821 44.1358 37.7891 43.4659 37.4903L41.4715 36.5818C41.363 36.5314 41.2569 36.4608 41.1664 36.3665C41.0753 36.2717 40.9994 36.1523 40.9558 36.0129C40.9118 35.8718 40.9046 35.7212 40.9369 35.5752L40.9676 35.4699C41.0041 35.3685 41.0583 35.2775 41.1226 35.2002L41.1888 35.128C41.2587 35.06 41.3371 35.0053 41.4171 34.9624L41.5827 34.8903C41.6386 34.8714 41.6963 34.8576 41.7531 34.8477L41.9258 34.8299L42.0997 34.8382ZM46.3522 37.6204C46.3768 37.5518 46.3698 37.4779 46.3333 37.4122C46.327 37.401 46.3187 37.3909 46.3108 37.3803C46.3186 37.3907 46.3283 37.3999 46.3345 37.4111C46.3708 37.4766 46.3779 37.5507 46.3534 37.6192L46.3495 37.6271C46.3479 37.6305 46.3461 37.634 46.3444 37.6374L46.3495 37.6271L46.3522 37.6204ZM41.7034 35.4959C41.7494 35.4714 41.8022 35.4535 41.8572 35.4439C41.9121 35.4344 41.9695 35.4335 42.0251 35.4403C42.081 35.4473 42.1356 35.4618 42.1837 35.4841C43.4857 36.0891 44.8202 36.6851 46.1511 37.2561L46.2091 37.2857C46.2178 37.291 46.2247 37.2988 46.2328 37.3046C46.2078 37.2867 46.1803 37.2703 46.15 37.2573C44.8188 36.6862 43.4847 36.0903 42.1825 35.4853C42.1342 35.4629 42.08 35.4484 42.024 35.4415C41.9681 35.4347 41.9111 35.4355 41.856 35.4451C41.8007 35.4547 41.7483 35.4724 41.7022 35.4971C41.6662 35.5164 41.6352 35.5405 41.6088 35.5669C41.6355 35.5402 41.6671 35.5153 41.7034 35.4959Z" fill="#0FDAC2"/>
<path fill-rule="evenodd" clip-rule="evenodd" d="M43.7072 13.0277C43.8432 13.036 43.9726 13.0771 44.0858 13.1424C44.1983 13.2076 44.2921 13.2952 44.3638 13.3932C44.3995 13.4422 44.4307 13.4947 44.456 13.5482L44.5164 13.7138L44.5471 13.8841C44.5522 13.9416 44.5519 13.9995 44.5471 14.0568C44.5376 14.1713 44.5082 14.2857 44.4584 14.3928C44.4123 14.4918 44.3467 14.5851 44.2644 14.666C43.264 15.6812 42.2299 16.6827 41.1888 17.6399C41.0358 17.781 40.83 17.87 40.6033 17.8705H40.6009L40.5986 17.8717C40.3876 17.8715 40.1939 17.7928 40.0438 17.6671C39.8943 17.5418 39.7956 17.3769 39.7457 17.2057C39.6958 17.0345 39.6924 16.8519 39.7362 16.6794L39.7776 16.5516C39.8287 16.4257 39.908 16.3064 40.0154 16.2086C41.0339 15.2714 42.0478 14.2948 43.0259 13.301C43.1053 13.2177 43.2022 13.1463 43.3145 13.0975L43.408 13.0632C43.5035 13.0343 43.605 13.0215 43.7072 13.0277ZM43.5558 13.6535C43.5923 13.6377 43.6317 13.6298 43.6706 13.6322C43.7093 13.6346 43.7481 13.6464 43.783 13.6665C43.8179 13.6868 43.8498 13.7157 43.8752 13.7505C43.9006 13.7853 43.9202 13.8262 43.932 13.8699C43.9438 13.9139 43.9476 13.9613 43.9438 14.0072C43.9419 14.0298 43.9376 14.0529 43.932 14.0746C43.9263 14.0962 43.9188 14.1173 43.9095 14.1373L43.9083 14.1385C43.9271 14.0982 43.9388 14.054 43.9426 14.0083C43.9465 13.9624 43.9426 13.9151 43.9308 13.8711C43.919 13.8273 43.8995 13.7865 43.874 13.7516C43.8486 13.7168 43.8168 13.6879 43.7818 13.6677C43.7468 13.6476 43.7082 13.6357 43.6694 13.6334C43.6305 13.6311 43.5912 13.6388 43.5546 13.6547L43.5558 13.6535Z" fill="#0FDAC2"/>
<path fill-rule="evenodd" clip-rule="evenodd" d="M15.4227 11.8436L15.5942 11.9039L15.7491 11.9974L15.884 12.1204L15.9928 12.2659L15.994 12.2683L17.7719 15.2575C17.8976 15.469 17.9346 15.723 17.8736 15.9613C17.8127 16.1995 17.6589 16.4039 17.4478 16.5291L17.4466 16.5279C17.3057 16.6124 17.1448 16.6588 16.9805 16.6604H16.9746C16.8145 16.6604 16.6563 16.6186 16.5168 16.5398C16.3774 16.4608 16.2599 16.3463 16.1774 16.2086L14.3994 13.2182C14.3371 13.1139 14.2954 12.9977 14.2776 12.8775C14.2599 12.7569 14.2668 12.6335 14.2965 12.5155L14.358 12.3452C14.384 12.2904 14.4151 12.2379 14.4515 12.189C14.5241 12.0916 14.6157 12.0089 14.72 11.9465C14.8245 11.8843 14.9416 11.8423 15.0619 11.8247L15.2429 11.8164L15.4227 11.8436ZM17.2846 15.817L17.2857 15.8123C17.2884 15.8018 17.2889 15.7909 17.2905 15.7803C17.2889 15.7905 17.2895 15.8011 17.2869 15.8111L17.2846 15.817ZM15.1482 12.4256L15.1494 12.4244C15.1893 12.4186 15.2304 12.4211 15.2697 12.4303L15.2748 12.4315C15.3157 12.4419 15.3545 12.4608 15.3884 12.4859C15.4221 12.511 15.4519 12.541 15.4735 12.577L17.2514 15.5674L17.2786 15.6254C17.2823 15.636 17.282 15.6476 17.2846 15.6585C17.2771 15.6274 17.2669 15.5966 17.2503 15.5686L15.4723 12.5782C15.4507 12.5422 15.422 12.511 15.3884 12.4859C15.3545 12.4608 15.3157 12.4419 15.2748 12.4315L15.2697 12.4303C15.2301 12.4211 15.1884 12.4197 15.1482 12.4256Z" fill="#0FDAC2"/>
<path fill-rule="evenodd" clip-rule="evenodd" d="M11.066 34.8453L11.2304 34.8891C11.3379 34.9279 11.4409 34.9857 11.5309 35.063L11.6563 35.1943L11.7095 35.2712C11.8255 35.4562 11.8741 35.682 11.829 35.9088C11.7777 36.165 11.6188 36.3709 11.4197 36.4967L11.4067 36.5038C10.4242 37.0905 9.4396 37.6993 8.48015 38.3124L8.47542 38.316C8.31394 38.417 8.12743 38.4643 7.94429 38.4627C7.76361 38.4611 7.58119 38.4111 7.42263 38.3101C7.2633 38.2084 7.12848 38.0556 7.05593 37.8629C6.98284 37.6684 6.98191 37.4554 7.05238 37.2596L7.11507 37.1212C7.18905 36.9912 7.29327 36.8845 7.41198 36.8066L7.4179 36.803C8.39352 36.1768 9.39118 35.5608 10.3953 34.9636L10.4071 34.9565C10.5587 34.8711 10.729 34.8291 10.898 34.8299L11.066 34.8453ZM10.7052 35.4841C10.781 35.4416 10.8735 35.426 10.9619 35.4415C11.0501 35.4572 11.1287 35.5021 11.1796 35.5669C11.2304 35.632 11.2506 35.7128 11.2352 35.7905L11.2328 35.7964L11.234 35.7916C11.2495 35.7139 11.2294 35.6333 11.1784 35.5681C11.1273 35.5032 11.0491 35.4582 10.9607 35.4427C10.8721 35.4271 10.7799 35.4425 10.704 35.4853C9.7054 36.0792 8.71328 36.6914 7.7432 37.3141C7.72078 37.3288 7.70069 37.3456 7.68324 37.3643C7.70108 37.3451 7.72161 37.3278 7.74438 37.3129C8.71431 36.6903 9.70676 36.0779 10.7052 35.4841Z" fill="#0FDAC2"/>
<path fill-rule="evenodd" clip-rule="evenodd" d="M10.9998 25.2164C11.0032 25.2172 11.0066 25.218 11.01 25.2189L10.9998 25.2164ZM11.2363 25.5122C11.2359 25.5149 11.2354 25.5177 11.2349 25.5205L11.2363 25.5122Z" fill="black"/>
<path fill-rule="evenodd" clip-rule="evenodd" d="M8.15603 23.9566L8.15722 23.9554L11.1311 24.6238C11.2766 24.6562 11.4221 24.7246 11.5439 24.8296L11.6586 24.9467L11.7509 25.091C11.8296 25.2435 11.8646 25.4216 11.8361 25.6044C11.7985 25.8449 11.6613 26.0398 11.4895 26.1663C11.32 26.2909 11.1168 26.3491 10.9205 26.3497L10.9181 26.3508C10.8461 26.351 10.7737 26.3412 10.7028 26.3248H10.6981L10.691 26.3236L7.72664 25.6576V25.6553C7.6249 25.6341 7.52378 25.5982 7.43091 25.5429C7.33061 25.4831 7.23774 25.4021 7.16357 25.3004C7.08905 25.1982 7.03508 25.0776 7.01216 24.9455C6.98918 24.8128 6.99905 24.6773 7.03937 24.5504L7.07485 24.4594C7.11481 24.3708 7.1689 24.2917 7.23218 24.224L7.36821 24.1045C7.41642 24.0702 7.46753 24.0409 7.51963 24.017L7.6805 23.9602C7.73501 23.9461 7.79074 23.9364 7.84611 23.9318H8.01408C8.0617 23.936 8.10927 23.9455 8.15603 23.9566ZM7.77159 24.5682C7.74275 24.5815 7.71615 24.598 7.69352 24.6179C7.7164 24.5976 7.74352 24.5805 7.77277 24.567C7.80888 24.5505 7.84887 24.5408 7.88974 24.5368L7.89579 24.5362C7.93851 24.5328 7.98259 24.535 8.02355 24.5457L8.02473 24.5445V24.5469L10.9181 25.1963L10.9643 25.207L11.0009 25.2152L11.01 25.2189C11.0413 25.2267 11.0707 25.2385 11.0974 25.2536L11.105 25.2566C11.136 25.2752 11.1639 25.2983 11.1855 25.3253C11.2288 25.3795 11.2476 25.4462 11.2375 25.511L11.2349 25.5205C11.2325 25.5333 11.2291 25.546 11.2245 25.5583L11.2349 25.5205L11.2363 25.5122C11.2465 25.4473 11.2278 25.3808 11.1843 25.3264C11.161 25.2975 11.1314 25.2729 11.0974 25.2536L11.01 25.2189L10.9998 25.2164L8.02355 24.5481C7.98226 24.5371 7.93889 24.5328 7.89579 24.5362L7.88974 24.5368C7.84854 24.5408 7.80792 24.5515 7.77159 24.5682Z" fill="#0FDAC2"/>
<path d="M22.4847 41.4965C22.3983 41.4967 22.3151 41.4629 22.2515 41.4018C22.188 41.3408 22.1488 41.2569 22.1418 41.1671C22.1347 41.0772 22.1604 40.9878 22.2137 40.9169C22.2669 40.8459 22.3438 40.7984 22.4291 40.784C26.2467 40.1257 30.1413 40.1189 33.9611 40.7638C34.006 40.7708 34.0491 40.787 34.088 40.8116C34.1269 40.8361 34.1607 40.8685 34.1875 40.9068C34.2143 40.9451 34.2335 40.9885 34.2441 41.0347C34.2547 41.0808 34.2565 41.1287 34.2493 41.1755C34.242 41.2223 34.2259 41.2672 34.202 41.3075C34.178 41.3478 34.1466 41.3827 34.1097 41.4102C34.0727 41.4378 34.0308 41.4574 33.9865 41.4679C33.9422 41.4784 33.8964 41.4797 33.8516 41.4716C30.1053 40.8391 26.2854 40.846 22.5412 41.4918C22.5225 41.4947 22.5036 41.4963 22.4847 41.4965Z" fill="black"/>
<path d="M34.6765 36.6506C34.5759 36.6506 34.4785 36.6198 34.402 36.5638C34.3255 36.5078 34.2748 36.4302 34.2591 36.3451C34.2434 36.2599 34.2636 36.1727 34.3163 36.0992C34.3689 36.0257 34.4504 35.9707 34.5461 35.9441C35.8555 35.5783 37.0453 34.6921 37.8972 33.4494C38.7045 32.2719 39.1337 30.9315 39.4771 29.659C39.5035 29.5665 39.5713 29.4866 39.666 29.4366C39.7606 29.3867 39.8745 29.3707 39.9828 29.3921C40.0911 29.4135 40.1853 29.4707 40.2448 29.5511C40.3043 29.6316 40.3244 29.7289 40.3007 29.8219C39.9422 31.1512 39.4912 32.554 38.6263 33.8162C37.6701 35.2125 36.314 36.2122 34.808 36.6329C34.7655 36.6447 34.7212 36.6507 34.6765 36.6506Z" fill="#0FDAC2"/>
</svg>
