<svg width="24" height="24" viewBox="0 0 24 24" fill="none" xmlns="http://www.w3.org/2000/svg">
<path d="M2.89062 16.3464L15.9386 3.29688L20.7051 8.06393L7.6571 21.1135L2.89062 16.3464Z" fill="white"/>
<path d="M22.5896 3.38713L20.6108 1.40811C19.8662 0.663442 18.5667 0.663442 17.8232 1.40811L16.7422 2.48924L21.5087 7.2563L22.5897 6.17517C22.9614 5.80336 23.1671 5.30833 23.1671 4.78225C23.1671 4.25617 22.9625 3.76004 22.5897 3.38826L22.5896 3.38713Z" fill="white"/>
<path d="M2.24669 17.3264L0.848565 22.4503C0.793926 22.6486 0.850708 22.8597 0.996411 23.0043C1.10462 23.1125 1.25032 23.1714 1.40032 23.1714C1.45068 23.1714 1.50103 23.165 1.55031 23.1511L6.67361 21.7528L2.24558 17.3242L2.24669 17.3264Z" fill="white"/>
<path d="M9.62392 7.99213C9.60892 7.97928 9.58857 7.97392 9.57464 7.95999C9.35073 7.73605 9.35073 7.37496 9.57464 7.15209L10.0385 6.68814L10.4831 7.13281L11.2909 6.32491L5.13503 0.167153C5.0279 0.0600059 4.88326 0 4.73112 0C4.57898 0 4.43436 0.0600032 4.32721 0.167153L0.167133 4.32773C0.0599986 4.43488 0 4.57953 0 4.7317C0 4.88386 0.0599959 5.02849 0.167133 5.13566L6.32414 11.2923L9.62494 7.99112L9.62392 7.99213ZM7.95904 5.53523L8.42294 5.07128L9.23073 5.87917L8.76684 6.34312C8.65542 6.45456 8.50864 6.51028 8.36293 6.51028C8.21615 6.51028 8.07045 6.45456 7.95901 6.34312C7.7351 6.11918 7.73513 5.7581 7.95904 5.53523ZM6.34345 3.91944L6.80734 3.45549L7.61514 4.26338L7.15124 4.72733C7.03982 4.83877 6.89305 4.89449 6.74733 4.89449C6.60056 4.89449 6.45485 4.83877 6.34342 4.72733C6.11951 4.50446 6.11953 4.14231 6.34345 3.91944ZM5.53458 3.11047C5.42316 3.22191 5.27638 3.27762 5.13067 3.27762C4.98389 3.27762 4.83819 3.22191 4.72676 3.11047C4.50284 2.88653 4.50284 2.52544 4.72676 2.30258L5.19065 1.83862L5.99845 2.64652L5.53458 3.11047Z" fill="white"/>
<path d="M23.8358 18.8648L17.6788 12.707L16.871 13.5149L17.3156 13.9596L16.8517 14.4235C16.7403 14.535 16.5935 14.5907 16.4478 14.5907C16.301 14.5907 16.1553 14.535 16.0439 14.4235C16.0299 14.4096 16.0235 14.3903 16.0117 14.3743L12.7109 17.6755L18.8679 23.8332C18.9794 23.9447 19.1261 24.0004 19.2719 24.0004C19.4186 24.0004 19.5643 23.9447 19.6758 23.8332L23.8358 19.6726C24.0598 19.4487 24.0597 19.0877 23.8358 18.8648ZM18.4684 16.0403C18.357 16.1518 18.2102 16.2075 18.0645 16.2075C17.9177 16.2075 17.772 16.1518 17.6606 16.0403C17.4367 15.8164 17.4367 15.4553 17.6606 15.2324L18.1245 14.7685L18.9323 15.5764L18.4684 16.0403ZM20.084 17.6561C19.9726 17.7675 19.8258 17.8233 19.6801 17.8233C19.5333 17.8233 19.3876 17.7676 19.2762 17.6561C19.0522 17.4322 19.0522 17.0711 19.2762 16.8482L19.7401 16.3843L20.5479 17.1922L20.084 17.6561ZM21.7007 19.273C21.5892 19.3844 21.4425 19.4401 21.2967 19.4401C21.15 19.4401 21.0043 19.3844 20.8928 19.273C20.6689 19.049 20.6689 18.688 20.8928 18.4651L21.3567 18.0011L22.1645 18.809L21.7007 19.273Z" fill="white"/>
</svg>
