<svg width="48" height="48" viewBox="0 0 48 48" fill="none" xmlns="http://www.w3.org/2000/svg">
<path d="M39.6564 24.8817L37.215 23.4934C37.096 23.4359 36.9593 23.425 36.8324 23.4628C36.7055 23.5007 36.598 23.5844 36.5316 23.6972C36.4651 23.8099 36.4447 23.9433 36.4745 24.0702C36.5042 24.1972 36.5819 24.3083 36.6918 24.3812L37.9125 25.0668L39.1332 25.7524C39.1911 25.8019 39.2594 25.8383 39.3332 25.8591C39.4071 25.8798 39.4846 25.8843 39.5604 25.8722C39.6362 25.8602 39.7083 25.8319 39.7718 25.7893C39.8352 25.7468 39.8883 25.6911 39.9273 25.6261C39.9663 25.5611 39.9904 25.4885 39.9976 25.4134C40.0049 25.3383 39.9953 25.2625 39.9694 25.1914C39.9436 25.1204 39.9021 25.0558 39.848 25.0023C39.7939 24.9487 39.7285 24.9076 39.6564 24.8817Z" fill="#0FD9C2"/>
<path d="M36.4268 19.4827C36.358 19.5079 36.2847 19.5185 36.2114 19.514C36.1382 19.5095 36.0668 19.4899 36.0018 19.4565C35.9368 19.4231 35.8796 19.3766 35.8341 19.3201C35.7886 19.2636 35.7556 19.1982 35.7374 19.1284C35.7192 19.0585 35.7162 18.9857 35.7285 18.9146C35.7408 18.8436 35.7681 18.7758 35.8088 18.7158C35.8495 18.6558 35.9025 18.6049 35.9645 18.5663C36.0265 18.5278 36.0961 18.5025 36.1687 18.4921L38.903 17.7722C39.0371 17.7375 39.1797 17.7563 39.2999 17.8243C39.42 17.8923 39.508 18.0042 39.5448 18.1356C39.5627 18.2006 39.5673 18.2685 39.5584 18.3353C39.5495 18.4021 39.5272 18.4665 39.4928 18.5248C39.4584 18.5832 39.4127 18.6342 39.3581 18.6751C39.3036 18.7159 39.2414 18.7457 39.1751 18.7629L36.4268 19.4827Z" fill="#0FD9C2"/>
<path d="M36.0152 11.53C35.8968 11.4662 35.7578 11.4502 35.6276 11.4854C35.4974 11.5206 35.3862 11.6042 35.3177 11.7185L33.9017 14.1181C33.8678 14.1763 33.8459 14.2406 33.8373 14.3072C33.8287 14.3738 33.8335 14.4415 33.8515 14.5062C33.8694 14.571 33.9002 14.6317 33.942 14.6848C33.9839 14.7379 34.0359 14.7823 34.0952 14.8156C34.1545 14.8489 34.2199 14.8704 34.2877 14.8789C34.3555 14.8874 34.4243 14.8826 34.4902 14.865C34.5561 14.8473 34.6178 14.8171 34.6718 14.776C34.7258 14.7348 34.7711 14.6837 34.805 14.6254L36.221 12.2258C36.2871 12.1067 36.3026 11.9666 36.264 11.8362C36.2255 11.7059 36.136 11.5958 36.0152 11.53Z" fill="#0FD9C2"/>
<path d="M18.3813 18.9411L20.8227 27.8365C24.3802 27.6206 28.2376 27.9942 31.1115 29.002L26.7135 12.8909C24.722 15.1533 21.5726 17.378 18.3813 18.9411Z" fill="#643BFF"/>
<path d="M29.3885 10.889C29.3684 10.7444 29.3172 10.6057 29.2383 10.482C29.1594 10.3584 29.0547 10.2527 28.931 10.1719C28.8074 10.0911 28.6676 10.0371 28.5211 10.0135C28.3746 9.98994 28.2246 9.99726 28.0812 10.035C27.9378 10.0728 27.8042 10.1401 27.6893 10.2325C27.5744 10.3249 27.4808 10.4403 27.4147 10.571C27.3487 10.7017 27.3117 10.8448 27.3063 10.9906C27.3008 11.1364 27.327 11.2817 27.3831 11.4169L32.4298 29.9275C32.7786 31.2267 34.791 30.6988 34.4388 29.3996L29.3885 10.889Z" fill="#0FD9C2"/>
<path fill-rule="evenodd" clip-rule="evenodd" d="M16.0934 29.5916C16.3863 29.5128 16.6898 29.4442 17.0037 29.3756L20.6623 35.6144C21.733 37.4244 18.9359 39.0115 17.8721 37.2015L13.7636 30.2052L16.0934 29.5916Z" fill="#643BFF"/>
<path d="M34.3307 18.708C34.2737 18.4988 34.151 18.3126 33.98 18.1759C33.809 18.0393 33.5985 17.9592 33.3785 17.947L32.381 17.8956L33.4692 21.8822L34.3062 21.3235C34.4892 21.2044 34.6294 21.0317 34.707 20.8299C34.7846 20.6281 34.7957 20.4075 34.7387 20.1992L34.3307 18.708Z" fill="#0FD9C2"/>
<path d="M19.745 27.9154L17.4187 19.3902C16.212 19.9383 14.9601 20.3844 13.6764 20.7236L11.078 21.4092C10.0143 21.6892 9.10727 22.3731 8.55654 23.3104C8.00581 24.2477 7.85647 25.3616 8.14137 26.4071C8.42627 27.4526 9.12208 28.344 10.0757 28.8853C11.0294 29.4266 12.1627 29.5734 13.2265 29.2934L15.8213 28.6078C17.1066 28.267 18.4194 28.0353 19.745 27.9154Z" fill="#643BFF"/>
</svg>
