<svg width="48" height="48" viewBox="0 0 48 48" fill="none" xmlns="http://www.w3.org/2000/svg">
<path d="M11.8438 29.7935L29.2417 12.3945L35.5972 18.7505L18.1993 36.1495L11.8438 29.7935Z" fill="#643BFF"/>
<path d="M38.125 12.5161L35.4865 9.87747C34.4937 8.88459 32.7609 8.88459 31.7695 9.87747L30.3281 11.3189L36.6837 17.6749L38.125 16.2334C38.6207 15.7377 38.895 15.0776 38.895 14.3762C38.895 13.6748 38.6222 13.0133 38.125 12.5176L38.125 12.5161Z" fill="#643BFF"/>
<path d="M11.0009 31.1026L9.13663 37.9343C9.06377 38.1986 9.13949 38.48 9.33377 38.6729C9.47805 38.8172 9.67232 38.8957 9.87233 38.8957C9.93947 38.8957 10.0066 38.8872 10.0723 38.8686L16.9036 37.0042L10.9994 31.0996L11.0009 31.1026Z" fill="#643BFF"/>
<path d="M20.8324 18.6559C20.8124 18.6388 20.7852 18.6317 20.7667 18.6131C20.4681 18.3145 20.4681 17.8331 20.7667 17.5359L21.3852 16.9173L21.978 17.5102L23.0551 16.433L14.847 8.22287C14.7041 8.08001 14.5113 8 14.3084 8C14.1055 8 13.9127 8.08 13.7698 8.22287L8.22285 13.7702C8.08 13.913 8 14.1059 8 14.3088C8 14.5117 8.08 14.7045 8.22285 14.8474L16.4325 23.0561L20.8337 18.6546L20.8324 18.6559ZM18.6124 15.3801L19.231 14.7616L20.3081 15.8387L19.6895 16.4573C19.541 16.6059 19.3453 16.6802 19.151 16.6802C18.9553 16.6802 18.761 16.6059 18.6124 16.4573C18.3138 16.1587 18.3139 15.6773 18.6124 15.3801ZM16.4582 13.2258L17.0768 12.6072L18.1539 13.6844L17.5353 14.303C17.3868 14.4515 17.1911 14.5258 16.9968 14.5258C16.8011 14.5258 16.6068 14.4515 16.4582 14.303C16.1596 14.0058 16.1597 13.523 16.4582 13.2258ZM15.3797 12.1472C15.2311 12.2958 15.0354 12.3701 14.8411 12.3701C14.6454 12.3701 14.4512 12.2958 14.3026 12.1472C14.004 11.8486 14.004 11.3672 14.3026 11.07L14.9211 10.4514L15.9982 11.5286L15.3797 12.1472Z" fill="#0FD9C2"/>
<path d="M39.779 33.1535L31.5693 24.9434L30.4922 26.0205L31.0851 26.6134L30.4665 27.232C30.318 27.3806 30.1223 27.4549 29.928 27.4549C29.7323 27.4549 29.538 27.3806 29.3894 27.232C29.3708 27.2134 29.3623 27.1877 29.3465 27.1663L24.9453 31.5678L33.155 39.7779C33.3035 39.9265 33.4992 40.0008 33.6935 40.0008C33.8892 40.0008 34.0835 39.9265 34.2321 39.7779L39.7791 34.2306C40.0776 33.932 40.0776 33.4507 39.779 33.1535ZM32.6222 29.3877C32.4736 29.5362 32.2779 29.6105 32.0836 29.6105C31.8879 29.6105 31.6936 29.5362 31.5451 29.3877C31.2465 29.0891 31.2465 28.6076 31.5451 28.3105L32.1636 27.6919L33.2407 28.7691L32.6222 29.3877ZM34.7764 31.542C34.6278 31.6906 34.4321 31.7649 34.2378 31.7649C34.0421 31.7649 33.8479 31.6906 33.6993 31.542C33.4007 31.2434 33.4007 30.762 33.6993 30.4648L34.3178 29.8462L35.3949 30.9234L34.7764 31.542ZM36.932 33.6978C36.7835 33.8463 36.5878 33.9206 36.3935 33.9206C36.1978 33.9206 36.0035 33.8463 35.8549 33.6978C35.5563 33.3992 35.5563 32.9177 35.8549 32.6206L36.4734 32.002L37.5506 33.0792L36.932 33.6978Z" fill="#0FD9C2"/>
</svg>
