<svg width="48" height="48" viewBox="0 0 48 48" fill="none" xmlns="http://www.w3.org/2000/svg">
<path fill-rule="evenodd" clip-rule="evenodd" d="M40 25.8906V22.1088C40 21.5701 39.5593 21.1294 39.0206 21.1299H37.2367C36.1576 21.1299 35.2361 20.5143 34.8233 19.5176C34.4099 18.5203 34.6261 17.4339 35.3893 16.6706L36.6506 15.4093C37.0317 15.0282 37.0317 14.4048 36.6506 14.0237L33.9765 11.3495C33.5954 10.9684 32.972 10.9684 32.591 11.3495L31.3297 12.6108C30.5664 13.3735 29.4795 13.5897 28.4828 13.1769C27.4856 12.764 26.87 11.8425 26.87 10.7634V8.97944C26.87 8.44069 26.4293 8 25.8906 8H22.1089C21.5702 8 21.1295 8.44069 21.1295 8.97944V10.7628C21.1295 11.842 20.5139 12.7635 19.5172 13.1763C18.52 13.5897 17.4336 13.3735 16.6703 12.6103L15.409 11.3489C15.028 10.9678 14.4046 10.9678 14.0235 11.3489L11.3494 14.0232C10.9683 14.4042 10.9683 15.0277 11.3494 15.4087L12.6107 16.6701C13.3734 17.4334 13.5895 18.5203 13.1767 19.517C12.7639 20.5137 11.8424 21.1294 10.7633 21.1294H8.9794C8.44068 21.1294 8 21.5701 8 22.1088V25.8906C8 26.4294 8.44068 26.8701 8.9794 26.8701H10.7633C11.8424 26.8701 12.7639 27.4857 13.1767 28.4824C13.5901 29.4797 13.3739 30.5661 12.6107 31.3294L11.3494 32.5907C10.9683 32.9718 10.9683 33.5952 11.3494 33.9763L14.0235 36.6505C14.4046 37.0316 15.028 37.0316 15.409 36.6505L16.6703 35.3892C17.4336 34.6265 18.5205 34.4103 19.5172 34.8231C20.5139 35.236 21.1295 36.1575 21.1295 37.2366V39.0206C21.1295 39.5593 21.5702 40 22.1089 40H25.8906C26.4293 40 26.87 39.5593 26.87 39.0206V37.2366C26.87 36.1575 27.4861 35.236 28.4828 34.8231C29.48 34.4097 30.5664 34.6259 31.3297 35.3892L32.591 36.6505C32.972 37.0316 33.5954 37.0316 33.9765 36.6505L36.6506 33.9763C37.0317 33.5952 37.0317 32.9718 36.6506 32.5907L35.3893 31.3294C34.6266 30.5661 34.4105 29.4791 34.8233 28.4824C35.2361 27.4857 36.1576 26.8701 37.2367 26.8701H39.0206C39.5593 26.8701 40 26.4294 40 25.8906ZM24.0008 14.9775C28.9831 14.9775 33.0222 19.0173 33.0222 23.9997C33.0222 28.9822 28.9831 33.0219 24.0008 33.0219C19.018 33.0219 14.979 28.9822 14.979 23.9997C14.979 19.0167 19.0186 14.9775 24.0008 14.9775Z" fill="#643BFF"/>
<path fill-rule="evenodd" clip-rule="evenodd" d="M29.2884 18.712C30.6416 20.0653 31.4784 21.935 31.4784 23.9997C31.4784 26.065 30.6416 27.9342 29.2884 29.2875C29.2488 29.327 29.2087 29.366 29.1686 29.405C28.9118 28.2573 28.1853 27.2812 27.2037 26.6918C26.3624 27.4634 25.2376 27.9353 24.0014 27.9353C22.7652 27.9353 21.6398 27.4634 20.7991 26.6918C19.8175 27.2818 19.091 28.2573 18.8342 29.405C18.7935 29.3666 18.7534 29.327 18.7138 29.2875C17.3606 27.9342 16.5238 26.0645 16.5238 23.9997C16.5238 19.8697 19.8715 16.5219 24.0014 16.5219C26.0655 16.5219 27.9352 17.3587 29.2884 18.712ZM24.0008 20.1226C25.7535 20.1226 27.1741 21.5261 27.1741 23.2571C27.1741 24.9881 25.7535 26.3915 24.0008 26.3915C22.2482 26.3915 20.8275 24.9881 20.8275 23.2571C20.8275 21.5261 22.2482 20.1226 24.0008 20.1226Z" fill="#0FD9C2"/>
</svg>
