<svg width="48" height="48" viewBox="0 0 48 48" fill="none" xmlns="http://www.w3.org/2000/svg">
<path fill-rule="evenodd" clip-rule="evenodd" d="M8 14.0895V15.9481H39.9986V14.0895C39.9986 11.8349 38.1637 10 35.9061 10H12.0924C9.83622 10 8 11.8335 8 14.0895Z" fill="white" fill-opacity="0.5"/>
<path fill-rule="evenodd" clip-rule="evenodd" d="M40 18.1789V34.9105C40 37.1665 38.1638 39 35.9076 39H12.0939C9.83625 39 8.00143 37.1651 8.00143 34.9105L8.00003 18.1789H40ZM16.912 28.3252C16.8171 28.42 16.8032 28.5302 16.8032 28.5888L16.8045 28.5886C16.8045 28.6471 16.8185 28.7573 16.9134 28.8521L19.2421 31.1792C19.6789 31.6142 19.6789 32.3197 19.2421 32.7561C19.0231 32.9736 18.7384 33.0824 18.4524 33.0824C18.1649 33.0824 17.8803 32.9736 17.6626 32.7561L15.3339 30.429C14.3181 29.4128 14.3181 27.7633 15.3339 26.7483L17.6626 24.4212C18.098 23.9848 18.804 23.9862 19.2408 24.4212C19.6775 24.8562 19.6775 25.5617 19.2408 25.9982L16.912 28.3252ZM25.2267 21.9576C25.4388 21.3789 26.0764 21.0847 26.6583 21.2911C27.2359 21.5016 27.5359 22.1416 27.3252 22.7217L22.7724 35.2217C22.6064 35.6749 22.1794 35.9551 21.7231 35.9551C21.5961 35.9551 21.4678 35.9328 21.3408 35.8882C20.7631 35.6777 20.4631 35.0377 20.6738 34.4576L25.2267 21.9576ZM30.3376 24.4213L32.6664 26.7484L32.6677 26.7486C33.6835 27.7649 33.6835 29.4143 32.6677 30.4293L30.339 32.7564C30.1199 32.9739 29.8353 33.0827 29.5492 33.0827C29.2618 33.0827 28.9772 32.9739 28.7595 32.7564C28.3227 32.3214 28.3227 31.6159 28.7595 31.1795L31.0883 28.8524C31.1831 28.7576 31.1971 28.6474 31.1971 28.5889C31.1971 28.5303 31.1831 28.4201 31.0883 28.3253L28.7595 25.9983C28.3227 25.5632 28.3241 24.8577 28.7595 24.4213C29.1948 23.9849 29.9009 23.9849 30.3376 24.4213Z" fill="white"/>
</svg>
