<svg width="48" height="48" viewBox="0 0 48 48" fill="none" xmlns="http://www.w3.org/2000/svg">
<path d="M18 16H30C31.1055 16 32 15.1054 32 14V10C32 8.8945 31.1054 8 30 8H18C16.8955 8 16 8.89456 16 10V14C16 15.1055 16.8955 16 18 16Z" fill="#0FD9C2"/>
<path d="M30 30H18C16.8955 30 16 30.8946 16 32V38C16 39.1055 16.8955 40 18 40H30C31.1055 40 32 39.1054 32 38V32C32 30.8946 31.1055 30 30 30ZM29 38H19C18.4472 38 18 37.5528 18 37C18 36.4472 18.4472 36 19 36H29C29.5527 36 30 36.4472 30 37C30 37.5528 29.5527 38 29 38ZM29 34H19C18.4472 34 18 33.5528 18 33C18 32.4472 18.4472 32 19 32H29C29.5527 32 30 32.4472 30 33C30 33.5528 29.5527 34 29 34Z" fill="#0FD9C2"/>
<path d="M38 14H34V16C34 17.1055 33.1054 18 32 18H16C14.8955 18 14 17.1054 14 16V14H10C8.8955 14 8 14.8946 8 16V30C8 31.1055 8.8955 32 10 32H14V30C14 28.8945 14.8955 28 16 28H32C33.1055 28 34 28.8946 34 30V32H38C39.1055 32 40 31.1054 40 30V16C40 14.8946 39.1055 14 38 14ZM30 24C28.8945 24 28 23.1054 28 22C28 20.8965 28.8946 20 30 20C31.1054 20 32 20.8965 32 22C32 23.1055 31.1055 24 30 24ZM36 24C34.8945 24 34 23.1054 34 22C34 20.8965 34.8946 20 36 20C37.1054 20 38 20.8965 38 22C38 23.1055 37.1055 24 36 24Z" fill="#643BFF"/>
</svg>
