<svg width="65" height="65" viewBox="0 0 65 65" fill="none" xmlns="http://www.w3.org/2000/svg">
<g clip-path="url(#clip0_2132_15715)">
<path d="M8.28081 55.1738H9.64144V20.6338L32.4809 39.0322L55.3204 20.6338V55.1737H56.7162C60.0516 55.1737 62.8182 52.6193 63.1572 49.3699V15.9332C63.1572 12.3709 60.2431 9.45716 56.6811 9.45716L32.4809 29.0188L8.28081 9.45703C4.71881 9.45703 1.80469 12.3709 1.80469 15.933V48.6977C1.80469 52.2599 4.71881 55.1738 8.28081 55.1738Z" fill="#0FDAC2"/>
<path d="M56.7178 8.15234H8.28225C3.99113 8.15234 0.5 11.6436 0.5 15.9346V48.6992C0.5 52.9903 3.99113 56.4813 8.28225 56.4813H56.7178C61.009 56.4813 64.5 52.9903 64.5 48.6992V15.9346C64.5 11.6436 61.009 8.15234 56.7178 8.15234ZM52.989 10.7646L32.4824 27.3406L11.9757 10.7646H52.989ZM54.0158 53.8691H10.949V23.3646L31.663 40.0508C31.8952 40.2378 32.1843 40.3398 32.4824 40.3398C32.7805 40.3398 33.0696 40.2378 33.3018 40.0508L54.0156 23.3646V53.8691H54.0158ZM61.8877 48.6991C61.8877 51.5498 59.5685 53.869 56.7178 53.869H56.6281V20.6352C56.6282 20.3888 56.5586 20.1473 56.4272 19.9388C56.2959 19.7303 56.1082 19.5631 55.8859 19.4568C55.6636 19.3504 55.4158 19.3091 55.171 19.3376C54.9262 19.3662 54.6945 19.4634 54.5026 19.6181L32.4824 37.3566L10.4622 19.6181C10.2704 19.4635 10.0387 19.3663 9.7939 19.3378C9.54913 19.3092 9.30129 19.3505 9.07901 19.4569C8.85672 19.5633 8.66907 19.7304 8.53772 19.9389C8.40638 20.1474 8.3367 20.3888 8.33675 20.6352V53.869H8.28225C5.43162 53.8691 3.11238 51.5498 3.11238 48.6992V15.9346C3.11238 13.2313 5.19837 11.0073 7.845 10.7846L31.6615 30.0361C31.8938 30.2242 32.1836 30.3267 32.4825 30.3265C32.7734 30.3265 33.0641 30.2297 33.3035 30.0361L57.1229 10.782C59.7848 10.9895 61.8877 13.2203 61.8877 15.9345V48.6991Z" fill="white"/>
<path d="M50.3125 33.2066C50.6011 33.2066 50.8917 33.1113 51.1335 32.9156L51.5878 32.5478C52.1485 32.094 52.235 31.2716 51.7811 30.711C51.3273 30.1502 50.5047 30.0637 49.9442 30.5176L49.4897 30.8853C48.9291 31.3392 48.8426 32.1617 49.2965 32.7223C49.4189 32.8738 49.5737 32.9959 49.7495 33.0797C49.9253 33.1635 50.1177 33.2069 50.3125 33.2066ZM37.6897 43.3244C37.9887 43.3247 38.2786 43.222 38.5107 43.0336L47.8492 35.5743C48.4098 35.1205 48.4963 34.2981 48.0425 33.7375C47.5887 33.1767 46.7661 33.0901 46.2056 33.5438L36.8671 41.0031C36.3065 41.457 36.22 42.2793 36.6738 42.84C36.7962 42.9915 36.951 43.1137 37.1268 43.1975C37.3026 43.2814 37.4949 43.3248 37.6897 43.3244Z" fill="#0FDAC2"/>
</g>
<defs>
<clipPath id="clip0_2132_15715">
<rect width="64" height="64" fill="white" transform="translate(0.5 0.316406)"/>
</clipPath>
</defs>
</svg>
