<svg width="76" height="76" viewBox="0 0 76 76" fill="none" xmlns="http://www.w3.org/2000/svg">
<path fill-rule="evenodd" clip-rule="evenodd" d="M72.5988 47.7739C71.8677 47.9434 71.1197 48.0285 70.3693 48.0278C65.9211 48.0278 62.0014 45.0262 60.8454 40.7556L60.7276 40.2987C60.5726 39.699 60.1877 39.1845 59.6562 38.8664C59.1248 38.5482 58.4894 38.4521 57.8876 38.5987C57.2859 38.7458 56.7663 39.1241 56.4415 39.6516C56.1166 40.1791 56.0127 40.8134 56.1523 41.417C57.3553 46.6217 54.2614 51.7902 49.0864 53.1887C48.9837 53.2175 48.8787 53.2429 48.7755 53.2688L48.6945 53.2891C48.0916 53.4399 47.5728 53.8229 47.2511 54.3546C46.9294 54.8863 46.8309 55.5236 46.977 56.1277C47.1237 56.7313 47.5027 57.2527 48.0317 57.5784C48.5607 57.9042 49.1969 58.008 49.8019 57.8673C50.533 57.6978 51.281 57.6127 52.0315 57.6134C56.4829 57.6134 60.404 60.6149 61.5562 64.8705L61.5925 65.0142L61.6003 65.0441C61.6133 65.0945 61.6264 65.1452 61.6382 65.1955L61.658 65.2841C61.7979 65.8903 62.172 66.4165 62.6985 66.748C63.225 67.0794 63.8612 67.1892 64.4683 67.0534C65.0755 66.9173 65.6041 66.5465 65.9388 66.022C66.2734 65.4975 66.387 64.8618 66.2546 64.2539L66.2324 64.1545C65.0769 58.9724 68.1666 53.8444 73.3148 52.4529C73.4175 52.4242 73.5225 52.3988 73.6257 52.3729L73.7067 52.3526C74.3074 52.1998 74.8237 51.8163 75.1435 51.2853C75.4634 50.7544 75.561 50.1187 75.4153 49.5162C75.2696 48.9138 74.8922 48.393 74.365 48.0669C73.8379 47.7409 73.2029 47.6353 72.5988 47.7739ZM57.0369 53.7922C58.9453 54.4933 60.687 55.5834 62.1517 56.9935C62.8499 55.0721 63.9452 53.3193 65.3661 51.8495C63.458 51.1479 61.7166 50.0572 60.2523 48.6468C59.5543 50.5689 58.4586 52.3222 57.0369 53.7922Z" fill="#FCBD06"/>
<path fill-rule="evenodd" clip-rule="evenodd" d="M49.8015 19.7121C50.5325 19.5426 51.2806 19.4575 52.031 19.4582C56.4825 19.4582 60.4036 22.4598 61.5558 26.7153L61.592 26.859C61.6076 26.9193 61.6236 26.98 61.6377 27.0403L61.6575 27.1289C61.7975 27.7351 62.1715 28.2613 62.698 28.5928C63.2245 28.9242 63.8607 29.034 64.4678 28.8982C65.075 28.7621 65.6036 28.3913 65.9383 27.8668C66.273 27.3423 66.3865 26.7066 66.2541 26.0987L66.232 25.9993C65.0765 20.8172 68.1661 15.6892 73.3143 14.2977C73.397 14.2746 73.4812 14.2536 73.5648 14.2328L73.6252 14.2177L73.7062 14.1974C74.3091 14.0465 74.8279 13.6635 75.1496 13.1318C75.4713 12.6001 75.5698 11.9628 75.4237 11.3588C75.2771 10.7551 74.8981 10.2337 74.3691 9.90788C73.8401 9.58212 73.2039 9.47837 72.5988 9.6192C71.8677 9.78863 71.1197 9.87382 70.3693 9.8731C65.9211 9.8731 62.0014 6.87152 60.8454 2.60091L60.7276 2.14398C60.5726 1.54431 60.1877 1.02977 59.6562 0.711632C59.1248 0.393496 58.4894 0.297332 57.8876 0.443935C57.2859 0.591074 56.7663 0.969381 56.4415 1.4969C56.1166 2.02443 56.0127 2.65868 56.1523 3.26227C57.3553 8.46699 54.2614 13.6354 49.0864 15.034C49.0037 15.0571 48.9196 15.0781 48.8361 15.0989L48.7755 15.1141L48.6945 15.1343C48.0916 15.2852 47.5728 15.6682 47.2511 16.1999C46.9294 16.7316 46.8309 17.3689 46.977 17.9729C47.1237 18.5766 47.5027 19.0979 48.0317 19.4237C48.5607 19.7494 49.1964 19.8528 49.8015 19.7121ZM65.3657 13.6943C63.4575 12.9927 61.7161 11.902 60.2519 10.4916C59.5538 12.4137 58.4582 14.167 57.0364 15.637C58.9448 16.3381 60.6865 17.4282 62.1512 18.8383C62.8495 16.9169 63.9448 15.1641 65.3657 13.6943Z" fill="#FCBD06"/>
<path fill-rule="evenodd" clip-rule="evenodd" d="M51.8647 28.7818C53.3801 30.2972 53.3801 32.7646 51.8647 34.2814L43.7804 42.3714L11.9402 74.237C11.2058 74.9723 10.2293 75.377 9.19017 75.377C8.15102 75.377 7.17452 74.9723 6.43967 74.2365L1.64383 69.4374C0.129377 67.922 0.128906 65.4551 1.64383 63.9383L33.4652 32.091C33.4718 32.0844 33.476 32.0764 33.4826 32.0698L41.566 23.9799C42.3013 23.2445 43.2773 22.8399 44.3165 22.8399C45.3556 22.8399 46.3321 23.2445 47.0665 23.9794L51.8647 28.7818ZM47.953 31.5314L44.3165 27.8915L38.4782 33.7345L42.1147 37.3744L47.953 31.5314ZM5.55549 66.6874L9.19017 70.3253L38.7848 40.7066L35.1502 37.0687L5.55549 66.6874Z" fill="white"/>
<path fill-rule="evenodd" clip-rule="evenodd" d="M11.1747 19.7121C11.9058 19.5426 12.6538 19.4575 13.4043 19.4582C17.8557 19.4582 21.7768 22.4598 22.929 26.7153L22.9653 26.859C22.9809 26.9193 22.9969 26.98 23.011 27.0403L23.0308 27.1289C23.1707 27.7351 23.5448 28.2613 24.0713 28.5928C24.5978 28.9242 25.234 29.034 25.8411 28.8982C26.4483 28.7621 26.9769 28.3913 27.3116 27.8668C27.6462 27.3423 27.7598 26.7066 27.6274 26.0987L27.6052 25.9993C26.4497 20.8172 29.5394 15.6892 34.6876 14.2977C34.7703 14.2746 34.8545 14.2536 34.938 14.2328L34.9985 14.2177L35.0795 14.1974C35.6824 14.0465 36.2012 13.6635 36.5229 13.1318C36.8446 12.6001 36.9431 11.9628 36.797 11.3588C36.6503 10.7552 36.2712 10.2338 35.7423 9.90805C35.2133 9.5823 34.5771 9.4785 33.972 9.6192C33.241 9.78863 32.493 9.87382 31.7425 9.8731C27.2943 9.8731 23.3747 6.87152 22.2187 2.60091L22.1009 2.14398C21.9458 1.54431 21.561 1.02977 21.0295 0.711632C20.498 0.393496 19.8627 0.297332 19.2609 0.443935C18.6591 0.591074 18.1396 0.969381 17.8147 1.4969C17.4899 2.02443 17.386 2.65868 17.5255 3.26227C18.7286 8.46699 15.6347 13.6354 10.4597 15.034C10.377 15.0571 10.2928 15.0781 10.2093 15.0989L10.1488 15.1141L10.0678 15.1343C9.4649 15.2852 8.9461 15.6682 8.62439 16.1999C8.30269 16.7316 8.20416 17.3689 8.35028 17.9729C8.49698 18.5766 8.87601 19.0979 9.40498 19.4237C9.93396 19.7494 10.5697 19.8528 11.1747 19.7121ZM26.739 13.6943C24.8308 12.9927 23.0894 11.902 21.6252 10.4916C20.9271 12.4137 19.8314 14.167 18.4097 15.637C20.3181 16.3381 22.0598 17.4282 23.5245 18.8383C24.2227 16.9169 25.318 15.1641 26.739 13.6943Z" fill="#FCBD06"/>
</svg>
