<svg width="120" height="94" viewBox="0 0 120 94" fill="none" xmlns="http://www.w3.org/2000/svg">
<path d="M22.8431 15.569C23.168 15.3461 23.569 15.2618 23.9564 15.3337C24.3438 15.4057 24.6865 15.6291 24.9095 15.9538C25.1047 16.238 25.1942 16.58 25.1654 16.9206L25.1459 17.0661C24.8157 18.8475 24.4516 20.0998 24.0844 21.2712C23.7174 22.4415 23.3556 23.5085 23.014 24.9597C21.4224 31.7098 20.0701 37.4646 20.5834 44.9089C20.6432 45.7537 20.7066 46.5478 21.0131 47.1315L21.0795 47.2516C21.4364 47.8357 22.054 48.2197 22.7552 48.4655C23.4981 48.7258 24.2654 48.8052 24.722 48.8278C25.6851 48.8756 26.9716 48.9314 28.2152 48.9841C28.8488 49.0109 29.1328 49.0385 29.3783 49.0661C29.6076 49.0918 29.7878 49.1155 30.2386 49.1374H30.2494V49.1384C30.6311 49.1647 30.9887 49.337 31.2465 49.6198C31.5041 49.9027 31.6435 50.2743 31.6342 50.6569C31.6248 51.0396 31.4678 51.4045 31.1967 51.6745C30.9254 51.9444 30.5597 52.0995 30.1771 52.1071H30.1078L30.0941 52.1061C29.6094 52.0825 29.3987 52.0559 29.1644 52.03C28.9454 52.0057 28.6894 51.9804 28.0912 51.9557C26.8688 51.9054 25.5499 51.847 24.5717 51.7966V51.7956C21.7429 51.6552 19.4415 50.5123 18.3842 48.5173L18.3832 48.5163C17.7647 47.3431 17.6844 46.0466 17.6185 45.1149V45.113C17.0731 37.2016 18.4965 31.1726 20.1205 24.279C20.4714 22.7889 20.8473 21.683 21.2045 20.5475C21.5613 19.4132 21.9097 18.2237 22.224 16.5241L22.2572 16.3806C22.3526 16.0524 22.5591 15.7642 22.8431 15.569ZM99.1576 15.3337C99.5452 15.2617 99.9469 15.3459 100.272 15.569C100.556 15.7642 100.761 16.0524 100.857 16.3806L100.891 16.5241C101.205 18.2237 101.554 19.4132 101.911 20.5475C102.268 21.683 102.643 22.7889 102.994 24.279C104.618 31.1727 106.041 37.2016 105.495 45.113V45.1149C105.43 46.0466 105.35 47.3432 104.732 48.5163L104.731 48.5173C103.674 50.5124 101.372 51.6552 98.5433 51.7956V51.7966C97.5651 51.847 96.2463 51.9054 95.0238 51.9557C94.4252 51.9804 94.1687 52.0057 93.9496 52.03C93.7154 52.0559 93.5043 52.0825 93.0199 52.1061L93.0062 52.1071H92.9369C92.5543 52.0994 92.1886 51.9444 91.9174 51.6745C91.6462 51.4045 91.4892 51.0396 91.4799 50.6569C91.4706 50.2743 91.6099 49.9027 91.8676 49.6198C92.1253 49.3369 92.4828 49.1647 92.8646 49.1384V49.1374H92.8754C93.3265 49.1155 93.5064 49.0919 93.7357 49.0661C93.9812 49.0385 94.2652 49.0109 94.8988 48.9841C96.1426 48.9313 97.4298 48.8756 98.3929 48.8278C98.8497 48.8051 99.6169 48.7259 100.36 48.4655C101.061 48.2197 101.678 47.8356 102.035 47.2516L102.102 47.1315C102.408 46.5479 102.472 45.7536 102.532 44.9089C103.045 37.4646 101.693 31.7098 100.101 24.9597C99.7594 23.5085 99.3976 22.4414 99.0306 21.2712C98.6634 20.0998 98.2983 18.8475 97.9681 17.0661L97.9486 16.9206C97.9198 16.58 98.0094 16.2379 98.2045 15.9538C98.4275 15.6291 98.7703 15.4058 99.1576 15.3337ZM72.266 48.7507L72.265 48.7516C72.6579 48.7526 73.035 48.9083 73.3129 49.1862C73.5914 49.4648 73.7483 49.843 73.7484 50.237C73.7484 50.631 73.5913 51.0091 73.3129 51.2878C73.0343 51.5664 72.6561 51.7242 72.2621 51.7243H72.2455L51.3969 51.5632C51.0028 51.5605 50.6258 51.4012 50.349 51.1208C50.0723 50.8404 49.9178 50.4611 49.9203 50.0671C49.923 49.6732 50.0824 49.296 50.3627 49.0192C50.6432 48.7424 51.0233 48.588 51.4174 48.5905L72.266 48.7507ZM29.5853 51.5173L30.1215 51.5534H30.1664L30.1674 51.5524H30.1215C29.8879 51.541 29.7219 51.5296 29.5853 51.5173ZM93.5287 51.5163C93.3921 51.5286 93.2261 51.541 92.9926 51.5524H92.9476C92.9176 51.5518 92.8874 51.55 92.8578 51.5466L92.9476 51.5534H92.9935C93.371 51.535 93.5714 51.5125 93.7572 51.4919C93.6863 51.4998 93.613 51.5087 93.5287 51.5163ZM30.3793 51.5222C30.3839 51.521 30.3884 51.5195 30.3929 51.5182C30.3884 51.5195 30.3839 51.521 30.3793 51.5222ZM92.7201 51.5182C92.7247 51.5195 92.7292 51.521 92.7338 51.5222C92.7292 51.521 92.7247 51.5195 92.7201 51.5182ZM30.6244 51.4196C30.6277 51.4177 30.6309 51.4157 30.6342 51.4138C30.6309 51.4157 30.6277 51.4177 30.6244 51.4196ZM92.4789 51.4138C92.4821 51.4157 92.4854 51.4177 92.4886 51.4196C92.4854 51.4177 92.4821 51.4157 92.4789 51.4138ZM24.601 51.2438H24.6C25.0875 51.269 25.6607 51.295 26.264 51.322H26.265C25.6614 51.295 25.0886 51.269 24.601 51.2438ZM30.8998 51.1696C30.9029 51.1653 30.9065 51.1613 30.9095 51.1569C30.9065 51.1613 30.9029 51.1653 30.8998 51.1696ZM100.421 50.9684H100.422H100.421ZM72.4701 51.1442C72.4826 51.1414 72.4948 51.1378 72.5072 51.1345C72.4949 51.1378 72.4826 51.1414 72.4701 51.1442ZM72.7162 51.0495C72.7326 51.0404 72.7482 51.0303 72.764 51.0202C72.7483 51.0303 72.7325 51.0404 72.7162 51.0495ZM30.9789 51.0407C30.9828 51.0329 30.9869 51.0252 30.9906 51.0173C30.9869 51.0252 30.9828 51.0329 30.9789 51.0407ZM51.309 51.0046C51.3393 51.0078 51.37 51.0092 51.4008 51.0095C51.3389 51.0091 51.2778 51.0023 51.2181 50.9899L51.309 51.0046ZM72.9203 50.8962C72.8985 50.9179 72.8765 50.9393 72.8529 50.9587L72.9213 50.8962C72.943 50.8744 72.9635 50.8514 72.9828 50.8278L72.9203 50.8962ZM50.8851 50.8493H50.8842H50.8851ZM31.0385 50.8923C31.0407 50.8848 31.0432 50.8774 31.0453 50.8698C31.0432 50.8774 31.0407 50.8848 31.0385 50.8923ZM50.6371 50.6022C50.6405 50.6072 50.6443 50.6119 50.6478 50.6169C50.6443 50.6119 50.6405 50.6072 50.6371 50.6022ZM19.1654 48.735C19.3443 48.9905 19.5501 49.2288 19.7806 49.4489C20.0572 49.713 20.3695 49.951 20.7142 50.1608H20.7152C20.0829 49.7759 19.559 49.2972 19.1654 48.735ZM73.181 50.0895C73.18 50.083 73.1793 50.0765 73.1781 50.07C73.1793 50.0765 73.18 50.083 73.181 50.0895ZM103.044 49.7048H103.045H103.044ZM73.142 49.9333C73.1392 49.9254 73.1361 49.9177 73.1332 49.9099C73.1361 49.9177 73.1392 49.9254 73.142 49.9333ZM72.9203 49.5778C72.9377 49.5952 72.9542 49.6139 72.9701 49.6325L72.9213 49.5778C72.9166 49.5731 72.9104 49.5697 72.9056 49.5651C72.9103 49.5696 72.9157 49.5732 72.9203 49.5778ZM50.8949 49.2975C50.844 49.3309 50.7963 49.3695 50.7523 49.4128V49.4138C50.7964 49.3703 50.8439 49.3311 50.8949 49.2975ZM72.8177 49.4909C72.8073 49.4831 72.7973 49.4748 72.7865 49.4675C72.7973 49.4748 72.8073 49.4831 72.8177 49.4909ZM72.6742 49.402C72.6648 49.3974 72.6554 49.3927 72.6459 49.3884C72.6554 49.3927 72.6648 49.3974 72.6742 49.402ZM72.5219 49.3425C72.5118 49.3396 72.5017 49.3372 72.4916 49.3347C72.5017 49.3372 72.5118 49.3396 72.5219 49.3425ZM105.055 41.1296C105.07 42.3979 105.037 43.7086 104.943 45.0759C104.876 46.0247 104.796 47.2033 104.241 48.2575C104.211 48.3125 104.181 48.3669 104.15 48.4206C104.181 48.3668 104.212 48.3127 104.242 48.2575C104.797 47.2034 104.877 46.0246 104.944 45.0759C105.038 43.7085 105.07 42.3979 105.055 41.1296ZM102.506 47.5407C102.284 47.9039 101.987 48.1935 101.653 48.4284C101.987 48.1936 102.284 47.904 102.506 47.5407ZM20.6078 47.5407C20.8269 47.8996 21.1193 48.1872 21.4486 48.4206C21.1194 48.1872 20.8269 47.8994 20.6078 47.5407ZM18.6859 47.8571C18.7409 47.9908 18.8028 48.123 18.8715 48.2536C18.8028 48.123 18.7409 47.9908 18.6859 47.8571ZM18.0541 41.654C18.0528 42.7585 18.0889 43.8961 18.1703 45.0759C18.2206 45.7874 18.2785 46.6282 18.5385 47.4489L18.4779 47.2438C18.2694 46.4893 18.2174 45.7282 18.1713 45.0759C18.0899 43.8962 18.0529 42.7584 18.0541 41.654ZM18.0853 39.985C18.0809 40.1077 18.0771 40.2308 18.0736 40.3542C18.0771 40.2308 18.0809 40.1077 18.0853 39.985ZM105.028 39.985C105.032 40.1077 105.036 40.2308 105.039 40.3542C105.036 40.2308 105.032 40.1077 105.028 39.985ZM18.1351 38.9343C18.132 38.9876 18.1293 39.041 18.1263 39.0944C18.1293 39.041 18.132 38.9876 18.1351 38.9343ZM104.988 39.0944C104.985 39.041 104.982 38.9876 104.979 38.9343C104.982 38.9876 104.985 39.041 104.988 39.0944ZM18.226 37.6735C18.2172 37.7778 18.2087 37.8823 18.2006 37.987C18.2087 37.8823 18.2172 37.7778 18.226 37.6735ZM104.914 37.987C104.906 37.8823 104.898 37.7778 104.889 37.6735C104.898 37.7778 104.906 37.8823 104.914 37.987ZM104.812 36.8425C104.804 36.761 104.795 36.6796 104.786 36.5983C104.795 36.6796 104.804 36.761 104.812 36.8425ZM18.5941 34.4704C18.5374 34.8612 18.4838 35.2535 18.4349 35.6481C18.4837 35.2535 18.5375 34.8612 18.5941 34.4704ZM104.67 35.5798C104.622 35.1924 104.569 34.8072 104.513 34.4235C104.569 34.8072 104.622 35.1924 104.67 35.5798ZM18.7865 33.236C18.7389 33.5234 18.6945 33.8115 18.6508 34.1003C18.6944 33.8115 18.739 33.5234 18.7865 33.236ZM104.463 34.1003C104.423 33.8331 104.382 33.5665 104.338 33.3005C104.382 33.5665 104.423 33.8331 104.463 34.1003ZM18.9808 32.1188C18.9316 32.389 18.8844 32.6595 18.8383 32.9304C18.8843 32.6595 18.9317 32.389 18.9808 32.1188ZM104.251 32.7936C104.212 32.5659 104.173 32.3383 104.131 32.111C104.173 32.3383 104.212 32.5659 104.251 32.7936ZM104.051 31.6784C104 31.4072 103.948 31.1361 103.894 30.8649C103.948 31.1361 104 31.4072 104.051 31.6784ZM19.1996 30.9645C19.1597 31.1669 19.1217 31.3695 19.0834 31.572C19.1217 31.3695 19.1597 31.1669 19.1996 30.9645ZM19.4584 29.697C19.4036 29.9567 19.3498 30.216 19.2972 30.4753C19.3498 30.216 19.4036 29.9567 19.4584 29.697ZM103.817 30.4753C103.755 30.1728 103.692 29.8703 103.627 29.5671C103.692 29.8703 103.755 30.1728 103.817 30.4753ZM103.581 29.3464C103.516 29.0413 103.449 28.7358 103.381 28.4294C103.449 28.7358 103.516 29.0413 103.581 29.3464ZM21.6146 28.5475C21.5718 28.7392 21.5305 28.9308 21.4886 29.1218C21.619 28.5263 21.753 27.9273 21.892 27.3239L21.6146 28.5475ZM20.9232 23.3718C20.8347 23.6968 20.7467 24.0388 20.6605 24.405H20.6615C20.7477 24.0389 20.8347 23.6968 20.9232 23.3718ZM101.112 19.8347C101.378 20.7404 101.653 21.5453 101.923 22.4401C101.653 21.5453 101.378 20.7404 101.112 19.8347ZM99.3451 20.4069C99.3876 20.549 99.4313 20.6885 99.474 20.8268C99.4313 20.6885 99.3876 20.549 99.3451 20.4069ZM23.6771 20.7057C23.706 20.6116 23.7343 20.5165 23.7631 20.4206C23.7343 20.5165 23.706 20.6116 23.6771 20.7057ZM23.9037 19.9362C23.9595 19.7404 24.0167 19.5398 24.0717 19.3317C24.0167 19.5398 23.9595 19.7404 23.9037 19.9362ZM99.0414 19.3317C99.0964 19.5398 99.1535 19.7404 99.2094 19.9362C99.1535 19.7404 99.0964 19.5398 99.0414 19.3317ZM24.1078 19.1979C24.1341 19.0965 24.1598 18.9934 24.1859 18.8884C24.1598 18.9934 24.1341 19.0965 24.1078 19.1979ZM23.7601 15.8649C23.5475 15.8477 23.334 15.9042 23.1566 16.0261C22.9529 16.166 22.8131 16.3817 22.7679 16.6247C22.6879 17.0574 22.6057 17.4577 22.5219 17.8327C22.6057 17.4577 22.6889 17.0574 22.7689 16.6247C22.8141 16.3816 22.9538 16.166 23.1576 16.0261C23.3348 15.9045 23.5478 15.8478 23.7601 15.8649ZM100.467 17.2497H100.468H100.467ZM24.6156 16.8229C24.6159 16.8141 24.6166 16.8054 24.6166 16.7966C24.6166 16.8054 24.6159 16.8141 24.6156 16.8229ZM24.6049 16.652C24.6043 16.6481 24.6036 16.6442 24.6029 16.6403C24.6036 16.6442 24.6042 16.6481 24.6049 16.652ZM99.4427 15.862C99.6252 15.8647 99.8048 15.9212 99.9574 16.0261C100.11 16.131 100.227 16.2784 100.295 16.4479C100.227 16.2784 100.11 16.131 99.9574 16.0261C99.8047 15.9213 99.6253 15.8646 99.4427 15.862ZM24.5687 16.5007C24.566 16.4925 24.5629 16.4844 24.5599 16.4763C24.5629 16.4844 24.566 16.4925 24.5687 16.5007ZM23.8558 15.8786C23.9082 15.8883 23.9589 15.9033 24.0082 15.9216C23.9585 15.9031 23.9076 15.8874 23.8549 15.8776C23.8286 15.8728 23.8021 15.8695 23.7758 15.8669C23.8023 15.8695 23.8294 15.8737 23.8558 15.8786ZM99.2601 15.8776C99.2097 15.887 99.1603 15.9014 99.1127 15.9186C99.1601 15.9015 99.209 15.8879 99.2592 15.8786C99.2855 15.8737 99.3118 15.8695 99.3383 15.8669C99.3122 15.8694 99.2861 15.8728 99.2601 15.8776Z" fill="#0FDAC2"/>
<path d="M113.41 18.3794H113.341C113.094 18.3604 112.865 18.2446 112.703 18.0575C112.542 17.8703 112.461 17.6268 112.478 17.3801C112.629 15.0281 112.174 12.6766 111.158 10.5501C110.141 8.4237 108.597 6.59325 106.672 5.2335C106.468 5.09241 106.329 4.87619 106.285 4.6324C106.24 4.38861 106.295 4.13722 106.436 3.93353C106.577 3.72985 106.793 3.59055 107.037 3.54628C107.281 3.50202 107.532 3.55641 107.736 3.6975C109.925 5.24502 111.681 7.32732 112.837 9.74596C113.993 12.1646 114.51 14.839 114.34 17.5143C114.323 17.7493 114.218 17.9692 114.045 18.1297C113.873 18.2901 113.646 18.3794 113.41 18.3794Z" fill="#643BFF"/>
<path d="M118.499 16.2729C118.351 16.2729 118.205 16.2375 118.073 16.1696C117.941 16.1018 117.827 16.0034 117.741 15.8827C117.655 15.762 117.598 15.6225 117.577 15.4757C117.555 15.329 117.569 15.1792 117.617 15.0388C118.106 13.5759 118.24 12.0176 118.008 10.4926C117.776 8.96765 117.185 7.51977 116.283 6.26855C116.142 6.06874 116.086 5.82185 116.126 5.58097C116.166 5.34009 116.298 5.12443 116.495 4.98037C116.693 4.8363 116.938 4.77532 117.18 4.81053C117.422 4.84574 117.64 4.97433 117.787 5.16867C118.864 6.66313 119.571 8.3923 119.848 10.2135C120.125 12.0346 119.965 13.8956 119.381 15.6427C119.318 15.8264 119.199 15.9858 119.041 16.0987C118.883 16.2117 118.693 16.2725 118.499 16.2729Z" fill="#643BFF"/>
<path d="M12.1273 91.4029C11.9429 91.4022 11.7629 91.3472 11.6097 91.2447C6.32593 87.6935 3.87455 80.4616 5.90658 74.4326C5.94263 74.313 6.00236 74.2019 6.0822 74.1058C6.16204 74.0098 6.26034 73.9307 6.37132 73.8734C6.4823 73.8161 6.6037 73.7817 6.72824 73.7722C6.85279 73.7627 6.97796 73.7784 7.09634 73.8182C7.21472 73.858 7.32387 73.9213 7.41734 74.0041C7.51081 74.087 7.58666 74.1877 7.64041 74.3005C7.69417 74.4132 7.72475 74.5356 7.73027 74.6604C7.7358 74.7852 7.71617 74.9098 7.67259 75.0269C5.89936 80.2986 8.03922 86.5984 12.6496 89.6968C12.8157 89.8082 12.9416 89.9702 13.0086 90.1587C13.0756 90.3473 13.0801 90.5524 13.0215 90.7437C12.963 90.935 12.8444 91.1023 12.6833 91.2211C12.5223 91.3398 12.3273 91.4035 12.1273 91.4029Z" fill="#643BFF"/>
<path d="M6.13514 93.0908C5.93599 93.0903 5.74213 93.0265 5.58159 92.9087C2.80954 90.8422 0.857376 87.8622 0.0701961 84.4954C0.015223 84.2543 0.058339 84.0011 0.190009 83.7917C0.321679 83.5823 0.531159 83.4338 0.772342 83.3788C1.01352 83.3238 1.26665 83.3669 1.47607 83.4986C1.68548 83.6302 1.834 83.8397 1.88898 84.0809C2.57086 87.0129 4.26865 89.6088 6.68149 91.4087C6.83743 91.5258 6.95268 91.6889 7.01104 91.875C7.06939 92.0611 7.06789 92.2608 7.00677 92.446C6.94565 92.6312 6.82798 92.7926 6.67032 92.9074C6.51266 93.0222 6.32297 93.0847 6.12794 93.086L6.13514 93.0908Z" fill="#643BFF"/>
<path d="M76.0295 2.12959C71.0237 1.26933 65.9388 1.19265 60.8755 1.11597L47.8615 0.921875C47.2001 0.921875 46.395 0.996158 46.1122 1.66232C46.0366 1.89717 46.0163 2.14633 46.0528 2.39033C46.0894 2.63433 46.1819 2.86657 46.3231 3.06892C47.1857 4.46115 48.9302 4.65045 50.447 4.71036L66.8734 5.34297L73.8776 5.61374C74.6301 5.6425 75.4041 5.66886 76.111 5.3861C76.487 5.24498 76.8174 5.00392 77.0665 4.68892C77.3156 4.37391 77.474 3.9969 77.5247 3.59849C77.5942 2.7622 76.8849 1.88757 76.0295 2.12959Z" fill="#1C1C1E"/>
<path d="M74.5435 6.57368C74.3039 6.57368 74.0643 6.57368 73.8415 6.55691L50.4108 5.65112C49.2127 5.60559 46.7325 5.50975 45.532 3.57117C45.3097 3.24316 45.1686 2.86698 45.1202 2.47367C45.0719 2.08036 45.1178 1.68119 45.2541 1.30911C45.6327 0.420097 46.5169 -0.0208119 47.8756 0.000754448L60.8897 0.194851C65.8499 0.269135 70.9803 0.345812 76.0101 1.19169C76.2901 1.14807 76.5762 1.16507 76.849 1.24155C77.1219 1.31803 77.3751 1.45221 77.5916 1.635C77.8877 1.88349 78.1204 2.19892 78.2704 2.55519C78.4204 2.91147 78.4834 3.29834 78.4543 3.6838C78.3922 4.25603 78.1728 4.79988 77.8205 5.25501C77.4682 5.71014 76.9966 6.05876 76.4582 6.26217C75.8457 6.48721 75.1958 6.59295 74.5435 6.57368ZM47.7749 1.86504C47.1998 1.86504 46.9985 1.97048 46.9698 2.03757C46.9463 2.23321 46.9987 2.4304 47.116 2.58871C47.6791 3.49929 48.87 3.72693 50.4707 3.78684L73.9014 4.69023C74.5507 4.71658 75.2193 4.74295 75.7537 4.52728C75.9673 4.44908 76.1567 4.31601 76.3027 4.14145C76.4486 3.96689 76.546 3.75698 76.5852 3.53283C76.5891 3.44698 76.5741 3.36132 76.5414 3.28184C76.5087 3.20237 76.459 3.13101 76.3958 3.07275C76.3288 3.01764 76.2976 3.02722 76.2712 3.03441C76.1372 3.07263 75.9963 3.08001 75.8591 3.05598C70.9156 2.20771 65.7948 2.13102 60.8489 2.05674L47.8349 1.86264L47.7749 1.86504Z" fill="#1C1C1E"/>
<path d="M38.6366 12.2383C37.5655 23.8194 37.012 37.0803 37.3786 48.7045C39.3297 48.9322 41.3043 48.8578 43.2327 48.4841C42.7966 36.9101 43.4292 24.0926 44.7256 12.5833C42.7415 12.8661 40.7022 12.3509 38.6366 12.2383Z" fill="#643BFF"/>
<path d="M39.6003 49.7677C38.8211 49.7677 38.0426 49.722 37.2687 49.6311C37.047 49.6053 36.8419 49.5006 36.691 49.336C36.5401 49.1715 36.4534 48.9581 36.4468 48.7349C36.1042 37.8727 36.5643 24.5327 37.7073 12.1537C37.7292 11.9134 37.8437 11.691 38.0266 11.5336C38.2095 11.3763 38.4465 11.2961 38.6874 11.3102C39.4062 11.3485 40.1395 11.4372 40.844 11.521C42.1643 11.6816 43.4104 11.8326 44.6037 11.6624C44.7444 11.6426 44.8878 11.6551 45.0229 11.6992C45.158 11.7432 45.2812 11.8176 45.3831 11.9165C45.4851 12.0155 45.5631 12.1364 45.6112 12.2701C45.6592 12.4039 45.6761 12.5468 45.6604 12.688C44.2898 24.861 43.7602 37.5612 44.17 48.4498C44.1804 48.6732 44.1102 48.893 43.9721 49.069C43.8339 49.2449 43.6371 49.3654 43.4176 49.4083C42.1596 49.65 40.8813 49.7704 39.6003 49.7677ZM38.2847 47.8507C39.6154 47.9467 40.9526 47.8961 42.2722 47.6997C41.9247 37.2401 42.4207 25.2085 43.6763 13.5938C42.6515 13.5896 41.6281 13.5135 40.6139 13.3662C40.2401 13.3206 39.8591 13.2751 39.4805 13.2368C38.4309 24.9832 38.0068 37.4845 38.2847 47.8555V47.8507Z" fill="#643BFF"/>
<path d="M37.4805 61.1297C37.4779 63.9427 37.6483 66.7533 37.9909 69.5453C37.9909 69.5453 43.9624 69.7299 44.0822 69.368C43.603 66.5356 43.67 63.6769 43.4855 60.8086L37.4805 61.1297Z" fill="#643BFF"/>
<path d="M41.0399 70.5252H40.9896C39.4847 70.5252 37.9775 70.4772 37.9607 70.4772C37.7386 70.4699 37.5263 70.3836 37.3621 70.2338C37.1978 70.084 37.0923 69.8807 37.0645 69.6601C36.7184 66.8298 36.5455 63.9809 36.5469 61.1295C36.5472 60.8907 36.6391 60.6612 36.8036 60.4882C36.9681 60.3152 37.1927 60.212 37.4311 60.1997L43.4218 59.8762C43.667 59.8637 43.9072 59.9482 44.0906 60.1114C44.274 60.2746 44.3858 60.5035 44.4018 60.7484C44.4617 61.6662 44.4953 62.5936 44.5288 63.4874C44.6007 65.4667 44.6702 67.3334 44.9889 69.212C45.0138 69.3627 45.0023 69.5172 44.9554 69.6625C44.7158 70.3814 43.9034 70.4341 43.1223 70.4796C42.6143 70.5084 41.9121 70.5252 41.0399 70.5252ZM38.8233 68.6345C40.4216 68.6705 42.0942 68.6705 43.0264 68.6201C42.8011 66.9188 42.7388 65.2127 42.6765 63.5569C42.6574 62.9746 42.6334 62.3803 42.6046 61.7884L38.416 62.0137C38.4423 64.2206 38.5789 66.442 38.8233 68.6369V68.6345Z" fill="#643BFF"/>
<path d="M84.8179 12.2383C85.889 23.8194 86.4426 37.0803 86.0759 48.7045C84.1248 48.9322 82.1503 48.8578 80.2218 48.4841C80.6579 36.9101 80.0253 24.0926 78.7266 12.5833C80.7131 12.8661 82.7523 12.3509 84.8179 12.2383Z" fill="#643BFF"/>
<path d="M83.8555 49.7669C82.5767 49.7669 81.3008 49.6441 80.0454 49.4003C79.8258 49.3574 79.6291 49.237 79.4909 49.061C79.3528 48.8851 79.2825 48.6653 79.293 48.4418C79.7028 37.5532 79.1732 24.8531 77.8025 12.6801C77.7869 12.5389 77.8037 12.3959 77.8518 12.2622C77.8999 12.1285 77.9778 12.0075 78.0798 11.9086C78.1817 11.8096 78.305 11.7353 78.4401 11.6912C78.5752 11.6472 78.7186 11.6346 78.8593 11.6545C80.0574 11.8246 81.2986 11.6737 82.619 11.5131C83.3163 11.4292 84.0376 11.3406 84.7756 11.3022C85.0164 11.2888 85.253 11.3691 85.4357 11.5264C85.6185 11.6837 85.7332 11.9057 85.7557 12.1457C86.8891 24.544 87.3516 37.8743 87.0089 48.7461C87.0024 48.9693 86.9157 49.1827 86.7648 49.3472C86.6139 49.5118 86.4088 49.6165 86.187 49.6423C85.413 49.7293 84.6344 49.7709 83.8555 49.7669ZM81.1836 47.7038C82.5032 47.9001 83.8404 47.9507 85.171 47.8547C85.4562 37.4909 85.0249 24.9825 83.9729 13.2408C83.5943 13.2791 83.2133 13.3247 82.8395 13.3702C81.8252 13.5174 80.8019 13.5935 79.7771 13.5979C81.0351 25.2125 81.5311 37.2441 81.1836 47.7038Z" fill="#643BFF"/>
<path d="M85.9665 61.1297C85.9711 63.9427 85.8015 66.7533 85.4585 69.5453C85.4585 69.5453 79.487 69.7299 79.3672 69.368C79.8464 66.5356 79.7794 63.6769 79.9639 60.8086L85.9665 61.1297Z" fill="#643BFF"/>
<path d="M82.4111 70.5252C81.5388 70.5252 80.8367 70.5084 80.3167 70.4796C79.5332 70.4341 78.7232 70.3862 78.4836 69.6601C78.437 69.5155 78.4256 69.3619 78.45 69.212C78.7687 67.3358 78.8382 65.4667 78.9101 63.4898C78.9436 62.5936 78.9772 61.6662 79.0371 60.7484C79.0532 60.5035 79.165 60.2746 79.3483 60.1114C79.5317 59.9482 79.772 59.8637 80.0172 59.8762L86.0198 60.1997C86.258 60.212 86.4823 60.3154 86.6465 60.4884C86.8106 60.6614 86.902 60.891 86.9016 61.1295C86.9049 63.9809 86.7329 66.8298 86.3864 69.6601C86.3586 69.8807 86.2531 70.084 86.0889 70.2338C85.9246 70.3836 85.7124 70.4699 85.4902 70.4772C85.4734 70.4772 83.9662 70.5228 82.4614 70.5252H82.4111ZM80.4246 68.6201C81.3567 68.6729 83.0293 68.6705 84.6276 68.6345C84.8672 66.4419 85.0086 64.2206 85.035 62.0137L80.8463 61.7884C80.8151 62.3827 80.7936 62.9865 80.772 63.5569C80.7121 65.2151 80.657 66.9188 80.4174 68.6201H80.4246Z" fill="#643BFF"/>
<path fill-rule="evenodd" clip-rule="evenodd" d="M47.0587 2.29133C47.2529 2.27362 47.4493 2.29404 47.6355 2.35194C47.8218 2.4099 47.9953 2.5042 48.1453 2.629C48.2951 2.75373 48.4193 2.90675 48.51 3.07923C48.6007 3.25176 48.6567 3.44133 48.6745 3.63552C48.6923 3.82959 48.6717 4.02618 48.6139 4.21237C47.8456 6.69905 47.5422 9.30345 47.7135 11.8954C56.7736 12.3353 65.479 12.3488 75.688 12.0166C75.5828 9.80447 75.3302 7.60042 74.9315 5.42127L74.9304 5.41261C74.8666 5.02847 74.9556 4.63408 75.1793 4.31519C75.4031 3.99654 75.7434 3.7776 76.1263 3.70695C76.5093 3.63651 76.9054 3.71946 77.2281 3.93747C77.5103 4.12832 77.7177 4.41 77.8168 4.73294L77.8525 4.87472L77.8547 4.88446C78.2792 7.20641 78.5465 9.55449 78.6567 11.9117C84.9594 11.6735 91.8673 11.316 99.7793 10.8543C103.267 10.6508 105.486 13.5707 106.021 16.4648L106.067 16.7451C106.348 18.6608 106.693 20.5756 107.068 22.558L107.454 24.5656C108.769 31.4335 110.143 38.5862 109.889 46.9524L109.859 47.7652C109.779 49.675 109.182 51.2996 108.051 52.5889C107.41 53.32 106.607 53.929 105.656 54.4212C105.262 63.3109 105.829 78.7724 105.835 78.9748C105.836 78.9992 105.835 79.024 105.834 79.0484L105.835 79.0494C105.772 81.5403 104.828 83.9294 103.169 85.7888L103.168 85.7877C101.425 87.7668 99.1362 88.8807 96.7165 88.8808H96.6018C96.5593 88.8808 95.8644 88.8402 94.5173 88.7758C93.1471 88.7103 91.0647 88.6181 88.1969 88.5085C82.4607 88.2894 73.5776 88.0028 60.9453 87.7369C36.3982 87.2191 25.0343 88.1606 24.2423 88.2131L24.2433 88.2152C24.2345 88.2159 24.2251 88.2148 24.2163 88.2152C24.2094 88.2156 24.2041 88.2162 24.2011 88.2163C24.1684 88.2176 24.1354 88.2167 24.1026 88.2152C24.0902 88.2151 24.0772 88.2154 24.0648 88.2152C22.8681 88.1993 21.686 87.9489 20.5863 87.476C19.4751 86.9981 18.4696 86.3031 17.6296 85.4327C16.7897 84.5623 16.1315 83.533 15.6934 82.4056C15.2554 81.2782 15.0457 80.0745 15.0776 78.8655C15.1641 75.5635 15.3542 72.1854 15.5386 68.928C15.8255 63.8632 16.1205 58.6544 16.043 53.4894C15.4185 52.9826 14.887 52.3934 14.4499 51.7123C13.6458 50.4594 13.1777 48.9295 12.9942 47.1094C12.3172 40.4024 13.7896 30.9236 17.846 15.5221L17.9391 15.1877C18.9456 11.7741 21.2982 9.64661 24.265 9.97007C31.7655 10.7878 38.3802 11.3671 44.7264 11.7374C44.5804 8.89927 44.9343 6.05351 45.7751 3.3314C45.833 3.14535 45.9274 2.97052 46.0522 2.82057C46.1769 2.67084 46.3301 2.54649 46.5024 2.45584C46.675 2.36522 46.8646 2.30912 47.0587 2.29133ZM96.7089 86.4652L96.6786 86.4641L94.3312 86.3451C95.7737 86.4132 96.5326 86.4568 96.6775 86.4652H96.7089ZM19.0246 55.1063C19.029 59.8303 18.7657 64.5399 18.5073 69.0969C18.3227 72.3424 18.1333 75.6894 18.0473 78.9455C18.0283 79.7561 18.1704 80.5631 18.464 81.319C18.7578 82.0752 19.1979 82.7661 19.7595 83.3515C20.3213 83.937 20.9942 84.4055 21.7379 84.7303C22.4757 85.0526 23.2696 85.2267 24.0745 85.2433C25.2022 85.1496 36.8084 84.2536 60.9972 84.7649C85.6917 85.287 96.1068 85.8752 96.7089 85.91C98.4012 85.9098 99.9214 85.0385 101.04 83.7151C102.158 82.3923 102.835 80.6616 102.864 79.0397C102.833 78.187 102.342 64.403 102.64 55.4905C99.4099 56.238 95.4968 56.173 92.1104 56.1193C91.7381 56.1133 91.3752 56.1075 91.0205 56.1031C90.9875 57.6624 90.883 59.2724 90.6536 60.904L90.6547 60.9051C90.6073 61.2623 90.4315 61.5911 90.1601 61.8283C89.8891 62.0649 89.5404 62.1937 89.1807 62.193L89.119 62.1941C85.0696 62.0263 80.8843 61.9056 77.5127 62.1497H77.5105C77.308 62.1638 77.1046 62.136 76.9131 62.0686C76.7215 62.001 76.5449 61.8949 76.3958 61.7569C76.2468 61.6189 76.1283 61.4512 76.0462 61.2655C75.9848 61.1263 75.9449 60.9788 75.9283 60.8283L75.9185 60.6757C75.9092 59.1779 75.8646 57.6248 75.8157 56.0879C69.7776 56.1062 63.7745 56.1618 57.9615 56.2156C54.5973 56.2459 51.127 56.2764 47.6464 56.3C47.6001 57.7745 47.5589 59.2529 47.55 60.6865C47.5484 60.8894 47.5054 61.0917 47.4234 61.2774C47.3414 61.463 47.2216 61.6309 47.0728 61.7688C46.9238 61.9066 46.7477 62.013 46.5565 62.0805C46.3652 62.1479 46.1615 62.1745 45.9591 62.1606C42.5865 61.9234 38.3989 62.0372 34.3507 62.2049L34.2976 62.2071L34.2446 62.1995L34.223 62.1952C33.8859 62.1829 33.5622 62.0583 33.3063 61.837C33.0694 61.6321 32.9048 61.3581 32.8333 61.0556L32.8084 60.9246C32.6049 59.5008 32.4979 58.0958 32.4513 56.7275C32.0061 56.7307 31.5556 56.7308 31.1082 56.7308C27.0007 56.7308 22.6249 56.4628 19.0246 55.1063ZM102.754 85.4208C102.655 85.5334 102.554 85.6423 102.451 85.7487C102.554 85.6421 102.656 85.5325 102.756 85.4197L102.754 85.4208ZM104.025 83.635C103.883 83.8894 103.73 84.1378 103.566 84.3796L103.804 84.0117C103.881 83.8876 103.954 83.7621 104.025 83.635ZM104.415 82.8547C104.355 82.9873 104.294 83.1187 104.229 83.2487L104.415 82.8547C104.474 82.7221 104.531 82.5882 104.585 82.4532L104.415 82.8547ZM17.4932 78.9315C17.4722 79.8158 17.6264 80.6957 17.9467 81.5203C17.8667 81.3142 17.7969 81.1037 17.7378 80.8915C17.6786 80.6792 17.6297 80.4643 17.5917 80.2475C17.516 79.814 17.4838 79.3724 17.4943 78.9304C17.4996 78.728 17.5066 78.5252 17.5127 78.3222C17.5066 78.5256 17.4986 78.7287 17.4932 78.9315ZM105.115 54.0803C104.691 62.9448 105.274 78.8062 105.279 78.991C105.274 78.799 104.692 62.9428 105.115 54.0803ZM17.7162 73.3957C17.7481 72.7679 17.7826 72.1405 17.8168 71.5157L17.9543 69.0655C18.061 67.1838 18.167 65.2793 18.2562 63.3608C18.1666 65.2795 18.0599 67.1847 17.9532 69.0666C17.872 70.4939 17.79 71.9426 17.7162 73.3957ZM76.4293 58.1118C76.4465 58.7898 76.4586 59.4655 76.4661 60.1324C76.4493 58.6182 76.4025 57.0592 76.3525 55.5284L76.4293 58.1118ZM34.9567 58.3347C34.9927 58.8022 35.0373 59.273 35.0931 59.7471C35.9464 59.714 36.8047 59.6838 37.6592 59.6594C36.805 59.6838 35.9472 59.7129 35.0942 59.746L35.026 59.1215C34.9999 58.8582 34.9768 58.596 34.9567 58.3347ZM81.963 59.5934L81.9619 59.5945C84.0346 59.5945 86.2153 59.6589 88.3646 59.7428V59.7406L86.7499 59.6832C85.1327 59.6297 83.5175 59.5934 81.963 59.5934ZM45.1312 59.6778C43.2264 59.582 41.1316 59.5813 38.9849 59.6259C41.1316 59.5813 43.2264 59.5842 45.1312 59.68V59.6778ZM78.1924 54.6961C78.2475 56.3352 78.3002 58.0249 78.3266 59.6735L78.3276 59.6724C78.3013 58.0241 78.2475 56.3348 78.1924 54.6961ZM41.1765 54.0327C41.1555 54.4446 41.1547 54.8583 41.1722 55.2708C41.1825 55.4622 41.1548 55.6544 41.0921 55.8358C41.0282 56.0204 40.9287 56.192 40.7988 56.3379C40.6689 56.4838 40.5105 56.6026 40.3345 56.6875C40.1585 56.7723 39.9668 56.8217 39.7718 56.8325H39.7663L39.7133 56.8347L39.7003 56.8358H39.6873C39.3082 56.8353 38.9433 56.6894 38.6678 56.4288C38.3922 56.1681 38.2272 55.8118 38.2057 55.4331L38.2046 55.4277C38.1834 54.9648 38.1833 54.5006 38.2025 54.0381C37.2367 54.0387 36.3009 54.0419 35.3972 54.0478C35.3739 55.7236 35.4101 57.427 35.5888 59.1746C38.67 59.0598 41.8069 58.9901 44.5911 59.1021C44.62 57.6288 44.6657 56.135 44.7123 54.682C44.7194 54.4612 44.7257 54.2393 44.7329 54.0175C43.5736 54.0248 42.3728 54.0301 41.1765 54.0327ZM78.7476 54.6766C78.7964 56.1286 78.8403 57.6239 78.8688 59.0956C79.8616 59.0573 80.8982 59.0393 81.963 59.0393C83.8795 59.0393 85.8857 59.095 87.87 59.1692C88.0484 57.4244 88.0847 55.7243 88.0616 54.0511C87.1591 54.0464 86.2239 54.0434 85.2596 54.0413C85.283 54.5048 85.2845 54.9701 85.2617 55.4342V55.4407C85.2384 55.8179 85.0715 56.173 84.7964 56.4321C84.5554 56.6587 84.2464 56.7979 83.9197 56.8293L83.779 56.8358H83.7044L83.6881 56.8347C83.4932 56.823 83.302 56.773 83.1264 56.6875C82.951 56.6019 82.7946 56.482 82.6654 56.3358C82.5362 56.1895 82.4365 56.0193 82.3732 55.8347C82.311 55.653 82.2843 55.4602 82.2952 55.2686C82.3142 54.8573 82.3076 54.4452 82.2812 54.0348C81.0855 54.034 79.8851 54.0278 78.7259 54.0186C78.7332 54.2384 78.7402 54.4581 78.7476 54.6766ZM40.3832 55.97C40.3019 56.0612 40.2033 56.1354 40.0932 56.1886C40.0859 56.1921 40.0779 56.195 40.0705 56.1983L40.0932 56.1886C40.1206 56.1753 40.1485 56.1611 40.1744 56.1453C40.2005 56.1293 40.2257 56.1118 40.2501 56.0933C40.2985 56.0566 40.3437 56.0145 40.3843 55.9689L40.3832 55.97ZM40.5629 55.6691C40.5528 55.6968 40.5409 55.7237 40.5283 55.7503C40.53 55.7467 40.5331 55.743 40.5348 55.7394L40.5629 55.6691ZM40.617 55.2946C40.6181 55.3126 40.618 55.3308 40.6181 55.3487C40.6181 55.3305 40.6192 55.3117 40.6181 55.2935C40.6161 55.247 40.6152 55.2005 40.6138 55.1539C40.6153 55.2008 40.615 55.2477 40.617 55.2946ZM47.1669 53.8877C50.8015 53.8618 54.4277 53.8306 57.9431 53.7989C62.403 53.7577 66.9756 53.7144 71.5927 53.6885C66.976 53.7145 62.4036 53.7566 57.9442 53.7978L47.168 53.8866C47.1763 53.6408 47.1825 53.3943 47.1907 53.1474C47.1826 53.3947 47.1752 53.6415 47.1669 53.8877ZM23.9381 12.9171C23.1503 12.8316 22.4893 13.1685 21.937 13.7948C21.4452 14.3529 21.0653 15.1185 20.8147 15.9226L20.7151 16.2689C19.39 21.3086 17.9951 26.9666 17.0322 32.3634C16.0677 37.7693 15.5447 42.8724 15.938 46.8161L15.9986 47.3204C16.1594 48.4599 16.4558 49.3479 16.8958 50.0532C17.2217 50.5753 17.638 51.0116 18.1631 51.3833C18.2785 51.4392 18.3862 51.5097 18.4835 51.5932C18.564 51.6422 18.6451 51.6929 18.7302 51.7393L19.0885 51.9212L19.4911 52.1019C21.5386 52.9774 24.1015 53.4106 26.6384 53.6106C28.7234 53.7749 30.7603 53.7791 32.4329 53.7545C32.4556 52.4694 32.5102 51.2306 32.5638 50.0564C32.5808 49.6474 32.5993 49.2522 32.6136 48.8637V48.8616C32.6289 48.488 32.7851 48.1331 33.0498 47.8691C33.3146 47.6055 33.6699 47.4503 34.0433 47.4362C35.9312 47.3663 39.082 47.3551 42.1105 47.3431H42.1127C43.5476 47.3431 45.0055 47.3302 46.3401 47.3183C46.5367 47.3168 46.7328 47.3553 46.9147 47.4297C47.0966 47.5042 47.2626 47.6135 47.4018 47.7522C47.541 47.8912 47.6515 48.0575 47.7264 48.2393C47.8008 48.4199 47.8385 48.6142 47.8379 48.8096C47.8379 50.2948 47.7904 51.8245 47.7405 53.3281C51.1808 53.3029 54.6093 53.2737 57.9388 53.2437C63.7254 53.1902 69.7043 53.1345 75.7237 53.116C75.6794 51.68 75.6404 50.2188 75.6317 48.8021C75.6308 48.6067 75.6681 48.4115 75.7421 48.2306C75.8162 48.0499 75.9257 47.8844 76.0635 47.7458C76.2016 47.6071 76.3668 47.4961 76.5473 47.4211C76.7279 47.3461 76.9221 47.3074 77.1177 47.3074H77.1231C78.4561 47.3194 79.9042 47.3241 81.3526 47.3312C84.3812 47.3432 87.531 47.3555 89.4188 47.4254C89.7922 47.4397 90.1487 47.5944 90.4134 47.8583C90.6448 48.0893 90.793 48.3897 90.8365 48.7111L90.8484 48.8508V48.8529C90.8627 49.2481 90.8813 49.6452 90.8982 50.0467C90.9403 51.0319 90.9816 52.0643 91.0075 53.1311C91.3829 53.1357 91.7655 53.1411 92.1569 53.1474L93.7305 53.1658C97.3332 53.1885 100.437 53.0566 102.742 52.3811C104.048 51.9981 105.052 51.4519 105.74 50.7025C106.419 49.9632 106.833 48.981 106.89 47.6397C107.197 40.3272 106.186 33.9281 105.031 27.7594L104.529 25.1273C104.005 22.3956 103.507 19.8003 103.121 17.1769C102.992 16.2946 102.632 15.4096 102.082 14.7721C101.543 14.1465 100.832 13.766 99.946 13.8143C67.3814 15.7131 50.9855 15.8666 23.9381 12.9171ZM71.6435 53.6874C73.1791 53.6789 74.7198 53.6732 76.2627 53.669C76.2732 53.669 76.2836 53.6698 76.2941 53.6701L76.293 53.668C76.2833 53.6676 76.2735 53.668 76.2638 53.668C74.7207 53.6721 73.1794 53.6788 71.6435 53.6874ZM18.1577 52.0456C18.3748 52.1797 18.6048 52.3062 18.8504 52.4223C18.6036 52.3057 18.3735 52.1783 18.1556 52.0435L18.1577 52.0456ZM90.2943 48.8735C90.3087 49.2712 90.3273 49.6738 90.3441 50.0716C90.3731 50.7508 90.4 51.4496 90.4242 52.1647C90.4005 51.4493 90.3742 50.7498 90.3452 50.0705C90.3284 49.673 90.3087 49.271 90.2943 48.8735ZM34.9816 49.8345L34.9686 50.1625C34.9477 50.6509 34.9292 51.1419 34.9102 51.6354C36.3641 51.6268 37.9095 51.6213 39.5228 51.6192C39.5265 51.6179 39.53 51.6162 39.5337 51.6149C39.5304 51.616 39.5271 51.617 39.5239 51.6181C37.9108 51.6202 36.3651 51.6257 34.9113 51.6344L34.9697 50.1614L34.9816 49.8345ZM88.5464 51.6333L88.5454 51.6311C88.2931 51.629 88.0384 51.6294 87.7813 51.6279C88.0388 51.6293 88.2938 51.6312 88.5464 51.6333ZM78.0982 51.5986C79.94 51.6111 81.9147 51.6149 83.8299 51.6192L83.831 51.6181C81.9156 51.6138 79.9401 51.6111 78.0982 51.5986ZM45.3584 51.5976C43.6876 51.6132 41.9074 51.6169 40.1614 51.617C40.1596 51.6164 40.1577 51.6155 40.156 51.6149C40.1585 51.6158 40.161 51.6172 40.1635 51.6181C41.9088 51.618 43.6883 51.6132 45.3584 51.5976ZM42.1127 50.3075C39.7513 50.3162 37.3355 50.3262 35.5152 50.3638C35.505 50.6014 35.4969 50.8399 35.487 51.0781C36.7449 51.0717 38.0669 51.0659 39.4373 51.064C39.4708 51.0545 39.5049 51.0452 39.5391 51.038C39.7338 50.9973 39.9358 50.9953 40.1311 51.0337C40.1701 51.0414 40.2087 51.0522 40.2469 51.0629C41.7802 51.0628 43.3366 51.0589 44.8195 51.0478C44.8254 50.796 44.8299 50.5441 44.8346 50.2934L42.1127 50.3075ZM78.6393 51.0456C80.3231 51.0552 82.101 51.0601 83.8321 51.064C85.2711 51.064 86.6528 51.0665 87.9718 51.0748C87.9619 50.8355 87.9538 50.596 87.9436 50.3573C86.1234 50.3197 83.7082 50.3097 81.3472 50.301L78.6242 50.2869C78.6289 50.5389 78.6335 50.7923 78.6393 51.0456ZM47.2827 48.8107C47.2827 49.2376 47.2784 49.6681 47.2719 50.1008C47.2786 49.6679 47.2838 49.2367 47.2838 48.8096L47.2827 48.8107ZM47.2124 48.4503C47.2263 48.4841 47.2383 48.5192 47.2481 48.5542C47.2465 48.5487 47.2465 48.5424 47.2448 48.5369L47.2124 48.4503ZM90.0205 48.2512C90.1001 48.3305 90.1628 48.4235 90.2088 48.5239C90.1869 48.4758 90.163 48.4282 90.133 48.3843C90.1004 48.3366 90.063 48.2914 90.0216 48.2501L90.0205 48.2512ZM109.304 47.7425C109.298 47.8892 109.288 48.0339 109.275 48.1765C109.278 48.1435 109.283 48.1101 109.286 48.0769L109.305 47.7414C109.309 47.6584 109.31 47.5753 109.313 47.4925C109.31 47.5757 109.308 47.6591 109.304 47.7425ZM34.0639 47.9903C34.0055 47.9925 33.9469 48.0003 33.8907 48.0131C33.8378 48.0252 33.7858 48.0429 33.7359 48.0639C33.8388 48.0206 33.9493 47.9957 34.0628 47.9914L34.0639 47.9903ZM89.3982 47.9795C89.4565 47.9818 89.5141 47.9894 89.5703 48.0023L89.3982 47.9795C88.929 47.9622 88.3804 47.9484 87.7748 47.9373L89.3982 47.9795ZM44.2664 47.8897C44.9777 47.8852 45.6761 47.8795 46.3433 47.8735C46.4667 47.8725 46.5895 47.896 46.7037 47.9427C46.7324 47.9545 46.7608 47.9672 46.7881 47.9817L46.7048 47.9416C46.5907 47.895 46.4676 47.8715 46.3444 47.8724C45.677 47.8784 44.9779 47.885 44.2664 47.8897ZM76.7594 47.933L76.6772 47.972C76.674 47.9737 76.6707 47.9767 76.6674 47.9784C76.6972 47.9621 76.728 47.9461 76.7594 47.933ZM77.1177 47.8616L77.1166 47.8626C78.4512 47.8746 79.9011 47.8793 81.3483 47.8865L81.3493 47.8854C79.9023 47.8782 78.4522 47.8735 77.1177 47.8616ZM13.8773 36.8949C13.8931 36.7715 13.9085 36.6473 13.925 36.5226L13.9325 36.4663C13.9134 36.6101 13.8954 36.753 13.8773 36.8949ZM14.2204 34.4782C14.1609 34.8598 14.1046 35.2353 14.0516 35.6048L14.1923 34.6621C14.2017 34.601 14.2108 34.5396 14.2204 34.4782ZM105.357 16.034C105.425 16.296 105.48 16.5609 105.519 16.8263C105.895 19.395 106.386 21.9591 106.908 24.6717L106.909 24.6706C106.387 21.9582 105.896 19.3938 105.52 16.8252C105.481 16.56 105.425 16.2958 105.357 16.034ZM20.4067 15.3944C20.3185 15.6371 20.2427 15.8839 20.1783 16.1293C19.6013 18.3238 19.0129 20.6382 18.4499 22.9985C18.8512 21.316 19.2649 19.656 19.6794 18.0471L20.1794 16.1282C20.276 15.7605 20.3985 15.3906 20.5485 15.034L20.4067 15.3944ZM104.518 14.0448C104.799 14.5037 105.029 14.9995 105.203 15.5135L105.112 15.2581C104.919 14.7502 104.671 14.2638 104.372 13.8175L104.518 14.0448ZM68.7106 14.5903C67.1993 14.6152 65.7119 14.631 64.2419 14.6379L66.4616 14.6206C67.2059 14.6126 67.9552 14.6027 68.7106 14.5903ZM101.488 11.5956C102.525 11.9034 103.391 12.5512 104.056 13.3857L103.887 13.1812C103.828 13.1142 103.769 13.0483 103.708 12.9842C103.647 12.9202 103.584 12.8579 103.521 12.797C103.33 12.6143 103.127 12.4459 102.913 12.2937C102.769 12.192 102.621 12.0975 102.468 12.0112C102.161 11.8386 101.834 11.6983 101.488 11.5956ZM76.2605 12.5513C71.6693 12.7054 67.3847 12.7913 63.2408 12.8013C67.385 12.7916 71.6699 12.7065 76.2616 12.5524L76.2605 12.5513ZM23.2725 12.3846C23.2151 12.3941 23.1586 12.406 23.1026 12.4193L23.2725 12.3846C23.3299 12.3752 23.389 12.3675 23.4479 12.3619L23.2725 12.3846ZM24.2044 10.5209C31.9616 11.3667 38.7732 11.9574 45.3195 12.3262L45.3184 12.3251C39.4865 11.9965 33.444 11.4927 26.7098 10.7883L24.2044 10.5209ZM99.8118 11.4073L93.8258 11.7472C95.7574 11.6412 97.7501 11.5287 99.8107 11.4084C100.21 11.385 100.593 11.4077 100.957 11.4712L100.681 11.4311C100.401 11.399 100.111 11.3899 99.8118 11.4073ZM76.6729 4.27947C76.759 4.30632 76.8414 4.34602 76.9174 4.39744C76.9428 4.41457 76.9677 4.43219 76.991 4.45155L76.9185 4.39636C76.8424 4.34487 76.7592 4.30622 76.6729 4.27947ZM48.1215 3.68747C48.1245 3.72064 48.1263 3.75385 48.1258 3.78704C48.1259 3.78396 48.1269 3.78037 48.1269 3.7773L48.1226 3.68638L48.1215 3.68747ZM47.7903 3.05542C47.8137 3.0749 47.8361 3.09551 47.8574 3.11711L47.7903 3.05542ZM46.7308 2.96343C46.7404 2.9579 46.7501 2.95238 46.76 2.94719C46.7654 2.94434 46.7707 2.94128 46.7762 2.93853C46.7712 2.94107 46.7661 2.94349 46.7611 2.94611L46.7308 2.96343ZM47.0186 2.8552C47.0108 2.85671 47.0027 2.85997 46.9948 2.86169C47.0284 2.85436 47.0623 2.84796 47.0966 2.84438L47.0186 2.8552ZM46.6821 2.99265L46.6788 2.99373C46.6955 2.98268 46.7133 2.97339 46.7308 2.96343L46.6821 2.99265Z" fill="#1C1C1E"/>
</svg>
