<svg width="120" height="94" viewBox="0 0 120 94" fill="none" xmlns="http://www.w3.org/2000/svg">
<path d="M22.8428 15.5693C23.1676 15.3462 23.5686 15.2621 23.9561 15.334C24.3435 15.406 24.6871 15.6293 24.9102 15.9541C25.1051 16.2381 25.1938 16.5796 25.165 16.9199L25.1455 17.0664C24.8153 18.8475 24.4512 20.0993 24.084 21.2705C23.7171 22.4409 23.3553 23.5078 23.0137 24.959C21.422 31.7093 20.0698 37.4648 20.583 44.9092C20.6428 45.754 20.7062 46.5482 21.0127 47.1318L21.0801 47.252C21.437 47.8359 22.0538 48.219 22.7549 48.4648C23.4978 48.7252 24.265 48.8055 24.7217 48.8281C25.6847 48.8759 26.9712 48.9307 28.2148 48.9834C28.8488 49.0103 29.1333 49.0379 29.3789 49.0654C29.6082 49.0912 29.7883 49.1158 30.2393 49.1377H30.25V49.1387C30.6317 49.165 30.9894 49.3372 31.2471 49.6201C31.5046 49.903 31.6431 50.2748 31.6338 50.6572C31.6243 51.0396 31.4681 51.404 31.1973 51.6738C30.9261 51.9438 30.5603 52.0997 30.1777 52.1074H30.1084L30.0938 52.1064C29.6092 52.0828 29.3984 52.0562 29.1641 52.0303C28.945 52.006 28.6891 51.9797 28.0908 51.9551C26.8683 51.9047 25.5495 51.8473 24.5713 51.7969V51.7949C21.7426 51.6546 19.4411 50.5125 18.3838 48.5176L18.3828 48.5156C17.7644 47.3424 17.685 46.0459 17.6191 45.1143V45.1133C17.0736 37.2016 18.497 31.1723 20.1211 24.2783C20.472 22.7883 20.8469 21.6833 21.2041 20.5479C21.561 19.4135 21.9094 18.224 22.2236 16.5244L22.2568 16.3799C22.3522 16.0517 22.5587 15.7645 22.8428 15.5693ZM99.1582 15.334C99.5457 15.2621 99.9466 15.3463 100.271 15.5693C100.556 15.7645 100.762 16.0518 100.857 16.3799L100.891 16.5244C101.205 18.224 101.553 19.4135 101.91 20.5479C102.267 21.6832 102.642 22.7883 102.993 24.2783C104.617 31.1723 106.042 37.2016 105.496 45.1133V45.1143C105.434 45.9878 105.361 47.1823 104.842 48.2949L104.73 48.5176C103.673 50.5125 101.372 51.6546 98.543 51.7949V51.7969C97.5647 51.8473 96.2459 51.9047 95.0234 51.9551C94.4251 51.9797 94.1692 52.006 93.9502 52.0303C93.7159 52.0562 93.5052 52.0828 93.0205 52.1064L93.0059 52.1074H92.9375C92.5548 52.0998 92.1892 51.9438 91.918 51.6738C91.6469 51.4039 91.4899 51.0398 91.4805 50.6572C91.4712 50.2746 91.6105 49.903 91.8682 49.6201C92.1258 49.3373 92.4826 49.1651 92.8643 49.1387V49.1377H92.875C93.3259 49.1158 93.5062 49.0912 93.7354 49.0654C93.9809 49.0379 94.2655 49.0103 94.8994 48.9834C96.1431 48.9307 97.4295 48.8759 98.3926 48.8281C98.8493 48.8055 99.6165 48.7252 100.359 48.4648C101.06 48.2191 101.677 47.8359 102.034 47.252L102.102 47.1318C102.408 46.5482 102.471 45.754 102.531 44.9092C103.044 37.4648 101.692 31.7093 100.101 24.959C99.759 23.5079 99.3972 22.4408 99.0303 21.2705C98.6631 20.0993 98.2989 18.8475 97.9688 17.0664L97.9492 16.9199C97.9205 16.5796 98.0092 16.2381 98.2041 15.9541C98.4272 15.6293 98.7708 15.406 99.1582 15.334ZM72.2666 48.751L72.2656 48.752C72.6582 48.753 73.0347 48.908 73.3125 49.1855C73.591 49.4641 73.7478 49.8424 73.748 50.2363C73.748 50.6304 73.591 51.0094 73.3125 51.2881C73.0339 51.5665 72.6556 51.7236 72.2617 51.7236H72.2461L51.3965 51.5635C51.0027 51.5607 50.6263 51.4012 50.3496 51.1211C50.0728 50.8406 49.9184 50.4606 49.9209 50.0664C49.9237 49.6728 50.0822 49.2962 50.3623 49.0195C50.6427 48.7427 51.023 48.5884 51.417 48.5908L72.2666 48.751ZM29.585 51.5176L30.1211 51.5527H30.1221C29.8882 51.5413 29.7216 51.5299 29.585 51.5176ZM30.376 51.5234C30.3839 51.5214 30.3916 51.5188 30.3994 51.5166C30.3916 51.5188 30.3839 51.5214 30.376 51.5234ZM92.7129 51.5166C92.7216 51.5191 92.7304 51.5212 92.7393 51.5234C92.7304 51.5212 92.7216 51.5191 92.7129 51.5166ZM99.5 51.1484H99.501H99.5ZM30.8955 51.1748C30.9008 51.1677 30.9061 51.1606 30.9111 51.1533C30.9061 51.1606 30.9008 51.1677 30.8955 51.1748ZM92.2021 51.1533C92.2072 51.1606 92.2125 51.1677 92.2178 51.1748C92.2125 51.1677 92.2072 51.1606 92.2021 51.1533ZM51.4014 51.0098L72.25 51.1699H72.2617L72.3076 51.167C72.2923 51.1677 72.2771 51.1689 72.2617 51.1689H72.25L51.4014 51.0088V51.0098ZM72.4814 51.1416C72.4867 51.1403 72.4919 51.139 72.4971 51.1377C72.4919 51.1391 72.4867 51.1403 72.4814 51.1416ZM72.7227 51.0449C72.7338 51.0386 72.7449 51.0322 72.7559 51.0254C72.7449 51.0322 72.7338 51.0385 72.7227 51.0449ZM30.9775 51.042C30.9822 51.0329 30.9869 51.0239 30.9912 51.0146C30.9869 51.0239 30.9822 51.0329 30.9775 51.042ZM92.1221 51.0146C92.1264 51.0239 92.1311 51.0329 92.1357 51.042C92.1311 51.0329 92.1264 51.0239 92.1221 51.0146ZM72.8867 50.9268C72.8679 50.9438 72.8481 50.9593 72.8281 50.9746C72.8358 50.9688 72.8451 50.9651 72.8525 50.959L72.8867 50.9268ZM100.855 50.8467H100.856H100.855ZM50.6377 50.6016C50.6406 50.6058 50.6435 50.61 50.6465 50.6143C50.6435 50.61 50.6406 50.6058 50.6377 50.6016ZM102.044 50.3613H102.045H102.044ZM50.5576 50.458C50.561 50.4655 50.5638 50.4731 50.5674 50.4805C50.5638 50.4731 50.561 50.4655 50.5576 50.458ZM31.0381 50.3467C31.0359 50.3395 31.0336 50.3323 31.0312 50.3252C31.0336 50.3323 31.0359 50.3395 31.0381 50.3467ZM73.1797 50.085C73.1789 50.0801 73.1786 50.0752 73.1777 50.0703C73.1786 50.0752 73.1789 50.0801 73.1797 50.085ZM73.1436 49.9385C73.1401 49.9283 73.1366 49.9182 73.1328 49.9082C73.1366 49.9182 73.1401 49.9283 73.1436 49.9385ZM73.0781 49.7881C73.0728 49.7783 73.0662 49.7693 73.0605 49.7598C73.0663 49.7693 73.0728 49.7784 73.0781 49.7881ZM104.149 48.4209C103.879 48.8842 103.525 49.2966 103.101 49.6553C103.574 49.2549 103.96 48.7878 104.241 48.2578L104.149 48.4209ZM72.9824 49.6465V49.6455V49.6465ZM19.7803 49.4492C19.848 49.5139 19.9202 49.5742 19.9922 49.6357C19.8225 49.4907 19.6623 49.3392 19.5166 49.1768L19.7803 49.4492ZM72.8057 49.4814C72.7994 49.477 72.7935 49.4721 72.7871 49.4678C72.7935 49.4721 72.7994 49.477 72.8057 49.4814ZM72.6738 49.4023C72.6644 49.3977 72.6551 49.393 72.6455 49.3887C72.6551 49.393 72.6644 49.3977 72.6738 49.4023ZM72.5137 49.3398C72.5101 49.3388 72.5065 49.3379 72.5029 49.3369C72.5065 49.3379 72.5101 49.3388 72.5137 49.3398ZM18.0996 43.8086C18.1177 44.2255 18.1414 44.6476 18.1709 45.0752C18.2212 45.7869 18.278 46.6284 18.5381 47.4492C18.5597 47.5174 18.5829 47.5855 18.6074 47.6533C18.6812 47.8575 18.7688 48.06 18.873 48.2578C18.9315 48.3681 18.9952 48.4752 19.0625 48.5801C18.9953 48.4753 18.9324 48.3679 18.874 48.2578C18.3181 47.2035 18.239 46.0241 18.1719 45.0752C18.1382 44.5867 18.1117 44.1055 18.0928 43.6309L18.0996 43.8086ZM105.018 43.6943C104.999 44.1483 104.976 44.6085 104.943 45.0752C104.893 45.7869 104.836 46.6284 104.576 47.4492C104.836 46.6283 104.893 45.7869 104.943 45.0752C104.976 44.6085 104.999 44.1484 105.018 43.6943ZM102.317 47.8115C102.261 47.8826 102.201 47.9498 102.14 48.0146C102.199 47.9523 102.257 47.8884 102.312 47.8203L102.317 47.8115ZM105.021 43.6035C105.03 43.3942 105.037 43.1863 105.043 42.9795C105.037 43.1863 105.03 43.3942 105.021 43.6035ZM18.0703 42.9795C18.0757 43.1821 18.0828 43.3858 18.0908 43.5908C18.0828 43.3858 18.0757 43.1821 18.0703 42.9795ZM18.0576 42.3086C18.0598 42.4813 18.0633 42.6547 18.0674 42.8291C18.0633 42.6547 18.0598 42.4813 18.0576 42.3086ZM105.046 42.8291C105.05 42.6478 105.053 42.4675 105.056 42.2881C105.053 42.4675 105.05 42.6478 105.046 42.8291ZM18.0576 42.3086C18.0573 42.2796 18.056 42.2506 18.0557 42.2217C18.056 42.2506 18.0573 42.2796 18.0576 42.3086ZM18.0576 41.1895C18.0539 41.5304 18.0519 41.8744 18.0557 42.2217C18.0519 41.8744 18.0539 41.5304 18.0576 41.1895ZM105.056 41.1895C105.059 41.5048 105.061 41.8228 105.058 42.1436C105.061 41.8227 105.059 41.5048 105.056 41.1895ZM20.0654 38.0693C20.0095 38.7756 19.9683 39.4914 19.9443 40.2197C19.9683 39.4914 20.0096 38.7756 20.0654 38.0693ZM18.085 40.0088C18.0811 40.1179 18.0774 40.2272 18.0742 40.3369C18.0774 40.2272 18.0811 40.1179 18.085 40.0088ZM18.1377 38.8906C18.1311 39.0026 18.125 39.115 18.1191 39.2275C18.125 39.115 18.1311 39.0026 18.1377 38.8906ZM104.994 39.2275C104.988 39.1149 104.982 39.0027 104.976 38.8906C104.982 39.0026 104.988 39.1149 104.994 39.2275ZM18.2217 37.7217C18.2143 37.8101 18.2071 37.8986 18.2002 37.9873C18.2071 37.8986 18.2143 37.8101 18.2217 37.7217ZM104.914 37.9873C104.907 37.8986 104.9 37.8101 104.893 37.7217C104.9 37.8101 104.907 37.8986 104.914 37.9873ZM18.3281 36.5859C18.3189 36.6731 18.3096 36.7603 18.3008 36.8477C18.3096 36.7603 18.3189 36.6731 18.3281 36.5859ZM104.812 36.8477C104.803 36.7531 104.792 36.6587 104.782 36.5645C104.792 36.6587 104.803 36.7531 104.812 36.8477ZM104.52 34.4707C104.576 34.8615 104.631 35.2538 104.68 35.6484C104.631 35.2538 104.576 34.8615 104.52 34.4707ZM18.5938 34.4707C18.5404 34.8389 18.4908 35.2085 18.4443 35.5801C18.4908 35.2085 18.5404 34.8389 18.5938 34.4707ZM18.7871 33.2256C18.7382 33.5207 18.6933 33.8167 18.6484 34.1133C18.6932 33.8167 18.7382 33.5207 18.7871 33.2256ZM104.465 34.1133C104.42 33.8167 104.375 33.5207 104.326 33.2256C104.375 33.5207 104.42 33.8167 104.465 34.1133ZM18.9922 32.0537C18.9363 32.3593 18.883 32.6653 18.8311 32.9717C18.883 32.6653 18.9363 32.3593 18.9922 32.0537ZM104.282 32.9717C104.23 32.6653 104.177 32.3593 104.121 32.0537C104.177 32.3593 104.23 32.6653 104.282 32.9717ZM19.1992 30.9688C19.1525 31.2057 19.1071 31.4427 19.0625 31.6797C19.1071 31.4427 19.1525 31.2057 19.1992 30.9688ZM104.051 31.6797C104.004 31.4323 103.957 31.1849 103.908 30.9375C103.957 31.1849 104.004 31.4323 104.051 31.6797ZM103.816 30.4756C103.764 30.2163 103.71 29.957 103.655 29.6973C103.71 29.957 103.764 30.2163 103.816 30.4756ZM20.0654 26.9531C19.8847 27.7387 19.71 28.5162 19.5439 29.29C19.71 28.5162 19.8847 27.7387 20.0654 26.9531ZM103.049 26.9531C103.23 27.7386 103.403 28.5162 103.569 29.29C103.403 28.5162 103.23 27.7386 103.049 26.9531ZM21.6143 28.5479C21.5715 28.7395 21.5301 28.9311 21.4883 29.1221C21.6187 28.5265 21.7526 27.9277 21.8916 27.3242L21.6143 28.5479ZM20.791 23.873H20.792H20.791ZM102.19 23.3711H102.191H102.19ZM23.6338 20.8467C23.6792 20.6998 23.7244 20.5513 23.7695 20.4004C23.7244 20.5514 23.6792 20.6998 23.6338 20.8467ZM99.3291 20.3525C99.3771 20.5137 99.4253 20.6718 99.4736 20.8281C99.4253 20.6718 99.3771 20.5137 99.3291 20.3525ZM22.2656 18.8877C22.309 18.7222 22.3528 18.5524 22.3955 18.377V18.376C22.3528 18.5518 22.3091 18.7219 22.2656 18.8877ZM100.719 18.377C100.761 18.5524 100.805 18.7222 100.849 18.8877C100.805 18.7219 100.761 18.5518 100.719 18.376V18.377ZM99.042 19.3311C99.1015 19.5562 99.1632 19.7725 99.2236 19.9834C99.1632 19.7725 99.1015 19.5562 99.042 19.3311ZM23.9336 19.834C23.9737 19.6915 24.015 19.5464 24.0547 19.3975C24.015 19.5464 23.9737 19.6915 23.9336 19.834ZM22.7891 16.5352C22.7806 16.5645 22.7742 16.5947 22.7686 16.625C22.7286 16.8411 22.6884 17.0492 22.6475 17.25C22.6884 17.0492 22.7286 16.8411 22.7686 16.625C22.7742 16.5947 22.7806 16.5645 22.7891 16.5352ZM100.324 16.5352C100.333 16.5646 100.34 16.5946 100.346 16.625H100.347C100.341 16.5947 100.334 16.5645 100.325 16.5352H100.324ZM24.6152 16.8164C24.6154 16.8102 24.6162 16.804 24.6162 16.7979C24.6162 16.804 24.6154 16.8102 24.6152 16.8164ZM24.6064 16.6621C24.6049 16.6513 24.6025 16.6406 24.6006 16.6299C24.6025 16.6406 24.6049 16.6513 24.6064 16.6621ZM98.5127 16.6299C98.5108 16.6406 98.5084 16.6513 98.5068 16.6621C98.5084 16.6513 98.5108 16.6406 98.5127 16.6299ZM99.7959 15.9375C99.852 15.9615 99.906 15.9913 99.957 16.0264C100.084 16.1138 100.187 16.2306 100.257 16.3652L100.212 16.2871C100.146 16.1853 100.06 16.0964 99.958 16.0264C99.8815 15.9738 99.7979 15.9338 99.7109 15.9062L99.7959 15.9375ZM23.3174 15.9375C23.2614 15.9615 23.2072 15.9914 23.1562 16.0264C23.0802 16.0787 23.0136 16.142 22.957 16.2129C23.0138 16.1419 23.081 16.0788 23.1572 16.0264C23.208 15.9915 23.2616 15.9614 23.3174 15.9375ZM23.9668 15.9062C24.0179 15.9224 24.0671 15.9433 24.1143 15.9678C24.0671 15.9432 24.0178 15.9225 23.9668 15.9062ZM99.1465 15.9062C99.0958 15.9225 99.0469 15.9433 99 15.9678C99.0469 15.9434 99.0957 15.9224 99.1465 15.9062ZM23.6748 15.8623C23.731 15.8617 23.7876 15.8663 23.8438 15.876C23.7876 15.8663 23.7311 15.8617 23.6748 15.8623ZM99.4424 15.8623C99.3855 15.8615 99.3283 15.8662 99.2715 15.876C99.3283 15.8662 99.3855 15.8615 99.4424 15.8623Z" fill="#0FDAC2"/>
<path d="M113.41 18.3794H113.341C113.094 18.3604 112.865 18.2446 112.703 18.0575C112.542 17.8703 112.461 17.6268 112.478 17.3801C112.629 15.0281 112.174 12.6766 111.158 10.5501C110.141 8.4237 108.597 6.59325 106.672 5.2335C106.468 5.09241 106.329 4.87619 106.285 4.6324C106.24 4.38861 106.295 4.13722 106.436 3.93353C106.577 3.72985 106.793 3.59055 107.037 3.54628C107.281 3.50202 107.532 3.55641 107.736 3.6975C109.925 5.24502 111.681 7.32732 112.837 9.74596C113.993 12.1646 114.51 14.839 114.34 17.5143C114.323 17.7493 114.218 17.9692 114.045 18.1297C113.873 18.2901 113.646 18.3794 113.41 18.3794Z" fill="#0FDAC2"/>
<path d="M118.499 16.2729C118.351 16.2729 118.205 16.2375 118.073 16.1696C117.941 16.1018 117.827 16.0034 117.741 15.8827C117.655 15.762 117.598 15.6225 117.577 15.4757C117.555 15.329 117.569 15.1792 117.617 15.0388C118.106 13.5759 118.24 12.0176 118.008 10.4926C117.776 8.96765 117.185 7.51977 116.283 6.26855C116.142 6.06874 116.086 5.82185 116.126 5.58097C116.166 5.34009 116.298 5.12443 116.495 4.98037C116.693 4.8363 116.938 4.77532 117.18 4.81053C117.422 4.84574 117.64 4.97433 117.787 5.16867C118.864 6.66313 119.571 8.3923 119.848 10.2135C120.125 12.0346 119.965 13.8956 119.381 15.6427C119.318 15.8264 119.199 15.9858 119.041 16.0987C118.883 16.2117 118.693 16.2725 118.499 16.2729Z" fill="#0FDAC2"/>
<path d="M12.1273 91.4029C11.9429 91.4022 11.7629 91.3472 11.6097 91.2447C6.32593 87.6935 3.87455 80.4616 5.90658 74.4326C5.94263 74.313 6.00236 74.2019 6.0822 74.1058C6.16204 74.0098 6.26034 73.9307 6.37132 73.8734C6.4823 73.8161 6.6037 73.7817 6.72824 73.7722C6.85279 73.7627 6.97796 73.7784 7.09634 73.8182C7.21472 73.858 7.32387 73.9213 7.41734 74.0041C7.51081 74.087 7.58666 74.1877 7.64041 74.3005C7.69417 74.4132 7.72475 74.5356 7.73027 74.6604C7.7358 74.7852 7.71617 74.9098 7.67259 75.0269C5.89936 80.2986 8.03922 86.5984 12.6496 89.6968C12.8157 89.8082 12.9416 89.9702 13.0086 90.1587C13.0756 90.3473 13.0801 90.5524 13.0215 90.7437C12.963 90.935 12.8444 91.1023 12.6833 91.2211C12.5223 91.3398 12.3273 91.4035 12.1273 91.4029Z" fill="#0FDAC2"/>
<path d="M6.13514 93.0908C5.93599 93.0903 5.74213 93.0265 5.58159 92.9087C2.80954 90.8422 0.857376 87.8622 0.0701961 84.4954C0.015223 84.2543 0.058339 84.0011 0.190009 83.7917C0.321679 83.5823 0.531159 83.4338 0.772342 83.3788C1.01352 83.3238 1.26665 83.3669 1.47607 83.4986C1.68548 83.6302 1.834 83.8397 1.88898 84.0809C2.57086 87.0129 4.26865 89.6088 6.68149 91.4087C6.83743 91.5258 6.95268 91.6889 7.01104 91.875C7.06939 92.0611 7.06789 92.2608 7.00677 92.446C6.94565 92.6312 6.82798 92.7926 6.67032 92.9074C6.51266 93.0222 6.32297 93.0847 6.12794 93.086L6.13514 93.0908Z" fill="#0FDAC2"/>
<path d="M76.0295 2.12959C71.0237 1.26933 65.9388 1.19265 60.8755 1.11597L47.8615 0.921875C47.2001 0.921875 46.395 0.996158 46.1122 1.66232C46.0366 1.89717 46.0163 2.14633 46.0528 2.39033C46.0894 2.63433 46.1819 2.86657 46.3231 3.06892C47.1857 4.46115 48.9302 4.65045 50.447 4.71036L66.8734 5.34297L73.8776 5.61374C74.6301 5.6425 75.4041 5.66886 76.111 5.3861C76.487 5.24498 76.8174 5.00392 77.0665 4.68892C77.3156 4.37391 77.474 3.9969 77.5247 3.59849C77.5942 2.7622 76.8849 1.88757 76.0295 2.12959Z" fill="white"/>
<path d="M74.5435 6.57368C74.3039 6.57368 74.0643 6.57368 73.8415 6.55691L50.4108 5.65112C49.2127 5.60559 46.7325 5.50975 45.532 3.57117C45.3097 3.24316 45.1686 2.86698 45.1202 2.47367C45.0719 2.08036 45.1178 1.68119 45.2541 1.30911C45.6327 0.420097 46.5169 -0.0208119 47.8756 0.000754448L60.8897 0.194851C65.8499 0.269135 70.9803 0.345812 76.0101 1.19169C76.2901 1.14807 76.5762 1.16507 76.849 1.24155C77.1219 1.31803 77.3751 1.45221 77.5916 1.635C77.8877 1.88349 78.1204 2.19892 78.2704 2.55519C78.4204 2.91147 78.4834 3.29834 78.4543 3.6838C78.3922 4.25603 78.1728 4.79988 77.8205 5.25501C77.4682 5.71014 76.9966 6.05876 76.4582 6.26217C75.8457 6.48721 75.1958 6.59295 74.5435 6.57368ZM47.7749 1.86504C47.1998 1.86504 46.9985 1.97048 46.9698 2.03757C46.9463 2.23321 46.9987 2.4304 47.116 2.58871C47.6791 3.49929 48.87 3.72693 50.4707 3.78684L73.9014 4.69023C74.5507 4.71658 75.2193 4.74295 75.7537 4.52728C75.9673 4.44908 76.1567 4.31601 76.3027 4.14145C76.4486 3.96689 76.546 3.75698 76.5852 3.53283C76.5891 3.44698 76.5741 3.36132 76.5414 3.28184C76.5087 3.20237 76.459 3.13101 76.3958 3.07275C76.3288 3.01764 76.2976 3.02722 76.2712 3.03441C76.1372 3.07263 75.9963 3.08001 75.8591 3.05598C70.9156 2.20771 65.7948 2.13102 60.8489 2.05674L47.8349 1.86264L47.7749 1.86504Z" fill="white"/>
<path d="M38.6366 12.2383C37.5655 23.8194 37.012 37.0803 37.3786 48.7045C39.3297 48.9322 41.3043 48.8578 43.2327 48.4841C42.7966 36.9101 43.4292 24.0926 44.7256 12.5833C42.7415 12.8661 40.7022 12.3509 38.6366 12.2383Z" fill="#0FDAC2"/>
<path d="M39.6003 49.7677C38.8211 49.7677 38.0426 49.722 37.2687 49.6311C37.047 49.6053 36.8419 49.5006 36.691 49.336C36.5401 49.1715 36.4534 48.9581 36.4468 48.7349C36.1042 37.8727 36.5643 24.5327 37.7073 12.1537C37.7292 11.9134 37.8437 11.691 38.0266 11.5336C38.2095 11.3763 38.4465 11.2961 38.6874 11.3102C39.4062 11.3485 40.1395 11.4372 40.844 11.521C42.1643 11.6816 43.4104 11.8326 44.6037 11.6624C44.7444 11.6426 44.8878 11.6551 45.0229 11.6992C45.158 11.7432 45.2812 11.8176 45.3831 11.9165C45.4851 12.0155 45.5631 12.1364 45.6112 12.2701C45.6592 12.4039 45.6761 12.5468 45.6604 12.688C44.2898 24.861 43.7602 37.5612 44.17 48.4498C44.1804 48.6732 44.1102 48.893 43.9721 49.069C43.8339 49.2449 43.6371 49.3654 43.4176 49.4083C42.1596 49.65 40.8813 49.7704 39.6003 49.7677ZM38.2847 47.8507C39.6154 47.9467 40.9526 47.8961 42.2722 47.6997C41.9247 37.2401 42.4207 25.2085 43.6763 13.5938C42.6515 13.5896 41.6281 13.5135 40.6139 13.3662C40.2401 13.3206 39.8591 13.2751 39.4805 13.2368C38.4309 24.9832 38.0068 37.4845 38.2847 47.8555V47.8507Z" fill="#0FDAC2"/>
<path d="M37.4805 61.1297C37.4779 63.9427 37.6483 66.7533 37.9909 69.5453C37.9909 69.5453 43.9624 69.7299 44.0822 69.368C43.603 66.5356 43.67 63.6769 43.4855 60.8086L37.4805 61.1297Z" fill="#0FDAC2"/>
<path d="M41.0399 70.5252H40.9896C39.4847 70.5252 37.9775 70.4772 37.9607 70.4772C37.7386 70.4699 37.5263 70.3836 37.3621 70.2338C37.1978 70.084 37.0923 69.8807 37.0645 69.6601C36.7184 66.8298 36.5455 63.9809 36.5469 61.1295C36.5472 60.8907 36.6391 60.6612 36.8036 60.4882C36.9681 60.3152 37.1927 60.212 37.4311 60.1997L43.4218 59.8762C43.667 59.8637 43.9072 59.9482 44.0906 60.1114C44.274 60.2746 44.3858 60.5035 44.4018 60.7484C44.4617 61.6662 44.4953 62.5936 44.5288 63.4874C44.6007 65.4667 44.6702 67.3334 44.9889 69.212C45.0138 69.3627 45.0023 69.5172 44.9554 69.6625C44.7158 70.3814 43.9034 70.4341 43.1223 70.4796C42.6143 70.5084 41.9121 70.5252 41.0399 70.5252ZM38.8233 68.6345C40.4216 68.6705 42.0942 68.6705 43.0264 68.6201C42.8011 66.9188 42.7388 65.2127 42.6765 63.5569C42.6574 62.9746 42.6334 62.3803 42.6046 61.7884L38.416 62.0137C38.4423 64.2206 38.5789 66.442 38.8233 68.6369V68.6345Z" fill="#0FDAC2"/>
<path d="M84.8179 12.2383C85.889 23.8194 86.4426 37.0803 86.0759 48.7045C84.1248 48.9322 82.1503 48.8578 80.2218 48.4841C80.6579 36.9101 80.0253 24.0926 78.7266 12.5833C80.7131 12.8661 82.7523 12.3509 84.8179 12.2383Z" fill="#0FDAC2"/>
<path d="M83.8555 49.7669C82.5767 49.7669 81.3008 49.6441 80.0454 49.4003C79.8258 49.3574 79.6291 49.237 79.4909 49.061C79.3528 48.8851 79.2825 48.6653 79.293 48.4418C79.7028 37.5532 79.1732 24.8531 77.8025 12.6801C77.7869 12.5389 77.8037 12.3959 77.8518 12.2622C77.8999 12.1285 77.9778 12.0075 78.0798 11.9086C78.1817 11.8096 78.305 11.7353 78.4401 11.6912C78.5752 11.6472 78.7186 11.6346 78.8593 11.6545C80.0574 11.8246 81.2986 11.6737 82.619 11.5131C83.3163 11.4292 84.0376 11.3406 84.7756 11.3022C85.0164 11.2888 85.253 11.3691 85.4357 11.5264C85.6185 11.6837 85.7332 11.9057 85.7557 12.1457C86.8891 24.544 87.3516 37.8743 87.0089 48.7461C87.0024 48.9693 86.9157 49.1827 86.7648 49.3472C86.6139 49.5118 86.4088 49.6165 86.187 49.6423C85.413 49.7293 84.6344 49.7709 83.8555 49.7669ZM81.1836 47.7038C82.5032 47.9001 83.8404 47.9507 85.171 47.8547C85.4562 37.4909 85.0249 24.9825 83.9729 13.2408C83.5943 13.2791 83.2133 13.3247 82.8395 13.3702C81.8252 13.5174 80.8019 13.5935 79.7771 13.5979C81.0351 25.2125 81.5311 37.2441 81.1836 47.7038Z" fill="#0FDAC2"/>
<path d="M85.9665 61.1297C85.9711 63.9427 85.8015 66.7533 85.4585 69.5453C85.4585 69.5453 79.487 69.7299 79.3672 69.368C79.8464 66.5356 79.7794 63.6769 79.9639 60.8086L85.9665 61.1297Z" fill="#0FDAC2"/>
<path d="M82.4111 70.5252C81.5388 70.5252 80.8367 70.5084 80.3167 70.4796C79.5332 70.4341 78.7232 70.3862 78.4836 69.6601C78.437 69.5155 78.4256 69.3619 78.45 69.212C78.7687 67.3358 78.8382 65.4667 78.9101 63.4898C78.9436 62.5936 78.9772 61.6662 79.0371 60.7484C79.0532 60.5035 79.165 60.2746 79.3483 60.1114C79.5317 59.9482 79.772 59.8637 80.0172 59.8762L86.0198 60.1997C86.258 60.212 86.4823 60.3154 86.6465 60.4884C86.8106 60.6614 86.902 60.891 86.9016 61.1295C86.9049 63.9809 86.7329 66.8298 86.3864 69.6601C86.3586 69.8807 86.2531 70.084 86.0889 70.2338C85.9246 70.3836 85.7124 70.4699 85.4902 70.4772C85.4734 70.4772 83.9662 70.5228 82.4614 70.5252H82.4111ZM80.4246 68.6201C81.3567 68.6729 83.0293 68.6705 84.6276 68.6345C84.8672 66.4419 85.0086 64.2206 85.035 62.0137L80.8463 61.7884C80.8151 62.3827 80.7936 62.9865 80.772 63.5569C80.7121 65.2151 80.657 66.9188 80.4174 68.6201H80.4246Z" fill="#0FDAC2"/>
<path fill-rule="evenodd" clip-rule="evenodd" d="M47.0587 2.29133C47.2529 2.27362 47.4493 2.29404 47.6355 2.35194C47.8218 2.4099 47.9953 2.5042 48.1453 2.629C48.2951 2.75373 48.4193 2.90675 48.51 3.07923C48.6007 3.25176 48.6567 3.44133 48.6745 3.63552C48.6923 3.82959 48.6717 4.02618 48.6139 4.21237C47.8456 6.69905 47.5422 9.30345 47.7135 11.8954C56.7736 12.3353 65.479 12.3488 75.688 12.0166C75.5828 9.80447 75.3302 7.60042 74.9315 5.42127L74.9304 5.41261C74.8666 5.02847 74.9556 4.63408 75.1793 4.31519C75.4031 3.99654 75.7434 3.7776 76.1263 3.70695C76.5093 3.63651 76.9054 3.71946 77.2281 3.93747C77.5103 4.12832 77.7177 4.41 77.8168 4.73294L77.8525 4.87472L77.8547 4.88446C78.2792 7.20641 78.5465 9.55449 78.6567 11.9117C84.9594 11.6735 91.8673 11.316 99.7793 10.8543C103.267 10.6508 105.486 13.5707 106.021 16.4648L106.067 16.7451C106.348 18.6608 106.693 20.5756 107.068 22.558L107.454 24.5656C108.769 31.4335 110.143 38.5862 109.889 46.9524L109.859 47.7652C109.779 49.675 109.182 51.2996 108.051 52.5889C107.41 53.32 106.607 53.929 105.656 54.4212C105.262 63.3109 105.829 78.7724 105.835 78.9748C105.836 78.9992 105.835 79.024 105.834 79.0484L105.835 79.0494C105.772 81.5403 104.828 83.9294 103.169 85.7888L103.168 85.7877C101.425 87.7668 99.1362 88.8807 96.7165 88.8808H96.6018C96.5593 88.8808 95.8644 88.8402 94.5173 88.7758C93.1471 88.7103 91.0647 88.6181 88.1969 88.5085C82.4607 88.2894 73.5776 88.0028 60.9453 87.7369C36.3982 87.2191 25.0343 88.1606 24.2423 88.2131L24.2433 88.2152C24.2345 88.2159 24.2251 88.2148 24.2163 88.2152C24.2094 88.2156 24.2041 88.2162 24.2011 88.2163C24.1684 88.2176 24.1354 88.2167 24.1026 88.2152C24.0902 88.2151 24.0772 88.2154 24.0648 88.2152C22.8681 88.1993 21.686 87.9489 20.5863 87.476C19.4751 86.9981 18.4696 86.3031 17.6296 85.4327C16.7897 84.5623 16.1315 83.533 15.6934 82.4056C15.2554 81.2782 15.0457 80.0745 15.0776 78.8655C15.1641 75.5635 15.3542 72.1854 15.5386 68.928C15.8255 63.8632 16.1205 58.6544 16.043 53.4894C15.4185 52.9826 14.887 52.3934 14.4499 51.7123C13.6458 50.4594 13.1777 48.9295 12.9942 47.1094C12.3172 40.4024 13.7896 30.9236 17.846 15.5221L17.9391 15.1877C18.9456 11.7741 21.2982 9.64661 24.265 9.97007C31.7655 10.7878 38.3802 11.3671 44.7264 11.7374C44.5804 8.89927 44.9343 6.05351 45.7751 3.3314C45.833 3.14535 45.9274 2.97052 46.0522 2.82057C46.1769 2.67084 46.3301 2.54649 46.5024 2.45584C46.675 2.36522 46.8646 2.30912 47.0587 2.29133ZM96.7089 86.4652L96.6786 86.4641L94.3312 86.3451C95.7737 86.4132 96.5326 86.4568 96.6775 86.4652H96.7089ZM19.0246 55.1063C19.029 59.8303 18.7657 64.5399 18.5073 69.0969C18.3227 72.3424 18.1333 75.6894 18.0473 78.9455C18.0283 79.7561 18.1704 80.5631 18.464 81.319C18.7578 82.0752 19.1979 82.7661 19.7595 83.3515C20.3213 83.937 20.9942 84.4055 21.7379 84.7303C22.4757 85.0526 23.2696 85.2267 24.0745 85.2433C25.2022 85.1496 36.8084 84.2536 60.9972 84.7649C85.6917 85.287 96.1068 85.8752 96.7089 85.91C98.4012 85.9098 99.9214 85.0385 101.04 83.7151C102.158 82.3923 102.835 80.6616 102.864 79.0397C102.833 78.187 102.342 64.403 102.64 55.4905C99.4099 56.238 95.4968 56.173 92.1104 56.1193C91.7381 56.1133 91.3752 56.1075 91.0205 56.1031C90.9875 57.6624 90.883 59.2724 90.6536 60.904L90.6547 60.9051C90.6073 61.2623 90.4315 61.5911 90.1601 61.8283C89.8891 62.0649 89.5404 62.1937 89.1807 62.193L89.119 62.1941C85.0696 62.0263 80.8843 61.9056 77.5127 62.1497H77.5105C77.308 62.1638 77.1046 62.136 76.9131 62.0686C76.7215 62.001 76.5449 61.8949 76.3958 61.7569C76.2468 61.6189 76.1283 61.4512 76.0462 61.2655C75.9848 61.1263 75.9449 60.9788 75.9283 60.8283L75.9185 60.6757C75.9092 59.1779 75.8646 57.6248 75.8157 56.0879C69.7776 56.1062 63.7745 56.1618 57.9615 56.2156C54.5973 56.2459 51.127 56.2764 47.6464 56.3C47.6001 57.7745 47.5589 59.2529 47.55 60.6865C47.5484 60.8894 47.5054 61.0917 47.4234 61.2774C47.3414 61.463 47.2216 61.6309 47.0728 61.7688C46.9238 61.9066 46.7477 62.013 46.5565 62.0805C46.3652 62.1479 46.1615 62.1745 45.9591 62.1606C42.5865 61.9234 38.3989 62.0372 34.3507 62.2049L34.2976 62.2071L34.2446 62.1995L34.223 62.1952C33.8859 62.1829 33.5622 62.0583 33.3063 61.837C33.0694 61.6321 32.9048 61.3581 32.8333 61.0556L32.8084 60.9246C32.6049 59.5008 32.4979 58.0958 32.4513 56.7275C32.0061 56.7307 31.5556 56.7308 31.1082 56.7308C27.0007 56.7308 22.6249 56.4628 19.0246 55.1063ZM102.754 85.4208C102.655 85.5334 102.554 85.6423 102.451 85.7487C102.554 85.6421 102.656 85.5325 102.756 85.4197L102.754 85.4208ZM104.025 83.635C103.883 83.8894 103.73 84.1378 103.566 84.3796L103.804 84.0117C103.881 83.8876 103.954 83.7621 104.025 83.635ZM104.415 82.8547C104.355 82.9873 104.294 83.1187 104.229 83.2487L104.415 82.8547C104.474 82.7221 104.531 82.5882 104.585 82.4532L104.415 82.8547ZM17.4932 78.9315C17.4722 79.8158 17.6264 80.6957 17.9467 81.5203C17.8667 81.3142 17.7969 81.1037 17.7378 80.8915C17.6786 80.6792 17.6297 80.4643 17.5917 80.2475C17.516 79.814 17.4838 79.3724 17.4943 78.9304C17.4996 78.728 17.5066 78.5252 17.5127 78.3222C17.5066 78.5256 17.4986 78.7287 17.4932 78.9315ZM105.115 54.0803C104.691 62.9448 105.274 78.8062 105.279 78.991C105.274 78.799 104.692 62.9428 105.115 54.0803ZM17.7162 73.3957C17.7481 72.7679 17.7826 72.1405 17.8168 71.5157L17.9543 69.0655C18.061 67.1838 18.167 65.2793 18.2562 63.3608C18.1666 65.2795 18.0599 67.1847 17.9532 69.0666C17.872 70.4939 17.79 71.9426 17.7162 73.3957ZM76.4293 58.1118C76.4465 58.7898 76.4586 59.4655 76.4661 60.1324C76.4493 58.6182 76.4025 57.0592 76.3525 55.5284L76.4293 58.1118ZM34.9567 58.3347C34.9927 58.8022 35.0373 59.273 35.0931 59.7471C35.9464 59.714 36.8047 59.6838 37.6592 59.6594C36.805 59.6838 35.9472 59.7129 35.0942 59.746L35.026 59.1215C34.9999 58.8582 34.9768 58.596 34.9567 58.3347ZM81.963 59.5934L81.9619 59.5945C84.0346 59.5945 86.2153 59.6589 88.3646 59.7428V59.7406L86.7499 59.6832C85.1327 59.6297 83.5175 59.5934 81.963 59.5934ZM45.1312 59.6778C43.2264 59.582 41.1316 59.5813 38.9849 59.6259C41.1316 59.5813 43.2264 59.5842 45.1312 59.68V59.6778ZM78.1924 54.6961C78.2475 56.3352 78.3002 58.0249 78.3266 59.6735L78.3276 59.6724C78.3013 58.0241 78.2475 56.3348 78.1924 54.6961ZM41.1765 54.0327C41.1555 54.4446 41.1547 54.8583 41.1722 55.2708C41.1825 55.4622 41.1548 55.6544 41.0921 55.8358C41.0282 56.0204 40.9287 56.192 40.7988 56.3379C40.6689 56.4838 40.5105 56.6026 40.3345 56.6875C40.1585 56.7723 39.9668 56.8217 39.7718 56.8325H39.7663L39.7133 56.8347L39.7003 56.8358H39.6873C39.3082 56.8353 38.9433 56.6894 38.6678 56.4288C38.3922 56.1681 38.2272 55.8118 38.2057 55.4331L38.2046 55.4277C38.1834 54.9648 38.1833 54.5006 38.2025 54.0381C37.2367 54.0387 36.3009 54.0419 35.3972 54.0478C35.3739 55.7236 35.4101 57.427 35.5888 59.1746C38.67 59.0598 41.8069 58.9901 44.5911 59.1021C44.62 57.6288 44.6657 56.135 44.7123 54.682C44.7194 54.4612 44.7257 54.2393 44.7329 54.0175C43.5736 54.0248 42.3728 54.0301 41.1765 54.0327ZM78.7476 54.6766C78.7964 56.1286 78.8403 57.6239 78.8688 59.0956C79.8616 59.0573 80.8982 59.0393 81.963 59.0393C83.8795 59.0393 85.8857 59.095 87.87 59.1692C88.0484 57.4244 88.0847 55.7243 88.0616 54.0511C87.1591 54.0464 86.2239 54.0434 85.2596 54.0413C85.283 54.5048 85.2845 54.9701 85.2617 55.4342V55.4407C85.2384 55.8179 85.0715 56.173 84.7964 56.4321C84.5554 56.6587 84.2464 56.7979 83.9197 56.8293L83.779 56.8358H83.7044L83.6881 56.8347C83.4932 56.823 83.302 56.773 83.1264 56.6875C82.951 56.6019 82.7946 56.482 82.6654 56.3358C82.5362 56.1895 82.4365 56.0193 82.3732 55.8347C82.311 55.653 82.2843 55.4602 82.2952 55.2686C82.3142 54.8573 82.3076 54.4452 82.2812 54.0348C81.0855 54.034 79.8851 54.0278 78.7259 54.0186C78.7332 54.2384 78.7402 54.4581 78.7476 54.6766ZM40.3832 55.97C40.3019 56.0612 40.2033 56.1354 40.0932 56.1886C40.0859 56.1921 40.0779 56.195 40.0705 56.1983L40.0932 56.1886C40.1206 56.1753 40.1485 56.1611 40.1744 56.1453C40.2005 56.1293 40.2257 56.1118 40.2501 56.0933C40.2985 56.0566 40.3437 56.0145 40.3843 55.9689L40.3832 55.97ZM40.5629 55.6691C40.5528 55.6968 40.5409 55.7237 40.5283 55.7503C40.53 55.7467 40.5331 55.743 40.5348 55.7394L40.5629 55.6691ZM40.617 55.2946C40.6181 55.3126 40.618 55.3308 40.6181 55.3487C40.6181 55.3305 40.6192 55.3117 40.6181 55.2935C40.6161 55.247 40.6152 55.2005 40.6138 55.1539C40.6153 55.2008 40.615 55.2477 40.617 55.2946ZM47.1669 53.8877C50.8015 53.8618 54.4277 53.8306 57.9431 53.7989C62.403 53.7577 66.9756 53.7144 71.5927 53.6885C66.976 53.7145 62.4036 53.7566 57.9442 53.7978L47.168 53.8866C47.1763 53.6408 47.1825 53.3943 47.1907 53.1474C47.1826 53.3947 47.1752 53.6415 47.1669 53.8877ZM23.9381 12.9171C23.1503 12.8316 22.4893 13.1685 21.937 13.7948C21.4452 14.3529 21.0653 15.1185 20.8147 15.9226L20.7151 16.2689C19.39 21.3086 17.9951 26.9666 17.0322 32.3634C16.0677 37.7693 15.5447 42.8724 15.938 46.8161L15.9986 47.3204C16.1594 48.4599 16.4558 49.3479 16.8958 50.0532C17.2217 50.5753 17.638 51.0116 18.1631 51.3833C18.2785 51.4392 18.3862 51.5097 18.4835 51.5932C18.564 51.6422 18.6451 51.6929 18.7302 51.7393L19.0885 51.9212L19.4911 52.1019C21.5386 52.9774 24.1015 53.4106 26.6384 53.6106C28.7234 53.7749 30.7603 53.7791 32.4329 53.7545C32.4556 52.4694 32.5102 51.2306 32.5638 50.0564C32.5808 49.6474 32.5993 49.2522 32.6136 48.8637V48.8616C32.6289 48.488 32.7851 48.1331 33.0498 47.8691C33.3146 47.6055 33.6699 47.4503 34.0433 47.4362C35.9312 47.3663 39.082 47.3551 42.1105 47.3431H42.1127C43.5476 47.3431 45.0055 47.3302 46.3401 47.3183C46.5367 47.3168 46.7328 47.3553 46.9147 47.4297C47.0966 47.5042 47.2626 47.6135 47.4018 47.7522C47.541 47.8912 47.6515 48.0575 47.7264 48.2393C47.8008 48.4199 47.8385 48.6142 47.8379 48.8096C47.8379 50.2948 47.7904 51.8245 47.7405 53.3281C51.1808 53.3029 54.6093 53.2737 57.9388 53.2437C63.7254 53.1902 69.7043 53.1345 75.7237 53.116C75.6794 51.68 75.6404 50.2188 75.6317 48.8021C75.6308 48.6067 75.6681 48.4115 75.7421 48.2306C75.8162 48.0499 75.9257 47.8844 76.0635 47.7458C76.2016 47.6071 76.3668 47.4961 76.5473 47.4211C76.7279 47.3461 76.9221 47.3074 77.1177 47.3074H77.1231C78.4561 47.3194 79.9042 47.3241 81.3526 47.3312C84.3812 47.3432 87.531 47.3555 89.4188 47.4254C89.7922 47.4397 90.1487 47.5944 90.4134 47.8583C90.6448 48.0893 90.793 48.3897 90.8365 48.7111L90.8484 48.8508V48.8529C90.8627 49.2481 90.8813 49.6452 90.8982 50.0467C90.9403 51.0319 90.9816 52.0643 91.0075 53.1311C91.3829 53.1357 91.7655 53.1411 92.1569 53.1474L93.7305 53.1658C97.3332 53.1885 100.437 53.0566 102.742 52.3811C104.048 51.9981 105.052 51.4519 105.74 50.7025C106.419 49.9632 106.833 48.981 106.89 47.6397C107.197 40.3272 106.186 33.9281 105.031 27.7594L104.529 25.1273C104.005 22.3956 103.507 19.8003 103.121 17.1769C102.992 16.2946 102.632 15.4096 102.082 14.7721C101.543 14.1465 100.832 13.766 99.946 13.8143C67.3814 15.7131 50.9855 15.8666 23.9381 12.9171ZM71.6435 53.6874C73.1791 53.6789 74.7198 53.6732 76.2627 53.669C76.2732 53.669 76.2836 53.6698 76.2941 53.6701L76.293 53.668C76.2833 53.6676 76.2735 53.668 76.2638 53.668C74.7207 53.6721 73.1794 53.6788 71.6435 53.6874ZM18.1577 52.0456C18.3748 52.1797 18.6048 52.3062 18.8504 52.4223C18.6036 52.3057 18.3735 52.1783 18.1556 52.0435L18.1577 52.0456ZM90.2943 48.8735C90.3087 49.2712 90.3273 49.6738 90.3441 50.0716C90.3731 50.7508 90.4 51.4496 90.4242 52.1647C90.4005 51.4493 90.3742 50.7498 90.3452 50.0705C90.3284 49.673 90.3087 49.271 90.2943 48.8735ZM34.9816 49.8345L34.9686 50.1625C34.9477 50.6509 34.9292 51.1419 34.9102 51.6354C36.3641 51.6268 37.9095 51.6213 39.5228 51.6192C39.5265 51.6179 39.53 51.6162 39.5337 51.6149C39.5304 51.616 39.5271 51.617 39.5239 51.6181C37.9108 51.6202 36.3651 51.6257 34.9113 51.6344L34.9697 50.1614L34.9816 49.8345ZM88.5464 51.6333L88.5454 51.6311C88.2931 51.629 88.0384 51.6294 87.7813 51.6279C88.0388 51.6293 88.2938 51.6312 88.5464 51.6333ZM78.0982 51.5986C79.94 51.6111 81.9147 51.6149 83.8299 51.6192L83.831 51.6181C81.9156 51.6138 79.9401 51.6111 78.0982 51.5986ZM45.3584 51.5976C43.6876 51.6132 41.9074 51.6169 40.1614 51.617C40.1596 51.6164 40.1577 51.6155 40.156 51.6149C40.1585 51.6158 40.161 51.6172 40.1635 51.6181C41.9088 51.618 43.6883 51.6132 45.3584 51.5976ZM42.1127 50.3075C39.7513 50.3162 37.3355 50.3262 35.5152 50.3638C35.505 50.6014 35.4969 50.8399 35.487 51.0781C36.7449 51.0717 38.0669 51.0659 39.4373 51.064C39.4708 51.0545 39.5049 51.0452 39.5391 51.038C39.7338 50.9973 39.9358 50.9953 40.1311 51.0337C40.1701 51.0414 40.2087 51.0522 40.2469 51.0629C41.7802 51.0628 43.3366 51.0589 44.8195 51.0478C44.8254 50.796 44.8299 50.5441 44.8346 50.2934L42.1127 50.3075ZM78.6393 51.0456C80.3231 51.0552 82.101 51.0601 83.8321 51.064C85.2711 51.064 86.6528 51.0665 87.9718 51.0748C87.9619 50.8355 87.9538 50.596 87.9436 50.3573C86.1234 50.3197 83.7082 50.3097 81.3472 50.301L78.6242 50.2869C78.6289 50.5389 78.6335 50.7923 78.6393 51.0456ZM47.2827 48.8107C47.2827 49.2376 47.2784 49.6681 47.2719 50.1008C47.2786 49.6679 47.2838 49.2367 47.2838 48.8096L47.2827 48.8107ZM47.2124 48.4503C47.2263 48.4841 47.2383 48.5192 47.2481 48.5542C47.2465 48.5487 47.2465 48.5424 47.2448 48.5369L47.2124 48.4503ZM90.0205 48.2512C90.1001 48.3305 90.1628 48.4235 90.2088 48.5239C90.1869 48.4758 90.163 48.4282 90.133 48.3843C90.1004 48.3366 90.063 48.2914 90.0216 48.2501L90.0205 48.2512ZM109.304 47.7425C109.298 47.8892 109.288 48.0339 109.275 48.1765C109.278 48.1435 109.283 48.1101 109.286 48.0769L109.305 47.7414C109.309 47.6584 109.31 47.5753 109.313 47.4925C109.31 47.5757 109.308 47.6591 109.304 47.7425ZM34.0639 47.9903C34.0055 47.9925 33.9469 48.0003 33.8907 48.0131C33.8378 48.0252 33.7858 48.0429 33.7359 48.0639C33.8388 48.0206 33.9493 47.9957 34.0628 47.9914L34.0639 47.9903ZM89.3982 47.9795C89.4565 47.9818 89.5141 47.9894 89.5703 48.0023L89.3982 47.9795C88.929 47.9622 88.3804 47.9484 87.7748 47.9373L89.3982 47.9795ZM44.2664 47.8897C44.9777 47.8852 45.6761 47.8795 46.3433 47.8735C46.4667 47.8725 46.5895 47.896 46.7037 47.9427C46.7324 47.9545 46.7608 47.9672 46.7881 47.9817L46.7048 47.9416C46.5907 47.895 46.4676 47.8715 46.3444 47.8724C45.677 47.8784 44.9779 47.885 44.2664 47.8897ZM76.7594 47.933L76.6772 47.972C76.674 47.9737 76.6707 47.9767 76.6674 47.9784C76.6972 47.9621 76.728 47.9461 76.7594 47.933ZM77.1177 47.8616L77.1166 47.8626C78.4512 47.8746 79.9011 47.8793 81.3483 47.8865L81.3493 47.8854C79.9023 47.8782 78.4522 47.8735 77.1177 47.8616ZM13.8773 36.8949C13.8931 36.7715 13.9085 36.6473 13.925 36.5226L13.9325 36.4663C13.9134 36.6101 13.8954 36.753 13.8773 36.8949ZM14.2204 34.4782C14.1609 34.8598 14.1046 35.2353 14.0516 35.6048L14.1923 34.6621C14.2017 34.601 14.2108 34.5396 14.2204 34.4782ZM105.357 16.034C105.425 16.296 105.48 16.5609 105.519 16.8263C105.895 19.395 106.386 21.9591 106.908 24.6717L106.909 24.6706C106.387 21.9582 105.896 19.3938 105.52 16.8252C105.481 16.56 105.425 16.2958 105.357 16.034ZM20.4067 15.3944C20.3185 15.6371 20.2427 15.8839 20.1783 16.1293C19.6013 18.3238 19.0129 20.6382 18.4499 22.9985C18.8512 21.316 19.2649 19.656 19.6794 18.0471L20.1794 16.1282C20.276 15.7605 20.3985 15.3906 20.5485 15.034L20.4067 15.3944ZM104.518 14.0448C104.799 14.5037 105.029 14.9995 105.203 15.5135L105.112 15.2581C104.919 14.7502 104.671 14.2638 104.372 13.8175L104.518 14.0448ZM68.7106 14.5903C67.1993 14.6152 65.7119 14.631 64.2419 14.6379L66.4616 14.6206C67.2059 14.6126 67.9552 14.6027 68.7106 14.5903ZM101.488 11.5956C102.525 11.9034 103.391 12.5512 104.056 13.3857L103.887 13.1812C103.828 13.1142 103.769 13.0483 103.708 12.9842C103.647 12.9202 103.584 12.8579 103.521 12.797C103.33 12.6143 103.127 12.4459 102.913 12.2937C102.769 12.192 102.621 12.0975 102.468 12.0112C102.161 11.8386 101.834 11.6983 101.488 11.5956ZM76.2605 12.5513C71.6693 12.7054 67.3847 12.7913 63.2408 12.8013C67.385 12.7916 71.6699 12.7065 76.2616 12.5524L76.2605 12.5513ZM23.2725 12.3846C23.2151 12.3941 23.1586 12.406 23.1026 12.4193L23.2725 12.3846C23.3299 12.3752 23.389 12.3675 23.4479 12.3619L23.2725 12.3846ZM24.2044 10.5209C31.9616 11.3667 38.7732 11.9574 45.3195 12.3262L45.3184 12.3251C39.4865 11.9965 33.444 11.4927 26.7098 10.7883L24.2044 10.5209ZM99.8118 11.4073L93.8258 11.7472C95.7574 11.6412 97.7501 11.5287 99.8107 11.4084C100.21 11.385 100.593 11.4077 100.957 11.4712L100.681 11.4311C100.401 11.399 100.111 11.3899 99.8118 11.4073ZM76.6729 4.27947C76.759 4.30632 76.8414 4.34602 76.9174 4.39744C76.9428 4.41457 76.9677 4.43219 76.991 4.45155L76.9185 4.39636C76.8424 4.34487 76.7592 4.30622 76.6729 4.27947ZM48.1215 3.68747C48.1245 3.72064 48.1263 3.75385 48.1258 3.78704C48.1259 3.78396 48.1269 3.78037 48.1269 3.7773L48.1226 3.68638L48.1215 3.68747ZM47.7903 3.05542C47.8137 3.0749 47.8361 3.09551 47.8574 3.11711L47.7903 3.05542ZM46.7308 2.96343C46.7404 2.9579 46.7501 2.95238 46.76 2.94719C46.7654 2.94434 46.7707 2.94128 46.7762 2.93853C46.7712 2.94107 46.7661 2.94349 46.7611 2.94611L46.7308 2.96343ZM47.0186 2.8552C47.0108 2.85671 47.0027 2.85997 46.9948 2.86169C47.0284 2.85436 47.0623 2.84796 47.0966 2.84438L47.0186 2.8552ZM46.6821 2.99265L46.6788 2.99373C46.6955 2.98268 46.7133 2.97339 46.7308 2.96343L46.6821 2.99265Z" fill="white"/>
</svg>
