<svg xmlns="http://www.w3.org/2000/svg" fill="none" viewBox="0 0 48 48"><path d="M23.817 18.848s-8.999 8.095-4.86 10.71c0 0-2.796 2.072-4.813 1.828-1.925-.233-4.483-2.936-.744-6.82 3.826-3.972 10.417-5.718 10.417-5.718ZM9.21 43.88c-.287.116 9.033-3.678 7.304-11.742 0 0 1.031-1.801 3.19-1.575C21.97 30.8 25.718 34.11 21 38.7c-4.587 4.465-11.79 5.18-11.79 5.18Z" fill="#0FDAC2"/><path d="M41 4s-5.564-.07-13.648 6.713c0 0-2.226-1.497-4.322.068l-2.882 2.152a10.107 10.107 0 0 1 4.036.305l-.874 1.235a1.347 1.347 0 0 0 .02 1.583l.546.73.545.73a1.347 1.347 0 0 0 1.512.47l1.432-.487a10.108 10.108 0 0 1-.854 3.955l2.881-2.151c2.097-1.565 1.294-4.124 1.294-4.124C39.486 9.355 41 4 41 4Zm-6.57 6.888a1.588 1.588 0 1 1-1.9-2.545 1.588 1.588 0 0 1 1.9 2.545ZM21.197 40.054c6.046-4.427 6.547-9.33 1.193-10.41-4.033-.813-8.084-.627-7.954-2.272.15-1.908 7.35-7.099 9.556-8.646a1.342 1.342 0 0 1-.452-.378l-.55-.726-.551-.725a1.34 1.34 0 0 1-.262-.666c-1.938 1.21-11.841 7.588-12.303 11.793-.226 2.055.786 3.095 6.112 4.1 4.116.778 6.07 1.335 5.527 3.08C20.495 38.475 9 43.982 9 43.982s6.464.27 12.197-3.927Z" fill="#643BFF"/></svg>