<svg width="62" height="59" viewBox="0 0 62 59" fill="none" xmlns="http://www.w3.org/2000/svg">
<path fill-rule="evenodd" clip-rule="evenodd" d="M12.3731 0.552646C12.1019 0.567902 11.8471 0.679082 11.6604 0.863604C11.4738 1.04813 11.3692 1.29216 11.368 1.54613C11.368 4.10251 10.2726 6.55229 8.34223 8.36284C6.41222 10.1734 3.79806 11.1974 1.06369 11.2136C0.789227 11.2149 0.525829 11.3149 0.328019 11.4928C0.130208 11.6707 0.0131331 11.9128 0.00103031 12.1692C0.000625641 12.1692 0.00144323 12.207 0.00103031 12.207C-0.000343436 12.2362 -0.000343436 12.2655 0.00103031 12.2948C0.00144323 12.2948 0.000625641 12.3347 0.00103031 12.3347C0.0142352 12.591 0.132374 12.8328 0.330985 13.0099C0.529596 13.1871 0.793466 13.286 1.06796 13.2863C3.81142 13.2863 6.43948 14.3106 8.38064 16.1231C10.3214 17.936 11.4161 20.3929 11.4235 22.9578C11.4244 23.2092 11.5266 23.451 11.7097 23.6352C11.8928 23.8193 12.1433 23.9321 12.4115 23.9513C12.4583 23.9548 12.5053 23.9555 12.5523 23.9533C12.5936 23.9513 12.6043 23.9502 12.6291 23.9533C12.9003 23.938 13.155 23.8269 13.3417 23.6423C13.5284 23.4578 13.6329 23.2138 13.6341 22.9598C13.6341 20.4038 14.7295 17.9553 16.6599 16.1451C18.5899 14.3349 21.2066 13.3109 23.9406 13.2943C24.215 13.2925 24.4782 13.192 24.6756 13.0138C24.873 12.8355 24.9896 12.5931 25.0011 12.3368C25.0015 12.3368 25.0022 12.2989 25.0033 12.2989C25.0033 12.2982 25.0033 12.2996 25.0033 12.2989C25.0033 12.2969 25.0033 12.2928 25.0033 12.2907C25.0033 12.2886 25.0033 12.2866 25.0033 12.2845C25.0033 12.2825 25.0033 12.2804 25.0033 12.2784C25.0033 12.2763 25.0033 12.2742 25.0033 12.2722C25.0033 12.2701 25.0033 12.2681 25.0033 12.266C25.0033 12.2639 25.0033 12.2619 25.0033 12.2598V12.2199C25.0027 11.9555 24.8901 11.7021 24.6901 11.5152C24.4902 11.3283 24.2191 11.223 23.9364 11.2224C21.1925 11.2224 18.5627 10.1985 16.6215 8.3856C14.6804 6.57273 13.5861 4.1162 13.5787 1.55093C13.5781 1.28622 13.4652 1.03255 13.2648 0.845558C13.0643 0.658566 12.7928 0.553523 12.5096 0.553469L12.529 0.551426C12.5034 0.550566 12.4778 0.550566 12.4522 0.551426C12.4109 0.552445 12.3979 0.555707 12.3731 0.552646ZM39.6308 8.82168C39.36 8.83742 39.1057 8.94881 38.9195 9.13328C38.7333 9.31775 38.629 9.5615 38.6279 9.81515C38.6279 14.7492 36.5112 19.4769 32.7854 22.9718C29.06 26.4662 24.0095 28.4458 18.7319 28.4778C18.4582 28.4796 18.1956 28.5795 17.9983 28.7569C17.801 28.9343 17.684 29.1757 17.6714 29.4314C17.6706 29.47 17.6703 29.47 17.6692 29.4892C17.6679 29.5178 17.6679 29.5464 17.6692 29.575C17.67 29.575 17.6703 29.6132 17.6714 29.6288C17.6846 29.8851 17.8027 30.1269 18.0013 30.304C18.2 30.4812 18.4638 30.5801 18.7383 30.5804C24.0341 30.5804 29.109 32.5574 32.8558 36.0565C36.6023 39.5552 38.7133 44.2984 38.7282 49.249C38.729 49.5001 38.8309 49.7417 39.0135 49.9258C39.1962 50.1099 39.4462 50.2229 39.714 50.2425L39.7567 50.2468C39.8029 50.2496 39.8492 50.2496 39.8954 50.2468C39.9409 50.2437 39.9908 50.2468 40.0362 50.2468C40.3074 50.2315 40.5622 50.1203 40.7489 49.9358C40.9355 49.7513 41.0401 49.5073 41.0413 49.2533C41.0413 44.3196 43.1562 39.5931 46.8816 36.0987C50.6074 32.6046 55.6579 30.6267 60.9351 30.5946C61.2096 30.5927 61.4727 30.4923 61.6701 30.314C61.8675 30.1358 61.9841 29.8934 61.9956 29.637C61.9965 29.5984 61.9967 29.5983 61.9978 29.5752C61.9988 29.5626 61.9995 29.55 62 29.5374V29.4836C61.9994 29.2192 61.8868 28.9659 61.6868 28.7789C61.4869 28.592 61.2159 28.4867 60.9331 28.4861C55.6365 28.4861 50.5586 26.5091 46.8113 23.01C43.0644 19.5105 40.9534 14.7669 40.939 9.81549C40.9362 9.60801 40.8645 9.40648 40.7337 9.23883C40.603 9.07118 40.4196 8.94573 40.2092 8.87986C40.1957 8.87963 40.1822 8.87963 40.1687 8.87986C40.0713 8.84696 39.9692 8.82748 39.8657 8.82203H39.8422C39.8187 8.82131 39.7953 8.82131 39.7718 8.82203C39.7264 8.8251 39.6762 8.82168 39.6308 8.82168ZM20.5756 39.4101C20.5343 39.4111 20.5301 39.4121 20.5094 39.4143C20.2383 39.4301 19.9837 39.5418 19.7974 39.7267C19.6112 39.9115 19.5071 40.1558 19.5065 40.4098C19.5065 44.5679 15.9202 47.918 11.4726 47.9447C11.1989 47.9465 10.9363 48.0464 10.739 48.2238C10.5417 48.4012 10.4247 48.6426 10.4121 48.8983C10.4117 48.8983 10.4099 48.8993 10.4099 48.9382C10.4087 48.9661 10.4087 48.9941 10.4099 49.022C10.4103 49.022 10.4121 49.023 10.4121 49.062C10.4253 49.3179 10.5431 49.5594 10.7413 49.7365C10.9394 49.9136 11.2028 50.0128 11.4769 50.0135C15.941 50.0135 19.5368 53.3789 19.5492 57.5524C19.5501 57.8041 19.6526 58.0463 19.8361 58.2304C20.0197 58.4146 20.2708 58.5273 20.5393 58.5459C20.5862 58.5495 20.6332 58.5522 20.6802 58.55C20.7214 58.549 20.7235 58.5469 20.7442 58.5457C21.0157 58.5305 21.2708 58.419 21.4575 58.2341C21.6442 58.0491 21.7485 57.8046 21.7492 57.5503C21.7492 53.3922 25.3359 50.042 29.7831 50.0154C30.0572 50.0135 30.3201 49.9133 30.5174 49.7355C30.7148 49.5577 30.8316 49.3158 30.8436 49.0598C30.8441 49.0598 30.8458 49.0605 30.8458 49.022C30.8458 49.0213 30.8458 49.0226 30.8458 49.022C30.8458 49.0199 30.8458 49.0158 30.8458 49.0137C30.8458 49.0117 30.8458 49.0096 30.8458 49.0076C30.8458 49.0055 30.8458 49.0035 30.8458 49.0014C30.8458 49.0007 30.8458 49.0021 30.8458 49.0014C30.8458 48.9993 30.8458 48.9952 30.8458 48.9932C30.8458 48.9911 30.8458 48.9891 30.8458 48.987C30.8458 48.9849 30.8458 48.9829 30.8458 48.9808V48.943C30.8458 48.6783 30.7334 48.4244 30.5334 48.237C30.3334 48.0497 30.062 47.9441 29.7789 47.9435C25.314 47.9435 21.7185 44.5789 21.7066 40.4046C21.7054 40.1417 21.5934 39.8897 21.3949 39.7034C21.1964 39.517 20.9273 39.4113 20.6461 39.4092C20.6226 39.4084 20.599 39.4093 20.5756 39.4101Z" fill="white"/>
</svg>
