<svg width="16" height="16" viewBox="0 0 16 16" fill="none" xmlns="http://www.w3.org/2000/svg">
<path d="M14.2085 7.98286C14.2085 7.61326 14.1735 7.27714 14.1028 6.92394L15.9999 5.24333L14.472 2.72242L12.0131 3.44521C11.4512 2.99158 10.8014 2.63839 10.099 2.3863L9.53638 0H6.48065L5.90091 2.40344C5.19836 2.63845 4.54865 3.00873 3.98682 3.46236L1.5279 2.73956L0 5.26047L1.89705 6.94108C1.82707 7.2772 1.7914 7.6304 1.7914 8C1.7914 8.3696 1.82639 8.70572 1.89705 9.05892L0 10.7395L1.5279 13.2604L3.98682 12.5376C4.54872 12.9913 5.19843 13.3445 5.90091 13.5966L6.48065 16H9.51935L10.0991 13.5966C10.8016 13.3615 11.4514 12.9913 12.0132 12.5376L14.4721 13.2604L16 10.7395L14.1029 9.05892C14.1736 8.68866 14.2085 8.35246 14.2085 7.98286ZM8.00832 11.1932C6.14621 11.1932 4.6533 9.74756 4.6533 7.98286C4.6533 6.21815 6.14621 4.77256 8.00832 4.77256C9.87042 4.77256 11.3633 6.20108 11.3633 7.98286C11.3633 9.76464 9.87042 11.1932 8.00832 11.1932Z" fill="#1061F8"/>
</svg>
