<svg width="65" height="65" viewBox="0 0 65 65" fill="none" xmlns="http://www.w3.org/2000/svg">
<g clip-path="url(#clip0_2132_15721)">
<rect x="7.63281" y="22.6445" width="9.54297" height="9.79297" fill="#0FDAC2"/>
<rect x="7.63281" y="41.9531" width="9.54297" height="9.79297" fill="#0FDAC2"/>
<rect x="16.6719" y="31.9258" width="9.54297" height="9.79297" fill="#0FDAC2"/>
<rect x="26.0781" y="22.1328" width="9.54297" height="9.79297" fill="#0FDAC2"/>
<rect x="26.0781" y="41.4414" width="9.54297" height="9.79297" fill="#0FDAC2"/>
<rect x="35.8125" y="31.9258" width="9.54297" height="9.79297" fill="#0FDAC2"/>
<rect x="45.0391" y="22.9883" width="9.54297" height="9.79297" fill="#0FDAC2"/>
<path d="M11.9219 16.6914H23.8145H29.7607" stroke="#0FDAC2" stroke-width="2.5" stroke-miterlimit="10" stroke-linecap="round" stroke-linejoin="round"/>
<path d="M59.4917 16.6914H47.5991H41.6528H38.6797" stroke="white" stroke-width="2.5" stroke-miterlimit="10" stroke-linecap="round" stroke-linejoin="round"/>
<path d="M17.2532 11.7344C15.8836 11.7344 14.7734 10.6242 14.7734 9.25468V4.2953C14.7734 2.92577 15.8836 1.81561 17.2532 1.81561C18.6228 1.81561 19.733 2.92577 19.733 4.2953V9.25468C19.733 10.6242 18.6228 11.7344 17.2532 11.7344Z" fill="#0FDAC2" stroke="white" stroke-width="2.5" stroke-miterlimit="10" stroke-linecap="round" stroke-linejoin="round"/>
<path d="M44.7766 11.7344C46.1462 11.7344 47.2564 10.6242 47.2564 9.25468V4.2953C47.2564 2.92577 46.1462 1.81561 44.7766 1.81561C43.4071 1.81561 42.2969 2.92577 42.2969 4.2953V9.25468C42.2969 10.6242 43.4071 11.7344 44.7766 11.7344Z" fill="#0FDAC2" stroke="white" stroke-width="2.5" stroke-miterlimit="10" stroke-linecap="round" stroke-linejoin="round"/>
<path d="M60.0249 44.8789V9.31604C60.0249 7.91229 58.8869 6.77436 57.4831 6.77436H47.75" stroke="white" stroke-width="2.5" stroke-miterlimit="10" stroke-linecap="round" stroke-linejoin="round"/>
<path d="M31.3594 57.8594H43.5351" stroke="white" stroke-width="2.5" stroke-miterlimit="10" stroke-linecap="round" stroke-linejoin="round"/>
<path d="M14.2749 6.77773H4.54177C3.13797 6.77773 2 7.91566 2 9.31942V55.3177C2 56.7214 3.13797 57.8594 4.54177 57.8594H21.4414" stroke="white" stroke-width="2.5" stroke-miterlimit="10" stroke-linecap="round" stroke-linejoin="round"/>
<path d="M41.8843 6.77344H20.3516" stroke="white" stroke-width="2.5" stroke-miterlimit="10" stroke-linecap="round" stroke-linejoin="round"/>
<path d="M41.6367 51.9102H7.95312V22.6498H54.0769V41.9914" stroke="white" stroke-width="2.5" stroke-miterlimit="10" stroke-linecap="round" stroke-linejoin="round"/>
<path d="M63.002 52.4017C63.002 46.6498 58.339 41.987 52.5869 41.987C46.8348 41.987 42.1719 46.6498 42.1719 52.4017C42.1719 58.1536 46.8348 62.8164 52.5869 62.8164C58.339 62.8164 63.002 58.1536 63.002 52.4017Z" fill="#0FDAC2" stroke="white" stroke-width="2.5" stroke-miterlimit="10" stroke-linecap="round" stroke-linejoin="round"/>
<path d="M49.7578 52.4014L52.3409 54.9844L57.0524 50.273" stroke="white" stroke-width="2.5" stroke-miterlimit="10" stroke-linecap="round" stroke-linejoin="round"/>
<path d="M8.36719 32.4375H53.8917" stroke="white" stroke-width="2.5" stroke-miterlimit="10" stroke-linecap="round" stroke-linejoin="round"/>
<path d="M8.36719 42.1133H50.978" stroke="white" stroke-width="2.5" stroke-miterlimit="10" stroke-linecap="round" stroke-linejoin="round"/>
<path d="M17.1797 22.6451V51.7461" stroke="white" stroke-width="2.5" stroke-miterlimit="10" stroke-linecap="round" stroke-linejoin="round"/>
<path d="M26.3984 22.6451V51.7461" stroke="white" stroke-width="2.5" stroke-miterlimit="10" stroke-linecap="round" stroke-linejoin="round"/>
<path d="M35.625 22.6451V51.7461" stroke="white" stroke-width="2.5" stroke-miterlimit="10" stroke-linecap="round" stroke-linejoin="round"/>
<path d="M44.8516 22.6468V45.3359" stroke="white" stroke-width="2.5" stroke-miterlimit="10" stroke-linecap="round" stroke-linejoin="round"/>
<circle cx="26.3977" cy="57.8586" r="1.47583" fill="#0FDAC2"/>
<circle cx="33.9758" cy="16.6907" r="1.47583" fill="#0FDAC2"/>
</g>
<defs>
<clipPath id="clip0_2132_15721">
<rect width="64" height="64" fill="white" transform="translate(0.5 0.316406)"/>
</clipPath>
</defs>
</svg>
