<svg width="30" height="30" viewBox="0 0 30 30" fill="none" xmlns="http://www.w3.org/2000/svg">
<g clip-path="url(#clip0_1732_10689)">
<path d="M25.9091 0H4.09091C1.83156 0 0 1.83156 0 4.09091V25.9091C0 28.1684 1.83156 30 4.09091 30H25.9091C28.1684 30 30 28.1684 30 25.9091V4.09091C30 1.83156 28.1684 0 25.9091 0Z" fill="white"/>
<path d="M10.809 8.18182C10.809 8.68751 10.659 9.18184 10.378 9.60231C10.0971 10.0228 9.69778 10.3505 9.23058 10.544C8.76339 10.7375 8.2493 10.7882 7.75332 10.6895C7.25735 10.5909 6.80177 10.3473 6.44419 9.98976C6.08661 9.63218 5.8431 9.1766 5.74444 8.68063C5.64579 8.18465 5.69642 7.67056 5.88994 7.20337C6.08346 6.73617 6.41117 6.33685 6.83164 6.0559C7.25211 5.77495 7.74644 5.625 8.25213 5.625C8.93024 5.625 9.58058 5.89438 10.0601 6.37387C10.5396 6.85337 10.809 7.50371 10.809 8.18182Z" fill="#643BFF"/>
<path d="M10.227 12.4427V23.7387C10.2274 23.822 10.2114 23.9046 10.1798 23.9818C10.1483 24.0589 10.1017 24.129 10.043 24.1881C9.98421 24.2472 9.91435 24.294 9.8374 24.326C9.76045 24.358 9.67794 24.3745 9.5946 24.3745H6.89972C6.81639 24.3747 6.73383 24.3585 6.6568 24.3267C6.57976 24.2949 6.50977 24.2482 6.45085 24.1893C6.39192 24.1304 6.34522 24.0604 6.31344 23.9833C6.28165 23.9063 6.2654 23.8237 6.26563 23.7404V12.4427C6.26563 12.2745 6.33243 12.1132 6.45135 11.9943C6.57026 11.8754 6.73155 11.8086 6.89972 11.8086H9.5946C9.76248 11.809 9.92333 11.8761 10.0419 11.9949C10.1604 12.1138 10.227 12.2748 10.227 12.4427Z" fill="#643BFF"/>
<path d="M24.3173 18.3234V23.7915C24.3176 23.8682 24.3026 23.9441 24.2734 24.0149C24.2442 24.0857 24.2013 24.1501 24.1471 24.2043C24.0929 24.2584 24.0286 24.3014 23.9577 24.3306C23.8869 24.3598 23.811 24.3747 23.7344 24.3745H20.8367C20.76 24.3747 20.6841 24.3598 20.6133 24.3306C20.5425 24.3014 20.4781 24.2584 20.4239 24.2043C20.3698 24.1501 20.3268 24.0857 20.2976 24.0149C20.2684 23.9441 20.2535 23.8682 20.2537 23.7915V18.4921C20.2537 17.7012 20.4855 15.0285 18.1861 15.0285C16.4048 15.0285 16.0418 16.8575 15.9702 17.679V23.7915C15.9702 23.9447 15.9099 24.0917 15.8025 24.2008C15.695 24.3099 15.5489 24.3723 15.3957 24.3745H12.5969C12.5204 24.3745 12.4447 24.3594 12.374 24.3301C12.3034 24.3008 12.2393 24.2578 12.1853 24.2037C12.1313 24.1495 12.0885 24.0852 12.0594 24.0145C12.0303 23.9438 12.0154 23.868 12.0156 23.7915V12.3933C12.0154 12.3168 12.0303 12.241 12.0594 12.1703C12.0885 12.0996 12.1313 12.0353 12.1853 11.9811C12.2393 11.927 12.3034 11.884 12.374 11.8547C12.4447 11.8254 12.5204 11.8103 12.5969 11.8103H15.3957C15.5504 11.8103 15.6986 11.8717 15.808 11.981C15.9173 12.0904 15.9787 12.2386 15.9787 12.3933V13.3785C16.6401 12.3864 17.6202 11.6211 19.7117 11.6211C24.3446 11.6211 24.3173 15.9472 24.3173 18.3234Z" fill="#643BFF"/>
</g>
<defs>
<clipPath id="clip0_1732_10689">
<rect width="30" height="30" fill="white"/>
</clipPath>
</defs>
</svg>
