<svg width="65" height="65" viewBox="0 0 65 65" fill="none" xmlns="http://www.w3.org/2000/svg">
<g clip-path="url(#clip0_2132_15700)">
<path d="M32.6226 5.31644C31.9314 5.31144 31.3676 5.86769 31.3626 6.55769C31.3576 7.24769 31.9126 7.81144 32.6039 7.81644C33.2939 7.82144 33.8576 7.26644 33.8626 6.57644C33.8676 5.88644 33.3126 5.32269 32.6226 5.31644ZM32.5658 12.8163C27.7394 12.7821 23.7868 16.6757 23.7503 21.5006C23.7139 26.3252 27.6096 30.2797 32.4345 30.3161L32.5015 30.3163C37.2956 30.3163 41.2138 26.4343 41.25 21.6318C41.2864 16.8074 37.3908 12.8527 32.5658 12.8163ZM32.5013 27.8164L32.4533 27.8162C29.0069 27.7902 26.2241 24.9654 26.2501 21.5193C26.276 18.0887 29.0745 15.3159 32.499 15.3159L32.547 15.3162C35.9934 15.3422 38.7761 18.1669 38.7501 21.6131C38.7241 25.0437 35.9258 27.8164 32.5013 27.8164ZM37.954 6.26444C37.3038 6.03369 36.5889 6.37431 36.3581 7.02506C36.1275 7.67581 36.4681 8.39019 37.1188 8.62094C42.6246 10.5723 46.294 15.8162 46.25 21.6696C46.2449 22.3598 46.8003 22.9237 47.4906 22.9289H47.5003C48.186 22.9289 48.7448 22.3754 48.75 21.6883C48.802 14.7699 44.4634 8.57156 37.954 6.26444Z" fill="white"/>
<path d="M32.5013 27.8164L32.4533 27.8162C29.0069 27.7902 26.2241 24.9654 26.2501 21.5193C26.276 18.0887 29.0745 15.3159 32.499 15.3159L32.547 15.3162C35.9934 15.3422 38.7761 18.1669 38.7501 21.6131C38.7241 25.0437 35.9258 27.8164 32.5013 27.8164Z" fill="#0FDAC2"/>
<path d="M40.1701 47.3717C48.4843 36.6699 53.6802 31.0892 53.7503 21.7262C53.8383 9.9458 44.278 0.316406 32.4985 0.316406C20.8565 0.316406 11.3392 9.74492 11.2507 21.4074C11.1792 31.0243 16.4716 36.5974 24.8431 47.37C16.515 48.6145 11.2507 51.7416 11.2507 55.5665C11.2507 58.1286 13.619 60.4278 17.9194 62.0403C21.8335 63.508 27.0119 64.3164 32.5005 64.3164C37.9891 64.3164 43.1675 63.508 47.0817 62.0403C51.382 60.4277 53.7503 58.1285 53.7503 55.5664C53.7503 51.7436 48.4909 48.6173 40.1701 47.3717ZM13.7506 21.4263C13.8286 11.1352 22.2255 2.81641 32.4988 2.81641C42.8937 2.81641 51.3279 11.3149 51.2504 21.7076C51.1839 30.5993 45.6737 36.079 36.8765 47.5469C35.3074 49.5914 33.8664 51.5244 32.5024 53.4153C31.1424 51.5233 29.7301 49.6249 28.1375 47.5461C18.9767 35.5981 13.6828 30.5326 13.7506 21.4263ZM32.5005 61.8165C21.7691 61.8165 13.7506 58.5169 13.7506 55.5665C13.7506 53.3785 18.5441 50.6145 26.6039 49.6574C28.3855 51.995 29.9475 54.1188 31.4795 56.2878C31.5948 56.451 31.7476 56.5843 31.9251 56.6763C32.1026 56.7683 32.2995 56.8164 32.4994 56.8165H32.5005C32.7002 56.8165 32.897 56.7687 33.0745 56.6769C33.2519 56.5852 33.4048 56.4523 33.5203 56.2894C35.0378 54.1486 36.6425 51.9725 38.4089 49.6588C46.4612 50.6169 51.2504 53.38 51.2504 55.5666C51.2503 58.5169 43.2319 61.8165 32.5005 61.8165Z" fill="white"/>
<path d="M32.5005 61.8165C21.7691 61.8165 13.7506 58.5169 13.7506 55.5665C13.7506 53.3785 18.5441 50.6145 26.6039 49.6574C28.3855 51.995 29.9475 54.1188 31.4795 56.2878C31.5948 56.451 31.7476 56.5843 31.9251 56.6763C32.1026 56.7683 32.2995 56.8164 32.4994 56.8165H32.5005C32.7002 56.8165 32.897 56.7687 33.0745 56.6769C33.2519 56.5852 33.4048 56.4523 33.5203 56.2894C35.0378 54.1486 36.6425 51.9725 38.4089 49.6588C46.4612 50.6169 51.2504 53.38 51.2504 55.5666C51.2503 58.5169 43.2319 61.8165 32.5005 61.8165Z" fill="#0FDAC2"/>
</g>
<defs>
<clipPath id="clip0_2132_15700">
<rect width="64" height="64" fill="white" transform="translate(0.5 0.316406)"/>
</clipPath>
</defs>
</svg>
