<svg width="65" height="65" viewBox="0 0 65 65" fill="none" xmlns="http://www.w3.org/2000/svg">
<g clip-path="url(#clip0_2132_15704)">
<path d="M36.9597 4.05587H59.5593C61.4605 4.05587 63.0021 5.59757 63.0021 7.49865V31.203C63.0021 33.1055 61.4605 34.6457 59.5593 34.6457H55.9496L48.2123 40.25V34.6457H28.2318C26.3306 34.6457 24.7891 33.1055 24.7891 31.203V7.49865C24.7891 5.59757 26.3306 4.05587 28.2318 4.05587H32.9486" stroke="white" stroke-width="2.5" stroke-miterlimit="10" stroke-linecap="round" stroke-linejoin="round"/>
<path d="M36.9597 4.05977H59.5593C61.4605 4.05977 63.0021 5.60147 63.0021 7.50255V31.2069C63.0021 33.1094 61.4605 34.6496 59.5593 34.6496H55.9496L48.2123 40.2539V34.6496H28.2318C26.3306 34.6496 24.7891 33.1094 24.7891 31.2069V7.50255C24.7891 5.60147 26.3306 4.05977 28.2318 4.05977H32.9486" fill="#0FDAC2"/>
<path d="M36.9597 4.05977H59.5593C61.4605 4.05977 63.0021 5.60147 63.0021 7.50255V31.2069C63.0021 33.1094 61.4605 34.6496 59.5593 34.6496H55.9496L48.2123 40.2539V34.6496H28.2318C26.3306 34.6496 24.7891 33.1094 24.7891 31.2069V7.50255C24.7891 5.60147 26.3306 4.05977 28.2318 4.05977H32.9486H36.9597Z" stroke="white" stroke-width="2.5" stroke-miterlimit="10" stroke-linecap="round" stroke-linejoin="round"/>
<path d="M9.41406 37.5969C15.6344 46.1614 24.0026 53.4067 34.9483 59.0648C40.1144 61.7343 46.4096 60.8103 50.6035 56.7808L52.609 54.8549C53.4412 54.0548 53.7652 52.9661 53.6265 51.9388C53.6265 51.9388 53.6276 51.9388 53.6265 51.9376C53.4878 50.9114 52.8889 49.9503 51.8775 49.3992L50.013 48.3831L47.7842 47.1691" stroke="white" stroke-width="2.5" stroke-miterlimit="10" stroke-linecap="round" stroke-linejoin="round"/>
<path d="M43.7759 44.9826L41.2218 43.5906C39.9944 42.9205 38.4786 43.09 37.4279 44.014L33.2894 47.6546C32.1257 48.6781 30.4135 48.7739 29.1444 47.8852C23.2579 43.7613 18.3779 38.8923 15.0284 32.8916C14.3153 31.6127 14.519 30.0171 15.5242 28.9529L18.8001 25.4882C19.2693 24.9917 19.5746 24.363 19.6745 23.6872C19.7744 23.0115 19.6641 22.3213 19.3586 21.7103L13.8452 10.6836C12.8302 8.65096 10.1483 8.16136 8.47912 9.70295L6.38522 11.6372C1.97281 15.7133 0.729482 22.2148 3.39165 27.5992C3.39411 27.6054 3.39779 27.6103 3.40025 27.6165C4.26309 29.3617 5.19221 31.0653 6.19375 32.726C6.36558 33.0131 6.5411 33.3003 6.71784 33.5852" stroke="white" stroke-width="2.5" stroke-miterlimit="10" stroke-linecap="round" stroke-linejoin="round"/>
<path d="M43.7782 44.9802L41.224 43.5882C39.9954 42.9194 38.4809 43.0876 37.4315 44.0117L34.6797 46.4308L38.3201 48.4794L47.7905 53.8087L51.5193 55.9062L52.6141 54.853C53.4475 54.0529 53.7703 52.963 53.6328 51.9369C53.4941 50.9107 52.8951 49.9485 51.8838 49.3961L50.0206 48.3812L47.7905 47.1661" fill="#0FDAC2"/>
<path d="M43.7782 44.9802L41.224 43.5882C39.9954 42.9194 38.4809 43.0876 37.4315 44.0117L34.6797 46.4308L38.3201 48.4794L47.7905 53.8087L51.5193 55.9062L52.6141 54.853C53.4475 54.0529 53.7703 52.963 53.6328 51.9369C53.4941 50.9107 52.8951 49.9485 51.8838 49.3961L50.0206 48.3812L47.7905 47.1661" stroke="white" stroke-width="2.5" stroke-miterlimit="10" stroke-linecap="round" stroke-linejoin="round"/>
<path d="M18.7995 25.4854L16.2563 28.1758L7.07812 10.9928L8.47782 9.70074C10.1466 8.15941 12.8285 8.64913 13.8446 10.6815L19.3571 21.708C19.9841 22.9591 19.7606 24.4678 18.7995 25.4854Z" fill="#0FDAC2" stroke="white" stroke-width="2.5" stroke-miterlimit="10" stroke-linecap="round" stroke-linejoin="round"/>
<path d="M50.9922 20.2246C50.9922 21.4921 52.0196 22.5195 53.2871 22.5195C54.5546 22.5195 55.5822 21.4921 55.5822 20.2246C55.5822 18.9571 54.5546 17.9295 53.2871 17.9295C52.0196 17.9295 50.9922 18.9571 50.9922 20.2246Z" stroke="white" stroke-width="2.5" stroke-miterlimit="10" stroke-linecap="round" stroke-linejoin="round"/>
<path d="M41.6016 20.2246C41.6016 21.4921 42.6291 22.5195 43.8966 22.5195C45.1641 22.5195 46.1916 21.4921 46.1916 20.2246C46.1916 18.9571 45.1641 17.9295 43.8966 17.9295C42.6291 17.9295 41.6016 18.9571 41.6016 20.2246Z" stroke="white" stroke-width="2.5" stroke-miterlimit="10" stroke-linecap="round" stroke-linejoin="round"/>
<path d="M32.2109 20.2246C32.2109 21.4921 33.2385 22.5195 34.506 22.5195C35.7735 22.5195 36.8011 21.4921 36.8011 20.2246C36.8011 18.9571 35.7735 17.9295 34.506 17.9295C33.2385 17.9295 32.2109 18.9571 32.2109 20.2246Z" stroke="white" stroke-width="2.5" stroke-miterlimit="10" stroke-linecap="round" stroke-linejoin="round"/>
</g>
<defs>
<clipPath id="clip0_2132_15704">
<rect width="64" height="64" fill="white" transform="translate(0.5 0.316406)"/>
</clipPath>
</defs>
</svg>
