<svg width="24" height="24" viewBox="0 0 24 24" fill="none" xmlns="http://www.w3.org/2000/svg">
<path d="M8.625 15C15 15 15 8.625 15 8.625C15 8.625 15 15 21.375 15C15 15 15 21.375 15 21.375C15 21.375 15 15 8.625 15ZM6 2.625C6 2.625 6 6 2.625 6C6 6 6 9.375 6 9.375C6 9.375 6 6 9.375 6C6 6 6 2.625 6 2.625Z" fill="#FCBD06"/>
<path d="M8.625 15C15 15 15 8.625 15 8.625C15 8.625 15 15 21.375 15C15 15 15 21.375 15 21.375C15 21.375 15 15 8.625 15ZM6 2.625C6 2.625 6 6 2.625 6C6 6 6 9.375 6 9.375C6 9.375 6 6 9.375 6C6 6 6 2.625 6 2.625Z" stroke="#FCBD06" stroke-width="2.25" stroke-linecap="round" stroke-linejoin="round"/>
</svg>
