<svg width="46" height="47" viewBox="0 0 46 47" fill="none" xmlns="http://www.w3.org/2000/svg">
<path d="M22.8922 0.00261929C22.7754 0.0160517 22.6586 0.0451545 22.5508 0.0921668L0.700809 9.26183C0.276299 9.44317 0 9.85958 0 10.3185V36.6813C0 37.1425 0.27627 37.5588 0.700809 37.738L22.5508 46.9077C22.8383 47.0308 23.1617 47.0308 23.4492 46.9077L45.2992 37.738C45.7237 37.5589 46 37.1425 46 36.6836V10.3208C46 9.85964 45.7237 9.44327 45.2992 9.26412L23.4492 0.094459C23.274 0.0183451 23.0831 -0.012998 22.8922 0.00491154V0.00261929ZM23 2.40473L41.8669 10.3204L23 18.2362L4.13312 10.3204L23 2.40473ZM2.30003 12.0581L21.85 20.2604V44.1158L2.30003 35.9135V12.0581ZM43.7 12.0581V35.9135L24.15 44.1158V20.2604L43.7 12.0581Z" fill="#643BFF"/>
</svg>
