<svg width="20" height="20" viewBox="0 0 20 20" fill="none" xmlns="http://www.w3.org/2000/svg">
<path d="M10 0C4.47715 0 0 4.47715 0 10C0 15.5228 4.47715 20 10 20C15.5229 20 20 15.5228 20 10C20 4.47715 15.5229 0 10 0ZM15.5606 6.7254C11.4229 10.7293 9.35353 14.9715 9.33302 15.0145C9.32338 15.0344 9.29986 15.0779 9.28924 15.0969C9.20416 15.2511 9.09633 15.3569 8.93849 15.4598C8.93532 15.4618 8.93129 15.4609 8.92799 15.4629C8.75941 15.5702 8.60243 15.6352 8.40175 15.6414C8.39125 15.6417 8.3445 15.6414 8.33363 15.6414H8.33204C8.17091 15.6414 8.00685 15.6063 7.85158 15.532C7.84352 15.5281 7.839 15.5207 7.83119 15.5167C7.82894 15.5155 7.82649 15.5143 7.82388 15.513C7.79178 15.4968 7.73525 15.4684 7.70871 15.4518C7.59006 15.3767 7.55706 15.3507 7.47747 15.2424C7.46392 15.2242 7.41603 15.1587 7.40333 15.1395C7.39259 15.1219 6.31251 13.493 4.6133 12.407C4.09669 12.077 3.94533 11.3914 4.2754 10.8738C4.60548 10.3563 5.29005 10.2098 5.80861 10.5359C6.787 11.1608 7.57777 11.9102 8.16139 12.5489C9.16456 10.8525 11.0867 7.96673 14.0176 5.13165C14.457 4.70196 15.1602 4.71563 15.586 5.15704C16.0137 5.59649 16.002 6.29961 15.5606 6.7254Z" fill="#0FDAC2"/>
<path d="M15.5606 6.7254C11.4229 10.7293 9.35353 14.9715 9.33302 15.0145C9.32338 15.0344 9.29986 15.0779 9.28924 15.0969C9.20416 15.2511 9.09633 15.3569 8.93849 15.4598C8.93532 15.4618 8.93129 15.4609 8.92799 15.4629C8.75941 15.5702 8.60243 15.6352 8.40175 15.6414C8.39125 15.6417 8.3445 15.6414 8.33363 15.6414H8.33204C8.17091 15.6414 8.00685 15.6063 7.85158 15.532C7.84352 15.5281 7.839 15.5207 7.83119 15.5167L7.82388 15.513C7.79178 15.4968 7.73525 15.4684 7.70871 15.4518C7.59006 15.3767 7.55706 15.3507 7.47747 15.2424C7.46392 15.2242 7.41603 15.1587 7.40333 15.1395C7.39259 15.1219 6.31251 13.493 4.6133 12.407C4.09669 12.077 3.94533 11.3914 4.2754 10.8738C4.60548 10.3563 5.29005 10.2098 5.80861 10.5359C6.787 11.1608 7.57777 11.9102 8.16139 12.5489C9.16456 10.8525 11.0867 7.96673 14.0176 5.13165C14.457 4.70196 15.1602 4.71563 15.586 5.15704C16.0137 5.59649 16.002 6.29961 15.5606 6.7254Z" fill="white"/>
</svg>
