<svg width="20" height="20" viewBox="0 0 20 20" fill="none" xmlns="http://www.w3.org/2000/svg">
<g clip-path="url(#clip0_1829_972)">
<path d="M4.34192 0C1.94889 0 0 1.94866 0 4.34158V15.6584C0 18.0513 1.94881 20 4.34192 20H15.6566C18.0481 20 20 18.0513 20 15.6584V4.34158C20 1.94874 18.0482 0 15.6566 0H4.34192ZM5.3829 4.61801C5.58631 4.61801 5.78076 4.69877 5.92434 4.84084L9.99862 8.91481L14.0744 4.84084H14.0729C14.3721 4.54323 14.8567 4.54323 15.1558 4.84084C15.2994 4.98591 15.3801 5.18033 15.3801 5.38373C15.3801 5.58862 15.2994 5.78305 15.1558 5.92662L11.083 9.99752L15.1558 14.07V14.0715C15.4534 14.3706 15.4534 14.8551 15.1558 15.1542C14.8566 15.4533 14.372 15.4533 14.0729 15.1542L9.99712 11.0802L5.92284 15.1542H5.92434C5.62521 15.4533 5.14061 15.4533 4.8415 15.1542C4.54239 14.8551 4.54237 14.3705 4.8415 14.0715L8.91578 9.99902L4.8415 5.92811V5.92662C4.69642 5.78305 4.61566 5.58863 4.61566 5.38373C4.61566 5.18034 4.69643 4.9859 4.8415 4.84084C4.98508 4.69877 5.17948 4.61801 5.3829 4.61801Z" fill="#D92D20"/>
<path d="M5.3829 4.61801C5.58631 4.61801 5.78076 4.69877 5.92434 4.84084L9.99862 8.91481L14.0744 4.84084H14.0729C14.3721 4.54323 14.8567 4.54323 15.1558 4.84084C15.2994 4.98591 15.3801 5.18033 15.3801 5.38373C15.3801 5.58862 15.2994 5.78305 15.1558 5.92662L11.083 9.99752L15.1558 14.07V14.0715C15.4534 14.3706 15.4534 14.8551 15.1558 15.1542C14.8566 15.4533 14.372 15.4533 14.0729 15.1542L9.99712 11.0802L5.92284 15.1542H5.92434C5.62521 15.4533 5.14061 15.4533 4.8415 15.1542C4.54239 14.8551 4.54237 14.3705 4.8415 14.0715L8.91578 9.99902L4.8415 5.92811V5.92662C4.69642 5.78305 4.61566 5.58863 4.61566 5.38373C4.61566 5.18034 4.69643 4.9859 4.8415 4.84084C4.98508 4.69877 5.17948 4.61801 5.3829 4.61801Z" fill="white"/>
</g>
<defs>
<clipPath id="clip0_1829_972">
<rect width="20" height="20" rx="10" fill="white"/>
</clipPath>
</defs>
</svg>
