<svg width="113" height="113" viewBox="0 0 113 113" fill="none" xmlns="http://www.w3.org/2000/svg">
<rect width="187" height="34" transform="translate(15.0391 -33) rotate(45)" fill="#FCBD06"/>
<path d="M28.9374 13.4243L37.1655 5.19618L40.1788 8.20941C40.7627 8.79331 41.1497 9.37319 41.3399 9.94906C41.5327 10.5222 41.5608 11.0673 41.4242 11.5842C41.2903 12.0985 41.0198 12.5592 40.6127 12.9663C40.2698 13.3092 39.9176 13.5355 39.556 13.6453C39.1971 13.7524 38.8409 13.7712 38.4873 13.7015C38.1391 13.6319 37.807 13.5033 37.491 13.3159L37.4106 13.3962C37.6704 13.6828 37.8485 14.0377 37.945 14.4609C38.0467 14.8841 38.0347 15.33 37.9088 15.7988C37.7829 16.2675 37.507 16.7148 37.0812 17.1407C36.6607 17.5612 36.1839 17.8397 35.6509 17.9763C35.1232 18.1129 34.5567 18.0741 33.9514 17.8598C33.3488 17.6429 32.7287 17.2157 32.0912 16.5782L28.9374 13.4243ZM31.2435 13.6011L33.0354 15.393C33.63 15.9876 34.171 16.2983 34.6585 16.3251C35.146 16.3519 35.5625 16.1925 35.908 15.847C36.1678 15.5872 36.3406 15.2832 36.4263 14.935C36.512 14.5868 36.4973 14.2265 36.3821 13.8542C36.2696 13.4846 36.0473 13.1337 35.7152 12.8016L33.8791 10.9655L31.2435 13.6011ZM34.8474 9.99727L36.5107 11.6606C36.7892 11.9391 37.0932 12.136 37.4227 12.2512C37.7548 12.369 38.0829 12.3971 38.407 12.3355C38.7364 12.2739 39.0337 12.1106 39.2989 11.8454C39.6391 11.5052 39.8051 11.1008 39.7971 10.6321C39.7891 10.1633 39.5386 9.68255 39.0458 9.18972L37.3503 7.49427L34.8474 9.99727ZM38.7786 23.5147C38.1706 22.9067 37.7769 22.2531 37.5974 21.554C37.4233 20.855 37.4541 20.1492 37.6898 19.4367C37.9309 18.7243 38.3715 18.048 39.0116 17.4078C39.6438 16.7757 40.3187 16.3365 41.0365 16.09C41.757 15.8463 42.4655 15.8021 43.1619 15.9575C43.861 16.1155 44.4971 16.4811 45.0703 17.0543C45.4185 17.4025 45.6984 17.7975 45.91 18.2395C46.1216 18.6814 46.234 19.1555 46.2474 19.6617C46.2608 20.168 46.1457 20.6929 45.9019 21.2367C45.6609 21.7777 45.2604 22.3281 44.7006 22.8879L44.2748 23.3138L39.3692 18.4082L40.2692 17.5083L43.9976 21.2367C44.3136 20.9206 44.5292 20.5764 44.6444 20.2041C44.7622 19.8291 44.7756 19.4542 44.6846 19.0792C44.5962 18.7069 44.3966 18.3654 44.0859 18.0547C43.7485 17.7172 43.3708 17.5056 42.953 17.4199C42.5405 17.3342 42.1334 17.3556 41.7316 17.4842C41.3352 17.6127 40.983 17.831 40.675 18.139L39.9719 18.8421C39.5594 19.2546 39.2808 19.6778 39.1362 20.1117C38.9942 20.5483 38.9782 20.9742 39.088 21.3893C39.2005 21.8018 39.4322 22.1835 39.783 22.5344C40.0107 22.762 40.2504 22.9375 40.5022 23.0607C40.7566 23.1812 41.0178 23.2441 41.2856 23.2495C41.5535 23.2549 41.82 23.1973 42.0852 23.0767L43.0172 24.4186C42.5914 24.6624 42.1347 24.7923 41.6472 24.8083C41.1651 24.8244 40.6776 24.7253 40.1848 24.511C39.6973 24.2968 39.2286 23.9646 38.7786 23.5147ZM52.1725 27.3304L50.8908 26.4345C50.9846 26.2497 51.0448 26.0448 51.0716 25.8198C51.1011 25.5975 51.073 25.3631 50.9873 25.1167C50.9016 24.8703 50.7342 24.6225 50.4851 24.3734C50.1449 24.0333 49.7846 23.8257 49.4043 23.7507C49.0266 23.673 48.7186 23.7534 48.4802 23.9918C48.274 24.198 48.1843 24.4404 48.2111 24.719C48.2379 24.9975 48.3811 25.347 48.641 25.7676L49.3963 26.9729C49.8329 27.6719 50.0538 28.2973 50.0592 28.8491C50.0645 29.4009 49.8489 29.895 49.4123 30.3316C49.0427 30.7012 48.6061 30.9235 48.1026 30.9985C47.6044 31.0735 47.0834 31.0026 46.5397 30.7856C45.9987 30.5713 45.4791 30.2151 44.9809 29.7169C44.2898 29.0259 43.8733 28.3148 43.7314 27.5835C43.5921 26.8496 43.7461 26.1599 44.1934 25.5144L45.5313 26.4988C45.3009 26.8738 45.2206 27.2514 45.2902 27.6317C45.3626 28.0094 45.5795 28.379 45.9411 28.7406C46.3348 29.1344 46.7312 29.3674 47.1303 29.4397C47.5321 29.5093 47.8522 29.425 48.0905 29.1866C48.2834 28.9937 48.3731 28.7594 48.3597 28.4835C48.349 28.2103 48.2298 27.8929 48.0021 27.5313L47.1866 26.2577C46.7419 25.5506 46.525 24.9158 46.5357 24.3533C46.5491 23.7936 46.7754 23.294 47.2147 22.8548C47.579 22.4905 47.9995 22.2735 48.4762 22.2039C48.953 22.1343 49.4472 22.2026 49.9587 22.4088C50.473 22.6124 50.9618 22.9458 51.4252 23.4092C52.0921 24.0761 52.4725 24.7457 52.5662 25.418C52.6626 26.0876 52.5314 26.7251 52.1725 27.3304ZM58.0011 30.1458L57.0368 31.11L53.666 27.7392L54.6303 26.775L58.0011 30.1458ZM57.0127 26.2005L58.214 27.4017L52.3764 33.2394C52.1433 33.4724 52.0027 33.6827 51.9545 33.8702C51.909 34.055 51.9197 34.2237 51.9867 34.3764C52.059 34.5291 52.1608 34.671 52.292 34.8023C52.3884 34.8987 52.4795 34.9764 52.5652 35.0353C52.6509 35.0942 52.7179 35.1397 52.7661 35.1719L51.9907 36.3812C51.8942 36.3383 51.7684 36.266 51.613 36.1642C51.455 36.0651 51.2782 35.9205 51.0827 35.7303C50.7613 35.4196 50.5229 35.0688 50.3675 34.6777C50.2122 34.2867 50.1734 33.8836 50.251 33.4684C50.3287 33.0532 50.5537 32.6595 50.926 32.2872L57.0127 26.2005ZM56.2494 40.7363L64.4775 32.5082L67.4104 35.4411C68.0506 36.0812 68.4644 36.728 68.6519 37.3816C68.8394 38.0351 68.8353 38.6686 68.6398 39.2819C68.447 39.8926 68.0988 40.4497 67.5952 40.9533C67.089 41.4595 66.5279 41.809 65.9118 42.0019C65.3012 42.1947 64.6664 42.1974 64.0075 42.0099C63.3539 41.8224 62.7084 41.41 62.071 40.7725L60.0541 38.7556L61.1067 37.703L63.0111 39.6074C63.4155 40.0118 63.8133 40.2703 64.2043 40.3828C64.5981 40.4926 64.9757 40.4846 65.3373 40.3587C65.6989 40.2328 66.035 40.0145 66.3457 39.7038C66.6564 39.3931 66.8734 39.0583 66.9966 38.6994C67.1198 38.3405 67.1225 37.9655 67.0046 37.5744C66.8895 37.1861 66.6256 36.7856 66.2132 36.3732L64.6543 34.8143L57.4908 41.9778L56.2494 40.7363ZM64.9938 49.7539C64.6028 49.3629 64.3215 48.937 64.1501 48.4763C63.9814 48.013 63.9439 47.5496 64.0376 47.0862C64.134 46.6255 64.3845 46.193 64.7889 45.7885C65.1371 45.4403 65.4907 45.2207 65.8496 45.1296C66.2085 45.0386 66.5674 45.0412 66.9263 45.1377C67.2852 45.2341 67.6388 45.3894 67.987 45.6037C68.3352 45.818 68.6726 46.0537 68.9994 46.3108C69.4119 46.6376 69.7467 46.9028 70.0038 47.1063C70.2636 47.3072 70.4779 47.4277 70.6466 47.4679C70.8154 47.5081 70.9721 47.4558 71.1167 47.3112L71.1448 47.2831C71.4957 46.9322 71.6685 46.5613 71.6631 46.1702C71.6604 45.7818 71.4649 45.3935 71.0765 45.0051C70.6721 44.6006 70.2636 44.3716 69.8511 44.3181C69.444 44.2645 69.0878 44.302 68.7824 44.4306L67.9106 43.0445C68.4195 42.8034 68.9177 42.6963 69.4052 42.7231C69.898 42.7498 70.3654 42.8797 70.8073 43.1128C71.252 43.3431 71.6604 43.6444 72.0327 44.0167C72.2791 44.2632 72.5108 44.5538 72.7278 44.8886C72.9501 45.2234 73.1054 45.5876 73.1938 45.9814C73.2849 46.3778 73.2661 46.7956 73.1376 47.2349C73.0117 47.6715 72.7238 48.1147 72.2738 48.5647L68.1758 52.6627L67.0026 51.4896L67.8463 50.6459L67.7981 50.5977C67.5651 50.6753 67.2959 50.7115 66.9906 50.7061C66.6852 50.7008 66.3611 50.6258 66.0183 50.4811C65.6755 50.3365 65.334 50.0941 64.9938 49.7539ZM66.2192 49.0509C66.5513 49.383 66.9008 49.6013 67.2678 49.7057C67.6374 49.8129 67.9896 49.8222 68.3244 49.7339C68.6646 49.6455 68.9565 49.4794 69.2003 49.2357L69.9958 48.4402C69.9101 48.4402 69.7869 48.3973 69.6262 48.3116C69.4708 48.2259 69.3021 48.1188 69.1199 47.9902C68.9405 47.859 68.7664 47.7304 68.5976 47.6045C68.4316 47.4759 68.2923 47.3688 68.1798 47.2831C67.9173 47.0795 67.6548 46.9161 67.3923 46.7929C67.1325 46.6724 66.8794 46.6202 66.633 46.6362C66.3919 46.6523 66.1643 46.7675 65.95 46.9818C65.6527 47.2791 65.5375 47.6139 65.6045 47.9862C65.6741 48.3558 65.879 48.7107 66.2192 49.0509ZM72.2507 56.9867C71.6534 56.3894 71.2744 55.7399 71.1137 55.0382C70.9583 54.3364 71.0052 53.6306 71.2543 52.9209C71.5034 52.2111 71.9373 51.5468 72.556 50.9281C73.1828 50.3014 73.8537 49.8661 74.5689 49.6224C75.2867 49.376 75.9951 49.3318 76.6942 49.4898C77.3933 49.6478 78.0334 50.0174 78.6146 50.5987C79.0834 51.0674 79.4142 51.5723 79.607 52.1133C79.8025 52.6517 79.8574 53.1887 79.7717 53.7244C79.6887 54.2628 79.461 54.7609 79.0887 55.219L77.9196 54.0498C78.1446 53.6963 78.2464 53.2999 78.2249 52.8606C78.2062 52.424 78.0053 52.0142 77.6223 51.6312C77.2875 51.2964 76.9058 51.0915 76.4773 51.0165C76.0541 50.9415 75.6108 50.9964 75.1474 51.1812C74.6867 51.3634 74.2367 51.674 73.7975 52.1133C73.3475 52.5633 73.0274 53.02 72.8373 53.4833C72.6471 53.9467 72.5868 54.3927 72.6565 54.8212C72.7288 55.2524 72.935 55.6381 73.2752 55.9783C73.5029 56.206 73.7506 56.3707 74.0185 56.4725C74.2917 56.5742 74.5702 56.6091 74.8541 56.5769C75.1407 56.5475 75.4206 56.447 75.6938 56.2756L76.863 57.4447C76.421 57.801 75.9349 58.0273 75.4045 58.1237C74.8742 58.2201 74.3372 58.1759 73.7935 57.9911C73.2524 57.809 72.7382 57.4742 72.2507 56.9867ZM79.3931 59.6936L80.8515 58.2191L81.0604 58.4281L86.1307 58.2754L87.569 59.7137L81.7916 59.8824L81.6028 59.6936L79.3931 59.6936ZM76.195 60.682L84.4232 52.4538L85.6244 53.6551L77.3963 61.8832L76.195 60.682ZM80.0921 64.5791L80.8153 59.4365L82.4826 59.4244L81.5666 66.0536L80.0921 64.5791ZM84.152 68.9121C83.7609 68.5211 83.4797 68.0952 83.3083 67.6345C83.1395 67.1711 83.102 66.7078 83.1958 66.2444C83.2922 65.7837 83.5426 65.3511 83.9471 64.9467C84.2953 64.5985 84.6488 64.3789 85.0077 64.2878C85.3666 64.1967 85.7256 64.1994 86.0845 64.2958C86.4434 64.3923 86.7969 64.5476 87.1451 64.7619C87.4933 64.9762 87.8308 65.2119 88.1576 65.469C88.5701 65.7958 88.9049 66.0609 89.162 66.2645C89.4218 66.4654 89.6361 66.5859 89.8048 66.6261C89.9736 66.6663 90.1302 66.614 90.2749 66.4694L90.303 66.4413C90.6539 66.0904 90.8266 65.7194 90.8213 65.3284C90.8186 64.94 90.6231 64.5516 90.2347 64.1633C89.8303 63.7588 89.4218 63.5298 89.0093 63.4762C88.6022 63.4227 88.246 63.4602 87.9406 63.5887L87.0688 62.2026C87.5777 61.9616 88.0759 61.8544 88.5634 61.8812C89.0562 61.908 89.5236 62.0379 89.9655 62.2709C90.4101 62.5013 90.8186 62.8026 91.1909 63.1749C91.4373 63.4213 91.669 63.7119 91.886 64.0467C92.1083 64.3815 92.2636 64.7458 92.352 65.1395C92.4431 65.536 92.4243 65.9538 92.2958 66.3931C92.1699 66.8296 91.8819 67.2729 91.432 67.7229L87.334 71.8209L86.1608 70.6477L87.0045 69.804L86.9563 69.7558C86.7233 69.8335 86.4541 69.8697 86.1488 69.8643C85.8434 69.8589 85.5193 69.784 85.1765 69.6393C84.8336 69.4947 84.4921 69.2523 84.152 68.9121ZM85.3774 68.209C85.7095 68.5412 86.059 68.7594 86.426 68.8639C86.7956 68.971 87.1478 68.9804 87.4826 68.892C87.8228 68.8036 88.1147 68.6376 88.3585 68.3938L89.154 67.5983C89.0682 67.5983 88.945 67.5555 88.7843 67.4698C88.629 67.3841 88.4602 67.2769 88.2781 67.1484C88.0987 67.0171 87.9246 66.8886 87.7558 66.7627C87.5897 66.6341 87.4505 66.527 87.338 66.4413C87.0755 66.2377 86.813 66.0743 86.5505 65.9511C86.2907 65.8306 86.0376 65.7784 85.7912 65.7944C85.5501 65.8105 85.3225 65.9257 85.1082 66.1399C84.8109 66.4372 84.6957 66.7721 84.7627 67.1444C84.8323 67.514 85.0372 67.8689 85.3774 68.209ZM89.0786 78.451C88.5885 77.9609 88.2309 77.4747 88.0059 76.9926C87.7836 76.5132 87.6671 76.0565 87.6564 75.6226C87.6457 75.1887 87.7113 74.7909 87.8532 74.4294L89.3116 75.036C89.2661 75.2262 89.238 75.4472 89.2273 75.6989C89.2166 75.9561 89.2688 76.236 89.384 76.5386C89.5018 76.844 89.7268 77.1627 90.0589 77.4948C90.5143 77.9502 91.0017 78.2153 91.5214 78.2903C92.0383 78.368 92.5378 78.1658 93.0199 77.6837L94.2333 76.4703L94.1569 76.394C93.9534 76.4529 93.7029 76.4944 93.4056 76.5185C93.111 76.5453 92.7869 76.4998 92.4334 76.3819C92.0798 76.2641 91.7142 76.0163 91.3365 75.6387C90.8491 75.1512 90.5236 74.5981 90.3603 73.9794C90.2022 73.3607 90.233 72.7138 90.4527 72.0389C90.6776 71.3639 91.1183 70.6983 91.7745 70.0421C92.4307 69.3859 93.1043 68.9346 93.7953 68.6881C94.4891 68.4444 95.156 68.3935 95.7961 68.5355C96.439 68.6747 97.0081 68.9921 97.5036 69.4876C97.8867 69.8707 98.1317 70.2443 98.2389 70.6086C98.3487 70.9702 98.3848 71.3009 98.3473 71.6009C98.3125 71.9036 98.267 72.1554 98.2107 72.3563L98.2991 72.4446L99.2995 71.4442L100.477 72.6214L94.169 78.9291C93.6387 79.4595 93.0802 79.7715 92.4936 79.8652C91.907 79.959 91.3218 79.8773 90.7379 79.6202C90.1567 79.3657 89.6036 78.976 89.0786 78.451ZM92.5981 74.9075C92.9436 75.253 93.3159 75.4646 93.715 75.5423C94.1194 75.6199 94.5346 75.569 94.9605 75.3896C95.3917 75.2101 95.8202 74.9075 96.2461 74.4816C96.6613 74.0664 96.9653 73.6392 97.1581 73.2C97.351 72.7607 97.4166 72.3335 97.355 71.9183C97.2961 71.5005 97.0912 71.1161 96.7403 70.7653C96.3787 70.4037 95.9836 70.1961 95.5551 70.1425C95.1292 70.0863 94.6953 70.1559 94.2534 70.3514C93.8141 70.5496 93.3976 70.8456 93.0039 71.2393C92.5994 71.6438 92.3061 72.0603 92.124 72.4888C91.9419 72.9174 91.8856 73.3379 91.9553 73.7504C92.0276 74.1655 92.2419 74.5512 92.5981 74.9075ZM98.4518 83.1878C97.8438 82.5798 97.4501 81.9263 97.2706 81.2272C97.0965 80.5282 97.1273 79.8224 97.363 79.1099C97.6041 78.3975 98.0447 77.7212 98.6848 77.081C99.3169 76.4489 99.9919 76.0096 100.71 75.7632C101.43 75.5195 102.139 75.4753 102.835 75.6306C103.534 75.7887 104.17 76.1543 104.743 76.7275C105.092 77.0757 105.372 77.4707 105.583 77.9127C105.795 78.3546 105.907 78.8287 105.921 79.3349C105.934 79.8411 105.819 80.3661 105.575 80.9098C105.334 81.4509 104.934 82.0013 104.374 82.5611L103.948 82.987L99.0424 78.0814L99.9424 77.1815L103.671 80.9098C103.987 80.5938 104.202 80.2496 104.318 79.8773C104.435 79.5023 104.449 79.1273 104.358 78.7524C104.269 78.3801 104.07 78.0386 103.759 77.7279C103.422 77.3904 103.044 77.1788 102.626 77.0931C102.214 77.0074 101.807 77.0288 101.405 77.1573C101.008 77.2859 100.656 77.5042 100.348 77.8122L99.645 78.5153C99.2326 78.9278 98.954 79.351 98.8094 79.7849C98.6674 80.2215 98.6513 80.6473 98.7612 81.0625C98.8737 81.475 99.1053 81.8567 99.4562 82.2075C99.6839 82.4352 99.9236 82.6106 100.175 82.7338C100.43 82.8544 100.691 82.9173 100.959 82.9227C101.227 82.928 101.493 82.8704 101.758 82.7499L102.69 84.0918C102.265 84.3356 101.808 84.4655 101.32 84.4815C100.838 84.4976 100.351 84.3985 99.858 84.1842C99.3705 83.9699 98.9018 83.6378 98.4518 83.1878Z" fill="#0E0E0F"/>
</svg>
