<svg width="150" height="120" viewBox="0 0 150 120" fill="none" xmlns="http://www.w3.org/2000/svg">
<g clip-path="url(#clip0_142_2099)">
<path d="M61.5449 42.0564C60.4591 45.0328 61.0834 50.5123 65.3912 53.2994C69.3943 55.8912 74.717 54.0183 77.2644 50.8082C79.9834 47.382 79.8384 43.1629 76.2111 39.1273C75.269 38.0398 74.058 37.2185 72.6991 36.7456C69.2523 35.6213 63.1544 37.6391 61.5449 42.0564Z" fill="#0FDAC2"/>
<path d="M69.6152 55.6795C67.895 55.6907 66.2088 55.2002 64.763 54.2682C59.8516 51.0906 59.2924 44.8685 60.461 41.6642C62.2363 36.812 68.8637 34.3001 73.0502 35.6492C74.603 36.1851 75.9875 37.1197 77.0651 38.3594C80.9647 42.6968 81.3641 47.4958 78.1628 51.5255C77.1259 52.7979 75.8239 53.8288 74.3476 54.5462C72.8713 55.2637 71.2563 55.6504 69.6152 55.6795ZM70.6152 37.599C67.6832 37.599 63.7718 39.3091 62.6268 42.4542C61.7126 44.9632 62.1564 49.8509 66.0175 52.3362C69.4022 54.5256 74.1006 52.9457 76.3728 50.0935C78.8404 46.9869 78.4824 43.3655 75.3669 39.8979C74.5598 38.9624 73.5227 38.2536 72.3579 37.8416C71.793 37.6711 71.2052 37.5893 70.6152 37.599Z" fill="#0FDAC2"/>
<path d="M99.1846 58.8809C100.472 61.9165 101.353 64.8337 102.416 67.3368C102.742 68.1034 102.854 68.944 102.742 69.7695C102.629 70.595 102.296 71.3748 101.776 72.0263C97.8766 76.8797 92.5239 80.3555 86.5037 81.9438C86.0634 82.0878 85.5974 82.1363 85.1368 82.0858C84.5451 81.9822 84.051 81.5798 83.5894 81.1982C81.6989 79.6153 79.8112 78.0324 78.1484 76.411C83.5125 77.0826 88.6754 74.124 92.782 70.6091C96.1579 67.7184 99.3326 63.9254 99.1846 58.8809Z" fill="white"/>
<path d="M67.6634 52.765C67.4812 52.7651 67.3016 52.7215 67.1397 52.6378C66.5105 52.3054 65.9383 51.875 65.4444 51.3626C64.5027 50.4066 63.7735 49.2625 63.3045 48.0052C62.8354 46.7479 62.6371 45.4058 62.7224 44.0665C62.7496 43.767 62.893 43.4899 63.1219 43.2947C63.3507 43.0995 63.647 43.0017 63.9471 43.0222C64.2472 43.0427 64.5274 43.1799 64.7276 43.4044C64.9278 43.6289 65.0322 43.9229 65.0184 44.2233C64.9557 45.2366 65.1078 46.2517 65.4647 47.2021C65.8216 48.1525 66.3753 49.0168 67.0895 49.7383C67.4137 50.0797 67.7902 50.3674 68.2049 50.5904C68.4346 50.7084 68.6179 50.9003 68.7254 51.1351C68.8329 51.3699 68.8583 51.634 68.7975 51.885C68.7367 52.136 68.5933 52.3593 68.3903 52.5189C68.1873 52.6785 67.9365 52.7652 67.6782 52.765H67.6634Z" fill="white"/>
<path fill-rule="evenodd" clip-rule="evenodd" d="M41.5203 92.9725C42.2636 92.6211 43.0932 92.4924 43.908 92.6023L43.9275 92.6053L43.9471 92.6092C44.7987 92.7583 45.5918 93.1422 46.2371 93.7176C46.8824 94.293 47.355 95.037 47.6004 95.866C47.8441 96.6457 47.8735 97.4771 47.6853 98.2723C47.4956 99.0734 47.0917 99.8083 46.5174 100.398L46.4978 100.418C45.6793 101.214 44.5838 101.662 43.4422 101.668C43.2108 101.669 42.9792 101.651 42.7508 101.613L42.743 101.612C42.0733 101.496 41.4394 101.227 40.8914 100.825C40.3432 100.423 39.8954 99.8988 39.5838 99.2947L39.5779 99.284L39.573 99.2732C39.2761 98.6614 39.1085 97.9956 39.0799 97.3182L39.076 97.0272C39.0672 96.1818 39.2826 95.3491 39.701 94.6141L39.7098 94.5984L39.7195 94.5828C40.1516 93.8834 40.777 93.3239 41.5203 92.9725ZM43.3777 97.0184L43.3787 97.0516L43.3777 97.0838C43.3747 97.1734 43.3908 97.2623 43.4236 97.3455C43.427 97.3498 43.4299 97.355 43.4344 97.3582C43.4358 97.3591 43.4379 97.3593 43.4393 97.3602C43.443 97.3596 43.4474 97.3604 43.451 97.3592C43.4535 97.3582 43.4554 97.3555 43.4578 97.3543C43.4742 97.33 43.4883 97.304 43.4949 97.2752C43.504 97.235 43.5028 97.1927 43.491 97.1531L43.4871 97.1385L43.4822 97.1238C43.4644 97.0569 43.4284 96.9962 43.3787 96.9481C43.3766 96.9713 43.377 96.9949 43.3777 97.0184ZM40.7098 94.9002C40.6606 94.9675 40.6141 95.037 40.5701 95.1082L40.701 94.9129C40.704 94.9087 40.7067 94.9044 40.7098 94.9002Z" fill="white"/>
<path fill-rule="evenodd" clip-rule="evenodd" d="M38.8631 -0.824406C40.0311 -1.06911 41.2387 -1.05777 42.4021 -0.792179C45.3333 -0.120814 50.307 1.73866 55.0135 3.76934C59.7094 5.79552 64.3018 8.06092 66.4305 9.58184C70.0716 12.1832 72.0332 14.7205 74.4217 17.8045C74.8199 18.3157 75.225 18.8389 75.657 19.3856C80.8172 25.9217 85.864 32.6205 90.7576 39.4158C93.8596 38.9778 97.1793 38.6276 100.375 38.7C103.731 38.7761 107.024 39.3181 109.81 40.7693C111.311 41.5473 113.276 43.4377 115.075 45.8191C116.896 48.2298 118.645 51.2687 119.651 54.4578C121.007 58.7545 120.867 62.6874 119.107 66.0613L119.105 66.0652C118.923 66.41 118.651 66.6993 118.317 66.9012C117.984 67.1029 117.601 67.2105 117.212 67.2117H117.199C116.984 67.2096 116.771 67.1753 116.566 67.1111L116.364 67.0369C114.311 66.1608 112.864 64.2934 111.535 62.6209L111.534 62.619C110.232 60.9751 108.952 59.3708 107.165 58.2166C105.74 57.2968 103.952 56.6391 101.513 56.575C101.507 57.2295 101.464 57.8811 101.387 58.5272C101.994 59.9979 102.509 61.4178 102.998 62.7703L103.708 64.7107C103.94 65.3295 104.172 65.9216 104.412 66.4871C104.892 67.6116 105.058 68.8461 104.892 70.0574C104.737 71.193 104.296 72.2691 103.611 73.1854L103.471 73.367C99.284 78.5818 93.5335 82.3151 87.0662 84.0164L87.0652 84.0154C86.5531 84.1617 86.0245 84.244 85.492 84.2566H85.4744C85.2374 84.258 84.9999 84.2379 84.7664 84.1971C83.5549 83.9845 82.6887 83.2352 82.2156 82.8289C80.5656 81.4439 78.8439 80 77.2791 78.5281C76.6123 78.5233 75.9479 78.4718 75.2898 78.3768C74.971 80.6787 75.2959 82.4869 75.9266 84.0037C76.6413 85.7227 77.764 87.1217 78.9617 88.4998L80.0135 89.7C81.266 91.1403 82.5275 92.7236 82.9568 94.6258C83.0773 95.1541 82.9946 95.7087 82.7244 96.1785C82.4542 96.6483 82.017 96.9993 81.4998 97.1609L81.493 97.1629C80.3027 97.5259 79.0645 97.7076 77.8201 97.7029H77.8172L77.8152 97.7039C75.107 97.703 72.2236 96.8961 69.3113 95.3602C66.1564 93.6974 63.287 91.3582 61.1033 89.1043C60.0099 87.9756 59.0768 86.8565 58.3592 85.8387C57.6525 84.8363 57.1143 83.8766 56.866 83.0721C56.0561 80.4547 56.2339 77.7024 56.8133 75.0496C57.3919 72.4005 58.393 69.7603 59.2976 67.3641C59.6521 66.4188 59.985 65.5386 60.283 64.6932C53.4909 57.0016 47.0055 49.0409 40.8465 40.8279C38.8849 38.2281 37.0951 35.7441 35.9598 32.8143L35.9559 32.8035C35.955 32.8012 35.9474 32.7812 35.9383 32.7566C35.9278 32.7284 35.9136 32.6886 35.8953 32.6385C35.8586 32.5378 35.8062 32.3938 35.742 32.2088C35.6135 31.8386 35.4348 31.3034 35.2254 30.6238C34.8066 29.2649 34.2639 27.3232 33.7527 24.95C32.7314 20.2077 31.8299 13.7154 32.3055 6.68927L32.3064 6.68536C32.3915 5.49499 32.7328 4.33681 33.3074 3.29083C33.882 2.24488 34.6756 1.3351 35.6346 0.624813C36.5935 -0.085442 37.6951 -0.57966 38.8631 -0.824406ZM84.2977 83.0242C84.3476 83.0448 84.3983 83.0645 84.45 83.0828C84.2953 83.0278 84.1486 82.962 84.0096 82.8895L84.2977 83.0242ZM85.8309 80.9246C85.7451 80.9379 85.6589 80.948 85.5721 80.952L85.7967 80.9314C85.8082 80.9298 85.8194 80.9264 85.8309 80.9246ZM99.576 65.9344C98.3726 68.1179 96.5737 70.2082 94.2049 72.2371L94.202 72.24C90.5511 75.3464 86.9373 77.3697 83.3963 78.2098L84.9764 79.5369L84.9978 79.5545C85.1555 79.694 85.2946 79.8095 85.4148 79.8914C85.4567 79.9199 85.4918 79.9388 85.5174 79.9529C85.6518 79.9478 85.7851 79.924 85.9129 79.8807L85.9461 79.8689L85.9803 79.8602C91.5551 78.3958 96.5121 75.1773 100.118 70.6805C100.395 70.3334 100.574 69.9175 100.634 69.4773C100.694 69.0367 100.633 68.5874 100.458 68.1785L100.456 68.1756C100.148 67.4501 99.8608 66.7011 99.576 65.9344ZM77.075 77.5272L77.45 77.5311C77.294 77.5318 77.138 77.5278 76.9822 77.5232C77.0132 77.5242 77.044 77.5264 77.075 77.5272ZM84.3914 73.6121C84.2551 73.6717 84.1177 73.7304 83.9793 73.7879C83.7027 73.9027 83.4219 74.013 83.1375 74.118C82.8535 74.2229 82.5659 74.3226 82.2752 74.4158C83.1482 74.1359 83.9933 73.7996 84.7967 73.4314L84.3914 73.6121ZM67.1941 15.869C65.6302 20.6749 62.1605 25.1553 57.2225 28.7908C52.3476 32.3856 47.4236 34.5965 42.2801 35.49C42.6905 36.0947 43.1306 36.7081 43.5965 37.3387L44.2781 38.2518C53.6343 50.7188 63.7458 62.601 74.5545 73.8318C78.9645 75.0927 83.7748 73.1037 87.2381 70.9959L87.8318 70.6268C90.7503 68.7751 92.926 66.7938 94.5057 64.5975L94.5096 64.5916L94.5145 64.5857C96.3164 62.1555 97.2621 59.2014 97.2176 56.1815C89.3619 44.5493 80.9757 33.069 72.2801 22.0506L72.2791 22.0496C71.8399 21.4917 71.4238 20.9576 71.0262 20.4412L70.1951 19.3738C69.1916 18.0937 68.2552 16.9501 67.1941 15.869ZM88.9578 71.0887C88.5705 71.3454 88.1706 71.5993 87.7576 71.8504L88.368 71.4715C88.5678 71.3447 88.7643 71.2169 88.9578 71.0887ZM101.585 68.4529C101.6 68.529 101.613 68.6055 101.624 68.6824C101.655 68.9126 101.663 69.1458 101.647 69.3787C101.642 69.4565 101.634 69.5345 101.624 69.6121C101.613 69.6896 101.599 69.7663 101.584 69.8426C101.568 69.9188 101.55 69.9943 101.529 70.0691C101.425 70.4435 101.26 70.799 101.038 71.1189C101.349 70.6711 101.55 70.1546 101.624 69.6121C101.687 69.1471 101.655 68.6757 101.531 68.2264L101.585 68.4529ZM94.9744 65.6424C93.9235 67.015 92.6509 68.2975 91.1316 69.5106C90.9629 69.6453 90.7909 69.7789 90.616 69.9119C92.365 68.5811 93.8069 67.1673 94.9744 65.6424ZM103.902 69.9217L103.938 69.5828C103.939 69.5705 103.938 69.558 103.939 69.5457C103.93 69.6711 103.919 69.7966 103.902 69.9217ZM61.1463 65.2518C60.864 66.0432 60.5543 66.8612 60.2332 67.7176L60.8777 65.9939C61.0693 65.4743 61.2502 64.9666 61.4187 64.4686L61.1463 65.2518ZM117.8 66.0457L117.896 65.9803C117.903 65.9754 117.908 65.9696 117.915 65.9647C117.878 65.9936 117.84 66.0213 117.8 66.0457ZM118.366 65.3094C118.319 65.4064 118.271 65.5035 118.221 65.5994L118.358 65.327C118.361 65.3212 118.363 65.3151 118.366 65.3094ZM96.3338 63.6102C96.131 63.9716 95.9133 64.3258 95.6795 64.6707L96.0184 64.1473C96.1276 63.9704 96.2323 63.791 96.3338 63.6102ZM113.341 63.2645C113.451 63.3958 113.564 63.523 113.675 63.6502C113.391 63.3256 113.11 62.9881 112.83 62.6404L113.341 63.2645ZM97.7273 60.1766C97.6215 60.5751 97.499 60.969 97.3602 61.3572C97.2907 61.5514 97.217 61.7441 97.1395 61.9354C97.372 61.3619 97.5685 60.7743 97.7273 60.1766ZM93.7039 49.284C95.225 51.4719 96.7291 53.6672 98.2137 55.868L96.7234 53.6688C95.7253 52.204 94.7181 50.7427 93.7039 49.284ZM109.601 41.7967C110.159 42.1254 110.801 42.6278 111.485 43.2703C111.22 43.0217 110.962 42.7933 110.713 42.5887C110.515 42.4265 110.322 42.2787 110.137 42.1463C109.951 42.014 109.772 41.8974 109.601 41.7967ZM41.2478 35.7488C41.0219 35.4087 40.8052 35.0684 40.5975 34.7274L40.6502 34.8143C40.8418 35.1263 41.041 35.4376 41.2478 35.7488ZM39.2293 32.0984C39.2915 32.2454 39.3562 32.3915 39.4227 32.5369C39.3543 32.3874 39.288 32.237 39.2244 32.0858L39.2293 32.0984ZM41.4412 3.40216C40.883 3.27424 40.3035 3.26937 39.743 3.38653C39.1824 3.50379 38.6534 3.74095 38.1932 4.08184C37.7329 4.4229 37.3514 4.85984 37.076 5.36212C36.8012 5.86326 36.6371 6.418 36.5965 6.98809L36.5975 6.98907C35.9101 17.169 38.448 26.9374 39.7342 30.616L39.9734 31.2693L40.0535 31.4686C45.03 30.9007 49.8127 28.9013 54.6824 25.324C59.6132 21.6934 62.6726 17.2835 63.5564 12.826C61.5754 11.5204 57.5521 9.54712 53.2713 7.70294C48.712 5.73883 44.0278 3.99364 41.4422 3.40313L41.4412 3.40216ZM36.5867 22.244C37.0881 24.9975 37.6849 27.3647 38.2098 29.1346L37.8875 28.0018C37.7234 27.4017 37.5559 26.7517 37.3894 26.0574C37.3339 25.8259 37.2785 25.5896 37.2234 25.3484C37.003 24.3841 36.7873 23.3454 36.5867 22.244ZM54.0115 27.0233C54.0965 26.9653 54.1824 26.9083 54.2674 26.8494L54.2976 26.8279C54.2025 26.894 54.1067 26.9584 54.0115 27.0233ZM56.6619 25.0486C56.2157 25.4165 55.7534 25.7779 55.2742 26.1307L55.7879 25.7449C56.0862 25.5162 56.3771 25.2834 56.6619 25.0486ZM61.7283 19.5613C63.2766 17.2627 64.2729 14.8337 64.6512 12.3709L64.5721 12.8387C64.1447 15.141 63.1778 17.4084 61.7283 19.5613ZM71.8162 19.8279L70.9822 18.7557C70.8939 18.643 70.8042 18.5326 70.7166 18.4217C71.0752 18.8758 71.4399 19.343 71.8162 19.8279ZM35.823 16.9149C35.8883 17.5434 35.9621 18.1614 36.0418 18.7674L35.9266 17.8494C35.8901 17.5406 35.8557 17.229 35.823 16.9149ZM68.7293 12.7479C69.4049 13.3808 70.0214 14.0223 70.6101 14.6854C69.8741 13.8564 69.0955 13.0604 68.2107 12.2742L68.7293 12.7479ZM35.4832 11.0262C35.4956 12.3769 35.5556 13.7063 35.6521 15.0008L35.5867 14.0233C35.5286 13.0397 35.4925 12.0394 35.4832 11.0262ZM46.9598 4.09845C47.0594 4.13492 47.1589 4.17353 47.2596 4.21075C46.8945 4.07577 46.5367 3.94378 46.1863 3.81915L46.9598 4.09845ZM38.6853 0.24493C38.5592 0.278572 38.4343 0.315953 38.3103 0.356258L38.6853 0.24493C38.8116 0.211271 38.9399 0.180979 39.0682 0.15411L38.6853 0.24493ZM35.9207 1.67071L35.6619 1.89532C35.6507 1.90555 35.6399 1.91627 35.6287 1.92657C35.7238 1.83891 35.8209 1.75332 35.9207 1.67071Z" fill="white"/>
<path fill-rule="evenodd" clip-rule="evenodd" d="M28.2469 61.4266C28.7874 61.372 29.3285 61.5244 29.7615 61.8524C30.1403 62.1393 30.412 62.5423 30.5369 62.9969L30.5818 63.1951L30.5828 63.202C30.956 65.4233 31.5635 68.0926 32.9998 70.1727C34.4719 72.3044 35.9023 73.1765 37.3963 73.2469H37.7273C38.2976 73.247 38.8446 73.4736 39.2478 73.8768C39.6511 74.2801 39.8777 74.8279 39.8777 75.3982C39.8776 75.9685 39.6511 76.5155 39.2478 76.9188C38.8446 77.322 38.2976 77.5485 37.7273 77.5486H37.2742C34.534 77.5487 33.3481 78.1954 32.658 79.1307C32.2806 79.6422 31.9946 80.3156 31.7469 81.2068C31.4982 82.1017 31.3073 83.1445 31.0809 84.3826C30.9769 84.9766 30.8647 85.5736 30.7391 86.1902L30.74 86.1912C30.6423 86.6805 30.3769 87.1212 29.99 87.4363C29.6048 87.7501 29.1226 87.9196 28.6258 87.9178L28.5896 87.9188C28.0856 87.9108 27.6 87.7259 27.2185 87.3963C26.837 87.0664 26.5833 86.612 26.5027 86.1141C25.6366 80.8328 22.7187 77.7165 18.9266 77.3279L18.9217 77.327C18.4089 77.272 17.9323 77.0345 17.5799 76.658C17.2276 76.2814 17.0226 75.7905 17.0018 75.2752C16.981 74.7597 17.1456 74.2533 17.4666 73.8494C17.7876 73.4456 18.2439 73.171 18.7508 73.075L19.1512 72.9891C23.2598 71.9979 26.4574 67.8666 26.3133 63.6326V63.6268C26.2982 63.0837 26.4887 62.5544 26.8475 62.1463C27.2062 61.7383 27.7063 61.4812 28.2469 61.4266ZM28.3084 86.8748C28.3406 86.884 28.3731 86.8919 28.406 86.8982C28.3406 86.8856 28.2767 86.8672 28.2146 86.8436L28.3084 86.8748ZM23.3953 78.1082C23.4991 78.1909 23.6004 78.2761 23.701 78.3641C24.0034 78.6284 24.2916 78.916 24.5643 79.2264C24.2011 78.8129 23.8108 78.4394 23.3953 78.1082ZM28.5125 71.0135C27.52 72.5876 26.234 73.9575 24.7205 75.0447C25.9812 75.9022 27.1553 77.0469 28.1424 78.5145C28.7596 77.0231 29.681 75.6741 31.1941 74.7156C30.5483 74.0751 29.9665 73.3709 29.4617 72.6111C29.1144 72.0973 28.7981 71.5627 28.5125 71.0135ZM23.616 75.5223C24.0154 75.7612 24.4085 76.0298 24.7908 76.3309C24.281 75.9293 23.7525 75.5846 23.2146 75.2928L23.616 75.5223ZM18.9256 76.3172C18.9593 76.3239 18.9937 76.3291 19.0281 76.3328C18.9596 76.3255 18.8923 76.3119 18.8269 76.2928L18.9256 76.3172ZM18.3836 76.0467C18.395 76.0569 18.4079 76.0653 18.4197 76.075C18.3817 76.0436 18.3444 76.0108 18.3103 75.9744L18.3836 76.0467ZM20.2518 73.7068C19.9666 73.8056 19.6763 73.8908 19.3816 73.9617L19.8211 73.8445C19.9659 73.8021 20.1094 73.7561 20.2518 73.7068ZM32.7713 71.5408C32.7969 71.5727 32.8237 71.6033 32.8494 71.6346C32.8175 71.5957 32.7845 71.5572 32.7527 71.5174L32.7713 71.5408ZM27.3162 64.0535C27.3066 64.66 27.2369 65.2619 27.1131 65.8523C27.0203 66.295 26.8973 66.7313 26.7459 67.158C26.3423 68.2957 25.7393 69.3666 24.9812 70.3133C26.403 68.5377 27.2804 66.3268 27.3162 64.0535ZM27.5984 62.8065C27.4786 62.9428 27.3933 63.1042 27.3484 63.2772C27.3394 63.3119 27.3317 63.3471 27.326 63.3826C27.3604 63.1704 27.4545 62.9701 27.5984 62.8065ZM28.1482 62.4588C28.1114 62.4693 28.0753 62.4819 28.0398 62.4959C28.1043 62.4704 28.1714 62.4509 28.24 62.4373L28.1482 62.4588Z" fill="white"/>
<path fill-rule="evenodd" clip-rule="evenodd" d="M107.221 -0.644718C107.761 -0.70632 108.305 -0.561276 108.742 -0.238468C109.179 0.0839919 109.477 0.560157 109.578 1.09356C110.031 3.48187 110.752 6.33826 112.393 8.68341L112.734 9.1463L112.737 9.14923C114.679 11.6647 116.728 12.812 118.965 12.9022H119.41C119.98 12.9022 120.527 13.1288 120.93 13.532C121.334 13.9353 121.561 14.4823 121.561 15.0525C121.561 15.623 121.334 16.1707 120.93 16.574C120.527 16.9772 119.98 17.2039 119.41 17.2039H118.845C115.083 17.204 113.333 18.0261 112.324 19.2332C111.369 20.3757 110.924 22.0055 110.434 24.3084L110.221 25.3377C110.084 26.0013 109.941 26.6917 109.782 27.4041L109.779 27.4168C109.667 27.8908 109.397 28.3132 109.013 28.6141C108.632 28.9137 108.16 29.0747 107.676 29.0731L107.636 29.074C107.141 29.0644 106.664 28.8844 106.286 28.5643C105.908 28.2439 105.653 27.8022 105.562 27.3152C104.866 23.5329 104.182 21.0954 102.809 19.5174C101.498 18.0104 99.3955 17.1249 95.3611 16.9549L95.3572 16.9539C94.8276 16.9296 94.3251 16.7104 93.9471 16.3387C93.5692 15.9669 93.3424 15.4684 93.3094 14.9393C93.2765 14.4098 93.4402 13.8864 93.7693 13.4705C94.0985 13.0548 94.5699 12.775 95.0926 12.6854H95.0965C101.011 11.6953 105.508 6.60228 105.315 1.57891C105.294 1.03733 105.478 0.506549 105.83 0.0945394C106.183 -0.318643 106.68 -0.582981 107.221 -0.644718ZM107.564 8.95587C106.317 11.0274 104.637 12.8056 102.638 14.1668C103.932 14.7788 104.992 15.5659 105.865 16.5145C106.538 17.2456 107.085 18.059 107.542 18.9344C107.866 18.1965 108.261 17.488 108.756 16.8328C109.513 15.8298 110.484 14.9781 111.743 14.327C110.847 13.5723 110.035 12.7201 109.327 11.782C108.653 10.8953 108.064 9.94805 107.564 8.95587ZM103.096 18.3748C103.151 18.4263 103.205 18.4788 103.258 18.532C103.152 18.4258 103.043 18.3229 102.93 18.2234L103.096 18.3748ZM99.9334 16.6238C100.081 16.6686 100.224 16.7172 100.364 16.7664C100.057 16.6586 99.733 16.56 99.3904 16.4734L99.9334 16.6238ZM120.223 14.2391L120.15 14.1717C120.148 14.1698 120.146 14.1677 120.143 14.1658C120.171 14.1888 120.198 14.2134 120.223 14.2391ZM117.573 13.7283C117.862 13.7916 118.155 13.8383 118.452 13.868L118.002 13.8094C117.858 13.7864 117.715 13.7594 117.573 13.7283ZM96.9978 13.2606C96.433 13.4334 95.8533 13.5716 95.2615 13.6707C96.0504 13.5386 96.8182 13.3382 97.5574 13.077L96.9978 13.2606ZM111.346 12.5994C111.491 12.7481 111.639 12.8936 111.791 13.0359C111.488 12.7514 111.198 12.4538 110.92 12.1443L111.346 12.5994ZM98.6434 12.6414C100.238 11.9224 101.668 10.9176 102.85 9.72247C102.456 10.1208 102.035 10.498 101.589 10.8504C100.696 11.5552 99.7063 12.1621 98.6434 12.6414ZM104.576 7.57013C104.381 7.87638 104.171 8.17607 103.947 8.46759L104.272 8.0252C104.377 7.87546 104.478 7.72343 104.576 7.57013ZM106.465 0.920711C106.447 0.951764 106.431 0.983945 106.417 1.01641C106.446 0.951374 106.482 0.888813 106.523 0.829891L106.465 0.920711ZM107.334 0.348446C107.045 0.381526 106.779 0.522915 106.59 0.743953L106.665 0.664852C106.846 0.48945 107.081 0.377375 107.334 0.348446ZM107.762 0.380672C107.794 0.389386 107.826 0.399386 107.858 0.410946C107.793 0.387129 107.726 0.36891 107.657 0.357235L107.762 0.380672Z" fill="white"/>
<path fill-rule="evenodd" clip-rule="evenodd" d="M112.312 80.1336C112.591 80.1728 112.861 80.2664 113.103 80.409L113.931 80.9051C122.146 85.9493 128.537 93.4866 132.17 102.417L132.524 103.315L132.525 103.317C132.684 103.737 132.708 104.197 132.593 104.631C132.478 105.065 132.23 105.453 131.884 105.739C131.537 106.025 131.109 106.196 130.661 106.226C130.213 106.257 129.767 106.147 129.385 105.911C129.193 105.793 128.997 105.68 128.8 105.571C130.8 109.7 131.846 114.241 131.842 118.854C131.84 119.424 131.613 119.971 131.21 120.373C130.807 120.774 130.262 120.999 129.693 121L129.69 121.001C129.401 121 129.114 120.941 128.849 120.828C128.582 120.714 128.341 120.547 128.141 120.338C124.764 116.829 120.923 113.807 116.729 111.352C117.73 112.915 118.977 114.313 120.43 115.486L120.892 115.847C121.277 116.137 121.554 116.549 121.678 117.015C121.801 117.481 121.763 117.975 121.572 118.418C121.381 118.86 121.046 119.226 120.622 119.456C120.198 119.685 119.709 119.766 119.234 119.684L119.224 119.682C111.825 118.332 105.374 113.893 100.571 106.935C96.5526 101.112 93.7245 93.5717 92.581 85.6971C92.5405 85.4179 92.5556 85.1318 92.6249 84.8582C92.6943 84.5846 92.8175 84.3276 92.9862 84.1014C93.1551 83.8751 93.3665 83.6835 93.6093 83.5389C93.8519 83.3944 94.1208 83.2993 94.4003 83.2586C94.6797 83.218 94.9645 83.2333 95.2382 83.3026C95.5117 83.3719 95.7697 83.4942 95.996 83.6629C96.2223 83.8318 96.414 84.0443 96.5585 84.2869C96.7029 84.5295 96.7982 84.7988 96.8388 85.078L97.0038 86.1336C97.8933 91.4434 99.7509 97.1996 102.693 102.217C105.179 106.454 108.416 110.129 112.468 112.588C111.531 110.915 110.816 109.12 110.35 107.248V107.245C110.253 106.854 110.269 106.445 110.393 106.062C110.518 105.68 110.747 105.34 111.056 105.081C111.364 104.822 111.738 104.655 112.137 104.598C112.485 104.549 112.84 104.585 113.17 104.704L113.309 104.76L113.313 104.762C118.255 106.967 122.855 109.86 126.98 113.347C126.18 109.62 124.57 106.1 122.252 103.046C121.996 102.708 121.845 102.302 121.818 101.88C121.792 101.457 121.891 101.036 122.103 100.669C122.315 100.302 122.631 100.006 123.011 99.8182C123.39 99.6303 123.816 99.5588 124.236 99.6121H124.24C124.937 99.7032 125.628 99.8348 126.309 100.003C122.735 93.4162 117.42 87.9172 110.925 84.12L110.923 84.119C110.679 83.9757 110.466 83.7849 110.296 83.5594C110.126 83.334 110.001 83.077 109.931 82.8036C109.86 82.53 109.844 82.2451 109.883 81.9657C109.922 81.686 110.016 81.4162 110.159 81.1727C110.302 80.9292 110.493 80.7159 110.719 80.5457C110.944 80.3758 111.201 80.2523 111.475 80.1815C111.748 80.1107 112.033 80.0945 112.312 80.1336ZM122.816 101.817C122.831 102.043 122.912 102.261 123.049 102.441C126.032 106.372 127.884 111.042 128.408 115.948L128.41 115.95C127.886 111.043 126.032 106.372 123.049 102.441C122.912 102.261 122.831 102.043 122.816 101.817ZM114.342 108.912C118 110.764 121.43 113.024 124.567 115.644C121.72 113.266 118.632 111.184 115.35 109.435L114.342 108.912ZM111.293 106.841C111.298 106.896 111.307 106.952 111.32 107.007C112.069 110.011 113.483 112.809 115.461 115.192L115.463 115.193C113.485 112.81 112.07 110.011 111.321 107.006C111.308 106.951 111.298 106.896 111.293 106.841ZM111.583 105.959C111.476 106.078 111.394 106.219 111.344 106.373L111.305 106.528C111.296 106.577 111.291 106.626 111.289 106.676C111.294 106.573 111.312 106.471 111.344 106.373C111.402 106.194 111.505 106.033 111.64 105.903L111.583 105.959ZM112.12 105.622C112.073 105.635 112.027 105.652 111.982 105.672C112.076 105.631 112.176 105.603 112.278 105.589L112.12 105.622ZM130.253 105.199C130.306 105.211 130.36 105.222 130.414 105.226L130.593 105.228C130.478 105.236 130.364 105.225 130.253 105.199ZM117.677 87.7205C122.126 91.5574 125.745 96.3017 128.272 101.668L128.274 101.669C125.747 96.302 122.126 91.5576 117.677 87.7205ZM123.454 100.714C123.251 100.814 123.082 100.974 122.969 101.17L122.895 101.322C122.876 101.372 122.86 101.423 122.848 101.474C122.873 101.368 122.914 101.265 122.97 101.169C123.083 100.973 123.251 100.814 123.454 100.714ZM93.5946 85.1043L93.5722 85.2157C93.5719 85.2176 93.5724 85.2196 93.5722 85.2215C93.5779 85.1821 93.5848 85.1431 93.5946 85.1043ZM93.7245 84.7928C93.7188 84.8023 93.7143 84.8125 93.7089 84.8221C93.7328 84.7797 93.7588 84.7383 93.788 84.6991L93.7245 84.7928ZM94.121 84.3983L94.0272 84.4608C94.0221 84.4646 94.0177 84.4696 94.0126 84.4735C94.0477 84.4466 94.0829 84.421 94.121 84.3983ZM111.32 81.3446C111.2 81.4356 111.098 81.5502 111.021 81.6805L110.969 81.7801C110.963 81.7925 110.959 81.8057 110.954 81.8182C110.974 81.7708 110.996 81.724 111.022 81.6795C111.099 81.5494 111.2 81.4355 111.32 81.3446ZM111.725 81.1493L111.692 81.159C111.704 81.1557 111.714 81.1522 111.725 81.1493Z" fill="#0FDAC2"/>
<path fill-rule="evenodd" clip-rule="evenodd" d="M66.454 56.9412C66.7357 56.9669 67.0102 57.0481 67.2606 57.1795C67.5105 57.3108 67.7322 57.4902 67.913 57.7069L69.5419 59.6639C72.6901 63.4659 73.0829 64.0322 77.1552 68.1844C77.3161 68.3468 77.5351 68.5703 77.8192 68.8631C77.8211 68.865 77.8223 68.8671 77.8241 68.869L77.747 68.9432C77.7618 68.9608 77.7775 68.9777 77.7919 68.995C77.8994 69.1232 78.0068 69.2537 78.0907 69.3641C78.1316 69.4179 78.1774 69.4806 78.2177 69.5428C78.2376 69.5736 78.2646 69.6179 78.2909 69.6688C78.3041 69.6942 78.3406 69.7645 78.37 69.8621L78.3964 69.9696L78.4198 70.1258C78.4615 70.4914 78.4087 70.863 78.2655 71.2039C78.1019 71.5935 77.8269 71.9263 77.4755 72.161C77.1764 72.3606 76.8326 72.4808 76.4765 72.5135L76.4384 72.5272L76.2753 72.5262C75.9903 72.5261 75.7071 72.4702 75.4442 72.3602C75.1815 72.2501 74.943 72.0885 74.7431 71.8856C69.2564 66.3096 69.5878 66.429 64.6034 60.4696L64.6024 60.4676C64.4214 60.2503 64.2852 59.9991 64.2011 59.7293C64.1169 59.4592 64.0866 59.1742 64.1122 58.8924C64.1379 58.6107 64.2191 58.3362 64.3505 58.0858C64.4819 57.8355 64.6615 57.6136 64.8788 57.4325C65.0962 57.2513 65.3469 57.1143 65.6171 57.0301C65.8873 56.9459 66.1721 56.9156 66.454 56.9412ZM76.161 71.5213L76.2753 71.5262C76.2251 71.5262 76.1754 71.521 76.1259 71.5145C76.1376 71.516 76.1492 71.5201 76.161 71.5213ZM77.248 70.993C77.2536 70.9842 77.2611 70.9766 77.2665 70.9676L77.2792 70.9432C77.2694 70.9603 77.2586 70.9765 77.248 70.993ZM76.1562 68.6121C76.1704 68.6185 76.2496 68.6927 76.4198 68.8641C76.4057 68.8497 76.3919 68.8345 76.3778 68.8202C76.2148 68.6567 76.1518 68.5981 76.1562 68.6121ZM65.2353 58.5506C65.1648 58.6849 65.1221 58.8323 65.1083 58.9832L65.1034 59.0965C65.1034 59.0988 65.1044 59.1011 65.1044 59.1034C65.1039 59.0634 65.1047 59.0232 65.1083 58.9832C65.1221 58.8323 65.1648 58.6849 65.2353 58.5506ZM65.9149 57.9852L65.8085 58.0243C65.8035 58.0263 65.7988 58.0289 65.7938 58.0311C65.8336 58.0136 65.8733 57.9982 65.9149 57.9852Z" fill="#0FDAC2"/>
<path fill-rule="evenodd" clip-rule="evenodd" d="M40.3983 16.534C40.6851 16.5029 40.9757 16.5298 41.2519 16.6131C41.5279 16.6965 41.7851 16.8349 42.0067 17.0194C42.2282 17.2039 42.4109 17.4311 42.5429 17.6873C42.6694 17.9333 42.7453 18.2021 42.7704 18.4774H42.7724C43.0784 21.2599 43.6791 24.0024 44.5644 26.658L44.621 26.8621C44.7306 27.3441 44.6714 27.8523 44.4491 28.2987C44.1987 28.8013 43.761 29.1843 43.2313 29.369L43.2323 29.37C43.2303 29.3707 43.2276 29.3702 43.2255 29.3709C43.2199 29.3729 43.2145 29.3768 43.2089 29.3787L43.2079 29.3768C42.9936 29.4519 42.769 29.4938 42.5419 29.4979L42.5321 29.4989H42.5224C42.0716 29.4984 41.632 29.3556 41.2665 29.0916C40.901 28.8274 40.6272 28.4543 40.4853 28.0262C39.4999 25.0789 38.8335 22.0326 38.497 18.9432L38.4979 18.9422C38.4632 18.6679 38.4799 18.3893 38.5507 18.1219C38.6246 17.8429 38.7546 17.5813 38.9315 17.3534C39.1084 17.1255 39.3291 16.9355 39.581 16.7948C39.8329 16.654 40.1114 16.5652 40.3983 16.534ZM42.1874 28.4452C42.239 28.461 42.2912 28.4757 42.3446 28.4842L42.5233 28.4989C42.5531 28.4983 42.5827 28.4959 42.6122 28.493C42.5831 28.4958 42.5536 28.4974 42.5243 28.4979C42.4092 28.4978 42.2961 28.4787 42.1874 28.4452ZM39.4911 18.8358C39.82 21.8552 40.4712 24.8313 41.4345 27.7118C40.4712 24.831 39.821 21.8544 39.4921 18.8348C39.4902 18.8215 39.4896 18.8081 39.4882 18.7948C39.4896 18.8083 39.4892 18.8223 39.4911 18.8358ZM39.5175 18.3778L39.494 18.4901C39.492 18.503 39.4918 18.5162 39.4901 18.5291C39.4965 18.4782 39.5043 18.4276 39.5175 18.3778ZM39.7216 17.9666L39.6552 18.0614C39.6533 18.0644 39.6522 18.068 39.6503 18.0711C39.6724 18.035 39.6955 18.0002 39.7216 17.9666ZM40.5058 17.5282L40.4882 17.5301C40.4944 17.5293 40.4996 17.5288 40.5058 17.5282Z" fill="#0FDAC2"/>
</g>
<defs>
<clipPath id="clip0_142_2099">
<rect width="150" height="120" fill="white"/>
</clipPath>
</defs>
</svg>
