<svg width="150" height="120" viewBox="0 0 150 120" fill="none" xmlns="http://www.w3.org/2000/svg">
<path d="M44.3761 19.0511C44.3678 19.04 44.362 19.0272 44.3594 19.0136L44.4006 20.3761L44.4881 19.0802C44.4754 19.0858 44.4616 19.0885 44.4476 19.0881C44.4337 19.0877 44.42 19.0842 44.4076 19.0778C44.3952 19.0714 44.3845 19.0623 44.3761 19.0511Z" fill="white"/>
<path fill-rule="evenodd" clip-rule="evenodd" d="M44.4881 19.0802C47.6662 9.86037 56.5308 4.51802 65.6066 2.17722C70.8362 0.83547 76.2995 0.660556 81.6051 1.66501C84.6294 2.16422 87.5661 3.09224 90.3255 4.4207C92.2004 5.36317 93.9878 6.68979 95.9502 7.49396C96.2045 7.8069 96.5417 8.04285 96.9237 8.17518C97.3564 8.51324 97.7942 8.84621 98.2423 9.1689C98.2781 9.19002 98.3178 9.20384 98.359 9.2096C98.4002 9.21537 98.4421 9.21296 98.4823 9.20247C98.5226 9.19199 98.5604 9.17369 98.5935 9.14858C98.6265 9.12347 98.6542 9.09208 98.675 9.05623C98.8956 8.70095 99.0885 8.32934 99.2519 7.94471C99.3238 7.94432 99.3946 7.92748 99.459 7.8955C99.5233 7.86353 99.5793 7.81728 99.6228 7.76032C100.421 6.80249 100.823 5.22999 101.08 3.71385C102.08 6.70003 103.141 9.65552 104.135 12.6468C104.729 14.4566 105.244 16.2852 105.68 18.1326C105.671 19.0134 105.71 19.894 105.799 20.7705C105.897 21.4428 106.045 22.107 106.242 22.7578C106.391 23.2701 106.051 23.229 105.551 23.4134C103.877 24.0332 102.028 24.2381 100.272 24.5403C99.5403 24.6172 98.8089 24.7042 98.0724 24.8425C97.6964 24.9142 97.3255 24.9962 96.9495 25.0884C94.1114 25.5545 91.2063 26.1435 88.8627 27.6494L88.6463 27.716C88.6772 24.8988 89.8774 21.5388 91.8707 19.6231C91.9591 19.5284 92.0082 19.404 92.0082 19.2748C92.0082 19.1456 91.9591 19.0212 91.8707 18.9265C91.2638 18.2064 90.5721 17.5615 89.8104 17.0057C89.8475 16.8892 89.8465 16.764 89.8077 16.6481C89.7688 16.5322 89.694 16.4314 89.5941 16.3603C81.9296 10.8182 71.4837 9.56331 62.2946 11.1614C58.4052 11.8212 54.6037 12.9175 50.9628 14.4293C48.4285 15.4947 44.8899 17.3848 44.4006 20.3761C44.4006 20.3761 44.4263 20.4068 44.4367 20.3761C45.9819 17.5743 49.3403 16.1452 52.1629 15.003C55.5258 13.6969 59.0163 12.7424 62.5779 12.1551C71.3343 10.5826 81.4248 11.9246 88.7802 17.1542C89.3483 17.9578 90.0321 18.6741 90.8097 19.2799C88.7184 21.5746 87.5389 25.3138 87.7192 28.3204C87.7208 28.3915 87.7385 28.4612 87.771 28.5244C87.8036 28.5876 87.8501 28.6427 87.907 28.6856C87.964 28.7284 88.03 28.7579 88.1 28.7719C88.17 28.7858 88.2424 28.7838 88.3115 28.7661C90.5624 28.136 92.7361 27.2806 94.951 26.5635C96.4962 26.2921 98.0002 26.0872 99.4785 25.8311C101.766 25.4316 104.877 25.3803 106.947 24.0588L107.04 24.3508C107.04 24.3603 107.044 24.3694 107.051 24.3761C107.057 24.3829 107.066 24.3866 107.076 24.3866C107.086 24.3866 107.095 24.3829 107.102 24.3761C107.108 24.3694 107.112 24.3603 107.112 24.3508C107.158 24.192 107.189 24.0281 107.225 23.8693L107.498 23.6593C107.576 23.5867 107.631 23.494 107.659 23.3918C107.686 23.2895 107.684 23.1818 107.653 23.0805C107.56 22.8452 107.483 22.6098 107.406 22.3744L107.406 22.3737C107.524 19.2595 106.288 15.7149 105.484 12.9746C104.274 8.8769 102.734 4.85094 101.456 0.753261C101.292 0.241051 100.344 0.102755 100.251 0.753261C99.9727 2.32582 99.5942 3.87928 99.118 5.40417C99.1142 5.41758 99.1142 5.43172 99.118 5.44512C99.1156 5.47581 99.1156 5.50666 99.118 5.53735C99.0407 5.81906 98.9686 6.10073 98.9016 6.38757C98.7694 6.74992 98.5215 7.05935 98.196 7.26862C98.1515 7.20819 98.0932 7.15904 98.026 7.12519C95.4506 5.84978 92.9524 4.41558 90.3718 3.14018C87.5543 1.74184 84.3247 1.05549 81.2445 0.522792C75.8001 -0.393207 70.2195 -0.102861 64.9009 1.37308C55.7839 3.79071 47.0018 9.56841 44.3594 19.0136C44.362 19.0272 44.3678 19.04 44.3761 19.0511C44.3845 19.0623 44.3952 19.0714 44.4076 19.0778C44.42 19.0842 44.4337 19.0877 44.4476 19.0881C44.4616 19.0885 44.4754 19.0858 44.4881 19.0802ZM97.9899 8.28279L98.2578 8.44154C98.3041 8.35446 98.3402 8.26741 98.3711 8.20594C98.294 8.23691 98.2148 8.26259 98.1342 8.28279H97.9899Z" fill="white"/>
<path d="M65.6066 2.17722C56.5308 4.51802 47.6662 9.86037 44.4881 19.0802L44.4006 20.3761C44.8899 17.3848 48.4285 15.4947 50.9628 14.4293C54.6037 12.9175 58.4052 11.8212 62.2946 11.1614C71.4837 9.56331 81.9296 10.8182 89.5941 16.3603C89.694 16.4314 89.7688 16.5322 89.8077 16.6481C89.8465 16.764 89.8475 16.8892 89.8104 17.0057C90.5721 17.5615 91.2638 18.2064 91.8707 18.9265C91.9591 19.0212 92.0082 19.1456 92.0082 19.2748C92.0082 19.404 91.9591 19.5284 91.8707 19.6231C89.8774 21.5388 88.6772 24.8988 88.6463 27.716L88.8627 27.6494C91.2063 26.1435 94.1114 25.5545 96.9495 25.0884C97.3255 24.9962 97.6964 24.9142 98.0724 24.8425C98.8089 24.7042 99.5403 24.6172 100.272 24.5403C102.028 24.2381 103.877 24.0332 105.551 23.4134C106.051 23.229 106.391 23.2701 106.242 22.7578C106.045 22.107 105.897 21.4428 105.799 20.7705C105.71 19.894 105.671 19.0134 105.68 18.1326C105.244 16.2852 104.729 14.4566 104.135 12.6468C103.141 9.65552 102.08 6.70003 101.08 3.71385C100.823 5.22999 100.421 6.80249 99.6228 7.76032C99.5793 7.81728 99.5233 7.86353 99.459 7.8955C99.3946 7.92748 99.3238 7.94432 99.2519 7.94471C99.0885 8.32934 98.8956 8.70095 98.675 9.05623C98.6542 9.09208 98.6265 9.12347 98.5935 9.14858C98.5604 9.17369 98.5226 9.19199 98.4823 9.20247C98.4421 9.21296 98.4002 9.21537 98.359 9.2096C98.3178 9.20384 98.2781 9.19002 98.2423 9.1689C97.7942 8.84621 97.3564 8.51324 96.9237 8.17518C96.5417 8.04285 96.2045 7.8069 95.9502 7.49396C93.9878 6.68979 92.2004 5.36317 90.3255 4.4207C87.5661 3.09224 84.6294 2.16422 81.6051 1.66501C76.2995 0.660556 70.8362 0.83547 65.6066 2.17722Z" fill="white"/>
<path d="M106.883 30.4124C106.883 30.34 106.919 30.2727 106.929 30.2054C106.94 30.1382 106.929 30.1692 106.893 30.2054C105.976 31.7273 104.661 32.9674 103.093 33.7911C103.093 33.7911 103.052 33.76 103.041 33.7911C103.039 33.8065 103.039 33.8222 103.041 33.8376C102.609 34.086 102.162 34.3136 101.715 34.5309C101.715 34.5309 101.715 34.4947 101.715 34.4792C101.715 34.2774 101.391 34.2257 101.36 34.4327C101.36 34.5258 101.324 34.6241 101.308 34.7224L100.46 35.1001C100.46 34.9655 100.46 34.8362 100.46 34.7017C100.46 34.6921 100.456 34.6829 100.449 34.6761C100.442 34.6693 100.433 34.6655 100.424 34.6655C100.414 34.6655 100.405 34.6693 100.398 34.6761C100.392 34.6829 100.388 34.6921 100.388 34.7017L100.264 35.2191C99.8992 35.3795 99.5341 35.5295 99.1741 35.6744C95.8157 36.9915 92.331 37.9556 88.7754 38.5512L87.7469 38.7167C85.1035 38.8409 82.4602 39.0479 79.8219 39.1255C74.0415 38.8357 68.2765 37.2525 63.5194 34.1325C63.5485 34.0764 63.5561 34.0115 63.5408 33.95C63.5255 33.8886 63.4884 33.835 63.4364 33.7993C63.3845 33.7636 63.3213 33.7483 63.2589 33.7563C63.1964 33.7643 63.1391 33.7951 63.0977 33.8428L62.5834 33.4961C62.0177 32.6832 61.3348 31.9595 60.5572 31.3489C62.6452 29.0309 63.8228 25.2539 63.6428 22.2116C63.642 22.14 63.625 22.0696 63.5932 22.0057C63.5613 21.9418 63.5153 21.886 63.4588 21.8426C63.4023 21.7993 63.3367 21.7694 63.267 21.7553C63.1973 21.7412 63.1254 21.7433 63.0566 21.7614C60.8092 22.403 58.639 23.2619 56.4276 23.9862C54.8848 24.2604 53.3831 24.4674 51.9071 24.7313C49.6238 25.1349 46.5175 25.1866 44.4502 26.5163L44.3576 26.2214C44.3576 26.2118 44.3538 26.2026 44.347 26.1958C44.3403 26.189 44.3311 26.1852 44.3216 26.1852C44.312 26.1852 44.3029 26.189 44.2961 26.1958C44.2894 26.2026 44.2856 26.2118 44.2856 26.2214C44.2393 26.3818 44.2084 26.5474 44.1724 26.7388C44.0799 26.8061 43.9873 26.8733 43.8999 26.9509C43.8226 27.0231 43.7671 27.1158 43.7398 27.2184C43.7125 27.3209 43.7145 27.429 43.7456 27.5304C43.833 27.7684 43.9153 28.0116 43.9925 28.2496C43.8742 31.3903 45.1084 34.9759 45.9107 37.744C47.1192 41.8832 48.6569 45.9501 49.9323 50.0893C50.0969 50.6067 51.0432 50.7464 51.1357 50.0893C51.4131 48.5007 51.791 46.9314 52.2671 45.3912C52.2671 45.3912 52.2671 45.3913 52.2671 45.3499C52.2695 45.3189 52.2695 45.2877 52.2671 45.2567C52.298 45.1481 52.3237 45.0394 52.3494 44.9307C52.4728 44.8583 52.5962 44.7755 52.7145 44.6928C52.7403 44.6739 52.7581 44.6462 52.7647 44.6148C52.7713 44.5835 52.7661 44.5508 52.7501 44.5231C52.7341 44.4954 52.7084 44.4747 52.6781 44.4649C52.6478 44.4552 52.615 44.4571 52.586 44.4702L52.4471 44.5324C52.4471 44.4858 52.4471 44.4393 52.4831 44.3927C52.6165 44.0274 52.8636 43.7152 53.1877 43.5027C53.2307 43.5651 53.2892 43.615 53.3574 43.6476C55.9287 44.9359 58.423 46.3847 60.9995 47.6782C63.8126 49.0855 67.0371 49.7788 70.1073 50.3169C75.5447 51.2449 81.1188 50.9516 86.4303 49.458C87.1812 49.2563 87.932 49.0286 88.6777 48.7803C88.7373 48.8184 88.8081 48.8349 88.8783 48.8268C89.1551 48.78 89.4114 48.6502 89.6137 48.4543C93.7477 47.0049 97.5411 44.7154 100.758 41.728C101.361 41.2517 101.93 40.733 102.46 40.1758C103.734 38.7856 104.749 37.1769 105.458 35.426L105.597 35.1467L105.834 34.9759C105.869 34.9491 105.898 34.9155 105.92 34.8771C105.942 34.8387 105.956 34.7964 105.961 34.7525C105.966 34.7086 105.963 34.6641 105.951 34.6216C105.938 34.5791 105.918 34.5395 105.89 34.5051C106.25 33.698 106.557 32.8684 106.811 32.0215C106.97 31.6024 107.135 31.1833 107.325 30.7694C107.474 30.4641 107.089 30.2572 106.883 30.4124ZM90.5754 47.0107C90.7708 46.5761 90.9302 46.1208 91.064 45.7379L91.3159 45.5982C91.1044 46.0789 90.8658 46.5471 90.6011 47.0004L90.5754 47.0107ZM88.6777 47.7092C88.8339 47.414 88.9646 47.1059 89.0686 46.7883L89.8503 46.395C89.66 46.7727 89.4543 47.1504 89.2383 47.5126L88.6777 47.7092ZM85.5921 48.6198C85.2681 48.7026 84.9493 48.7855 84.6253 48.8579C84.6664 48.7855 84.7024 48.7078 84.7384 48.6302L85.551 48.3301L85.7361 48.2577C85.7052 48.3767 85.6641 48.5008 85.6127 48.6198H85.5921ZM66.2605 48.3094C66.3737 48.2318 66.4817 48.1439 66.5897 48.0611C67.1039 48.118 67.6748 48.1646 68.2199 48.2008C68.081 48.3664 67.9422 48.5319 67.7982 48.6923C67.3045 48.5785 66.7902 48.4491 66.2811 48.3094H66.2605ZM64.3628 47.7299C64.98 47.8489 65.6022 47.9473 66.2297 48.0197C66.1474 48.0921 66.0548 48.1593 65.9725 48.2266C65.448 48.0766 64.9131 47.911 64.3834 47.7351L64.3628 47.7299ZM62.7223 22.7859C62.7128 23.3982 62.6561 24.0088 62.5526 24.6123L62.4446 24.4984C62.5645 23.954 62.652 23.4029 62.7069 22.848C62.7069 22.8117 62.64 22.8014 62.6349 22.848C62.5835 23.2205 62.5115 23.5775 62.4292 23.9293C62.4227 23.8799 62.3979 23.8349 62.3598 23.8032C62.3216 23.7715 62.2729 23.7555 62.2235 23.7586C61.9921 23.7586 61.7606 23.7586 61.5292 23.8051L61.3646 23.7172C61.452 23.6033 61.5343 23.4895 61.6269 23.3809C61.9252 23.2205 62.2235 23.0498 62.5063 22.8635L62.7223 22.7859ZM61.8223 27.2769L61.6115 27.1062C61.9554 26.2861 62.229 25.4379 62.4292 24.5709L62.5372 24.6951C62.3906 25.5765 62.158 26.4413 61.8429 27.2769H61.8223ZM60.6704 29.5277C60.5984 29.4863 60.5366 29.45 60.4698 29.4034L60.5212 29.3207L60.9686 29.0465C60.8915 29.2068 60.7938 29.3724 60.6909 29.5277H60.6704ZM61.1846 33.3512C61.0612 33.7082 60.9275 34.0653 60.7886 34.4171C60.5881 34.2878 60.3927 34.148 60.1972 34.0083C60.4389 33.7186 60.6807 33.4237 60.9326 33.1391C61.0509 33.2116 61.1332 33.284 61.2206 33.3512H61.1846ZM67.6388 37.5267C67.6388 37.5267 67.6388 37.5733 67.6028 37.594C67.2788 37.4698 66.9599 37.3353 66.6411 37.1904L66.6771 37.1076C67.0268 37.2576 67.3508 37.387 67.6748 37.5267H67.6388ZM102.275 38.9289C102.388 38.5512 102.491 38.1579 102.584 37.7595C102.927 37.4735 103.245 37.1585 103.535 36.8179C103.436 37.049 103.348 37.2818 103.273 37.5164C102.977 38.007 102.656 38.4819 102.311 38.9392L102.275 38.9289ZM97.3433 42.8094C97.5233 42.3955 97.6673 41.9609 97.8061 41.5314C98.1918 41.2313 98.5775 40.9209 98.9529 40.6053C98.8507 41.009 98.695 41.397 98.4901 41.7591C98.4335 41.847 98.5261 41.9868 98.6289 41.9454C99.2666 41.697 99.4415 40.7398 99.5855 40.062L100.023 39.674C99.8591 40.2109 99.7556 40.7644 99.7141 41.3245C98.9941 41.8626 98.1867 42.3386 97.3793 42.8094H97.3433ZM95.9033 43.6683C96.0061 43.3423 96.109 43.0164 96.2067 42.6904C96.4124 42.5559 96.613 42.4162 96.8135 42.2765C96.6415 42.6351 96.4937 43.005 96.3713 43.3837L95.9033 43.6683ZM74.3912 49.665C73.7741 49.6236 73.1569 49.5719 72.5398 49.4995C72.7712 49.0649 73.0078 48.6354 73.2495 48.206C73.9386 48.1697 74.6226 48.118 75.3066 48.0611C75.0495 48.5164 74.7923 48.9665 74.5249 49.4167C74.4753 49.4966 74.4306 49.5795 74.3912 49.665ZM69.6033 47.554C69.8193 47.2746 70.025 46.9797 70.2307 46.6899L70.889 46.7935L71.3724 46.8504C71.2336 47.0884 71.0947 47.3264 70.9404 47.5592C70.4776 47.5644 70.0302 47.5644 69.5827 47.554H69.6033ZM50.7346 45.1119L50.7037 45.2153L50.5597 45.2723C50.6214 44.8894 50.6934 44.5117 50.7809 44.1443C50.7993 44.1303 50.8128 44.1106 50.8192 44.0882C50.8257 44.0658 50.8249 44.042 50.8168 44.0201C50.9043 43.6786 51.0071 43.3475 51.1151 43.0164L51.326 42.9698C51.0771 43.6684 50.8795 44.3843 50.7346 45.1119ZM49.5775 44.879L49.0066 43.2182C49.2329 43.2182 49.4592 43.2182 49.6855 43.2182C49.6392 43.4769 49.5877 43.7356 49.5466 43.9943C49.4952 44.3358 50.0043 44.5117 50.0609 44.1392C50.1072 43.9115 50.1586 43.689 50.2049 43.4665L50.246 43.5338C50.116 44.0818 50.0419 44.6418 50.0249 45.205C49.8933 45.0958 49.756 44.9939 49.6135 44.8997C49.6108 44.8947 49.6072 44.8902 49.6028 44.8867C49.5983 44.8831 49.5932 44.8805 49.5878 44.879H49.5775ZM48.6003 40.807C48.6091 40.2846 48.6712 39.7645 48.7855 39.2548C49.0206 39.2282 49.2541 39.1885 49.4849 39.1358L50.3643 40.2483C50.162 40.9381 49.9906 41.647 49.85 42.3748C49.4872 41.8139 49.0722 41.289 48.6106 40.807H48.6003ZM47.9935 40.2586C47.9369 40.0827 47.8752 39.9016 47.8187 39.7412C47.8415 39.7016 47.8555 39.6575 47.8598 39.6119C47.8598 39.5239 47.8906 39.436 47.9009 39.348H48.1786C48.1038 39.6641 48.0556 39.9861 48.0346 40.3104L47.9935 40.2586ZM48.8421 35.602C49.058 35.0225 49.2946 34.4585 49.5518 33.8945L49.8089 33.8376L50.2666 34.355C50.066 34.769 49.8192 35.2553 49.5569 35.7831L49.1712 35.9331L48.8421 35.602ZM48.806 36.0624L48.6672 36.1039C48.6672 36.0573 48.6981 36.0107 48.7186 35.9641L48.806 36.0624ZM46.5021 32.332C47.0164 32.2595 47.5306 32.1715 47.9986 32.0525C47.7312 32.7252 47.4844 33.3978 47.2375 34.0808C46.929 33.8066 46.6255 33.5634 46.3221 33.284C46.3221 33.284 46.2964 33.284 46.281 33.284C46.353 32.9477 46.4301 32.6372 46.5124 32.3268L46.5021 32.332ZM46.2295 27.5252C46.0907 27.8409 45.9673 28.1669 45.8593 28.4877C45.6638 28.3687 45.4581 28.26 45.2575 28.1462L45.165 27.8098C45.0158 27.2924 45.3553 27.3338 45.849 27.1476L45.9415 27.1165C46.4918 27.1476 47.0369 27.1528 47.5769 27.1165C47.6541 27.2148 47.7364 27.3028 47.8135 27.4011C47.5204 27.9806 47.2272 28.5704 46.9547 29.1706H46.893C46.5947 28.943 46.2912 28.7257 45.9672 28.5239C46.065 28.1876 46.1678 27.8461 46.2964 27.4891C46.317 27.5098 46.2553 27.4839 46.2398 27.5201L46.2295 27.5252ZM61.1435 23.6396L61.2618 23.6913L61.1332 23.8465C60.9121 23.8465 60.6961 23.8983 60.4749 23.9345C60.6909 23.8362 60.9172 23.7379 61.1332 23.6344L61.1435 23.6396ZM61.1949 23.6137L61.4418 23.4895L61.2926 23.6602L61.1949 23.6137ZM62.352 24.3846L62.1617 24.2191L62.3109 24.1828C62.3525 24.1746 62.3894 24.1505 62.4138 24.1156L62.352 24.3846ZM62.352 24.4519C62.1574 25.1784 61.9134 25.8907 61.6218 26.5836C61.614 26.5515 61.5999 26.5212 61.5803 26.4947C61.5608 26.4681 61.5362 26.4457 61.5079 26.4289C61.4796 26.412 61.4483 26.401 61.4158 26.3965C61.3832 26.3919 61.3501 26.394 61.3183 26.4025L60.9532 26.5163L60.3155 25.9989C60.8812 25.7247 61.4315 25.435 61.9663 25.1194C62.0239 25.0802 62.0644 25.0204 62.0796 24.9521C62.0948 24.8839 62.0835 24.8124 62.0481 24.7522C62.0126 24.6921 61.9556 24.6478 61.8888 24.6286C61.822 24.6093 61.7504 24.6164 61.6886 24.6485C61.2361 24.9176 60.7681 25.1659 60.3001 25.3832C60.4646 25.109 60.6343 24.8658 60.8143 24.5709L62.1103 24.2553L62.352 24.4519ZM60.4646 28.9016L60.0635 29.0826C59.6463 28.7231 59.2655 28.3228 58.927 27.8875C58.9578 27.8306 58.9887 27.7685 59.0144 27.7116C59.7138 27.4425 60.4183 27.1942 61.1332 26.9924L61.3646 27.1734C61.0663 27.7581 60.7629 28.3324 60.4389 28.8964L60.4646 28.9016ZM82.491 40.1551C82.4293 40.2534 82.3676 40.3569 82.311 40.4604C81.9048 40.538 81.5036 40.6053 81.0973 40.6725C81.0973 40.6363 81.0973 40.5949 81.1385 40.5535C81.1523 40.4982 81.146 40.4397 81.1206 40.3887C81.0952 40.3377 81.0524 40.2975 81.0001 40.2756C80.9477 40.2536 80.8893 40.2513 80.8354 40.2691C80.7815 40.2869 80.7358 40.3236 80.7065 40.3724C80.6191 40.5018 80.5368 40.6363 80.4545 40.776C80.1562 40.8174 79.8631 40.8588 79.5648 40.8898C79.6419 40.6363 79.7036 40.3724 79.7602 40.1189C80.6448 40.1551 81.555 40.1655 82.4653 40.1499L82.491 40.1551ZM94.0776 38.7581C94.0468 38.8202 94.0159 38.8823 93.9799 38.9444L92.8948 39.2031C92.9359 39.0531 92.9719 38.8978 93.0131 38.7426C93.3525 38.7392 93.6988 38.7426 94.0519 38.753L94.0776 38.7581ZM93.7587 39.4049C93.7176 39.4825 93.6816 39.5653 93.6456 39.6429L92.7199 39.9275L92.7816 39.6584L93.7587 39.4049ZM79.4054 49.0803C79.5699 48.5629 79.7294 48.0455 79.8939 47.5281L81.0665 47.3678C80.9068 47.819 80.7931 48.2853 80.7271 48.7596C80.2642 48.8837 79.8219 48.982 79.3797 49.0752L79.4054 49.0803ZM74.2986 46.4209C74.4683 46.1467 74.638 45.8724 74.8129 45.6034C75.4815 45.6034 76.1449 45.562 76.8083 45.5051C76.6386 45.7948 76.4689 46.0846 76.294 46.3743C75.6049 46.4002 74.9415 46.4157 74.2729 46.4157L74.2986 46.4209ZM73.1981 47.4868C73.3061 47.3315 73.4089 47.1763 73.5118 47.0159H73.5735L73.3215 47.4764L73.1981 47.4868ZM72.9461 48.2266C72.7352 48.6405 72.5347 49.0597 72.3392 49.4788L71.6347 49.3908C72.0003 49.0274 72.3438 48.6421 72.6632 48.237L72.9461 48.2266ZM64.3474 47.0728C64.0646 47.0211 63.7817 46.9694 63.504 46.9073C63.9511 46.4467 64.362 45.952 64.7331 45.4275L65.7617 45.6966C65.3316 46.2039 64.8488 46.6635 64.3217 47.0676L64.3474 47.0728ZM50.3746 43.2026V43.1613H50.4106C50.3932 43.1782 50.3721 43.1906 50.3489 43.1975L50.3746 43.2026ZM50.3746 42.8353C50.5237 42.1834 50.6986 41.5366 50.8889 40.9002L51.11 41.1796C50.865 41.7064 50.6554 42.2492 50.4826 42.8042L50.3746 42.8353ZM51.0483 40.3052C51.1563 39.9585 51.2694 39.6119 51.3826 39.2704C51.5214 39.4515 51.6551 39.6377 51.794 39.824C51.6397 40.1034 51.4854 40.3931 51.3414 40.6777C51.2488 40.5432 51.1409 40.4242 51.038 40.3L51.0483 40.3052ZM48.41 27.0958C49.0992 27.0544 49.7832 26.9769 50.4671 26.8734C50.1483 27.4322 49.85 27.9961 49.5672 28.5704L49.0837 28.6791C48.7752 28.3531 48.4769 28.022 48.1838 27.6857C48.2506 27.4891 48.3226 27.2924 48.3998 27.0906L48.41 27.0958ZM47.8958 27.339L47.7158 27.1372H48.0038L47.8958 27.339ZM51.6243 26.6768C51.902 27.0648 52.19 27.4425 52.478 27.8254C52.4588 27.8571 52.4416 27.8899 52.4265 27.9237L49.9529 28.4877C50.1946 27.9341 50.4672 27.3856 50.7037 26.8371C50.9814 26.7854 51.2848 26.7285 51.5934 26.6716L51.6243 26.6768ZM56.2116 34.9552L56.155 34.8569C56.1036 34.7482 55.9596 34.8155 55.9596 34.9138L55.5893 34.6189C55.7128 34.4068 55.831 34.1946 55.9493 33.9825H56.0625C56.1021 33.9801 56.1399 33.9649 56.1703 33.9392C56.2007 33.9135 56.222 33.8787 56.2313 33.8398C56.2405 33.801 56.237 33.7602 56.2215 33.7234C56.2059 33.6867 56.179 33.656 56.1448 33.6358C56.3556 33.2478 56.5562 32.8597 56.7516 32.4613L56.8956 32.5545C56.9181 32.5723 56.9467 32.5804 56.9752 32.577C57.0036 32.5736 57.0296 32.559 57.0473 32.5363C57.065 32.5137 57.0731 32.4849 57.0697 32.4563C57.0663 32.4276 57.0518 32.4015 57.0293 32.3837L56.8699 32.2233C57.0584 31.8439 57.2436 31.461 57.4253 31.0747C57.883 30.847 58.3356 30.609 58.7778 30.3659L59.2921 30.7849C58.2944 32.213 57.2299 33.5686 56.1808 34.9501L56.2116 34.9552ZM64.0028 36.7816C64.3114 36.9437 64.62 37.099 64.9285 37.2473C64.728 37.4077 64.5377 37.5681 64.3525 37.7647C64.0594 37.6354 63.7714 37.5009 63.4834 37.3508C63.6366 37.1512 63.7996 36.9595 63.972 36.7764L64.0028 36.7816ZM70.2564 40.4397L71.0381 40.6415L70.9867 40.7657C70.5959 40.7139 70.2101 40.6363 69.8193 40.5535L69.9479 40.3569L70.2564 40.4397ZM72.6735 41.0088C72.6118 41.1744 72.5398 41.3348 72.473 41.5262L71.2644 41.428C71.3518 41.2158 71.4444 41.0036 71.5267 40.7915C71.8815 40.8484 72.2621 40.9312 72.6426 41.0088H72.6735ZM71.7478 40.212C71.8678 39.9119 71.981 39.6118 72.0873 39.3117L73.2135 39.4307C73.1107 39.7774 73.0027 40.1241 72.8792 40.4655C72.4678 40.3879 72.0924 40.3 71.717 40.2068L71.7478 40.212ZM75.6203 41.3969L75.4969 41.666H75.2603L74.0929 41.6039C74.1392 41.4849 74.1855 41.3658 74.2369 41.2468C74.6689 41.3037 75.1266 41.3555 75.5895 41.3917L75.6203 41.3969ZM74.4426 40.7605C74.6123 40.3673 74.7923 39.9844 74.9877 39.6119C75.4146 39.6843 75.8466 39.7464 76.2786 39.8033C76.1346 40.181 75.9906 40.5587 75.8363 40.9209C75.3375 40.8743 74.8746 40.8278 74.3912 40.7553L74.4426 40.7605ZM81.6424 45.831C81.2259 45.8931 80.8093 45.9552 80.3876 46.007C80.4699 45.7535 80.5522 45.4896 80.6396 45.2412H80.7528C81.1436 45.174 81.5396 45.0912 81.9304 45.0084C81.8224 45.2464 81.7247 45.531 81.591 45.8259L81.6424 45.831ZM63.8486 44.6307L64.0028 44.3875L64.6508 44.5686C64.5994 44.641 64.5583 44.7187 64.5069 44.7911L63.8486 44.6307ZM64.4554 43.6683L64.9697 42.8559L65.5868 43.1044L65.1188 43.8442L64.4554 43.6683ZM59.1841 43.5131C58.8413 43.4199 58.4984 43.3217 58.1556 43.2182C57.9961 43.1716 57.847 43.1147 57.6978 43.0577C57.9344 42.7163 58.1555 42.4058 58.2121 42.2816C58.2687 42.1575 58.3613 42.0437 58.4384 41.9195C58.8292 42.1627 59.2304 42.3955 59.6418 42.6128C59.5287 42.8301 59.4155 43.0526 59.3075 43.2751C59.2664 43.3372 59.2304 43.4148 59.1841 43.4976V43.5131ZM56.9059 42.6593C57.2372 42.3024 57.5447 41.9239 57.8264 41.5262L57.919 41.5883C57.6618 41.9919 57.4047 42.4058 57.1682 42.8146C57.0768 42.764 56.9892 42.707 56.9059 42.6439V42.6593ZM53.5271 40.1499L53.2802 39.8343C53.45 39.5342 53.6351 39.2393 53.7945 38.9444C53.8665 39.0531 53.9385 39.1565 54.0157 39.26C53.8386 39.5432 53.6756 39.8351 53.5271 40.1345V40.1499ZM51.6191 38.5408L52.1334 38.3546C52.2105 38.5046 52.2928 38.6598 52.3803 38.8099C52.2774 38.9806 52.1745 39.1462 52.0768 39.3273C51.9123 39.1048 51.7477 38.8875 51.5626 38.6702C51.5779 38.6206 51.5968 38.5721 51.6191 38.5253V38.5408ZM52.2825 38.2976L52.7968 38.0959L52.4574 38.6443L52.2825 38.2976ZM48.5438 31.9284L49.1146 31.7732C49.346 32.0681 49.5723 32.3682 49.7934 32.6683C49.6906 32.8545 49.5878 33.046 49.49 33.2374C49.1455 32.8908 48.7958 32.5441 48.4615 32.2026C48.4718 32.0991 48.5078 32.006 48.5438 31.9129V31.9284ZM54.0517 29.8587L54.6225 30.5366C54.3191 31.054 54.0208 31.5714 53.738 32.1405L52.9974 32.4613C52.6888 32.1923 52.3854 31.9439 52.082 31.6438C52.2723 31.2506 52.4677 30.8574 52.6631 30.4641C53.1311 30.2572 53.5939 30.0502 54.0517 29.8485V29.8587ZM52.9305 29.9364C53.0797 29.6363 53.234 29.331 53.3831 29.0257L53.7894 29.5431C53.5065 29.6621 53.2185 29.7915 52.9305 29.926V29.9364ZM56.875 27.3493C57.2659 27.22 57.6567 27.0855 58.0373 26.9406L58.3973 27.458C57.7544 27.7219 57.1116 28.0064 56.4739 28.3014L56.3916 28.2342L56.875 27.3493ZM56.1448 28.0116L55.7539 27.696L56.4842 27.4735L56.1448 28.0116ZM56.7567 25.4919L57.9756 25.2125L57.4201 26.0558C57.2137 25.8494 56.992 25.6591 56.7567 25.4867V25.4919ZM58.135 25.1763L58.927 24.9952C59.1738 25.2073 59.4412 25.4349 59.6572 25.6626C59.0247 25.942 58.387 26.18 57.7338 26.4284L57.5333 26.2059L58.135 25.1763ZM57.6567 26.4594L57.3224 26.5681C57.379 26.4698 57.4356 26.3715 57.4973 26.2732C57.5487 26.3249 57.6053 26.3818 57.6567 26.4491V26.4594ZM58.5053 27.903C58.2533 28.3738 57.991 28.8499 57.775 29.3259L56.8647 28.5963C57.4201 28.348 57.9344 28.1151 58.5053 27.8926V27.903ZM56.4019 28.3065L56.3144 28.3428L56.3607 28.2652L56.4019 28.3065ZM56.7773 28.6325L57.7081 29.4604C57.5384 29.7915 57.3739 30.1278 57.1939 30.4641L55.7436 31.1833L55.0956 30.5831C55.3733 30.0657 55.651 29.5484 55.939 28.9999L56.7773 28.6325ZM55.6047 33.6306C55.2397 33.6456 54.8766 33.6924 54.5196 33.7704L53.8202 33.1805L54.1288 32.5338C54.7048 32.3061 55.2808 32.0681 55.8465 31.8146C56.0059 31.9543 56.1705 32.0888 56.3607 32.213C56.1036 32.6786 55.8773 33.1495 55.6047 33.6203V33.6306ZM55.2088 34.3395L54.9053 34.086C55.0648 34.0549 55.2293 34.029 55.3939 34.0135L55.2088 34.3395ZM54.1802 33.848C53.9179 33.9152 53.6659 33.998 53.4037 34.0911C53.5014 33.8687 53.5991 33.6513 53.702 33.434L54.1802 33.848ZM54.4939 31.7784C54.6431 31.4834 54.7922 31.1885 54.9465 30.8936C55.0836 31.0522 55.2276 31.2075 55.3785 31.3592C55.0854 31.4989 54.7922 31.6438 54.4939 31.7784ZM56.2425 31.6231L56.7567 31.38L56.5099 31.8974L56.2425 31.6231ZM54.7819 30.252C54.6173 30.0916 54.4528 29.9364 54.2676 29.7708C54.6379 29.6104 55.0031 29.4449 55.3682 29.2534L54.7819 30.252ZM52.7248 32.5596C52.2774 32.7459 51.8248 32.927 51.3671 33.0771C51.5625 32.658 51.7631 32.2492 51.9637 31.8353C52.226 32.0888 52.478 32.3268 52.7351 32.5596H52.7248ZM51.758 31.3437C51.6243 31.2247 51.4905 31.1057 51.362 30.9815C51.6088 30.8884 51.8763 30.785 52.1025 30.6866C51.9945 30.904 51.8814 31.1264 51.7631 31.3437H51.758ZM49.7009 29.0465C50.4877 28.9068 51.2746 28.7567 52.0666 28.5963C51.7117 29.2638 51.3466 29.9208 50.9712 30.5779C50.5135 30.1382 50.0609 29.688 49.6238 29.2327L49.7009 29.0465ZM50.8683 30.759L50.8168 30.8522C50.3026 31.0643 49.7883 31.2609 49.274 31.4369C49.1506 31.2972 49.022 31.1626 48.8986 31.0281C49.1095 30.4745 49.3357 29.9312 49.562 29.388C49.9683 29.8536 50.4054 30.3089 50.8529 30.759H50.8683ZM48.9603 31.5403L48.6672 31.6335C48.7032 31.5248 48.7443 31.4213 48.7855 31.3179L48.9603 31.5403ZM49.4746 31.6594C49.85 31.5455 50.2203 31.4161 50.5906 31.2868C50.3951 31.6283 50.2049 31.9698 50.0146 32.3216L49.4746 31.6594ZM50.9249 31.142L51.1923 31.0436C51.3569 31.2092 51.5266 31.3696 51.7066 31.53C51.4083 32.1095 51.1203 32.689 50.8323 33.2737H50.8066C50.6574 33.0874 50.5083 32.9011 50.3643 32.7097L50.2306 32.5441C50.4106 32.1043 50.6523 31.6335 50.8889 31.1782L50.9249 31.142ZM51.218 33.4806C51.866 33.2995 52.5088 33.1029 53.1465 32.8753L53.3008 33.015C53.0745 33.4651 52.8534 33.9152 52.6374 34.3706L51.9586 34.6758C51.6757 34.355 51.398 34.0239 51.1203 33.6824C51.1203 33.6358 51.1511 33.5686 51.182 33.5013L51.218 33.4806ZM52.4214 34.8259L52.3134 35.0794L52.1745 34.9293L52.4214 34.8259ZM53.2339 34.5154C53.6745 34.3561 54.1245 34.2248 54.5813 34.1222L55.0956 34.5568C54.7716 35.0742 54.4219 35.6485 54.0671 36.2021C54.0105 36.1245 53.9488 36.0521 53.8974 35.9745C53.846 35.8969 53.7688 35.9745 53.8048 36.0262C53.8408 36.078 53.9282 36.2228 53.9899 36.3211L53.7739 36.6523C53.4345 36.3004 53.1002 35.9486 52.7454 35.5865C52.8894 35.2415 53.0402 34.8914 53.1979 34.5361L53.2339 34.5154ZM56.4842 35.9228L55.9133 36.6678C55.7128 36.6678 55.5122 36.7248 55.3167 36.7662C55.6253 36.3367 55.939 35.9176 56.2527 35.4933C56.2887 35.6537 56.3916 35.7934 56.4482 35.9434L56.4842 35.9228ZM57.4098 37.3818C57.1064 37.8992 56.8082 38.3701 56.5202 38.872L56.4687 38.8254C56.623 38.5719 56.767 38.308 56.9059 38.1114C57.0447 37.9148 57.2299 37.594 57.3893 37.3456C57.3818 37.3584 57.3766 37.3724 57.3738 37.387L57.4098 37.3818ZM57.5436 37.0921C57.6258 36.9576 57.7081 36.8231 57.7853 36.6885L57.8264 36.7195L57.5693 37.1231L57.5436 37.0921ZM65.772 38.2925C65.3965 38.1476 64.9697 37.982 64.5274 37.7751C64.6886 37.5957 64.86 37.4232 65.0417 37.2577C65.4017 37.4284 65.7617 37.5888 66.1217 37.7337C65.9674 37.951 65.8594 38.1321 65.7462 38.3132L65.772 38.2925ZM65.3862 38.903C65.3862 38.9341 65.3503 38.9651 65.3297 38.991C64.98 38.8409 64.6354 38.6805 64.3011 38.5253L64.0286 38.4011L64.0954 38.3184C64.476 38.5512 64.9131 38.7478 65.3605 38.9392L65.3862 38.903ZM65.0262 39.4566C65.0262 39.4877 64.9903 39.5187 64.9697 39.5446C64.5274 39.3325 64.0903 39.11 63.6531 38.8875L63.7251 38.7892C64.1057 39.0323 64.5531 39.2548 65.0005 39.4566H65.0262ZM70.7399 41.3296L70.169 41.2779L69.4233 41.1278L69.485 41.0244C69.9325 41.0919 70.3855 41.1162 70.8376 41.0968C70.7913 41.1951 70.745 41.2727 70.7141 41.3503L70.7399 41.3296ZM59.9401 38.7426L59.9144 38.7788H59.8629L59.8989 38.7271L59.9401 38.7426ZM73.1312 43.0164C72.9564 43.4355 72.7815 43.8597 72.6169 44.284L71.8095 44.134C72.0204 43.7356 72.2158 43.332 72.3907 42.918L73.1312 43.0164ZM72.6169 42.3282L72.6941 42.1213L73.4809 42.173L73.3729 42.4265L72.6169 42.3282ZM73.5221 43.0577L74.7306 43.1767C74.494 43.6217 74.2523 44.0615 73.9952 44.4961L73.0386 44.3564C73.1826 43.9529 73.3627 43.5183 73.5015 43.0785L73.5221 43.0577ZM75.4146 43.2337L75.7643 43.2595C75.4866 43.6993 75.2089 44.1443 74.9415 44.5893H74.8335C75.0186 44.1599 75.214 43.7097 75.4197 43.2595L75.4146 43.2337ZM79.6934 42.3024L79.4619 42.8715H78.8294C78.9065 42.6904 78.9837 42.5145 79.0557 42.3541L79.6934 42.3024ZM82.3984 42.8198L81.4779 42.8457L81.7402 42.2196L82.5424 42.1834C82.4704 42.4421 82.419 42.6542 82.3779 42.8663L82.3984 42.8198ZM81.0613 42.8559H80.2385C80.3259 42.6593 80.4133 42.4576 80.4956 42.261C80.7785 42.261 81.0613 42.261 81.339 42.2299C81.2259 42.4886 81.1282 42.6956 81.0408 42.9026L81.0613 42.8559ZM78.2071 42.8094H77.842C77.446 42.8094 77.0449 42.768 76.6489 42.737L76.9523 42.2972C77.4665 42.2972 77.9397 42.2972 78.4334 42.2972C78.3408 42.5145 78.2688 42.6852 78.1865 42.8559L78.2071 42.8094ZM77.4048 43.3268C77.5848 43.3268 77.7648 43.3268 77.9191 43.3268C77.7391 43.689 77.554 44.0409 77.3586 44.3927C76.9626 44.4393 76.5614 44.4806 76.1551 44.5065L75.4197 44.6307C75.7026 44.1961 75.9906 43.7614 76.2786 43.3268H77.4048ZM78.5774 43.3631C78.7985 43.3631 79.0248 43.3631 79.2459 43.3631C79.1379 43.6373 79.0299 43.8804 78.9219 44.1598C78.6442 44.2116 78.3717 44.2581 78.094 44.2995C78.238 44.0667 78.4025 43.7511 78.5568 43.4303L78.5774 43.3631ZM79.9916 43.3631C80.2694 43.3631 80.5522 43.3631 80.8299 43.3631L80.6448 43.8184C80.3208 43.896 79.9916 43.9632 79.6677 44.0305L79.9916 43.3631ZM81.2825 43.332C81.6168 43.332 81.9562 43.3061 82.311 43.2803C82.305 43.3221 82.2964 43.3636 82.2853 43.4044C81.9099 43.5027 81.5396 43.6011 81.1642 43.689C81.1642 43.6476 81.2156 43.5286 81.2619 43.4096L81.2825 43.332ZM83.1442 42.7473C83.1904 42.5352 83.2418 42.323 83.283 42.1057L83.6944 42.0747C83.6533 42.292 83.607 42.5042 83.5659 42.7215L83.1442 42.7473ZM83.427 41.4642L83.4836 41.252L83.8796 41.1951C83.8796 41.2727 83.8487 41.3555 83.8281 41.4331L83.427 41.4642ZM82.707 41.5159L82.0127 41.5624C82.0321 41.522 82.0492 41.4805 82.0642 41.4383L82.7584 41.3503C82.7224 41.4849 82.7019 41.5262 82.6864 41.5935L82.707 41.5159ZM81.6476 41.5832H81.4882H80.7425L81.6939 41.459L81.6476 41.5832ZM76.3917 42.2351C76.2992 42.3748 76.2117 42.5145 76.1243 42.6542L75.61 42.6128L75.754 42.2196L76.3917 42.2351ZM75.0186 42.5559C74.5917 42.5197 74.1649 42.4731 73.7381 42.4213L73.8461 42.1316L75.2038 42.1989L75.0186 42.5559ZM72.1901 42.0385L72.113 42.2092C71.7221 42.1523 71.3364 42.0902 70.9507 42.0229C70.9623 41.991 70.976 41.9599 70.9918 41.9298L71.753 41.9971L72.1901 42.0385ZM70.4519 41.9298L69.8913 41.8263L70.4724 41.8832C70.4465 41.9155 70.432 41.9556 70.4313 41.9971L70.4519 41.9298ZM65.7257 40.7088H65.556C65.3143 40.626 65.0725 40.5484 64.836 40.4552L64.9028 40.3414C65.1908 40.4552 65.4737 40.569 65.7668 40.6725L65.7257 40.7088ZM62.2543 40.1914H62.1566C61.9715 40.1603 61.7863 40.1292 61.6012 40.0878L61.7092 39.8912L62.28 40.1758L62.2543 40.1914ZM61.1898 39.9016C61.1757 39.931 61.1584 39.9588 61.1383 39.9844L60.5726 39.8654C60.3875 39.7412 60.2075 39.6119 60.0275 39.4825L60.1715 39.2807C60.3424 39.299 60.5148 39.299 60.6858 39.2807C60.8966 39.4256 61.1178 39.5601 61.3441 39.6894C61.2669 39.8084 61.2206 39.8861 61.1692 39.974L61.1898 39.9016ZM58.963 39.0789L58.999 39.1151L58.7213 39.498L58.963 39.0789ZM56.803 39.6894C56.9984 39.8757 57.1939 40.0568 57.3944 40.2327L57.271 40.3983C56.911 40.2327 56.551 40.0878 56.1808 39.9585L56.5099 39.4049L56.803 39.6894ZM58.6081 40.4035L58.7161 40.2689H58.7675C58.6184 40.4811 58.4693 40.6933 58.3304 40.9054L58.2584 40.8743C58.3664 40.7553 58.4847 40.5897 58.5876 40.4604L58.6081 40.4035ZM59.2304 39.5912L59.3487 39.4307L59.2407 39.5756L59.2304 39.5912ZM62.388 40.8381H62.4857L63.936 41.0554L63.6171 41.5728C63.1852 41.3658 62.7532 41.1589 62.3366 40.9312L62.388 40.8381ZM64.404 41.1434L65.0725 41.2416L65.3091 41.3193C65.1343 41.5728 64.9646 41.8367 64.7948 42.0747C64.548 41.9764 64.2806 41.8729 64.0543 41.7591C64.1417 41.609 64.2651 41.4021 64.3834 41.2003L64.404 41.1434ZM65.8183 41.4797L66.3325 41.6452L66.4508 41.6763C66.2759 41.9557 66.0908 42.2299 65.9365 42.5093L65.304 42.2713L65.8183 41.4797ZM67.0936 41.8522L68.0193 42.0954C67.8445 42.411 67.6645 42.7266 67.5051 43.0371C67.1862 42.9388 66.8674 42.8353 66.5537 42.7266C66.7028 42.4938 66.8879 42.1989 67.0731 41.9091L67.0936 41.8522ZM68.729 42.261C69.2073 42.3645 69.6856 42.4627 70.169 42.5507C69.9941 42.9129 69.8141 43.275 69.6239 43.6321C69.1096 43.5079 68.6467 43.3838 68.153 43.2389C68.3279 42.9698 68.5182 42.6439 68.7342 42.3179L68.729 42.261ZM70.6679 42.6387L71.8198 42.8198C71.6193 43.213 71.4033 43.601 71.1821 43.9839C70.8221 43.9115 70.457 43.8287 70.0919 43.7459C70.277 43.4407 70.4621 43.0785 70.6473 42.6956L70.6679 42.6387ZM84.3475 42.0385C84.9081 41.9919 85.4635 41.9298 86.0241 41.8574C85.9675 42.0799 85.9058 42.2972 85.8492 42.5145C85.335 42.5869 84.7693 42.6438 84.2293 42.6904C84.2498 42.53 84.291 42.3127 84.327 42.0954L84.3475 42.0385ZM84.4453 41.3969C84.4453 41.3089 84.4453 41.221 84.4453 41.1382L86.2658 40.864C86.2401 40.9726 86.2092 41.0864 86.1784 41.1951C85.5972 41.3296 85.011 41.3969 84.4247 41.4538L84.4453 41.3969ZM85.9367 40.4242C86.1064 40.3828 86.2761 40.3466 86.4509 40.3V40.3465L85.9367 40.4242ZM68.6879 40.9416L68.2045 40.8174L67.8239 40.6984C67.8405 40.6779 67.8544 40.6553 67.8651 40.6311C68.153 40.7243 68.441 40.8019 68.729 40.8691C68.7125 40.9059 68.6918 40.9407 68.6673 40.9727L68.6879 40.9416ZM67.2171 40.4966C67.0114 40.4242 66.8056 40.3466 66.5999 40.2638L66.6462 40.1862C66.8519 40.269 67.0576 40.3517 67.2634 40.4242L67.2171 40.4966ZM66.1885 40.0827C65.9005 39.9637 65.6177 39.8343 65.3297 39.6998C65.3514 39.6725 65.3704 39.643 65.3862 39.6119C65.6691 39.7464 65.952 39.8809 66.24 40.0051L66.1885 40.0827ZM64.548 40.2017L64.4811 40.3104C64.0183 40.1241 63.5606 39.9223 63.1132 39.705L63.1903 39.5808C63.6086 39.8257 64.0457 40.043 64.5017 40.2327L64.548 40.2017ZM62.7635 39.5343L62.4498 39.3842C62.3418 39.3273 62.244 39.2652 62.1412 39.2031L62.2183 39.0789C62.424 39.1928 62.64 39.2963 62.8509 39.4101C62.7737 39.4566 62.748 39.5239 62.7172 39.5653L62.7635 39.5343ZM61.8223 39.0168C61.4983 38.7995 61.1949 38.5667 60.8966 38.3235C61.2206 38.5357 61.5498 38.7322 61.884 38.9237L61.8223 39.0168ZM59.5698 38.3907L59.5184 38.4632L59.4155 38.6081L59.3178 38.5615L59.4721 38.2925L59.5698 38.3907ZM58.1761 38.2563C58.1821 38.2805 58.1926 38.3033 58.207 38.3235C58.3253 38.4529 58.4487 38.5771 58.5721 38.7012C58.4075 38.9496 58.243 39.2186 58.0578 39.4359C57.7165 39.3929 57.3732 39.3671 57.0293 39.3584L56.7824 39.1099C57.0756 38.6288 57.3739 38.1579 57.6721 37.6819C57.8139 37.8884 57.9667 38.087 58.1298 38.2769L58.1761 38.2563ZM56.803 37.4491C56.587 37.7854 56.3453 38.1166 56.0933 38.4477L55.6253 37.982C55.8156 37.713 56.011 37.4646 56.2013 37.1956L56.5202 37.1645C56.5782 37.1571 56.6323 37.1311 56.6745 37.0904C56.7167 37.0497 56.7448 36.9964 56.7546 36.9384C56.7644 36.8805 56.7554 36.8208 56.7289 36.7684C56.7024 36.7159 56.6599 36.6734 56.6076 36.6471C56.6642 36.5747 56.7156 36.4971 56.7722 36.4195C56.8802 36.6006 56.9933 36.7816 57.1167 36.9369C56.9624 37.1335 56.8596 37.3042 56.7567 37.4698L56.803 37.4491ZM54.2316 38.9651C54.1751 38.8358 54.1134 38.7115 54.0465 38.5874C54.1545 38.4218 54.2625 38.251 54.3756 38.07L54.6945 38.2976C54.5248 38.5357 54.3654 38.7581 54.2111 38.9858L54.2316 38.9651ZM54.6996 37.6095L54.7871 37.4853C54.8745 37.5991 54.9568 37.713 55.0493 37.8216L54.9928 37.8992L54.6996 37.6095ZM54.1237 37.03L54.2728 36.7816L54.4168 36.9834L54.1545 37.061L54.1237 37.03ZM55.0236 37.3818L55.4299 37.299L55.2139 37.5888C55.1316 37.5422 55.0648 37.475 55.003 37.387L55.0236 37.3818ZM54.7356 36.8644L54.6173 36.9007C54.5351 36.8024 54.4476 36.704 54.3654 36.6005C54.7253 36.0107 55.0802 35.4209 55.4299 34.8207L55.9442 35.2346C55.5173 35.8348 55.111 36.3522 54.7151 36.911L54.7356 36.8644ZM53.8974 37.6716L54.0722 37.8216C53.9899 37.9406 53.9077 38.0545 53.8305 38.1787C53.7637 38.0648 53.6916 37.951 53.6196 37.8423L53.6814 37.7389L53.8974 37.6716ZM53.3831 38.2407L53.5888 38.5356C53.3985 38.8306 53.2185 39.1255 53.0385 39.4256C52.9768 39.3376 52.9203 39.2445 52.8637 39.1566C53.018 38.8927 53.1877 38.5874 53.3677 38.2873L53.3831 38.2407ZM55.1573 38.5719C55.2808 38.6391 55.4093 38.7064 55.5379 38.7633C55.6665 38.8202 55.8053 38.6702 55.6922 38.5615L55.3785 38.2563C55.3785 38.2563 55.3785 38.2562 55.3785 38.2252L55.8105 38.7116C55.4299 39.1928 55.0391 39.6688 54.6688 40.1603L54.4014 39.7464C54.6276 39.3894 54.8796 39.0013 55.1419 38.6184L55.1573 38.5719ZM56.2425 39.1462L56.299 39.2031C55.9596 39.8085 55.6253 40.419 55.3065 41.0347L55.1265 40.7967C55.5292 40.2879 55.897 39.752 56.227 39.1927L56.2425 39.1462ZM56.1139 40.1241C56.3865 40.3673 56.6693 40.6001 56.9676 40.8278C56.6744 41.2003 56.371 41.5573 56.0625 41.9143C55.8465 41.697 55.6459 41.4694 55.4505 41.2314L56.1139 40.1241ZM58.8601 41.2106L59.4001 40.4086C59.8475 40.4862 60.2949 40.5483 60.7424 40.6104C60.4955 41.014 60.2641 41.4228 60.0378 41.8367L58.8601 41.2106ZM60.9172 41.3089C60.9995 41.1589 61.0869 40.9985 61.1692 40.8381C61.3235 40.9416 61.4829 41.0347 61.6423 41.133C61.4058 41.5228 61.1795 41.916 60.9635 42.3127L60.5315 42.1057C60.6549 41.8729 60.7835 41.6039 60.9172 41.3555V41.3089ZM62.0641 41.3865C62.4652 41.6194 62.8817 41.8367 63.3034 42.0488C63.1594 42.2765 63.0206 42.5093 62.8817 42.7473L62.7172 43.0474L62.1 42.8198C61.884 42.7335 61.6681 42.6404 61.4521 42.5403L62.0641 41.3865ZM63.756 42.2713L64.4349 42.5766L64.0851 43.094C64.0337 43.1716 63.9463 43.2854 63.8383 43.4251L63.288 43.2492C63.432 42.9594 63.5914 42.6335 63.756 42.3179V42.2713ZM66.1628 43.2544C66.4919 43.3734 66.8159 43.4872 67.1451 43.5959L66.8159 44.1133C66.4457 44.0512 66.0805 43.9787 65.7205 43.9011L66.1628 43.2544ZM67.8085 43.7718C68.297 43.9218 68.7907 44.0667 69.2793 44.1961L69.1713 44.3823L68.117 44.284L67.5359 44.2115L67.8085 43.7718ZM69.737 44.2892L70.4004 44.4548L69.6702 44.3979C69.7012 44.3939 69.7321 44.3887 69.7627 44.3823L69.737 44.2892ZM83.3601 43.6114V43.6993L83.1442 43.7459L83.3601 43.6114ZM84.111 43.1405V43.1095C84.6253 43.0526 85.1652 42.9854 85.6949 42.9129L85.6178 43.2026L84.0081 43.5441C84.0544 43.5027 84.0801 43.3682 84.111 43.2337V43.1405ZM86.3841 42.8042C86.8212 42.737 87.2532 42.6697 87.6903 42.5921C87.6684 42.6515 87.6495 42.7119 87.6338 42.7732L86.3275 43.0577C86.3481 43.0784 86.3686 42.9853 86.3841 42.8974V42.8042ZM88.1377 42.5042C88.652 42.411 89.1663 42.3076 89.6549 42.1989L89.624 42.3179L88.0812 42.6697L88.1377 42.5042ZM90.236 42.0695L90.7091 41.966C91.0228 41.8884 91.3365 41.8056 91.6451 41.7125C91.6308 41.7479 91.6188 41.7842 91.6091 41.8211C91.1462 41.9453 90.6783 42.0592 90.2154 42.1782C90.2224 42.1731 90.2292 42.1679 90.236 42.1626V42.0695ZM92.2931 41.5055L92.9154 41.2779C92.9154 41.34 92.8691 41.4073 92.8434 41.4745L92.2622 41.6401L92.2931 41.5055ZM99.4312 38.5667C99.1381 38.7581 98.8398 38.9444 98.5415 39.1307C98.6134 38.8267 98.67 38.5193 98.7112 38.2097C99.0301 38.0131 99.3438 37.8113 99.6575 37.6095C99.5906 37.9096 99.5186 38.2045 99.4466 38.4994L99.4312 38.5667ZM97.9552 39.4877L97.1067 40.0051L97.0141 40.0413L96.9421 40.0723C97.0141 39.7722 97.0913 39.4721 97.1633 39.172C97.5284 38.9547 97.8884 38.7323 98.2535 38.5046C98.1661 38.9392 98.0478 39.2548 97.9552 39.5808V39.4877ZM96.5153 40.1603C96.541 39.943 96.5616 39.7205 96.5821 39.498L96.7518 39.3997C96.6747 39.7464 96.5924 39.9999 96.505 40.2535L96.5153 40.1603ZM95.3067 40.6777C94.6896 40.895 94.0673 41.102 93.4399 41.2934L93.5531 41.014C94.1908 40.745 94.813 40.4501 95.4301 40.1241C95.3941 40.4087 95.353 40.5949 95.3067 40.776V40.6777ZM92.5297 42.3437C92.5297 42.3437 92.5297 42.3903 92.5297 42.411L92.0154 42.6387C92.0154 42.5869 92.0154 42.53 92.0565 42.4783L92.5297 42.3437ZM100.043 38.1735C100.11 37.863 100.172 37.5577 100.228 37.2421L100.825 36.8644C100.748 37.1852 100.665 37.5008 100.583 37.8164L100.043 38.1735ZM95.533 39.5187C94.9776 39.7929 94.4222 40.0361 93.8565 40.3052C93.8976 40.212 93.9336 40.1241 93.9748 40.0361C94.489 39.855 95.0033 39.6636 95.5176 39.4618L95.533 39.5187ZM93.1776 40.5897C92.9359 40.6932 92.6891 40.7864 92.4422 40.8847L92.5348 40.4914L93.3113 40.2535C93.265 40.4915 93.2239 40.5794 93.1776 40.6881V40.5897ZM91.8508 41.1071L91.2388 41.3141L90.3491 41.5832C90.3903 41.4021 90.4314 41.221 90.4777 41.0658C90.992 40.9467 91.5063 40.8174 92.0205 40.6777C91.9485 40.895 91.8765 41.0451 91.8765 41.1951L91.8508 41.1071ZM89.7937 41.7332C89.2794 41.8626 88.7652 41.9815 88.2509 42.085L88.4052 41.4642C88.9194 41.371 89.4337 41.2727 89.948 41.1589L89.7937 41.7332ZM87.8292 42.173C87.3818 42.2558 86.9343 42.3334 86.4818 42.4006C86.5229 42.1833 86.5589 41.9712 86.5898 41.7539C87.068 41.6866 87.5515 41.6142 88.0298 41.5366L87.8292 42.173ZM86.6669 41.0968C86.6669 40.9882 86.6669 40.8795 86.6669 40.7709C87.2223 40.6829 87.7726 40.5897 88.3229 40.4914L88.2149 40.8536C87.7058 41.0088 87.1812 41.1123 86.6566 41.1847L86.6669 41.0968ZM86.7081 40.2741V40.2017C87.3355 40.0361 87.968 39.8653 88.5954 39.6843L88.5029 39.9896C87.896 40.1707 87.2995 40.269 86.6978 40.3621L86.7081 40.2741ZM77.4768 41.5262L77.518 41.4642H78.0323L77.4768 41.5262ZM76.8597 41.5728C76.5666 41.5728 76.2734 41.6142 75.9854 41.6245L76.0471 41.4176L76.9369 41.4538L76.8597 41.5728ZM73.7278 41.5728L72.8895 41.5159C72.9409 41.3658 72.9872 41.2106 73.0335 41.0606L73.9026 41.1951C73.8461 41.3348 73.7844 41.459 73.7278 41.5832V41.5728ZM69.0376 40.3517C68.7496 40.2741 68.4616 40.1913 68.1788 40.0982L68.3022 39.8912L69.1713 40.1345C69.125 40.2172 69.0788 40.2896 69.0376 40.3621V40.3517ZM67.5822 39.9016L66.9342 39.6688L67.0216 39.5084C67.2531 39.5808 67.4793 39.6532 67.7005 39.7153L67.5822 39.9016ZM66.5537 39.5084L65.664 39.1462L65.7205 39.0479C66.0291 39.1617 66.3325 39.2703 66.6411 39.3738C66.5845 39.4566 66.5588 39.4566 66.528 39.5187L66.5537 39.5084ZM66.0805 38.4218C66.1834 38.2356 66.2811 38.0545 66.3788 37.863C66.6976 37.9872 67.0114 38.101 67.3302 38.2045L67.0114 38.7685L66.0805 38.4218ZM63.8589 38.2097L63.7714 38.2976L62.9794 37.9303L63.1029 37.7647C63.3189 37.9303 63.5914 38.0803 63.8331 38.22L63.8589 38.2097ZM63.2212 38.5356L63.4577 38.6546C63.4269 38.6908 63.4012 38.7167 63.3754 38.753L62.6606 38.3804C62.6606 38.3442 62.7069 38.308 62.7326 38.2718L63.2212 38.5356ZM62.352 38.22C62.0126 38.0441 61.6681 37.8734 61.3235 37.7026L61.4315 37.5577C61.7709 37.7543 62.1103 37.9407 62.46 38.1166L62.352 38.22ZM60.9429 37.5215L60.8092 37.4595L60.9481 37.268L61.0869 37.3559L60.9429 37.5215ZM60.3567 37.2525L60.0687 37.1335C60.1252 37.0197 60.1818 36.911 60.2332 36.7972L60.5315 37.0041L60.3567 37.2525ZM59.6264 36.9472L59.1995 36.7816C59.1811 36.776 59.1615 36.7748 59.1425 36.7781C59.1235 36.7814 59.1055 36.7891 59.09 36.8007C59.0745 36.8123 59.0619 36.8274 59.0532 36.8447C59.0446 36.8621 59.0401 36.8813 59.0401 36.9007L58.8138 36.7454C58.6441 36.642 58.5001 36.8386 58.567 36.9938C58.6983 37.3089 58.8713 37.6048 59.0812 37.8733C58.9938 38.0182 58.9013 38.1683 58.8087 38.308C58.5205 38.1263 58.2546 37.911 58.0167 37.6664C57.9395 37.5888 57.8778 37.5008 57.8058 37.4232L58.1093 36.9576L58.2019 37.03C58.351 37.1439 58.4898 36.8903 58.3458 36.7764L58.2636 36.7144C58.4898 36.3832 58.7161 36.0521 58.9475 35.7262C59.2299 36.0132 59.5324 36.2795 59.8527 36.5229C59.7601 36.673 59.6829 36.8179 59.6007 36.9576L59.6264 36.9472ZM57.9704 36.4867L57.919 36.4454C58.1401 36.0573 58.3561 35.6641 58.5516 35.2605L58.6904 35.4312C58.4178 35.7882 58.1761 36.1401 57.9344 36.4971L57.9704 36.4867ZM57.5693 36.1763L57.1579 35.8503C57.4716 35.4105 57.775 34.9656 58.0733 34.5051C58.14 34.64 58.2138 34.7712 58.2944 34.8983C58.0373 35.3174 57.7956 35.7676 57.5436 36.1867L57.5693 36.1763ZM57.4201 36.4246C57.3636 36.5178 57.307 36.616 57.2453 36.7092C57.1321 36.5436 57.0139 36.3729 56.911 36.1918C56.911 36.1607 56.9573 36.1245 56.983 36.0883L57.4201 36.4246ZM57.8521 30.1382C57.9139 29.9985 57.9807 29.8588 58.0475 29.7191L58.2841 29.9208L57.8521 30.1382ZM58.1195 29.5639C58.3613 29.0465 58.6338 28.529 58.8601 28.0116C59.167 28.4256 59.5113 28.8101 59.8887 29.1603C59.4155 29.3827 58.9424 29.6104 58.4693 29.8485L58.1195 29.5639ZM58.531 27.3649L58.1556 26.8837C58.567 26.7284 58.9732 26.5629 59.3744 26.3663C59.2098 26.6405 59.0504 26.9199 58.891 27.1993L58.531 27.3649ZM59.8012 26.2059L60.1149 26.061L60.6807 26.5784C60.2332 26.7233 59.7858 26.8733 59.3487 27.0389C59.4772 26.775 59.6212 26.4905 59.7755 26.2163L59.8012 26.2059ZM59.8424 25.5643C59.5904 25.3522 59.3281 25.1452 59.0658 24.9486L60.5572 24.5968C60.3309 24.9021 60.1201 25.2176 59.9144 25.5333L59.8424 25.5643ZM56.7259 25.4867C56.9627 25.6741 57.1846 25.8799 57.3893 26.1024L57.0241 26.656C56.4173 26.8578 55.8105 27.0389 55.1933 27.2096L54.5556 26.6922C54.6842 26.4284 54.8128 26.1749 54.9362 25.8903L56.7259 25.4867ZM55.1831 27.22L54.1956 27.4839L54.5659 26.7285C54.7254 26.8992 54.9311 27.0389 55.1368 27.2304L55.1831 27.22ZM55.7539 27.6857L56.1602 28.0375L55.8208 28.5549L54.0311 29.4034L53.5168 28.8291L53.8408 28.1772C54.4373 28.0737 55.075 27.8823 55.7076 27.696L55.7539 27.6857ZM53.2802 28.5911L53.09 28.3686L53.4448 28.2911L53.2802 28.5911ZM53.2082 28.7257C52.946 29.2068 52.694 29.6829 52.4265 30.1641C52.0048 30.3555 51.5831 30.5417 51.1563 30.7177C51.5266 29.9985 51.8917 29.2793 52.2363 28.5549L52.946 28.4049L53.2082 28.7257ZM48.9706 28.7257L47.6952 29.0309C47.8598 28.6222 48.0192 28.2134 48.1786 27.7995C48.3946 28.0737 48.6775 28.4049 48.9243 28.7101L48.9706 28.7257ZM49.3358 29.1293C49.0838 29.6467 48.8215 30.1641 48.6158 30.6815C48.2506 30.3028 47.8661 29.9436 47.4638 29.6052C47.4895 29.5328 47.5204 29.4656 47.5461 29.3931C48.0912 29.3103 48.6775 29.2172 49.2895 29.1085L49.3358 29.1293ZM47.4072 29.776C47.7929 30.1485 48.1581 30.5469 48.5078 30.9556C48.3843 31.2402 48.2712 31.53 48.1581 31.8146H48.0809C47.7312 31.4886 47.3712 31.1678 47.0061 30.8625C47.0884 30.4952 47.2221 30.1434 47.3609 29.7605L47.4072 29.776ZM46.4764 30.4382C46.2244 30.2365 45.9621 30.0399 45.7101 29.8433L45.741 29.6932L46.8621 29.5225C46.7009 29.8157 46.557 30.1158 46.4301 30.4228L46.4764 30.4382ZM49.4489 33.403L49.2586 33.7755C48.7855 33.8945 48.3072 33.998 47.8238 34.0808C48.0192 33.5013 48.2198 32.9218 48.4306 32.3475C48.7461 32.6855 49.07 33.0322 49.4026 33.3875L49.4489 33.403ZM49.7934 33.5013C49.8809 33.315 49.9632 33.134 50.0506 32.9529L50.4157 33.4703L49.9015 33.6203L49.7934 33.5013ZM50.5906 33.6824L50.6266 33.7341L50.426 34.1584L50.0814 33.8014L50.5906 33.6824ZM50.7449 34.4999L50.9249 34.1377L51.506 34.9293L51.2694 35.0432L50.7449 34.4999ZM51.0072 35.1673L50.2512 35.5192L50.6317 34.7275C50.7346 34.8621 50.8374 35.0018 50.9609 35.1519L51.0072 35.1673ZM51.686 35.1673L52.0717 35.6847C52.0717 35.7365 52.0254 35.7882 52.0048 35.8348C51.83 35.6434 51.6551 35.4519 51.4905 35.2657L51.686 35.1673ZM52.5242 36.2436C52.8071 36.5954 53.1054 36.9317 53.414 37.2473L53.3214 37.387C53.0591 37.03 52.8071 36.6885 52.4934 36.3522C52.4862 36.3128 52.4811 36.2731 52.478 36.2332L52.5242 36.2436ZM52.8739 37.5577L52.0871 37.8682L51.974 37.6561C52.082 37.3715 52.1951 37.0817 52.3083 36.792C52.4523 37.0352 52.6425 37.2887 52.8277 37.5474L52.8739 37.5577ZM51.9174 37.832C51.929 37.8606 51.9428 37.8883 51.9586 37.9148L51.8711 37.951L51.9174 37.832ZM50.5854 39.7102C50.3952 39.4877 50.21 39.2703 50.0146 39.053C50.3026 38.9806 50.5854 38.8978 50.8683 38.8047C50.7346 39.0944 50.6317 39.3945 50.5392 39.6998L50.5854 39.7102ZM52.2671 40.3983L52.4265 40.6156C52.2774 40.9054 52.1334 41.2003 51.9946 41.4952L51.8454 41.2883C51.9328 40.9778 52.0717 40.6829 52.2208 40.388L52.2671 40.3983ZM52.5345 39.8809C52.6117 39.7257 52.6939 39.5705 52.7762 39.4204L52.946 39.6894C52.8585 39.8343 52.7814 39.9792 52.6991 40.1241L52.5345 39.8809ZM53.1877 40.062C53.27 40.1862 53.3574 40.3052 53.4448 40.4242C53.3684 40.6009 53.3031 40.7824 53.2494 40.9675C53.1517 40.8071 53.054 40.6518 52.9511 40.4966C52.982 40.3414 53.0591 40.1965 53.1414 40.0517L53.1877 40.062ZM53.7637 41.7488H53.7174C53.7685 41.4981 53.8355 41.2509 53.9179 41.0088C53.9694 41.0709 54.0156 41.1278 54.0671 41.1796C53.9076 41.3607 53.8202 41.5263 53.7174 41.7384L53.7637 41.7488ZM54.0362 40.6777C54.1501 40.4018 54.2789 40.1324 54.4219 39.8706L54.6482 40.3207C54.5093 40.507 54.3808 40.6984 54.2573 40.8898L54.0362 40.6777ZM55.0185 41.0244C55.0751 41.133 55.1368 41.2417 55.2036 41.3452L55.0802 41.578L54.7408 41.3193C54.7922 41.2158 54.8796 41.1175 54.9722 41.0088L55.0185 41.0244ZM55.327 41.5418C55.4145 41.6763 55.507 41.816 55.6047 41.9454L55.2396 41.6867L55.327 41.5418ZM56.6179 42.9698C56.731 43.0474 56.8544 43.1147 56.9727 43.1819C56.8544 43.3578 56.7104 43.5545 56.6024 43.7511L55.9699 43.4406C56.1856 43.3043 56.3872 43.1466 56.5716 42.9698H56.6179ZM57.1322 44.0356C57.2232 43.8311 57.3298 43.6338 57.451 43.4458C57.9369 43.6769 58.4408 43.8673 58.9578 44.015C58.8081 44.3029 58.6958 44.6089 58.6236 44.9256C58.1093 44.6255 57.6361 44.3254 57.1322 44.046V44.0356ZM59.6367 44.2013L59.971 44.2788L59.3847 45.3861L59.0607 45.1894C59.2636 44.8732 59.444 44.543 59.6007 44.2013H59.6367ZM59.8887 43.6838C60.0069 43.42 60.1252 43.1664 60.2384 42.8974L60.6138 43.0785L60.2435 43.7718L59.8887 43.6838ZM61.1229 43.3113C61.5343 43.4924 61.956 43.6683 62.3778 43.8287C62.3109 43.9632 62.2389 44.0977 62.172 44.2374L60.8092 43.9167C60.8761 43.6993 60.9789 43.4976 61.0869 43.301L61.1229 43.3113ZM63.0412 44.0667L63.3343 44.165L63.1183 44.4496L62.928 44.403C62.928 44.2789 62.9692 44.165 63.0052 44.0564L63.0412 44.0667ZM62.7789 44.9256L62.6503 45.1222C62.6812 45.0497 62.712 44.9825 62.7378 44.9153L62.7789 44.9256ZM62.2132 45.9294C62.1218 46.1286 62.0778 46.3465 62.0846 46.5658L61.6886 46.452C61.7179 46.4424 61.7457 46.4284 61.7709 46.4105C61.9318 46.2698 62.069 46.1038 62.1772 45.919L62.2132 45.9294ZM63.2777 45.5982L63.5709 45.1274L64.224 45.2981C63.9253 45.8438 63.5812 46.3631 63.1954 46.8504L62.4703 46.6744C62.5989 46.3433 63.0772 45.8207 63.2417 45.5879L63.2777 45.5982ZM65.3348 44.9825L65.0931 44.9256L65.2423 44.7083C65.6125 44.7963 65.9725 44.8738 66.3377 44.9359L66.1525 45.1894L65.3348 44.9825ZM67.0422 45.0549L67.5565 45.1274L68.693 45.2567C68.5902 45.4119 68.4822 45.5672 68.3742 45.7172C67.8599 45.6034 67.3456 45.4844 66.8314 45.3551L67.0422 45.0549ZM69.1713 45.3085L70.3387 45.4223L69.9273 46.0276C69.5519 45.9604 69.1816 45.888 68.8113 45.8104C68.9142 45.6345 69.0325 45.4689 69.1507 45.2981L69.1713 45.3085ZM71.0381 45.4792C71.3724 45.4792 71.7118 45.5258 72.0667 45.5413C71.9484 45.7948 71.825 46.0587 71.7015 46.2863C71.3416 46.2501 70.9816 46.1984 70.6267 46.1467C70.7347 45.9139 70.8787 45.6914 71.0176 45.4689L71.0381 45.4792ZM72.5809 45.5672C72.8432 45.5672 73.0952 45.5672 73.3626 45.5672C73.1981 45.8363 73.0284 46.0846 72.8484 46.364L72.2261 46.3122C72.3341 46.0742 72.4369 45.8156 72.5449 45.5569L72.5809 45.5672ZM73.8924 46.4261C74.0518 46.157 74.2061 45.9087 74.3552 45.6086C74.1958 45.8776 74.0415 46.1518 73.8872 46.4261H73.8924ZM77.4923 45.5154C77.7957 45.5154 78.094 45.5154 78.3974 45.4844L78.0323 46.2709L77.0037 46.3433C77.1014 46.0587 77.2711 45.7793 77.4357 45.5051L77.4923 45.5154ZM79.0351 45.443C79.4054 45.4119 79.7705 45.3757 80.1408 45.324L79.8682 46.0846L78.6391 46.214C78.706 45.9501 78.8345 45.6914 78.9682 45.4327L79.0351 45.443ZM79.6419 46.7314L79.6111 46.8245L78.3151 46.9952H78.2585C78.2843 46.9486 78.3048 46.9021 78.3254 46.8555C78.7008 46.8193 79.138 46.7727 79.5751 46.7003L79.6419 46.7314ZM80.2179 46.6589L81.4316 46.4985L81.3956 46.5917L80.1871 46.752L80.2179 46.6589ZM82.2082 47.2384L82.491 47.1918C82.3667 47.5884 82.2688 47.9929 82.1979 48.4026L81.8739 48.4905C81.9924 48.073 82.0818 47.6477 82.1413 47.2177L82.2082 47.2384ZM82.3573 46.4571C82.3573 46.4209 82.3573 46.3795 82.3573 46.3433L82.7584 46.2761C82.7584 46.3174 82.7584 46.3588 82.7173 46.4054L82.3573 46.4571ZM82.527 45.7017L82.743 44.8273L83.211 44.7135L83.1184 45.1222C83.0773 45.2878 83.031 45.4481 82.9847 45.6396L82.527 45.7017ZM83.715 45.2878L83.8847 44.5582L85.4275 44.1805C85.3555 44.4289 85.2887 44.6979 85.2167 44.9307C85.1909 45.0032 85.1704 45.0756 85.1447 45.1533C84.6304 45.2723 84.1521 45.3861 83.6533 45.4844C83.6481 45.412 83.6481 45.3447 83.6481 45.2774L83.715 45.2878ZM86.1835 44.015L86.5281 43.9322L87.428 43.7356C87.3355 44.0305 87.2378 44.3254 87.14 44.6151C86.7338 44.7393 86.3275 44.8532 85.9109 44.9618C85.9418 44.6307 86.0292 44.3203 86.1166 44.0046L86.1835 44.015ZM87.9269 43.6269C88.4412 43.5079 88.9554 43.3941 89.4697 43.2699C89.4697 43.3165 89.4697 43.3579 89.4337 43.4044L89.3103 43.8805C88.796 44.0771 88.2406 44.2633 87.7006 44.4392L87.9269 43.6269ZM90.1023 43.1095L91.3828 42.7836L91.2748 43.0992L89.9943 43.6166L90.1023 43.1095ZM90.9354 44.0305C90.8582 44.2323 90.7811 44.4392 90.6988 44.641C90.3594 44.76 90.0149 44.8739 89.6703 44.9774C89.7166 44.8014 89.7628 44.6307 89.804 44.46C90.1125 44.3099 90.4931 44.165 90.848 44.0201L90.9354 44.0305ZM91.6297 44.3047C91.6965 44.0977 91.7634 43.8908 91.82 43.6787C91.9537 43.6269 92.0874 43.5596 92.2211 43.5027C92.1491 43.6993 92.0822 43.8908 92.0051 44.0822L91.6348 44.3047H91.6297ZM92.5862 43.7304L92.7765 43.2595L93.3782 42.9905C93.7896 42.799 94.1907 42.5869 94.597 42.38C94.0827 42.7473 93.5685 43.0992 93.0542 43.4148C92.8485 43.5234 92.6839 43.6217 92.5194 43.72L92.5862 43.7304ZM101.391 37.387C101.432 37.1128 101.468 36.8334 101.499 36.5592L102.265 36.0883C102.198 36.3625 102.136 36.6419 102.075 36.9213L101.391 37.387ZM95.5844 38.9599C95.1627 39.1255 94.7308 39.2807 94.2988 39.4256C94.3296 39.3583 94.3656 39.2911 94.4016 39.229C94.8027 39.1152 95.1987 38.991 95.5947 38.8668C95.5997 38.8907 95.6031 38.9149 95.605 38.9392L95.5844 38.9599ZM92.2211 40.062C91.6965 40.2069 91.1668 40.3414 90.632 40.4655L90.74 40.1241C91.2542 40.0103 91.7994 39.8912 92.3239 39.7671C92.3085 39.8498 92.2725 39.974 92.2417 40.0465L92.2211 40.062ZM90.164 40.5794C89.6497 40.6984 89.0943 40.8019 88.5594 40.9002C88.5852 40.7812 88.616 40.6622 88.6417 40.5483C89.192 40.45 89.7372 40.3414 90.2823 40.2327C90.2463 40.3259 90.2051 40.4397 90.1691 40.5587L90.164 40.5794ZM88.76 40.062L88.868 39.5756L89.0326 39.5446C89.5828 39.4515 90.128 39.3428 90.6731 39.229C90.6011 39.3997 90.5291 39.5757 90.4623 39.7464L88.76 40.062ZM84.1315 40.1241L83.6173 40.2224C83.6199 40.1966 83.6199 40.1706 83.6173 40.1448H84.1315V40.1241ZM83.1647 40.3155L82.5836 40.4294C82.6299 40.3466 82.6659 40.2638 82.7121 40.181H83.2264L83.1647 40.3155ZM78.9168 40.9727C78.5568 41.0037 78.1968 41.0192 77.842 41.0244C78.0374 40.7502 78.2277 40.4759 78.4231 40.2068C78.45 40.1672 78.4643 40.1203 78.4642 40.0723C78.6905 40.093 78.9168 40.1086 79.1431 40.1189C79.0917 40.3724 79.0197 40.657 78.9322 40.9364L78.9168 40.9727ZM77.2403 41.0296C76.8854 41.0296 76.5357 41.0295 76.1809 40.9829C76.294 40.6104 76.3917 40.2379 76.4791 39.8706C76.9626 39.9327 77.446 39.9844 77.9294 40.0258L77.2403 41.0296ZM74.7512 39.6067C74.5301 39.9741 74.3243 40.3569 74.1289 40.745C73.8049 40.6932 73.4809 40.6363 73.1569 40.5691C73.2443 40.2069 73.3061 39.8447 73.3575 39.4773C73.7226 39.5084 74.0878 39.5342 74.458 39.5549L74.7512 39.6067ZM71.5267 39.2704C71.4238 39.5498 71.321 39.8343 71.2078 40.1137L70.2564 39.855C70.4261 39.617 70.6061 39.379 70.7707 39.1514L71.5267 39.2704ZM69.5107 39.6429L68.621 39.3738L68.9862 38.7374C69.329 38.8306 69.6719 38.9133 70.0147 38.9858C69.8399 39.1617 69.6804 39.3842 69.5261 39.6067L69.5107 39.6429ZM68.0553 39.1824C67.8085 39.1048 67.5411 39.0272 67.3199 38.9392C67.4176 38.7426 67.5051 38.546 67.5874 38.3442L67.7468 38.3959C67.7688 38.4012 67.7917 38.4012 67.8136 38.3959L68.4359 38.5874C68.3176 38.7478 68.2199 38.9392 68.0708 39.1462L68.0553 39.1824ZM63.0566 35.3898C63.1877 35.6302 63.3465 35.8543 63.5297 36.0573L63.1235 35.8452L62.8355 35.6796L63.0566 35.3898ZM63.7406 36.6937C63.5435 36.8565 63.3547 37.0292 63.1749 37.2111C62.8133 37.0172 62.4692 36.7922 62.1463 36.5385L62.5474 36.0211C62.9743 36.2177 63.3652 36.4453 63.756 36.6575L63.7406 36.6937ZM62.8046 37.6354L62.64 37.8372C62.3058 37.6716 61.9561 37.4957 61.6115 37.3197C61.7143 37.18 61.812 37.0404 61.92 36.9007C62.1962 37.163 62.4977 37.397 62.82 37.5992L62.8046 37.6354ZM61.2618 37.118L61.0921 37.0249C61.2361 36.8334 61.3749 36.6367 61.5189 36.4505C61.5635 36.5126 61.6149 36.5747 61.6732 36.6368L61.2618 37.118ZM60.6652 36.7662L60.3104 36.5385C60.5212 36.0883 60.7115 35.6278 60.8863 35.1621C60.9587 35.4558 61.0712 35.7378 61.2206 36.0003C61.0664 36.228 60.8812 36.4816 60.7012 36.7403L60.6652 36.7662ZM59.9401 36.2849C59.6239 36.0608 59.3233 35.8153 59.0401 35.5502C59.3487 35.1208 59.6675 34.6913 60.0018 34.2722C60.2178 34.4378 60.4389 34.593 60.6601 34.7534C60.4749 35.245 60.2384 35.7572 59.9915 36.259L59.9401 36.2849ZM58.7624 35.2501L58.5876 35.0639C58.8093 34.5932 59.0066 34.1114 59.179 33.6203C59.3435 33.7496 59.5132 33.8842 59.6932 34.0135C59.4052 34.4171 59.0967 34.831 58.7984 35.2501H58.7624ZM58.3253 34.7327C58.2433 34.6198 58.1677 34.5023 58.099 34.3809C58.3253 34.0187 58.5464 33.6514 58.7521 33.2737L58.9527 33.4392C58.7984 33.8738 58.5824 34.2826 58.3613 34.7327H58.3253ZM57.8727 33.9359L57.8058 33.7807C57.8058 33.7341 57.7236 33.7497 57.739 33.7807C57.7575 33.8599 57.7816 33.9377 57.811 34.0135C57.4561 34.5309 57.0807 35.0483 56.7001 35.5657L56.3556 35.2915C56.9727 34.474 57.595 33.6565 58.1967 32.8286L58.4538 33.0408C58.3047 33.3357 58.1144 33.641 57.9344 33.9359H57.8727ZM58.3458 32.6166C58.7007 32.0992 59.0401 31.6335 59.3744 31.1368C59.369 31.1745 59.369 31.2128 59.3744 31.2506C59.1564 31.7859 58.9003 32.3046 58.6081 32.8028L58.3458 32.6166ZM58.9064 30.2468C59.2613 30.0502 59.611 29.8536 59.935 29.6518C59.7395 29.9675 59.5389 30.2779 59.3332 30.5883L58.9064 30.2468ZM61.3492 26.9044H61.3903H61.4366L61.4058 26.982L61.3492 26.9044ZM61.2669 23.8L61.3235 23.7275L61.4366 23.7844L61.2669 23.8ZM54.3345 26.5836L53.8202 26.18C53.8202 26.18 53.7791 26.18 53.8202 26.2163C54.0002 26.3404 54.1751 26.475 54.3345 26.6095L53.7894 27.5822L52.6065 27.8668L52.5448 27.7943C52.766 27.3131 52.982 26.8268 53.1774 26.3301L53.7637 26.1904L54.6893 25.9679L54.3345 26.5836ZM52.478 27.7219C52.1848 27.3752 51.902 27.0182 51.6191 26.6871C52.1334 26.5887 52.6065 26.4801 53.1054 26.3663C52.9254 26.8112 52.7145 27.2717 52.4934 27.7219H52.478ZM50.8683 26.3973C50.9249 26.268 50.9866 26.1438 51.0483 26.0145H51.1203C51.8506 25.942 52.5808 25.8541 53.3162 25.7092H53.3522L53.3162 25.8075C52.5191 26.0041 51.7014 26.2162 50.8837 26.3973H50.8683ZM50.9249 26.0403L50.6934 26.4387C49.958 26.5939 49.2175 26.7336 48.4769 26.8423C48.5232 26.7026 48.5746 26.5629 48.6261 26.4232C49.4078 26.2835 50.1843 26.1696 50.9403 26.0403H50.9249ZM48.0706 26.8992C47.4175 26.982 46.7592 27.0338 46.0958 27.0596C46.807 26.8197 47.5339 26.6295 48.2712 26.4904L48.0706 26.8992ZM46.7695 29.2327L45.7153 29.5225C45.7821 29.212 45.8644 28.9119 45.9467 28.6067C46.2381 28.7986 46.518 29.0076 46.785 29.2327H46.7695ZM45.6175 29.9674V29.9054C45.8695 30.102 46.1318 30.2985 46.3684 30.5055C46.1372 31.0883 45.9465 31.6865 45.7976 32.2958H45.6998C45.7181 31.519 45.6958 30.7418 45.633 29.9674H45.6175ZM46.9084 30.966C47.2375 31.2557 47.5615 31.5507 47.8804 31.856C47.4381 31.9767 46.9907 32.0802 46.5381 32.1664C46.6667 31.7628 46.7901 31.3644 46.9238 30.966H46.9084ZM47.7261 34.1739C48.1786 34.1222 48.6363 34.0549 49.094 33.9722C48.8832 34.3964 48.6826 34.8207 48.4975 35.2605C48.2146 34.9811 47.9215 34.7069 47.6335 34.443L47.7261 34.1739ZM49.4232 36.047L49.3769 36.1452L49.3152 36.0831L49.4232 36.047ZM50.0403 35.8193C50.4055 35.6796 50.7654 35.5295 51.1306 35.3743C51.3517 35.6433 51.5677 35.9176 51.7837 36.1918C51.53 36.8023 51.2934 37.4181 51.074 38.0389C50.642 37.5215 50.1894 37.0041 49.7266 36.4867C49.8449 36.2798 49.9477 36.0521 50.0557 35.8348L50.0403 35.8193ZM50.6729 38.3649C50.3283 38.4891 49.9735 38.5977 49.6443 38.6909C49.4746 38.5046 49.2998 38.3131 49.13 38.1372C49.2638 37.7336 49.4129 37.3353 49.5775 36.942C49.9426 37.387 50.318 37.9044 50.6883 38.3649H50.6729ZM49.1866 38.7892L48.8832 38.8461C48.9141 38.7426 48.9398 38.6391 48.9706 38.5305L49.1866 38.7892ZM51.2694 42.5455C51.362 42.2868 51.4597 42.0281 51.5677 41.7798L51.7168 41.966L51.5163 42.4834L51.2694 42.5455ZM52.406 42.1471L52.2105 41.8678C52.3443 41.5625 52.4883 41.2624 52.6374 40.9675L53.0385 41.4849C52.9743 41.4745 52.9085 41.4831 52.8491 41.5098C52.7898 41.5364 52.7394 41.5799 52.7043 41.6349C52.6065 41.7953 52.5191 41.9608 52.4317 42.1523L52.406 42.1471ZM54.4631 42.5352L53.8202 42.0437L53.7688 41.9557H53.8048C53.8048 41.9557 53.8408 41.9557 53.8562 41.9557C54.0398 41.8554 54.2122 41.7357 54.3705 41.5987C54.5094 41.728 54.6533 41.8574 54.8025 41.9712L54.4939 42.5818L54.4631 42.5352ZM54.9773 42.054C55.1752 42.2045 55.3831 42.3411 55.5996 42.4628C55.5585 42.5093 55.5225 42.5559 55.4762 42.6024C55.4541 42.6259 55.4394 42.6552 55.4337 42.687C55.428 42.7187 55.4317 42.7515 55.4443 42.7812C55.4568 42.8108 55.4777 42.8362 55.5044 42.8541C55.5311 42.8719 55.5624 42.8816 55.5945 42.8818C55.8096 42.892 56.0232 42.8418 56.2116 42.737H56.263C56.0814 42.9432 55.8779 43.1288 55.6562 43.2906L55.4453 43.2026C55.2301 42.9364 54.9551 42.7254 54.6431 42.587C54.7459 42.4214 54.8488 42.2403 54.9722 42.0437L54.9773 42.054ZM59.8166 45.6758C60.0584 45.2619 60.2847 44.848 60.5109 44.4237L61.8995 44.7238C61.7043 45.0571 61.5604 45.4182 61.4726 45.7948C61.458 45.7719 61.4365 45.7541 61.4112 45.7442C61.3859 45.7342 61.3582 45.7326 61.3319 45.7395C61.3057 45.7464 61.2823 45.7614 61.2651 45.7825C61.2478 45.8036 61.2377 45.8297 61.236 45.8569C61.2274 45.9864 61.2504 46.1161 61.3029 46.2346C61.3245 46.2937 61.3619 46.3456 61.4109 46.3847C61.1383 46.3019 60.8658 46.2088 60.5984 46.1156C60.3309 46.0225 60.0738 45.8104 59.8115 45.6655L59.8166 45.6758ZM66.3994 45.8776C66.9137 46.0122 67.4279 46.1363 67.9422 46.2553C67.6253 46.6674 67.2817 47.0581 66.9137 47.4247C66.3017 47.3729 65.6845 47.3005 65.0777 47.2073C65.56 46.8042 66.0011 46.3536 66.3942 45.8621L66.3994 45.8776ZM68.3742 46.3484C68.7547 46.4312 69.1353 46.5089 69.521 46.5813C69.2793 46.9124 69.0324 47.2332 68.7856 47.5488C68.2713 47.5488 67.8136 47.5023 67.3302 47.4609C67.7004 47.1079 68.0474 46.7311 68.369 46.333L68.3742 46.3484ZM71.9175 46.9279L72.4318 46.9694C72.3032 47.166 72.1695 47.3574 72.0358 47.5488H71.5524C71.681 47.3419 71.8198 47.1298 71.9124 46.9124L71.9175 46.9279ZM71.0998 48.2525H71.5421C71.3107 48.5836 71.0793 48.9096 70.8376 49.2408L70.3901 49.1683C70.645 48.8779 70.882 48.572 71.0998 48.2525ZM73.6712 47.435L73.9232 47.0055C74.5815 47.0055 75.2397 47.0055 75.8929 47.0055L75.7386 47.2746C75.0495 47.3522 74.3603 47.4091 73.6609 47.4557L73.6712 47.435ZM76.5203 46.9642C76.906 46.9642 77.2969 46.9176 77.6826 46.8866L77.6054 47.0522L76.3711 47.197L76.5203 46.9642ZM77.8008 47.7817L79.2819 47.5954C79.1071 48.1128 78.9322 48.6302 78.7677 49.1787C78.082 49.3029 77.4134 49.4063 76.762 49.4891C77.1554 48.9597 77.4997 48.3951 77.7905 47.8024L77.8008 47.7817ZM83.3447 47.0159C83.7047 46.959 84.0698 46.8969 84.4298 46.8296C84.3064 47.1349 84.1881 47.4402 84.0904 47.7403C83.7613 47.8593 83.427 47.9731 83.0927 48.0766C83.1918 47.7346 83.2725 47.3874 83.3344 47.0366L83.3447 47.0159ZM83.4784 46.2553C83.4784 46.2036 83.4784 46.1518 83.5041 46.1053L84.8413 45.831L84.7538 46.0484L83.4784 46.2553ZM85.6435 45.6344C86.0447 45.5413 86.4406 45.443 86.8366 45.3343C86.7955 45.4482 86.7595 45.562 86.7183 45.6707C86.3378 45.7534 85.9572 45.831 85.5715 45.8983C85.5869 45.8259 85.6075 45.7379 85.6332 45.6655L85.6435 45.6344ZM87.4075 45.1688C87.9526 45.0136 88.4977 44.8428 89.0377 44.6514C88.9914 44.8118 88.9503 44.9721 88.904 45.1325C88.3897 45.2774 87.8343 45.412 87.2892 45.5361C87.3201 45.4378 87.3612 45.3136 87.3972 45.1894L87.4075 45.1688ZM101.133 38.8668C101.334 38.7374 101.529 38.6029 101.73 38.4632C101.643 38.815 101.55 39.1669 101.437 39.498C101.412 39.5555 101.408 39.6198 101.425 39.68C101.442 39.7403 101.479 39.7929 101.529 39.8291C101.218 40.1481 100.888 40.4487 100.542 40.7294C100.796 40.1284 100.994 39.5048 101.133 38.8668ZM104.733 34.9293C104.817 34.4673 104.876 34.0009 104.908 33.5324C104.98 33.4703 105.042 33.403 105.114 33.3358L105.083 33.7135C105.083 33.8894 105.032 34.1015 105.032 34.3033C104.929 34.5154 104.826 34.7224 104.733 34.9293ZM103.844 34.4585C103.54 35.0276 103.273 35.5813 102.933 36.1039C102.933 35.9538 102.975 35.7986 102.99 35.6434L103.088 35.5916C103.088 35.5916 103.088 35.5502 103.088 35.5554L103.016 35.5968L103.062 35.1621C103.309 34.9345 103.571 34.7017 103.839 34.4585H103.844ZM102.301 35.9538L101.529 36.3677C101.527 36.3541 101.527 36.3399 101.529 36.3263C101.807 36.1245 102.09 35.9176 102.363 35.7054C102.337 35.7882 102.311 35.871 102.291 35.9538H102.301ZM97.477 37.951L97.6312 37.2836L98.5724 36.9317C98.5484 37.1594 98.5175 37.387 98.4798 37.6146L97.477 37.951ZM97.2147 38.0338L96.613 38.2148C96.613 38.0182 96.613 37.8268 96.577 37.6354L97.4255 37.3508C97.3432 37.5785 97.2712 37.8061 97.2044 38.0338H97.2147ZM96.2787 38.1062C96.2428 38.0441 96.188 37.9953 96.1225 37.9668C96.0569 37.9382 95.984 37.9316 95.9145 37.9478C95.8449 37.964 95.7823 38.0022 95.7359 38.0568C95.6895 38.1113 95.6616 38.1794 95.6564 38.2511C95.6564 38.3339 95.6564 38.4167 95.6564 38.4943L94.6845 38.7633C94.7513 38.6391 94.8233 38.5149 94.8953 38.3907C94.9151 38.3552 94.9255 38.3151 94.9255 38.2743C94.9255 38.2336 94.9151 38.1935 94.8953 38.1579C95.3633 38.0234 95.8262 37.8786 96.289 37.7337L96.2787 38.1062ZM94.1187 38.6236L93.2753 38.5822L94.3039 38.308L94.1187 38.6236ZM92.7251 38.7219C92.6582 38.903 92.5862 39.0841 92.5245 39.2652L90.92 39.6067C90.9817 39.4308 91.0486 39.26 91.1206 39.0893C91.6348 38.9806 92.1491 38.8564 92.6993 38.7271L92.7251 38.7219ZM68.8267 37.9872C68.4976 37.8837 68.1736 37.7751 67.8548 37.6561V37.594C68.1787 37.7233 68.4976 37.8475 68.8216 37.9665C68.8236 37.9692 68.8251 37.9723 68.8259 37.9756C68.8268 37.9789 68.827 37.9823 68.8265 37.9857C68.826 37.9891 68.8249 37.9923 68.8232 37.9952C68.8214 37.9981 68.8191 38.0007 68.8164 38.0027L68.8267 37.9872ZM66.4662 37.0818L66.3994 37.0507C66.0651 36.8866 65.7451 36.6945 65.4428 36.4764C65.7925 36.6575 66.1525 36.8334 66.5125 36.9938L66.4662 37.0818ZM63 35.0535C62.9921 35.0823 62.9921 35.1127 63 35.1415L62.6657 35.5192L62.3932 35.3639C62.5217 35.2087 62.6452 35.0535 62.7789 34.9034L63 35.0535ZM62.3829 35.8348C62.244 35.9848 62.1103 36.1401 61.9715 36.3005L61.7915 36.1142L62.1309 35.6744L62.3829 35.8348ZM61.4521 35.7106C61.2915 35.4866 61.1665 35.2387 61.0818 34.9759L61.6989 35.395L61.4521 35.7106ZM59.9092 33.7652L59.2921 33.315C59.4297 32.8835 59.5363 32.4426 59.611 31.9956C59.6083 31.9889 59.6037 31.9831 59.5977 31.9791C59.5918 31.975 59.5847 31.9729 59.5775 31.9729C59.5703 31.9729 59.5633 31.975 59.5573 31.9791C59.5514 31.9831 59.5468 31.9889 59.5441 31.9956C59.4104 32.3992 59.2561 32.7925 59.0915 33.1805L58.9064 33.0356C59.139 32.5945 59.3417 32.1382 59.5132 31.6697C59.8989 32.0629 60.2692 32.4872 60.6652 32.8701C60.4132 33.1702 60.1612 33.4754 59.9144 33.7652H59.9092ZM59.6624 30.7901C59.9195 30.3969 60.1766 29.9933 60.4029 29.5846L60.5881 29.7087C60.3132 30.1004 60.0052 30.4674 59.6675 30.8056L59.6624 30.7901ZM60.8709 28.7205C61.1075 28.2652 61.3286 27.7995 61.5343 27.3287C61.6063 27.3856 61.6835 27.4321 61.7555 27.4839C61.5629 27.9636 61.3395 28.4303 61.0869 28.8809C61.0851 28.8554 61.078 28.8306 61.0662 28.808C61.0544 28.7853 61.0381 28.7654 61.0184 28.7494C60.9986 28.7334 60.9757 28.7217 60.9513 28.7149C60.9268 28.7082 60.9012 28.7065 60.8761 28.7101L60.8709 28.7205ZM54.8488 25.3884L53.4037 25.7816C53.4037 25.7454 53.4294 25.7144 53.4397 25.6833C53.7842 25.6109 54.1288 25.5384 54.4682 25.4556L54.8488 25.3884ZM45.8747 28.529C45.7667 28.8343 45.669 29.15 45.5815 29.4604C45.5044 29.031 45.4118 28.6066 45.2987 28.1824C45.4735 28.291 45.6638 28.4049 45.8541 28.529H45.8747ZM45.7564 32.4768V32.4251H45.8233C45.8233 32.482 45.7924 32.5389 45.7821 32.5958C45.7513 32.5544 45.7461 32.5131 45.7358 32.4768H45.7564ZM46.2707 33.4547C46.5381 33.6876 46.785 33.9308 47.0472 34.1739L46.7284 34.2153V34.2567L47.1038 34.2257L47.181 34.2981C47.001 34.8155 46.8261 35.3329 46.6667 35.8503L46.6152 35.8037C46.461 35.2604 46.3118 34.7172 46.1678 34.1688C46.1781 33.9101 46.2141 33.6824 46.2552 33.4547H46.2707ZM47.0472 36.3677L47.1038 36.4195H47.0266C47.0266 36.4195 47.0267 36.3832 47.0318 36.3522L47.0472 36.3677ZM47.0987 36.2021C47.2529 35.6847 47.4124 35.1984 47.5769 34.7017C47.8598 34.9863 48.1324 35.2708 48.3998 35.5657C48.3072 35.7934 48.2249 36.0263 48.1375 36.2539C47.8666 36.3189 47.5917 36.3655 47.3146 36.3936L47.0987 36.2021ZM48.0809 36.4143C48.0192 36.5902 47.9678 36.7661 47.9112 36.9317L47.4329 36.4867C47.6489 36.4816 47.8495 36.4557 48.0655 36.4143H48.0809ZM48.6261 36.2901L48.9552 36.2021C49.0477 36.3108 49.1403 36.4091 49.2278 36.5177C49.0478 36.9058 48.8729 37.3094 48.7135 37.7182C48.5798 37.5888 48.4512 37.4543 48.3175 37.3301C48.3998 36.9783 48.4975 36.6316 48.6106 36.2901H48.6261ZM48.5901 38.0389C48.4821 38.339 48.3844 38.6339 48.3021 38.9289H47.9781C48.0449 38.4839 48.1272 38.0441 48.2352 37.6095L48.5901 38.0389ZM48.7135 41.7642C48.6695 41.5373 48.6437 41.3072 48.6363 41.0761C49.0717 41.5794 49.4607 42.1215 49.7986 42.6956C49.7986 42.7887 49.7678 42.8871 49.7472 42.9802C49.4992 43.0346 49.2486 43.076 48.9963 43.1044C48.8678 42.737 48.7443 42.3645 48.6158 41.9971C48.6462 41.9676 48.668 41.9304 48.6789 41.8894C48.6898 41.8483 48.6893 41.805 48.6775 41.7642H48.7135ZM49.6752 45.086C49.8037 45.1791 49.9323 45.2826 50.0557 45.3912V45.4533L49.8243 45.5258C49.7574 45.3809 49.706 45.2309 49.6597 45.086H49.6752ZM50.5289 45.6034L50.6317 45.5723L50.6009 45.712L50.5289 45.6344V45.6034ZM51.7991 42.9336L51.8454 42.8198L52.1797 42.7163V42.7629C52.1006 42.7535 52.0204 42.7653 51.9472 42.7971C51.8741 42.8289 51.8106 42.8795 51.7631 42.9439L51.7991 42.9336ZM53.0334 42.5145C53.0334 42.4524 53.0848 42.3903 53.1105 42.3282L53.1722 42.2972C53.1845 42.3455 53.2137 42.3878 53.2545 42.4162C53.173 42.4462 53.0939 42.4825 53.018 42.5249L53.0334 42.5145ZM69.0633 48.206C69.5159 48.206 69.9736 48.237 70.4261 48.2421C70.2063 48.5256 69.9692 48.7952 69.7164 49.0493C69.3307 48.9821 68.945 48.9044 68.5542 48.8216C68.7342 48.6561 68.8782 48.4491 69.0479 48.2525L69.0633 48.206ZM74.7203 49.6547L75.8569 47.9834L77.2506 47.8386C77.0181 48.4205 76.7431 48.9843 76.4277 49.5253C75.8997 49.5839 75.37 49.6305 74.8386 49.665L74.7203 49.6547ZM83.8384 48.9252C83.8357 48.9527 83.8357 48.9804 83.8384 49.0079L83.1956 49.1269L83.8384 48.9252ZM85.3195 47.285L85.227 47.3212C85.2887 47.0883 85.3452 46.8607 85.4018 46.6434L86.4715 46.4209L86.2967 46.8866C85.9469 47.0573 85.623 47.1866 85.2938 47.316L85.3195 47.285ZM87.0578 46.2863C87.4846 46.188 87.9115 46.0897 88.3332 45.9811C87.8806 46.1932 87.4178 46.4002 86.9549 46.6071L87.0578 46.2863ZM91.8611 45.2515C92.4268 44.9256 92.9873 44.5893 93.5376 44.2167L93.9285 43.9736H93.9696C93.4959 44.7437 92.9518 45.4678 92.3445 46.1363C92.3309 46.1498 92.3203 46.166 92.3132 46.1838C92.3062 46.2016 92.3028 46.2206 92.3034 46.2398C91.8885 46.4295 91.4668 46.602 91.0382 46.7572C91.3295 46.2854 91.5955 45.7984 91.8354 45.2981L91.8611 45.2515ZM94.7719 43.5545L94.9827 43.4354C94.822 43.7923 94.6879 44.1606 94.5816 44.5375C94.184 44.8225 93.8028 45.13 93.4399 45.4585C93.4208 45.4718 93.4052 45.4896 93.3945 45.5104C93.3837 45.5311 93.378 45.5541 93.378 45.5775C93.378 45.6009 93.3837 45.624 93.3945 45.6447C93.4052 45.6654 93.4208 45.6832 93.4399 45.6966L92.9256 45.9501C93.6176 45.2359 94.2282 44.4462 94.7462 43.5959L94.7719 43.5545ZM105.5 33.2995L105.469 32.9529C105.608 32.808 105.741 32.6528 105.865 32.4976C105.716 32.8132 105.592 33.077 105.474 33.3461L105.5 33.2995ZM102.527 35.1363C102.219 35.364 101.91 35.5864 101.596 35.8037C101.596 35.7365 101.596 35.6693 101.596 35.602C101.889 35.5089 102.198 35.3536 102.501 35.1829L102.527 35.1363ZM101.02 36.1711C100.804 36.3108 100.583 36.4505 100.362 36.5798C100.362 36.435 100.398 36.2901 100.413 36.1452L101.087 35.84C101.041 36.0159 101.02 36.1246 100.995 36.2332L101.02 36.1711ZM99.9918 36.316C99.9506 36.5023 99.9044 36.6937 99.8632 36.88C99.5341 37.0714 99.1998 37.2525 98.8655 37.4284H98.8141C98.8141 37.2111 98.8141 36.9938 98.8141 36.7764C99.1741 36.6988 99.5906 36.5437 99.9609 36.3781L99.9918 36.316ZM61.9355 35.0535C61.6629 34.8879 61.4212 34.7172 61.1281 34.5361C61.2515 34.1739 61.3595 33.8066 61.4572 33.4392L61.6063 33.5375C61.5693 33.6552 61.5703 33.7817 61.6091 33.8988C61.6479 34.0159 61.7225 34.1176 61.8223 34.1894C61.9972 34.3188 62.172 34.4378 62.3366 34.5568C62.1926 34.8 62.0486 34.95 61.92 35.1156L61.9355 35.0535ZM46.8724 36.6316C46.9015 36.6151 46.927 36.5929 46.9474 36.5662C46.9677 36.5395 46.9824 36.509 46.9906 36.4764H47.1964C47.4175 36.6937 47.6232 36.9214 47.8289 37.149C47.6863 37.6266 47.5713 38.112 47.4844 38.6029C47.4124 38.3959 47.3455 38.189 47.2787 37.9769C47.1347 37.5785 46.9855 37.1335 46.857 36.6937L46.8724 36.6316ZM49.9015 45.7017L50.0609 45.6655V45.7793C50.0609 45.8369 50.0836 45.8922 50.1241 45.933C50.1646 45.9737 50.2196 45.9966 50.2769 45.9966C50.3342 45.9966 50.3891 45.9737 50.4296 45.933C50.4701 45.8922 50.4929 45.8369 50.4929 45.7793C50.513 45.8024 50.5319 45.8266 50.5494 45.8517C50.4672 46.2191 50.3951 46.5968 50.3334 46.9694L49.9015 45.7017ZM86.2761 48.387C86.3326 48.2318 86.3995 48.0766 86.4561 47.9214C87.0064 47.6989 87.5463 47.4609 88.0863 47.2073C87.9269 47.4712 87.7675 47.7248 87.6132 47.9938C87.1555 48.1956 86.7338 48.3249 86.2607 48.4491L86.2761 48.387Z" fill="#0FDAC2"/>
<path d="M40.1935 83.9543C38.4942 83.9619 36.8075 83.6629 35.2144 83.0717C28.3261 80.491 24.1177 72.605 25.8285 65.4832C27.5618 58.2816 34.869 53.7214 42.8221 54.8726C45.1262 55.2199 47.3184 56.0966 49.2265 57.4338C51.1347 58.7711 52.7069 60.5324 53.8197 62.5796C54.8864 64.6349 55.4528 66.913 55.4728 69.2286C55.4928 71.5441 54.9658 73.8317 53.9348 75.9052C51.4085 80.8715 45.7738 83.9543 40.1935 83.9543ZM40.3822 57.1975C40.3782 57.1975 40.3742 57.1975 40.3702 57.1975C34.5487 57.2024 29.5276 60.7636 28.2302 66.078C26.8295 71.9078 30.4175 78.6234 36.0714 80.7436C41.8276 82.8958 48.9717 80.1712 51.6995 74.7923C52.5542 73.0753 52.9909 71.1807 52.9743 69.2628C52.9576 67.345 52.4879 65.4582 51.6036 63.7564C50.6762 62.0554 49.367 60.5926 47.779 59.4829C46.191 58.3732 44.3673 57.6467 42.4512 57.3606C41.7623 57.2563 41.0669 57.2017 40.3702 57.1975L40.3822 57.1975Z" fill="#0FDAC2"/>
<path d="M40.3702 57.1975C34.5487 57.2024 29.5276 60.7636 28.2302 66.078C26.8295 71.9078 30.4175 78.6234 36.0714 80.7436C41.8276 82.8958 48.9717 80.1712 51.6995 74.7923C52.5542 73.0753 52.9909 71.1807 52.9743 69.2628C52.9576 67.345 52.4879 65.4582 51.6036 63.7564C50.6762 62.0554 49.367 60.5926 47.779 59.4829C46.191 58.3732 44.3673 57.6467 42.4512 57.3606C41.7623 57.2563 41.0669 57.2017 40.3702 57.1975Z" fill="#0FDAC2"/>
<path fill-rule="evenodd" clip-rule="evenodd" d="M93.376 65.2502C95.2123 57.608 102.837 52.8263 111.083 53.8375L111.476 53.8908L111.482 53.8918C113.937 54.262 116.273 55.1959 118.306 56.621C120.212 57.9571 121.803 59.6907 122.971 61.6998L123.2 62.1055L123.204 62.1133L123.208 62.122C124.347 64.3158 124.952 66.7476 124.973 69.2191C124.994 71.6906 124.432 74.1331 123.331 76.3462L123.329 76.352C122.242 78.5015 120.618 80.3117 118.682 81.7088C120.625 82.2261 122.382 82.8958 123.843 83.6971L124.19 83.8927L124.192 83.8947C129.367 86.9366 133.239 92.6631 134.925 99.5668C136.363 105.477 136.232 111.402 135.912 117.839L135.91 117.859C135.87 118.441 135.605 118.985 135.169 119.373C134.734 119.762 134.163 119.965 133.58 119.939C132.997 119.913 132.447 119.659 132.048 119.233C131.649 118.807 131.433 118.241 131.445 117.657V117.633C131.734 111.381 131.851 105.903 130.565 100.625C129.138 94.7684 125.944 90.1101 121.916 87.7512C118.992 86.0409 114.106 84.9932 109.037 84.961C103.966 84.9287 98.9591 85.9153 95.7546 88.0417C93.5783 89.4836 91.7077 91.3417 90.2507 93.5079C88.7952 95.6719 87.7793 98.1018 87.2639 100.658C86.0176 107.102 85.6915 112.602 86.2276 117.485L86.2411 117.705C86.2439 117.924 86.2143 118.144 86.153 118.355C86.0712 118.637 85.9347 118.901 85.7511 119.13C85.5672 119.36 85.3395 119.551 85.0819 119.692C84.849 119.82 84.5945 119.902 84.3322 119.94C84.2685 119.954 84.2044 119.967 84.1395 119.975L84.0795 119.982H84.0185C83.4682 119.981 82.9373 119.776 82.5279 119.408C82.1188 119.04 81.8592 118.534 81.7996 117.987C81.2043 112.604 81.572 106.654 82.8931 99.8225L82.894 99.8157C83.5221 96.6765 84.7651 93.692 86.5501 91.0344C88.2237 88.5428 90.3434 86.384 92.8007 84.6665L93.2966 84.3295C94.9847 83.2073 97.0132 82.3219 99.2906 81.6855C94.4688 77.8802 91.9151 71.3207 93.376 65.2502ZM84.6054 118.821C84.5707 118.84 84.535 118.858 84.4988 118.874L84.6054 118.821ZM134.594 118.548C134.567 118.578 134.539 118.607 134.509 118.633L134.585 118.559C134.588 118.556 134.591 118.552 134.594 118.548ZM84.9773 118.509C84.9571 118.535 84.9353 118.559 84.9133 118.582L84.9773 118.509ZM132.518 118.149C132.527 118.175 132.54 118.2 132.551 118.225C132.523 118.164 132.499 118.101 132.481 118.036L132.518 118.149ZM134.921 117.79C134.916 117.866 134.903 117.942 134.885 118.016C134.893 117.981 134.901 117.946 134.907 117.911L134.921 117.79ZM132.436 117.679C132.434 117.76 132.441 117.84 132.455 117.919L132.44 117.8C132.437 117.759 132.435 117.719 132.436 117.679ZM83.4335 102.427C83.4315 102.439 83.4297 102.451 83.4277 102.464C83.4926 102.068 83.5611 101.669 83.633 101.267L83.4335 102.427ZM94.1924 84.9309C94.0748 85.0046 93.9589 85.0797 93.8448 85.1556L94.1905 84.9329L94.1924 84.9309ZM96.4423 83.7465C96.3766 83.7754 96.3115 83.8051 96.2466 83.8346C96.3226 83.8001 96.3991 83.7658 96.4762 83.7319L96.4423 83.7465ZM123.948 68.3775C123.967 68.6601 123.979 68.9437 123.981 69.2278L123.973 68.8211C123.967 68.673 123.958 68.5251 123.948 68.3775ZM95.3866 62.6092C95.2865 62.8092 95.1913 63.0124 95.1009 63.2183C95.0557 63.3212 95.0119 63.4249 94.9692 63.5292C94.7984 63.9468 94.6475 64.3757 94.5179 64.8154C94.7447 64.0459 95.0364 63.3091 95.3866 62.6092ZM96.4122 60.893C96.1576 61.2552 95.9203 61.6306 95.7014 62.0184L95.8689 61.7307C96.0401 61.4444 96.2211 61.1649 96.4122 60.893ZM102.289 56.0903C102.082 56.1835 101.878 56.2808 101.676 56.3827C101.575 56.4335 101.476 56.4857 101.377 56.5387C101.675 56.3795 101.979 56.2301 102.289 56.0903Z" fill="white"/>
<path fill-rule="evenodd" clip-rule="evenodd" d="M25.7996 100.252C26.099 100.264 26.3932 100.335 26.6644 100.463C26.9357 100.59 27.1792 100.771 27.3792 100.994C27.5791 101.218 27.7316 101.48 27.8286 101.763C27.9217 102.036 27.96 102.324 27.9438 102.612L27.9457 102.613C27.8629 104.777 27.7924 107.397 27.722 109.958C27.6518 112.512 27.584 115.149 27.4973 117.343V117.348C27.4719 117.923 27.2255 118.466 26.8097 118.864C26.3941 119.261 25.8409 119.482 25.2659 119.482L25.1972 119.483L25.1778 119.482C24.5901 119.458 24.0348 119.203 23.6331 118.774C23.2314 118.344 23.0152 117.773 23.0307 117.186V117.174C23.1135 115.009 23.184 112.389 23.2544 109.829C23.3246 107.275 23.3915 104.635 23.4781 102.44C23.484 102.152 23.5461 101.867 23.6602 101.602C23.7787 101.326 23.9512 101.077 24.1677 100.87C24.3842 100.663 24.6409 100.502 24.9212 100.396C25.2015 100.29 25.5001 100.241 25.7996 100.252ZM25.2659 118.491L25.3705 118.486C25.3715 118.486 25.3724 118.485 25.3734 118.485C25.3378 118.488 25.302 118.491 25.2659 118.491ZM24.1386 113.68C24.1202 114.303 24.101 114.915 24.0815 115.506C24.1102 114.629 24.138 113.706 24.1648 112.766L24.1386 113.68Z" fill="white"/>
<path fill-rule="evenodd" clip-rule="evenodd" d="M94.3203 100.275C94.6197 100.286 94.9139 100.357 95.1852 100.485C95.4564 100.612 95.7 100.793 95.8999 101.017C96.0998 101.24 96.2523 101.502 96.3493 101.786C96.4424 102.058 96.4797 102.346 96.4636 102.634L96.4655 102.635C96.3826 104.799 96.3128 107.42 96.2456 109.979C96.1785 112.537 96.1043 115.177 96.021 117.371V117.387L96.02 117.402C95.9806 117.967 95.7284 118.495 95.3149 118.881C94.9528 119.219 94.4898 119.427 94.0007 119.473L93.7896 119.483H93.7179L93.6975 119.482C93.1099 119.458 92.555 119.203 92.1538 118.773C91.7525 118.343 91.5373 117.771 91.5543 117.183V117.174C91.6371 115.007 91.7079 112.39 91.7751 109.831C91.8422 107.273 91.9154 104.641 91.9988 102.464C92.0046 102.175 92.0668 101.89 92.1809 101.625C92.2994 101.35 92.4719 101.1 92.6884 100.893C92.9049 100.686 93.1616 100.524 93.4419 100.418C93.7221 100.312 94.0208 100.263 94.3203 100.275ZM94.638 118.156C94.6091 118.183 94.5789 118.209 94.5479 118.232L94.638 118.156ZM92.5615 117.454C92.575 117.534 92.5968 117.612 92.6254 117.687C92.5828 117.574 92.5564 117.455 92.548 117.334L92.5615 117.454ZM95.0302 117.333C95.0249 117.409 95.0124 117.485 94.9934 117.558C95.0026 117.523 95.0106 117.487 95.0166 117.45L95.0302 117.333Z" fill="white"/>
<path fill-rule="evenodd" clip-rule="evenodd" d="M54.772 100.07C55.0654 100.071 55.3563 100.13 55.6271 100.243C55.8978 100.356 56.1437 100.521 56.3506 100.729C56.5576 100.937 56.7223 101.185 56.8339 101.456C56.9454 101.728 57.0022 102.019 57.0014 102.312L56.9472 116.282C56.9441 116.874 56.7067 117.442 56.2867 117.859C55.8666 118.275 55.2978 118.509 54.7061 118.508H54.7032C54.1114 118.504 53.5444 118.266 53.1275 117.846C52.7107 117.426 52.4772 116.857 52.4786 116.265L52.5338 102.296C52.5347 102.004 52.5927 101.714 52.7052 101.444C52.8181 101.173 52.9836 100.927 53.1914 100.72C53.3992 100.514 53.6457 100.349 53.9168 100.238C54.1879 100.126 54.4788 100.07 54.772 100.07ZM54.708 117.516C54.6287 117.515 54.5504 117.506 54.4737 117.491C54.5108 117.498 54.5482 117.505 54.586 117.509L54.708 117.516ZM54.647 101.068C54.5663 101.076 54.4865 101.091 54.4088 101.114L54.5269 101.085C54.5666 101.078 54.6067 101.072 54.647 101.068Z" fill="white"/>
<path fill-rule="evenodd" clip-rule="evenodd" d="M123.288 100.065C123.881 100.065 124.449 100.3 124.868 100.719C125.288 101.139 125.523 101.707 125.523 102.3V102.304L125.469 116.272C125.469 116.564 125.412 116.854 125.301 117.124C125.189 117.396 125.024 117.645 124.815 117.854C124.607 118.062 124.359 118.228 124.086 118.34C123.814 118.452 123.522 118.508 123.228 118.507H123.226L123.225 118.508C122.932 118.506 122.643 118.448 122.373 118.335C122.102 118.222 121.855 118.056 121.648 117.848C121.441 117.64 121.277 117.393 121.166 117.122C121.054 116.85 120.997 116.559 120.997 116.265L121.052 102.296C121.053 101.705 121.288 101.138 121.706 100.719C122.126 100.3 122.695 100.065 123.288 100.065ZM124.114 117.152C124.079 117.187 124.041 117.218 124.003 117.249C124.009 117.243 124.017 117.24 124.023 117.235L124.114 117.152Z" fill="white"/>
<path fill-rule="evenodd" clip-rule="evenodd" d="M40.5807 80.4807C46.2062 80.5218 51.6779 81.7014 55.3201 83.6971L55.6669 83.8927L55.6717 83.8947C60.8427 86.9365 64.7174 92.6633 66.4006 99.5677C67.8418 105.477 67.7064 111.402 67.4059 117.836L67.405 117.835C67.3956 118.125 67.3315 118.411 67.2132 118.676C67.0917 118.948 66.9164 119.193 66.6989 119.397C66.4814 119.6 66.2248 119.758 65.9454 119.861C65.666 119.965 65.3684 120.01 65.0709 119.997C64.7733 119.984 64.4809 119.911 64.2118 119.783C63.9429 119.655 63.7022 119.474 63.5039 119.252C63.3055 119.03 63.153 118.77 63.0564 118.488C62.9625 118.214 62.9235 117.923 62.9402 117.634L63.0371 115.324C63.2334 110.014 63.1842 105.244 62.0589 100.625C60.6318 94.7684 57.4382 90.1101 53.4103 87.7512C50.4865 86.0394 45.599 84.9908 40.5303 84.959C35.4585 84.9272 30.4523 85.9154 27.2494 88.0417L27.2484 88.0427C25.0714 89.4836 23.1997 91.3406 21.7426 93.5069C20.2856 95.6732 19.2714 98.1065 18.7577 100.666C17.5123 107.107 17.1862 112.605 17.7224 117.487C17.7867 118.076 17.6144 118.667 17.2439 119.129C16.8836 119.579 16.3637 119.869 15.7941 119.945L15.7951 119.946L15.6575 119.969L15.5781 119.982H15.4968C14.9465 119.981 14.416 119.777 14.0063 119.409C13.5965 119.042 13.3358 118.536 13.2751 117.989C12.6827 112.606 13.0471 106.656 14.3685 99.8225L14.3694 99.8157C14.9989 96.6767 16.242 93.6917 18.0274 91.0344C19.8126 88.3775 22.1054 86.0995 24.773 84.3305L25.14 84.0932C28.8594 81.7619 34.1167 80.5265 39.9899 80.4807H40.5807ZM15.7226 118.954C15.7671 118.945 15.8109 118.934 15.854 118.921C15.8563 118.921 15.8586 118.92 15.8609 118.919L15.854 118.921C15.8174 118.932 15.7806 118.944 15.7428 118.951L15.7226 118.954C15.6941 118.96 15.6653 118.964 15.6362 118.968L15.7226 118.954ZM16.3887 118.601C16.3629 118.628 16.3353 118.652 16.3074 118.676C16.34 118.648 16.3714 118.619 16.4012 118.587L16.4701 118.509C16.4482 118.536 16.4252 118.562 16.4012 118.587L16.3887 118.601ZM16.6435 116.649C16.5067 115.064 16.456 113.42 16.4933 111.706C16.4785 112.389 16.4785 113.061 16.4914 113.722C16.4979 114.055 16.508 114.385 16.5214 114.713C16.5349 115.041 16.5513 115.366 16.5718 115.688L16.6435 116.649ZM16.5272 110.654C16.5419 110.305 16.5598 109.953 16.5815 109.597C16.6032 109.242 16.6292 108.884 16.658 108.523L16.5815 109.597L16.5272 110.654ZM14.722 103.619C14.7807 103.225 14.842 102.827 14.9079 102.427L14.9262 102.321C14.9839 101.972 15.0442 101.621 15.1074 101.267L14.9262 102.321C14.8539 102.757 14.7859 103.19 14.722 103.619ZM25.6601 87.9526C25.7263 87.9027 25.7918 87.8517 25.8587 87.8025L25.8848 87.7841C25.8093 87.8395 25.7349 87.8963 25.6601 87.9526ZM25.3221 85.1556C25.7765 84.8535 26.2588 84.5682 26.7671 84.3014L26.7913 84.2891C26.7918 84.2889 26.7923 84.2886 26.7928 84.2883C26.9117 84.2262 27.0319 84.165 27.1535 84.1048L26.7928 84.2883C26.7923 84.2886 26.7918 84.2889 26.7913 84.2891C26.2741 84.5597 25.7837 84.8487 25.3221 85.1556C25.2521 85.202 25.1824 85.2488 25.113 85.2959C24.23 85.8953 23.3914 86.5537 22.6016 87.265L22.1803 87.6534C23.0909 86.7916 24.0713 86.0029 25.113 85.2959C25.1824 85.2488 25.2521 85.202 25.3221 85.1556ZM28.0717 86.4185C28.7951 86.0501 29.5732 85.7253 30.3941 85.4433C30.2572 85.4903 30.1227 85.5392 29.9883 85.5885C29.7195 85.6873 29.4555 85.7902 29.197 85.8985C29.0678 85.9526 28.94 86.0085 28.8135 86.065C28.5605 86.1782 28.3129 86.2957 28.0717 86.4185ZM31.9892 82.3935C30.5356 82.744 29.1833 83.1923 27.9545 83.7319L27.5496 83.915C27.8164 83.7906 28.089 83.67 28.368 83.5547C28.7867 83.3816 29.219 83.2189 29.6639 83.0666C30.4052 82.8129 31.1816 82.5882 31.9892 82.3935Z" fill="#0FDAC2"/>
<path d="M41.7571 80.5002C40.6656 80.5009 39.5801 80.3381 38.5368 80.0174C35.195 78.9972 32.3137 76.4357 30.6284 72.982C30.5566 72.835 30.5144 72.6753 30.5043 72.5121C30.4942 72.3488 30.5164 72.1851 30.5695 72.0304C30.6227 71.8757 30.7058 71.733 30.8141 71.6104C30.9224 71.4878 31.0538 71.3877 31.2008 71.3159C31.3478 71.2441 31.5075 71.2019 31.6708 71.1918C31.834 71.1817 31.9977 71.2039 32.1524 71.257C32.3071 71.3102 32.4499 71.3933 32.5725 71.5016C32.6951 71.6099 32.7951 71.7413 32.8669 71.8883C34.2324 74.6705 36.6244 76.8163 39.2627 77.6285C42.0832 78.4888 45.2651 77.7852 47.1839 75.8761C47.2987 75.7567 47.4361 75.6614 47.5882 75.5958C47.7403 75.5303 47.904 75.4957 48.0696 75.4942C48.2352 75.4927 48.3994 75.5243 48.5527 75.5872C48.7059 75.65 48.8451 75.7428 48.962 75.8601C49.0789 75.9775 49.1711 76.1169 49.2334 76.2704C49.2957 76.4239 49.3267 76.5882 49.3246 76.7538C49.3225 76.9195 49.2874 77.083 49.2213 77.2348C49.1551 77.3867 49.0594 77.5238 48.9395 77.6381C47.015 79.4997 44.4345 80.528 41.7571 80.5002Z" fill="white"/>
<path d="M48.5087 92.2471C48.3533 92.2461 48.1995 92.2169 48.0546 92.1607C46.3531 91.4932 44.5699 91.0565 42.7525 90.8624C39.1932 90.485 35.57 91.0415 32.1611 91.6427C31.9986 91.6751 31.8312 91.6747 31.6689 91.6415C31.5065 91.6084 31.3524 91.5431 31.2157 91.4496C31.0789 91.3561 30.9621 91.2362 30.8723 91.0969C30.7825 90.9576 30.7215 90.8018 30.6927 90.6386C30.6639 90.4755 30.6681 90.3082 30.7049 90.1466C30.7416 89.985 30.8103 89.8324 30.9069 89.6978C31.0035 89.5631 31.126 89.4491 31.2672 89.3624C31.4084 89.2758 31.5656 89.2182 31.7294 89.1931C35.311 88.5535 39.1325 87.9747 43.0147 88.3904C45.0527 88.6062 47.0523 89.0956 48.9596 89.8455C49.2291 89.9515 49.4532 90.1482 49.5932 90.4017C49.7332 90.6552 49.7804 90.9497 49.7266 91.2342C49.6728 91.5188 49.5213 91.7757 49.2984 91.9606C49.0755 92.1455 48.7951 92.2468 48.5055 92.2471H48.5087Z" fill="#0FDAC2"/>
<path d="M109.444 80.4215C108.881 80.4221 108.319 80.3826 107.762 80.3032C105.821 80.0131 103.974 79.2775 102.365 78.154C100.756 77.0305 99.4288 75.5496 98.4879 73.8275C98.3506 73.5388 98.3295 73.2083 98.4293 72.9046C98.5291 72.6009 98.7419 72.3473 99.0237 72.1963C99.3055 72.0453 99.6346 72.0086 99.9427 72.0938C100.251 72.179 100.514 72.3795 100.679 72.6538C101.422 74.0391 102.481 75.2299 103.771 76.13C105.06 77.03 106.543 77.614 108.099 77.8348C109.656 78.0555 111.243 77.9068 112.731 77.4006C114.22 76.8945 115.569 76.0451 116.668 74.9211C116.781 74.8008 116.917 74.7043 117.068 74.6372C117.219 74.57 117.382 74.5336 117.547 74.5301C117.712 74.5265 117.876 74.5559 118.03 74.6165C118.184 74.6771 118.324 74.7677 118.442 74.883C118.56 74.9983 118.655 75.136 118.719 75.2881C118.784 75.4402 118.817 75.6036 118.818 75.7688C118.818 75.934 118.786 76.0977 118.723 76.2503C118.66 76.4029 118.567 76.5413 118.449 76.6576C117.269 77.8456 115.866 78.7895 114.321 79.4354C112.776 80.0812 111.119 80.4163 109.444 80.4215Z" fill="#0FDAC2"/>
<path d="M100.985 93.2866C100.697 93.2847 100.418 93.183 100.196 92.9987C99.9744 92.8144 99.8234 92.559 99.7687 92.2759C99.7141 91.9928 99.7592 91.6995 99.8964 91.4459C100.034 91.1923 100.254 90.9941 100.521 90.885C103.339 89.7561 106.399 89.4779 109.044 89.3052C112.498 89.0814 116.46 89.0014 119.833 90.9042C119.976 90.984 120.102 91.091 120.203 91.2193C120.304 91.3476 120.379 91.4946 120.423 91.6518C120.468 91.809 120.481 91.9735 120.461 92.1357C120.442 92.298 120.391 92.4549 120.312 92.5975C120.232 92.74 120.125 92.8655 119.996 92.9667C119.868 93.0679 119.721 93.1428 119.564 93.1872C119.407 93.2316 119.242 93.2446 119.08 93.2254C118.918 93.2063 118.761 93.1553 118.618 93.0755C115.839 91.5182 112.302 91.6045 109.207 91.7964C106.751 91.9531 103.927 92.2089 101.449 93.2003C101.301 93.2575 101.144 93.2868 100.985 93.2866Z" fill="white"/>
</svg>
