<svg width="150" height="120" viewBox="0 0 150 120" fill="none" xmlns="http://www.w3.org/2000/svg">
<g clip-path="url(#clip0_1050_23164)">
<path d="M69.8168 2.47757C72.7868 1.32742 75.3176 0.67916 77.4022 0.546719C80.177 0.365484 82.9797 -0.0388099 85.6987 0.00301355C90.6836 0.07969 95.7173 0.107572 100.786 0.0727194C105.325 0.0448371 109.668 0.121513 113.816 0.309719C118.439 0.511866 122.768 0.832513 126.819 1.27166C130.416 1.65504 133.728 2.52636 136.761 3.8926C143.67 7.00148 148.278 13.7629 149.247 21.3191C150.293 29.4746 149.861 37.6093 145.413 44.6635C139.773 53.6138 130.465 56.409 120.105 56.9527C119.896 56.9666 119.749 57.1548 119.798 57.357C121.444 64.4391 123.828 71.2145 125.125 78.3036C125.215 78.8124 125.187 79.2516 125.027 79.621C124.755 80.2832 124.232 80.5063 123.472 80.2832C122.88 80.109 122.245 79.6559 121.555 78.91C115.078 71.8906 107.744 64.704 99.5519 57.35C99.029 56.883 98.4224 56.646 97.7252 56.639C91.3111 56.5832 84.904 56.1929 78.4968 55.4679C70.0329 54.506 63.6258 51.3414 59.7076 43.4716C57.7555 39.5541 56.5772 35.4345 56.1659 31.1127C55.1061 19.7925 57.9576 7.07816 69.8168 2.47757ZM72.25 48.5462C74.6971 49.4523 77.207 50.0518 79.7796 50.3515C85.3223 50.9928 91.2414 51.5923 97.53 52.1499C98.9732 52.2754 100.033 51.9757 101.42 51.9269C101.65 51.9199 101.811 52.0245 101.887 52.2475C102.292 53.4256 102.843 54.3248 103.54 54.9591C104.272 55.6213 104.411 55.5167 103.972 54.6315C103.686 54.0669 103.582 53.2722 103.658 52.2545C103.679 52.0524 103.784 51.9339 103.979 51.892C106.559 51.3692 107.033 52.4427 107.667 54.5409C108.329 56.7436 109.117 58.8835 110.045 60.9608C110.309 61.5463 110.686 61.9227 111.181 62.09C111.39 62.1597 111.592 61.9715 111.53 61.7554L108.734 52.3939C108.671 52.1848 108.783 51.9617 108.985 51.8851C109.689 51.6272 110.4 51.6202 111.125 51.8642C111.341 51.9408 111.557 51.9408 111.774 51.8642L112.513 51.6132C112.75 51.5365 112.889 51.6132 112.924 51.8572C113.029 52.5054 112.819 52.9934 113.008 53.6695C113.858 56.7366 114.709 59.5667 115.552 62.1527C115.971 63.4144 116.263 63.3865 116.438 62.0691C116.466 61.853 116.368 61.372 116.138 60.6122C115.559 58.6535 114.96 56.7645 114.353 54.9452C114.095 54.1714 114.109 53.1886 114.409 52.0105C114.465 51.7735 114.695 51.6272 114.932 51.669C117.17 52.0802 118.815 51.1183 121.011 51.181C127.969 51.3902 135.743 48.818 139.926 42.8094C142.561 39.0243 144.06 35.0093 144.423 30.7642C144.751 26.9583 144.493 22.0858 143.231 18.5448C139.208 7.25242 127.725 5.88619 117.33 5.27975C105.255 4.58269 92.8728 4.22719 80.9997 4.98001C75.9939 5.29369 70.5558 6.83419 66.7631 10.4589C57.7276 19.0885 59.366 43.7713 72.25 48.5462Z" fill="#0FDAC2"/>
<path d="M123.376 14.6627C122.156 14.2375 120.539 14.0284 118.538 14.0284C105.682 14.0075 92.7279 14.0075 79.6765 14.0214C79.0142 14.0214 78.3658 14.1539 77.7384 14.4188C76.6856 14.8649 76.6229 16.3357 77.6408 16.8654C78.4077 17.2697 79.6277 17.5625 80.555 17.5695C94.6382 17.7019 108.721 17.7925 122.798 17.8553C123.021 17.8622 123.209 17.7786 123.362 17.6183C123.606 17.3673 123.871 17.3673 124.157 17.6183C124.311 17.7507 124.492 17.8134 124.694 17.8065L128.159 17.667C128.41 17.6601 128.577 17.5346 128.668 17.2976C128.926 16.6284 128.975 15.9662 128.821 15.304C128.773 15.074 128.626 14.9276 128.396 14.8718C126.848 14.5163 125.391 14.4606 124.032 14.7115C123.809 14.7533 123.592 14.7394 123.376 14.6627Z" fill="white"/>
<path d="M73.5656 27.6748C73.963 28.7762 74.702 29.3478 75.7966 29.3896C85.7873 29.7869 95.6525 29.766 105.392 29.9194C113.236 30.0448 121.435 30.1843 129.989 30.3376C130.777 30.3515 131.362 29.6057 131.167 28.8389L131.063 28.4346C130.756 27.2427 129.989 26.5874 128.762 26.4829C126.127 26.2598 123.798 26.1343 121.783 26.1065C106.703 25.8904 91.1487 25.8067 75.1203 25.8625C74.3395 25.8625 73.8236 26.2319 73.5656 26.9778C73.4889 27.2218 73.4889 27.4588 73.5656 27.6748Z" fill="white"/>
<path d="M74.1867 38.7179C74.5423 39.652 75.1349 40.1748 75.9576 40.2863C77.5123 40.4954 78.9067 40.6767 80.1268 40.823C81.4724 40.9903 82.8737 41.0809 84.3308 41.0949C94.705 41.1994 105.079 41.2343 115.46 41.1994C120.208 41.1785 124.879 41.5759 129.669 41.2831C130.436 41.2343 130.973 40.5024 130.784 39.7565L130.659 39.2547C130.373 38.1324 129.655 37.5399 128.491 37.4911C125.82 37.3726 123.38 37.3099 121.17 37.2959C104.528 37.1914 89.3366 37.1565 75.602 37.2053C74.87 37.2053 74.3959 37.5538 74.1798 38.2509C74.131 38.4112 74.131 38.5715 74.1867 38.7179Z" fill="white"/>
<path d="M66.2937 93.1207C65.8079 93.001 65.3 93.2077 65.0461 93.6318C64.61 94.355 63.9807 94.801 63.1582 94.9695C61.4359 95.3175 59.526 95.8505 57.4338 96.5737C57.3345 96.6063 57.2351 96.5356 57.2351 96.4323V96.2909C57.2241 96.0517 57.34 95.8885 57.5663 95.7961C59.2168 95.1381 60.9667 94.4529 62.816 93.7514C64.7259 93.0282 66.382 92.1799 67.7841 91.2174C71.2784 88.803 74.4745 86.2092 77.3726 83.4359C77.8363 82.9899 78.4711 82.6637 79.0397 82.4081C79.2163 82.3265 79.3323 82.3809 79.393 82.5604C79.4592 82.7724 79.4371 82.9464 79.3323 83.0715C75.8987 87.0738 71.9684 90.3582 67.5467 92.9303C67.1382 93.1642 66.7187 93.2294 66.2937 93.1207Z" fill="#0FDAC2"/>
<path d="M71.118 94.8117C70.0471 95.486 68.9651 96.057 67.8666 96.5247C67.7231 96.5899 67.5519 96.5627 67.425 96.4649C67.2483 96.318 67.1711 96.1386 67.1931 95.9265C67.2428 95.4752 67.4636 95.1271 67.8555 94.8933C72.763 91.9188 77.2122 88.406 81.2088 84.3439C81.4462 84.1046 81.8215 84.0557 82.1141 84.2351L82.3294 84.3656C82.9642 84.7572 83.0194 85.2194 82.495 85.7469C79.1443 89.1346 75.3519 92.1526 71.118 94.8117Z" fill="#0FDAC2"/>
<path d="M22.4591 95.7465C22.1223 96.1434 21.3329 96.0401 20.6981 95.5126C20.0578 94.9906 19.8149 94.2402 20.1572 93.8486C20.4939 93.4517 21.2833 93.555 21.9181 94.0825C22.5584 94.6045 22.8013 95.3549 22.4591 95.7465Z" fill="#0FDAC2"/>
<path d="M64.2081 97.4873C64.2578 97.6613 64.1529 97.8462 63.9707 97.8951L57.8213 99.5646C57.6447 99.6135 57.457 99.5102 57.4073 99.3307L57.192 98.564C57.1423 98.39 57.2472 98.2051 57.4294 98.1562L63.5788 96.4867C63.7555 96.4378 63.9431 96.5411 63.9928 96.7206L64.2081 97.4873Z" fill="#0FDAC2"/>
<path d="M50.7869 101.229L41.7559 102.698C41.2757 102.779 40.9113 102.268 41.1487 101.849L41.4634 101.3C41.5517 101.142 41.7062 101.039 41.8829 101.012L51.6646 99.4513C52.2994 99.3534 52.6085 100.185 52.062 100.517L50.9967 101.153C50.9304 101.191 50.8587 101.219 50.7869 101.229Z" fill="#0FDAC2"/>
<path d="M86.1222 51.8141C82.1256 43.3909 76.0148 35.642 67.8285 30.9872C56.479 24.5325 44.0808 22.6945 30.6337 25.4786C24.9424 26.6587 19.7259 28.9262 14.973 32.2923C13.5047 33.3309 11.7768 34.9351 9.7896 37.1048C2.85629 44.6688 -0.941575 54.2068 0.201096 64.3049C1.15608 72.7499 5.59428 79.6559 12.0694 85.072C16.1819 88.5087 20.863 90.586 25.7815 92.6687C25.9526 92.7394 26.0354 92.8699 26.0299 93.0493C25.9912 94.7351 25.8864 96.1217 25.7042 97.2147C24.4842 104.583 23.1097 111.891 21.5696 119.129C21.4702 119.591 21.8456 120.026 22.3259 119.999C23.1484 119.956 23.866 119.619 24.4787 118.993C30.3632 112.963 34.9118 105.959 39.4383 98.5035C39.5598 98.2969 39.7695 98.1609 40.0124 98.1283C42.2812 97.8401 44.6328 97.5628 47.0616 97.3017C48.2982 97.1712 50.4676 96.6601 53.5754 95.7737C56.0595 95.0613 58.1572 94.3327 59.8739 93.5877C66.3491 90.7763 72.0348 86.7741 76.9367 81.57C80.5855 77.7037 83.0806 73.4731 84.422 68.8835C85.2971 65.893 85.5935 62.6229 85.3142 59.0732C85.2517 58.2789 85.1604 57.4706 85.0403 56.6484C84.9299 55.9143 84.9796 54.9627 85.0458 54.2394C85.0789 53.8588 85.1507 53.8533 85.2666 54.2177C85.7705 55.8352 86.1487 57.4537 86.4013 59.0732C87.2083 64.2482 86.7328 69.4335 84.9796 74.6313C84.6704 75.5558 83.8038 77.7364 82.3851 81.1785C82.2029 81.6135 82.3409 81.9017 82.7936 82.0486C82.8874 82.0758 82.9813 82.0758 83.0751 82.0377C83.6437 81.8147 84.0632 81.4722 84.3447 80.9991C89.5834 72.0592 90.577 61.1999 86.1222 51.8141ZM13.9849 40.8079C13.5323 41.368 12.8974 41.6236 12.5718 41.368C12.2461 41.1125 12.3509 40.449 12.8091 39.8889C13.2618 39.3288 13.8966 39.0733 14.2223 39.3288C14.548 39.5844 14.4431 40.2478 13.9849 40.8079ZM58.3724 51.6293C61.8722 51.4389 64.8752 54.2938 65.0794 58.0024C65.2837 61.7056 62.6119 64.865 59.1121 65.0499C55.6124 65.2402 52.6094 62.3853 52.4052 58.6767C52.2009 54.9735 54.8727 51.8141 58.3724 51.6293ZM17.7055 34.5435C23.3747 30.6609 29.6677 28.3335 36.5844 27.5613C39.5708 27.2296 42.905 27.2133 46.5814 27.507C46.6587 27.507 46.7194 27.5722 46.7249 27.6429L46.747 27.8006C46.7636 27.9583 46.6421 28.0997 46.482 28.1106C40.1283 28.4477 34.0617 29.7039 28.2711 31.8736C24.694 33.2167 20.8354 35.5441 17.573 37.8389C16.9823 38.2521 16.1488 37.9911 15.917 37.3168C15.5306 36.213 16.8885 35.1036 17.7055 34.5435ZM46.598 58.5244C46.5152 62.2331 43.6557 65.1858 40.2056 65.1151C36.7555 65.0444 34.0231 61.9775 34.1003 58.2689C34.1831 54.5602 37.0426 51.6075 40.4927 51.6782C43.9428 51.7489 46.6752 54.8158 46.598 58.5244ZM21.8898 65.1749C18.3955 65.1097 15.6189 62.0699 15.6906 58.3885C15.7624 54.7071 18.655 51.7761 22.1492 51.8413C25.6435 51.9066 28.4201 54.9463 28.3483 58.6278C28.2766 62.3092 25.384 65.2402 21.8898 65.1749ZM81.8772 68.3669C79.3545 76.1431 72.7855 83.3373 65.6977 87.6659C58.0633 92.3261 49.2697 95.2408 40.7852 95.6377C40.1615 95.6649 39.5322 95.6377 38.8973 95.5453C38.6048 95.5018 38.3122 95.6377 38.1632 95.8879C34.9449 101.206 31.4341 106.388 27.6362 111.44C27.5203 111.592 27.3878 111.712 27.2388 111.804C26.4384 112.283 26.2672 112.12 26.7144 111.31C27.4762 109.934 28.3207 108.536 29.2426 107.112C32.1848 102.571 35.105 98.0304 38.0031 93.4952C38.1024 93.3375 38.2736 93.2397 38.4613 93.2233C58.5215 91.8149 77.8144 80.0909 80.867 59.2586C81.259 56.5777 81.3252 54.5004 81.0602 53.0268C80.8284 51.7489 80.6959 50.6613 80.6683 49.7586C80.6573 49.378 80.7566 49.3508 80.9664 49.6716C81.3528 50.2644 81.673 50.9713 81.9269 51.7924C82.6985 54.2985 83.1222 56.7872 83.1981 59.2586C83.2921 62.3213 82.8518 65.3575 81.8772 68.3669Z" fill="white"/>
<path d="M81.0602 53.0268C81.3252 54.5004 81.259 56.5777 80.867 59.2586H83.1981C83.1222 56.7872 82.6985 54.2985 81.9269 51.7924C81.673 50.9713 81.3528 50.2644 80.9664 49.6716C80.7566 49.3508 80.6573 49.378 80.6683 49.7586C80.6959 50.6613 80.8284 51.7489 81.0602 53.0268Z" fill="white"/>
<path d="M85.0458 54.2394C84.9796 54.9627 84.9299 55.9143 85.0403 56.6484C85.1604 57.4706 85.2517 58.2789 85.3142 59.0732H86.4013C86.1487 57.4537 85.7705 55.8352 85.2666 54.2177C85.1507 53.8533 85.0789 53.8588 85.0458 54.2394Z" fill="white"/>
</g>
<defs>
<clipPath id="clip0_1050_23164">
<rect width="150" height="120" fill="white"/>
</clipPath>
</defs>
</svg>
