<svg width="150" height="120" viewBox="0 0 150 120" fill="none" xmlns="http://www.w3.org/2000/svg">
<path d="M69.4356 50.3954C70.6045 49.584 71.9551 49.0727 73.3683 48.9068C74.7815 48.7409 76.2138 48.9254 77.5389 49.444C80.4461 50.6148 82.4944 53.3212 83.6388 56.231C84.22 57.5876 84.5134 59.05 84.5004 60.5258C84.3973 63.0736 83.0177 65.3888 81.4716 67.416C81.3579 67.564 81.2073 67.7252 81.0328 67.7305C80.8672 67.7121 80.7154 67.6295 80.61 67.5005C76.857 63.9141 74.0845 59.4475 71.3597 55.0338C70.3554 53.4242 69.3273 51.7011 69.4356 50.3954Z" fill="#0FDAC2"/>
<path d="M81.0215 68.7597C80.5946 68.7423 80.1919 68.5571 79.9009 68.2443C76.029 64.5442 73.2063 59.9851 70.4788 55.574C69.2683 53.6209 68.2772 51.8739 68.42 50.304C68.4341 50.1562 68.48 50.0131 68.5543 49.8845C68.6286 49.7559 68.7297 49.6448 68.8508 49.5587C70.1626 48.6534 71.6765 48.0837 73.2597 47.8994C74.8429 47.7151 76.4471 47.9218 77.9319 48.5015C80.8391 49.6671 83.1966 52.2836 84.6053 55.8648C85.2845 57.588 85.5858 59.1288 85.5251 60.5745C85.4008 63.635 83.6169 66.307 82.2875 68.0487C82.1506 68.2539 81.9688 68.4253 81.7559 68.5499C81.5429 68.6744 81.3045 68.7489 81.0585 68.7676L81.0215 68.7597ZM70.492 50.9463C70.6691 51.9823 71.5888 53.4676 72.2258 54.4984C74.7974 58.6531 77.4535 62.9558 80.9475 66.4048C82.0602 64.893 83.3763 62.7602 83.4688 60.4899C83.5164 59.3349 83.2601 58.0663 82.6892 56.6127C81.5078 53.6077 79.4912 51.3453 77.1628 50.4045C76.0827 49.9836 74.9212 49.8132 73.7658 49.9062C72.6103 49.9991 71.491 50.3529 70.492 50.941V50.9463Z" fill="#0FDAC2"/>
<path d="M30.5374 68.5254C26.7447 71.4326 24.1758 73.1717 21.369 75.3706C18.5622 77.5695 16.7597 80.1279 15.877 83.5822C14.4366 89.2355 18.0389 94.8808 21.8738 99.2786C22.7566 100.291 23.6816 101.3 24.8313 101.996C28.6741 104.319 33.619 102.524 37.5967 100.441C40.9038 98.7345 44.0835 96.7913 47.1112 94.627C43.1627 91.4714 39.3965 88.0197 36.4734 83.8888C33.5503 79.7579 31.5073 74.9239 30.5374 68.5254Z" fill="white"/>
<path d="M115.425 2.03823C115.021 1.99186 114.613 2.09462 114.28 2.32723C113.946 2.55984 113.708 2.90629 113.612 3.30156C113.559 3.70141 113.656 4.10669 113.884 4.43911C114.113 4.77152 114.456 5.00748 114.849 5.1014C115.66 5.28904 116.569 4.77896 116.765 4.01779C116.811 3.79949 116.813 3.5741 116.77 3.3551C116.727 3.13609 116.641 2.92797 116.516 2.74318C116.39 2.55838 116.229 2.40071 116.042 2.27959C115.855 2.15846 115.645 2.07638 115.425 2.03823Z" fill="white"/>
<path d="M115.195 6.16852C114.998 6.16875 114.801 6.14659 114.608 6.10245C113.957 5.94869 113.388 5.555 113.014 4.99995C112.64 4.44489 112.489 3.76931 112.592 3.108C112.737 2.45155 113.123 1.87329 113.673 1.48727C114.223 1.10125 114.899 0.935503 115.565 1.02273C115.929 1.07449 116.277 1.20339 116.586 1.40077C116.896 1.59814 117.159 1.85944 117.36 2.16712C117.567 2.47351 117.709 2.81951 117.776 3.18339C117.844 3.54726 117.835 3.92112 117.751 4.28147C117.587 4.83054 117.249 5.31149 116.788 5.65185C116.327 5.99221 115.768 6.17354 115.195 6.16852ZM115.195 3.0525C115.063 3.05916 114.936 3.10494 114.83 3.18401C114.724 3.26307 114.644 3.37186 114.601 3.49651C114.599 3.63385 114.643 3.76776 114.727 3.87695C114.81 3.98614 114.927 4.06433 115.06 4.09911C115.196 4.12598 115.336 4.10771 115.461 4.04709C115.585 3.98646 115.685 3.88683 115.748 3.76345C115.77 3.60247 115.73 3.43899 115.637 3.30622C115.597 3.23616 115.543 3.17595 115.477 3.13015C115.411 3.08436 115.335 3.05419 115.256 3.04193H115.195V3.0525Z" fill="white"/>
<path d="M45.8551 90.1522C45.6482 90.1523 45.446 90.09 45.275 89.9734C45.104 89.8568 44.9722 89.6913 44.8968 89.4985C44.8214 89.3058 44.806 89.0948 44.8525 88.8931C44.8989 88.6914 45.0052 88.5085 45.1574 88.3682C51.914 82.1736 59.7689 77.2964 68.3175 73.988C68.4442 73.9356 68.5802 73.9092 68.7173 73.9102C68.8545 73.9112 68.99 73.9396 69.116 73.9938C69.242 74.048 69.3559 74.1268 69.4509 74.2257C69.546 74.3246 69.6203 74.4414 69.6695 74.5695C69.7187 74.6975 69.7417 74.834 69.7374 74.9711C69.733 75.1082 69.7012 75.243 69.6439 75.3676C69.5867 75.4922 69.505 75.6041 69.4039 75.6967C69.3027 75.7893 69.184 75.8607 69.0548 75.9067C64.1982 77.7842 59.562 80.1887 55.2296 83.077C63.9751 78.8113 71.1613 76.1895 77.0233 75.1138C77.2918 75.0648 77.5687 75.1244 77.7932 75.2795C78.0178 75.4346 78.1715 75.6726 78.2205 75.9411C78.2696 76.2096 78.21 76.4865 78.0549 76.711C77.8997 76.9356 77.6618 77.0893 77.3933 77.1383C69.7869 78.5312 59.342 82.8682 46.3494 90.0227C46.1984 90.1073 46.0282 90.1518 45.8551 90.1522Z" fill="#D1D1D1"/>
<path d="M20.8241 86.9393C20.6313 86.9368 20.443 86.8803 20.2807 86.7761C20.1184 86.672 19.9885 86.5244 19.906 86.3501C19.8234 86.1758 19.7913 85.9818 19.8135 85.7903C19.8356 85.5987 19.9111 85.4172 20.0312 85.2663C21.7441 83.1369 23.6518 81.1717 25.7294 79.3964C25.8322 79.3087 25.9511 79.2422 26.0796 79.2005C26.208 79.1589 26.3434 79.1429 26.4781 79.1536C26.6127 79.1643 26.7439 79.2014 26.8641 79.2627C26.9844 79.3241 27.0914 79.4086 27.1791 79.5113C27.2667 79.6141 27.3333 79.733 27.3749 79.8615C27.4166 79.9899 27.4325 80.1253 27.4218 80.26C27.4111 80.3946 27.3741 80.5258 27.3127 80.646C27.2513 80.7663 27.1668 80.8733 27.0641 80.961C25.0835 82.6511 23.266 84.5235 21.6355 86.5534C21.5383 86.675 21.4148 86.7728 21.2742 86.8397C21.1337 86.9065 20.9798 86.9406 20.8241 86.9393Z" fill="#0FDAC2"/>
<path d="M23.9779 93.2855C23.7575 93.2857 23.5428 93.2149 23.3657 93.0838C23.1885 92.9526 23.0581 92.768 22.9939 92.5572C22.9296 92.3463 22.9348 92.1204 23.0087 91.9127C23.0827 91.705 23.2214 91.5266 23.4044 91.4038C25.7645 89.818 27.9978 88.1873 30.0435 86.554C30.2573 86.3922 30.5258 86.3203 30.7918 86.3537C31.0579 86.3871 31.3004 86.5231 31.4675 86.7327C31.6347 86.9423 31.7135 87.2089 31.6869 87.4757C31.6603 87.7425 31.5305 87.9884 31.3253 88.1609C29.2347 89.8286 26.9565 91.4936 24.5514 93.1085C24.3823 93.2235 24.1825 93.2852 23.9779 93.2855Z" fill="#0FDAC2"/>
<path d="M28.4231 98.442C28.1795 98.4425 27.9436 98.3566 27.7575 98.1995C27.5714 98.0423 27.4471 97.8242 27.4068 97.584C27.3664 97.3437 27.4128 97.097 27.5374 96.8877C27.6621 96.6784 27.857 96.5202 28.0875 96.4413C30.8248 95.5002 33.4905 94.3625 36.0638 93.0372C36.3052 92.9198 36.5828 92.9014 36.8375 92.986C37.0922 93.0706 37.3037 93.2514 37.4269 93.4898C37.5501 93.7282 37.5752 94.0054 37.4968 94.262C37.4184 94.5187 37.2428 94.7345 37.0074 94.8634C34.3452 96.2344 31.5876 97.4118 28.7561 98.3865C28.6488 98.4227 28.5364 98.4414 28.4231 98.442Z" fill="#0FDAC2"/>
<path fill-rule="evenodd" clip-rule="evenodd" d="M65.4823 21.2701C66.6442 21.2295 67.7752 21.4859 68.4859 21.7681L68.764 21.89L68.765 21.891C76.9977 25.9232 82.9233 32.8178 88.0203 39.5254C94.1304 47.5629 101.572 58.4844 104.118 70.8744L104.314 71.8868C104.756 74.3442 105.031 77.441 104.059 80.4378L104.058 80.4368C103.814 81.3172 103.307 82.1028 102.601 82.6844L102.579 82.7034L102.555 82.7205C102.159 83.0082 101.714 83.212 101.246 83.331C101.114 83.3912 100.975 83.4389 100.832 83.4691C100.578 83.5226 100.317 83.5248 100.062 83.4786V83.4805C87.4776 81.3555 74.2862 82.9902 62.4729 87.8784C62.5972 88.121 62.7021 88.3737 62.7852 88.6346C63.0378 89.3903 63.1045 90.1908 62.9871 90.9697C64.2568 91.5465 65.2985 92.5639 65.7994 93.8429L65.9108 94.1619L65.9137 94.1695C66.0931 94.765 66.1522 95.391 66.087 96.0095C66.0218 96.6262 65.834 97.2247 65.5356 97.7684C65.4933 97.8501 65.4468 97.9298 65.3994 98.0084C66.4565 98.5154 67.5216 99.0066 68.5945 99.4807L69.3087 99.7921C71.3429 100.681 73.5649 101.65 75.5275 103.125L75.9161 103.427C78.6599 105.631 80.2936 108.628 80.2216 111.691V111.697L80.2206 111.704C80.1455 113.692 79.2996 115.573 77.8636 116.949C76.7072 118.09 75.1561 118.742 73.5324 118.769H73.3647L73.3514 118.768C71.2909 118.71 69.565 117.615 68.3878 116.883L41.8214 100.417C40.7341 101.043 39.6325 101.646 38.5159 102.22L38.5149 102.219C34.934 104.092 31.759 105.084 28.9535 105.088L28.9544 105.089C27.1416 105.119 25.3561 104.643 23.7985 103.715L23.7928 103.712C22.3727 102.853 21.2811 101.652 20.3605 100.594C14.8402 94.2638 12.5539 88.4967 13.9332 83.0862L14.1265 82.3863C15.1531 78.9322 17.0919 76.1809 20.1301 73.7962L20.131 73.7952C21.5805 72.6608 22.9813 71.6366 24.4518 70.5621C25.9227 69.4873 27.4584 68.3614 29.3144 66.9365L29.3154 66.9356C29.5915 66.7243 29.9184 66.5882 30.2629 66.5413C30.3914 66.5238 30.5212 66.5186 30.6496 66.5261C44.2543 55.6913 54.6934 41.3671 60.8368 25.0575C60.9279 24.7626 61.0362 24.4726 61.1596 24.189L61.3243 23.7395C61.4406 23.415 61.6378 23.129 61.8929 22.9062C62.8444 21.6927 64.2734 21.3123 65.4823 21.2701ZM74.2637 117.728C74.0175 117.768 73.7673 117.79 73.5152 117.794L73.7733 117.784C73.9381 117.773 74.1017 117.754 74.2637 117.728ZM79.0759 112.931C79.1474 112.623 79.1989 112.31 79.2264 111.993L79.2464 111.668C79.2302 112.096 79.1717 112.519 79.0759 112.931ZM78.4978 108.174C78.671 108.554 78.8141 108.94 78.9283 109.33C78.7898 108.858 78.6082 108.39 78.3836 107.933L78.4978 108.174ZM77.3684 106.295C77.6535 106.671 77.9092 107.058 78.1321 107.454C77.8646 106.979 77.5508 106.516 77.1941 106.07L77.3684 106.295ZM32.5895 103.586C31.2858 103.938 30.0703 104.114 28.9373 104.114C29.0991 104.114 29.2635 104.111 29.4287 104.103C29.594 104.096 29.7609 104.085 29.9296 104.071C30.6043 104.013 31.3065 103.899 32.0371 103.726C32.2198 103.683 32.4033 103.637 32.5895 103.586ZM38.0683 101.352C37.1886 101.812 36.3402 102.215 35.5217 102.561C35.931 102.388 36.3477 102.201 36.7722 102C37.1966 101.798 37.6284 101.582 38.0683 101.352ZM70.6096 101.439C70.3202 101.306 70.0306 101.175 69.7411 101.047L68.204 100.374L68.9164 100.686C69.4781 100.932 70.0449 101.18 70.6096 101.439ZM22.6547 98.6036C23.503 99.5761 24.3462 100.498 25.3689 101.117C25.4775 101.183 25.589 101.244 25.7012 101.303C25.6772 101.29 25.6527 101.278 25.6289 101.265L25.3708 101.117C24.348 100.498 23.5031 99.5762 22.6547 98.6036ZM29.2696 72.5544C28.9905 72.6957 28.6807 72.7713 28.3649 72.7715H28.3554C28.3099 72.7711 28.2643 72.7683 28.2192 72.7648C27.7308 73.125 27.2651 73.4686 26.8202 73.7981L26.8126 73.8038C25.3585 74.8594 23.9947 75.8622 22.6157 76.9513L22.6109 76.9551C20.0603 78.9459 18.5596 81.2049 17.8264 84.091L17.8254 84.0957C16.8849 87.7196 18.3729 92.0576 22.9385 97.438L23.3899 97.9617L23.3909 97.9627C24.2461 98.9432 24.9989 99.753 25.8746 100.283C28.1314 101.647 31.5445 101.356 36.6731 98.6674L36.6779 98.6646C37.5347 98.2216 38.3828 97.7613 39.2225 97.2875C39.2684 97.0503 39.3556 96.8205 39.4854 96.6113C39.7616 96.1663 40.2014 95.8468 40.7101 95.7218C41.0757 95.6322 41.4566 95.6487 41.8091 95.7637C42.3376 95.4385 42.8615 95.1052 43.3823 94.7676C43.462 94.629 43.5584 94.4999 43.669 94.3838C39.8809 91.1661 37.0961 88.2249 34.8541 85.0614L34.297 84.2557C31.9321 80.7326 30.3013 76.9296 29.2696 72.5544ZM40.1777 97.8656C39.7656 98.1018 39.351 98.3334 38.9349 98.5627C39.3513 98.3337 39.7665 98.1028 40.1787 97.8665L40.1777 97.8656ZM58.1988 95.3523C59.3549 96.0051 60.5214 96.6391 61.6996 97.2513L61.7005 97.2504L60.5177 96.6275C59.7397 96.2116 58.9669 95.7862 58.1988 95.3523ZM41.2386 96.6409C41.1399 96.6358 41.0401 96.6445 40.9424 96.6685L40.9415 96.6694C41.2026 96.6053 41.4786 96.6458 41.71 96.7828L41.8576 96.8742L41.8586 96.8732L41.71 96.7828C41.6522 96.7486 41.5925 96.7201 41.53 96.698C41.4361 96.6647 41.3378 96.6459 41.2386 96.6409ZM65.1156 95.9076C65.1072 95.9868 65.0947 96.0654 65.0813 96.1437C65.0844 96.126 65.09 96.1082 65.0927 96.0904L65.1156 95.9076ZM58.7807 89.5345C57.2622 90.2699 55.7709 91.061 54.3123 91.9068C56.7029 93.4018 59.148 94.8068 61.6424 96.119C61.7083 96.0896 61.7761 96.0631 61.8453 96.0409L61.8929 96.019C61.9372 95.9928 61.9738 95.9536 61.9967 95.9066L62.0072 95.8847L62.0186 95.8637C62.1034 95.7089 62.1244 95.5276 62.0796 95.3571C61.9597 95.0052 61.4846 94.5715 60.811 94.4857C60.237 94.436 59.6943 94.1992 59.2692 93.8086L59.2568 93.7972L59.2454 93.7848C58.8218 93.3678 58.5801 92.8421 58.554 92.2487C58.5299 91.6975 58.6944 91.1556 58.9454 90.6507C59.0497 90.4109 59.063 90.1403 58.9816 89.8916C58.9383 89.7596 58.869 89.6388 58.7807 89.5345ZM61.9319 91.263C61.9029 91.3718 61.8693 91.4801 61.831 91.5868C63.3322 91.9912 64.5529 93.0824 64.9785 94.4514C65.0007 94.5251 65.02 94.5995 65.0375 94.6743C65.0341 94.6596 65.0326 94.6442 65.0289 94.6295L64.9804 94.4514C64.6346 93.3393 63.7629 92.4103 62.6433 91.8839C62.3849 91.7624 62.1135 91.6617 61.8319 91.5858C61.8701 91.4794 61.903 91.3716 61.9319 91.263ZM61.2139 34.3752C54.5972 48.214 44.8873 60.3814 32.8057 69.9173C33.7579 74.9043 35.4653 79.0047 38.1121 82.7424C40.2599 85.7747 43.0063 88.6389 46.9298 91.9011C59.2984 83.1416 74.5414 78.4408 89.7097 78.5684C83.3979 74.4151 77.7842 68.8217 73.2019 62.0986C67.9791 54.4335 64.0615 45.3536 61.2139 34.3752ZM61.552 88.2222C61.6777 88.4513 61.7816 88.6926 61.8605 88.9431C62.04 89.4802 62.1035 90.0456 62.051 90.6021L62.0691 90.2669C62.0741 89.8203 62.0041 89.3726 61.8605 88.9431C61.7618 88.63 61.6251 88.3312 61.4539 88.0527L61.552 88.2222ZM60.9958 87.446C61.0346 87.4884 61.0721 87.5315 61.1091 87.5756C61.1935 87.6761 61.2734 87.78 61.3472 87.8879L61.2329 87.7289C61.1932 87.6766 61.1524 87.625 61.1101 87.5746C61.0732 87.5307 61.0345 87.4883 60.9958 87.446ZM16.5874 85.829C16.6094 85.293 16.677 84.7663 16.7874 84.249L16.8816 83.851C17.0135 83.3318 17.1694 82.8316 17.3492 82.3482C17.1694 82.8317 17.0117 83.3317 16.8797 83.851C16.7124 84.4958 16.6151 85.1549 16.5874 85.829ZM32.619 73.3991C33.6561 77.0818 35.1901 80.3054 37.315 83.3062C37.4695 83.5243 37.6277 83.7412 37.7883 83.9576L37.3169 83.3062C35.1918 80.3053 33.656 77.0821 32.619 73.3991ZM103.161 71.0716C103.69 73.6272 104.157 76.968 103.129 80.1369C102.943 80.8408 102.541 81.4691 101.98 81.932C102.541 81.4691 102.945 80.8406 103.131 80.1369C104.159 76.9682 103.69 73.6271 103.161 71.0716ZM100.399 80.4073C100.307 80.4189 100.197 80.4219 100.064 80.4102C100.066 80.4105 100.068 80.4108 100.07 80.4111C100.2 80.4222 100.308 80.419 100.399 80.4073ZM99.4654 80.2911C99.5416 80.3131 99.6134 80.3326 99.6816 80.3483C99.7582 80.3602 99.8346 80.3733 99.9111 80.3854C99.8353 80.3729 99.7595 80.3601 99.6835 80.3483C99.6149 80.3325 99.5422 80.3132 99.4654 80.2911ZM65.7803 25.2689C65.5115 25.2648 65.2958 25.2933 65.1499 25.3404C65.0211 25.382 65.0093 25.416 65.0242 25.3965C64.9797 25.471 64.9381 25.549 64.8985 25.6289C64.7998 25.8978 64.7003 26.1667 64.5994 26.4346C64.3798 27.2485 64.3223 28.2179 64.3766 29.2316C64.4551 30.6959 64.7569 32.0913 64.9632 32.9029C67.7164 43.6896 71.5075 52.4937 76.5046 59.8416C82.4919 68.6143 90.2709 75.2579 99.0131 79.0855H99.015C99.4167 79.2622 99.7102 79.3517 99.9149 79.3978C99.993 79.41 100.071 79.4235 100.149 79.4359C100.173 79.3875 100.192 79.3366 100.203 79.2836L100.214 79.2369L100.228 79.1921C100.922 77.0482 100.721 74.6543 100.344 72.5534L100.175 71.6725C97.8068 60.1484 90.7686 49.7796 84.8099 41.9367C79.8932 35.4646 74.3969 29.111 66.9955 25.4813C66.8627 25.4184 66.3421 25.2777 65.7803 25.2689ZM21.0719 76.9703C21.216 76.8411 21.3644 76.7133 21.5157 76.5865L22.0109 76.1866C21.6826 76.4429 21.369 76.7039 21.0719 76.9703ZM27.9916 71.7192C27.3752 72.1745 26.7932 72.6034 26.2384 73.0143C25.3725 73.6429 24.5355 74.2567 23.7051 74.8819C24.1866 74.5193 24.6708 74.1605 25.1613 73.801L26.2403 73.0143C26.7948 72.6035 27.3773 72.1753 27.9935 71.7201L27.9916 71.7192ZM31.7362 69.5164C31.9664 70.8168 32.2486 72.0598 32.58 73.2553C32.2486 72.0595 31.9684 70.8153 31.7381 69.5145L31.7362 69.5164ZM28.963 71.603C28.7881 71.7283 28.5782 71.7952 28.363 71.7953L28.3649 71.7963C28.5799 71.796 28.7902 71.7282 28.9649 71.603C29.0747 71.5234 29.1833 71.4423 29.2925 71.362C29.1827 71.4423 29.0731 71.5231 28.963 71.603ZM75.6989 60.3921C75.9449 60.7525 76.1955 61.1082 76.4475 61.4615C76.3902 61.3812 76.3321 61.3013 76.2751 61.2206L75.6989 60.3921ZM87.2431 40.1149C87.9955 41.1045 88.7659 42.1365 89.544 43.2071C89.1602 42.6791 88.7792 42.1597 88.4002 41.651L87.2431 40.1149ZM61.5101 31.401C61.5249 31.3676 61.54 31.3344 61.5548 31.301V31.2991C61.5398 31.333 61.5251 31.3671 61.5101 31.401ZM64.1937 24.8842C64.123 25.0016 64.0586 25.1236 63.9985 25.2489C63.9705 25.3254 63.9429 25.402 63.9147 25.4784C63.9426 25.4029 63.9718 25.3274 63.9995 25.2518C64.0598 25.1258 64.1227 25.0022 64.1937 24.8842Z" fill="white"/>
<path fill-rule="evenodd" clip-rule="evenodd" d="M125.799 44.8814C129.152 43.2318 132.875 42.461 136.615 42.6481H136.617C136.88 42.6617 137.137 42.7276 137.374 42.8405C137.612 42.9535 137.826 43.1118 138.002 43.3071C138.178 43.5024 138.314 43.7308 138.402 43.9785C138.49 44.2262 138.528 44.4893 138.514 44.7518C138.501 45.0144 138.436 45.2724 138.323 45.5099C138.21 45.7472 138.051 45.9604 137.856 46.1365C137.661 46.3126 137.432 46.4485 137.185 46.5365C136.937 46.6245 136.673 46.6633 136.41 46.6498C133.162 46.4826 129.93 47.2008 127.058 48.7259C128.828 50.1705 130.121 52.3529 129.893 54.899L129.894 54.8999C129.812 56.0024 129.397 57.0554 128.706 57.9179L128.695 57.9322L128.682 57.9465C128.206 58.4952 127.614 58.9325 126.949 59.2254C126.292 59.5148 125.579 59.6557 124.861 59.6407L124.842 59.6416C124.015 59.6458 123.197 59.4679 122.446 59.1216C121.694 58.7745 121.026 58.2659 120.492 57.6322L120.487 57.6265L120.482 57.6198C118.977 55.7753 118.713 53.1399 119.603 50.8106C118.554 50.983 117.372 51.3399 116.002 51.9058C115.25 52.2164 114.482 52.5688 113.722 52.921L113.723 52.9219C112.028 53.7113 110.19 54.5562 108.2 55.0628L108.181 55.0675L108.162 55.0714C107.657 55.1789 107.129 55.0866 106.69 54.8142C106.251 54.5418 105.934 54.1102 105.805 53.6095C105.677 53.1087 105.747 52.5769 106.001 52.1267C106.256 51.6769 106.674 51.3422 107.169 51.1934L107.188 51.1877L107.208 51.183C108.814 50.7727 110.331 50.0732 112.042 49.2859C112.818 48.9267 113.645 48.5477 114.474 48.2107C117.553 46.9292 120.217 46.4383 122.679 46.8098C123.444 46.2049 124.266 45.6733 125.133 45.2232L125.799 44.8814ZM125.294 58.6531C125.15 58.6652 125.005 58.6702 124.859 58.6664H124.861C125.006 58.6702 125.15 58.6651 125.294 58.6531ZM124.076 58.6083C124.327 58.6485 124.581 58.6667 124.837 58.6655C124.495 58.6672 124.156 58.6324 123.824 58.5607L124.076 58.6083ZM126.436 58.3807C126.344 58.4174 126.253 58.452 126.159 58.4817C126.225 58.461 126.29 58.4391 126.354 58.415L126.436 58.3807ZM124.6 56.5999C124.681 56.6067 124.763 56.611 124.844 56.6103C124.86 56.611 124.877 56.6091 124.893 56.6094C124.877 56.6091 124.861 56.61 124.845 56.6094C124.763 56.61 124.682 56.6067 124.6 56.5999ZM123.301 50.4125C123.072 50.6995 122.868 51.0066 122.693 51.3296C121.9 52.8228 121.95 54.622 122.833 55.7056C123.083 55.9922 123.392 56.222 123.74 56.378C123.783 56.3975 123.827 56.4151 123.872 56.4322L123.74 56.378C123.392 56.222 123.083 55.9922 122.833 55.7056C121.95 54.622 121.9 52.8228 122.693 51.3296C122.927 50.8992 123.211 50.4968 123.539 50.1325L123.301 50.4125ZM128.936 54.5809C128.933 54.6631 128.927 54.7456 128.919 54.8285C128.935 54.6626 128.943 54.4981 128.943 54.3352L128.936 54.5809ZM123.828 51.342C123.729 51.488 123.635 51.6389 123.551 51.7944C122.899 53.0286 123.018 54.3724 123.581 55.0771C123.736 55.2517 123.927 55.3925 124.14 55.4885C124.359 55.5868 124.598 55.6361 124.838 55.6342H124.861L124.886 55.6351C125.026 55.6409 125.166 55.6163 125.296 55.5628C125.413 55.5143 125.518 55.4417 125.608 55.3523C125.774 55.1217 125.875 54.8491 125.894 54.5647L125.895 54.5533L125.896 54.5409C126.007 53.3241 125.12 52.0664 123.828 51.342ZM127.87 51.0154C128.492 51.9179 128.89 52.9635 128.938 54.0924C128.925 53.7699 128.883 53.4541 128.815 53.1467C128.781 52.9929 128.74 52.841 128.694 52.6915C128.508 52.0935 128.225 51.5311 127.87 51.0154ZM115.628 51.0039C115.546 51.0379 115.464 51.0739 115.382 51.1087L115.628 51.0039ZM126.14 49.2478C126.237 49.3191 126.333 49.3912 126.426 49.4669C126.794 49.7647 127.135 50.0957 127.44 50.4554C127.237 50.2156 127.018 49.9883 126.785 49.7754C126.58 49.5877 126.364 49.4127 126.14 49.2478ZM125.574 48.4669C125.467 48.5358 125.361 48.6065 125.257 48.6783C125.393 48.7538 125.528 48.8336 125.66 48.9174L125.257 48.6783C125.466 48.5347 125.681 48.3962 125.898 48.264L125.574 48.4669ZM122.069 47.7155C122.367 47.7458 122.66 47.7891 122.949 47.846L122.509 47.7698C122.364 47.7482 122.217 47.7305 122.069 47.7155ZM136.857 45.6185C136.826 45.6297 136.793 45.639 136.761 45.647L136.857 45.6185ZM137.441 45.0909C137.383 45.2127 137.302 45.3224 137.202 45.4128C137.169 45.4423 137.133 45.4687 137.097 45.4937C137.106 45.4876 137.116 45.4829 137.125 45.4766L137.202 45.4128C137.252 45.3677 137.298 45.318 137.338 45.2642C137.378 45.2104 137.412 45.1518 137.441 45.0909ZM137.54 44.7023C137.538 44.7463 137.531 44.7896 137.523 44.8328C137.525 44.8226 137.529 44.8125 137.53 44.8023L137.54 44.7023ZM137.276 43.9604C137.367 44.0607 137.437 44.178 137.482 44.3052C137.493 44.3368 137.503 44.3689 137.511 44.4014L137.482 44.3052C137.448 44.21 137.401 44.1206 137.341 44.0395C137.321 44.0123 137.299 43.9856 137.276 43.9604ZM136.566 43.6224C136.7 43.6293 136.832 43.6626 136.954 43.7205C136.893 43.6916 136.83 43.6693 136.766 43.6528C136.701 43.6364 136.633 43.6258 136.566 43.6224Z" fill="white"/>
<path fill-rule="evenodd" clip-rule="evenodd" d="M134.708 15.2999C135.188 15.3191 135.646 15.5113 135.997 15.8398C136.348 16.1683 136.569 16.6124 136.62 17.0903C136.671 17.5683 136.547 18.0494 136.273 18.4445L136.27 18.4492L120.449 40.9587C120.26 41.2281 120.006 41.4475 119.712 41.5958C119.418 41.744 119.091 41.8172 118.762 41.8091C118.432 41.801 118.109 41.7117 117.823 41.5491C117.536 41.3865 117.293 41.1555 117.117 40.8768L114.17 36.2046L102.334 44.7642L102.335 44.7652C101.989 45.0218 101.569 45.1592 101.139 45.1594L101.14 45.1604C101.138 45.1604 101.137 45.1596 101.136 45.1594L101.133 45.1604C100.771 45.1608 100.415 45.0628 100.104 44.8766C99.7905 44.6892 99.5345 44.4198 99.3635 44.0976C99.1926 43.7753 99.1127 43.4123 99.1331 43.0481C99.1535 42.6853 99.2724 42.3342 99.4769 42.0339C104.213 35.0467 109.08 28.001 113.938 21.0958C114.134 20.8166 114.398 20.5919 114.705 20.4434C115.013 20.2944 115.354 20.2265 115.696 20.2473C116.033 20.2668 116.359 20.3713 116.645 20.5501C116.896 20.7071 117.108 20.9174 117.268 21.1653L117.334 21.2729L117.339 21.2815L117.343 21.2901L120.099 26.4451L133.375 15.7389L133.379 15.7351C133.755 15.4356 134.227 15.2807 134.708 15.2999ZM135.471 17.8883L119.65 40.3977C119.603 40.4654 119.547 40.5266 119.485 40.5806C119.516 40.5542 119.546 40.5267 119.573 40.4968L119.652 40.3977L135.471 17.8883ZM115.347 26.0575C113.317 28.9568 111.287 31.8757 109.272 34.7999L113.549 31.7105L113.551 31.7086C113.773 31.5495 114.026 31.4366 114.292 31.3782C114.559 31.3198 114.836 31.3167 115.104 31.3686C115.372 31.4207 115.627 31.5271 115.852 31.681C116.021 31.7964 116.172 31.9369 116.298 32.0972L116.416 32.2648L118.902 36.197L124.791 27.826L120.737 31.0953L120.736 31.0944C120.506 31.2804 120.238 31.4141 119.95 31.4839C119.662 31.5538 119.361 31.5588 119.07 31.4982C118.779 31.4374 118.505 31.3131 118.268 31.1334C118.035 30.9563 117.845 30.7296 117.708 30.4706L115.347 26.0575ZM115.301 32.4867C115.335 32.5101 115.368 32.5365 115.399 32.5638C115.394 32.5597 115.39 32.5545 115.386 32.5505L115.303 32.4867C115.293 32.4799 115.282 32.475 115.271 32.4686C115.281 32.4748 115.291 32.4802 115.301 32.4867ZM114.708 32.3076C114.777 32.3068 114.847 32.3134 114.916 32.3267C114.954 32.3341 114.992 32.3436 115.029 32.3553C115.026 32.3542 115.023 32.3524 115.02 32.3515L114.918 32.3257C114.849 32.3123 114.778 32.3065 114.708 32.3076ZM120.124 30.3363C120.005 30.4321 119.868 30.5004 119.72 30.5363C119.683 30.5453 119.645 30.5525 119.607 30.5573L119.72 30.5363C119.831 30.5094 119.937 30.4643 120.032 30.403C120.064 30.3826 120.094 30.3601 120.124 30.3363ZM116.482 21.75L119.793 27.945L119.794 27.944L116.483 21.7491C116.462 21.7128 116.439 21.6787 116.414 21.6453C116.439 21.6787 116.461 21.7137 116.482 21.75ZM116.127 21.3767C116.198 21.4214 116.264 21.4747 116.322 21.5348C116.294 21.506 116.264 21.4784 116.233 21.4529L116.127 21.3767ZM115.506 21.2215C115.549 21.2186 115.593 21.2188 115.636 21.2215C115.68 21.224 115.723 21.2289 115.766 21.2367L115.637 21.2205C115.593 21.2179 115.549 21.2185 115.506 21.2215ZM135.649 17.1931C135.652 17.2238 135.655 17.2549 135.655 17.2855L135.65 17.1931C135.649 17.1767 135.643 17.1608 135.641 17.1445C135.643 17.1607 135.647 17.1768 135.649 17.1931ZM135.329 16.5512C135.352 16.5723 135.374 16.5941 135.394 16.6169L135.329 16.5512ZM134.668 16.2751L134.759 16.2827C134.729 16.2788 134.698 16.2763 134.668 16.2751ZM129.581 22.71L129.583 22.709L125.498 26.0022L129.581 22.71Z" fill="white"/>
<path fill-rule="evenodd" clip-rule="evenodd" d="M100.45 11.9943C100.713 11.9977 100.973 12.0534 101.215 12.1572C101.456 12.2609 101.675 12.4109 101.859 12.599C102.042 12.7874 102.188 13.0109 102.285 13.2552C102.383 13.4993 102.431 13.7609 102.427 14.0237V14.0323C102.348 17.6809 101.544 21.2781 100.062 24.6128C98.5789 27.9474 96.4465 30.9535 93.7905 33.4562L93.7876 33.459C93.4202 33.8025 92.9363 33.9949 92.4334 33.9971H92.4277C92.0257 33.9963 91.6329 33.8743 91.3011 33.6476C90.9691 33.4206 90.7125 33.0983 90.5658 32.7238C90.4193 32.3495 90.3888 31.9396 90.4782 31.5477C90.5678 31.1558 90.7732 30.7995 91.0677 30.5258C93.3292 28.3917 95.1442 25.8289 96.4065 22.9871C97.5908 20.3207 98.2672 17.4576 98.4017 14.5466L98.4207 13.9637C98.4252 13.7037 98.4809 13.4467 98.5836 13.2076C98.6874 12.966 98.8381 12.7464 99.0264 12.5628C99.2147 12.3795 99.4376 12.2346 99.6816 12.1372C99.9258 12.0398 100.187 11.9909 100.45 11.9943ZM93.121 32.7467C93.094 32.7719 93.0645 32.7942 93.0353 32.8162C93.0392 32.8132 93.0447 32.8116 93.0486 32.8086L93.121 32.7467ZM99.1693 24.2166C98.9045 24.8121 98.6172 25.3962 98.3102 25.9689C98.5136 25.5894 98.71 25.2053 98.895 24.8156L99.1693 24.2166ZM101.451 14.0114C101.428 15.0975 101.337 16.1787 101.182 17.2493C101.306 16.3955 101.39 15.5348 101.43 14.6704L101.451 14.0114ZM101.378 13.6171C101.394 13.659 101.408 13.7021 101.419 13.7457C101.416 13.7348 101.415 13.7231 101.412 13.7123L101.38 13.6161C101.371 13.5954 101.36 13.5762 101.35 13.5561C101.36 13.5762 101.369 13.5964 101.378 13.6171ZM101.16 13.28C101.191 13.3123 101.219 13.3477 101.246 13.3838C101.24 13.3748 101.234 13.3649 101.227 13.3561L101.16 13.28ZM100.829 13.0533C100.867 13.0695 100.903 13.0881 100.939 13.1085C100.933 13.105 100.927 13.1006 100.921 13.0971L100.829 13.0533ZM100.436 12.9695C100.473 12.97 100.511 12.9726 100.548 12.9771C100.545 12.9767 100.542 12.9765 100.539 12.9762L100.438 12.9695H100.436Z" fill="white"/>
<path fill-rule="evenodd" clip-rule="evenodd" d="M106.968 92.7062C107.475 92.6983 107.966 92.8825 108.342 93.2223C108.716 93.5601 108.949 94.0266 108.994 94.528L109.085 95.4451C109.306 97.5858 109.622 99.7113 110.586 101.427C111.336 102.761 112.747 103.977 114.232 104.188C114.697 104.138 115.165 104.132 115.63 104.174H115.632C116.119 104.219 116.574 104.441 116.908 104.798C117.243 105.155 117.436 105.623 117.45 106.112C117.464 106.601 117.298 107.079 116.985 107.454C116.71 107.782 116.338 108.013 115.926 108.114L115.746 108.15C115.287 108.219 114.823 108.239 114.36 108.217C113.004 108.49 111.738 109.601 111.021 110.841C109.967 112.663 109.656 114.882 109.336 117.263C109.272 117.736 109.042 118.172 108.686 118.49C108.33 118.808 107.872 118.989 107.394 118.999L107.339 119L107.285 118.995L107.255 118.993C106.818 118.973 106.397 118.813 106.059 118.531C105.699 118.23 105.455 117.811 105.372 117.349C105.119 115.943 104.298 113.657 102.944 111.788C101.584 109.911 99.8435 108.65 97.7587 108.787L97.7578 108.786C97.504 108.806 97.2486 108.778 97.0054 108.703C96.7545 108.624 96.5207 108.498 96.3188 108.329C95.9109 107.989 95.6544 107.499 95.6065 106.97C95.5588 106.441 95.7234 105.914 96.0636 105.507C96.399 105.105 96.8786 104.851 97.3988 104.798C100.518 104.442 102.281 103.817 103.305 102.096C104.531 100.038 104.81 97.4895 104.999 94.5889C105.029 94.0867 105.248 93.6142 105.611 93.2652C105.976 92.9138 106.461 92.714 106.968 92.7062ZM106.993 117.959C107.016 117.968 107.039 117.974 107.063 117.981C107.011 117.966 106.96 117.948 106.911 117.925L106.993 117.959ZM108.035 117.762C108.006 117.788 107.975 117.811 107.944 117.834C107.951 117.829 107.958 117.826 107.965 117.821L108.035 117.762ZM100.353 108.289C100.892 108.527 101.396 108.843 101.864 109.217C101.981 109.31 102.096 109.407 102.209 109.507C102.773 110.008 103.281 110.59 103.734 111.215L103.456 110.845C102.554 109.694 101.45 108.722 100.15 108.204L100.353 108.289ZM110.177 110.351C110.104 110.477 110.034 110.605 109.968 110.735L110.177 110.351ZM107.122 103.453C107.005 103.684 106.882 103.912 106.752 104.135L106.751 104.136C106.06 105.316 105.096 106.3 103.95 107.014C105.085 107.971 106.029 109.146 106.794 110.362C107.01 109.843 107.256 109.334 107.533 108.843L107.535 108.839C108.077 107.886 108.772 107.034 109.589 106.313C108.598 105.525 107.76 104.556 107.122 103.453ZM114.279 107.238C113.51 107.372 112.787 107.711 112.148 108.17C112.604 107.842 113.104 107.576 113.632 107.402C113.738 107.367 113.845 107.336 113.952 107.308C114.06 107.281 114.169 107.257 114.279 107.238ZM97.6949 107.814C98.0162 107.793 98.3289 107.8 98.633 107.83C98.7091 107.838 98.7846 107.847 98.8596 107.858C99.1593 107.901 99.4506 107.967 99.7329 108.055C99.0974 107.856 98.4179 107.766 97.6949 107.814ZM115.601 107.186C115.392 107.217 115.181 107.235 114.97 107.245C115.071 107.24 115.171 107.235 115.271 107.225L115.601 107.186ZM102.069 106.855L102.059 106.854L102.06 106.855H102.069ZM107.934 102.909L108.086 103.168C108.293 103.505 108.522 103.828 108.77 104.135C108.459 103.751 108.18 103.341 107.934 102.909ZM107.069 100.97C107.184 101.305 107.314 101.635 107.458 101.958L107.253 101.468C107.188 101.303 107.126 101.137 107.069 100.97Z" fill="#0FDAC2"/>
<path fill-rule="evenodd" clip-rule="evenodd" d="M20.7766 33.5432C21.2836 33.5354 21.7747 33.7204 22.1508 34.0603C22.5249 34.3986 22.7563 34.8657 22.8013 35.3679H22.8032C22.9953 37.4135 23.1855 39.2985 23.9441 40.8676L24.1041 41.1771C24.6907 42.2493 25.7719 43.1945 26.862 43.3713C27.257 43.331 27.6549 43.3272 28.0506 43.3628H28.0525C28.5397 43.4073 28.9942 43.6282 29.3295 43.9846C29.6648 44.3412 29.8578 44.8087 29.8724 45.2979C29.8868 45.787 29.722 46.2649 29.4086 46.6407C29.0954 47.0159 28.6555 47.2631 28.1724 47.3369C27.7792 47.3976 27.3812 47.4179 26.9839 47.4007C25.9886 47.6287 25.0217 48.4894 24.4593 49.4825C23.607 50.9929 23.3482 52.8565 23.0813 54.8898V54.8955C23.0151 55.3747 22.7767 55.8142 22.4118 56.1317C22.0629 56.4351 21.6203 56.6063 21.1594 56.6202L21.1604 56.6212C21.078 56.6265 20.9952 56.6265 20.9128 56.6212L20.888 56.6193L20.8633 56.6164C20.3393 56.5556 19.8603 56.2903 19.5309 55.8784C19.2022 55.4667 19.0486 54.9412 19.1043 54.4175C19.2986 52.5707 19.3336 51.3265 18.8243 50.4377L18.8234 50.4367C18.477 49.8311 17.851 49.3725 16.9292 48.9968C16.0008 48.6185 14.9003 48.3731 13.7141 48.1111C13.3646 48.0334 12.9975 47.9541 12.6427 47.8702L12.6389 47.8692L12.496 47.8349L12.4598 47.8254C11.9598 47.6845 11.5339 47.3543 11.2723 46.9054C11.0108 46.4564 10.9338 45.9225 11.058 45.4179C11.1823 44.9133 11.4978 44.4762 11.938 44.1999C12.3233 43.958 12.7781 43.8562 13.2265 43.9065L13.4179 43.937L13.4303 43.9399L13.5341 43.9627C14.2014 44.1088 14.9463 43.9414 15.674 43.5075C16.4026 43.073 17.0351 42.4146 17.4301 41.74C18.4187 40.0307 18.651 37.8976 18.8081 35.4288C18.8377 34.9258 19.0553 34.4517 19.4186 34.1022C19.784 33.7508 20.2696 33.5511 20.7766 33.5432ZM20.7823 55.605C20.813 55.6149 20.844 55.6248 20.8756 55.6317L20.9756 55.6479C20.9095 55.6402 20.8449 55.625 20.7823 55.605ZM21.7718 55.3955C21.7439 55.4197 21.7142 55.4413 21.6842 55.4622C21.6889 55.4589 21.6947 55.457 21.6994 55.4536L21.7718 55.3955ZM20.2928 55.2689C20.2506 55.2161 20.2139 55.1595 20.1833 55.1003L20.2338 55.1879C20.2519 55.2159 20.2718 55.2425 20.2928 55.2689ZM19.67 49.9529C19.6388 49.8984 19.6058 49.8442 19.5719 49.792L19.67 49.9529ZM17.0073 47.9825C17.6956 48.2373 18.3201 48.5507 18.8272 48.9682C18.8755 49.008 18.9229 49.0484 18.9691 49.0901C19.0611 49.1732 19.149 49.2599 19.2319 49.351C18.6715 48.7348 17.8921 48.3099 17.0073 47.9825ZM20.8918 43.7465L20.8852 43.7589C20.4638 44.4734 19.9475 45.1243 19.3538 45.696C20.0317 46.0496 20.6749 46.4918 21.2404 47.0559C21.6055 46.4842 22.0368 45.9588 22.5222 45.4874C21.9135 44.9562 21.379 44.344 20.9337 43.6675C20.9192 43.6934 20.9066 43.7208 20.8918 43.7465ZM28.66 46.015C28.6359 46.044 28.6089 46.071 28.582 46.0969C28.5863 46.0927 28.5919 46.0898 28.5962 46.0855L28.66 46.015ZM12.0046 45.6512C11.9967 45.6834 11.9903 45.7158 11.9856 45.7484L12.0046 45.6512ZM21.4404 42.6266C21.5596 42.8408 21.6883 43.049 21.8261 43.2504C21.872 43.3175 21.9191 43.3838 21.967 43.4494C22.0629 43.5807 22.1625 43.7092 22.2661 43.8342C22.4214 44.0217 22.5856 44.2017 22.7575 44.3741C22.9865 44.6038 23.23 44.8192 23.486 45.0198C22.6536 44.3673 21.957 43.5551 21.4404 42.6266C21.3871 42.5287 21.3353 42.429 21.2851 42.3295L21.4404 42.6266ZM20.0452 43.2628C19.8871 43.5309 19.7129 43.788 19.5262 44.0351C19.6185 43.9129 19.7093 43.7893 19.7947 43.6618L20.0452 43.2628ZM23.386 41.8819C23.3878 41.8848 23.3899 41.8875 23.3917 41.8904C23.387 41.8828 23.3821 41.8752 23.3774 41.8676L23.386 41.8819Z" fill="#0FDAC2"/>
</svg>
