<svg width="150" height="120" viewBox="0 0 150 120" fill="none" xmlns="http://www.w3.org/2000/svg">
<g clip-path="url(#clip0_142_2119)">
<path d="M128.332 99.7567L130.309 38.7137L115.113 38.1289L113.465 99.1812L128.332 99.7567Z" fill="#0FDAC2"/>
<path d="M117.259 8.52734L99.0547 20.2143L108.631 19.1823L111.505 28.2485L117.259 8.52734Z" fill="white"/>
<path fill-rule="evenodd" clip-rule="evenodd" d="M130.396 36.5123H130.398C130.981 36.5361 131.531 36.7888 131.929 37.2154C132.327 37.6419 132.54 38.2085 132.523 38.7915V38.7945L130.562 99.8248V99.8287C130.541 100.402 130.3 100.946 129.888 101.345C129.476 101.745 128.925 101.969 128.351 101.972H128.268L128.248 101.971L113.381 101.399H113.378C112.796 101.375 112.246 101.122 111.848 100.696C111.45 100.269 111.236 99.7028 111.253 99.1197L112.901 38.0708L112.917 37.8501C112.944 37.6316 113.004 37.4177 113.095 37.2164C113.216 36.948 113.389 36.7057 113.606 36.5054L113.615 36.4966C114.048 36.1064 114.618 35.9028 115.199 35.9283L130.396 36.5123ZM131.523 38.7632L129.562 99.7935L129.563 99.7925L131.524 38.7623C131.525 38.7243 131.523 38.6865 131.521 38.649C131.523 38.6868 131.524 38.725 131.523 38.7632ZM114.716 98.0113L127.157 98.4927L114.717 98.0103L114.716 98.0113ZM115.743 97.0494L126.191 97.4537L128.025 40.8423L117.272 40.4283L115.743 97.0494ZM130.919 37.6763C131.021 37.7357 131.115 37.8102 131.197 37.898C131.25 37.9549 131.296 38.0166 131.337 38.0816C131.317 38.0501 131.297 38.0186 131.275 37.9888L131.198 37.897C131.088 37.78 130.958 37.6872 130.815 37.6216L130.919 37.6763ZM115.161 36.9263C114.92 36.9147 114.682 36.9758 114.477 37.0982C114.681 36.9761 114.919 36.9157 115.16 36.9273L130.357 37.5123L115.161 36.9263Z" fill="#0FDAC2"/>
<path fill-rule="evenodd" clip-rule="evenodd" d="M7.30983 80.0923L14.5901 80.3326L14.5891 80.3335C14.8748 80.3404 15.1571 80.4015 15.4192 80.5152C15.6858 80.6309 15.9278 80.7982 16.1301 81.0074C16.3326 81.2167 16.4921 81.4644 16.5989 81.7349C16.7057 82.0054 16.758 82.2947 16.7532 82.5855C16.7483 82.8765 16.6854 83.1643 16.5696 83.4312C16.4538 83.698 16.2866 83.9398 16.0774 84.1421C15.8683 84.3444 15.6213 84.504 15.3508 84.6109C15.0853 84.7157 14.8012 84.7668 14.5159 84.7642L14.4426 84.7652L7.18288 84.524C7.17915 84.5239 7.17489 84.5241 7.17116 84.524H7.1653C6.58398 84.5104 6.03045 84.2689 5.62526 83.8511C5.21612 83.4291 4.99122 82.8617 5.00026 82.274C5.00935 81.6861 5.25208 81.1255 5.67409 80.7164C6.0924 80.311 6.65361 80.0865 7.23561 80.0914H7.29323L7.30983 80.0923ZM14.9085 83.7056C14.8932 83.7105 14.878 83.7159 14.8626 83.7203C14.8649 83.7196 14.868 83.72 14.8704 83.7193L14.9085 83.7056ZM15.0911 83.6314C15.0753 83.6395 15.0584 83.6455 15.0423 83.6529C15.0947 83.6288 15.1462 83.603 15.1946 83.5718L15.0911 83.6314ZM7.11452 81.0953C7.03515 81.1019 6.95698 81.1165 6.88112 81.1382C6.99495 81.1056 7.1141 81.0905 7.23464 81.0923H7.27565L14.5559 81.3326L7.27663 81.0914H7.23561C7.19524 81.0907 7.15441 81.0919 7.11452 81.0953Z" fill="#0FDAC2"/>
<path fill-rule="evenodd" clip-rule="evenodd" d="M117.339 6.31206C117.789 6.3288 118.225 6.4818 118.585 6.75151C118.946 7.02121 119.215 7.39483 119.359 7.82182C119.502 8.24908 119.511 8.71052 119.386 9.14311V9.14507L113.635 28.8785L113.634 28.8804C113.5 29.3355 113.224 29.7362 112.846 30.023C112.468 30.3095 112.008 30.4677 111.534 30.4742L111.25 30.4781L111.186 30.44C110.83 30.3878 110.49 30.2509 110.198 30.0367C109.819 29.7592 109.537 29.368 109.395 28.9205L107.828 23.9781C91.1906 47.1052 66.1736 63.955 38.4114 70.5445L38.3977 70.5474L38.3831 70.5503C38.2215 70.5837 38.0565 70.5972 37.8919 70.5943V70.5962C37.3513 70.5923 36.8305 70.3907 36.428 70.0298C36.0255 69.6687 35.7687 69.1725 35.7063 68.6353C35.644 68.0982 35.7802 67.5565 36.0891 67.1128C36.3983 66.6692 36.8597 66.3538 37.385 66.2261L37.3899 66.2242C63.8932 59.9349 87.8259 43.917 103.847 21.9205L99.2923 22.4185H99.2874C98.7917 22.4704 98.2926 22.3539 97.8714 22.0874C97.4501 21.8209 97.1305 21.42 96.9651 20.9498C96.7998 20.4795 96.7984 19.9663 96.9602 19.4947C97.1221 19.0234 97.4378 18.6198 97.8567 18.3501L116.063 6.65971L116.065 6.65874C116.444 6.41644 116.889 6.29543 117.339 6.31206ZM118.425 8.86577L112.674 28.5992C112.663 28.6375 112.649 28.6747 112.634 28.7115C112.637 28.7045 112.641 28.6979 112.644 28.691L112.675 28.5982L118.426 8.86479C118.441 8.81152 118.451 8.75713 118.459 8.70268C118.451 8.75737 118.441 8.81225 118.425 8.86577ZM109.905 19.1851L111.457 24.0738V24.0708L109.906 19.1841C109.907 19.182 109.907 19.1794 109.908 19.1773C109.907 19.1798 109.906 19.1826 109.905 19.1851ZM109.152 16.3619C109.479 16.4047 109.797 16.5194 110.078 16.7037C110.569 17.0248 110.913 17.5273 111.033 18.1011C111.114 18.4825 111.09 18.8742 110.972 19.2388L111.416 20.6382L113.469 13.5884L109.152 16.3619ZM104.045 18.4537L104.046 18.4527L115.175 11.3042L104.045 18.4537ZM109.206 17.3902C109.092 17.3569 108.974 17.3414 108.855 17.3423C109.093 17.3405 109.328 17.4083 109.531 17.5406C109.43 17.4745 109.32 17.4235 109.206 17.3902ZM118.41 8.14018C118.449 8.2539 118.468 8.37224 118.472 8.49077C118.47 8.43325 118.466 8.37573 118.456 8.31889L118.41 8.14018ZM117.985 7.55327L117.986 7.55229C117.941 7.5187 117.893 7.48935 117.844 7.46245C117.893 7.48934 117.94 7.51966 117.985 7.55327ZM117.301 7.31108C117.422 7.31556 117.541 7.33924 117.655 7.37846C117.599 7.3593 117.543 7.34261 117.486 7.33159C117.425 7.32004 117.363 7.31339 117.301 7.31108Z" fill="#0FDAC2"/>
<path fill-rule="evenodd" clip-rule="evenodd" d="M8.13307 55.5923L15.4104 55.8365H15.426L15.4417 55.8374C16.0098 55.8743 16.5421 56.1288 16.928 56.5474C17.3138 56.9661 17.5244 57.5171 17.5149 58.0865C17.5054 58.6557 17.2767 59.1995 16.8772 59.605C16.4776 60.0105 15.9365 60.2473 15.3674 60.2652H15.263L7.98561 60.024V60.022C7.70074 60.0154 7.41927 59.9555 7.15749 59.8423C6.89043 59.7268 6.64815 59.56 6.44557 59.3511C6.24298 59.1421 6.08402 58.895 5.97682 58.6246C5.86963 58.354 5.8161 58.0651 5.82057 57.774C5.82508 57.483 5.88675 57.1954 6.00222 56.9283C6.11767 56.6614 6.28534 56.4191 6.4944 56.2164C6.91272 55.811 7.47391 55.5864 8.05593 55.5914H8.11647L8.13307 55.5923ZM16.1643 58.9039C16.1371 58.9315 16.1089 58.9582 16.0794 58.983L16.1643 58.9039ZM7.93483 56.5953C7.85546 56.6019 7.77729 56.6165 7.70143 56.6382C7.81526 56.6056 7.93441 56.5905 8.05495 56.5923H8.0989L15.3762 56.8355L8.09987 56.5914H8.05593C8.01558 56.5907 7.9747 56.5919 7.93483 56.5953Z" fill="#0FDAC2"/>
<path fill-rule="evenodd" clip-rule="evenodd" d="M8.07839 33.7056L15.3557 33.9458L15.3548 33.9468C15.6403 33.9537 15.9227 34.0147 16.1848 34.1285C16.4515 34.2443 16.6935 34.4116 16.8958 34.6207C17.0981 34.8299 17.2567 35.0777 17.3635 35.3482C17.4704 35.6188 17.5236 35.9079 17.5188 36.1988C17.514 36.4895 17.4511 36.7773 17.3352 37.0445C17.2193 37.3115 17.052 37.5533 16.843 37.7554C16.6339 37.9576 16.3869 38.1173 16.1165 38.2242C15.851 38.329 15.5669 38.3801 15.2815 38.3775L15.2083 38.3785L7.93093 38.1373V38.1353C7.34953 38.1218 6.79604 37.8822 6.39089 37.4644C5.98174 37.0424 5.75686 36.475 5.76589 35.8873C5.77498 35.2995 6.01761 34.7389 6.43972 34.3296C6.85803 33.9243 7.41922 33.6997 8.00124 33.7046H8.06179L8.07839 33.7056ZM15.6741 37.3189C15.6588 37.3238 15.6437 37.3292 15.6282 37.3335C15.6305 37.3329 15.6337 37.3332 15.636 37.3326L15.6741 37.3189ZM16.176 35.3169C16.2037 35.3455 16.2305 35.3748 16.2551 35.4058L16.177 35.316C16.1659 35.3044 16.1525 35.2948 16.1409 35.2837C16.1525 35.2948 16.1649 35.3054 16.176 35.3169ZM7.88015 34.7085C7.80078 34.7152 7.7226 34.7297 7.64675 34.7515C7.76057 34.7189 7.87972 34.7038 8.00026 34.7056H8.04421L15.3216 34.9458L8.04518 34.7046H8.00124C7.96089 34.704 7.92001 34.7052 7.88015 34.7085Z" fill="#0FDAC2"/>
<path fill-rule="evenodd" clip-rule="evenodd" d="M16.8919 11.8433L16.8909 11.8443C17.4728 11.8582 18.027 12.0995 18.4319 12.5181C18.8403 12.9405 19.0646 13.5086 19.0549 14.0962C19.0451 14.6839 18.8016 15.2442 18.3792 15.6529C17.9606 16.0576 17.3994 16.2802 16.8176 16.2749L16.7434 16.2759L9.46608 16.0318V16.0298C9.18114 16.0262 8.89905 15.9693 8.636 15.8589C8.36106 15.7435 8.1122 15.5736 7.90456 15.3599C7.697 15.1462 7.53454 14.8929 7.42702 14.6148C7.31951 14.3366 7.26864 14.0396 7.27858 13.7417C7.28856 13.444 7.35877 13.1508 7.48464 12.8804C7.6104 12.6103 7.78948 12.368 8.011 12.1685C8.23263 11.9691 8.49284 11.816 8.77468 11.7193C9.04419 11.6269 9.32924 11.5887 9.61354 11.604L9.61452 11.6031L16.8919 11.8433ZM18.0266 14.313C18.0346 14.2756 18.0427 14.238 18.0471 14.1998L18.0549 14.0796C18.0596 13.7976 17.9658 13.5235 17.7923 13.3042L17.7132 13.2134C17.6579 13.1563 17.5968 13.1058 17.5325 13.0611C17.5968 13.1058 17.657 13.1573 17.7122 13.2144C17.9364 13.4463 18.0594 13.758 18.054 14.0806C18.0526 14.1594 18.0428 14.2371 18.0266 14.313ZM9.58132 12.6021C9.41823 12.5904 9.25356 12.6116 9.0989 12.6646C8.98285 12.7044 8.87331 12.7621 8.77468 12.8345L8.87624 12.7681C8.94653 12.7267 9.02135 12.6912 9.0989 12.6646C9.25354 12.6116 9.41727 12.5914 9.58034 12.6031L16.8577 12.8433C16.975 12.8453 17.0904 12.8646 17.2005 12.899C17.1284 12.8765 17.0544 12.8599 16.9788 12.8511C16.9391 12.8465 16.898 12.844 16.8577 12.8433L9.58132 12.6021Z" fill="#0FDAC2"/>
<path fill-rule="evenodd" clip-rule="evenodd" d="M17.3946 -0.986328C17.6105 -0.962197 17.8222 -0.906263 18.0226 -0.820312C18.2898 -0.70558 18.5324 -0.539311 18.7355 -0.331055C18.9387 -0.122535 19.0993 0.124345 19.2071 0.394531C19.3151 0.664938 19.3681 0.954075 19.3644 1.24512L17.9855 111.786C43.3729 111.279 68.7824 111.049 95.507 110.81C110.831 110.669 126.667 110.528 142.526 110.328H142.58L142.606 110.329C143.173 110.358 143.708 110.604 144.1 111.016C144.491 111.428 144.709 111.975 144.709 112.543C144.709 113.111 144.491 113.658 144.1 114.07C143.708 114.482 143.173 114.728 142.606 114.757L142.586 114.758H142.567C126.697 114.961 110.852 115.102 95.5314 115.239C68.7682 115.482 43.3347 115.713 17.9308 116.222L17.8986 118.812C17.8948 119.103 17.8337 119.391 17.7189 119.658C17.6041 119.926 17.4371 120.168 17.2286 120.371C17.0202 120.574 16.7732 120.734 16.503 120.842C16.2329 120.95 15.9442 121.004 15.6534 121C15.3624 120.996 15.0741 120.935 14.8068 120.82C14.5394 120.705 14.2969 120.538 14.0939 120.33C13.8911 120.122 13.7311 119.876 13.6232 119.605C13.5152 119.335 13.4612 119.046 13.465 118.755L13.4952 116.312C11.8966 116.347 10.2976 116.381 8.69836 116.418L8.68664 116.419H8.6632C8.07893 116.422 7.51625 116.194 7.09875 115.785C6.67917 115.374 6.43975 114.812 6.43371 114.225C6.42776 113.637 6.65552 113.071 7.06652 112.651C7.47773 112.232 8.03944 111.992 8.62707 111.985C10.2684 111.948 11.9094 111.912 13.5499 111.877L14.9318 1.18848V1.18555C14.9407 0.603703 15.178 0.0483017 15.5919 -0.360352C16.0058 -0.76888 16.564 -0.998442 17.1456 -1H17.1769L17.3946 -0.986328ZM15.547 119.992L15.6661 120L15.6681 119.999C15.6196 119.998 15.5715 119.994 15.5236 119.987C15.5314 119.988 15.5391 119.991 15.547 119.992ZM14.5069 115.29L14.465 118.768C14.4629 118.927 14.4927 119.086 14.5519 119.234C14.6111 119.383 14.6992 119.518 14.8107 119.633C14.922 119.747 15.0548 119.838 15.2013 119.901C15.2173 119.908 15.2348 119.912 15.2511 119.918C15.236 119.912 15.22 119.908 15.2052 119.901C15.0586 119.838 14.9259 119.747 14.8146 119.633C14.703 119.518 14.615 119.383 14.5558 119.234C14.4966 119.086 14.4668 118.927 14.4689 118.768L14.5118 115.29C14.5102 115.29 14.5086 115.29 14.5069 115.29ZM8.63781 112.985C8.31533 112.989 8.00709 113.12 7.78136 113.351L7.70129 113.44C7.52608 113.659 7.4308 113.932 7.43371 114.215C7.43707 114.537 7.56856 114.846 7.79894 115.071C8.02938 115.297 8.34065 115.422 8.6632 115.419H8.66711C8.34446 115.422 8.03334 115.297 7.80285 115.071C7.57242 114.846 7.44098 114.537 7.43761 114.215C7.4343 113.892 7.55947 113.581 7.78527 113.351C8.01103 113.12 8.31917 112.989 8.64172 112.985C9.02223 112.977 9.40286 112.968 9.78332 112.96C9.40159 112.969 9.01959 112.977 8.63781 112.985ZM17.1486 0C16.8289 0.000841141 16.5215 0.127013 16.2941 0.351562C16.0667 0.576138 15.9367 0.881635 15.9318 1.20117L14.5382 112.856C14.4998 112.857 14.4614 112.858 14.423 112.858C14.4627 112.858 14.5024 112.857 14.5421 112.856L15.9357 1.20117C15.9406 0.881499 16.0714 0.576165 16.2989 0.351562C16.498 0.15516 16.7574 0.0335931 17.0333 0.00585938L17.1525 0H17.1486ZM142.539 111.328C126.677 111.528 110.84 111.669 95.5157 111.81C88.1183 111.876 80.8222 111.942 73.5997 112.013C80.8234 111.942 88.1209 111.876 95.5196 111.81C107.013 111.704 118.794 111.598 130.658 111.468L142.543 111.328H142.539Z" fill="white"/>
<path fill-rule="evenodd" clip-rule="evenodd" d="M104.864 61.5791C105.158 61.5836 105.447 61.6466 105.716 61.7637C105.985 61.881 106.229 62.0508 106.432 62.2627C106.635 62.4747 106.794 62.7251 106.9 62.999C106.979 63.2042 107.027 63.4199 107.042 63.6387L107.046 63.8584L106.956 67.0713C106.96 67.1488 106.96 67.2266 106.956 67.3047L106.957 67.3057C106.957 67.3085 106.956 67.3116 106.956 67.3145C106.956 67.318 106.956 67.3216 106.956 67.3252L106.955 67.3242C106.953 67.3602 106.95 67.3959 106.946 67.4316L106.055 99.4443C106.038 100.022 105.797 100.571 105.382 100.974C105.019 101.326 104.547 101.542 104.048 101.589L103.833 101.599L87.1798 101.561C86.8871 101.56 86.5965 101.502 86.3263 101.389C86.0557 101.275 85.8104 101.109 85.6046 100.9C85.3981 100.691 85.2352 100.443 85.1261 100.17C85.0169 99.8965 84.9632 99.6036 84.9689 99.3096L85.4415 63.5039C85.4453 63.2129 85.5061 62.9251 85.6212 62.6572C85.7364 62.3894 85.9034 62.1466 86.1124 61.9434C86.3215 61.7401 86.5691 61.5802 86.84 61.4727C87.1108 61.3652 87.4004 61.312 87.6915 61.3164L104.864 61.5791ZM86.8097 62.6602C86.695 62.7717 86.6034 62.9058 86.5402 63.0527L86.4982 63.1641C86.4619 63.2781 86.4431 63.3974 86.4415 63.5176L85.9689 99.3291C85.9658 99.4897 85.9952 99.6496 86.0548 99.7988C86.1144 99.948 86.2036 100.084 86.3165 100.198C86.4297 100.313 86.5645 100.405 86.713 100.467C86.8616 100.529 87.0217 100.56 87.1827 100.561L103.836 100.599L87.1866 100.561C87.0255 100.56 86.8656 100.529 86.7169 100.467C86.5683 100.405 86.4337 100.313 86.3204 100.198C86.2075 100.084 86.1183 99.9481 86.0587 99.7988C85.9991 99.6496 85.9697 99.4898 85.9728 99.3291L86.4454 63.5176C86.4475 63.3577 86.4809 63.1996 86.5441 63.0527C86.6073 62.9057 86.6988 62.7717 86.8136 62.6602C86.8374 62.637 86.8622 62.6148 86.8878 62.5938C86.8614 62.6153 86.8342 62.6363 86.8097 62.6602ZM102.678 97.2471L102.653 98.1611L102.657 98.1621L102.683 97.2451L102.678 97.2471ZM102.829 91.8018L102.759 94.3379L97.2472 97.7422C97.0822 97.8441 96.9441 97.9832 96.8448 98.1475L96.8487 98.1484C96.9481 97.9838 97.0858 97.8443 97.2511 97.7422L102.763 94.3379L102.834 91.7998C102.833 91.8008 102.831 91.8008 102.829 91.8018ZM102.771 88.9141C98.4394 91.8349 93.9204 94.6185 89.3702 97.1953C89.1357 97.3274 88.9507 97.5333 88.8458 97.7812C88.7984 97.8933 88.7692 98.0114 88.757 98.1309H88.7609C88.7731 98.0113 88.8033 97.8934 88.8507 97.7812C88.9556 97.5334 89.1396 97.3273 89.3741 97.1953C93.9243 94.6184 98.4432 91.8349 102.775 88.9141C102.798 88.8985 102.822 88.884 102.846 88.8701C102.821 88.8843 102.795 88.8979 102.771 88.9141ZM101.776 93.6846C99.9568 94.865 98.1117 96.0226 96.2501 97.1475H96.3859C96.4891 97.0524 96.6011 96.9661 96.7218 96.8916L101.775 93.7705L101.776 93.6846ZM101.981 86.3467C97.7933 88.9422 93.5999 91.5879 89.465 94.2412L89.4425 96.001C93.6806 93.5834 97.8848 90.9885 101.927 88.2734L101.981 86.3467ZM88.5157 90.7705V90.7734C88.8949 90.5309 89.2744 90.2883 89.6544 90.0459C89.2749 90.288 88.8944 90.5282 88.5157 90.7705ZM102.189 78.8945C98.0463 81.5877 93.8142 84.2057 89.5655 86.6992L89.5353 88.9326C93.7076 86.2746 97.9272 83.6314 102.128 81.0479L102.189 78.8945ZM103.031 84.5234L102.912 88.833C102.905 88.8368 102.897 88.8418 102.89 88.8457C102.898 88.8412 102.907 88.8373 102.916 88.833L103.036 84.5215C103.035 84.5224 103.033 84.5225 103.031 84.5234ZM103.24 77.0117L103.113 81.6152C100.485 83.2299 97.8479 84.8694 95.2189 86.5215C97.8492 84.8693 100.487 83.2304 103.117 81.6152L103.245 77.0098C103.244 77.0107 103.242 77.0108 103.24 77.0117ZM103.453 69.3809L103.324 74.041C98.5301 77.2337 93.5869 80.3434 88.6144 83.2773V83.2793C93.5881 80.3447 98.5328 77.2345 103.328 74.041L103.458 69.3789L103.453 69.3809ZM89.6515 80.166L89.6339 81.5088C93.9254 78.9423 98.1863 76.2502 102.339 73.4941L102.399 71.3262L89.6515 80.166ZM99.7628 64.9346L103.576 64.9932L103.538 66.3604L88.7023 76.6514V76.6543L103.542 66.3604L103.58 64.9932L99.7628 64.9346ZM100.02 66.0605L100.012 66.0654L89.7472 72.9219L89.7237 74.7256L102.339 65.9736L100.176 65.9414C100.125 65.9827 100.074 66.0235 100.02 66.0605ZM88.8585 64.7686L95.6173 64.8711L88.797 69.4277V69.4297L95.6212 64.8711L88.8585 64.7686ZM89.8185 67.543L92.3946 65.8223L89.8419 65.7832L89.8185 67.543ZM87.6769 62.3164C87.517 62.314 87.3577 62.3434 87.2091 62.4023L87.0997 62.4521C87.0765 62.4641 87.0548 62.4788 87.0323 62.4922C87.0899 62.4574 87.1502 62.4273 87.213 62.4023C87.3612 62.3435 87.5194 62.3142 87.6788 62.3164H87.6769Z" fill="white"/>
<path fill-rule="evenodd" clip-rule="evenodd" d="M77.4112 78.7637H77.4142C77.7069 78.7754 77.9949 78.8452 78.2609 78.9688C78.5268 79.0924 78.7654 79.2674 78.963 79.4834C79.1608 79.6997 79.3147 79.9534 79.4142 80.2295C79.4887 80.4365 79.5313 80.6531 79.5421 80.8721V81.0928L78.6232 99.0811L78.6222 99.0801C78.5956 99.6523 78.3494 100.192 77.9337 100.587C77.5184 100.981 76.9669 101.199 76.3946 101.196L76.338 101.197L76.3214 101.196L60.9376 100.681L60.9103 100.679C60.3275 100.643 59.7819 100.381 59.3907 99.9473C59.1955 99.7312 59.0441 99.4785 58.9464 99.2041C58.8501 98.9333 58.8072 98.6463 58.8204 98.3594L59.5343 80.3145C59.5569 79.731 59.809 79.1801 60.2355 78.7812C60.6621 78.3824 61.2288 78.1678 61.8126 78.1846H61.8214L77.4112 78.7637ZM60.754 99.6465C60.8248 99.6638 60.8971 99.6762 60.9708 99.6807L76.3546 100.197H76.3585L60.9747 99.6807C60.8997 99.6761 60.826 99.6643 60.754 99.6465ZM61.4308 79.2266C61.2409 79.278 61.0643 79.375 60.9181 79.5117L60.8351 79.5977C60.6516 79.8067 60.5441 80.0732 60.5333 80.3535L59.8204 98.3984C59.8122 98.5582 59.8352 98.7184 59.8888 98.8691C59.9424 99.0199 60.0256 99.1587 60.1329 99.2773C60.295 99.457 60.5056 99.5826 60.7364 99.6426C60.507 99.5822 60.2981 99.4561 60.1368 99.2773C60.0295 99.1586 59.9464 99.0199 59.8927 98.8691C59.8391 98.7184 59.8161 98.5583 59.8243 98.3984L60.5372 80.3535C60.5495 80.0332 60.6878 79.7307 60.922 79.5117C61.0674 79.3758 61.2423 79.2783 61.4308 79.2266ZM62.9064 81.6738L76.0382 82.1611L75.2413 97.7217L75.2452 97.7227L76.0431 82.1611L62.9064 81.6738ZM63.3175 96.3193L74.2921 96.6904L74.9874 83.123L63.8624 82.709L63.3175 96.3193Z" fill="white"/>
<path fill-rule="evenodd" clip-rule="evenodd" d="M51.1036 88.0762C51.4023 88.0722 51.6993 88.1287 51.9757 88.2422C52.252 88.3558 52.5025 88.5246 52.712 88.7373C52.9217 88.9502 53.0861 89.2034 53.1954 89.4814C53.3037 89.7566 53.355 90.0507 53.3478 90.3467L53.3487 90.3477L53.1896 98.166C53.1793 98.7465 52.9403 99.2998 52.5255 99.7061C52.1107 100.112 51.553 100.338 50.9728 100.336L50.8986 100.337L35.5431 99.8203H35.5411C34.9713 99.7998 34.4307 99.5612 34.0323 99.1533C33.634 98.7454 33.4084 98.1991 33.4015 97.6289V97.627L33.3663 94.1865V94.1768C33.3663 92.9577 33.3448 91.7428 33.3321 90.5225C33.3288 90.2331 33.3821 89.9446 33.4894 89.6758C33.5971 89.4058 33.7574 89.1592 33.9601 88.9512C34.1628 88.7432 34.4049 88.5767 34.672 88.4619C34.939 88.3473 35.2264 88.287 35.5167 88.2832L51.1036 88.0762ZM35.0665 89.3809C34.9202 89.4437 34.788 89.5354 34.6769 89.6494L34.5978 89.7383C34.5235 89.8312 34.4634 89.935 34.4191 90.0459L34.38 90.1592C34.347 90.2735 34.3306 90.3923 34.3321 90.5117C34.3447 91.7219 34.3663 92.9509 34.3663 94.1768L34.4015 97.6172C34.4053 97.9304 34.5294 98.23 34.7482 98.4541C34.967 98.6782 35.2642 98.81 35.5773 98.8213L50.9327 99.3369H50.9366L35.5812 98.8213C35.268 98.8101 34.971 98.6783 34.7521 98.4541C34.5333 98.23 34.4092 97.9304 34.4054 97.6172L34.3702 94.1768C34.3702 92.9509 34.3486 91.7219 34.3361 90.5117C34.334 90.3524 34.3639 90.1939 34.423 90.0459C34.482 89.8981 34.5697 89.7634 34.6808 89.6494C34.7919 89.5354 34.9241 89.4437 35.0704 89.3809C35.0943 89.3706 35.1192 89.3622 35.1437 89.3535C35.118 89.3625 35.0916 89.3701 35.0665 89.3809ZM49.8898 91.5498L49.7843 96.8652L49.7882 96.8662L49.8946 91.5498H49.8898ZM37.7823 92.7109C37.7883 93.1884 37.7961 93.6687 37.7999 94.1689L37.8136 95.4619L48.8038 95.832L48.8693 92.5635L37.7823 92.7109ZM35.5304 89.2822L35.4112 89.29C35.4027 89.291 35.3943 89.2928 35.3859 89.2939C35.4349 89.2873 35.4846 89.2829 35.5343 89.2822L51.1173 89.0762L35.5304 89.2822Z" fill="white"/>
</g>
<defs>
<clipPath id="clip0_142_2119">
<rect width="150" height="120" fill="white"/>
</clipPath>
</defs>
</svg>
