<?xml version="1.0" encoding="utf-8"?>
<!-- Generator: Adobe Illustrator 24.3.0, SVG Export Plug-In . SVG Version: 6.00 Build 0)  -->
<svg version="1.1" id="Layer_1" xmlns="http://www.w3.org/2000/svg" xmlns:xlink="http://www.w3.org/1999/xlink" x="0px" y="0px"
	 viewBox="0 0 17 17" style="enable-background:new 0 0 17 17;" xml:space="preserve">
<style type="text/css">
	.st0{fill:#754DFF;}
	.st1{fill:#FFFFFF;}
</style>
<g>
	<path class="st0" d="M8.5,0.5c-4.4,0-8,3.6-8,8s3.6,8,8,8s8-3.6,8-8S12.9,0.5,8.5,0.5"/>
	<path class="st1" d="M12.4,6.2C9.5,9,8,12,8,12.1c-0.1,0.1-0.2,0.2-0.3,0.3l0,0c-0.1,0.1-0.2,0.1-0.4,0.1h0c-0.1,0-0.2,0-0.3-0.1
		l0,0l0,0l-0.1,0c-0.1,0-0.1-0.1-0.2-0.1l-0.1-0.1c0,0-0.8-1.2-2-1.9C4.3,10,4.2,9.5,4.5,9.1c0.2-0.4,0.7-0.5,1.1-0.2l0,0
		c0.6,0.4,1.2,0.9,1.7,1.4c1.1-1.9,2.5-3.7,4.1-5.2c0.3-0.3,0.8-0.3,1.1,0c0,0,0,0,0,0C12.7,5.4,12.7,5.9,12.4,6.2
		C12.4,6.2,12.4,6.2,12.4,6.2"/>
</g>
</svg>
