<svg width="18" height="19" viewBox="0 0 18 19" fill="none" xmlns="http://www.w3.org/2000/svg">
<path d="M7.6439 0.757831C6.43721 0.758379 5.24778 1.04456 4.17283 1.59298C3.09789 2.14139 2.16793 2.93648 1.45899 3.91325C0.750052 4.89002 0.282247 6.02074 0.0938159 7.21299C-0.0946155 8.40524 0.00167616 9.62517 0.37482 10.7731C0.747965 11.921 1.38737 12.9642 2.24077 13.8176C3.09417 14.671 4.13733 15.3102 5.285 15.6831C6.43267 16.056 7.65226 16.1519 8.84408 15.963C10.0359 15.7741 11.1661 15.3058 12.1423 14.5963L15.951 18.4062C16.1761 18.6313 16.4814 18.7578 16.7997 18.7578C17.1181 18.7578 17.4234 18.6313 17.6485 18.4062C17.8735 18.181 18 17.8756 18 17.5572C18 17.2388 17.8735 16.9334 17.6485 16.7082L13.8398 12.8984C14.6699 11.757 15.1679 10.4079 15.2785 9.00074C15.3891 7.59358 15.1081 6.18325 14.4665 4.92607C13.8249 3.6689 12.8478 2.61399 11.6436 1.87827C10.4394 1.14254 9.05498 0.754734 7.6439 0.757831ZM7.6439 13.6573C6.6059 13.6573 5.59122 13.3494 4.72816 12.7726C3.8651 12.1957 3.19242 11.3758 2.7952 10.4166C2.39798 9.45728 2.29404 8.40172 2.49655 7.38335C2.69905 6.36499 3.19889 5.42957 3.93286 4.69537C4.66684 3.96117 5.60198 3.46118 6.62003 3.25861C7.63808 3.05605 8.69331 3.16001 9.65229 3.55736C10.6113 3.9547 11.4309 4.62758 12.0076 5.49091C12.5843 6.35423 12.8921 7.36923 12.8921 8.40754C12.8905 9.79939 12.3371 11.1338 11.3532 12.118C10.3693 13.1021 9.03532 13.6558 7.6439 13.6573Z" fill="white"/>
</svg>
