<svg width="26" height="26" viewBox="0 0 26 26" fill="none" xmlns="http://www.w3.org/2000/svg">
<path d="M13.2351 2.30229C16.6481 2.30229 17.0523 2.31726 18.3946 2.37714C19.6421 2.43203 20.3157 2.64161 20.7648 2.81625C21.3586 3.04579 21.7877 3.32522 22.2318 3.76932C22.6809 4.21841 22.9554 4.64255 23.1849 5.23635C23.3596 5.68544 23.5691 6.36406 23.624 7.60655C23.6839 8.95382 23.6989 9.358 23.6989 12.7661C23.6989 16.1792 23.6839 16.5834 23.624 17.9256C23.5691 19.1731 23.3596 19.8468 23.1849 20.2958C22.9554 20.8896 22.6759 21.3188 22.2318 21.7629C21.7827 22.212 21.3586 22.4864 20.7648 22.7159C20.3157 22.8906 19.6371 23.1002 18.3946 23.1551C17.0473 23.2149 16.6432 23.2299 13.2351 23.2299C9.82198 23.2299 9.4178 23.2149 8.07551 23.1551C6.82804 23.1002 6.15441 22.8906 5.70531 22.7159C5.11152 22.4864 4.68239 22.207 4.23829 21.7629C3.7892 21.3138 3.51475 20.8896 3.28522 20.2958C3.11057 19.8468 2.901 19.1681 2.84611 17.9256C2.78623 16.5784 2.77126 16.1742 2.77126 12.7661C2.77126 9.35301 2.78623 8.94883 2.84611 7.60655C2.901 6.35907 3.11057 5.68544 3.28522 5.23635C3.51475 4.64255 3.79419 4.21342 4.23829 3.76932C4.68738 3.32023 5.11152 3.04579 5.70531 2.81625C6.15441 2.64161 6.83303 2.43203 8.07551 2.37714C9.4178 2.31726 9.82198 2.30229 13.2351 2.30229ZM13.2351 0.00195312C9.76709 0.00195312 9.33297 0.0169228 7.97073 0.0768015C6.61347 0.13668 5.68037 0.356235 4.872 0.670599C4.02871 0.999931 3.31516 1.43405 2.60659 2.14761C1.89304 2.85617 1.45892 3.56973 1.12958 4.40803C0.81522 5.22138 0.595665 6.1495 0.535786 7.50675C0.475907 8.87398 0.460938 9.3081 0.460938 12.7761C0.460938 16.2441 0.475907 16.6782 0.535786 18.0404C0.595665 19.3977 0.81522 20.3308 1.12958 21.1391C1.45892 21.9824 1.89304 22.696 2.60659 23.4045C3.31516 24.1131 4.02871 24.5522 4.86701 24.8766C5.68037 25.1909 6.60848 25.4105 7.96574 25.4704C9.32798 25.5302 9.7621 25.5452 13.2301 25.5452C16.698 25.5452 17.1322 25.5302 18.4944 25.4704C19.8517 25.4105 20.7848 25.1909 21.5931 24.8766C22.4314 24.5522 23.145 24.1131 23.8536 23.4045C24.5621 22.696 25.0012 21.9824 25.3256 21.1441C25.6399 20.3308 25.8595 19.4027 25.9194 18.0454C25.9792 16.6832 25.9942 16.249 25.9942 12.7811C25.9942 9.31309 25.9792 8.87897 25.9194 7.51673C25.8595 6.15948 25.6399 5.22637 25.3256 4.41801C25.0112 3.56973 24.5771 2.85617 23.8635 2.14761C23.155 1.43904 22.4414 0.999931 21.6031 0.675588C20.7898 0.361225 19.8616 0.14167 18.5044 0.0817914C17.1372 0.0169228 16.703 0.00195312 13.2351 0.00195312Z" fill="white"/>
<path d="M13.2375 6.21484C9.61483 6.21484 6.67578 9.15389 6.67578 12.7766C6.67578 16.3992 9.61483 19.3383 13.2375 19.3383C16.8601 19.3383 19.7992 16.3992 19.7992 12.7766C19.7992 9.15389 16.8601 6.21484 13.2375 6.21484ZM13.2375 17.0329C10.8872 17.0329 8.98111 15.1268 8.98111 12.7766C8.98111 10.4263 10.8872 8.52017 13.2375 8.52017C15.5877 8.52017 17.4939 10.4263 17.4939 12.7766C17.4939 15.1268 15.5877 17.0329 13.2375 17.0329Z" fill="white"/>
<path d="M21.5911 5.95377C21.5911 6.80206 20.9025 7.48567 20.0592 7.48567C19.211 7.48567 18.5273 6.79707 18.5273 5.95377C18.5273 5.10549 19.2159 4.42188 20.0592 4.42188C20.9025 4.42188 21.5911 5.11048 21.5911 5.95377Z" fill="white"/>
</svg>
