<svg width="27" height="21" viewBox="0 0 27 21" fill="none" xmlns="http://www.w3.org/2000/svg">
<path d="M8.64027 20.7734C18.4492 20.7734 23.8157 13.078 23.8157 6.40666C23.8157 6.19032 23.8107 5.96917 23.8005 5.75284C24.8445 5.03809 25.7454 4.15279 26.4609 3.13851C25.4887 3.54803 24.4564 3.81549 23.3993 3.93175C24.5123 3.30016 25.3457 2.30795 25.7449 1.13906C24.6979 1.72652 23.5528 2.14092 22.3588 2.3645C21.5543 1.55525 20.4907 1.01943 19.3323 0.83988C18.1739 0.660332 16.9852 0.847058 15.9502 1.37119C14.9151 1.89532 14.0912 2.72766 13.6059 3.73953C13.1207 4.75139 13.001 5.88643 13.2654 6.96914C11.1453 6.86842 9.0712 6.34701 7.17758 5.43873C5.28397 4.53045 3.61311 3.25557 2.27332 1.69674C1.59237 2.80821 1.384 4.12344 1.69055 5.37514C1.99711 6.62683 2.79559 7.72106 3.92371 8.43543C3.07678 8.40997 2.24841 8.1941 1.50703 7.80564V7.86814C1.50627 9.03455 1.93221 10.1652 2.71244 11.0679C3.49267 11.9707 4.57904 12.5897 5.78687 12.8199C5.00233 13.0231 4.17892 13.0527 3.38035 12.9064C3.72118 13.9095 4.38431 14.7869 5.27719 15.416C6.17007 16.0452 7.24815 16.3947 8.36098 16.4159C6.47173 17.8209 4.13796 18.5829 1.73555 18.5793C1.3095 18.5787 0.88387 18.5539 0.460938 18.5053C2.90153 19.9876 5.7406 20.7749 8.64027 20.7734Z" fill="white"/>
</svg>
