<svg width="26" height="26" viewBox="0 0 26 26" fill="none" xmlns="http://www.w3.org/2000/svg">
<path d="M23.6532 0H1.88227C0.839385 0 -0.00390625 0.823332 -0.00390625 1.84127V23.702C-0.00390625 24.7199 0.839385 25.5482 1.88227 25.5482H23.6532C24.6961 25.5482 25.5443 24.7199 25.5443 23.707V1.84127C25.5443 0.823332 24.6961 0 23.6532 0ZM7.57574 21.7709H3.78342V9.5756H7.57574V21.7709ZM5.67958 7.91397C4.46205 7.91397 3.47904 6.93096 3.47904 5.71842C3.47904 4.50587 4.46205 3.52286 5.67958 3.52286C6.89212 3.52286 7.87513 4.50587 7.87513 5.71842C7.87513 6.92597 6.89212 7.91397 5.67958 7.91397ZM21.767 21.7709H17.9797V15.8429C17.9797 14.4308 17.9547 12.6095 16.0087 12.6095C14.0376 12.6095 13.7383 14.1513 13.7383 15.7431V21.7709H9.95592V9.5756H13.5886V11.2422H13.6385C14.1424 10.2842 15.3799 9.27122 17.2212 9.27122C21.0584 9.27122 21.767 11.7961 21.767 15.0795V21.7709Z" fill="white"/>
</svg>
