<svg id="Layer_1" data-name="Layer 1" xmlns="http://www.w3.org/2000/svg" viewBox="0 0 649.869 253.23042"><defs><style>.cls-1{fill:#0fdac2;}.cls-2{fill:#643bff;}</style></defs><path class="cls-1" d="M458.58224,92.0726H439.361V121.95a3.77858,3.77858,0,0,0,3.77858,3.77858h11.6641a3.77857,3.77857,0,0,0,3.77857-3.77858Z"/><path class="cls-1" d="M433.13144,159.08393q-6.2336,6.32067-16.3759,6.31989-9.25725,0-14.59436-5.34036-4.60425-4.60425-5.231-12.65412H381.59013a3.77727,3.77727,0,0,0-3.77691,4.06007q1.15668,13.73148,9.21946,22.12146,9.43174,9.79017,24.73913,9.78815,18.86551,0,27.58918-13.70493v11.39238h19.22125V151.18792a3.77857,3.77857,0,0,0-3.77857-3.77858H441.68032a3.78541,3.78541,0,0,0-3.63022,2.77989A20.21512,20.21512,0,0,1,433.13144,159.08393Z"/><path class="cls-1" d="M396.82083,92.0726H377.598V121.95a3.77858,3.77858,0,0,0,3.77858,3.77858h15.44424Z"/><path class="cls-1" d="M589.70427,115.7855q0,4.5584,5.1091,7.19429a75.08014,75.08014,0,0,0,12.26585,4.84376q7.15674,2.20785,14.66394,4.52084a25.39439,25.39439,0,0,1,12.54371,8.56107q5.0315,6.25182,5.034,15.76787,0,13.28091-10.23572,20.84443-10.23948,7.566-25.73325,7.56227-13.64889,0-23.42527-5.71738a33.522,33.522,0,0,1-13.18691-13.732,2.43353,2.43353,0,0,1,.90191-3.24355l12.887-7.48356a2.39874,2.39874,0,0,1,3.362,1.04616q5.27671,10.87017,19.46128,10.86924,15.6765,0,15.68026-10.33335,0-4.42322-5.07406-7.1918a66.56159,66.56159,0,0,0-12.2283-4.97142q-7.153-2.20785-14.66394-4.52084a26.22683,26.22683,0,0,1-12.57876-8.30573q-5.07656-5.99274-5.07405-15.21716a24.92749,24.92749,0,0,1,9.685-20.474q9.68376-7.74626,24.0711-7.74751a40.5963,40.5963,0,0,1,20.38134,5.07406,34.46643,34.46643,0,0,1,12.45813,11.88083,2.43052,2.43052,0,0,1-.84193,3.42161l-12.51542,7.01356a2.39432,2.39432,0,0,1-3.22828-.8749q-5.02069-8.4402-16.25384-8.4393a17.5815,17.5815,0,0,0-9.59239,2.46068A7.99705,7.99705,0,0,0,589.70427,115.7855Z"/><path class="cls-1" d="M78.95188,74.29848s-41.53992,37.37043-22.43418,49.44c0,0-12.90392,9.56711-22.2146,8.43941-8.89049-1.0768-20.69851-13.55532-3.43841-31.47867C48.52632,82.35887,78.95188,74.29848,78.95188,74.29848Z"/><path class="cls-1" d="M11.50535,189.85484c-1.32372.536,41.70038-16.97869,33.72042-54.20424,0,0,4.758-8.3141,14.72331-7.27108,10.46217,1.095,27.7605,16.38192,5.98739,37.56677C44.75705,186.55348,11.50535,189.85484,11.50535,189.85484Z"/><path class="cls-2" d="M103.49595,83.95884l-.31148.35091v7.76286H86.80929v18.51114h16.37518v42.716q0,17.44679,9.61143,23.94022,9.61062,6.495,31.68117,3.82649V163.80127a121.32292,121.32292,0,0,1-12.192.08877q-4.89731-.26629-7.3859-2.66935-2.49464-2.40387-2.49182-7.9209v-42.716h22.06974V92.07261H122.40733V70.89842Z"/><path class="cls-2" d="M280.72137,116.54533a28.51247,28.51247,0,0,1,19.22281-5.24991V90.47005q-20.1146,0-27.41009,16.55342V92.0726H253.31127V121.95a3.77858,3.77858,0,0,0,3.77858,3.77858h14.52393a3.741,3.741,0,0,0,3.39118-2.14717A17.92029,17.92029,0,0,1,280.72137,116.54533Z"/><path class="cls-2" d="M253.31127,181.06647h19.22282V151.18792a3.77858,3.77858,0,0,0-3.77858-3.77858H257.08985a3.77858,3.77858,0,0,0-3.77858,3.77858Z"/><path class="cls-2" d="M345.36736,110.58375H367.4371V92.0726H345.36736V67.15438l-19.223,5.69529V92.0726h-16.3759v18.51115h16.3759V121.95a3.77858,3.77858,0,0,0,3.77858,3.77858h11.66588a3.77858,3.77858,0,0,0,3.77858-3.77858Z"/><path class="cls-2" d="M326.14432,153.29976q0,17.447,9.61062,23.94026,9.61064,6.49518,31.68216,3.82645V163.80138a121.37769,121.37769,0,0,1-12.19283.08876q-4.89742-.26629-7.38527-2.66962-2.49579-2.40366-2.49164-7.92076v-2.11184a3.77858,3.77858,0,0,0-3.77858-3.77858H329.9229a3.77858,3.77858,0,0,0-3.77858,3.77858Z"/><path class="cls-2" d="M193.66147,108.0917q12.10209,0,20.11352,8.0987a39.66116,39.66116,0,0,1,5.18864,7.55888,3.75443,3.75443,0,0,0,3.32161,1.97917h14.94237a3.77857,3.77857,0,0,0,3.77858-3.77857V92.07256h-19.223v12.6368Q210.926,89.75825,190.6356,89.75825q-18.33276,0-31.32534,13.52753-12.995,13.52729-12.99328,33.28294,0,19.58217,12.99328,33.19591Q172.30005,183.379,190.6356,183.379q20.29129,0,31.14757-15.12819V181.0665h19.223V151.188a3.77857,3.77857,0,0,0-3.77858-3.77857H222.58023a3.75021,3.75021,0,0,0-3.3268,1.98911,31.95559,31.95559,0,0,1-5.47844,7.5501,27.3018,27.3018,0,0,1-20.11352,8.09846q-12.10626,0-20.11282-8.09846-8.00922-8.09764-8.00888-20.37994,0-12.28068,8.00888-20.37832Q181.56,108.0924,193.66147,108.0917Z"/><path class="cls-2" d="M158.26733,5.76042s-25.68595-.32108-63.00706,30.98943c0,0-10.27076-6.90953-19.9473.315s-13.3033,9.93277-13.3033,9.93277a46.65534,46.65534,0,0,1,18.62784,1.40769l-4.03185,5.69905a6.21636,6.21636,0,0,0,.09347,7.30947l2.51581,3.36952,2.51581,3.36953A6.21578,6.21578,0,0,0,88.712,70.31954l6.60966-2.24615a46.65558,46.65558,0,0,1-3.94273,18.26s3.62675-2.70781,13.30283-9.93278c9.67655-7.22449,5.97005-19.03565,5.97005-19.03565C151.277,30.4789,158.26733,5.76042,158.26733,5.76042Zm-30.329,31.79651a7.33339,7.33339,0,1,1,1.4888-10.26357A7.33336,7.33336,0,0,1,127.93837,37.55693Z"/><path class="cls-2" d="M66.84968,172.19013c27.91125-20.43328,30.22268-43.06438,5.5108-48.05015-18.6204-3.757-37.317-2.90021-36.71807-10.49221.69462-8.80791,33.931-32.769,44.11062-39.91283a6.19318,6.19318,0,0,1-2.08433-1.74365l-2.54216-3.35006-2.54226-3.3494a6.18421,6.18421,0,0,1-1.20876-3.07513c-8.94376,5.58708-54.66068,35.03275-56.79381,54.44021-1.04213,9.48594,3.62845,14.2865,28.217,18.93113,18.9983,3.58779,28.02225,6.15769,25.51271,14.21836-4.699,15.09153-57.76326,40.51353-57.76326,40.51353S40.38854,191.56235,66.84968,172.19013Z"/><path class="cls-2" d="M533.56115,135.15879c-2.01991-.47867-4.06048-.89746-6.04129-1.50771a11.84043,11.84043,0,0,1-8.254-7.83018c-.69682-2.10323-1.15425-4.28572-1.7174-6.433-.03678-.1403-.05245-.286-.07809-.42924a.97042.97042,0,0,0-.99818-.9238c-.59819-.00185-.86729.38711-.99365.93192-.43666,1.881-.80266,3.78373-1.35048,5.63226a12.54819,12.54819,0,0,1-4.89621,7.23117,19.21176,19.21176,0,0,1-6.254,2.56438c-.662.16315-1.3333.28848-2.00193.42517H209.98038c-1.538-.35265-3.0767-.70529-4.58093-1.16864a11.841,11.841,0,0,1-8.254-7.83029c-.69683-2.10312-1.15426-4.28572-1.7174-6.43305-.03679-.14029-.05245-.286-.0781-.42923a.9704.9704,0,0,0-.99818-.9238c-.59818-.00186-.86717.38711-.99365.932-.43666,1.8809-.80253,3.78362-1.35048,5.63214a12.54869,12.54869,0,0,1-4.89621,7.23129,19.21265,19.21265,0,0,1-6.254,2.56426c-1.23015.30322-2.4777.53611-3.71968.79a.99947.99947,0,0,0-.93656.99388.97014.97014,0,0,0,.916,1.00584c.12266.02309.24786.03539.3682.06649,2.12992.55061,4.29419.997,6.38,1.68178a11.00935,11.00935,0,0,1,6.53795,5.18758,24.39821,24.39821,0,0,1,1.78714,4.29976c.50188,1.60032.79035,3.2684,1.1517,4.91141.12359.56187.35358.97532.9889,1.01837.58705.01335.88492-.35914,1.07314-1.15.4854-2.03917.9137-4.09889,1.53591-6.09711a11.636,11.636,0,0,1,7.51443-8.00806c1.82416-.628,3.71283-1.06931,5.59443-1.5293H500.88081c1.7138.41879,3.434.81878,5.10508,1.36742a11.0094,11.0094,0,0,1,6.53795,5.18759,24.39821,24.39821,0,0,1,1.78714,4.29976c.50187,1.60031.79035,3.26839,1.1517,4.91141.12358.56187.35357.97532.98889,1.01837.58705.01335.88493-.35926,1.07315-1.15.48539-2.03918.9137-4.0989,1.53579-6.09711a11.63644,11.63644,0,0,1,7.51455-8.00807c2.28866-.78791,4.67991-1.27981,7.02984-1.88647.6952-.17939,1.0461-.495,1.03322-1.04285C534.62548,135.62156,534.254,135.323,533.56115,135.15879Z"/><path class="cls-1" d="M550.83133,103.37446Q537.83667,89.75736,519.506,89.75828q-20.29093,0-31.1478,15.12842V92.07259H469.1354v29.87727a3.77861,3.77861,0,0,0,3.77851,3.77863h14.7268a4.26546,4.26546,0,0,0,3.96743-2.74076,12.479,12.479,0,0,1,.71214-1.5467,27.09793,27.09793,0,0,1,4.04772-5.2506q8.00782-8.098,20.11189-8.09869,12.10209,0,20.11235,8.09869,8.01027,8.10009,8.00958,20.37832,0,12.28068-8.00958,20.38-8.00817,8.10252-20.11235,8.09846-12.10626,0-20.11189-8.09846a27.01974,27.01974,0,0,1-4.17862-5.47688,13.52662,13.52662,0,0,1-.59819-1.3499,4.23942,4.23942,0,0,0-3.95744-2.713l-14.24965.00046a4.246,4.246,0,0,0-4.246,4.246l-.00232,81.84945a13.02378,13.02378,0,0,1,19.22244-.78316V168.42811q10.85513,14.95112,31.1478,14.95088,18.33068,0,31.32534-13.52544,12.99015-13.52556,12.99328-33.2848Q563.82461,116.99146,550.83133,103.37446Z"/><path d="M479.0694,247.47013a5.2254,5.2254,0,0,1-5.14476-5.14476,5.05248,5.05248,0,0,1,1.52987-3.64832,4.892,4.892,0,0,1,3.61489-1.56329,4.96819,4.96819,0,0,1,3.67988,1.56329,5.06178,5.06178,0,0,1,1.53173,3.64832,4.945,4.945,0,0,1-1.53173,3.61489A5.01419,5.01419,0,0,1,479.0694,247.47013Z"/><path class="cls-2" d="M556.846,208.39875c-.3344-.02266-.45545-.24029-.5205-.536-.19016-.86477-.342-1.74277-.60618-2.58506a12.84106,12.84106,0,0,0-.94065-2.26311,5.79444,5.79444,0,0,0-3.44114-2.73044c-1.09791-.36046-2.237-.59539-3.35808-.88519-.06337-.01638-.12927-.02284-.19378-.035a.51061.51061,0,0,1-.48219-.52939.52611.52611,0,0,1,.493-.52313c.65367-.13364,1.31035-.25622,1.95779-.41581a10.11219,10.11219,0,0,0,3.29177-1.3497,6.60489,6.60489,0,0,0,2.57707-3.80607c.28836-.97295.481-1.97444.71077-2.96447.06657-.28678.20819-.49154.523-.49056a.51074.51074,0,0,1,.52536.48626c.01352.07535.02176.15208.04112.2259.2964,1.13024.5372,2.279.904,3.386a6.23217,6.23217,0,0,0,4.34441,4.12135c1.04254.32115,2.11659.54161,3.17973.79352.36473.08642.56019.24359.56689.52972.00675.28836-.17792.45448-.54384.54894-1.23685.31926-2.49549.57816-3.70008.99291a6.12457,6.12457,0,0,0-3.9552,4.21493c-.32748,1.05176-.5529,2.13588-.80837,3.20919C557.31176,208.20968,557.155,208.40575,556.846,208.39875Z"/><path d="M124.99014,245.33227l-2.95523-8.36778H102.93667l-2.78863,8.36778H90.25247l16.27175-46.49043h11.35709l16.40048,46.49043ZM105.92219,228.396h13.08555l-6.70937-18.99412Z"/><path d="M163.71954,198.84184a21.18624,21.18624,0,0,1,15.97263,6.70748,24.54323,24.54323,0,0,1,0,33.07547,21.18621,21.18621,0,0,1-15.97263,6.70748h-18.464V198.84184Zm0,37.72319a12.89,12.89,0,0,0,9.82931-4.01729,16.34328,16.34328,0,0,0,0-20.92136,12.89,12.89,0,0,0-9.82931-4.0173h-9.29733v28.956Z"/><path d="M208.50139,245.33227l-15.60725-46.49043H202.856l11.36845,35.74294,11.27947-35.74294h10.03l-15.6754,46.49043Z"/><path d="M246.43944,198.84184h9.1667v46.49043h-9.1667Z"/><path d="M285.84091,246.26182a20.76862,20.76862,0,0,1-11.62213-3.08775,16.51912,16.51912,0,0,1-6.64311-8.40187l7.8377-4.58335q2.72331,7.10788,10.69259,7.10694,3.8507,0,5.64541-1.39526a4.38939,4.38939,0,0,0-.39756-7.33791,33.83092,33.83092,0,0,0-7.8377-2.95522,48.14537,48.14537,0,0,1-5.28-1.861,22.61894,22.61894,0,0,1-4.31641-2.48951,10.14015,10.14015,0,0,1-3.28843-3.951,12.93066,12.93066,0,0,1-1.12832-5.57915,12.447,12.447,0,0,1,4.483-10.06217,16.26194,16.26194,0,0,1,10.79293-3.75225,17.93586,17.93586,0,0,1,9.92775,2.75644,18.507,18.507,0,0,1,6.6753,7.6711l-7.70518,4.44894q-2.78863-5.97766-8.89787-5.97672a7.02119,7.02119,0,0,0-4.48491,1.29493,4.08986,4.08986,0,0,0-1.62622,3.35279,4.22786,4.22786,0,0,0,1.8269,3.55347,25.48248,25.48248,0,0,0,7.0066,2.95523q2.12414.6645,3.22027,1.02988,1.09614.36633,2.98931,1.13022a18.02245,18.02245,0,0,1,2.923,1.42744,23.39294,23.39294,0,0,1,2.357,1.79283,9.207,9.207,0,0,1,2.02569,2.32481,13.33988,13.33988,0,0,1,1.69438,6.575,12.45943,12.45943,0,0,1-4.68369,10.22687Q293.34448,246.26371,285.84091,246.26182Z"/><path d="M353.9314,239.25522a24.452,24.452,0,1,1,7.04068-17.16911A23.37255,23.37255,0,0,1,353.9314,239.25522Zm-27.82762-6.24366a15.48541,15.48541,0,0,0,21.38518,0,16.02072,16.02072,0,0,0,0-21.88308,15.402,15.402,0,0,0-21.38518,0,16.02585,16.02585,0,0,0,0,21.88308Z"/><path d="M399.37774,245.33227l-9.39766-16.13922h-6.94034v16.13922H373.873V198.84184h18.59656a15.41605,15.41605,0,0,1,15.47472,15.40846,14.14757,14.14757,0,0,1-2.45733,8.00241,15.38418,15.38418,0,0,1-6.5068,5.54508l10.29313,17.53448Zm-16.338-37.92386v13.74816h9.42985a5.8339,5.8339,0,0,0,4.45083-2.02569,6.96581,6.96581,0,0,0,1.85908-4.88058,6.84949,6.84949,0,0,0-1.85908-4.84839,5.87913,5.87913,0,0,0-4.45083-1.9935Z"/><path d="M456.57874,198.84184l-15.94044,28.3596v18.13083h-9.09855V227.20333l-15.87418-28.36149h10.36129l10.07353,19.35571,10.11707-19.35571Z"/><path d="M536.50941,245.33227l-2.95523-8.36778H514.45594l-2.78863,8.36778h-9.89557l16.27175-46.49043h11.35709l16.40048,46.49043ZM517.44146,228.396H530.527l-6.70937-18.99412Z"/><path d="M552.5767,245.33227v-33.208h8.56657v33.208Z"/></svg>