<svg width="28" height="29" viewBox="0 0 28 29" fill="none" xmlns="http://www.w3.org/2000/svg">
<g clip-path="url(#clip0_1506_5088)">
<path d="M20.0011 10.1685C20.0011 10.8786 19.4255 11.4542 18.7154 11.4542C18.0053 11.4542 17.4297 10.8786 17.4297 10.1685C17.4297 9.45844 18.0053 8.88281 18.7154 8.88281C19.4255 8.88281 20.0011 9.45844 20.0011 10.1685Z" fill="black"/>
<path fill-rule="evenodd" clip-rule="evenodd" d="M14.0006 19.1691C16.3675 19.1691 18.2863 17.2503 18.2863 14.8834C18.2863 12.5165 16.3675 10.5977 14.0006 10.5977C11.6336 10.5977 9.71484 12.5165 9.71484 14.8834C9.71484 17.2503 11.6336 19.1691 14.0006 19.1691ZM14.0006 17.4548C15.4208 17.4548 16.572 16.3036 16.572 14.8834C16.572 13.4632 15.4208 12.3119 14.0006 12.3119C12.5804 12.3119 11.4291 13.4632 11.4291 14.8834C11.4291 16.3036 12.5804 17.4548 14.0006 17.4548Z" fill="black"/>
<path fill-rule="evenodd" clip-rule="evenodd" d="M5.42969 14.5411C5.42969 11.6608 5.42969 10.2206 5.99022 9.12055C6.48329 8.15285 7.27004 7.3661 8.23774 6.87304C9.33783 6.3125 10.778 6.3125 13.6583 6.3125H14.344C17.2242 6.3125 18.6644 6.3125 19.7645 6.87304C20.7322 7.3661 21.5189 8.15285 22.012 9.12055C22.5725 10.2206 22.5725 11.6608 22.5725 14.5411V15.2268C22.5725 18.107 22.5725 19.5472 22.012 20.6473C21.5189 21.615 20.7322 22.4018 19.7645 22.8948C18.6644 23.4554 17.2242 23.4554 14.344 23.4554H13.6583C10.778 23.4554 9.33783 23.4554 8.23774 22.8948C7.27004 22.4018 6.48329 21.615 5.99022 20.6473C5.42969 19.5472 5.42969 18.107 5.42969 15.2268V14.5411ZM13.6583 8.02679H14.344C15.8124 8.02679 16.8106 8.02812 17.5822 8.09116C18.3338 8.15256 18.7181 8.26386 18.9863 8.40047C19.6313 8.72919 20.1558 9.25369 20.4845 9.89879C20.6212 10.1669 20.7325 10.5512 20.7939 11.3029C20.8569 12.0745 20.8583 13.0726 20.8583 14.5411V15.2268C20.8583 16.6952 20.8569 17.6934 20.7939 18.465C20.7325 19.2166 20.6212 19.601 20.4845 19.8691C20.1558 20.5142 19.6313 21.0386 18.9863 21.3674C18.7181 21.504 18.3338 21.6153 17.5822 21.6767C16.8106 21.7397 15.8124 21.7411 14.344 21.7411H13.6583C12.1898 21.7411 11.1917 21.7397 10.4201 21.6767C9.66843 21.6153 9.28409 21.504 9.01597 21.3674C8.37088 21.0386 7.84638 20.5142 7.51766 19.8691C7.38105 19.601 7.26975 19.2166 7.20834 18.465C7.14531 17.6934 7.14397 16.6952 7.14397 15.2268V14.5411C7.14397 13.0726 7.14531 12.0745 7.20834 11.3029C7.26975 10.5512 7.38105 10.1669 7.51766 9.89879C7.84638 9.25369 8.37088 8.72919 9.01597 8.40047C9.28409 8.26386 9.66843 8.15256 10.4201 8.09116C11.1917 8.02812 12.1898 8.02679 13.6583 8.02679Z" fill="black"/>
</g>
<defs>
<clipPath id="clip0_1506_5088">
<rect y="0.882812" width="28" height="28" rx="14" fill="white"/>
</clipPath>
</defs>
</svg>
