<svg width="28" height="29" viewBox="0 0 28 29" fill="none" xmlns="http://www.w3.org/2000/svg">
<g clip-path="url(#clip0_1506_5099)">
<path d="M7.2472 12.8673H10.356V22.8828H7.2472V12.8673ZM8.80247 7.88281C9.15904 7.88281 9.5076 7.9887 9.80405 8.18709C10.1005 8.38547 10.3315 8.66743 10.4679 8.99731C10.6043 9.32718 10.6399 9.69014 10.5702 10.0403C10.5005 10.3904 10.3287 10.712 10.0764 10.9643C9.82415 11.2166 9.50282 11.3884 9.15306 11.4578C8.80331 11.5273 8.44083 11.4913 8.11151 11.3544C7.78218 11.2176 7.50079 10.986 7.30294 10.689C7.10509 10.392 6.99966 10.0429 7 9.68584C7.00046 9.20749 7.19056 8.74889 7.52854 8.4108C7.86652 8.07272 8.32472 7.88281 8.80247 7.88281ZM12.3061 12.8673H15.2862V14.2424H15.3274C15.7428 13.4552 16.7557 12.625 18.268 12.625C21.4163 12.6181 22 14.6927 22 17.3826V22.8828H18.8912V18.01C18.8912 16.8498 18.8706 15.3562 17.2758 15.3562C15.681 15.3562 15.4098 16.6212 15.4098 17.9344V22.8828H12.3061V12.8673Z" fill="black"/>
</g>
<defs>
<clipPath id="clip0_1506_5099">
<rect y="0.882812" width="28" height="28" rx="14" fill="white"/>
</clipPath>
</defs>
</svg>
