<svg width="48" height="50" viewBox="0 0 48 50" fill="none" xmlns="http://www.w3.org/2000/svg">
<path fill-rule="evenodd" clip-rule="evenodd" d="M23.7823 11.9141C25.6449 11.5797 27.5531 11.573 29.4182 11.8944L29.4189 11.8936C31.9393 12.3229 34.2696 13.4931 36.1032 15.25L36.5319 15.6753C38.5596 17.7595 39.909 20.2451 40.4593 22.9079L40.5136 23.1843C41.0368 26.0629 40.6291 29.0314 39.3491 31.6699L39.3498 31.6706C38.0997 34.2869 35.8793 36.518 33.0985 37.9596L33.0978 37.9589C30.9669 39.0727 28.5942 39.6622 26.182 39.6752H26.1805C25.5297 39.6759 24.8794 39.6299 24.2354 39.5374C21.6497 39.1647 19.1099 38.0942 16.8873 36.4449C15.7148 35.5745 14.8219 34.6806 14.1736 33.7124C13.5254 32.7446 13.0598 31.6377 12.6452 30.1229C11.5757 26.2207 12.0248 22.358 13.9436 19.2567C15.3078 17.0514 16.7058 15.4006 18.3004 14.2075C19.8988 13.0116 21.6774 12.2892 23.7823 11.9141ZM34.9127 16.4531C31.0919 12.7963 26.0833 13.2059 24.0769 13.563L24.0762 13.5616C22.2237 13.8917 20.6814 14.5279 19.2938 15.5733C17.9009 16.6228 16.6463 18.0975 15.3909 20.1277C13.7314 22.8113 13.3261 26.2058 14.2815 29.6874C14.6567 31.0556 15.0612 32.0049 15.5874 32.7916C16.0475 33.4794 16.6842 34.1484 17.5302 34.8202L17.906 35.1084L18.284 35.3811C20.1896 36.7112 22.3249 37.5712 24.4735 37.8834C29.8183 38.6536 35.5572 35.6672 37.8058 30.9594C40.1774 25.9956 39.0801 20.4427 34.9127 16.4531ZM17.6768 35.409C19.2117 36.5494 20.909 37.3873 22.6572 37.8797L22.2211 37.7492C20.6272 37.2452 19.0837 36.4543 17.6768 35.409ZM38.1503 31.1192L38.0387 31.3458C37.9832 31.4553 37.9243 31.563 37.8653 31.6706C37.9647 31.4895 38.0612 31.3057 38.1503 31.1192ZM13.6222 28.5077C13.6997 28.9321 13.7966 29.359 13.9139 29.7864C13.9615 29.9599 14.0101 30.1271 14.059 30.2886L13.9139 29.7849C13.7967 29.3579 13.6997 28.9318 13.6222 28.5077ZM40.1386 23.2525C40.2326 23.7699 40.2957 24.2903 40.3283 24.8111C40.2957 24.2899 40.2327 23.7689 40.1386 23.251C40.1062 23.0762 40.07 22.9022 40.0307 22.729C40.0701 22.9026 40.1061 23.0773 40.1386 23.2525ZM13.1326 21.8631C13.4202 21.0192 13.7992 20.2121 14.2688 19.4532L14.0984 19.7362C13.7064 20.4117 13.3846 21.1234 13.1326 21.8631ZM36.6561 16.3615C36.5263 16.2179 36.3935 16.0755 36.2573 15.9355L35.8376 15.5198C36.123 15.7928 36.396 16.0739 36.6561 16.3615ZM23.8507 12.2829C23.5939 12.3287 23.3422 12.3797 23.0955 12.4362C22.3959 12.5963 21.7364 12.8021 21.1087 13.0557C21.9577 12.7127 22.8658 12.4584 23.8507 12.2829ZM30.7174 12.5762C30.4187 12.49 30.1161 12.4143 29.8103 12.3504C29.6591 12.3188 29.5069 12.2899 29.3542 12.2639C29.1266 12.2246 28.8983 12.1905 28.6696 12.1612C28.3265 12.1174 27.9822 12.085 27.6375 12.0637L27.982 12.0894C28.4411 12.1278 28.899 12.1854 29.3542 12.2639C29.8158 12.3425 30.271 12.4473 30.7174 12.5762ZM25.2221 12.0989C25.4515 12.0781 25.6812 12.0613 25.9112 12.0505C25.5663 12.0667 25.2218 12.0947 24.8783 12.1334L25.2221 12.0989Z" fill="#643BFF"/>
<path d="M0.472656 7.54041C3.23047 9.29932 4.74118 10.4522 7.20046 12.3427L10.9947 10.9527L11.4991 6.50855C9.97392 4.91451 8.03707 3.51497 5.75234 1.37891L5.53086 6.43027C5.53086 6.43027 1.96412 7.12174 0.472656 7.54041Z" fill="#643BFF"/>
<path d="M7.19656 12.8077C7.09235 12.8078 6.99112 12.7735 6.90887 12.7105C4.35329 10.7452 2.89432 9.64101 0.214746 7.93073C0.139394 7.88292 0.0795535 7.81481 0.0423228 7.73449C0.00509203 7.65416 -0.00796946 7.565 0.00470525 7.47758C0.01738 7.39016 0.055257 7.30816 0.113825 7.24132C0.172394 7.17448 0.249198 7.12561 0.335122 7.1005C1.56296 6.75536 4.11855 6.24061 5.06832 6.05203L5.27536 1.3636C5.27919 1.27519 5.30875 1.18972 5.3605 1.1174C5.41225 1.04507 5.48402 0.988937 5.56725 0.955685C5.65048 0.922432 5.74167 0.913469 5.82993 0.929856C5.91819 0.946243 5.9998 0.987287 6.06504 1.04811C7.07981 1.99694 8.00551 2.7821 8.90231 3.5388C10.0122 4.48052 10.9716 5.29415 11.8298 6.19198C11.876 6.24088 11.9106 6.29914 11.9314 6.36267C11.9522 6.42619 11.9586 6.49343 11.9502 6.55966L11.4458 11.0038C11.4358 11.0886 11.4023 11.1691 11.3491 11.2364C11.2958 11.3038 11.2247 11.3554 11.1437 11.3857L7.34944 12.7757C7.30059 12.7945 7.24895 12.8053 7.19656 12.8077ZM1.61353 7.73147C3.72252 9.11203 5.11648 10.1641 7.27844 11.8245L10.5575 10.6231L11.0065 6.6747C10.2168 5.86938 9.32121 5.1115 8.29681 4.24213C7.64558 3.68943 6.92812 3.08099 6.17216 2.40139L5.994 6.4541C5.98932 6.55736 5.94968 6.65611 5.88139 6.73457C5.81309 6.81304 5.72011 6.86671 5.61724 6.88701C5.58835 6.8882 3.2675 7.33889 1.61353 7.72791V7.73147Z" fill="#1C1C1E"/>
<path fill-rule="evenodd" clip-rule="evenodd" d="M24.6326 17.6833C25.8602 17.4131 28.5052 17.2196 30.6502 18.2544C32.6799 19.2364 34.1403 20.8306 34.8537 22.863C35.52 24.7619 35.4804 26.9518 34.7428 29.0392L34.742 29.0399C34.2193 30.5065 33.2947 31.8019 32.0714 32.7834L32.0722 32.7841C30.862 33.7822 29.3771 34.4025 27.8077 34.5664L27.8084 34.5672L27.6886 34.5789L27.6894 34.5796C27.2529 34.6283 26.8138 34.654 26.3745 34.6559H26.373C24.8657 34.6559 22.5622 34.3186 20.5831 32.3963C18.7411 30.6072 17.8081 28.4958 17.8448 26.1322V26.1293C17.8836 24.5138 18.3451 22.9354 19.1842 21.547L19.1872 21.5419C19.7907 20.5769 20.5825 19.7391 21.5162 19.077C22.4501 18.4149 23.5083 17.9413 24.6288 17.684L24.6326 17.6833ZM27.5361 33.2886C27.3038 33.3123 26.9526 33.3484 26.5211 33.3545L26.1825 33.3531C26.769 33.3673 27.245 33.3189 27.5353 33.2893L27.5361 33.2886ZM23.0506 32.5877C23.4249 32.7813 23.7999 32.9282 24.166 33.0393L23.9458 32.9682C23.7241 32.8926 23.5 32.803 23.2753 32.6976C23.2004 32.6625 23.1255 32.6264 23.0506 32.5877ZM26.8046 19.1386C26.1957 19.1353 25.5876 19.1946 24.9912 19.316C24.0935 19.5232 23.2459 19.9039 22.4977 20.4348C21.7481 20.9668 21.1129 21.64 20.6285 22.4151C19.9509 23.5534 19.5776 24.8429 19.5436 26.1622C19.5164 28.0361 20.2554 29.7284 21.7752 31.2042C23.9081 33.2744 26.5733 33.0096 27.4966 32.9154H27.4981L27.6321 32.9022H27.6336C30.0203 32.6797 32.2901 30.8653 33.1296 28.49C34.4292 24.7923 33.103 21.3089 29.8934 19.7574C28.9382 19.2929 27.8091 19.1386 26.8113 19.1386H26.8046ZM20.9492 30.8831C21.1226 31.0833 21.309 31.2799 21.5073 31.4725C21.309 31.2799 21.1233 31.0826 20.95 30.8823L20.9492 30.8831ZM19.4722 28.3038C19.6174 28.762 19.8137 29.2065 20.06 29.6367L19.8851 29.3112C19.7193 28.9832 19.5811 28.6474 19.4722 28.3038ZM19.2311 27.2503C19.2483 27.3699 19.2692 27.4886 19.2928 27.6066L19.2311 27.2503C19.2138 27.1308 19.2003 27.0106 19.1894 26.8895L19.2311 27.2503ZM31.8333 19.4032C33.0757 20.318 33.9843 21.5353 34.4935 22.9862C34.7318 23.6652 34.8762 24.3852 34.9258 25.1263C34.901 24.7555 34.8521 24.3901 34.78 24.0324C34.756 23.9133 34.7296 23.7949 34.7004 23.6776C34.6419 23.4428 34.5729 23.2125 34.4935 22.9862C34.4511 22.8653 34.406 22.7453 34.3581 22.6277C34.0704 21.9219 33.684 21.2762 33.2077 20.6987C32.8109 20.2178 32.3507 19.7843 31.8333 19.4032ZM20.3033 22.2186C19.7242 23.1894 19.3566 24.2653 19.2199 25.3778L19.2556 25.1219C19.2689 25.0368 19.2836 24.952 19.2995 24.8675C19.3155 24.7829 19.333 24.6986 19.3516 24.6145C19.5381 23.7746 19.8578 22.9654 20.3033 22.2186ZM24.7152 18.0498C25.0115 17.9846 25.3928 17.9237 25.8298 17.8856C25.5019 17.9142 25.2053 17.9552 24.9525 18.0014C24.8684 18.0168 24.7891 18.0336 24.7152 18.0498C24.4473 18.1113 24.1829 18.1851 23.9234 18.272C23.5342 18.4024 23.1553 18.561 22.7901 18.7463C22.6685 18.8081 22.5485 18.873 22.43 18.9406C22.1928 19.076 21.962 19.2229 21.7387 19.3813C21.5155 19.5396 21.3006 19.7085 21.0951 19.8871C20.9923 19.9764 20.8918 20.068 20.7937 20.1621C20.4993 20.4444 20.2266 20.7481 19.9774 21.0705C20.4756 20.4261 21.069 19.8561 21.7387 19.3813C22.6319 18.748 23.6435 18.2959 24.7152 18.0498ZM22.5758 19.9275C22.5064 19.9718 22.4385 20.0186 22.3705 20.0653C22.5385 19.95 22.7102 19.8406 22.8869 19.7398L22.5758 19.9275Z" fill="#643BFF"/>
<path d="M30.9536 21.9395C29.3727 24.6278 27.9209 27.383 26.5984 30.205C25.4043 27.8329 23.8972 25.6067 22.1758 23.4576C23.5481 24.1799 25.3609 25.8297 26.5503 26.8188C26.5334 26.5804 29.0926 23.1433 30.9536 21.9395Z" fill="#643BFF"/>
<path d="M26.6066 30.6626C26.5195 30.6623 26.4343 30.6383 26.3603 30.593C26.2863 30.5478 26.2265 30.4832 26.1877 30.4064C25.0839 28.2158 23.6598 26.0346 21.8157 23.7396C21.7489 23.6564 21.7134 23.5531 21.7149 23.447C21.7164 23.341 21.755 23.2387 21.8241 23.1574C21.8932 23.0761 21.9886 23.0207 22.0943 23.0006C22.1999 22.9805 22.3094 22.9969 22.4043 23.047C23.5551 23.6519 24.9695 24.8569 26.1059 25.8247L26.4273 26.0987L26.5946 25.8615C26.8967 25.438 27.2867 24.9375 27.6948 24.4501C28.34 23.6779 29.5895 22.276 30.7042 21.5525C30.7922 21.4955 30.8972 21.4693 31.0022 21.4783C31.1072 21.4873 31.206 21.5309 31.2827 21.6021C31.3594 21.6733 31.4095 21.7679 31.4249 21.8706C31.4403 21.9733 31.4201 22.0781 31.3675 22.1681C29.8026 24.8355 28.3424 27.6038 27.034 30.3969C26.9969 30.4758 26.9378 30.5428 26.8637 30.59C26.7896 30.6373 26.7033 30.6628 26.615 30.6638L26.6066 30.6626ZM24.352 25.5626C25.1663 26.7165 25.9127 27.9156 26.5874 29.1539C27.3843 27.4934 28.2317 25.8484 29.1213 24.2283C28.0572 25.3989 27.1543 26.6336 27.0159 26.917C26.9979 26.9941 26.9602 27.0653 26.9063 27.1239C26.8524 27.1825 26.7842 27.2266 26.7081 27.2518C26.632 27.277 26.5507 27.2826 26.4718 27.268C26.3929 27.2534 26.3191 27.2191 26.2575 27.1685C26.0168 26.974 25.7664 26.7545 25.4943 26.5233C25.1356 26.2173 24.748 25.8875 24.352 25.5626Z" fill="#643BFF"/>
<path fill-rule="evenodd" clip-rule="evenodd" d="M3.36664 3.78384C3.48443 3.77928 3.60224 3.79915 3.71191 3.84176C3.81136 3.88044 3.90188 3.93783 3.97979 4.00966C6.9443 6.49462 9.91374 9.02158 12.8615 11.5656C13.7051 10.9124 14.673 10.2803 15.8863 9.53328C18.812 7.70973 22.1729 6.67605 25.6319 6.53466H25.6334C28.9499 6.40732 32.2484 7.074 35.2458 8.47826C39.9505 10.6752 43.3589 14.3099 45.0882 18.9852C46.7179 23.3936 46.6744 28.4016 44.9758 33.086C43.8225 36.2645 41.634 39.2124 38.8168 41.3934C38.6678 41.5087 38.5166 41.6209 38.3651 41.7314C38.4173 41.9104 38.4674 42.0852 38.5184 42.2556L38.5192 42.2571C38.9339 43.6584 39.3055 44.9046 39.3764 46.5644L39.3794 46.7242C39.3778 46.9165 39.3586 47.199 39.2834 47.508C39.1832 47.9191 38.9765 48.4058 38.5489 48.7815L38.5445 48.7852C38.0993 49.1644 37.5251 49.363 36.9372 49.3431H36.9342C36.9306 49.343 36.9267 49.3439 36.923 49.3438C36.7424 49.3424 36.562 49.3274 36.3836 49.2998H36.3813C35.5579 49.167 34.8029 48.7666 34.2368 48.1627C33.7464 47.6426 33.456 47.0557 33.2211 46.5835C32.9809 46.1006 32.788 45.6805 32.6124 45.288C32.5248 45.0921 32.4336 44.8957 32.3349 44.6875C31.2553 44.9925 30.1522 45.1964 29.037 45.2938L29.0377 45.2946L28.7252 45.3232L28.7244 45.3224C27.7449 45.4256 26.7607 45.4806 25.7755 45.4859H25.7733C23.8869 45.4859 21.4608 45.2689 18.9044 44.3979C18.6044 45.0895 18.2771 45.7694 17.9222 46.4354L17.728 46.7939C17.3242 47.5266 16.7708 48.4436 15.7576 48.9421L15.7531 48.9443C15.3529 49.1344 14.9138 49.2312 14.4695 49.2295H14.468L14.4673 49.2302C13.7093 49.2297 12.8863 48.9467 12.4113 48.2734L12.3205 48.1334C11.9216 47.4535 12.017 46.7138 12.1047 46.181C12.3769 44.5265 12.7722 42.8938 13.2879 41.2967C12.9624 41.0323 12.6381 40.7533 12.319 40.4557C9.40902 37.7424 7.42379 34.7356 6.44428 31.5141C5.64735 28.8729 5.50404 26.0807 6.02684 23.3739C6.63041 20.2489 7.91878 17.2912 9.80171 14.7072L9.80468 14.7028C10.3984 13.9123 10.9675 13.2621 11.5749 12.6756C8.68979 10.187 5.78492 7.71461 2.88446 5.28315L2.8852 5.28242C2.80125 5.21905 2.72871 5.14218 2.67387 5.05294C2.61296 4.95367 2.57297 4.8426 2.55779 4.72742C2.54266 4.61226 2.55209 4.49492 2.58533 4.38357C2.61859 4.27223 2.67528 4.16875 2.75126 4.08004C2.82728 3.99136 2.92149 3.91914 3.02733 3.86816C3.1332 3.8172 3.24895 3.78845 3.36664 3.78384ZM36.9379 48.9677L36.9387 48.9684C36.9954 48.9707 37.052 48.9696 37.1083 48.967C37.0518 48.9696 36.9949 48.97 36.9379 48.9677ZM15.5872 48.6063C15.5021 48.6467 15.4146 48.6811 15.326 48.7118C15.3694 48.6968 15.4128 48.6816 15.4555 48.6642L15.5872 48.6063ZM38.8079 44.9089C38.9028 45.4306 38.9697 45.9772 38.9954 46.5805C39.0086 46.8735 38.995 47.8859 38.2944 48.5014C38.2038 48.5786 38.1062 48.6456 38.0042 48.7045C38.0536 48.676 38.1025 48.6464 38.1493 48.6136L38.2944 48.5014C38.3383 48.4629 38.3801 48.4226 38.4187 48.3812C38.4957 48.2987 38.5629 48.2114 38.6211 48.1209C38.6502 48.0756 38.6773 48.0296 38.7022 47.9831C39.0009 47.4254 39.006 46.8015 38.9961 46.5813C38.9618 45.7766 38.8547 45.0725 38.7044 44.3943L38.8079 44.9089ZM33.8119 44.7564C33.9865 45.1467 34.1731 45.5375 34.4042 46.0131C34.6233 46.4518 34.85 46.9062 35.2027 47.2785C35.3857 47.4737 35.5989 47.6361 35.8329 47.7609C35.716 47.6985 35.6042 47.6267 35.4988 47.5461C35.3933 47.4655 35.2942 47.3761 35.2027 47.2785C35.1146 47.1855 35.0343 47.087 34.9601 46.9853C34.8116 46.7815 34.6875 46.5633 34.5724 46.343C34.5149 46.2331 34.4589 46.1226 34.4042 46.0131C34.2887 45.7752 34.1846 45.5583 34.0872 45.3525L33.8127 44.7572L33.8119 44.7564ZM13.4598 47.4831C13.5085 47.5663 13.5756 47.6361 13.654 47.6957C13.6047 47.6582 13.5597 47.617 13.5215 47.5703L13.4598 47.4831ZM36.8843 42.7139C35.9411 43.2798 34.9605 43.7597 33.9526 44.1487C34.025 44.3056 34.0943 44.4564 34.1609 44.6054C34.3325 44.989 34.5166 45.3741 34.7465 45.8474L34.9125 46.1736C35.0507 46.4379 35.1935 46.6816 35.3708 46.8965L35.4817 47.0219L35.4824 47.0234C35.7908 47.3522 36.2013 47.5714 36.6492 47.6466C37.0661 47.7096 37.2954 47.6339 37.4194 47.5315C37.5323 47.4297 37.6083 47.2519 37.6486 47.0417C37.6871 46.8403 37.6825 46.666 37.6813 46.6363C37.6185 45.1952 37.3038 44.1284 36.8881 42.7263C36.8869 42.7223 36.8856 42.7179 36.8843 42.7139ZM14.7337 42.3568C14.3269 43.6988 14.008 45.0657 13.7797 46.4486C13.7462 46.6532 13.7228 46.8267 13.7239 46.9779C13.725 47.1278 13.7509 47.2269 13.7909 47.2954C13.8532 47.4016 14.012 47.5063 14.276 47.5439C14.5331 47.5805 14.8085 47.5391 15.0001 47.4449C15.5304 47.1832 15.8946 46.6135 16.2345 45.9955C16.6322 45.2735 16.9945 44.5328 17.3239 43.7784C16.4603 43.393 15.5923 42.9238 14.7337 42.3568ZM17.3924 46.6143C17.2448 46.8821 17.083 47.1613 16.8938 47.4295C17.0185 47.2528 17.1324 47.0721 17.2369 46.8921L17.3931 46.615L17.3924 46.6143ZM13.7291 44.6993C13.606 45.2591 13.4966 45.822 13.4032 46.3877C13.3611 46.645 13.3282 46.8951 13.3504 47.1172C13.3283 46.8952 13.3619 46.6455 13.4039 46.3885C13.4974 45.8226 13.6059 45.2592 13.7291 44.6993ZM26.5353 45.0959C26.2812 45.1039 26.0268 45.1085 25.7725 45.1098L25.7733 45.1106C26.0274 45.1092 26.2814 45.1039 26.5353 45.0959ZM34.5129 9.99297C28.7629 7.30392 22.1317 7.66517 16.7926 10.9541L16.7004 11.0113H16.6966C15.6733 11.6429 14.8581 12.1724 14.1622 12.6903C15.7166 14.0375 17.2643 15.3885 18.8002 16.7402L18.8136 16.6933C18.8614 16.4807 18.9917 16.2947 19.1768 16.175C19.365 16.0532 19.5947 16.0098 19.8152 16.0547C20.0357 16.0998 20.2296 16.2293 20.3532 16.4147C20.4768 16.6003 20.5202 16.8273 20.4745 17.0445L20.473 17.0518C20.3363 17.6397 20.0284 18.176 19.5875 18.5944C19.1466 19.0126 18.5912 19.295 17.9899 19.4075L17.9847 19.4089C17.9357 19.4174 17.8856 19.4214 17.8359 19.4214C17.6238 19.4213 17.4194 19.3426 17.2629 19.2014C17.1064 19.0602 17.0093 18.8664 16.9906 18.6582C16.9719 18.4499 17.0328 18.2421 17.1617 18.076C17.2473 17.9659 17.3591 17.8796 17.4854 17.8231C15.9513 16.474 14.4061 15.1255 12.854 13.7812C12.2671 14.3363 11.7381 14.9423 11.1724 15.6947C9.43777 18.0764 8.25218 20.8027 7.69662 23.6825L7.69588 23.6818C6.63985 29.4205 8.56127 34.6473 13.4821 39.2402L13.875 39.595C17.952 43.1663 22.64 43.8093 25.7852 43.8107C26.7103 43.8065 27.6349 43.7567 28.5548 43.6604H28.5592L28.8807 43.6303H28.8829L29.1798 43.6017C35.4183 42.9337 41.2354 38.4131 43.3708 32.5266C46.7384 23.2411 43.0806 13.9935 34.5129 9.99297ZM17.4073 43.4045C17.477 43.4361 17.5474 43.4657 17.6171 43.4961C17.5389 43.462 17.4602 43.4283 17.382 43.3928L17.4073 43.4045ZM17.7808 42.5555C17.8015 42.5649 17.8226 42.5734 17.8433 42.5826C17.8184 42.5715 17.7931 42.5609 17.7682 42.5496L17.7808 42.5555ZM13.9918 40.1903C13.8682 40.0881 13.7453 39.9832 13.6227 39.8758L13.2202 39.5129C13.4748 39.7503 13.7324 39.9757 13.9918 40.1903ZM9.41775 34.9416C9.61214 35.2592 9.81875 35.5741 10.0368 35.8867C9.70983 35.418 9.40943 34.9436 9.13573 34.4636L9.41775 34.9416ZM44.6164 32.9599C44.5748 33.0746 44.5313 33.1889 44.4869 33.303C44.4938 33.2853 44.5017 33.268 44.5085 33.2502L44.6164 32.9599ZM7.70704 21.9801C7.55633 22.5178 7.42768 23.0622 7.32159 23.6121C6.74602 26.7375 7.03565 29.7127 8.18327 32.5149L7.9898 32.0185C7.005 29.3623 6.78073 26.5541 7.32233 23.6129C7.42844 23.0628 7.55631 22.5179 7.70704 21.9801ZM45.6165 22.4317C45.4461 21.4407 45.2002 20.467 44.8754 19.5204L44.7302 19.1142C44.4127 18.2555 44.0373 17.4324 43.6066 16.6479C44.0372 17.4322 44.412 18.255 44.7295 19.1135C45.1265 20.1872 45.4216 21.2982 45.6165 22.4317ZM10.8628 15.4763C9.64809 17.1441 8.69769 18.9778 8.03817 20.9141L8.22568 20.3884C8.87313 18.6456 9.75854 16.9924 10.8628 15.4763ZM17.9185 19.0387C17.8912 19.0434 17.8636 19.046 17.8359 19.046L17.9185 19.0387ZM20.1009 16.9682C20.0577 17.1539 19.9939 17.333 19.9134 17.5042C19.9659 17.3924 20.0127 17.2779 20.0496 17.1596C20.0692 17.0966 20.0859 17.0328 20.1009 16.9682ZM20.034 16.6207C20.0666 16.6697 20.0883 16.7243 20.1002 16.7806C20.0945 16.7536 20.0876 16.727 20.0771 16.7014L20.034 16.6207ZM26.2585 6.89464C27.8843 6.88081 29.5015 7.06112 31.0751 7.42838C30.6817 7.33657 30.2857 7.25623 29.8875 7.1879C29.4892 7.11957 29.0886 7.06316 28.6865 7.01854C27.8822 6.92929 27.0714 6.88772 26.2585 6.89464ZM3.57202 4.19075C3.542 4.17908 3.51063 4.17043 3.479 4.16509L3.38227 4.15849C3.44722 4.15597 3.51155 4.16725 3.57202 4.19075ZM6.31257 23.9413L6.24337 24.4091C6.24201 24.4193 6.24099 24.4296 6.23965 24.4399C6.26144 24.2735 6.28572 24.1073 6.31257 23.9413Z" fill="#1C1C1E"/>
<path fill-rule="evenodd" clip-rule="evenodd" d="M4.74399 35.7672C4.95064 35.6788 5.18477 35.6747 5.39434 35.7562C5.60374 35.8377 5.77198 35.9978 5.86164 36.2012C6.36048 37.3334 6.88565 38.442 7.54036 39.3721C8.19333 40.2997 8.96007 41.0276 9.93044 41.4242C10.1113 41.4986 10.2609 41.6329 10.3531 41.8033C10.4452 41.9738 10.4747 42.171 10.4364 42.3605C10.3981 42.5498 10.2946 42.7203 10.1433 42.8429C9.99188 42.9655 9.80198 43.033 9.60601 43.0335L9.60526 43.0328C9.49198 43.0333 9.37973 43.0115 9.27562 42.9675C6.67426 41.9022 5.37046 39.2892 4.30348 36.8677C4.21385 36.6642 4.20971 36.434 4.29232 36.2276C4.37498 36.0211 4.53742 35.8556 4.74399 35.7672ZM9.76822 42.6274C9.81576 42.6097 9.86084 42.5855 9.90067 42.5533C9.87994 42.5701 9.85827 42.5851 9.83519 42.598C9.81388 42.61 9.79113 42.6189 9.76822 42.6274ZM10.0488 42.0526C10.0563 42.0753 10.0613 42.0987 10.0651 42.1222C10.0608 42.096 10.0542 42.0702 10.0455 42.0451L10.0168 41.98C9.96871 41.8911 9.89252 41.8202 9.80005 41.778C9.7947 41.7756 9.7893 41.7733 9.78385 41.771C9.20381 41.5339 8.69656 41.1907 8.2448 40.7708C8.23199 40.7589 8.21906 40.7471 8.20634 40.7351L8.19635 40.7253C8.14846 40.6798 8.10119 40.6334 8.05454 40.5862L8.19635 40.7253C8.21243 40.7405 8.22858 40.7557 8.2448 40.7708C8.69656 41.1907 9.20381 41.5339 9.78385 41.771C9.7893 41.7733 9.7947 41.7756 9.80005 41.778C9.84364 41.7979 9.88422 41.8239 9.91928 41.8553C9.95857 41.8906 9.99139 41.9331 10.0168 41.98C10.0281 42.001 10.0377 42.0228 10.0455 42.0451L10.0488 42.0526ZM7.28587 41.1332C7.44938 41.3047 7.62019 41.4679 7.79931 41.6215C7.73958 41.5703 7.68089 41.5186 7.62295 41.4653C7.50703 41.3587 7.39496 41.2476 7.28587 41.1332ZM7.79931 41.6215C7.62019 41.4679 7.44938 41.3047 7.28587 41.1332C7.39496 41.2476 7.50703 41.3587 7.62295 41.4653C7.68089 41.5186 7.73958 41.5703 7.79931 41.6215ZM7.9072 40.4323C7.81017 40.3277 7.71554 40.2197 7.6237 40.1082L7.60732 40.0877C7.56715 40.0387 7.52746 39.9891 7.48827 39.9389L7.60732 40.0877C7.65864 40.1503 7.71074 40.2119 7.76359 40.2724L7.9072 40.4323ZM6.9793 39.2167C6.73765 38.8402 6.51334 38.4426 6.30216 38.0326C6.3725 38.1692 6.44463 38.3046 6.51795 38.4381C6.59132 38.5717 6.66666 38.7034 6.74341 38.8333L6.9793 39.2167ZM5.3363 36.147C5.35897 36.1614 5.37982 36.1781 5.39955 36.1961C5.36209 36.1619 5.31916 36.1335 5.27187 36.1127C5.29431 36.1225 5.31605 36.1341 5.3363 36.147Z" fill="#0FDAC2"/>
<path fill-rule="evenodd" clip-rule="evenodd" d="M41.4919 7.18204C41.605 7.19004 41.716 7.22003 41.8171 7.27075C41.9151 7.31996 42.0019 7.38818 42.0738 7.47017C43.9463 9.54832 45.3995 11.96 46.3532 14.5752L46.3785 14.6544C46.3995 14.7345 46.4082 14.8178 46.4045 14.9007C46.3995 15.0114 46.3721 15.1203 46.3241 15.2204C46.2762 15.3205 46.2082 15.4102 46.1247 15.4843C46.0412 15.5584 45.9435 15.6156 45.8375 15.6522L45.8293 15.6552L45.8211 15.6574C45.7336 15.6834 45.6423 15.6937 45.551 15.6903H45.5465C45.5395 15.6901 45.532 15.6908 45.525 15.6903V15.6889C45.3592 15.6838 45.1981 15.6327 45.0621 15.5386C44.9548 15.4642 44.8669 15.3666 44.8047 15.2541L44.7511 15.1368C43.8714 12.7242 42.5318 10.4992 40.8051 8.58164C40.7311 8.50197 40.6735 8.40796 40.6354 8.3067C40.5961 8.20199 40.5783 8.0905 40.5833 7.97898C40.5884 7.86753 40.6158 7.75798 40.6644 7.65712C40.7131 7.55628 40.7822 7.46598 40.8668 7.39172C40.9515 7.31747 41.0505 7.26053 41.1578 7.22456C41.265 7.18862 41.3788 7.17409 41.4919 7.18204ZM45.9789 15.0598C45.9657 15.0874 45.9503 15.114 45.932 15.1383L45.9789 15.0598L46.0101 14.9741C46.0028 15.0035 45.992 15.0324 45.9789 15.0598ZM42.1296 8.10582C42.2404 8.23483 42.3494 8.36515 42.457 8.49659C42.3471 8.36228 42.2356 8.22932 42.1224 8.09764L42.1072 8.08003L41.7895 7.71944C41.7693 7.69581 41.7463 7.67402 41.7218 7.65492L41.6437 7.60507C41.6994 7.63303 41.7492 7.67237 41.7895 7.71944C41.8969 7.83859 42.0028 7.95877 42.1072 8.08003L42.1224 8.09764L42.1296 8.10582Z" fill="#0FDAC2"/>
<path fill-rule="evenodd" clip-rule="evenodd" d="M45.0785 7.53908C45.1892 7.5518 45.2967 7.58536 45.394 7.63879C45.4913 7.69224 45.577 7.76456 45.6462 7.85068L45.8524 8.11535C46.865 9.45074 47.5889 10.9782 47.9775 12.603C48.0069 12.7259 48.0077 12.8539 47.9798 12.9769C47.9518 13.1 47.8958 13.2153 47.8161 13.3142C47.7393 13.4094 47.6421 13.4863 47.5318 13.5407V13.6309L47.1508 13.6316C46.9594 13.6317 46.7732 13.5677 46.6233 13.4505C46.4734 13.3334 46.3684 13.1692 46.3249 12.9857C45.9672 11.4916 45.2807 10.0937 44.3143 8.88956C44.2451 8.80343 44.1937 8.70407 44.1632 8.5985C44.1329 8.49317 44.1237 8.38269 44.1364 8.27371C44.1493 8.16461 44.1842 8.05875 44.2384 7.96285C44.2927 7.86686 44.366 7.78252 44.4534 7.71431C44.5409 7.64611 44.6409 7.59553 44.7481 7.56548C44.8554 7.53543 44.9677 7.5264 45.0785 7.53908ZM47.1508 13.2548V13.2563L47.1501 13.2555L47.1508 13.2548ZM47.6077 12.8948C47.6049 12.9072 47.6011 12.9194 47.5973 12.9315L47.6077 12.8948ZM47.6062 12.6888C47.6073 12.6933 47.6082 12.6978 47.609 12.7024L47.6062 12.6888ZM45.5473 8.33969C45.8095 8.68546 46.0514 9.04467 46.2728 9.41524C46.1067 9.13715 45.9285 8.86579 45.7393 8.60143L45.5473 8.33969ZM45.0338 7.91153C45.0515 7.91355 45.0687 7.91855 45.0859 7.92253L45.0338 7.91153Z" fill="#0FDAC2"/>
</svg>
