<svg width="67" height="76" viewBox="0 0 67 76" fill="none" xmlns="http://www.w3.org/2000/svg">
<path d="M51.1093 10.4157L46.4256 8.86185L44.872 4.178C44.8373 4.07304 44.7704 3.9817 44.6808 3.91695C44.5913 3.8522 44.4835 3.81735 44.373 3.81735C44.2625 3.81735 44.1547 3.8522 44.0652 3.91695C43.9756 3.9817 43.9087 4.07304 43.874 4.178L42.3211 8.86185L37.6367 10.4157C37.532 10.4506 37.441 10.5175 37.3764 10.607C37.3119 10.6965 37.2772 10.8041 37.2772 10.9144C37.2772 11.0247 37.3119 11.1323 37.3764 11.2218C37.441 11.3113 37.532 11.3782 37.6367 11.4131L42.3211 12.9668L43.874 17.6508C43.9089 17.7557 43.9759 17.8468 44.0655 17.9115C44.1552 17.9761 44.2629 18.0109 44.3733 18.0109C44.4838 18.0109 44.5914 17.9761 44.6809 17.9114C44.7704 17.8468 44.8372 17.7556 44.872 17.6508L46.4256 12.9668L51.1093 11.4131C51.2142 11.3783 51.3055 11.3113 51.3702 11.2217C51.4349 11.1322 51.4698 11.0245 51.4699 10.914C51.4699 10.8035 51.435 10.6959 51.3703 10.6064C51.3055 10.517 51.2142 10.4502 51.1093 10.4157Z" fill="#0E0E0F"/>
<path fill-rule="evenodd" clip-rule="evenodd" d="M28.7898 44.1935L15.9444 31.3481L22.1404 25.1517L35.1924 38.2036L37.7428 35.8178L23.863 21.9376C23.7753 21.7168 23.6434 21.5163 23.4754 21.3484C23.3075 21.1804 23.1069 21.0486 22.8861 20.9609L18.8407 16.9155C17.4345 15.5093 15.5651 14.7351 13.5765 14.7351C11.5881 14.7351 9.71874 15.5095 8.3129 16.9153L7.70798 17.5201C4.80556 20.423 4.80573 25.1458 7.70816 28.0482L26.239 46.5793L28.7898 44.1935ZM10.1764 25.5802C8.63491 24.0388 8.63491 21.5303 10.1764 19.9886L10.7811 19.3839C11.5279 18.6371 12.5206 18.2259 13.5767 18.2259C14.6328 18.2259 15.6257 18.6369 16.3727 19.3841L19.6722 22.6835L13.4762 28.8799L10.1764 25.5802ZM65.3649 71.7611C64.6718 69.6784 61.0926 59.1677 58.6966 56.7716L58.6811 56.7559C58.5935 56.5351 58.4616 56.3346 58.2935 56.1667C58.1256 55.9987 57.9251 55.8668 57.7043 55.7793L49.2153 47.2901L46.9377 49.9491L54.4901 57.5015L48.294 63.6978L41.2203 56.6242L38.9429 59.2831L47.5639 67.9042C49.96 70.3001 60.4702 73.8789 62.5531 74.5719C62.8603 74.6742 63.19 74.689 63.5051 74.6145C63.8203 74.5401 64.1086 74.3795 64.3376 74.1506L64.9422 73.5465C65.1717 73.3177 65.3328 73.0293 65.4075 72.7139C65.4821 72.3986 65.4674 72.0686 65.3649 71.7611ZM50.8791 66.05L56.8423 60.0866C58.0443 62.081 59.8316 66.553 61.2083 70.4157C57.3458 69.0391 52.8738 67.252 50.8791 66.05Z" fill="#0FDAC2"/>
<path d="M65.8019 4.32617L63.0119 3.40064L62.0864 0.61061C62.0656 0.548259 62.0257 0.494026 61.9724 0.455595C61.9191 0.417165 61.855 0.396484 61.7893 0.396484C61.7236 0.396484 61.6595 0.417165 61.6062 0.455595C61.5529 0.494026 61.513 0.548259 61.4923 0.61061L60.5667 3.40064L57.7764 4.32617C57.7139 4.34681 57.6596 4.3866 57.6211 4.4399C57.5826 4.4932 57.5618 4.55729 57.5619 4.62305C57.5619 4.75796 57.6481 4.87786 57.7764 4.92062L60.5667 5.84615L61.4923 8.63583C61.5129 8.69835 61.5527 8.75278 61.606 8.79137C61.6593 8.82995 61.7235 8.85072 61.7893 8.85072C61.8551 8.85072 61.9193 8.82995 61.9726 8.79137C62.026 8.75278 62.0658 8.69835 62.0864 8.63583L63.0119 5.84615L65.8019 4.92062C65.8644 4.89979 65.9187 4.85986 65.9573 4.80646C65.9958 4.75305 66.0165 4.68889 66.0166 4.62305C66.0166 4.48831 65.93 4.36841 65.8019 4.32617Z" fill="#0E0E0F"/>
<path d="M64.9355 16.5158L64.5938 16.1745C63.6662 15.2472 62.4241 14.7363 61.0968 14.7363C59.7602 14.7363 58.5055 15.2494 57.559 16.1821L19.3281 51.4581C19.3109 51.4739 19.2943 51.4902 19.2775 51.5066C18.4864 52.2976 18.0623 53.2995 18.0466 54.4069C17.5666 54.3056 17.0775 54.2539 16.587 54.2526C14.589 54.2526 12.7878 55.1097 11.2338 56.8002C9.26494 58.9421 8.45216 61.3066 7.73537 63.3926C6.67143 66.4887 5.8309 68.9344 1.68128 70.7055C1.41876 70.8176 1.18773 70.9923 1.00843 71.2144C0.829132 71.4365 0.707035 71.6991 0.652841 71.9794C0.598648 72.2596 0.614011 72.5489 0.697586 72.8218C0.78116 73.0947 0.930394 73.3429 1.13221 73.5448C2.49913 74.9119 6.15081 75.3971 8.8623 75.3971C12.4098 75.3971 19.1255 74.6323 24.2446 69.513C25.7049 68.0527 26.4434 66.3467 26.4392 64.4422C26.4366 63.9699 26.3893 63.499 26.298 63.0357C26.4146 63.0452 26.5316 63.0502 26.6486 63.0508C27.7855 63.0508 28.8133 62.6239 29.6212 61.8162C29.6376 61.7996 29.654 61.7829 29.6697 61.7656L64.9287 23.5513C66.8583 21.5931 66.8646 18.4454 64.9355 16.5158ZM21.7765 67.045C17.5466 71.275 11.8698 71.9067 8.86248 71.9067C8.03015 71.9067 7.287 71.8608 6.63845 71.7892C9.29112 69.6055 10.2048 66.9474 11.0364 64.5272C11.701 62.5936 12.3286 60.7671 13.8036 59.1627C14.6815 58.2076 15.5918 57.7434 16.5868 57.7434C18.2352 57.7434 19.8933 59.0339 20.5444 59.6709C20.6106 59.7411 20.6607 59.7917 20.6879 59.8189L20.742 59.8732C20.9235 60.0613 22.9437 62.2131 22.9488 64.4502C22.9509 65.4054 22.5672 66.2543 21.7765 67.045ZM62.4335 21.1108C62.4169 21.1273 62.4007 21.1442 62.385 21.1615L27.1335 59.3676C26.9865 59.5081 26.8525 59.5606 26.6488 59.5606C25.7821 59.5606 24.4344 58.618 23.7603 57.9546L23.2245 57.4188L23.2163 57.4104C23.1566 57.3472 23.096 57.2849 23.0343 57.2236C22.492 56.64 21.5368 55.352 21.5356 54.4717C21.5354 54.2718 21.5876 54.1402 21.7264 53.9948L59.9494 18.7264C59.9667 18.7104 59.9836 18.694 60.0002 18.6776C60.2906 18.387 60.68 18.2271 61.0968 18.2271C61.4921 18.2271 61.8575 18.3749 62.1265 18.6437L62.4677 18.9847C63.0349 19.5516 63.019 20.5255 62.4335 21.1108Z" fill="#0FDAC2"/>
</svg>
